<svg xmlns="http://www.w3.org/2000/svg" width="119" height="121.093" viewBox="0 0 119 121.093">
  <g id="Group_2273" data-name="Group 2273" transform="translate(-1072.714 -40.535)">
    <path id="Path_1463" data-name="Path 1463" d="M1192.044,48.9c-2.3,0-4.594-.04-6.889.021-.872.023-1.1-.257-1.073-1.1.056-2.128.04-4.259.006-6.388-.011-.66.156-.9.865-.9q10.627.037,21.254,0c.706,0,.868.237.866.9q-.03,10.626,0,21.254c0,.6-.15.843-.8.834-2.26-.033-4.521-.043-6.78,0-.8.017-.794-.4-.79-.97.015-2.335.006-4.67.006-7.326-.554.529-.916.862-1.263,1.209q-14.523,14.52-29.026,29.06c-.771.775-1.152.9-2,.04-6.225-6.314-12.533-12.546-18.765-18.853-.854-.865-1.291-.97-2.21-.04-7.641,7.725-15.355,15.378-23.007,23.093-.767.773-1.164.806-1.9,0-1.466-1.6-3.034-3.112-4.6-4.618-.534-.514-.684-.815-.063-1.433q15.015-14.95,29.961-29.969c.731-.735,1.033-.337,1.521.152,6.325,6.337,12.681,12.644,18.964,19.022.922.936,1.357.812,2.207-.046q11.288-11.392,22.669-22.693a7.62,7.62,0,0,1,1.174-.8Z" transform="translate(-27.884)" fill="#f25345"/>
    <path id="Path_1464" data-name="Path 1464" d="M1354.253,292.6c1.648-.015,3.3-.007,4.945-.058.631-.019.806.194.8.812-.021,5.035-.028,10.071,0,15.106.005.781-.364.8-.948.8-2.127-.021-4.256.038-6.38-.03-.891-.029-1.06.282-1.054,1.1.035,4.775-.024,9.551.048,14.324.017,1.124-.32,1.331-1.369,1.321-6.51-.064-13.02-.054-19.531-.068q.022-2.447.044-4.893a2.946,2.946,0,0,0,.634-.112,34.85,34.85,0,0,0,12.991-9.633c.472-.541,1.211-1.011,1.273-2.027H1339.1q.032-2.463.064-4.927a7.99,7.99,0,0,0,.87-.221,27.818,27.818,0,0,0,6.926-4.017A31.211,31.211,0,0,0,1354.253,292.6Z" transform="translate(-168.292 -164.346)" fill="#69a609"/>
    <path id="Path_1465" data-name="Path 1465" d="M1363.079,147.23c0,5.13-.022,10.261.02,15.392.008.967-.166,1.385-1.26,1.332-2-.1-4-.059-6-.011-.808.019-1.132-.157-1.129-1.06q.046-15.653,0-31.306c0-.9.32-1.079,1.128-1.06,2.043.048,4.089.067,6.13-.007.963-.034,1.134.329,1.127,1.2C1363.061,136.881,1363.079,142.056,1363.079,147.23Z" transform="translate(-183.904 -58.676)" fill="#4db6e4"/>
    <path id="Path_1466" data-name="Path 1466" d="M1174.729,195.086c0-5.087.023-10.175-.02-15.262-.008-.967.166-1.385,1.261-1.332,2,.1,4,.06,6,.011.808-.019,1.131.158,1.128,1.06q-.046,15.653,0,31.306c0,.9-.321,1.079-1.129,1.06-2.043-.048-4.089-.067-6.13.007-.964.035-1.133-.33-1.127-1.2C1174.748,205.521,1174.729,200.3,1174.729,195.086Z" transform="translate(-66.516 -89.966)" fill="#4db6e4"/>
    <path id="Path_1467" data-name="Path 1467" d="M1252.74,340.538l8.284.007,10.483.026q-.03,7.165-.059,14.33c-6.231.484-12.473.167-18.709.27q-.037-3.136-.074-6.272l.02-8.276Z" transform="translate(-117.354 -195.647)" fill="#7fc226"/>
    <path id="Path_1468" data-name="Path 1468" d="M1276.752,307.176q-.037-7.3-.074-14.6l10.485-.028,8.341.017-.017-.017q-.015,7.18-.03,14.36C1289.227,307.391,1282.987,307.076,1276.752,307.176Z" transform="translate(-133.015 -164.35)" fill="#7fc226"/>
    <path id="Path_1469" data-name="Path 1469" d="M1252.789,259.176c-.014-4.6-.019-9.208-.053-13.812,0-.62.187-.819.812-.816,5.994.033,11.988.04,17.983.054q-.018,7.153-.036,14.305C1265.265,259.391,1259.024,259.076,1252.789,259.176Z" transform="translate(-117.401 -133.047)" fill="#7fc226"/>
    <path id="Path_1470" data-name="Path 1470" d="M1345.889,244.581c1.562-.015,3.126.017,4.685-.065.864-.045,1.077.237,1.072,1.08-.03,5.209,0,10.419,0,15.628l-12.57.026-8.331-.029.017.017.034-4.942a8.246,8.246,0,0,0,.869-.223,27.829,27.829,0,0,0,6.926-4.017A31.212,31.212,0,0,0,1345.889,244.581Z" transform="translate(-168.277 -133.023)" fill="#69a609"/>
    <path id="Path_1471" data-name="Path 1471" d="M1114.715,239.77V225.732c0-5.3.034-10.594-.028-15.89-.013-1.113.319-1.388,1.382-1.342,1.993.085,3.993.043,5.99.014.663-.01,1.023.078,1.02.9-.029,7.12-.017,14.24-.015,21.36a1.222,1.222,0,0,1-.287.962C1120.171,234.326,1117.568,236.924,1114.715,239.77Z" transform="translate(-27.372 -109.535)" fill="#4db6e4"/>
    <path id="Path_1472" data-name="Path 1472" d="M1294.73,186.881c0-2.391.035-4.783-.018-7.173-.019-.869.164-1.232,1.128-1.2,2.041.073,4.087.054,6.129.007.808-.019,1.138.156,1.13,1.06-.043,4.869-.034,9.739-.007,14.609,0,.752-.139,1.087-.993,1.063q-3.193-.09-6.39,0c-.854.024-1.005-.31-.993-1.063C1294.755,191.752,1294.731,189.316,1294.73,186.881Z" transform="translate(-144.775 -89.979)" fill="#4db6e4"/>
    <path id="Path_1473" data-name="Path 1473" d="M1306.663,354.914q.03-7.165.059-14.33l8.334-.009-.016-.016.053,11.768q-.022,2.446-.044,4.893H1306.7Z" transform="translate(-152.57 -195.66)" fill="#fba613"/>
    <path id="Path_1474" data-name="Path 1474" d="M1315.093,256.421l-.034,4.942-8.341-.017q-.027-1.169-.055-2.338.018-7.153.036-14.305h8.349Q1315.07,250.562,1315.093,256.421Z" transform="translate(-152.57 -133.149)" fill="#fba613"/>
    <path id="Path_1475" data-name="Path 1475" d="M1144.68,300.869c.01-2.426.044-4.852.016-7.277-.009-.752.158-1.07,1-1.063,5.241.048,10.483.045,15.724.059q-.006,4.154-.011,8.308l0,0-6.258.029Z" transform="translate(-46.932 -164.338)" fill="#f3bf67"/>
    <path id="Path_1476" data-name="Path 1476" d="M1084.731,348.894v-8.345l10.435-.019,4.192.029v8.324l-4.192.029Z" transform="translate(-7.837 -195.642)" fill="#fba613"/>
    <path id="Path_1477" data-name="Path 1477" d="M1076.894,364.544l10.435.019q.012,4.144.023,8.29c-4.561.014-9.121.013-13.681.055-.753.007-.965-.256-.952-.978.038-2.128.048-4.258,0-6.385-.02-.825.277-1.053,1.052-1.012C1074.807,364.587,1075.852,364.545,1076.894,364.544Z" transform="translate(0 -211.292)" fill="#f3bf67"/>
    <path id="Path_1478" data-name="Path 1478" d="M1199.049,316.565l8.337.047q-.01,4.147-.02,8.293l.016.024-14.6-.018q-.006-4.171-.011-8.342l0,0Z" transform="translate(-78.29 -180.013)" fill="#f3bf67"/>
    <path id="Path_1479" data-name="Path 1479" d="M1147.366,372.87h-14.6q-.009-4.149-.017-8.3l4.194-.017,10.427.035Z" transform="translate(-39.15 -211.311)" fill="#fba613"/>
    <path id="Path_1480" data-name="Path 1480" d="M1136.9,316.505l10.47.054v8.293l-10.427.035-4.194-.017q.009-4.149.017-8.3Z" transform="translate(-39.15 -179.974)" fill="#fba613"/>
    <path id="Path_1481" data-name="Path 1481" d="M1087.339,324.885l-10.435.019c-1.086,0-2.174-.046-3.257.012-.8.043-.925-.333-.916-1.013.031-2.128.036-4.258,0-6.385-.013-.722.2-.985.952-.978,4.56.042,9.121.041,13.681.055Q1087.35,320.74,1087.339,324.885Z" transform="translate(-0.009 -179.996)" fill="#f3bf67"/>
    <path id="Path_1482" data-name="Path 1482" d="M1207.349,372.867l-14.64,0q.017-4.151.033-8.3l14.6-.018-.016.024Z" transform="translate(-78.254 -211.306)" fill="#f3bf67"/>
    <path id="Path_1483" data-name="Path 1483" d="M1354.7,292.583l12.57-.026,2.587.054a31.213,31.213,0,0,1-7.293,7.475,27.817,27.817,0,0,1-6.926,4.017,7.99,7.99,0,0,1-.87.221Q1354.733,298.453,1354.7,292.583Z" transform="translate(-183.896 -164.356)" fill="#7fc226"/>
    <path id="Path_1484" data-name="Path 1484" d="M1330.813,256.421q-.022-5.858-.045-11.717l15.134,0a31.217,31.217,0,0,1-7.293,7.475,27.827,27.827,0,0,1-6.926,4.017A8.236,8.236,0,0,1,1330.813,256.421Z" transform="translate(-168.29 -133.149)" fill="#7fc226"/>
    <path id="Path_1485" data-name="Path 1485" d="M1243.094,201.758c0,1.435-.021,2.87.009,4.3.013.625-.107.953-.845.94q-3.325-.06-6.652,0c-.709.013-.878-.26-.871-.914q.04-4.3,0-8.609c0-.624.108-.952.845-.939q3.325.06,6.652,0c.71-.013.888.259.871.915C1243.069,198.888,1243.094,200.324,1243.094,201.758Z" transform="translate(-105.662 -101.738)" fill="#4db6e4"/>
    <path id="Path_1486" data-name="Path 1486" d="M1181.045,364.561q-.017,4.152-.033,8.3l-6.239-.006q0-4.139,0-8.277l4.152-.041Z" transform="translate(-66.558 -211.3)" fill="#ec8415"/>
    <path id="Path_1487" data-name="Path 1487" d="M1121,364.565l.017,8.3h-6.261q-.012-4.145-.023-8.29l4.192-.029Z" transform="translate(-27.401 -211.302)" fill="#f4b042"/>
    <path id="Path_1488" data-name="Path 1488" d="M1234.759,372.883q-.01-4.147-.02-8.293l6.235-.015q.037,3.136.074,6.272-.016,1.019-.031,2.037Z" transform="translate(-105.664 -211.323)" fill="#f4b042"/>
    <path id="Path_1489" data-name="Path 1489" d="M1234.739,324.885q.01-4.147.02-8.293c1.772-.014,3.545,0,5.315-.056.742-.024.959.227.951.957-.027,2.463.011,4.927.025,7.391l-.056.085Z" transform="translate(-105.664 -179.993)" fill="#f4b042"/>
    <path id="Path_1490" data-name="Path 1490" d="M1114.73,324.989q.011-4.145.023-8.29h6.261q-.009,4.149-.017,8.3l-2.076.021Z" transform="translate(-27.401 -180.1)" fill="#f4b042"/>
    <path id="Path_1491" data-name="Path 1491" d="M1199.049,300.893l-6.285.006q.006-4.154.011-8.308c1.773-.014,3.547,0,5.318-.056.747-.025.956.234.947.961C1199.01,295.962,1199.041,298.428,1199.049,300.893Z" transform="translate(-78.29 -164.341)" fill="#f4b042"/>
    <path id="Path_1492" data-name="Path 1492" d="M1295.514,336.186l-8.334.009-10.483-.025.067-2.073c6.235-.1,12.476.216,18.705-.268Q1295.492,335.007,1295.514,336.186Z" transform="translate(-133.027 -191.272)" fill="#69a609"/>
    <path id="Path_1493" data-name="Path 1493" d="M1271.416,285.828q.027,1.169.055,2.338l-10.485.028c-2.291-.006-4.585-.081-6.872.012-1.175.048-1.664-.276-1.448-1.464a5.772,5.772,0,0,0,.046-.645C1258.946,286,1265.187,286.312,1271.416,285.828Z" transform="translate(-117.322 -159.968)" fill="#69a609"/>
    <path id="Path_1494" data-name="Path 1494" d="M1252.786,384.135q.016-1.018.031-2.037c6.237-.1,12.479.214,18.71-.27l.034,2.305Z" transform="translate(-117.434 -222.574)" fill="#69a609"/>
    <path id="Path_1495" data-name="Path 1495" d="M1330.708,309.265q-.022-1.179-.045-2.357.015-7.18.03-14.36l8.331.029q.034,5.87.069,11.74-.032,2.464-.064,4.927l-8.337,0Z" transform="translate(-168.222 -164.35)" fill="#fba613"/>
    <path id="Path_1496" data-name="Path 1496" d="M1330.747,340.551l8.337,0h6.614c-.063,1.016-.8,1.486-1.273,2.027a34.849,34.849,0,0,1-12.991,9.633,2.945,2.945,0,0,1-.634.112Q1330.773,346.435,1330.747,340.551Z" transform="translate(-168.276 -195.653)" fill="#7fc226"/>
    <path id="Path_1497" data-name="Path 1497" d="M1234.739,340.54l6.255.084-.02,8.277-6.235.015.016-.024v-8.328Z" transform="translate(-105.664 -195.648)" fill="#ec8415"/>
    <path id="Path_1498" data-name="Path 1498" d="M1174.78,324.9V316.6l6.258-.029q.006,4.171.011,8.342l-2.117.021Z" transform="translate(-66.562 -180.02)" fill="#ec8415"/>
    <path id="Path_1499" data-name="Path 1499" d="M1126.78,340.574l2.076-.021,4.194.017V348.9l-4.194.017-2.076-.021Z" transform="translate(-35.259 -195.657)" fill="#ec8415"/>
    <path id="Path_1500" data-name="Path 1500" d="M1186.717,340.578l2.117-.021,14.6.018V348.9l-14.6.018-2.117-.021Z" transform="translate(-74.347 -195.659)" fill="#fba613"/>
    <path id="Path_1501" data-name="Path 1501" d="M1159.383,340.541v8.322l-4.152.041-10.427-.035v-8.333l10.427-.035Z" transform="translate(-47.013 -195.622)" fill="#f3bf67"/>
  </g>
</svg>
