<svg xmlns="http://www.w3.org/2000/svg" width="27.996" height="28.047" viewBox="0 0 27.996 28.047">
  <g id="Group_16013" data-name="Group 16013" transform="translate(-395.755 -1050.075)">
    <path id="Path_72127" data-name="Path 72127" d="M409.754,1078.122H398.947a3.011,3.011,0,0,1-3.192-3.187q0-9.842,0-19.684a3.007,3.007,0,0,1,3.174-3.173c1.187,0,2.374-.007,3.561.006.223,0,.286-.057.269-.275a6.623,6.623,0,0,1,0-.751,1,1,0,0,1,1.995-.014,5.8,5.8,0,0,1,0,.75c-.021.234.05.291.286.29,1.864-.011,3.727-.006,5.591-.006,1.291,0,2.582,0,3.873,0,.2,0,.274-.042.258-.253a6.982,6.982,0,0,1,0-.782,1,1,0,0,1,1.995.007,6.229,6.229,0,0,1,0,.719c-.019.233.039.314.3.311,1.187-.016,2.374-.008,3.561-.007a3,3,0,0,1,3.146,3.137q0,9.889,0,19.778a3,3,0,0,1-3.124,3.127Q415.189,1078.124,409.754,1078.122Zm0-18.03q-5.857,0-11.714-.005c-.224,0-.293.04-.292.283q.013,7.308.007,14.615a1.018,1.018,0,0,0,1.14,1.134h21.71a1.022,1.022,0,0,0,1.145-1.16q0-7.276.007-14.552c0-.26-.059-.321-.319-.32Q415.6,1060.1,409.755,1060.091Zm-.034-2q5.872,0,11.745.005c.227,0,.3-.044.291-.285-.017-.876,0-1.752-.007-2.628a1.011,1.011,0,0,0-1.112-1.1H398.866a1.01,1.01,0,0,0-1.111,1.129c0,.855.012,1.711-.008,2.566-.006.266.068.318.323.317Q403.9,1058.081,409.721,1058.088Z" transform="translate(0 0)" fill="#707070"/>
    <path id="Path_72130" data-name="Path 72130" d="M503.634,1206.732a1.079,1.079,0,0,1-.463.877q-2.043,1.746-4.08,3.5-1.352,1.16-2.7,2.32a1.018,1.018,0,0,1-1.59-.057q-1.426-1.426-2.849-2.855a.968.968,0,0,1-.263-1.059.95.95,0,0,1,.828-.666,1,1,0,0,1,.87.331c.7.7,1.4,1.4,2.095,2.106.148.152.227.16.392.017q3.026-2.616,6.064-5.218a.994.994,0,0,1,1.128-.19A.94.94,0,0,1,503.634,1206.732Z" transform="translate(-87.864 -142.664)" fill="#707070"/>
  </g>
</svg>
