<svg xmlns="http://www.w3.org/2000/svg" width="15" height="74" viewBox="0 0 15 74">
  <g id="Group_18407" data-name="Group 18407" transform="translate(-61 -368)">
    <path id="Path_1267" data-name="Path 1267" d="M-51.648-130.471a22.07,22.07,0,0,1-3.024-3.159A19.75,19.75,0,0,1-57.448-138a10.32,10.32,0,0,1-.9-3.064,6.9,6.9,0,0,1,1.779-5.644,6.687,6.687,0,0,1,4.027-2.177,6.887,6.887,0,0,1,7.044,3.362,7.183,7.183,0,0,1,.66,5.713,14.647,14.647,0,0,1-2,4.232,27.3,27.3,0,0,1-4.066,4.795,1.828,1.828,0,0,1-.425.314Zm.189-15.419a3.871,3.871,0,0,0-3.865,3.853,3.871,3.871,0,0,0,3.839,3.861,3.872,3.872,0,0,0,3.874-3.844A3.871,3.871,0,0,0-51.459-145.89Z" transform="translate(120.151 516.971)" fill="#6069ff"/>
    <g id="Group_733" data-name="Group 733" transform="translate(-905 108)">
      <g id="Ellipse_6" data-name="Ellipse 6" transform="translate(966 319)" fill="#6069ff" stroke="#6069ff" stroke-width="1">
        <circle cx="7.5" cy="7.5" r="7.5" stroke="none"/>
        <circle cx="7.5" cy="7.5" r="7" fill="none"/>
      </g>
      <g id="Ellipse_45" data-name="Ellipse 45" transform="translate(970 323)" fill="#fff" stroke="#fff" stroke-width="1">
        <circle cx="3.5" cy="3.5" r="3.5" stroke="none"/>
        <circle cx="3.5" cy="3.5" r="3" fill="none"/>
      </g>
    </g>
    <line id="Line_40" data-name="Line 40" y2="33" transform="translate(68.5 390)" fill="none" stroke="#6069ff" stroke-width="1"/>
  </g>
</svg>
