<svg xmlns="http://www.w3.org/2000/svg" width="42" height="42" viewBox="0 0 42 42">
  <g id="Group_18567" data-name="Group 18567" transform="translate(-2186.5 -1832)">
    <g id="Group_18450" data-name="Group 18450" transform="translate(1830.5 1483)">
      <circle id="Ellipse_563" data-name="Ellipse 563" cx="21" cy="21" r="21" transform="translate(356 349)" fill="#fbeefe"/>
      <g id="Group_18440" data-name="Group 18440" transform="translate(754.304 323.136)">
        <path id="Path_11" data-name="Path 11" d="M-263.726,39.855c-.034.113-.065.227-.1.34a2.439,2.439,0,0,1-.62,1q-4.525,4.524-9.052,9.045a.938.938,0,0,1-.39.228q-2.105.6-4.217,1.173a.517.517,0,0,1-.67-.669q.579-2.111,1.171-4.217a.938.938,0,0,1,.228-.39q4.525-4.538,9.06-9.065a2.3,2.3,0,0,1,3.35,0c.029.028.056.058.086.085a3.183,3.183,0,0,1,1.155,1.785Zm-12.561,6.907,2.384,2.383,7.439-7.439-2.383-2.383Zm10.59-5.849a8.421,8.421,0,0,0,.645-.61,1.224,1.224,0,0,0,0-1.59,6.972,6.972,0,0,0-.812-.809,1.12,1.12,0,0,0-1.334-.137,6.845,6.845,0,0,0-.909.742Zm-11.849,9.5,2.6-.722-1.88-1.881Z" transform="translate(-102.735)" fill="#9e65a9"/>
        <path id="Path_12" data-name="Path 12" d="M-384.564,93.989c-.2-.033-.4-.052-.592-.1a2.558,2.558,0,0,1-1.948-2.5c0-4.428.015-8.856-.01-13.284a2.623,2.623,0,0,1,2.638-2.685c1.471-.005,2.943,0,4.415,0a.57.57,0,0,1,.562.316.466.466,0,0,1-.071.527.561.561,0,0,1-.481.2q-2.177-.006-4.354,0a1.52,1.52,0,0,0-1.5.884,1.759,1.759,0,0,0-.152.718q-.013,6.642,0,13.284a1.54,1.54,0,0,0,1.664,1.6q2.842,0,5.685,0h8.466a1.515,1.515,0,0,0,1.506-.875,2.049,2.049,0,0,0,.167-.815c.016-1.444.006-2.889.008-4.334,0-.4.244-.638.589-.589a.513.513,0,0,1,.429.42,1.3,1.3,0,0,1,.014.2c0,1.451.005,2.9,0,4.354a2.551,2.551,0,0,1-1.772,2.535,6.437,6.437,0,0,1-.784.158Z" transform="translate(0 -36.838)" fill="#9e65a9"/>
      </g>
    </g>
  </g>
</svg>
