<svg xmlns="http://www.w3.org/2000/svg" width="49" height="44" viewBox="0 0 49 44">
  <g id="Group_16282" data-name="Group 16282" transform="translate(-190 -202)">
    <ellipse id="Ellipse_141" data-name="Ellipse 141" cx="24.5" cy="22" rx="24.5" ry="22" transform="translate(190 202)" fill="#fff"/>
    <g id="Group_2288" data-name="Group 2288" transform="translate(-15.068 111.492)">
      <path id="Path_2977" data-name="Path 2977" d="M227.739,117.318h-1.926c-.006-.029-.029-.034-.053-.043a1.145,1.145,0,0,1-.839-1.223c0-.29-.005-.58,0-.87,0-.111-.03-.147-.141-.159a1.066,1.066,0,0,1-.958-.846,3.089,3.089,0,0,1,.039-1.429c.015-.049.035-.092,0-.139a.6.6,0,0,1-.085-.389c0-1.031,0-2.062,0-3.093,0-.117-.024-.157-.15-.155-.42.008-.84,0-1.259,0-.342,0-.486-.144-.487-.481q0-1.417,0-2.834c0-.34.143-.483.483-.485.407,0,.815-.008,1.222,0,.152,0,.192-.033.192-.189-.006-1.908,0-3.815,0-5.723a.8.8,0,0,1,.915-.917h13.354c.625,0,.912.289.912.919,0,1.9,0,3.8,0,5.7,0,.177.053.209.213.2.389-.011.778,0,1.167-.006a.492.492,0,0,1,.518.29v3.26a.587.587,0,0,1-.569.255c-.388-.011-.777,0-1.166-.006-.13,0-.163.031-.162.161.006.987,0,1.974,0,2.961a.817.817,0,0,1-.093.535.106.106,0,0,0,0,.087,2.879,2.879,0,0,1,.09,1.189,1.107,1.107,0,0,1-1.017,1.12c-.094.013-.122.046-.121.139.005.327,0,.654,0,.981a1.181,1.181,0,0,1-.319.823,1.427,1.427,0,0,1-.646.35h-1.926c-.013-.046-.058-.04-.09-.052a1.121,1.121,0,0,1-.807-1.113c-.007-.321-.006-.642,0-.963,0-.11-.025-.149-.142-.149q-2.518.005-5.036,0c-.115,0-.146.035-.144.147,0,.358,0,.716-.005,1.074a1.061,1.061,0,0,1-.231.611A1.289,1.289,0,0,1,227.739,117.318Zm10.078-8.7a.51.51,0,0,0,.385-.573c-.013-2.9-.01-5.8,0-8.7,0-.176-.026-.237-.225-.236q-6.611.011-13.221,0c-.169,0-.212.042-.212.211q.008,4.389,0,8.777c0,.343.019.371.377.52v-.2q0-2.518,0-5.037a1.905,1.905,0,0,1,1.991-1.986q4.453,0,8.907,0a2.186,2.186,0,0,1,.369.021,1.9,1.9,0,0,1,1.628,1.922q0,2.537,0,5.074Zm-6.448-6.473q-2.222,0-4.445,0a1.15,1.15,0,0,0-1.247,1.227c0,2.068,0,4.136,0,6.2,0,.138.048.171.169.155a.684.684,0,0,1,.635.261c.167.19.351.364.536.538a.554.554,0,0,1,.182.444c-.007.29,0,.58,0,.87,0,.122.021.171.159.171q4.019-.006,8.038,0c.138,0,.162-.049.159-.171-.008-.29,0-.58,0-.87a.554.554,0,0,1,.182-.444c.189-.178.377-.358.549-.551a.659.659,0,0,1,.6-.248c.135.017.189-.017.189-.174-.006-2.056,0-4.111,0-6.167a1.278,1.278,0,0,0-.115-.593,1.177,1.177,0,0,0-1.151-.654Q233.583,102.144,231.369,102.141Zm-.02,12.14H235.5c.747,0,1.494,0,2.241,0,.311,0,.45-.14.455-.451,0-.173,0-.346,0-.519,0-.436-.112-.548-.546-.548H225.093c-.037,0-.074,0-.111,0a.394.394,0,0,0-.436.435c0,.185,0,.37,0,.556,0,.413.115.527.527.527Zm-4.517.762c-.339,0-.679,0-1.018,0-.1,0-.143.019-.14.131.007.315,0,.63,0,.944a.392.392,0,0,0,.431.442q.713.012,1.426,0a.387.387,0,0,0,.422-.431c.006-.321,0-.642,0-.963,0-.1-.035-.124-.127-.122C227.5,115.046,227.166,115.043,226.833,115.043Zm9.093,0c-.333,0-.667,0-1,0-.107,0-.152.017-.149.14.01.308,0,.617,0,.926a.4.4,0,0,0,.439.452c.463.007.926.006,1.389,0,.307,0,.447-.148.451-.459s0-.617,0-.926c0-.11-.037-.135-.138-.133C236.593,115.046,236.26,115.043,235.926,115.043Zm4.17-7.981c0-.327-.005-.654,0-.982,0-.116-.033-.147-.146-.144-.29.008-.58.006-.87,0-.094,0-.126.021-.125.121q.007,1.009,0,2.019c0,.1.025.137.132.135.29-.007.58-.009.87,0,.123,0,.141-.044.139-.151C240.092,107.729,240.1,107.4,240.1,107.063Zm-16.317.03c0-.346,0-.691,0-1.037,0-.084-.016-.12-.11-.118q-.454.009-.907,0c-.1,0-.123.035-.122.128,0,.673,0,1.346,0,2.019,0,.116.048.128.143.127.284,0,.568-.009.852,0,.132.005.148-.046.146-.158C223.775,107.735,223.779,107.414,223.779,107.093Zm1.9,4.151c0,.216,0,.432,0,.647,0,.086.024.122.115.12q.268-.008.536,0c.089,0,.117-.028.116-.117,0-.259,0-.518,0-.777a.149.149,0,0,0-.031-.12c-.158-.156-.313-.315-.472-.469a.214.214,0,0,0-.226-.024c-.066.021-.032.1-.033.148C225.674,110.849,225.676,111.047,225.676,111.244Zm11.386.014c0-.191.005-.383,0-.573,0-.064.055-.164-.053-.188a.289.289,0,0,0-.252.068,1.027,1.027,0,0,0-.458,1.075.936.936,0,0,1,0,.24c-.007.09.015.136.12.131.172-.008.346-.008.518,0,.115.006.132-.047.129-.143C237.059,111.665,237.063,111.462,237.063,111.258Zm-12.518-1.929c0,.846.006,1.685,0,2.523,0,.186.1.15.207.159.132.011.181-.02.178-.168-.009-.635-.026-1.272.006-1.906a.545.545,0,0,0-.343-.6A.27.27,0,0,0,224.545,109.329Zm13.65-.024c-.117.077-.2.138-.291.19a.163.163,0,0,0-.088.164c0,.741.005,1.481,0,2.222,0,.135.068.143.159.126s.224.08.223-.117C238.192,111.039,238.194,110.188,238.194,109.306Z" transform="translate(-0.8 -0.818)" fill="#6f181c"/>
      <path id="Path_2978" data-name="Path 2978" d="M240.053,104.645a.492.492,0,0,0-.518-.29c-.389.007-.778-.006-1.167.006-.16,0-.214-.028-.213-.2.008-1.9,0-3.8,0-5.7,0-.63-.287-.919-.912-.919H223.893a.8.8,0,0,0-.915.917c0,1.908,0,3.815,0,5.723,0,.156-.039.193-.192.189-.407-.012-.815-.006-1.222,0-.341,0-.483.145-.483.485q0,1.417,0,2.834c0,.337.145.48.487.481.42,0,.84.006,1.259,0,.125,0,.15.038.15.155,0,1.031,0,2.062,0,3.093a.6.6,0,0,0,.085.389c.036.047.015.09,0,.139a3.089,3.089,0,0,0-.039,1.429,1.066,1.066,0,0,0,.958.846c.111.012.144.048.141.159-.008.29,0,.58,0,.87a1.145,1.145,0,0,0,.839,1.223c.023.009.047.014.053.043-1.278,0-2.555,0-3.833,0-.106,0-.135-.016-.134-.131q.006-9.369,0-18.738c0-.117.028-.141.142-.141q9.36,0,18.72,0c.132,0,.149.034.149.155Q240.049,101.145,240.053,104.645Z" transform="translate(0 0)" fill="#fefefe"/>
      <path id="Path_2979" data-name="Path 2979" d="M537.551,325.719a1.427,1.427,0,0,0,.646-.35,1.181,1.181,0,0,0,.319-.823c0-.327,0-.654,0-.981,0-.093.027-.126.121-.139a1.107,1.107,0,0,0,1.017-1.12,2.88,2.88,0,0,0-.09-1.189.106.106,0,0,1,0-.087.817.817,0,0,0,.094-.535c0-.987,0-1.974,0-2.961,0-.13.032-.164.162-.161.388.009.777,0,1.166.006a.587.587,0,0,0,.569-.255q0,4.223,0,8.446c0,.127-.025.152-.152.152C540.12,325.716,538.835,325.719,537.551,325.719Z" transform="translate(-301.499 -209.219)" fill="#fefefe"/>
      <path id="Path_2980" data-name="Path 2980" d="M345.345,452.659a1.289,1.289,0,0,0,.734-.444,1.061,1.061,0,0,0,.231-.612c.006-.358.01-.716.005-1.073,0-.112.029-.147.144-.147q2.518.005,5.036,0c.117,0,.145.039.142.149-.007.321-.007.642,0,.963a1.121,1.121,0,0,0,.807,1.113c.032.011.077.005.09.052Z" transform="translate(-118.406 -336.16)" fill="#fdfdfd"/>
      <path id="Path_2981" data-name="Path 2981" d="M291.169,123.725v-.211q0-2.537,0-5.074a1.9,1.9,0,0,0-1.628-1.922,2.189,2.189,0,0,0-.369-.021q-4.453,0-8.907,0a1.905,1.905,0,0,0-1.991,1.986q0,2.518,0,5.037v.2c-.357-.149-.377-.176-.377-.52q0-4.389,0-8.777c0-.17.043-.211.212-.211q6.611.007,13.221,0c.2,0,.225.061.224.236-.005,2.9-.009,5.8,0,8.7A.51.51,0,0,1,291.169,123.725Z" transform="translate(-54.153 -15.929)" fill="#fcfcfc"/>
      <path id="Path_2982" data-name="Path 2982" d="M307.477,178.286q2.213,0,4.426,0a1.177,1.177,0,0,1,1.151.654,1.278,1.278,0,0,1,.115.593c0,2.056,0,4.111,0,6.167,0,.157-.054.191-.189.174a.659.659,0,0,0-.6.248c-.172.193-.36.373-.549.551a.554.554,0,0,0-.182.444c.007.29,0,.58,0,.87,0,.122-.021.171-.159.171q-4.019-.006-8.038,0c-.138,0-.162-.049-.159-.171.008-.29,0-.58,0-.87a.554.554,0,0,0-.182-.444c-.184-.173-.369-.348-.536-.538a.684.684,0,0,0-.635-.261c-.121.016-.17-.017-.169-.155,0-2.068,0-4.136,0-6.2a1.15,1.15,0,0,1,1.247-1.227Q305.255,178.283,307.477,178.286Zm0,.763H303a.746.746,0,0,0-.826.824c0,1.339,0,2.678,0,4.017a.463.463,0,0,0,.323.479c.528.219,1.051.452,1.576.678a.936.936,0,0,0,.377.073q3.036,0,6.072,0a.973.973,0,0,0,.394-.082c.514-.222,1.026-.448,1.543-.661a.485.485,0,0,0,.337-.508c-.007-1.327,0-2.654,0-3.98a.753.753,0,0,0-.847-.839Zm.02,6.823h-2.906a.832.832,0,0,0-.256.028.37.37,0,0,0,.008.713.977.977,0,0,0,.275.026h5.72a1.51,1.51,0,0,0,.167,0,.381.381,0,1,0-.009-.761c-.049,0-.1,0-.148,0Zm-.017,1.9h2.683c.129,0,.26,0,.388-.01a.362.362,0,0,0,.336-.354.377.377,0,0,0-.312-.38,1.15,1.15,0,0,0-.2-.01h-5.793a.973.973,0,0,0-.238.02.369.369,0,0,0,.048.722,1.607,1.607,0,0,0,.221.011Z" transform="translate(-76.908 -76.963)" fill="#f8f8f8"/>
      <path id="Path_2983" data-name="Path 2983" d="M284.761,403.856h-6.278c-.412,0-.527-.114-.527-.527,0-.185,0-.37,0-.556a.394.394,0,0,1,.436-.435c.037,0,.074,0,.111,0h12.556c.434,0,.545.112.546.548,0,.173,0,.346,0,.519,0,.311-.143.45-.455.451-.747,0-1.494,0-2.241,0Zm-1.89-.375c.24,0,.481,0,.721,0a.385.385,0,0,0,.424-.368.378.378,0,0,0-.416-.392c-.474-.008-.949-.007-1.423,0a.393.393,0,0,0-.429.385.4.4,0,0,0,.44.376C282.415,403.485,282.643,403.481,282.871,403.481Zm3.8,0c.234,0,.468,0,.7,0a.4.4,0,0,0,.445-.372.389.389,0,0,0-.424-.39q-.712-.011-1.423,0a.38.38,0,0,0-.422.388c0,.224.17.369.438.374C286.21,403.485,286.438,403.481,286.666,403.481Z" transform="translate(-54.211 -290.393)" fill="#fdfdfd"/>
      <path id="Path_2984" data-name="Path 2984" d="M302.958,450.385c.333,0,.667,0,1,0,.093,0,.129.021.127.122-.006.321,0,.642,0,.963a.387.387,0,0,1-.422.431q-.713.013-1.426,0a.392.392,0,0,1-.431-.442c-.007-.315,0-.63,0-.944,0-.112.042-.132.14-.131C302.279,450.387,302.619,450.385,302.958,450.385Z" transform="translate(-76.926 -336.16)" fill="#fafafa"/>
      <path id="Path_2985" data-name="Path 2985" d="M494.944,450.378c.333,0,.667,0,1,0,.1,0,.141.023.138.133-.007.308,0,.617,0,.926s-.144.455-.451.459c-.463.006-.926.006-1.389,0a.4.4,0,0,1-.439-.452c0-.309.006-.617,0-.926,0-.122.042-.141.149-.14C494.277,450.381,494.611,450.378,494.944,450.378Z" transform="translate(-259.818 -336.153)" fill="#fafafa"/>
      <path id="Path_2986" data-name="Path 2986" d="M583.086,259.5c0,.333,0,.667,0,1,0,.106-.016.155-.139.151-.29-.009-.58-.008-.87,0-.107,0-.132-.032-.132-.135q.007-1.009,0-2.019c0-.1.032-.123.125-.122.29.005.58.007.87,0,.113,0,.149.027.146.144C583.081,258.844,583.086,259.172,583.086,259.5Z" transform="translate(-343.79 -153.255)" fill="#fafafa"/>
      <path id="Path_2987" data-name="Path 2987" d="M238.949,259.541c0,.321,0,.642,0,.963,0,.112-.015.163-.146.158-.284-.011-.568-.006-.852,0-.095,0-.144-.011-.143-.127.005-.673,0-1.346,0-2.019,0-.093.021-.13.122-.128q.454.009.907,0c.094,0,.111.034.11.118C238.947,258.85,238.949,259.2,238.949,259.541Z" transform="translate(-15.97 -153.267)" fill="#fafafa"/>
      <path id="Path_2988" data-name="Path 2988" d="M301.714,355.013c0-.2,0-.395,0-.592,0-.051-.033-.127.033-.148a.214.214,0,0,1,.226.024c.159.155.314.313.472.469a.149.149,0,0,1,.031.12c0,.259,0,.518,0,.777,0,.089-.027.119-.116.117q-.268-.008-.536,0c-.091,0-.117-.034-.115-.12C301.717,355.445,301.714,355.229,301.714,355.013Z" transform="translate(-76.838 -244.587)" fill="#f5f5f5"/>
      <path id="Path_2989" data-name="Path 2989" d="M526.155,355.161c0,.2,0,.407,0,.61,0,.1-.015.149-.129.143-.172-.009-.346-.008-.518,0-.1,0-.126-.041-.12-.131a.934.934,0,0,0,0-.24,1.027,1.027,0,0,1,.458-1.075.29.29,0,0,1,.252-.068c.108.024.05.124.053.188C526.16,354.778,526.155,354.97,526.155,355.161Z" transform="translate(-289.892 -244.721)" fill="#f5f5f5"/>
      <path id="Path_2990" data-name="Path 2990" d="M277.875,329.916a.268.268,0,0,1,.043,0,.545.545,0,0,1,.343.6c-.032.634-.015,1.271-.006,1.906,0,.147-.047.179-.178.168-.109-.009-.21.027-.207-.159C277.881,331.6,277.875,330.762,277.875,329.916Z" transform="translate(-54.131 -221.405)" fill="#fafafa"/>
      <path id="Path_2991" data-name="Path 2991" d="M558.215,329.42c0,.882,0,1.733,0,2.584,0,.2-.14.1-.223.117s-.16.009-.159-.126c.007-.741,0-1.481,0-2.222a.163.163,0,0,1,.088-.164C558.014,329.558,558.1,329.5,558.215,329.42Z" transform="translate(-320.821 -220.932)" fill="#fafafa"/>
      <path id="Path_2992" data-name="Path 2992" d="M315.217,194.4h4.462a.752.752,0,0,1,.847.839c0,1.327,0,2.654,0,3.98a.485.485,0,0,1-.337.508c-.517.213-1.029.439-1.543.661a.973.973,0,0,1-.394.082q-3.036,0-6.072,0a.937.937,0,0,1-.377-.073c-.525-.226-1.048-.459-1.576-.678a.463.463,0,0,1-.323-.479c.005-1.339,0-2.678,0-4.017a.746.746,0,0,1,.825-.824Zm1.937,5.306c.391,0,.748,0,1.106,0a.434.434,0,0,0,.176-.051c.4-.172.8-.348,1.2-.516a.187.187,0,0,0,.135-.2q-.007-1.815,0-3.63c0-.123-.034-.154-.155-.154q-4.417,0-8.835,0c-.127,0-.152.041-.151.159q.019,1.815.025,3.63a.187.187,0,0,0,.14.2c.4.165.784.362,1.19.5.441.153.526.112.678-.315-.1,0-.186,0-.276,0a.387.387,0,0,1-.329-.175.352.352,0,0,1-.023-.369.4.4,0,0,1,.4-.212c.716,0,1.432,0,2.149,0a.473.473,0,0,1,.233.044.377.377,0,0,1-.188.71c-.315.007-.63,0-.945,0-.06,0-.12-.013-.155.063-.048.1-.108.2-.172.313.952,0,1.878,0,2.8,0a.15.15,0,0,0,.162-.088c.044-.093.1-.18.159-.29-.107,0-.191,0-.275,0a.385.385,0,0,1-.419-.376.376.376,0,0,1,.412-.378c.735-.006,1.469,0,2.2,0a.384.384,0,0,1,.326.143.36.36,0,0,1,.051.383.378.378,0,0,1-.37.229c-.309,0-.617,0-.926,0a.174.174,0,0,0-.189.108C317.262,199.522,317.214,199.6,317.154,199.71Z" transform="translate(-84.649 -92.318)" fill="#6f181c"/>
      <path id="Path_2993" data-name="Path 2993" d="M353.435,338.291h2.851c.049,0,.1,0,.148,0a.381.381,0,1,1,.009.761,1.513,1.513,0,0,1-.167,0h-5.72a.976.976,0,0,1-.275-.026.37.37,0,0,1-.008-.713.832.832,0,0,1,.256-.028Z" transform="translate(-122.847 -229.382)" fill="#6f181c"/>
      <path id="Path_2994" data-name="Path 2994" d="M353.43,363.165h-2.868a1.607,1.607,0,0,1-.221-.011.369.369,0,0,1-.048-.722.972.972,0,0,1,.238-.02h5.792a1.154,1.154,0,0,1,.2.01.377.377,0,0,1,.312.38.362.362,0,0,1-.336.354c-.128.013-.259.01-.388.01Z" transform="translate(-122.86 -252.358)" fill="#6f181c"/>
      <path id="Path_2995" data-name="Path 2995" d="M359.056,411.02c-.228,0-.456,0-.684,0a.4.4,0,0,1-.44-.376.393.393,0,0,1,.429-.385c.474-.007.949-.008,1.423,0a.378.378,0,0,1,.416.392.385.385,0,0,1-.424.368C359.537,411.024,359.3,411.02,359.056,411.02Z" transform="translate(-130.396 -297.932)" fill="#6f181c"/>
      <path id="Path_2996" data-name="Path 2996" d="M439.146,411.018c-.228,0-.456,0-.684,0-.268,0-.433-.149-.438-.374a.38.38,0,0,1,.422-.388q.712-.012,1.423,0a.389.389,0,0,1,.424.39.4.4,0,0,1-.445.372C439.614,411.021,439.38,411.018,439.146,411.018Z" transform="translate(-206.691 -297.93)" fill="#6f181c"/>
      <path id="Path_2997" data-name="Path 2997" d="M331.759,214.815c.06-.111.109-.188.146-.271a.174.174,0,0,1,.189-.108c.309.006.617,0,.926,0a.378.378,0,0,0,.37-.229.36.36,0,0,0-.051-.383.384.384,0,0,0-.326-.143c-.735,0-1.469,0-2.2,0a.376.376,0,0,0-.412.378.385.385,0,0,0,.419.376c.084,0,.168,0,.275,0-.061.11-.116.2-.159.29a.15.15,0,0,1-.162.088c-.926,0-1.852,0-2.8,0,.063-.114.123-.211.172-.313.036-.076.1-.063.155-.063.315,0,.63,0,.945,0a.377.377,0,0,0,.188-.71.473.473,0,0,0-.233-.044c-.716,0-1.432,0-2.149,0a.4.4,0,0,0-.4.212.352.352,0,0,0,.023.369.387.387,0,0,0,.329.175c.09,0,.181,0,.276,0-.151.426-.237.468-.678.315-.406-.141-.792-.337-1.19-.5a.187.187,0,0,1-.14-.2q0-1.815-.025-3.63c0-.118.025-.159.151-.159q4.417.005,8.835,0c.12,0,.155.03.155.154q-.007,1.815,0,3.63a.186.186,0,0,1-.135.2c-.4.167-.8.344-1.2.516a.435.435,0,0,1-.176.051C332.507,214.814,332.15,214.815,331.759,214.815Z" transform="translate(-99.255 -107.423)" fill="#fcfcfc"/>
    </g>
  </g>
</svg>
