<svg xmlns="http://www.w3.org/2000/svg" width="102.94" height="102.968" viewBox="0 0 102.94 102.968">
  <g id="Group_15843" data-name="Group 15843" transform="translate(-746.021 -746.824)">
    <path id="Path_72017" data-name="Path 72017" d="M788.7,849.779h-2.211c-3.327-1.264-4.535-4.6-6.771-6.977-.844,1.122-1.714,2.185-2.481,3.318a7.822,7.822,0,0,1-4.615,3.659h-2.211c-.183-.338-.561-.295-.847-.43a5.524,5.524,0,0,1-3.339-4.538,10.717,10.717,0,0,1-.018-2.2c.06-.694-.149-.878-.855-.891a19.581,19.581,0,0,1-18.739-15.094,4.832,4.832,0,0,0-.519-1.967v-60.9c.384-.3.31-.77.385-1.169A19.554,19.554,0,0,1,763.2,747.068c4.271-.461,8.566-.116,12.85-.175.957-.013,1.439.587,1.457,1.544-.218,1.12-.6,1.449-1.766,1.452-3.314.008-6.628-.007-9.942,0a16.563,16.563,0,0,0-16.683,16.718q-.019,22,0,43.991c0,.271-.1.576.12.844,3.782-5.54,9.832-9.2,18.283-8.935,5.918.183,11.848.015,17.772,0,.4.012.8.033,1.2.033h48.121a5.829,5.829,0,0,1,1,.025,1.494,1.494,0,0,1,0,2.963,5.4,5.4,0,0,1-1,.026H787.7c-.4,0-.8.02-1.2.031q-10.9-.008-21.8,0a10.6,10.6,0,0,0-2.088.264,16.591,16.591,0,0,0,2.587,32.878c.753.013,1.041-.124,1.019-.96-.062-2.343-.054-4.689,0-7.033.017-.782-.125-1.062-1-1.1a7.519,7.519,0,0,1,.5-15.023c8.306-.026,16.612-.006,24.918-.01,1.439,0,2.878-.028,4.317-.043.468.015.936.043,1.4.043h44.491c3.357,0,5.14-1.784,5.14-5.139V755.024c0-3.359-1.779-5.137-5.14-5.138H796.35c-.468,0-.936.028-1.4.043-4.13-.015-8.26-.051-12.389-.031a1.768,1.768,0,0,1-2.011-1.5c.369-1.3.7-1.531,2.174-1.531H840.99c4.81,0,8.008,3.183,8.009,7.973q.006,27.377,0,54.755a7.5,7.5,0,0,1-5.488,7.713c-.436.149-.553.315-.55.752q.03,4.069,0,8.138a.646.646,0,0,0,.543.753c3.823,1.3,6.029,4.713,5.42,8.307-.675,3.983-3.714,6.466-7.932,6.471q-6.379.006-12.758,0c-1.442,0-1.7-.187-2.169-1.565a1.913,1.913,0,0,1,2.178-1.468c4.386.043,8.773.034,13.16.011a4.514,4.514,0,1,0,.042-9.028q-23.659-.022-47.317-.024c-.7,0-.815.252-.808.867.03,2.378.063,4.757-.014,7.132-.03.924.263,1.083,1.115,1.08,8.907-.032,17.815-.021,26.722-.018,1.293,0,1.651.269,2.022,1.477-.333,1.259-.7,1.536-2.061,1.536H795.6c-2.251,0-2.251,0-2.266,2.256a5.625,5.625,0,0,1-3.555,5.428C789.418,849.564,788.969,849.4,788.7,849.779Zm8.384-29.02c1.18.983,1.179,1.788,0,2.77a4.313,4.313,0,0,1-1.486.121c-2.417,0-2.4,0-2.291,2.436.022.509.2.6.643.588,1.6-.032,3.2-.031,4.8-.042.368.011.735.032,1.1.032h37.781c2.437,0,2.42,0,2.329-2.413-.018-.483-.144-.622-.623-.612q-2.059.044-4.119,0a1.5,1.5,0,1,1,0-3c.9-.032,1.808-.008,2.713-.009,2.02,0,1.972,0,2.039-2.007.028-.839-.2-1.031-1.03-1.029q-19.644.045-39.288.022c-.3,0-.6.021-.9.032l-12.743-.032c-6.657-.005-13.314.007-19.971-.007a4.618,4.618,0,0,0-4.106,2.055c-.166.243-.461.522-.345.792.162.376.59.163.891.163q16.609.017,33.218.01a4,4,0,0,1,1.393.13Zm-27.878,13.468v9.638a2.552,2.552,0,0,0,4.747,1.593q2.114-2.8,4.215-5.618c1.132-1.508,2.031-1.518,3.146-.035,1.427,1.9,2.846,3.8,4.278,5.7a2.506,2.506,0,0,0,2.948,1.127,2.541,2.541,0,0,0,1.763-2.719c0-6.459-.008-12.917.017-19.376,0-.673-.123-.9-.857-.9q-9.687.047-19.374,0c-.8,0-.909.259-.9.96.042,3.2.022,6.418.022,9.63Zm-7.659-10.576a4.337,4.337,0,0,0,4.132,3.01c.182,0,.479.089.49-.186.033-.865.037-1.733,0-2.6-.014-.341-.356-.219-.561-.22-1.327-.008-2.659,0-4.056,0Z" transform="translate(-0.063)" fill="#010101"/>
    <path id="Path_72018" data-name="Path 72018" d="M746.037,1130.17a4.83,4.83,0,0,1,.519,1.967,19.581,19.581,0,0,0,18.739,15.094c.706.013.915.2.855.891a10.691,10.691,0,0,0,.018,2.2,5.524,5.524,0,0,0,3.339,4.538c.286.136.664.092.847.43-7.855,0-15.71-.009-23.566.016-.629,0-.769-.145-.767-.77Q746.057,1142.35,746.037,1130.17Z" transform="translate(0 -305.514)" fill="#fdfdfd"/>
    <path id="Path_72019" data-name="Path 72019" d="M876.754,1226.52a7.822,7.822,0,0,0,4.615-3.659c.767-1.133,1.637-2.2,2.481-3.318,2.236,2.379,3.444,5.713,6.771,6.977Z" transform="translate(-104.19 -376.74)" fill="#fbfbfb"/>
    <path id="Path_72020" data-name="Path 72020" d="M937.082,817.637c.4-.011.8-.031,1.2-.031H985.2a5.393,5.393,0,0,0,1-.026,1.494,1.494,0,0,0,0-2.963,5.823,5.823,0,0,0-1-.025H937.076c-.4,0-.8-.021-1.2-.033a50.937,50.937,0,0,1-.607-10.2c.289-.08.579-.157.868-.239a4.769,4.769,0,0,0,3.531-3.946,4.364,4.364,0,0,0-2.689-4.31c-.5-.256-1.021-.482-1.533-.722.15-.816-.254-1.688.246-2.47a1.842,1.842,0,0,1,1.083.46c.944.572,1.771.454,2.27-.332a1.517,1.517,0,0,0-.58-2.159,9.624,9.624,0,0,0-3.2-1.382,14.433,14.433,0,0,0-.009-1.5c-.087-.841.274-1.721-.218-2.524,2.5-1.942,3.01-4.232,1.455-6.584-.015-.431-.042-.862-.043-1.294a2.812,2.812,0,0,0-.6-2.328,5.227,5.227,0,0,1,.08-1.094,18.388,18.388,0,0,1,6.537-9.794c.991-.764,2.214-1.191,3.054-2.159.468-.015.936-.043,1.4-.043h44.491c3.361,0,5.14,1.778,5.14,5.138v54.438c0,3.356-1.783,5.139-5.14,5.139H946.921c-.468,0-.936-.028-1.4-.043a.5.5,0,0,0-.276-.387,20.439,20.439,0,0,1-3.78-2.6,16.907,16.907,0,0,1-4.383-5.987Zm28.328-41.422c-.156-.17-.309-.344-.47-.509a4.156,4.156,0,0,0-4.392-1.218,4.09,4.09,0,0,0-3.035,3.5c-.2,1.26.2,1.83,1.478,2.138a4.582,4.582,0,0,0,1.568,4.582,6.9,6.9,0,0,0,8.682.012,4.491,4.491,0,0,0-.386-7.294,6.517,6.517,0,0,0-3.445-1.211Zm-5.21,13.046a7.535,7.535,0,1,0,7.551,7.518,7.534,7.534,0,0,0-7.551-7.518Zm16.775,9.136c.223-.12.366-.2.513-.275a4.609,4.609,0,0,0,2.75-5.245,4.8,4.8,0,0,0-4.829-3.617c-.938-.009-1.875-.011-2.813,0-1.233.016-1.765.54-1.768,1.783q-.014,5.726,0,11.453c0,1.148.608,1.854,1.531,1.829.889-.024,1.463-.707,1.479-1.8.014-.953,0-1.907,0-3.108,1.314,1.493,2.452,2.791,3.6,4.084.808.913,1.613,1.069,2.345.469s.725-1.533-.076-2.462c-.891-1.027-1.8-2.046-2.731-3.108Zm11.247-4.511c-.855-1.3-1.635-2.508-2.434-3.7-.631-.942-1.427-1.185-2.2-.7-.815.509-.941,1.372-.311,2.354.956,1.491,1.912,2.982,2.909,4.445a2.844,2.844,0,0,1,.534,1.766c-.041,1.538-.031,3.077-.014,4.615a1.524,1.524,0,0,0,1.492,1.663,1.553,1.553,0,0,0,1.514-1.657,8.045,8.045,0,0,0,0-1.4,9.218,9.218,0,0,1,2.227-7.587,14.149,14.149,0,0,0,1.211-1.841c.588-.951.48-1.784-.276-2.293-.789-.531-1.635-.284-2.28.691-.772,1.165-1.528,2.346-2.371,3.644Zm-43.3,3.872c0,1.572-.009,3.144,0,4.715.009,1.151.6,1.857,1.52,1.853s1.487-.7,1.49-1.868c.007-2.675-.01-5.351.011-8.026.005-.69-.289-1.525.151-2.032.343-.4,1.142-.069,1.734-.134a1.56,1.56,0,0,0,1.469-1.5,1.478,1.478,0,0,0-1.462-1.487c-2.273-.033-4.548-.042-6.821.01a1.333,1.333,0,0,0-1.362,1.44,1.4,1.4,0,0,0,1.3,1.519,5,5,0,0,0,1.3.022c.528-.044.691.148.68.676-.026,1.6-.006,3.206-.005,4.812Zm3.086-16a6.112,6.112,0,0,0,4.463-1.941,1.507,1.507,0,1,0-2.089-2.164c-1.652,1.43-3.076,1.435-4.7.019a1.534,1.534,0,0,0-2.229-.037,1.551,1.551,0,0,0,.171,2.231,6.124,6.124,0,0,0,4.389,1.889Z" transform="translate(-150.644 -12.042)" fill="#8187ca"/>
    <path id="Path_72021" data-name="Path 72021" d="M806.7,756.154c-.84.968-2.063,1.4-3.054,2.159a18.387,18.387,0,0,0-6.537,9.794,5.219,5.219,0,0,0-.08,1.094c-1.462-.563-2.2-.14-2.471,1.424a7.061,7.061,0,0,0-6.021,1.011,4.471,4.471,0,0,0,.025,7.532,6.83,6.83,0,0,0,7.655.238c.492.8.131,1.684.219,2.524a14.449,14.449,0,0,1,.008,1.5,7.931,7.931,0,0,0-3.049.4,4.271,4.271,0,0,0-2.715,3.756,3.806,3.806,0,0,0,2.564,3.686c1.068.458,2.14.906,3.21,1.358q-.007,1.338-.015,2.675a3.634,3.634,0,0,1-3.653-.979,1.775,1.775,0,0,0-1.51-.6,1.507,1.507,0,0,0-.737,2.619,7.627,7.627,0,0,0,5.9,2.185,50.932,50.932,0,0,0,.607,10.2c-5.925.012-11.854.18-17.772,0-8.451-.261-14.5,3.4-18.283,8.935-.225-.268-.12-.574-.12-.844q-.009-22,0-43.991a16.563,16.563,0,0,1,16.683-16.718c3.314-.012,6.628,0,9.942,0,1.167,0,1.548-.331,1.766-1.452l3.034-.029a1.768,1.768,0,0,0,2.011,1.5C798.444,756.1,802.574,756.139,806.7,756.154Zm-36.842,34.827c0,1.875-.006,3.749,0,5.624.005,1.193.543,1.881,1.455,1.9.952.016,1.544-.7,1.558-1.933.014-1.205.024-2.411-.005-3.615-.013-.524.168-.7.692-.689,1.3.029,2.612.04,3.916,0,.623-.021.71.255.7.777-.028,1.238-.022,2.477,0,3.716.016,1.07.632,1.757,1.524,1.75s1.483-.692,1.485-1.773q.013-5.775,0-11.55c0-1.092-.595-1.75-1.5-1.74s-1.487.665-1.5,1.76-.029,2.21.006,3.314c.018.554-.138.771-.727.753-1.271-.04-2.545-.045-3.815,0-.656.024-.785-.252-.766-.827.034-1.07.029-2.143,0-3.213-.028-1.156-.639-1.819-1.589-1.785-.917.033-1.412.647-1.419,1.813-.02,1.9-.011,3.809-.011,5.718Zm14.324,0c0,1.907-.008,3.815,0,5.722.007,1.093.58,1.774,1.469,1.8.922.023,1.537-.685,1.54-1.826q.012-5.723,0-11.445c0-1.1-.568-1.766-1.469-1.787-.941-.023-1.533.66-1.539,1.818,0,1.9,0,3.811,0,5.719Z" transform="translate(-11.823 -6.218)" fill="#666eb1"/>
    <path id="Path_72022" data-name="Path 72022" d="M798.5,1036.25a16.908,16.908,0,0,0,4.387,5.984,20.441,20.441,0,0,0,3.78,2.6.5.5,0,0,1,.276.387c-1.439.015-2.878.042-4.317.043-8.306,0-16.612-.015-24.918.01a7.519,7.519,0,0,0-.5,15.023c.878.041,1.019.32,1,1.1-.05,2.344-.058,4.69,0,7.033.022.836-.266.973-1.019.96a16.59,16.59,0,0,1-2.587-32.878,10.615,10.615,0,0,1,2.088-.263Q787.6,1036.23,798.5,1036.25Z" transform="translate(-12.062 -230.658)" fill="#666eb1"/>
    <path id="Path_72023" data-name="Path 72023" d="M1011.33,1165.35l-2.9.028c-.371-1.208-.729-1.477-2.022-1.477-8.907,0-17.815-.013-26.722.018-.852,0-1.145-.156-1.115-1.08.077-2.375.043-4.755.014-7.133-.008-.615.106-.867.808-.866q23.658.032,47.317.024a4.514,4.514,0,0,1-.042,9.028c-4.387.024-8.774.033-13.16-.011a1.912,1.912,0,0,0-2.178,1.469Z" transform="translate(-185.333 -325.176)" fill="#676fb1"/>
    <path id="Path_72024" data-name="Path 72024" d="M859.865,1135.71c0-3.212.02-6.425-.016-9.637-.008-.7.1-.965.9-.96q9.687.058,19.374,0c.734,0,.859.227.857.9-.025,6.458-.013,12.917-.017,19.376a2.541,2.541,0,0,1-1.763,2.719,2.506,2.506,0,0,1-2.948-1.127c-1.432-1.894-2.851-3.8-4.278-5.7-1.115-1.483-2.014-1.473-3.146.035q-2.108,2.808-4.215,5.618a2.552,2.552,0,0,1-4.747-1.593Q859.859,1140.53,859.865,1135.71Z" transform="translate(-90.717 -301.484)" fill="#fe8d9d"/>
    <path id="Path_72025" data-name="Path 72025" d="M998.894,1095.48c.3-.011.6-.032.9-.032q19.644,0,39.288-.022c.835,0,1.057.19,1.03,1.029-.067,2-.019,2.006-2.039,2.007-.9,0-1.809-.023-2.713.009a1.5,1.5,0,0,0,0,3q2.059.047,4.119,0c.479-.01.6.129.623.612.091,2.414.108,2.413-2.329,2.413H999.992c-.368,0-.735-.021-1.1-.032a5.808,5.808,0,0,1-1.664-3.1c1.18-.982,1.181-1.787,0-2.77a5.777,5.777,0,0,1,1.666-3.114Z" transform="translate(-200.204 -277.821)" fill="#eeecfe"/>
    <path id="Path_72026" data-name="Path 72026" d="M859.446,1095.54a5.777,5.777,0,0,0-1.664,3.1,4,4,0,0,0-1.391-.122q-16.609,0-33.218-.01c-.3,0-.729.213-.891-.163-.117-.271.179-.549.345-.792a4.619,4.619,0,0,1,4.106-2.055c6.657.015,13.314,0,19.971.007Q853.074,1095.51,859.446,1095.54Z" transform="translate(-60.755 -277.88)" fill="#d3d3fe"/>
    <path id="Path_72027" data-name="Path 72027" d="M982.265,1124.62a5.808,5.808,0,0,0,1.664,3.1c-1.6.011-3.2.01-4.8.042-.448.009-.621-.079-.643-.588-.106-2.435-.126-2.432,2.291-2.436a4.31,4.31,0,0,0,1.488-.118Z" transform="translate(-185.24 -301.09)" fill="#d3d3fe"/>
    <path id="Path_72028" data-name="Path 72028" d="M822.207,1125.16c1.4,0,2.729,0,4.061.005.205,0,.547-.121.561.22.036.865.033,1.733,0,2.6-.011.274-.308.18-.49.186a4.338,4.338,0,0,1-4.132-3.011Z" transform="translate(-60.718 -301.512)" fill="#d3d3fe"/>
    <path id="Path_72029" data-name="Path 72029" d="M1029.53,896.531a7.489,7.489,0,1,1-5.322,2.209,7.535,7.535,0,0,1,5.322-2.209Zm-4.478,7.526a4.465,4.465,0,1,0,1.311-3.206,4.5,4.5,0,0,0-1.311,3.206Z" transform="translate(-219.973 -119.312)" fill="#020203"/>
    <path id="Path_72030" data-name="Path 72030" d="M1117.42,905.634c.934,1.064,1.84,2.083,2.731,3.116.8.928.821,1.85.076,2.462s-1.536.444-2.345-.469c-1.145-1.293-2.283-2.592-3.6-4.084,0,1.2.011,2.155,0,3.108-.016,1.09-.59,1.773-1.479,1.8-.923.025-1.529-.681-1.531-1.829q-.011-5.727,0-11.453c0-1.243.535-1.768,1.768-1.783.937-.012,1.875-.01,2.813,0a4.8,4.8,0,0,1,4.829,3.617,4.609,4.609,0,0,1-2.75,5.245C1117.78,905.432,1117.64,905.514,1117.42,905.634Zm-2.24-6.16c-.776-.235-1,.284-.9,1.2a13.938,13.938,0,0,1,.015,1.6c0,.251.019.482.355.469a9.831,9.831,0,0,0,1.883-.1,1.464,1.464,0,0,0,1.208-1.512,1.573,1.573,0,0,0-1.3-1.559,6.864,6.864,0,0,0-1.261-.1Z" transform="translate(-291.087 -119.279)" fill="#010102"/>
    <path id="Path_72031" data-name="Path 72031" d="M910.924,911.587a7.627,7.627,0,0,1-5.9-2.185,1.507,1.507,0,0,1,.737-2.619,1.775,1.775,0,0,1,1.51.6,3.634,3.634,0,0,0,3.653.979,1.387,1.387,0,0,0,1.369-1.315c.021-.8-.645-1.159-1.354-1.36-1.07-.452-2.142-.9-3.21-1.358a3.807,3.807,0,0,1-2.564-3.686,4.271,4.271,0,0,1,2.715-3.756,7.93,7.93,0,0,1,3.049-.4,9.621,9.621,0,0,1,3.2,1.382,1.517,1.517,0,0,1,.58,2.159c-.5.786-1.326.9-2.27.332a1.843,1.843,0,0,0-1.083-.46,2.382,2.382,0,0,0-2.534-.106.986.986,0,0,0-.606.959.85.85,0,0,0,.658.783,14.806,14.806,0,0,0,2.235.833c.511.24,1.03.465,1.533.722a4.364,4.364,0,0,1,2.689,4.31,4.769,4.769,0,0,1-3.531,3.946Z" transform="translate(-126.298 -119.277)" fill="#020203"/>
    <path id="Path_72032" data-name="Path 72032" d="M896.853,841.21a6.83,6.83,0,0,1-7.655-.238,4.471,4.471,0,0,1-.025-7.532,7.062,7.062,0,0,1,6.021-1.011c.017.7.047,1.393.047,2.09a1.56,1.56,0,0,0,.5,1.25c.945.84,2.084.331,2.567-1.143C899.863,836.978,899.357,839.269,896.853,841.21Z" transform="translate(-112.453 -68.023)" fill="#fcd9de"/>
    <path id="Path_72033" data-name="Path 72033" d="M1059,832.276a6.518,6.518,0,0,1,3.446,1.211,4.491,4.491,0,0,1,.386,7.294,6.9,6.9,0,0,1-8.682-.012,4.582,4.582,0,0,1-1.568-4.582,1.662,1.662,0,0,0,1.5-1.6,1.26,1.26,0,0,1,2.077-.9,1.583,1.583,0,0,1,.476,1.061,1.47,1.47,0,0,0,1.745,1.372c.833-.124,1.258-.753,1.245-1.76a6.275,6.275,0,0,0-.625-2.084Z" transform="translate(-244.233 -68.103)" fill="#fcd9de"/>
    <path id="Path_72034" data-name="Path 72034" d="M1176,901.079c.843-1.3,1.6-2.479,2.373-3.649.645-.975,1.491-1.222,2.28-.691.756.509.864,1.341.276,2.293a14.12,14.12,0,0,1-1.211,1.841,9.218,9.218,0,0,0-2.227,7.587,8.077,8.077,0,0,1,0,1.4,1.553,1.553,0,0,1-1.515,1.657,1.524,1.524,0,0,1-1.492-1.663c-.017-1.538-.027-3.078.014-4.615a2.842,2.842,0,0,0-.534-1.766c-1-1.463-1.953-2.955-2.91-4.445-.63-.983-.5-1.845.311-2.354.772-.482,1.567-.24,2.2.7C1174.36,898.571,1175.14,899.776,1176,901.079Z" transform="translate(-338.42 -119.235)" fill="#020203"/>
    <path id="Path_72035" data-name="Path 72035" d="M970.9,904.98c0-1.6-.02-3.211.011-4.815.01-.528-.152-.721-.68-.676a4.994,4.994,0,0,1-1.3-.022,1.4,1.4,0,0,1-1.3-1.519,1.333,1.333,0,0,1,1.362-1.44c2.273-.051,4.548-.042,6.821-.01a1.478,1.478,0,0,1,1.462,1.487,1.56,1.56,0,0,1-1.469,1.5c-.592.065-1.391-.262-1.734.134-.44.506-.146,1.341-.151,2.032-.021,2.675,0,5.351-.011,8.026,0,1.165-.573,1.864-1.49,1.868s-1.512-.7-1.52-1.853C970.888,908.124,970.9,906.552,970.9,904.98Z" transform="translate(-176.614 -119.264)" fill="#010102"/>
    <path id="Path_72036" data-name="Path 72036" d="M1053.42,824.724a6.267,6.267,0,0,1,.628,2.088c.013,1.006-.412,1.636-1.245,1.759a1.47,1.47,0,0,1-1.745-1.372,1.585,1.585,0,0,0-.476-1.061,1.26,1.26,0,0,0-2.077.9,1.662,1.662,0,0,1-1.5,1.6c-1.283-.308-1.681-.879-1.478-2.138a4.09,4.09,0,0,1,3.034-3.5,4.156,4.156,0,0,1,4.392,1.218C1053.11,824.38,1053.26,824.554,1053.42,824.724Z" transform="translate(-238.65 -60.55)" fill="#030304"/>
    <path id="Path_72037" data-name="Path 72037" d="M979.492,841.559a6.124,6.124,0,0,1-4.383-1.892,1.55,1.55,0,0,1-.171-2.231,1.534,1.534,0,0,1,2.229.037c1.621,1.416,3.045,1.41,4.7-.019a1.507,1.507,0,1,1,2.089,2.164,6.112,6.112,0,0,1-4.464,1.941Z" transform="translate(-182.123 -71.846)" fill="#020203"/>
    <path id="Path_72038" data-name="Path 72038" d="M929.984,829.1c-.482,1.474-1.622,1.983-2.567,1.143a1.56,1.56,0,0,1-.5-1.25c0-.7-.03-1.394-.047-2.09.274-1.564,1.009-1.988,2.471-1.424a2.812,2.812,0,0,1,.6,2.328C929.942,828.236,929.969,828.667,929.984,829.1Z" transform="translate(-144.13 -62.495)" fill="#030304"/>
    <path id="Path_72039" data-name="Path 72039" d="M925.669,914.124a14.8,14.8,0,0,1-2.235-.833.85.85,0,0,1-.658-.783.987.987,0,0,1,.606-.959,2.383,2.383,0,0,1,2.534.106C925.415,912.436,925.819,913.308,925.669,914.124Z" transform="translate(-140.867 -131.031)" fill="#666eb1"/>
    <path id="Path_72040" data-name="Path 72040" d="M805.2,904.085c0-1.908-.009-3.817,0-5.725.007-1.166.5-1.779,1.419-1.813.95-.035,1.561.628,1.589,1.785.026,1.071.03,2.143,0,3.213-.018.575.11.851.766.827,1.27-.047,2.544-.041,3.815,0,.589.018.744-.2.727-.753-.035-1.1-.023-2.209-.006-3.314s.592-1.75,1.5-1.76,1.5.648,1.5,1.74q.015,5.775,0,11.55c0,1.081-.6,1.765-1.485,1.772a1.567,1.567,0,0,1-1.524-1.75c-.019-1.238-.024-2.478,0-3.716.012-.522-.076-.8-.7-.777-1.3.044-2.611.033-3.916,0-.524-.012-.7.165-.692.69.029,1.2.019,2.41.005,3.615-.014,1.229-.606,1.95-1.558,1.933-.911-.016-1.449-.7-1.455-1.9C805.2,907.834,805.2,905.959,805.2,904.085Z" transform="translate(-47.163 -119.322)" fill="#020203"/>
    <path id="Path_72041" data-name="Path 72041" d="M875.752,904.092c0-1.907-.008-3.815,0-5.722.006-1.158.6-1.84,1.539-1.818.9.022,1.467.685,1.469,1.788q.013,5.723,0,11.445c0,1.141-.618,1.85-1.54,1.827-.889-.023-1.462-.7-1.469-1.8C875.744,907.907,875.752,906,875.752,904.092Z" transform="translate(-103.389 -119.328)" fill="#010101"/>
    <path id="Path_72042" data-name="Path 72042" d="M936.156,941.8c.71.2,1.375.559,1.354,1.36a1.387,1.387,0,0,1-1.369,1.315Q936.149,943.137,936.156,941.8Z" transform="translate(-151.519 -155.389)" fill="#8086c8"/>
    <path id="Path_72043" data-name="Path 72043" d="M1036.9,915.9a4.468,4.468,0,0,1,4.521-4.509,4.518,4.518,0,1,1-4.521,4.509Z" transform="translate(-231.817 -131.153)" fill="#8086c8"/>
    <path id="Path_72044" data-name="Path 72044" d="M1126.92,910.969a6.863,6.863,0,0,1,1.264.1,1.573,1.573,0,0,1,1.3,1.559,1.464,1.464,0,0,1-1.208,1.512,9.838,9.838,0,0,1-1.883.1c-.336.012-.356-.219-.355-.469a13.91,13.91,0,0,0-.015-1.6C1125.91,911.253,1126.14,910.734,1126.92,910.969Z" transform="translate(-302.825 -130.773)" fill="#8086c8"/>
  </g>
</svg>
