<svg xmlns="http://www.w3.org/2000/svg" width="230" height="185.594" viewBox="0 0 230 185.594">
  <g id="Group_16285" data-name="Group 16285" transform="translate(-38.809 -34.307)">
    <path id="Path_72482" data-name="Path 72482" d="M90.043,48.719s-7.368,16.2,1.89,25.4,43.984,30.311,52.45,20.812S107.587,19.072,90.043,48.719Z" transform="translate(113.1 15.972)" fill="#e7f4fa"/>
    <g id="Group_16087" data-name="Group 16087" transform="translate(38.809 34.307)">
      <g id="Group_16086" data-name="Group 16086">
        <g id="Group_16085" data-name="Group 16085">
          <g id="Group_16084" data-name="Group 16084">
            <g id="Group_16083" data-name="Group 16083">
              <path id="Path_72483" data-name="Path 72483" d="M172.818,207.327c-36.222-23.976-42.407-16.037-74.912-1.27-35.215,15.994-56.571,1.2-58.868-24.133-4.7-51.816,64.769-29,57.411-83.984-5.425-40.513,13.51-58.4,39.04-62.649,25.26-4.2,60.665,4.144,58.815,42.551-1.02,21.245,30.578,29.767,51.1,39.8,30.858,15.09,26.4,54.454,13.893,72.288C238.268,219.91,206.683,229.739,172.818,207.327Z" transform="translate(-38.809 -34.307)" fill="#e7f4fa"/>
            </g>
          </g>
        </g>
      </g>
    </g>
    <path id="Path_72484" data-name="Path 72484" d="M118.387,40.446H105.8A29.694,29.694,0,0,0,76.2,70.053v85.118a29.694,29.694,0,0,0,29.6,29.607h12.583a29.694,29.694,0,0,0,29.607-29.607V70.053A29.694,29.694,0,0,0,118.387,40.446ZM141.7,144.809a29.606,29.606,0,1,1-59.211,0V78.2a29.606,29.606,0,1,1,59.211,0Z" transform="translate(87.276 14.329)" fill="#89b8e0"/>
    <path id="Path_72485" data-name="Path 72485" d="M116.813,40.446H104.23a29.694,29.694,0,0,0-29.6,29.607v85.118a29.694,29.694,0,0,0,29.6,29.607h12.583a29.694,29.694,0,0,0,29.607-29.607V70.053A29.694,29.694,0,0,0,116.813,40.446Zm23.316,104.363a29.606,29.606,0,1,1-59.211,0V78.2a29.606,29.606,0,1,1,59.211,0Z" transform="translate(83.602 14.329)" fill="#aacef2"/>
    <path id="Path_72486" data-name="Path 72486" d="M100.385,155.332h46.478a27.421,27.421,0,0,0,27.34-27.343V68.694A7.691,7.691,0,0,0,166.515,61H80.734a7.689,7.689,0,0,0-7.689,7.689v59.295A27.421,27.421,0,0,0,100.385,155.332Z" transform="translate(79.911 62.317)" fill="#2b8ed8"/>
    <path id="Path_72487" data-name="Path 72487" d="M96.285,155.332h46.478a27.421,27.421,0,0,0,27.34-27.343V69.72A8.716,8.716,0,0,0,161.388,61H77.657a8.716,8.716,0,0,0-8.712,8.715v58.268A27.421,27.421,0,0,0,96.285,155.332Z" transform="translate(70.341 62.317)" fill="#56a9ff"/>
    <g id="Group_16088" data-name="Group 16088" transform="translate(182.724 146.171)">
      <path id="Path_72488" data-name="Path 72488" d="M100.868,77.3a9.447,9.447,0,1,1-9.446-9.446A9.448,9.448,0,0,1,100.868,77.3Z" transform="translate(-81.973 -67.858)" fill="#2b8ed8"/>
      <path id="Path_72489" data-name="Path 72489" d="M100.329,97.771H82.068l4.15-27.08h9.96Z" transform="translate(-81.751 -61.246)" fill="#2b8ed8"/>
      <path id="Path_72490" data-name="Path 72490" d="M101.469,77.3a9.446,9.446,0,1,1-9.446-9.446A9.446,9.446,0,0,1,101.469,77.3Z" transform="translate(-80.561 -67.858)" fill="#e7f4fa"/>
      <path id="Path_72491" data-name="Path 72491" d="M100.934,97.771H82.673l4.15-27.08h9.96Z" transform="translate(-80.34 -61.246)" fill="#e7f4fa"/>
    </g>
    <path id="Path_72492" data-name="Path 72492" d="M160.044,61h-1.167a68.107,68.107,0,0,1-89.356,76.963,27.425,27.425,0,0,0,25.42,17.364h46.478a27.423,27.423,0,0,0,27.34-27.34V69.72A8.714,8.714,0,0,0,160.044,61Z" transform="translate(71.686 62.317)" fill="#49a2f2"/>
    <g id="Group_16284" data-name="Group 16284" transform="translate(55.741 84.377)">
      <g id="Group_16110" data-name="Group 16110" transform="translate(32.43 24.455)">
        <g id="Group_16092" data-name="Group 16092" transform="translate(8.105 14.89)">
          <g id="Group_16091" data-name="Group 16091">
            <g id="Group_16090" data-name="Group 16090">
              <g id="Group_16089" data-name="Group 16089">
                <path id="Path_72493" data-name="Path 72493" d="M56.045,68.667c.817.46,7.912,7.872,10.946,7.092,2.2-.567,2.287-7.805,2.287-7.805s-2.791,1.36-7.905-5.3C57.059,57.044,56.045,68.667,56.045,68.667Z" transform="translate(-56.045 -61.125)" fill="#8b482a"/>
              </g>
            </g>
          </g>
        </g>
        <g id="Group_16102" data-name="Group 16102" transform="translate(16.578 16.248)">
          <g id="Group_16101" data-name="Group 16101">
            <g id="Group_16100" data-name="Group 16100">
              <g id="Group_16099" data-name="Group 16099">
                <g id="Group_16098" data-name="Group 16098">
                  <g id="Group_16097" data-name="Group 16097">
                    <g id="Group_16096" data-name="Group 16096">
                      <g id="Group_16095" data-name="Group 16095">
                        <g id="Group_16094" data-name="Group 16094">
                          <g id="Group_16093" data-name="Group 16093">
                            <path id="Path_72494" data-name="Path 72494" d="M61.9,74.569c4.915-1.71,16.607-12.046,16.607-12.046l-3.291-.99L58.992,69.011S56.985,76.272,61.9,74.569Z" transform="translate(-58.586 -61.532)" fill="#8b482a"/>
                          </g>
                        </g>
                      </g>
                    </g>
                  </g>
                </g>
              </g>
            </g>
          </g>
        </g>
        <g id="Group_16105" data-name="Group 16105" transform="translate(30.388 10.931)">
          <g id="Group_16104" data-name="Group 16104">
            <g id="Group_16103" data-name="Group 16103">
              <path id="Path_72495" data-name="Path 72495" d="M64.634,65.194a4.753,4.753,0,0,0-.023-1.15,6.114,6.114,0,0,1,.48-2.057c.133-.37-.02-1.307.463-1.457.79-.253.62,1.374.71,1.734a.817.817,0,0,0,.674.674,1.013,1.013,0,0,0,.613-.253,20.287,20.287,0,0,0,1.62-1.41c.277-.247.567-.473.86-.707.217-.17.44-.487.694-.6a.382.382,0,0,1,.53.233c.04.213-.153.3-.273.44-.273.307-.54.623-.8.94-.057.07-.363.35-.343.45.1.48.934-.263,1.07-.373a2.19,2.19,0,0,1,1.177-.6.2.2,0,0,1,.17.043c.063.07.017.183-.04.263-.327.46-.81.794-1.127,1.26-.05.077-.1.177-.057.257.173.327.817-.043,1.037-.147.14-.063.32-.13.433-.027a.259.259,0,0,1,.04.28.793.793,0,0,1-.183.237,8.136,8.136,0,0,1-.65.62c-.113.087-.473.313-.39.49a.154.154,0,0,0,.09.067.767.767,0,0,0,.41-.053.378.378,0,0,1,.39.063c.11.137.017.337-.09.473a6.58,6.58,0,0,1-1.45,1.19c-.54.373-1.1.724-1.674,1.047-1.074.61-2.287.994-3.3,1.7a2.323,2.323,0,0,1-.477.287,1.436,1.436,0,0,1-1.03-.087,2.261,2.261,0,0,1-1.33-1.427c-.057-.207-.2-.613-.073-.787.1-.127.39-.207.527-.28a4.921,4.921,0,0,0,.583-.35A2.062,2.062,0,0,0,64.634,65.194Z" transform="translate(-62.728 -59.937)" fill="#8b482a"/>
            </g>
          </g>
        </g>
        <g id="Group_16109" data-name="Group 16109">
          <g id="Group_16108" data-name="Group 16108">
            <g id="Group_16107" data-name="Group 16107">
              <g id="Group_16106" data-name="Group 16106">
                <path id="Path_72496" data-name="Path 72496" d="M63.389,60.887c-1.934-3.067-4.9-5.255-7.622-3.731-1.544.867-2.507,4.284-2.03,6.558.92,4.371,5.048,14.043,10.649,19.315,2.051,1.93,8.979-.26,7.665-4.9C70.324,72.03,66.117,65.211,63.389,60.887Z" transform="translate(-53.614 -56.659)" fill="#eaad49"/>
              </g>
            </g>
          </g>
        </g>
      </g>
      <g id="Group_16112" data-name="Group 16112" transform="translate(1.636 122.967)">
        <g id="Group_16111" data-name="Group 16111">
          <path id="Path_72497" data-name="Path 72497" d="M47.465,86.2s-3.037,3.948-3.084,4.811c-.143,2.584,6.832,7.522,10.086,7.745.453.03,1.2-.387.99-1.65s-3.588-4.881-2.217-6.442S47.465,86.2,47.465,86.2Z" transform="translate(-44.378 -86.205)" fill="#4e5487"/>
        </g>
      </g>
      <g id="Group_16116" data-name="Group 16116" transform="translate(14.556 52.591)">
        <g id="Group_16115" data-name="Group 16115">
          <g id="Group_16114" data-name="Group 16114">
            <g id="Group_16113" data-name="Group 16113">
              <path id="Path_72498" data-name="Path 72498" d="M53.6,101.345s-5.125-20.959-5.335-25.58c-.31-6.788,5.861-12.81,13.137-9.929,5,1.984,10.766,43.377,3.194,48.352C57.731,118.7,53.6,101.345,53.6,101.345Z" transform="translate(-48.254 -65.098)" fill="#39bfb1"/>
            </g>
          </g>
        </g>
      </g>
      <g id="Group_16120" data-name="Group 16120" transform="translate(2.25 88.725)">
        <g id="Group_16119" data-name="Group 16119">
          <g id="Group_16118" data-name="Group 16118">
            <g id="Group_16117" data-name="Group 16117">
              <path id="Path_72499" data-name="Path 72499" d="M56.24,115.915c5.708-6.482,20.632-28.53,20.448-35.242-.2-7.255-9.9-5.9-15.03,2.164-3.324,5.221-14.35,23.062-17,28.107-.643,1.224,2.131,3.674,4.064,4.661C48.768,115.631,54.593,117.789,56.24,115.915Z" transform="translate(-44.563 -75.935)" fill="#39bfb1"/>
            </g>
          </g>
        </g>
      </g>
      <g id="Group_16122" data-name="Group 16122" transform="translate(35.212 122.367)">
        <g id="Group_16121" data-name="Group 16121">
          <path id="Path_72500" data-name="Path 72500" d="M55.907,86.025s-1.664,4.695-1.437,5.531c.667,2.5,8.829,5.028,11.99,4.228.443-.11,1.027-.74.43-1.874s-4.925-3.524-4.1-5.438S55.907,86.025,55.907,86.025Z" transform="translate(-54.449 -86.025)" fill="#4e5487"/>
        </g>
      </g>
      <g id="Group_16126" data-name="Group 16126" transform="translate(26.799 49.013)">
        <g id="Group_16125" data-name="Group 16125">
          <g id="Group_16124" data-name="Group 16124">
            <g id="Group_16123" data-name="Group 16123">
              <path id="Path_72501" data-name="Path 72501" d="M65.631,100.222S54.254,81.887,52.621,77.563c-2.4-6.358,1.594-14,9.406-13.517,5.368.333,23.756,36,18.1,43.081C75,113.545,65.631,100.222,65.631,100.222Z" transform="translate(-51.925 -64.024)" fill="#39bfb1"/>
            </g>
          </g>
        </g>
      </g>
      <g id="Group_16130" data-name="Group 16130" transform="translate(34.638 81.759)">
        <g id="Group_16129" data-name="Group 16129">
          <g id="Group_16128" data-name="Group 16128">
            <g id="Group_16127" data-name="Group 16127">
              <path id="Path_72502" data-name="Path 72502" d="M66.841,117.048c3.414-7.932,10.756-33.525,8.5-39.85C72.9,70.363,64.1,74.667,61.723,83.919c-1.54,6-6.482,26.38-7.435,32-.233,1.364,3.167,2.831,5.311,3.167C59.653,119.1,65.858,119.341,66.841,117.048Z" transform="translate(-54.277 -73.846)" fill="#39bfb1"/>
            </g>
          </g>
        </g>
      </g>
      <g id="Group_16135" data-name="Group 16135" transform="translate(18.762 62.362)">
        <g id="Group_16134" data-name="Group 16134">
          <g id="Group_16133" data-name="Group 16133">
            <g id="Group_16132" data-name="Group 16132">
              <g id="Group_16131" data-name="Group 16131">
                <path id="Path_72503" data-name="Path 72503" d="M54.663,68.391c-.377,2.264-1.56,7.929-4.841,7.292-.44-.087-.393-.79.05-.7,2.724.527,3.771-4.731,4.088-6.642.073-.443.78-.4.7.053Z" transform="translate(-49.515 -68.028)" fill="#696b32"/>
              </g>
            </g>
          </g>
        </g>
      </g>
      <g id="Group_16139" data-name="Group 16139" transform="translate(10.886 23.3)">
        <g id="Group_16138" data-name="Group 16138">
          <g id="Group_16137" data-name="Group 16137">
            <g id="Group_16136" data-name="Group 16136">
              <path id="Path_72504" data-name="Path 72504" d="M74.61,60.175C72.42,54.2,61.627,56.564,54.252,58.048c-4.971,1-7.685,3.431-6.992,12.566.27,3.594.573,14.58,2.571,20.032.357.98,1.88,1.814,2.694,2.467C57.192,96.884,81.222,91.66,80,86.1A101.535,101.535,0,0,0,74.61,60.175Z" transform="translate(-47.153 -56.313)" fill="#ffc662"/>
            </g>
          </g>
        </g>
      </g>
      <g id="Group_16146" data-name="Group 16146" transform="translate(19.266 16.847)">
        <g id="Group_16145" data-name="Group 16145">
          <g id="Group_16144" data-name="Group 16144">
            <g id="Group_16143" data-name="Group 16143">
              <g id="Group_16142" data-name="Group 16142">
                <g id="Group_16141" data-name="Group 16141">
                  <g id="Group_16140" data-name="Group 16140">
                    <path id="Path_72505" data-name="Path 72505" d="M49.709,54.377s7.729,1.274,7.332,1.92.41,1.867.487,3.084A6.953,6.953,0,0,0,59.8,63.339c.87.9-.54,2.084-1.83,2.394-5.565,1.327-9.212-.6-8.112-2.474C52.333,59.045,49.709,54.377,49.709,54.377Z" transform="translate(-49.666 -54.377)" fill="#8b482a"/>
                  </g>
                </g>
              </g>
            </g>
          </g>
        </g>
      </g>
      <g id="Group_16155" data-name="Group 16155" transform="translate(18.699 16.75)">
        <g id="Group_16154" data-name="Group 16154">
          <g id="Group_16153" data-name="Group 16153">
            <g id="Group_16152" data-name="Group 16152">
              <g id="Group_16151" data-name="Group 16151">
                <g id="Group_16150" data-name="Group 16150">
                  <g id="Group_16149" data-name="Group 16149">
                    <g id="Group_16148" data-name="Group 16148">
                      <g id="Group_16147" data-name="Group 16147">
                        <path id="Path_72506" data-name="Path 72506" d="M57.925,59.449c-.077-1.217-.884-2.441-.487-3.084S49.5,54.348,49.5,54.348a5.948,5.948,0,0,1,1.62,3.134c2.454,2.957,5.695,3.7,7.805,4.4A10.865,10.865,0,0,1,57.925,59.449Z" transform="translate(-49.496 -54.348)" fill="#612c13"/>
                      </g>
                    </g>
                  </g>
                </g>
              </g>
            </g>
          </g>
        </g>
      </g>
      <g id="Group_16167" data-name="Group 16167" transform="translate(17.676 6.817)">
        <g id="Group_16166" data-name="Group 16166">
          <g id="Group_16165" data-name="Group 16165">
            <g id="Group_16164" data-name="Group 16164">
              <g id="Group_16163" data-name="Group 16163">
                <g id="Group_16162" data-name="Group 16162">
                  <g id="Group_16161" data-name="Group 16161">
                    <g id="Group_16160" data-name="Group 16160">
                      <g id="Group_16159" data-name="Group 16159">
                        <g id="Group_16158" data-name="Group 16158">
                          <g id="Group_16157" data-name="Group 16157">
                            <g id="Group_16156" data-name="Group 16156">
                              <path id="Path_72507" data-name="Path 72507" d="M58.09,52.21c3.121,2.131,6.068,9.859,3.1,13.753-1.63,2.141-8.032.26-11.2-4.068a9.679,9.679,0,0,1-.117-7.549C50.5,52.666,54.85,50,58.09,52.21Z" transform="translate(-49.189 -51.369)" fill="#8b482a"/>
                            </g>
                          </g>
                        </g>
                      </g>
                    </g>
                  </g>
                </g>
              </g>
            </g>
          </g>
        </g>
      </g>
      <g id="Group_16177" data-name="Group 16177" transform="translate(16.028 4.415)">
        <g id="Group_16176" data-name="Group 16176">
          <g id="Group_16175" data-name="Group 16175">
            <g id="Group_16174" data-name="Group 16174">
              <g id="Group_16173" data-name="Group 16173">
                <g id="Group_16172" data-name="Group 16172">
                  <g id="Group_16171" data-name="Group 16171">
                    <g id="Group_16170" data-name="Group 16170">
                      <g id="Group_16169" data-name="Group 16169">
                        <g id="Group_16168" data-name="Group 16168">
                          <path id="Path_72508" data-name="Path 72508" d="M63.022,59.91c.02.48-.907-4.718-3.868-4.931-1.2-.087-.874,1.16-2.257,1.33-1.18.147-4.851-2.067-3.141,4.928.083.337-.22.754-.36,1.064-.177.387.467,1.214.48,1.637s-1.274-.78-1.23-.377c.067.613,1.217,2.281.34,2.557-1.04.333-2.551-3.117-3.174-6.382-.157-.837-1.027-4.094-1.114-4.8-.183-1.5,7.132-4.131,10.389-4.284,1.924-.093,1.517,2.571,2.241,4.181A13.938,13.938,0,0,1,63.022,59.91Z" transform="translate(-48.695 -50.648)" fill="#53424d"/>
                        </g>
                      </g>
                    </g>
                  </g>
                </g>
              </g>
            </g>
          </g>
        </g>
      </g>
      <g id="Group_16186" data-name="Group 16186" transform="translate(18.109 15.398)">
        <g id="Group_16185" data-name="Group 16185">
          <g id="Group_16184" data-name="Group 16184">
            <g id="Group_16183" data-name="Group 16183">
              <g id="Group_16182" data-name="Group 16182">
                <g id="Group_16181" data-name="Group 16181">
                  <g id="Group_16180" data-name="Group 16180">
                    <g id="Group_16179" data-name="Group 16179">
                      <g id="Group_16178" data-name="Group 16178">
                        <path id="Path_72509" data-name="Path 72509" d="M53.119,55.265s-2.267-1.807-3.438-1.2.67,3.794,3.121,3.221S53.813,55.752,53.119,55.265Z" transform="translate(-49.319 -53.942)" fill="#8b482a"/>
                      </g>
                    </g>
                  </g>
                </g>
              </g>
            </g>
          </g>
        </g>
      </g>
      <g id="Group_16190" data-name="Group 16190" transform="translate(27.246 6.146)">
        <g id="Group_16189" data-name="Group 16189">
          <g id="Group_16188" data-name="Group 16188">
            <g id="Group_16187" data-name="Group 16187">
              <path id="Path_72510" data-name="Path 72510" d="M52.061,52.229a1.013,1.013,0,1,0,.964-1.06A1.014,1.014,0,0,0,52.061,52.229Z" transform="translate(-52.06 -51.168)" fill="#53424d"/>
            </g>
          </g>
        </g>
      </g>
      <g id="Group_16194" data-name="Group 16194" transform="translate(25.008 3.088)">
        <g id="Group_16193" data-name="Group 16193">
          <g id="Group_16192" data-name="Group 16192">
            <g id="Group_16191" data-name="Group 16191">
              <path id="Path_72511" data-name="Path 72511" d="M51.391,52.246a1.9,1.9,0,1,0,1.81-1.994A1.9,1.9,0,0,0,51.391,52.246Z" transform="translate(-51.388 -50.25)" fill="#53424d"/>
            </g>
          </g>
        </g>
      </g>
      <g id="Group_16198" data-name="Group 16198" transform="translate(20.763 2.254)">
        <g id="Group_16197" data-name="Group 16197">
          <g id="Group_16196" data-name="Group 16196">
            <g id="Group_16195" data-name="Group 16195">
              <path id="Path_72512" data-name="Path 72512" d="M50.958,54.474a2.572,2.572,0,1,0-.177-3.631A2.569,2.569,0,0,0,50.958,54.474Z" transform="translate(-50.115 -50)" fill="#53424d"/>
            </g>
          </g>
        </g>
      </g>
      <g id="Group_16202" data-name="Group 16202" transform="translate(18.013 3.935)">
        <g id="Group_16201" data-name="Group 16201">
          <g id="Group_16200" data-name="Group 16200">
            <g id="Group_16199" data-name="Group 16199">
              <path id="Path_72513" data-name="Path 72513" d="M49.293,52.407a1.816,1.816,0,1,0,1.724-1.9A1.813,1.813,0,0,0,49.293,52.407Z" transform="translate(-49.29 -50.504)" fill="#53424d"/>
            </g>
          </g>
        </g>
      </g>
      <g id="Group_16206" data-name="Group 16206" transform="translate(14.512 5.902)">
        <g id="Group_16205" data-name="Group 16205">
          <g id="Group_16204" data-name="Group 16204">
            <g id="Group_16203" data-name="Group 16203">
              <path id="Path_72514" data-name="Path 72514" d="M48.243,53.467A2.263,2.263,0,1,0,50.393,51.1,2.263,2.263,0,0,0,48.243,53.467Z" transform="translate(-48.24 -51.094)" fill="#53424d"/>
            </g>
          </g>
        </g>
      </g>
      <g id="Group_16210" data-name="Group 16210" transform="translate(14.569 9.25)">
        <g id="Group_16209" data-name="Group 16209">
          <g id="Group_16208" data-name="Group 16208">
            <g id="Group_16207" data-name="Group 16207">
              <path id="Path_72515" data-name="Path 72515" d="M48.259,53.821a1.641,1.641,0,1,0,1.557-1.72A1.64,1.64,0,0,0,48.259,53.821Z" transform="translate(-48.257 -52.098)" fill="#53424d"/>
            </g>
          </g>
        </g>
      </g>
      <g id="Group_16214" data-name="Group 16214" transform="translate(15.676 10.84)">
        <g id="Group_16213" data-name="Group 16213">
          <g id="Group_16212" data-name="Group 16212">
            <g id="Group_16211" data-name="Group 16211">
              <path id="Path_72516" data-name="Path 72516" d="M48.591,54.288a1.636,1.636,0,1,0,1.554-1.71A1.639,1.639,0,0,0,48.591,54.288Z" transform="translate(-48.589 -52.575)" fill="#53424d"/>
            </g>
          </g>
        </g>
      </g>
      <g id="Group_16218" data-name="Group 16218" transform="translate(28.426 7.553)">
        <g id="Group_16217" data-name="Group 16217">
          <g id="Group_16216" data-name="Group 16216">
            <g id="Group_16215" data-name="Group 16215">
              <path id="Path_72517" data-name="Path 72517" d="M52.415,52.675a1.036,1.036,0,1,0,.984-1.084A1.036,1.036,0,0,0,52.415,52.675Z" transform="translate(-52.414 -51.59)" fill="#53424d"/>
            </g>
          </g>
        </g>
      </g>
      <g id="Group_16222" data-name="Group 16222" transform="translate(15.69 13.174)">
        <g id="Group_16221" data-name="Group 16221">
          <g id="Group_16220" data-name="Group 16220">
            <g id="Group_16219" data-name="Group 16219">
              <path id="Path_72518" data-name="Path 72518" d="M48.6,54.714a1.372,1.372,0,1,0,1.3-1.437A1.372,1.372,0,0,0,48.6,54.714Z" transform="translate(-48.594 -53.276)" fill="#53424d"/>
            </g>
          </g>
        </g>
      </g>
      <g id="Group_16254" data-name="Group 16254" transform="translate(22.612 11.839)">
        <g id="Group_16227" data-name="Group 16227" transform="translate(0.702 3.077)">
          <g id="Group_16226" data-name="Group 16226">
            <g id="Group_16225" data-name="Group 16225">
              <g id="Group_16224" data-name="Group 16224">
                <g id="Group_16223" data-name="Group 16223">
                  <path id="Path_72519" data-name="Path 72519" d="M51.209,54.235c-.057-.04.067.04.09.05a1.365,1.365,0,0,0,.307.12c.417.093.647-.163.794-.507.093-.217.43-.047.34.17a1.12,1.12,0,0,1-1.787.437c-.2-.14.06-.407.257-.27Z" transform="translate(-50.88 -53.798)" fill="#1e100c"/>
                </g>
              </g>
            </g>
          </g>
        </g>
        <g id="Group_16232" data-name="Group 16232" transform="translate(4.785 2.463)">
          <g id="Group_16231" data-name="Group 16231">
            <g id="Group_16230" data-name="Group 16230">
              <g id="Group_16229" data-name="Group 16229">
                <g id="Group_16228" data-name="Group 16228">
                  <path id="Path_72520" data-name="Path 72520" d="M52.465,53.771a1.227,1.227,0,0,0,.323.277c.39.237.657.01.854-.34.117-.207.457-.037.34.17a.97.97,0,0,1-1.13.6,1.54,1.54,0,0,1-.707-.513c-.153-.187.167-.38.32-.2Z" transform="translate(-52.105 -53.614)" fill="#1e100c"/>
                </g>
              </g>
            </g>
          </g>
        </g>
        <g id="Group_16236" data-name="Group 16236" transform="translate(4.153)">
          <g id="Group_16235" data-name="Group 16235">
            <g id="Group_16234" data-name="Group 16234">
              <g id="Group_16233" data-name="Group 16233">
                <path id="Path_72521" data-name="Path 72521" d="M53.765,53.409a1.129,1.129,0,0,0-1.43.6c-.14.26-.527.013-.39-.243a1.566,1.566,0,0,1,1.957-.79c.277.1.14.533-.137.437Z" transform="translate(-51.915 -52.875)" fill="#612c13"/>
              </g>
            </g>
          </g>
        </g>
        <g id="Group_16240" data-name="Group 16240" transform="translate(0.262 0.906)">
          <g id="Group_16239" data-name="Group 16239">
            <g id="Group_16238" data-name="Group 16238">
              <g id="Group_16237" data-name="Group 16237">
                <path id="Path_72522" data-name="Path 72522" d="M52.661,53.831a1.127,1.127,0,0,0-1.537.187c-.207.213-.51-.13-.31-.34a1.565,1.565,0,0,1,2.1-.23c.243.167-.007.55-.25.383Z" transform="translate(-50.748 -53.147)" fill="#612c13"/>
              </g>
            </g>
          </g>
        </g>
        <g id="Group_16244" data-name="Group 16244" transform="translate(3.316 1.949)">
          <g id="Group_16243" data-name="Group 16243">
            <g id="Group_16242" data-name="Group 16242">
              <g id="Group_16241" data-name="Group 16241">
                <path id="Path_72523" data-name="Path 72523" d="M52.124,53.618a2.283,2.283,0,0,0-.087,1.267c.16.59.817.867,1.174,1.357.483.677-.02,1.064-.834,1.277-.2.05-.287-.2-.09-.25,1.824-.473-.267-1.454-.527-2.217a2.421,2.421,0,0,1,.053-1.5c.053-.163.363-.1.31.063Z" transform="translate(-51.664 -53.459)" fill="#612c13"/>
              </g>
            </g>
          </g>
        </g>
        <g id="Group_16247" data-name="Group 16247" transform="translate(3.117 7.088)">
          <g id="Group_16246" data-name="Group 16246">
            <g id="Group_16245" data-name="Group 16245">
              <path id="Path_72524" data-name="Path 72524" d="M51.609,55s-.12,1.2.877,1.23,1.13-1.044,1.13-1.044Z" transform="translate(-51.605 -55.001)" fill="#faffff"/>
            </g>
          </g>
        </g>
        <g id="Group_16250" data-name="Group 16250" transform="translate(0 5.13)">
          <g id="Group_16249" data-name="Group 16249">
            <g id="Group_16248" data-name="Group 16248">
              <path id="Path_72525" data-name="Path 72525" d="M50.711,55.565a.887.887,0,1,0,.58-1.11A.889.889,0,0,0,50.711,55.565Z" transform="translate(-50.67 -54.414)" fill="#612c13"/>
            </g>
          </g>
        </g>
        <g id="Group_16253" data-name="Group 16253" transform="translate(5.758 4.263)">
          <g id="Group_16252" data-name="Group 16252">
            <g id="Group_16251" data-name="Group 16251">
              <path id="Path_72526" data-name="Path 72526" d="M53.872,54.365a.9.9,0,1,0,.11,1.264A.9.9,0,0,0,53.872,54.365Z" transform="translate(-52.397 -54.154)" fill="#612c13"/>
            </g>
          </g>
        </g>
      </g>
      <g id="Group_16259" data-name="Group 16259" transform="translate(39.003 59.731)">
        <g id="Group_16258" data-name="Group 16258">
          <g id="Group_16257" data-name="Group 16257">
            <g id="Group_16256" data-name="Group 16256">
              <g id="Group_16255" data-name="Group 16255">
                <path id="Path_72527" data-name="Path 72527" d="M55.64,67.706C56.827,69.5,60,73.894,62.565,72.1c.343-.24.033-.824-.313-.58-2.131,1.49-5.028-2.611-6.031-4.124-.23-.35-.814-.04-.58.313Z" transform="translate(-55.586 -67.239)" fill="#39bfb1"/>
              </g>
            </g>
          </g>
        </g>
      </g>
      <g id="Group_16261" data-name="Group 16261" transform="translate(10.894)">
        <path id="Path_72528" data-name="Path 72528" d="M55.23,104.579a24.489,24.489,0,1,0-1.757-34.589A24.487,24.487,0,0,0,55.23,104.579Zm24.5-27.123a12.064,12.064,0,1,1-17.038.864A12.064,12.064,0,0,1,79.733,77.456Z" transform="translate(-47.155 -19.929)" fill="#89b8e0"/>
        <path id="Path_72529" data-name="Path 72529" d="M103.716,51.9h0a4.587,4.587,0,0,1,.33,6.458L65.33,101.21a4.58,4.58,0,0,1-6.455.327h0a4.584,4.584,0,0,1-.327-6.458L97.261,52.228A4.583,4.583,0,0,1,103.716,51.9Z" transform="translate(-23.307 -46.05)" fill="#89b8e0"/>
        <path id="Path_72530" data-name="Path 72530" d="M75.921,54.5l.02.02a5.131,5.131,0,0,1,.367,7.228l-3.6,3.988a5.131,5.131,0,0,1-7.229.367l-.02-.017a5.131,5.131,0,0,1-.367-7.228l3.6-3.991A5.131,5.131,0,0,1,75.921,54.5Z" transform="translate(-8.365 -40.32)" fill="#89b8e0"/>
        <path id="Path_72531" data-name="Path 72531" d="M73.161,50.457l7.452,6.732a4.425,4.425,0,0,1,.317,6.232h0a4.425,4.425,0,0,1-6.232.313L67.246,57a4.428,4.428,0,0,1-.317-6.232h0A4.428,4.428,0,0,1,73.161,50.457Z" transform="translate(-3.641 -49.324)" fill="#89b8e0"/>
        <path id="Path_72532" data-name="Path 72532" d="M104,52.159h0a4.584,4.584,0,0,1,.327,6.458L65.616,101.468a4.584,4.584,0,0,1-6.458.327h0a4.586,4.586,0,0,1-.327-6.455L97.544,52.486A4.587,4.587,0,0,1,104,52.159Z" transform="translate(-22.64 -45.448)" fill="#aacef2"/>
        <path id="Path_72533" data-name="Path 72533" d="M76.308,54.755v0a5.3,5.3,0,0,1,.38,7.462l-3.521,3.894a5.3,5.3,0,0,1-7.462.377h0a5.3,5.3,0,0,1-.377-7.462l3.521-3.894A5.294,5.294,0,0,1,76.308,54.755Z" transform="translate(-7.902 -39.812)" fill="#aacef2"/>
        <path id="Path_72534" data-name="Path 72534" d="M73.363,50.639l7.452,6.732a4.425,4.425,0,0,1,.317,6.232h0a4.425,4.425,0,0,1-6.232.317l-7.452-6.732a4.428,4.428,0,0,1-.317-6.232h0A4.425,4.425,0,0,1,73.363,50.639Z" transform="translate(-3.169 -48.899)" fill="#aacef2"/>
        <path id="Path_72535" data-name="Path 72535" d="M71.383,75.819,87.765,57.686l-12.074-.275L59.309,75.545Z" transform="translate(-18.786 -30.448)" fill="#c2e1f9"/>
        <path id="Path_72536" data-name="Path 72536" d="M55.594,104.937A24.491,24.491,0,1,0,53.84,70.348,24.49,24.49,0,0,0,55.594,104.937ZM80.1,77.813a12.065,12.065,0,1,1-17.041.864A12.06,12.06,0,0,1,80.1,77.813Z" transform="translate(-46.302 -19.096)" fill="#aacef2"/>
        <g id="Group_16260" data-name="Group 16260" transform="translate(1.238 52.446)">
          <path id="Path_72537" data-name="Path 72537" d="M63.045,72.189A12.063,12.063,0,0,1,82.447,86.3L95.553,87A23.154,23.154,0,0,0,92.5,66.858l-39.647-1.8c-.163.2-.343.4-.5.607-.087.113-.167.23-.25.347a24.444,24.444,0,0,0-4.228,18.4l13.08.713A12.063,12.063,0,0,1,63.045,72.189Z" transform="translate(-47.526 -65.054)" fill="#c2e1f9"/>
        </g>
      </g>
      <g id="Group_16283" data-name="Group 16283" transform="translate(0 26.672)">
        <g id="Group_16265" data-name="Group 16265" transform="translate(0 18.044)">
          <g id="Group_16264" data-name="Group 16264">
            <g id="Group_16263" data-name="Group 16263">
              <g id="Group_16262" data-name="Group 16262">
                <path id="Path_72538" data-name="Path 72538" d="M49.223,62.8c-.313.88-6.435,9.112-5.161,11.976.927,2.074,8.079.95,8.079.95s-1.807-2.524,3.9-8.682C60.856,61.859,49.223,62.8,49.223,62.8Z" transform="translate(-43.888 -62.736)" fill="#8b482a"/>
              </g>
            </g>
          </g>
        </g>
        <g id="Group_16275" data-name="Group 16275" transform="translate(0.04 27.032)">
          <g id="Group_16274" data-name="Group 16274">
            <g id="Group_16273" data-name="Group 16273">
              <g id="Group_16272" data-name="Group 16272">
                <g id="Group_16271" data-name="Group 16271">
                  <g id="Group_16270" data-name="Group 16270">
                    <g id="Group_16269" data-name="Group 16269">
                      <g id="Group_16268" data-name="Group 16268">
                        <g id="Group_16267" data-name="Group 16267">
                          <g id="Group_16266" data-name="Group 16266">
                            <path id="Path_72539" data-name="Path 72539" d="M44.411,69.274c2.507,4.561,14.654,14.36,14.654,14.36l.427-3.408L49.405,65.48S41.91,64.713,44.411,69.274Z" transform="translate(-43.9 -65.431)" fill="#8b482a"/>
                          </g>
                        </g>
                      </g>
                    </g>
                  </g>
                </g>
              </g>
            </g>
          </g>
        </g>
        <g id="Group_16278" data-name="Group 16278" transform="translate(11.629 39.331)">
          <g id="Group_16277" data-name="Group 16277">
            <g id="Group_16276" data-name="Group 16276">
              <path id="Path_72540" data-name="Path 72540" d="M51.285,70.707a4.876,4.876,0,0,0,1.127-.217,6.084,6.084,0,0,1,2.111.13c.387.07,1.284-.237,1.514.213.38.737-1.25.84-1.59.99a.815.815,0,0,0-.553.777,1.033,1.033,0,0,0,.353.563,19.676,19.676,0,0,0,1.66,1.36c.293.233.563.48.84.73.207.187.557.353.7.583a.38.38,0,0,1-.14.563c-.2.077-.323-.1-.477-.2-.35-.217-.707-.423-1.064-.63-.08-.043-.407-.3-.5-.263-.457.18.413.877.547.994a2.2,2.2,0,0,1,.784,1.06.2.2,0,0,1-.013.177c-.06.073-.18.043-.267,0-.507-.243-.917-.667-1.43-.9a.266.266,0,0,0-.263-.01c-.29.223.18.794.317,1,.087.123.183.29.1.42a.255.255,0,0,1-.27.087.753.753,0,0,1-.263-.143,7.59,7.59,0,0,1-.72-.533c-.1-.1-.387-.417-.547-.3a.123.123,0,0,0-.05.1.785.785,0,0,0,.12.393.37.37,0,0,1,0,.4c-.113.13-.327.073-.48-.01A6.462,6.462,0,0,1,51.418,76.8c-.46-.47-.9-.96-1.314-1.47-.78-.96-1.364-2.091-2.227-2.974a2.2,2.2,0,0,1-.36-.427,1.46,1.46,0,0,1-.09-1.03,2.3,2.3,0,0,1,1.187-1.55c.193-.09.573-.3.764-.2.14.073.27.35.367.473a4.65,4.65,0,0,0,.443.517A2.045,2.045,0,0,0,51.285,70.707Z" transform="translate(-47.376 -69.12)" fill="#8b482a"/>
            </g>
          </g>
        </g>
        <g id="Group_16282" data-name="Group 16282" transform="translate(1.655)">
          <g id="Group_16281" data-name="Group 16281">
            <g id="Group_16280" data-name="Group 16280">
              <g id="Group_16279" data-name="Group 16279">
                <path id="Path_72541" data-name="Path 72541" d="M61.921,65.94c1.394-3.348,1.467-7.035-1.344-8.379-1.6-.764-4.948.417-6.528,2.121C51.009,62.952,45.484,71.9,44.4,79.516c-.4,2.787,5.388,7.188,8.425,3.438C56.813,78.029,59.961,70.661,61.921,65.94Z" transform="translate(-44.384 -57.324)" fill="#eaad49"/>
              </g>
            </g>
          </g>
        </g>
      </g>
    </g>
  </g>
</svg>
