<svg xmlns="http://www.w3.org/2000/svg" width="114.385" height="113.767" viewBox="0 0 114.385 113.767">
  <g id="Group_2274" data-name="Group 2274" transform="translate(490.689 -186.782)">
    <path id="Path_1448" data-name="Path 1448" d="M-441.4,223.613c-1.794.823-2.97-.021-4.206-1.3-3.732-3.86-7.576-7.611-11.373-11.409-1.405-1.405-1.417-2.271-.055-3.657q9.446-9.6,18.9-19.2c1.64-1.665,2.433-1.68,4.054-.072,1.6,1.589,3.225,3.159,4.772,4.8a1.537,1.537,0,0,0,1.978.435c4.313-1.687,8.662-3.281,12.987-4.937a19.576,19.576,0,0,1,13.493-.373q10.128,3.319,20.279,6.57c2.024.652,4.119.2,6.179.3.692.034.413-.571.426-.906.091-2.3.515-2.721,2.844-2.723q6.634-.006,13.268,0c1.918.005,2.4.5,2.406,2.408q.007,15.5,0,31c0,2.046-.621,2.661-2.657,2.664q-6.634.009-13.268,0c-2.045,0-2.691-.59-2.645-2.648.022-1-.345-1.118-1.23-1.174a7.013,7.013,0,0,0-5.983,2.09A16.6,16.6,0,0,1-392.193,230c-.058.35.181.457.325.608,1.852,1.951,1.854,2.459-.011,4.325q-9.333,9.335-18.667,18.668c-1.68,1.679-2.383,1.68-4.032.03q-5.743-5.744-11.49-11.485c-1.338-1.339-1.406-1.984-.395-3.52a2.5,2.5,0,0,1,3.168.646c1.187,1.237,2.432,2.417,3.624,3.649a.974.974,0,0,0,1.388.268,10.884,10.884,0,0,1,11.65.021.89.89,0,0,0,1.292-.144c1.071-1.1,2.148-2.191,3.257-3.251a.882.882,0,0,0,.183-1.285,10.655,10.655,0,0,1-.811-10.165c.3-.724.047-.967-.638-1.243q-5.947-2.4-11.844-4.926c-1.014-.433-1.335-.2-1.618.87a7.656,7.656,0,0,1-8.9,5.473,7.85,7.85,0,0,1-6.2-8.712c.314-3.548,3.639-6.512,7.532-6.646.779-.027,1.156-.188,1.123-1.054a7.564,7.564,0,0,1,1.67-4.754c.448-.616.454-.928-.074-1.445q-3.575-3.506-7.081-7.083a1.033,1.033,0,0,0-1.505-.188,10.528,10.528,0,0,1-11.477.007c-.522-.315-.912-.436-1.4.089-1.048,1.119-2.15,2.188-3.248,3.259a.89.89,0,0,0-.164,1.29,10.78,10.78,0,0,1,.15,11.415,1.26,1.26,0,0,0,.335,1.829c1.193,1.1,2.265,2.335,3.481,3.407C-441.416,220.975-440.8,222.076-441.4,223.613Zm15.914-26.87c2.552,2.53,4.892,4.836,7.212,7.164.4.4.756.287,1.218.147a9.745,9.745,0,0,1,6.735.365c4.915,2.016,9.848,3.986,14.773,5.977a3.716,3.716,0,0,1,.854.4,1.871,1.871,0,0,1,.749,2.367,1.743,1.743,0,0,1-2.2,1.086,6.878,6.878,0,0,1-1.139-.416c-4.926-1.988-9.839-4.011-14.782-5.955a5.386,5.386,0,0,0-7.046,2.755,5.461,5.461,0,0,0,3.028,7.069c6.017,2.531,12.038,5.057,18.111,7.446a14.1,14.1,0,0,0,15.5-3.58,2.917,2.917,0,0,0,.864-2.165c-.034-6.677-.043-13.354.008-20.03.008-1.056-.356-1.442-1.332-1.746-6.317-1.966-12.61-4.012-18.913-6.025a14.6,14.6,0,0,0-9.312-.178C-415.882,193.035-420.525,194.884-425.491,196.743Zm66.394,12.313c0-4.331-.01-8.662.011-12.992,0-.676-.044-1.077-.911-1.063-3.067.049-6.135.04-9.2,0-.743-.009-.9.274-.9.95q.027,13.128,0,26.255c0,.764.221,1,.992.993,2.977-.04,5.955-.055,8.932.007.938.019,1.1-.322,1.095-1.161C-359.117,217.717-359.1,213.386-359.1,209.056Zm-14.794.038v-7.836c0-2.537,0-2.488-2.582-2.538-1.042-.02-1.384.248-1.373,1.341.055,5.584.026,11.169.026,16.753,0,2.7,0,2.658,2.717,2.671.925,0,1.251-.237,1.233-1.2C-373.928,215.218-373.892,212.156-373.891,209.093Zm-50.2,7.788a3.9,3.9,0,0,0-3.986,3.9,4.016,4.016,0,0,0,3.939,3.987,3.871,3.871,0,0,0,3.933-3.938A3.788,3.788,0,0,0-424.1,216.881Zm-24.623-7.738a6.034,6.034,0,0,0-.344-2.35c-.457-1.7-.57-1.721-1.849-.445l-.765.766c-1.865,1.865-1.885,1.886.01,3.717.624.6,1.271,1.89,1.958,1.565.858-.405.862-1.774.988-2.805A4.027,4.027,0,0,0-448.718,209.143Zm12.765-12.771c1.27-.043,2.834-.045,3.471-1.028.412-.636-1.077-1.4-1.775-2.041-1.771-1.634-1.8-1.648-3.484.105-.6.622-1.882,1.245-1.546,1.96.4.859,1.763.883,2.795,1A4.8,4.8,0,0,0-435.953,196.371Zm27.386,50.015a7.1,7.1,0,0,0-6.711-.4c-.444.191-.857.406-.3.947.929.91,1.846,1.834,2.761,2.758a.557.557,0,0,0,.916-.016C-410.833,248.608-409.749,247.549-408.567,246.386Zm8.881-13.7h.036a4.786,4.786,0,0,0,.018,1.209c.208.768.185,1.877.9,2.149.753.285,1.114-.845,1.716-1.265a2.322,2.322,0,0,0,.289-.284c1.808-1.808,1.829-1.83.01-3.583-.624-.6-1.26-1.884-1.961-1.559-.862.4-.88,1.764-1.008,2.793A4.41,4.41,0,0,0-399.686,232.685Z" transform="translate(-20.854)" fill="#020303"/>
    <path id="Path_1449" data-name="Path 1449" d="M-359.587,419.486l-4.365,1.564c-.83-1.137-1.836-1.186-3.1-.7-6.381,2.468-12.786,4.876-19.181,7.308a15.811,15.811,0,0,1-10.854.308q-9.625-3.151-19.269-6.243a1.328,1.328,0,0,1-1.115-1.5q.063-10.218.007-20.437a2.445,2.445,0,0,1,.8-1.9c4.161-4.07,9.138-5.675,14.628-3.74,6.615,2.331,13.047,5.189,19.518,7.917a5.033,5.033,0,0,1,2.841,5.37,5.032,5.032,0,0,1-3.686,4.369,6.005,6.005,0,0,1-4.212-.355q-7.382-3-14.777-5.967c-1.332-.533-2.423-.151-2.851.914-.417,1.039.066,1.972,1.376,2.505,5.17,2.1,10.325,4.249,15.531,6.264a9.1,9.1,0,0,0,12.341-6.6,1.051,1.051,0,0,1,.813-.9c5.266-1.706,10.5-3.514,15.8-5.123a6.734,6.734,0,0,1,8.294,4.256,6.912,6.912,0,0,1-3.647,8.726,33.075,33.075,0,0,1-3.26,1.3A2.091,2.091,0,0,0-359.587,419.486Z" transform="translate(-46.781 -131.96)" fill="#dc8966"/>
    <path id="Path_1450" data-name="Path 1450" d="M-406.367,412.778a2.091,2.091,0,0,1,1.631-2.665,33.068,33.068,0,0,0,3.26-1.3,6.912,6.912,0,0,0,3.647-8.726,6.734,6.734,0,0,0-8.294-4.256c-5.3,1.608-10.531,3.417-15.8,5.123a1.051,1.051,0,0,0-.812.9,9.1,9.1,0,0,1-12.341,6.6c-5.205-2.015-10.36-4.16-15.531-6.264-1.31-.533-1.794-1.466-1.376-2.505.428-1.065,1.52-1.447,2.851-.914q7.4,2.961,14.777,5.967a6.005,6.005,0,0,0,4.212.355,5.032,5.032,0,0,0,3.686-4.369,5.033,5.033,0,0,0-2.841-5.37c-6.471-2.727-12.9-5.586-19.518-7.917-5.49-1.934-10.467-.33-14.628,3.74a2.445,2.445,0,0,0-.8,1.9q.044,10.219-.007,20.437a1.328,1.328,0,0,0,1.115,1.5q9.645,3.088,19.269,6.243a15.811,15.811,0,0,0,10.854-.308c6.4-2.432,12.8-4.84,19.181-7.308,1.262-.488,2.268-.439,3.1.7a2.235,2.235,0,0,1-1.694,2.779c-6.483,2.431-12.944,4.919-19.422,7.364a19.847,19.847,0,0,1-13.635.213c-6.659-2.2-13.333-4.362-20-6.525-1.981-.642-4.031-.2-6.047-.3-.658-.033-.477.517-.495.885-.125,2.531-.49,2.892-2.976,2.893q-6.5,0-12.995,0c-2.062,0-2.688-.627-2.688-2.639q0-15.228,0-30.456c0-2.1.643-2.742,2.729-2.744q6.633,0,13.265,0c1.866,0,2.56.627,2.482,2.513-.046,1.124.371,1.239,1.359,1.317a7.052,7.052,0,0,0,5.8-2.133c5.226-4.782,11.5-5.865,18.117-3.415,6.236,2.309,12.329,5,18.473,7.556a8.611,8.611,0,0,1,4.884,4.8c.351.871.717.867,1.469.616,4.734-1.581,9.473-3.15,14.229-4.663a11.072,11.072,0,0,1,14.282,8.091,10.769,10.769,0,0,1-6.279,11.833c-1.151.507-2.356.891-3.509,1.393A2.1,2.1,0,0,1-406.367,412.778Zm-80.526-9.094c0,4.332.019,8.664-.016,13-.007.855.206,1.184,1.123,1.167q4.331-.082,8.663,0c.912.016,1.136-.313,1.134-1.174q-.038-12.928,0-25.856c0-.884-.253-1.18-1.146-1.166-2.842.046-5.687.066-8.527-.009-1.063-.028-1.265.347-1.254,1.319C-486.865,395.2-486.893,399.442-486.893,403.684Zm18.7.273v-7.851c0-2.731,0-2.667-2.665-2.74-1.178-.032-1.408.386-1.4,1.467.05,5.55,0,11.1.03,16.65.016,3.177-.49,2.67,2.828,2.765.95.027,1.241-.273,1.224-1.221C-468.223,410-468.19,406.98-468.19,403.956Z" transform="translate(0 -125.251)" fill="#040302"/>
    <path id="Path_1451" data-name="Path 1451" d="M-421.4,244.158c.6-1.537-.011-2.638-1.168-3.658-1.216-1.072-2.288-2.306-3.481-3.407a1.26,1.26,0,0,1-.335-1.829,10.78,10.78,0,0,0-.15-11.415.89.89,0,0,1,.164-1.29c1.1-1.071,2.2-2.14,3.248-3.259.492-.525.882-.4,1.4-.089a10.528,10.528,0,0,0,11.477-.006,1.033,1.033,0,0,1,1.505.188q3.5,3.579,7.081,7.083c.528.518.523.829.074,1.445a7.564,7.564,0,0,0-1.67,4.754c.033.866-.344,1.028-1.123,1.054-3.893.134-7.218,3.1-7.532,6.646a7.85,7.85,0,0,0,6.2,8.712,7.656,7.656,0,0,0,8.9-5.473c.283-1.072.6-1.3,1.618-.87q5.9,2.519,11.844,4.926c.685.277.939.519.638,1.243a10.654,10.654,0,0,0,.811,10.165.883.883,0,0,1-.183,1.285c-1.109,1.06-2.186,2.153-3.257,3.251a.89.89,0,0,1-1.292.144,10.884,10.884,0,0,0-11.65-.021.974.974,0,0,1-1.388-.268c-1.192-1.232-2.437-2.413-3.624-3.649a2.5,2.5,0,0,0-3.168-.646l-3.055-3.131a2.511,2.511,0,0,0-.7-3.233c-1.812-1.677-3.522-3.465-5.256-5.225-.913-.927-1.864-1.208-2.961-.331Z" transform="translate(-40.86 -20.546)" fill="#205024"/>
    <path id="Path_1452" data-name="Path 1452" d="M-404.68,296.417c1.1-.877,2.048-.6,2.961.331,1.734,1.76,3.444,3.548,5.256,5.225a2.511,2.511,0,0,1,.7,3.233c-1.779.773-2.177.7-3.546-.667-1.681-1.679-3.341-3.378-5.044-5.033A2.1,2.1,0,0,1-404.68,296.417Z" transform="translate(-54.611 -69.706)" fill="#040404"/>
    <path id="Path_1453" data-name="Path 1453" d="M-367.887,203.738c4.967-1.859,9.61-3.708,14.333-5.324a14.6,14.6,0,0,1,9.312.178c6.3,2.013,12.6,4.059,18.913,6.025.977.3,1.34.689,1.332,1.746-.051,6.676-.041,13.354-.008,20.03a2.916,2.916,0,0,1-.864,2.165,14.1,14.1,0,0,1-15.5,3.58c-6.073-2.389-12.095-4.915-18.112-7.446a5.461,5.461,0,0,1-3.028-7.069,5.386,5.386,0,0,1,7.046-2.754c4.944,1.944,9.856,3.967,14.782,5.955a6.881,6.881,0,0,0,1.139.416,1.743,1.743,0,0,0,2.2-1.086,1.871,1.871,0,0,0-.749-2.367,3.714,3.714,0,0,0-.854-.4c-4.925-1.992-9.858-3.961-14.773-5.977a9.745,9.745,0,0,0-6.735-.365c-.461.14-.816.256-1.218-.147C-363,208.575-365.335,206.268-367.887,203.738Z" transform="translate(-78.458 -6.996)" fill="#db8866"/>
    <path id="Path_1454" data-name="Path 1454" d="M-203.488,223.595c0,4.331-.02,8.662.017,12.992.007.838-.156,1.18-1.094,1.161-2.976-.062-5.955-.047-8.932-.007-.771.01-.994-.229-.992-.993q.034-13.128,0-26.255c0-.675.153-.958.9-.95,3.067.036,6.136.046,9.2,0,.867-.014.914.387.911,1.063C-203.5,214.933-203.488,219.264-203.488,223.595Z" transform="translate(-176.463 -14.539)" fill="#22a6f1"/>
    <path id="Path_1455" data-name="Path 1455" d="M-231.99,230.21c0,3.063-.036,6.125.021,9.187.018.967-.308,1.208-1.233,1.2-2.717-.012-2.717.026-2.717-2.671,0-5.584.03-11.169-.026-16.753-.011-1.093.331-1.361,1.373-1.341,2.58.05,2.581,0,2.582,2.538Q-231.99,226.292-231.99,230.21Z" transform="translate(-162.755 -21.117)" fill="#1a7fb8"/>
    <path id="Path_1456" data-name="Path 1456" d="M-371.076,270.134a3.788,3.788,0,0,1,3.887,3.947,3.872,3.872,0,0,1-3.934,3.938,4.016,4.016,0,0,1-3.939-3.987A3.9,3.9,0,0,1-371.076,270.134Z" transform="translate(-73.873 -53.253)" fill="#7ca480"/>
    <path id="Path_1457" data-name="Path 1457" d="M-439.928,242.162a4.027,4.027,0,0,1,0,.447c-.126,1.031-.13,2.4-.988,2.805-.687.325-1.335-.962-1.958-1.565-1.9-1.831-1.875-1.852-.01-3.717l.765-.766c1.279-1.276,1.391-1.26,1.849.445A6.035,6.035,0,0,1-439.928,242.162Z" transform="translate(-29.643 -33.02)" fill="#28662d"/>
    <path id="Path_1458" data-name="Path 1458" d="M-402.856,205.751a4.8,4.8,0,0,1-.539,0c-1.032-.118-2.392-.142-2.795-1-.335-.715.949-1.338,1.546-1.96,1.683-1.754,1.713-1.739,3.484-.105.7.644,2.187,1.405,1.775,2.041C-400.022,205.707-401.586,205.709-402.856,205.751Z" transform="translate(-53.951 -9.38)" fill="#28682e"/>
    <path id="Path_1459" data-name="Path 1459" d="M-333.9,349.976c-1.182,1.163-2.266,2.222-3.339,3.293a.557.557,0,0,1-.916.016c-.915-.924-1.832-1.847-2.761-2.758-.552-.541-.139-.755.3-.947A7.1,7.1,0,0,1-333.9,349.976Z" transform="translate(-95.52 -103.59)" fill="#28672e"/>
    <path id="Path_1460" data-name="Path 1460" d="M-296.438,307.91a4.415,4.415,0,0,1,0-.54c.128-1.03.146-2.394,1.008-2.793.7-.324,1.338.958,1.962,1.559,1.819,1.754,1.8,1.775-.01,3.583a2.322,2.322,0,0,1-.289.284c-.6.42-.963,1.549-1.716,1.265-.72-.272-.7-1.38-.9-2.149a4.786,4.786,0,0,1-.018-1.209Z" transform="translate(-124.102 -75.226)" fill="#28682e"/>
    <path id="Path_1461" data-name="Path 1461" d="M-480.215,415.738c0-4.242.029-8.483-.021-12.725-.012-.972.191-1.347,1.254-1.319,2.841.075,5.685.055,8.527.009.893-.014,1.149.281,1.146,1.166q-.044,12.928,0,25.856c0,.861-.222,1.19-1.134,1.174q-4.331-.075-8.663,0c-.918.017-1.13-.311-1.123-1.167C-480.2,424.4-480.215,420.07-480.215,415.738Z" transform="translate(-6.678 -137.306)" fill="#bb1919"/>
    <path id="Path_1462" data-name="Path 1462" d="M-435.571,422.6c0,3.023-.034,6.047.019,9.069.017.948-.274,1.248-1.224,1.221-3.319-.094-2.813.412-2.828-2.765-.026-5.55.02-11.1-.03-16.65-.01-1.081.22-1.5,1.4-1.467,2.664.073,2.665.009,2.665,2.74Z" transform="translate(-32.618 -143.896)" fill="#881212"/>
  </g>
</svg>
