<svg xmlns="http://www.w3.org/2000/svg" width="9.989" height="75.426" viewBox="0 0 9.989 75.426">
  <g id="Group_16014" data-name="Group 16014" transform="translate(-55.133 -619.747)">
    <ellipse id="Ellipse_17" data-name="Ellipse 17" cx="3.328" cy="4.229" rx="3.328" ry="4.229" transform="translate(56.633 619.747)" fill="#009e10"/>
    <path id="Path_72029" data-name="Path 72029" d="M281.975,120.28a15.911,15.911,0,0,1-1.959-2.393,15.5,15.5,0,0,1-1.8-3.311,8.84,8.84,0,0,1-.581-2.322,5.821,5.821,0,0,1,1.153-4.276,4.2,4.2,0,0,1,2.61-1.649,4.281,4.281,0,0,1,4.565,2.547,6.258,6.258,0,0,1,.428,4.328,12.015,12.015,0,0,1-1.295,3.206,20.217,20.217,0,0,1-2.635,3.632,1.217,1.217,0,0,1-.276.238ZM282.1,108.6a2.957,2.957,0,1,0,2.494,2.932A2.744,2.744,0,0,0,282.1,108.6Z" transform="translate(-221.967 574.393)" fill="#e20808" stroke="#e20808" stroke-width="1"/>
    <line id="Line_162" data-name="Line 162" y2="47" transform="translate(59.5 630.5)" fill="none" stroke="#707070" stroke-width="1" stroke-dasharray="5"/>
  </g>
</svg>
