<svg xmlns="http://www.w3.org/2000/svg" width="247.876" height="242.426" viewBox="0 0 247.876 242.426">
  <g id="Group_18376" data-name="Group 18376" transform="translate(-93.026 -121.025)">
    <g id="Group_16286" data-name="Group 16286" transform="translate(-214.262 -85.38)">
      <path id="Path_72542" data-name="Path 72542" d="M518.6,271.065a6.78,6.78,0,0,1,6.4,6.943c-.389,15.05-1.756,51.794-6.143,74.675-5.623,29.329-60.864,78-74.757,78s-69.134-48.674-74.757-78c-4.387-22.881-5.754-59.625-6.143-74.675a6.78,6.78,0,0,1,6.4-6.943c35.293-1.978,60.63-19.459,70.242-27.223a6.772,6.772,0,0,1,8.51,0C457.972,251.607,483.309,269.088,518.6,271.065Z" transform="translate(-15.971 -15.133)" fill="#edf0f2"/>
      <path id="Path_72543" data-name="Path 72543" d="M551.894,537.018c-1.546-.613-5.262-2.395-11.89-7.256a194,194,0,0,1-21.4-18.575,172.591,172.591,0,0,1-19.363-22.66C494.183,481.268,490.9,474.69,490,470c-3.725-19.431-5.179-49.951-5.716-66.576a133.481,133.481,0,0,0,43.391-12.073,139.611,139.611,0,0,0,24.215-14.436,139.609,139.609,0,0,0,24.215,14.436A133.481,133.481,0,0,0,619.5,403.428c-.537,16.626-1.99,47.146-5.715,66.576-.9,4.685-4.181,11.264-9.242,18.523a172.58,172.58,0,0,1-19.363,22.66,193.977,193.977,0,0,1-21.4,18.575C557.155,534.624,553.44,536.405,551.894,537.018Z" transform="translate(-123.76 -134.935)" fill="#95cbe8"/>
      <path id="Path_72544" data-name="Path 72544" d="M508.534,256.836a9.291,9.291,0,0,0-6.342-2.99,117.77,117.77,0,0,1-43.443-11.111,122.09,122.09,0,0,1-24.758-15.324,9.322,9.322,0,0,0-11.715,0,122.09,122.09,0,0,1-24.758,15.324,117.77,117.77,0,0,1-43.443,11.111,9.33,9.33,0,0,0-8.81,9.555c.381,14.765,1.744,51.581,6.14,74.513,1.378,7.19,5.565,15.733,12.441,25.389A193.766,193.766,0,0,0,386.154,388.9a197.056,197.056,0,0,0,23.873,20.057c8.078,5.618,14.17,8.467,18.106,8.467s10.028-2.849,18.106-8.467A197.052,197.052,0,0,0,470.113,388.9,193.77,193.77,0,0,0,492.421,363.3c6.877-9.657,11.063-18.2,12.441-25.389,4.4-22.932,5.759-59.748,6.14-74.513A9.28,9.28,0,0,0,508.534,256.836Zm-1.176,6.471c-.38,14.674-1.732,51.253-6.078,73.92-1.278,6.672-5.258,14.734-11.829,23.96a190.165,190.165,0,0,1-21.883,25.1c-16.081,15.67-33.034,27.488-39.434,27.488S404.78,401.955,388.7,386.285a190.16,190.16,0,0,1-21.883-25.1c-6.57-9.226-10.55-17.287-11.829-23.96-4.346-22.667-5.7-59.245-6.078-73.92a5.66,5.66,0,0,1,5.37-5.821,121.375,121.375,0,0,0,44.783-11.449,125.777,125.777,0,0,0,25.505-15.79,5.675,5.675,0,0,1,7.133,0,125.779,125.779,0,0,0,25.505,15.79,121.375,121.375,0,0,0,44.783,11.449A5.66,5.66,0,0,1,507.358,263.307Z" transform="translate(0)" fill="#1e2735"/>
      <path id="Path_72545" data-name="Path 72545" d="M824.621,763.791c-11.54,12.386-26.3,34.463-37.581,63.132a9.507,9.507,0,0,1-9.133,6.03c-.036,0-.072,0-.108,0a9.516,9.516,0,0,1-7.812-4.533c-6.306-10.253-9.378-18.256-20.019-30.805-4.56-5.379,1.242-10.454,7.468-9.853a14.469,14.469,0,0,1,10.212,5.769c3.659,4.885,7.44,10.6,9.566,15.755a236.917,236.917,0,0,1,33.1-46.965,13.97,13.97,0,0,1,12.261-4.364A3.493,3.493,0,0,1,824.621,763.791Z" transform="translate(-358.815 -474.004)" fill="#fff"/>
    </g>
    <g id="Group_16287" data-name="Group 16287" transform="translate(-8.157 121.624)">
      <rect id="Rectangle_8756" data-name="Rectangle 8756" width="2.029" height="14.802" transform="translate(347.624 110.177) rotate(45)" fill="#341f58"/>
      <rect id="Rectangle_8757" data-name="Rectangle 8757" width="2.029" height="14.802" transform="translate(337.157 111.612) rotate(-45)" fill="#341f58"/>
    </g>
    <g id="Group_16289" data-name="Group 16289" transform="translate(-484.305 55.401)">
      <path id="Path_72547" data-name="Path 72547" d="M589.043,243.637a8.738,8.738,0,1,1,8.738-8.738A8.748,8.748,0,0,1,589.043,243.637Zm0-16.852a8.114,8.114,0,1,0,8.114,8.114A8.123,8.123,0,0,0,589.043,226.785Z" fill="#341f58"/>
    </g>
    <path id="Path_72548" data-name="Path 72548" d="M549.188,303.475A120.713,120.713,0,1,1,428.475,182.762" transform="translate(-214.236 -61.237)" fill="none" stroke="#341f58" stroke-linecap="round" stroke-linejoin="round" stroke-width="1" opacity="0.18"/>
  </g>
</svg>
