<svg xmlns="http://www.w3.org/2000/svg" xmlns:xlink="http://www.w3.org/1999/xlink" width="129.2" height="89.4"><defs><clipPath id="d"><path fill="none" d="M0 0h129.2v89.4H0z" data-name="Rectangle 849"/></clipPath><clipPath id="e"><path fill="none" d="M6.4 0a4 4 0 0 0-.9 0C2.5.8.2 4.6 0 9.3h10.1V0Z" data-name="Path 804"/></clipPath><clipPath id="f"><path fill="none" d="M6.5 7.3A96.7 96.7 0 0 0 3 21.7a285 285 0 0 0-3 20.7 1.4 1.4 0 0 0 1.2 1.5h.2a1.4 1.4 0 0 0 1.3-1.2c0-.1 1-10.4 3-20.5 3.5-19 6.5-19.5 6.9-19.5a1.4 1.4 0 0 0 0-2.7c-2.3 0-4.3 2.3-6 7.3" data-name="Path 821"/></clipPath><clipPath id="g"><path fill="none" d="M13.7 0a5.6 5.6 0 0 0-3.9 2.2L.2 16.7c-1 1.2 2-.2 3.1-.2L18.2 19c1.2 0 2.2-1.6 2.2-3.4l19-12.2c0-1.9-1-3.4-2.2-3.4Z" data-name="Path 823"/></clipPath><clipPath id="h"><path fill="none" d="M2 0A1.3 1.3 0 0 0 1 1L.2 4A7 7 0 0 0 0 6L.2 8a1.1 1.1 0 0 0 1.1 1h5a1.1 1.1 0 0 0 1-1L8.3 1a.9.9 0 0 0-.9-1Z" data-name="Path 825"/></clipPath><clipPath id="j"><path fill="none" d="M10.4 0a12.2 12.2 0 0 0-2.1.2L1 1.8A1.4 1.4 0 0 0 0 3v.4a1 1 0 0 0 1 1h7.3a4 4 0 0 0 2-.5L15 .6c.4-.3.4-.6-.2-.6Z" data-name="Path 826"/></clipPath><clipPath id="l"><path fill="none" d="M0 0h14v7.3H0z" data-name="Rectangle 723"/></clipPath><clipPath id="m"><path fill="none" d="M0 0h2.9v31.5H0z" data-name="Rectangle 729"/></clipPath><clipPath id="o"><path fill="none" d="M33 0a5.6 5.6 0 0 0-3.8 2.2l-9.4 14h-9.5l-3.8-4H0v6h.2C4 18.2 7 16.9 7 22.8v.5h22.5a13.2 13.2 0 0 1 1.3-5.4 9.1 9.1 0 0 1 1-1.7 5.5 5.5 0 0 1 3.2-2 4 4 0 0 1 .8-.1h3.8V3.4c0-1.9-1-3.4-2.2-3.4Z" data-name="Path 837"/></clipPath><clipPath id="q"><path fill="none" d="M2 0v6.6H0v6h55.6v-6H31.4c-.7-3-2-5.4-3.5-6.6Z" data-name="Path 838"/></clipPath><clipPath id="s"><path fill="none" d="M6.5 7.3a96.7 96.7 0 0 0-3.6 14.4C1.2 30.8.2 40 0 42h2.7C3 39.6 4 31 5.6 22.2c3.5-19 6.6-19.5 7-19.5a1.4 1.4 0 0 0 0-2.7c-2.4 0-4.3 2.3-6.1 7.3" data-name="Path 844"/></clipPath><clipPath id="u"><path fill="none" d="M0 0h4.5v62H0z" data-name="Rectangle 738"/></clipPath><clipPath id="x"><path fill="none" d="M0 0h3.3v17.2H0z" data-name="Rectangle 747"/></clipPath><clipPath id="z"><path fill="none" d="M2.6 0H0v17.2h2.6v-14h2.1V0Z" data-name="Path 853"/></clipPath><clipPath id="C"><path fill="none" d="M0 0h27.2v2.1H0z" data-name="Rectangle 752"/></clipPath><clipPath id="E"><path fill="none" d="M8.3 0H1a1 1 0 0 0 0 2.1h27.2V0Z" data-name="Path 854"/></clipPath><clipPath id="G"><path fill="none" d="M27.5 0H25v15h-5a1 1 0 0 0-.3 0H1.1a1 1 0 1 0 0 2.2h28.3a1 1 0 1 0 0-2.2h-1.9V3.2h2.2V0Z" data-name="Path 855"/></clipPath><clipPath id="I"><path fill="none" d="M0 0h4.8v2.5H0z" data-name="Rectangle 759"/></clipPath><clipPath id="J"><path fill="none" d="M0 0h3.6v2.6H0z" data-name="Rectangle 761"/></clipPath><clipPath id="K"><path fill="none" d="M0 0h27v.6H0z" data-name="Rectangle 763"/></clipPath><clipPath id="L"><path fill="none" d="M0 0h27v.6H0z" data-name="Rectangle 772"/></clipPath><clipPath id="M"><path fill="none" d="M0 0h27v.6H0z" data-name="Rectangle 790"/></clipPath><clipPath id="N"><path fill="none" d="M0 0h27v.6H0z" data-name="Rectangle 799"/></clipPath><clipPath id="O"><path fill="none" d="M0 0h29.6v33.9H0z" data-name="Rectangle 842"/></clipPath><clipPath id="P"><path fill="none" d="M0 0h4.6v33.7H0z" data-name="Rectangle 837"/></clipPath><clipPath id="Q"><path fill="none" d="M0 0h4.4v33.9H0z" data-name="Rectangle 839"/></clipPath><clipPath id="R"><path fill="none" d="M0 0h4.4v33.9H0z" data-name="Rectangle 841"/></clipPath><clipPath id="S"><path fill="none" d="M0 0h7.7v33.9H0z" data-name="Rectangle 845"/></clipPath><clipPath id="T"><path fill="none" d="M0 0h104.8v1.6H0z" data-name="Rectangle 846"/></clipPath><linearGradient id="c" x1="2.5" x2="2.6" y1="3.5" y2="3.5" gradientUnits="objectBoundingBox"><stop offset="0" stop-color="#827cbc"/><stop offset="1" stop-color="#4762af"/></linearGradient><linearGradient id="b" x1="5.5" x2="5.5" y1="1.7" y2="1.7" gradientUnits="objectBoundingBox"><stop offset="0" stop-color="#827cbc"/><stop offset="1" stop-color="#472d9c"/><stop offset="1" stop-color="#472d9c"/></linearGradient><linearGradient id="a" x1="1.5" x2="1.5" y1="2.5" y2="2.5" gradientUnits="objectBoundingBox"><stop offset="0" stop-color="#353675"/><stop offset="1" stop-color="#3b359c"/></linearGradient><linearGradient xlink:href="#a" id="i" x1="4.2" x2="4.2" y1="6.7" y2="6.7"/><linearGradient xlink:href="#a" id="k" x1="2.9" x2="3" y1="11.2" y2="11.2"/><linearGradient xlink:href="#b" id="n" x1="4.6" x2="4.8" y1="2.4" y2="2.4"/><linearGradient xlink:href="#a" id="p" x1="1.5" x2="1.5" y1="2" y2="2"/><linearGradient xlink:href="#c" id="r" x1="1.4" x2="1.4" y1="2.7" y2="2.7"/><linearGradient xlink:href="#b" id="t" x1="4" x2="4" y1="1.8" y2="1.8"/><linearGradient xlink:href="#b" id="v" x1="13.3" x2="13.4" y1="1.3" y2="1.3"/><linearGradient xlink:href="#b" id="w" x1="16" x2="16.1" y1="1.3" y2="1.3"/><linearGradient xlink:href="#c" id="y" x1="22.3" x2="22.4" y1="2" y2="2"/><linearGradient xlink:href="#a" id="A" x1="15.6" x2="15.7" y1="2" y2="2"/><linearGradient xlink:href="#c" id="B" x1="18.2" x2="18.3" y1="2" y2="2"/><linearGradient xlink:href="#c" id="D" x1="3.5" x2="3.5" y1="8.9" y2="8.9"/><linearGradient xlink:href="#c" id="F" x1="3.9" x2="3.9" y1="8.9" y2="8.9"/><linearGradient xlink:href="#a" id="H" x1="3.1" x2="3.1" y1="2" y2="2"/></defs><g data-name="Group 2756"><g data-name="Group 1659"><g clip-path="url(#d)" data-name="Group 1658" transform="translate(-13 11) translate(13 -11)"><g data-name="Group 1657"><g clip-path="url(#d)" data-name="Group 1656"><g data-name="Group 1498"><g clip-path="url(#e)" data-name="Group 1497" transform="translate(101.458 60.911)"><path fill="url(#c)" d="M0 0h10.1v9.2H0z" data-name="Rectangle 710" transform="translate(0 0)"/></g></g><g data-name="Group 1500"><g clip-path="url(#d)" data-name="Group 1499"><path fill="#f5c840" d="M90 63v7.1H54.4c0-.2-.3-.3-.3-.5 0-5.9 0-4.6-3.8-4.6h-.2v-6h22.3Z" data-name="Path 805"/><path fill="#8d7120" d="M79.8 70.1c.2-4.7 2.5-8.5 5.5-9a4 4 0 0 1 .9-.2h3.7v9.2Z" data-name="Path 806"/><path fill="#e5831d" d="M107.5 46.8H103a5.6 5.6 0 0 0-3.9 2.3l-9.3 14-.3.4c-1 1.2 2-.2 3.1-.2l8.3 1.4a9.1 9.1 0 0 1 1-1.7 5.5 5.5 0 0 1 3.1-2 4 4 0 0 1 1 0h3.7V50.1c0-1.8-1-3.4-2.2-3.4" data-name="Path 807"/><path fill="#2f3030" d="M63.7 13H69v2.8h-5.4z" data-name="Rectangle 711"/><path fill="#252728" d="M52.1 54.3h-2.8a1.3 1.3 0 0 0-1.3 1.3v1.3a1.3 1.3 0 0 0 1.3 1.3h4.8v-4Z" data-name="Path 808"/><path fill="#252728" d="M57 72.9c0 3-.3 5.4-3 5.8h-2.4A5.8 5.8 0 1 1 57 73" data-name="Path 809"/><path fill="#2f3030" d="M59.3 72.9A5.4 5.4 0 1 1 54 67a5.6 5.6 0 0 1 5.4 5.8" data-name="Path 810"/><path fill="#505354" d="M56.7 72.9a3 3 0 0 1-2.6 3.2h-.2a2.3 2.3 0 0 1-1-.3 3.5 3.5 0 0 1 0-5.8 2.3 2.3 0 0 1 1-.3 2.3 2.3 0 0 1 .2 0 3 3 0 0 1 2.6 3.2" data-name="Path 811"/><path fill="#3b3e3f" d="M55.1 73a4.5 4.5 0 0 1-1.2 3 2.3 2.3 0 0 1-1-.2 2.7 2.7 0 0 1-.7-.6 3.7 3.7 0 0 1 0-4.6 2.7 2.7 0 0 1 .7-.6 2.3 2.3 0 0 1 1-.3 4.5 4.5 0 0 1 1.2 3.2" data-name="Path 812"/><path fill="#252728" d="M53.5 72.9a2.2 2.2 0 0 1-1.3 2.3 3.7 3.7 0 0 1 0-4.6 2.2 2.2 0 0 1 1.3 2.3" data-name="Path 813"/><path fill="#252728" d="M54 76.2H54a2.4 2.4 0 0 1-1-.3 3.7 3.7 0 0 1 0-6 2.4 2.4 0 0 1 1.2-.3 3.4 3.4 0 0 1 0 6.6m0-6.4a2.1 2.1 0 0 0-.2 0 2.2 2.2 0 0 0-1 .3 3.4 3.4 0 0 0 0 5.5 2.1 2.1 0 0 0 1 .3h.2a3.1 3.1 0 0 0 0-6" data-name="Path 814"/><path fill="#252728" d="M95.8 72.9c0 3-.3 5.4-3 5.8h-2.4a5.8 5.8 0 1 1 5.4-5.8" data-name="Path 815"/><path fill="#2f3030" d="M98 72.9a5.4 5.4 0 1 1-5.4-5.8 5.6 5.6 0 0 1 5.5 5.8" data-name="Path 816"/><path fill="#505354" d="M95.5 72.9a3 3 0 0 1-2.7 3.2h-.1a2.3 2.3 0 0 1-1-.3 3.5 3.5 0 0 1 0-5.8 2.3 2.3 0 0 1 .9-.3 2.3 2.3 0 0 1 .2 0 3 3 0 0 1 2.7 3.2" data-name="Path 817"/><path fill="#3b3e3f" d="M93.9 73a4.5 4.5 0 0 1-1.2 3 2.3 2.3 0 0 1-1-.2 2.7 2.7 0 0 1-.7-.6 3.7 3.7 0 0 1 0-4.6 2.7 2.7 0 0 1 .7-.6 2.3 2.3 0 0 1 1-.3 4.5 4.5 0 0 1 1.2 3.2" data-name="Path 818"/><path fill="#252728" d="M92.3 72.9a2.2 2.2 0 0 1-1.3 2.3 3.7 3.7 0 0 1 0-4.6 2.2 2.2 0 0 1 1.3 2.3" data-name="Path 819"/><path fill="#252728" d="M92.8 76.2h-.2a2.4 2.4 0 0 1-1-.3 3.7 3.7 0 0 1 0-6 2.4 2.4 0 0 1 1.2-.3 3.4 3.4 0 0 1 0 6.6m0-6.4a2.1 2.1 0 0 0-1 .3 3.4 3.4 0 0 0 0 5.5 2.1 2.1 0 0 0 .9.3h.1a3.1 3.1 0 0 0 0-6" data-name="Path 820"/><path fill="#252728" d="M55 69.4h57.3A1.6 1.6 0 0 1 114 71a1.6 1.6 0 0 1-1.6 1.6H55a1.6 1.6 0 0 1-1.6-1.6 1.6 1.6 0 0 1 1.6-1.6Z" data-name="Rectangle 712"/><path fill="#2f3030" d="M80.8 18.5h2.9V50h-3z" data-name="Rectangle 713"/></g></g><g data-name="Group 1502"><g clip-path="url(#f)" data-name="Group 1501" transform="translate(51.08 16.941)"><path fill="url(#b)" d="M0 0h14v43.9H0z" data-name="Rectangle 715" transform="translate(-0.067 0)"/></g></g><g data-name="Group 1504"><g clip-path="url(#d)" data-name="Group 1503"><path fill="#2f3030" d="M54.4 60.8a1.4 1.4 0 0 0 1.3-1.2c0-.1 1-10.4 3-20.5 3.5-18.9 6.6-19.4 6.9-19.4h22.8a1.4 1.4 0 0 0 0-2.8H65.6c-2.3 0-4.3 2.4-6 7.4A96.7 96.7 0 0 0 56 38.6a285 285 0 0 0-3 20.7 1.4 1.4 0 0 0 1.2 1.5 1.3 1.3 0 0 0 .2 0" data-name="Path 822"/></g></g><g data-name="Group 1506"><g clip-path="url(#g)" data-name="Group 1505" transform="translate(69.578 46.833)"><path fill="url(#a)" d="M0 0h40.1v19H0z" data-name="Rectangle 717" transform="translate(-0.732)"/></g></g><g data-name="Group 1508"><g fill="#252728" clip-path="url(#d)" data-name="Group 1507"><path d="M84 46.1H93v3H84z" data-name="Rectangle 718"/><path d="M92.5 32.4a.9.9 0 0 1 .9 1l-.8 7.1a1 1 0 0 1-1 1 1.4 1.4 0 0 1-1.1-1l-.8-2.2a2.8 2.8 0 0 1 0-1.8l1.5-3.2a1.6 1.6 0 0 1 1.3-.9" data-name="Path 824"/></g></g><g data-name="Group 1510"><g clip-path="url(#h)" data-name="Group 1509" transform="translate(91.509 32.431)"><path fill="url(#i)" d="M0 0h8.3v9.1H0z" data-name="Rectangle 720" transform="translate(-0.034 0)"/></g></g><g data-name="Group 1512"><g clip-path="url(#j)" data-name="Group 1511" transform="translate(83.165 42.143) translate(0 0)"><path fill="url(#k)" d="M0 0h15.4v4.6H0z" data-name="Rectangle 721" transform="translate(0 0)"/></g></g><g data-name="Group 1517"><g clip-path="url(#d)" data-name="Group 1516"><path fill="#484949" d="M83.8 48.2h6.5a6.4 6.4 0 0 1 6.4 6.4 6.4 6.4 0 0 1-6.4 6.4h-6.5a6.4 6.4 0 0 1-6.4-6.4 6.4 6.4 0 0 1 6.4-6.4Z" data-name="Rectangle 722"/><g data-name="Group 1515" opacity=".4"><g data-name="Group 1514"><g clip-path="url(#l)" data-name="Group 1513" transform="translate(77.116 51.477)"><path fill="#21211f" d="m0 0 1.3 6.5 12.7.8L12 0Z" data-name="Path 827"/></g></g></g><path fill="#252728" d="M92.6 46.1h6v3h-6z" data-name="Rectangle 724"/><path fill="#252728" d="M95.4 48.2h4.4a6.4 6.4 0 0 1 6.4 6.4 6.4 6.4 0 0 1-6.4 6.4h-4.4a6.4 6.4 0 0 1-6.4-6.4 6.4 6.4 0 0 1 6.4-6.4Z" data-name="Rectangle 725"/><path fill="#252728" d="M99.4 45.6c0 .6-.5 1.4-1 1.4H91c-.6 0-1-.8-1-1.4v-.3a1.4 1.4 0 0 1 1-1.4l7.2-1.5a.8.8 0 0 1 1 .8Z" data-name="Path 828"/><path fill="#252728" d="M99.4 32.4a.9.9 0 0 1 .8 1l-.7 7.1a1 1 0 0 1-1 1 1.4 1.4 0 0 1-1.1-1l-.9-2.2a2.8 2.8 0 0 1 0-1.8l1.5-3.2a1.6 1.6 0 0 1 1.4-.9" data-name="Path 829"/><path fill="#21211f" d="m82.6 55.3-2-.5a.4.4 0 0 0-.2.7l.4.2-.7 2.2a.4.4 0 0 0 .3.5.4.4 0 0 0 .1 0 .4.4 0 0 0 .4-.3l.7-2.2.8.2a.4.4 0 0 0 .1 0 .4.4 0 0 0 .1-.8" data-name="Path 830"/><path fill="#484949" d="M75.6 56.4a.6.6 0 0 0 .7-.5l2.2-15.4a.5.5 0 0 0-.4-.5H67.7a1.3 1.3 0 0 0-.8.4l-3.2 4a2.3 2.3 0 0 0-.4 1l-1 9.7a.5.5 0 0 0 .5.6Z" data-name="Path 831"/><path fill="#252728" d="M82.4 39.9a6.4 6.4 0 0 1-3-.8 4.6 4.6 0 0 1-2-2 2 2 0 0 1 0-2 3 3 0 0 1 2.7-1 6.4 6.4 0 0 1 3 .8 4.6 4.6 0 0 1 2 2 2 2 0 0 1 0 1.9 3 3 0 0 1-2.7 1m-2.3-5a2.3 2.3 0 0 0-2 .8 1.3 1.3 0 0 0 0 1.2 5 5 0 0 0 4.3 2.4 2.3 2.3 0 0 0 2-.8 1.3 1.3 0 0 0 0-1.3 5 5 0 0 0-4.3-2.3" data-name="Path 832"/><path fill="#252728" d="M76.3 56.3a.6.6 0 0 0 .7-.4l4.5-12.1a1 1 0 0 0-.1-1l-1.9-2.4a.4.4 0 0 0-.7 0l-3 4a2.3 2.3 0 0 0-.5 1l-1 9.7a.7.7 0 0 0 .4.7Z" data-name="Path 833"/><path fill="#252728" d="M53.5 51.5h22.6v8.1H53.5z" data-name="Rectangle 726"/><path fill="#2f3030" d="M54 59.6h3.7l1.8-8h-3.7Z" data-name="Path 834"/><path fill="#2f3030" d="M66.1 59.5h3.7l1.8-8H68Z" data-name="Path 835"/><path fill="#2f3030" d="M95.3 63.2a1.2 1.2 0 0 1-1 .8H75.4a.7.7 0 0 1-.7-.8l.7-5.6.3-1.6 1.2-5.2c0-.4.4-.5.6 0L81 56a1.7 1.7 0 0 0 1.3.7h14.3a.6.6 0 0 1 .6.7Z" data-name="Path 836"/></g></g><g data-name="Group 1519"><g clip-path="url(#m)" data-name="Group 1518" transform="translate(102.426 18.467) translate(0 0)"><path fill="url(#n)" d="M0 0h2.9v31.5H0z" data-name="Rectangle 728"/></g></g><g data-name="Group 1521"><g clip-path="url(#d)" data-name="Group 1520"><path fill="#2f3030" d="M103.2 18.3h2.1v30h-2z" data-name="Rectangle 730"/></g></g><g data-name="Group 1523"><g clip-path="url(#o)" data-name="Group 1522" transform="translate(71.884 46.833)"><path fill="url(#p)" d="M0 0h39.7v23.3H0z" data-name="Rectangle 732" transform="translate(0 0)"/></g></g><g data-name="Group 1525"><g clip-path="url(#q)" data-name="Group 1524" transform="translate(51.933 58.981)"><path fill="url(#r)" d="M0 0h55.6v12.6H0z" data-name="Rectangle 733" transform="translate(0 0)"/></g></g><g data-name="Group 1527"><g clip-path="url(#d)" data-name="Group 1526"><path fill="#f99a1d" d="M106.1 25.2h2.3c.2 0 .4-.3.4-.7V21c0-.3-.2-.6-.4-.6H106Z" data-name="Path 839"/><path fill="#bc291b" d="M105.6 25.2h1a.7.7 0 0 0 .9-.7V21a.7.7 0 0 0-.8-.6h-1Z" data-name="Path 840"/><path fill="#252728" d="M105.8 20.4h-1c-.3 0-.5.3-.5.7v3.4c0 .4.2.7.5.7h1Z" data-name="Path 841"/><path fill="#f99a1d" d="M112 67h1.5c.2 0 .3-.2.3-.5V64c0-.2-.1-.4-.3-.4H112Z" data-name="Path 842"/><path fill="#bc291b" d="M111.6 67h.7a.5.5 0 0 0 .6-.5V64a.5.5 0 0 0-.6-.4h-.7Z" data-name="Path 843"/></g></g><g data-name="Group 1529"><g clip-path="url(#s)" data-name="Group 1528" transform="translate(72.769 16.941)"><path fill="url(#t)" d="M0 0h13.9v42H0z" data-name="Rectangle 735" transform="translate(0 0)"/></g></g><g data-name="Group 1531"><g clip-path="url(#d)" data-name="Group 1530"><path fill="#2f3030" d="M105.2 17h-18c-2.3 0-4.2 2.3-6 7.3a96.7 96.7 0 0 0-3.6 14.3C76 47.8 75 57.1 74.6 59h2.8c.3-2.4 1.3-11.2 2.9-19.9 3.5-18.9 6.6-19.4 7-19.4h17.9a1.4 1.4 0 0 0 0-2.8" data-name="Path 845"/></g></g><g data-name="Group 1533"><g clip-path="url(#u)" data-name="Group 1532" transform="translate(61.269 13.005) translate(0 0)"><path fill="url(#v)" d="M0 0h4.5v62H0z" data-name="Rectangle 737" transform="translate(0)"/></g></g><g data-name="Group 1535"><g clip-path="url(#d)" data-name="Group 1534"><path fill="#252728" d="M63.7 13h4.5v62h-4.5z" data-name="Rectangle 739"/></g></g><g data-name="Group 1537"><g clip-path="url(#u)" data-name="Group 1536" transform="translate(49.004 13.005) translate(0 0)"><path fill="url(#w)" d="M0 0h4.5v62H0z" data-name="Rectangle 741" transform="translate(0 0)"/></g></g><g data-name="Group 1539"><g clip-path="url(#d)" data-name="Group 1538"><path fill="#252728" d="M51.4 13h4.5v62h-4.5z" data-name="Rectangle 743"/><path fill="#2f3030" d="M51.4 13h5.4v2.8h-5.4z" data-name="Rectangle 744"/><path fill="#f99a1d" d="M48.1 22.7H45c-.4 0-.6-.5-.6-1v-5c0-.5.2-.9.6-.9H48Z" data-name="Path 846"/><path fill="#bc291b" d="M48.8 22.7h-1.4a1 1 0 0 1-1.2-1v-5a1 1 0 0 1 1.2-.9h1.4Z" data-name="Path 847"/><path fill="#252728" d="M48.6 15.8h1.5c.4 0 .6.5.6 1v4.9c0 .5-.3 1-.6 1h-1.5Z" data-name="Path 848"/><path fill="#f99a1d" d="M63.2 22.7H60c-.3 0-.6-.5-.6-1v-5c0-.5.3-.9.6-.9h3.2Z" data-name="Path 849"/><path fill="#bc291b" d="M63.9 22.7h-1.5a1 1 0 0 1-1.1-1v-5a1 1 0 0 1 1.1-.9H64Z" data-name="Path 850"/><path fill="#252728" d="M63.7 15.8H65c.4 0 .7.5.7 1v4.9c0 .5-.3 1-.7 1h-1.4Z" data-name="Path 851"/><path fill="#252728" d="M43 65h26.2a1.4 1.4 0 1 0 0-2.6H43a1.4 1.4 0 1 0 0 2.7" data-name="Path 852"/></g></g><g data-name="Group 1541"><g clip-path="url(#x)" data-name="Group 1540" transform="translate(44.805 59.227)"><path fill="url(#y)" d="M0 0h3.3v17.2H0z" data-name="Rectangle 746" transform="translate(0)"/></g></g><g data-name="Group 1543"><g clip-path="url(#z)" data-name="Group 1542" transform="translate(48.051 59.227)"><path fill="url(#A)" d="M0 0h4.7v17.2H0z" data-name="Rectangle 748" transform="translate(0 0)"/></g></g><g data-name="Group 1545"><g clip-path="url(#x)" data-name="Group 1544" transform="translate(58.062 59.227)"><path fill="url(#B)" d="M0 0h3.3v17.2H0z" data-name="Rectangle 749" transform="translate(0 0)"/></g></g><g data-name="Group 1547"><g clip-path="url(#C)" data-name="Group 1546" transform="translate(34.109 74.295)"><path fill="url(#D)" d="M0 0h27.2v2.1H0z" data-name="Rectangle 751"/></g></g><g data-name="Group 1549"><g clip-path="url(#E)" data-name="Group 1548" transform="translate(19.834 74.295)"><path fill="url(#F)" d="M0 0h28.2v2.1H0z" data-name="Rectangle 753"/></g></g><g data-name="Group 1551"><g clip-path="url(#G)" data-name="Group 1550" transform="translate(36.358 59.227)"><path fill="url(#H)" d="M0 0h30.5v17.2H0z" data-name="Rectangle 754" transform="translate(0 0)"/></g></g><g data-name="Group 1655"><g clip-path="url(#d)" data-name="Group 1654"><path fill="#252728" d="M76.3 73.2c0 3.1-.2 5.7-3 6h-2.6a6 6 0 1 1 5.6-6" data-name="Path 856"/><path fill="#3f3f3f" d="M78.7 73.2a5.7 5.7 0 1 1-5.6-6 5.9 5.9 0 0 1 5.6 6" data-name="Path 857"/><path fill="#acada6" d="M76 73.2a3.1 3.1 0 0 1-2.7 3.4H73a2.4 2.4 0 0 1-1-.4 3.7 3.7 0 0 1 0-6 2.4 2.4 0 0 1 1-.3 2.4 2.4 0 0 1 .2 0 3.1 3.1 0 0 1 2.7 3.3" data-name="Path 858"/><path fill="#5a5b5b" d="M74.4 73.2a4.7 4.7 0 0 1-1.3 3.3 2.4 2.4 0 0 1-1-.3 2.9 2.9 0 0 1-.8-.6 3.8 3.8 0 0 1 0-4.8 2.8 2.8 0 0 1 .7-.6 2.4 2.4 0 0 1 1-.3 4.7 4.7 0 0 1 1.4 3.3" data-name="Path 859"/><path fill="#252728" d="M72.7 73.2a2.3 2.3 0 0 1-1.4 2.4 3.8 3.8 0 0 1 0-4.8 2.3 2.3 0 0 1 1.4 2.4" data-name="Path 860"/><path fill="#c3c4bf" d="M73.3 76.7H73a2.6 2.6 0 0 1-1.2-.3 3.9 3.9 0 0 1 0-6.3 2.6 2.6 0 0 1 1.1-.4 2.5 2.5 0 0 1 .3 0 3.6 3.6 0 0 1 0 7m0-6.6H73a2.2 2.2 0 0 0-.9.3 3.5 3.5 0 0 0 0 5.6 2.2 2.2 0 0 0 1 .4h.2a3.2 3.2 0 0 0 0-6.3" data-name="Path 861"/><path fill="#252728" d="M110.7 72.9c0 3.1-.3 5.7-3.1 6H105a6 6 0 1 1 5.7-6" data-name="Path 862"/><path fill="#3f3f3f" d="M113 72.9a5.7 5.7 0 1 1-5.6-6 5.9 5.9 0 0 1 5.6 6" data-name="Path 863"/><path fill="#acada6" d="M110.4 72.9a3.1 3.1 0 0 1-2.8 3.3h-.2a2.4 2.4 0 0 1-1-.3 3.7 3.7 0 0 1 0-6 2.4 2.4 0 0 1 1-.3 2.4 2.4 0 0 1 .2 0 3.1 3.1 0 0 1 2.8 3.3" data-name="Path 864"/><path fill="#5a5b5b" d="M108.7 73a4.7 4.7 0 0 1-1.3 3.2 2.4 2.4 0 0 1-1-.3 2.9 2.9 0 0 1-.8-.6 3.8 3.8 0 0 1 0-4.8 2.9 2.9 0 0 1 .8-.6 2.4 2.4 0 0 1 1-.3 4.7 4.7 0 0 1 1.3 3.3" data-name="Path 865"/><path fill="#252728" d="M107 72.9a2.3 2.3 0 0 1-1.4 2.4 3.8 3.8 0 0 1 0-4.8A2.3 2.3 0 0 1 107 73" data-name="Path 866"/><path fill="#c3c4bf" d="M107.6 76.4h-.2a2.6 2.6 0 0 1-1.1-.3 3.9 3.9 0 0 1 0-6.4 2.6 2.6 0 0 1 1-.3 2.5 2.5 0 0 1 .3 0 3.6 3.6 0 0 1 0 7m0-6.7h-.2a2.2 2.2 0 0 0-1 .4 3.5 3.5 0 0 0 0 5.6 2.2 2.2 0 0 0 1 .3h.2a3.2 3.2 0 0 0 0-6.3" data-name="Path 867"/><path fill="#aa8c77" d="M14.7 63h27v11.3h-27z" data-name="Rectangle 755"/><path fill="#67564c" d="M25.8 63h15.9v11.3h-16z" data-name="Rectangle 756"/><path fill="#d8d8d8" d="m16.3 65.4 4.4-.8.3 1.7-4.4.8z" data-name="Rectangle 757"/><g data-name="Group 1554" opacity=".5" style="mix-blend-mode:multiply;isolation:isolate"><g data-name="Group 1553"><g clip-path="url(#I)" data-name="Group 1552" transform="translate(36.397 64.127)"><path fill="#67564c" d="M0 .8 4.4 0l.3 1.7-4.4.8z" data-name="Rectangle 758"/></g></g></g><g data-name="Group 1557" opacity=".5" style="mix-blend-mode:multiply;isolation:isolate"><g data-name="Group 1556"><g clip-path="url(#J)" data-name="Group 1555" transform="translate(32.102 68.647) translate(0)"><path fill="#67564c" d="m0 1.1.5-1 3 1.4-.4 1z" data-name="Rectangle 760"/></g></g></g><g data-name="Group 1560" opacity=".5" style="mix-blend-mode:multiply;isolation:isolate"><g data-name="Group 1559"><g clip-path="url(#K)" data-name="Group 1558" transform="translate(14.655 73.706)"><path fill="#67564c" d="M0 0h27v.6H0z" data-name="Rectangle 762"/></g></g></g><path fill="#aa8c77" d="M28.7 63h27v11.3h-27z" data-name="Rectangle 764"/><path fill="#67564c" d="M39.8 63h16v11.3h-16z" data-name="Rectangle 765"/><path fill="#d8d8d8" d="m30.3 65.4 4.4-.8.4 1.7-4.5.8z" data-name="Rectangle 766"/><g data-name="Group 1563" opacity=".5" style="mix-blend-mode:multiply;isolation:isolate"><g data-name="Group 1562"><g clip-path="url(#I)" data-name="Group 1561" transform="translate(50.438 64.127)"><path fill="#67564c" d="M0 .8 4.4 0l.3 1.7-4.4.8z" data-name="Rectangle 767"/></g></g></g><g data-name="Group 1566" opacity=".5" style="mix-blend-mode:multiply;isolation:isolate"><g data-name="Group 1565"><g clip-path="url(#J)" data-name="Group 1564" transform="translate(46.144 68.647)"><path fill="#67564c" d="m0 1.1.5-1 3 1.4-.4 1z" data-name="Rectangle 769"/></g></g></g><g data-name="Group 1569" opacity=".5" style="mix-blend-mode:multiply;isolation:isolate"><g data-name="Group 1568"><g clip-path="url(#L)" data-name="Group 1567" transform="translate(28.696 73.706)"><path fill="#67564c" d="M0 0h27v.6H0z" data-name="Rectangle 771"/></g></g></g><path fill="#aa8c77" d="M42.7 63h27v11.3h-27z" data-name="Rectangle 773"/><path fill="#67564c" d="M53.9 63h15.9v11.3h-16z" data-name="Rectangle 774"/><path fill="#d8d8d8" d="m44.4 65.4 4.4-.8.3 1.7-4.4.8z" data-name="Rectangle 775"/><g data-name="Group 1572" opacity=".5" style="mix-blend-mode:multiply;isolation:isolate"><g data-name="Group 1571"><g clip-path="url(#I)" data-name="Group 1570" transform="translate(64.48 64.127)"><path fill="#67564c" d="M0 .8 4.4 0l.3 1.7-4.4.8z" data-name="Rectangle 776"/></g></g></g><g data-name="Group 1575" opacity=".5" style="mix-blend-mode:multiply;isolation:isolate"><g data-name="Group 1574"><g clip-path="url(#J)" data-name="Group 1573" transform="translate(60.185 68.647)"><path fill="#67564c" d="m0 1.1.5-1 3 1.4-.4 1z" data-name="Rectangle 778"/></g></g></g><g data-name="Group 1578" opacity=".5" style="mix-blend-mode:multiply;isolation:isolate"><g data-name="Group 1577"><g clip-path="url(#L)" data-name="Group 1576" transform="translate(42.737 73.706)"><path fill="#67564c" d="M0 0h27v.6H0z" data-name="Rectangle 780"/></g></g></g><path fill="#aa8c77" d="M14.7 51.7h27V63h-27z" data-name="Rectangle 782"/><path fill="#67564c" d="M25.8 51.7h15.9V63h-16z" data-name="Rectangle 783"/><path fill="#d8d8d8" d="m16.3 54.1 4.4-.8.3 1.7-4.4.8z" data-name="Rectangle 784"/><g data-name="Group 1581" opacity=".5" style="mix-blend-mode:multiply;isolation:isolate"><g data-name="Group 1580"><g clip-path="url(#I)" data-name="Group 1579" transform="translate(36.397 52.82)"><path fill="#67564c" d="M0 .8 4.4 0l.3 1.7-4.4.8z" data-name="Rectangle 785"/></g></g></g><g data-name="Group 1584" opacity=".5" style="mix-blend-mode:multiply;isolation:isolate"><g data-name="Group 1583"><g clip-path="url(#J)" data-name="Group 1582" transform="translate(32.102 57.34) translate(0)"><path fill="#67564c" d="m0 1.1.5-1 3 1.4-.4 1z" data-name="Rectangle 787"/></g></g></g><g data-name="Group 1587" opacity=".5" style="mix-blend-mode:multiply;isolation:isolate"><g data-name="Group 1586"><g clip-path="url(#M)" data-name="Group 1585" transform="translate(14.655 62.399)"><path fill="#67564c" d="M0 0h27v.6H0z" data-name="Rectangle 789"/></g></g></g><path fill="#aa8c77" d="M28.7 51.7h27V63h-27z" data-name="Rectangle 791"/><path fill="#67564c" d="M39.8 51.7h16V63h-16z" data-name="Rectangle 792"/><path fill="#d8d8d8" d="m30.3 54.1 4.4-.8.4 1.7-4.5.8z" data-name="Rectangle 793"/><g data-name="Group 1590" opacity=".5" style="mix-blend-mode:multiply;isolation:isolate"><g data-name="Group 1589"><g clip-path="url(#I)" data-name="Group 1588" transform="translate(50.438 52.82)"><path fill="#67564c" d="M0 .8 4.4 0l.3 1.7-4.4.8z" data-name="Rectangle 794"/></g></g></g><g data-name="Group 1593" opacity=".5" style="mix-blend-mode:multiply;isolation:isolate"><g data-name="Group 1592"><g clip-path="url(#J)" data-name="Group 1591" transform="translate(46.144 57.34)"><path fill="#67564c" d="m0 1.1.5-1 3 1.4-.4 1z" data-name="Rectangle 796"/></g></g></g><g data-name="Group 1596" opacity=".5" style="mix-blend-mode:multiply;isolation:isolate"><g data-name="Group 1595"><g clip-path="url(#N)" data-name="Group 1594" transform="translate(28.696 62.399)"><path fill="#67564c" d="M0 0h27v.6H0z" data-name="Rectangle 798"/></g></g></g><path fill="#aa8c77" d="M42.7 51.7h27V63h-27z" data-name="Rectangle 800"/><path fill="#67564c" d="M53.9 51.7h15.9V63h-16z" data-name="Rectangle 801"/><path fill="#d8d8d8" d="m44.4 54.1 4.4-.8.3 1.7-4.4.8z" data-name="Rectangle 802"/><g data-name="Group 1599" opacity=".5" style="mix-blend-mode:multiply;isolation:isolate"><g data-name="Group 1598"><g clip-path="url(#I)" data-name="Group 1597" transform="translate(64.48 52.82)"><path fill="#67564c" d="M0 .8 4.4 0l.3 1.7-4.4.8z" data-name="Rectangle 803"/></g></g></g><g data-name="Group 1602" opacity=".5" style="mix-blend-mode:multiply;isolation:isolate"><g data-name="Group 1601"><g clip-path="url(#J)" data-name="Group 1600" transform="translate(60.185 57.34)"><path fill="#67564c" d="m0 1.1.5-1 3 1.4-.4 1z" data-name="Rectangle 805"/></g></g></g><g data-name="Group 1605" opacity=".5" style="mix-blend-mode:multiply;isolation:isolate"><g data-name="Group 1604"><g clip-path="url(#N)" data-name="Group 1603" transform="translate(42.737 62.399)"><path fill="#67564c" d="M0 0h27v.6H0z" data-name="Rectangle 807"/></g></g></g><path fill="#aa8c77" d="M14.7 40.4h27v11.3h-27z" data-name="Rectangle 809"/><path fill="#67564c" d="M25.8 40.4h15.9v11.3h-16z" data-name="Rectangle 810"/><path fill="#d8d8d8" d="m16.3 42.9 4.4-.8.3 1.6-4.4.9z" data-name="Rectangle 811"/><g data-name="Group 1608" opacity=".5" style="mix-blend-mode:multiply;isolation:isolate"><g data-name="Group 1607"><g clip-path="url(#I)" data-name="Group 1606" transform="translate(36.397 41.566) translate(0 0)"><path fill="#67564c" d="M0 .8 4.4 0l.3 1.7-4.4.8z" data-name="Rectangle 812"/></g></g></g><g data-name="Group 1611" opacity=".5" style="mix-blend-mode:multiply;isolation:isolate"><g data-name="Group 1610"><g clip-path="url(#J)" data-name="Group 1609" transform="translate(32.102 46.086) translate(0)"><path fill="#67564c" d="m0 1.1.5-1 3 1.4-.4 1z" data-name="Rectangle 814"/></g></g></g><g data-name="Group 1614" opacity=".5" style="mix-blend-mode:multiply;isolation:isolate"><g data-name="Group 1613"><g clip-path="url(#M)" data-name="Group 1612" transform="translate(14.655 51.145)"><path fill="#67564c" d="M0 0h27v.6H0z" data-name="Rectangle 816"/></g></g></g><path fill="#aa8c77" d="M28.7 40.4h27v11.3h-27z" data-name="Rectangle 818"/><path fill="#67564c" d="M39.8 40.4h16v11.3h-16z" data-name="Rectangle 819"/><path fill="#d8d8d8" d="m30.3 42.9 4.4-.8.4 1.6-4.5.9z" data-name="Rectangle 820"/><g data-name="Group 1617" opacity=".5" style="mix-blend-mode:multiply;isolation:isolate"><g data-name="Group 1616"><g clip-path="url(#I)" data-name="Group 1615" transform="translate(50.438 41.566) translate(0 0)"><path fill="#67564c" d="M0 .8 4.4 0l.3 1.7-4.4.8z" data-name="Rectangle 821"/></g></g></g><g data-name="Group 1620" opacity=".5" style="mix-blend-mode:multiply;isolation:isolate"><g data-name="Group 1619"><g clip-path="url(#J)" data-name="Group 1618" transform="translate(46.144 46.086)"><path fill="#67564c" d="m0 1.1.5-1 3 1.4-.4 1z" data-name="Rectangle 823"/></g></g></g><g data-name="Group 1623" opacity=".5" style="mix-blend-mode:multiply;isolation:isolate"><g data-name="Group 1622"><g clip-path="url(#N)" data-name="Group 1621" transform="translate(28.696 51.145)"><path fill="#67564c" d="M0 0h27v.6H0z" data-name="Rectangle 825"/></g></g></g><path fill="#aa8c77" d="M42.7 40.4h27v11.3h-27z" data-name="Rectangle 827"/><path fill="#67564c" d="M53.9 40.4h15.9v11.3h-16z" data-name="Rectangle 828"/><path fill="#d8d8d8" d="m44.4 42.9 4.4-.8.3 1.6-4.4.9z" data-name="Rectangle 829"/><g data-name="Group 1626" opacity=".5" style="mix-blend-mode:multiply;isolation:isolate"><g data-name="Group 1625"><g clip-path="url(#I)" data-name="Group 1624" transform="translate(64.48 41.566) translate(0 0)"><path fill="#67564c" d="M0 .8 4.4 0l.3 1.7-4.4.8z" data-name="Rectangle 830"/></g></g></g><g data-name="Group 1629" opacity=".5" style="mix-blend-mode:multiply;isolation:isolate"><g data-name="Group 1628"><g clip-path="url(#J)" data-name="Group 1627" transform="translate(60.185 46.086)"><path fill="#67564c" d="m0 1.1.5-1 3 1.4-.4 1z" data-name="Rectangle 832"/></g></g></g><g data-name="Group 1632" opacity=".5" style="mix-blend-mode:multiply;isolation:isolate"><g data-name="Group 1631"><g clip-path="url(#N)" data-name="Group 1630" transform="translate(42.737 51.145)"><path fill="#67564c" d="M0 0h27v.6H0z" data-name="Rectangle 834"/></g></g></g><g data-name="Group 1644" opacity=".4" style="mix-blend-mode:screen;isolation:isolate"><g data-name="Group 1643"><g clip-path="url(#O)" data-name="Group 1642" transform="translate(18.786 40.344)"><g data-name="Group 1635" opacity=".4" style="mix-blend-mode:color-dodge;isolation:isolate"><g data-name="Group 1634"><g clip-path="url(#P)" data-name="Group 1633" transform="translate(0 0.201)"><path fill="#d8d8d8" d="M0 0h4.6v33.7H0z" data-name="Rectangle 836"/></g></g></g><g data-name="Group 1638" opacity=".4" style="mix-blend-mode:color-dodge;isolation:isolate"><g data-name="Group 1637"><g clip-path="url(#Q)" data-name="Group 1636" transform="translate(25.149)"><path fill="#d8d8d8" d="M0 0h4.4v33.9H0z" data-name="Rectangle 838"/></g></g></g><g data-name="Group 1641" opacity=".4" style="mix-blend-mode:color-dodge;isolation:isolate"><g data-name="Group 1640"><g clip-path="url(#R)" data-name="Group 1639" transform="translate(12.725 0.059)"><path fill="#d8d8d8" d="M0 0h4.4v33.9H0z" data-name="Rectangle 840"/></g></g></g></g></g></g><g data-name="Group 1650" opacity=".7" style="mix-blend-mode:multiply;isolation:isolate"><g data-name="Group 1649"><g clip-path="url(#S)" data-name="Group 1648" transform="translate(58.231 40.27)"><g data-name="Group 1647" opacity=".4" style="mix-blend-mode:color-dodge;isolation:isolate"><g data-name="Group 1646"><g clip-path="url(#S)" data-name="Group 1645"><path fill="#67564c" d="M0 0h7.7v33.9H0z" data-name="Rectangle 843"/></g></g></g></g></g></g><g data-name="Group 1653" opacity=".4" style="mix-blend-mode:multiply;isolation:isolate"><g data-name="Group 1652"><g clip-path="url(#T)" data-name="Group 1651" transform="translate(11.263 78.487)"><path fill="#545454" d="M104.8.8c0 .5-23.4.8-52.4.8S0 1.3 0 .8 23.5 0 52.4 0s52.4.4 52.4.8" data-name="Path 868"/></g></g></g></g></g></g></g></g></g></g></svg>