<svg xmlns="http://www.w3.org/2000/svg" width="23.145" height="28.113" viewBox="0 0 23.145 28.113">
  <path id="Path_1269" data-name="Path 1269" d="M420.256,278.009a.889.889,0,0,1-.56-.975c.011-4.795,0-9.59.015-14.384,0-.262-.068-.336-.388-.333-1.592.015-3.185.008-4.778.006a2.883,2.883,0,0,1-.9-.084c-.317-.1-.417-.3-.3-.571a1.475,1.475,0,0,1,.269-.4q4.084-4.492,8.17-8.983c.582-.637,1.194-1.255,1.808-1.869a1.281,1.281,0,0,1,2.071.023q4.745,4.839,9.486,9.681c.3.31.625.608.923.922.2.211.47.444.33.728-.15.3-.548.249-.863.25q-2.681.011-5.363,0c-.226,0-.309.025-.309.246q.016,7.535.012,15.07c0,.319-.17.511-.526.61-.086.024-.2-.032-.259.067Z" transform="translate(-413.299 -249.897)" fill="#6069ff"/>
</svg>
