<?xml version="1.0" encoding="utf-8"?>
<!-- Generator: Adobe Illustrator 29.1.0, SVG Export Plug-In . SVG Version: 9.03 Build 55587)  -->
<svg version="1.1" id="Layer_1" xmlns="http://www.w3.org/2000/svg" xmlns:xlink="http://www.w3.org/1999/xlink" x="0px" y="0px"
	 viewBox="0 0 576 576" style="enable-background:new 0 0 576 576;" xml:space="preserve">
<polygon style="fill:#414042;" points="617,426.3 -6.8,426.3 -10,403.4 580.9,403.4 "/>
<g>
	
		<radialGradient id="SVGID_1_" cx="233.8563" cy="-63.4382" r="203.8106" gradientTransform="matrix(1.386 0 0 6.825118e-02 11.8704 419.7069)" gradientUnits="userSpaceOnUse">
		<stop  offset="0" style="stop-color:#231F20;stop-opacity:0.7"/>
		<stop  offset="0.9894" style="stop-color:#FFFFFF;stop-opacity:0"/>
	</radialGradient>
	<rect x="-63.2" y="407.5" style="opacity:0.71;fill:url(#SVGID_1_);" width="798.3" height="15.8"/>
</g>
<path style="fill:#EAB854;" d="M504.6,320.8c0,0-1.7,8.4,1.7,9.9c3.4,1.5,9.2,0.7,9.2,0.7S514.2,321.7,504.6,320.8z"/>
<path style="fill:#221F4A;" d="M517.1,398.2h-12.9l-6.2-27.6h19.1c2.5,0,4.6,2,4.6,4.6v18.5C521.6,396.2,519.6,398.2,517.1,398.2z"
	/>
<path style="fill:#D9DFF2;" d="M515.7,365.4h-5.7c-1.9,0-3.4-1.5-3.4-3.4l0,0c0-1.9,1.5-3.4,3.4-3.4h5.7V365.4z"/>
<g style="opacity:0.62;">
	<g>
		<path style="fill:none;stroke:#A29DC6;stroke-width:3;stroke-linecap:round;stroke-linejoin:round;" d="M340.8,180.3
			c1-1.4,1.9-2.7,2.9-4.1"/>
		
			<path style="fill:none;stroke:#A29DC6;stroke-width:3;stroke-linecap:round;stroke-linejoin:round;stroke-dasharray:10.7708,21.5417;" d="
			M357.7,159.9c4.8-4.3,10.3-7.7,16.9-9.2c13.4-3.1,28.2,0.8,38.4,10.1c6.3,5.7,10.7,13.4,12.7,21.7"/>
		<path style="fill:none;stroke:#A29DC6;stroke-width:3;stroke-linecap:round;stroke-linejoin:round;" d="M427,193.2
			c0,1.7-0.1,3.3-0.4,5"/>
	</g>
</g>
<path style="opacity:0.62;fill:none;stroke:#A29DC6;stroke-width:3;stroke-linecap:round;stroke-linejoin:round;stroke-miterlimit:10;stroke-dasharray:10,20;" d="
	M321.2,179.6c-23-6.3-49.7,4.4-61.9,24.9c-12.3,20.5-9.1,49,7.4,66.3"/>
<path style="opacity:0.62;fill:#A29DC6;" d="M458.9,177.5c-3-3.5-8.3-4.3-12.5-2c-2.1,1.1-3.6,2.8-4.5,4.7c-0.2,0.5-0.4,0.9-0.5,1.4
	l-2.7,9.3c-0.4,1.5,0.6,2.9,2.1,3l6.9,0.3c0.7,0,1.9,0.1,3,0.1c2.1,0,4.2-0.5,6-1.7c0,0,0,0,0,0
	C461.8,189.1,462.9,182.1,458.9,177.5z M448.2,187.5c-2.4-2.1-1.6-6,1.5-7.2c1.5-0.6,3.3-0.4,4.5,0.7c2.4,2.1,1.6,6-1.5,7.2
	C451.2,188.9,449.4,188.6,448.2,187.5z"/>
<ellipse transform="matrix(0.7071 -0.7071 0.7071 0.7071 -59.7871 318.1396)" style="fill:#A29DC6;" cx="354.1" cy="231.2" rx="76" ry="76"/>
<g>
	<g>
		<path style="fill:#F5F5F5;" d="M352.4,155c-13,1.3-25.3,6.1-35.1,14.8c-8.1,7.1-14.3,16.4-18.5,26.3c-6.3,15-7.3,31.8-4.8,47.7
			c2.4,15.2,8,30.1,17.8,42c9.2,11.1,22.4,19.2,36.9,21c1.8,0.2,3.7,0.3,5.5,0.4c0.8,0,0.8-1.2,0-1.2c-14.4-0.1-28.1-7-38.1-17.2
			c-10.5-10.8-16.8-25-19.9-39.6c-3.3-15.4-3.3-31.8,1.6-46.9c3.4-10.5,9.2-20.5,17-28.4c8.7-8.8,19.8-14.6,31.9-16.8
			c1.9-0.3,3.8-0.6,5.7-0.8C353.2,156.2,353.2,155,352.4,155L352.4,155z"/>
	</g>
</g>
<g>
	<g>
		<path style="fill:#F5F5F5;" d="M352.1,155.1c-9.4,5.4-16.9,14.2-22.6,23.3c-2.9,4.5-5.4,9.3-7.1,14.4c-2.1,5.9-3.3,12.2-4.1,18.4
			c-1.6,13.2-1.2,26.9,0,40.1c0.6,6.5,1.6,13,3.2,19.4c1.5,5.7,3.3,11.5,6.5,16.6c6.1,9.9,16.2,16.3,26.9,20.5
			c0.7,0.3,1.1-0.9,0.3-1.2c-9.4-3.7-18.5-9.2-24.5-17.5c-3.4-4.6-5.4-9.9-7.1-15.4c-1.8-6.2-3-12.5-3.7-18.9
			c-1.5-12.7-1.9-25.7-0.9-38.4c0.9-11.8,3.5-23.4,9.4-33.8c3.1-5.4,6.7-10.6,10.9-15.2c3.9-4.3,8.3-8.3,13.4-11.2
			C353.4,155.8,352.8,154.7,352.1,155.1L352.1,155.1z"/>
	</g>
</g>
<g>
	<g>
		<path style="fill:#F5F5F5;" d="M355.6,306.6c-1.9-19.4-3.1-38.9-3.6-58.4c-0.6-19.9-0.6-39.9-0.2-59.9c0.2-10.9,0.6-21.7,1.2-32.6
			c0-0.8-1.2-0.8-1.2,0c-0.9,19.5-1.5,39-1.5,58.6c0,20,0.4,39.9,1.6,59.8c0.6,10.9,1.4,21.7,2.5,32.5
			C354.4,307.4,355.7,307.4,355.6,306.6L355.6,306.6z"/>
	</g>
</g>
<g>
	<g>
		<path style="fill:#F5F5F5;" d="M355.4,307.7c19.7-15.5,34.9-37.5,38.5-62.7c1.7-12.2,0.8-25-1.7-37.1
			c-2.2-10.9-6.2-21.5-12.4-30.7c-6.6-9.8-15.7-17.5-26.7-22.1c-0.7-0.3-1.1,0.9-0.3,1.2c9.7,4.1,18,10.7,24.2,19.2
			c6.4,8.7,10.6,18.8,13.1,29.3c2.8,11.6,4,24,2.9,35.9c-1.1,12.3-5.1,24.3-11.3,35c-6.9,12.1-16.4,22.6-27.3,31.1
			C353.9,307.3,354.8,308.2,355.4,307.7L355.4,307.7z"/>
	</g>
</g>
<g>
	<g>
		<path style="fill:#F5F5F5;" d="M353,156.3c5.8,0,11.5,1.5,16.9,3.6c6.2,2.4,12,5.6,17.4,9.4c5.1,3.6,9.9,7.7,13.9,12.6
			c4.3,5.3,7.3,11.6,9.4,18c4.7,14.5,4.9,30.2,2.4,45.2c-2.4,14.5-7.8,29.6-17.7,40.8c-9,10.1-22.1,17.4-35.4,20
			c-1.6,0.3-3.2,0.6-4.9,0.7c-0.8,0.1-0.8,1.3,0,1.2c13.7-1.4,27.2-8,37.3-17.3c11.1-10.1,17.5-24.8,20.7-39.2
			c3.4-15.1,4-31.3,0.3-46.4c-1.7-7.1-4.4-14.2-8.5-20.3c-3.4-5.1-8-9.5-12.8-13.3c-5.3-4.2-11.1-7.8-17.2-10.6
			c-5.6-2.6-11.6-4.7-17.8-5.4c-1.3-0.2-2.7-0.2-4.1-0.2C352.2,155,352.2,156.3,353,156.3L353,156.3z"/>
	</g>
</g>
<g>
	<g>
		<path style="fill:#F5F5F5;" d="M278.2,234.9c19.7,0,39.4,0,59.1,0c19.9,0,39.8,0,59.8,0c11,0,22.1,0,33.1,0c0.8,0,0.8-1.2,0-1.2
			c-19.7,0-39.4,0-59.1,0c-19.9,0-39.8,0-59.8,0c-11,0-22.1,0-33.1,0C277.4,233.7,277.4,234.9,278.2,234.9L278.2,234.9z"/>
	</g>
</g>
<g>
	<g>
		<path style="fill:#F5F5F5;" d="M289.4,192.1c4.2,0,8.5,0,12.7,0c10.2,0,20.4,0,30.6,0c12.3,0,24.6,0,37,0c10.6,0,21.3,0,31.9,0
			c3.5,0,7,0,10.5,0c1.7,0,3.4,0.1,5,0c0.1,0,0.1,0,0.2,0c0.8,0,0.8-1.2,0-1.2c-4.2,0-8.5,0-12.7,0c-10.2,0-20.4,0-30.6,0
			c-12.3,0-24.6,0-37,0c-10.6,0-21.3,0-31.9,0c-3.5,0-7,0-10.5,0c-1.7,0-3.4-0.1-5,0c-0.1,0-0.1,0-0.2,0
			C288.6,190.8,288.6,192.1,289.4,192.1L289.4,192.1z"/>
	</g>
</g>
<g>
	<g>
		<path style="fill:#F5F5F5;" d="M295.7,277.8c30.4,0,60.7,0,91.1,0c8.6,0,17.1,0,25.7,0c0.8,0,0.8-1.2,0-1.2c-30.4,0-60.7,0-91.1,0
			c-8.6,0-17.1,0-25.7,0C294.9,276.6,294.9,277.8,295.7,277.8L295.7,277.8z"/>
	</g>
</g>
<path style="fill:#231F20;" d="M287.4,396.4c0,8.2-3.3,18.5-8.2,23.6c-2.3,2.4-9.2,2.1-14.6,2.1c-12.6,0-22.8-11.5-22.8-25.7
	c0-14.2,10.2-25.7,22.8-25.7c1,0,9-0.1,10,0C285.8,372.2,287.4,383.2,287.4,396.4z"/>
<ellipse style="fill:#414042;" cx="274.6" cy="396.4" rx="22.8" ry="25.7"/>
<ellipse style="fill:#BCBEC0;" cx="274.6" cy="396.4" rx="10" ry="11.5"/>
<rect x="192.8" y="352.8" style="fill:#221F4A;" width="362.2" height="45.5"/>
<path style="fill:#231F20;" d="M539.8,396.7c0,8.2-3.3,18.5-8.2,23.6c-2.3,2.4-9.2,2.1-14.6,2.1c-12.6,0-22.8-11.5-22.8-25.7
	S504.4,371,517,371c1,0,9-0.1,10,0C538.2,372.6,539.8,383.6,539.8,396.7z"/>
<ellipse style="fill:#414042;" cx="527" cy="396.7" rx="22.8" ry="25.7"/>
<ellipse style="fill:#BCBEC0;" cx="527" cy="396.7" rx="10" ry="11.5"/>
<path style="fill:#8075B3;" d="M564.3,329.6c-1.6-5.2-6.3-8.8-11.7-9.4l-32.1-3.6l-17.7-35.8c-0.6-1.2-1.4-2.3-2.4-3.3
	c-3.2-2.9-9.8-2.4-12.2-2.4c-8.2,0-19.9-0.1-19.9,0v15v102.4c0,0,22,0,26.5,0c3.6,0,5.6-9,6.3-12.1c0-0.1,0-0.2,0.1-0.3
	c0,0,0-0.1,0-0.1c2.4-10.6,5.7-12.1,7.5-14.1c3.8-4.2,10.8-5.4,16-5.4c22.2-1.3,26.5,17.7,26.5,17.7l1.9,10.7h12v-15v-40.1
	C564.9,332.4,564.7,331,564.3,329.6z"/>
<rect x="468.2" y="339.9" style="opacity:0.35;fill:#483E75;" width="96.7" height="11.2"/>
<g>
	<g>
		<path style="fill:#221F4A;" d="M468.2,382.1c7.4,0,14.7,0,22.1,0c1,0,2.1,0,3.1,0c0.3,0,0.6-0.3,0.6-0.6
			c-0.2-8.7,3.6-18.6,11.2-23.3c4.1-2.5,8.8-3.5,13.5-3.6c0.3,0,0.6-0.3,0.6-0.6c0-6.9,0-13.7,0-20.6c0-3.5,0-7.1,0-10.6
			c0-0.5,0.1-1-0.1-1.5c-0.2-0.7-0.7-1.3-1-2c-3.7-7.5-7.5-15-11.2-22.4c-1.5-3-3-6-4.5-9c-0.3-0.6-0.6-1.3-1-1.9
			c-1.7-2.8-4.7-4.6-7.8-5.5c-3.5-1-7.3-0.6-10.8-0.6c-4.1,0-8.1,0-12.2,0c-0.3,0-0.6,0-0.8,0c-0.8,0-0.8,1.2,0,1.2
			c6.3,0,12.7,0,19,0c4.9,0,9.9,2.1,12.2,6.7c1.3,2.6,2.6,5.1,3.8,7.7c3.8,7.6,7.7,15.3,11.5,22.9c0.5,1,1,2,1.5,3
			c0.1,0.2,0.2,0.4,0.3,0.6c-0.1-0.2,0-0.4-0.1,0c-0.1,1,0,2.1,0,3.1c0,1.8,0,3.7,0,5.5c0,4.6,0,9.1,0,13.7c0,1.9,0,3.9,0,5.8
			c0,1.1-0.1,2.3,0,3.4c0,0.2,0,0.3,0,0.5c0.2-0.2,0.4-0.4,0.6-0.6c-7.9,0.1-15.5,3-20.3,9.5c-3.2,4.4-4.9,9.8-5.5,15.2
			c-0.1,1.2-0.2,2.3-0.2,3.5c0.2-0.2,0.4-0.4,0.6-0.6c-7.4,0-14.7,0-22.1,0c-1,0-2.1,0-3.1,0C467.4,380.8,467.4,382.1,468.2,382.1
			L468.2,382.1z"/>
	</g>
</g>
<g>
	<path style="fill:#D9DFF2;" d="M470.6,315.4c0.3-8.9,0.7-17.9,1-26.8c0-1.3,0.2-2.7,1.1-3.6c0.8-0.8,2.1-0.9,3.3-0.9
		c3.4,0,6.8,0,10.3,0c2.9,0,5.9,0,8.5,1.5c2.5,1.4,4.3,4,5.8,6.6c5.3,9.5,8.3,16.1,12.3,24.3c1.5,3-0.6,6.5-3.8,6.6
		c-10.5,0.1-23.4,0.9-32.2,0.3c-1.6-0.1-3.3-0.3-4.6-1.4C470.5,320.5,470.5,317.8,470.6,315.4z"/>
</g>
<path style="fill:#483E75;" d="M508.6,307.9l-18,15.4c-5.1,0.1-15.8,0.9-18-1l30.5-25.2L508.6,307.9z"/>
<polygon style="fill:#483E75;" points="500.5,292.2 470.6,317.6 470.8,310.4 497.6,288.1 "/>
<path style="fill:#221F4A;" d="M509.9,323.1v-12.8l3.3,6.8c0.1,0.2,0.1,0.4,0.1,0.5v4.2c0,0.7-0.6,1.2-1.2,1.2H509.9z"/>
<g>
	<g>
		<path style="fill:#221F4A;" d="M501.7,310.3c1.2,1.2,2.3,2.7,3.4,4c1.7,2,3.4,4.1,5.1,6.1c0.4,0.5,0.8,0.9,1.2,1.4
			c0.5,0.6,1.4-0.3,0.9-0.9c-2.8-3.3-5.5-6.7-8.3-10c-0.4-0.5-0.8-1.1-1.3-1.5C502,308.8,501.2,309.7,501.7,310.3L501.7,310.3z"/>
	</g>
</g>
<path style="fill:#221F4A;" d="M497.4,307.9v10.5c0,1.3,0.9,2.3,2.1,2.3h3.6c1.1,0,2.1-1,2.1-2.3V308c0-1.2-0.9-2.3-2-2.3l-3.6-0.2
	C498.4,305.5,497.4,306.5,497.4,307.9z"/>
<rect x="175.3" y="245.7" style="fill:#483E75;" width="76.4" height="149.1"/>
<path style="fill:#554296;" d="M251.6,392.5V245.7h208.1c5.3,0,9.5,4.4,9.5,9.8v137H368.3v-3.4c0-15.1-11.9-27.4-26.5-27.4h-16
	c-10.6,0-16.8,7.3-18.1,18.2l-4.1,12.6H251.6z"/>
<rect x="181.9" y="256.8" style="fill:#8075B3;" width="64.1" height="46.8"/>
<rect x="181.9" y="303.7" style="opacity:0.21;fill:#25004C;" width="64.1" height="82"/>
<polygon style="opacity:0.21;fill:#25004C;" points="246,325.6 181.9,303.7 246,303.7 "/>
<path style="fill:#FFA635;" d="M250.4,378.9c0,0.8-0.6,1.4-1.4,1.4c-0.8,0-1.4-0.6-1.4-1.4c0-0.8,0.6-1.4,1.4-1.4
	C249.8,377.6,250.4,378.2,250.4,378.9z"/>
<path style="fill:#FFA635;" d="M250.4,383c0,0.8-0.6,1.4-1.4,1.4c-0.8,0-1.4-0.6-1.4-1.4c0-0.8,0.6-1.4,1.4-1.4
	C249.8,381.6,250.4,382.2,250.4,383z"/>
<path style="fill:#FFA635;" d="M250.4,387c0,0.8-0.6,1.4-1.4,1.4c-0.8,0-1.4-0.6-1.4-1.4c0-0.8,0.6-1.4,1.4-1.4
	C249.8,385.7,250.4,386.3,250.4,387z"/>
<g>
	<g>
		<path style="fill:#221F4A;" d="M182.5,294.1c21.1,0,42.2,0,63.2,0c0.8,0,0.8-1.2,0-1.2c-21.1,0-42.2,0-63.2,0
			C181.7,292.9,181.7,294.1,182.5,294.1L182.5,294.1z"/>
	</g>
</g>
<g>
	<g>
		<path style="fill:#221F4A;" d="M182.5,283.3c21.1,0,42.2,0,63.2,0c0.8,0,0.8-1.2,0-1.2c-21.1,0-42.2,0-63.2,0
			C181.7,282,181.7,283.3,182.5,283.3L182.5,283.3z"/>
	</g>
</g>
<g>
	<g>
		<path style="fill:#221F4A;" d="M182.5,272.4c21.1,0,42.2,0,63.2,0c0.8,0,0.8-1.2,0-1.2c-21.1,0-42.2,0-63.2,0
			C181.7,271.2,181.7,272.4,182.5,272.4L182.5,272.4z"/>
	</g>
</g>
<g>
	<g>
		<path style="fill:#221F4A;" d="M182.2,262.3c21.1,0,42.2,0,63.2,0c0.8,0,0.8-1.2,0-1.2c-21.1,0-42.2,0-63.2,0
			C181.4,261.1,181.4,262.3,182.2,262.3L182.2,262.3z"/>
	</g>
</g>
<rect x="179.7" y="385.7" style="opacity:0.42;fill:#4E537F;" width="66.3" height="4.6"/>
<path style="fill:#231F20;" d="M353.8,395.9c0,8.2-3.3,18.5-8.2,23.6c-2.3,2.4-9.2,2.1-14.6,2.1c-12.6,0-22.8-11.5-22.8-25.7
	c0-14.2,10.2-25.7,22.8-25.7c1,0,9-0.1,10,0C352.2,371.8,353.8,382.8,353.8,395.9z"/>
<ellipse style="fill:#414042;" cx="341" cy="395.9" rx="22.8" ry="25.7"/>
<g>
	<rect x="185.7" y="341.1" style="fill:#D1BB7C;" width="58.8" height="44.5"/>
</g>
<ellipse style="fill:#BCBEC0;" cx="341" cy="395.9" rx="10" ry="11.5"/>
<rect x="201.3" y="341.1" style="fill:#D9DFF2;" width="8.2" height="8.2"/>
<rect x="229.6" y="377.9" style="fill:#D9DFF2;" width="7.7" height="7.7"/>
<path style="fill:#221F4A;" d="M219.4,299.8h-10.6c-0.7,0-1.2-0.6-1.2-1.2l0,0c0-0.7,0.6-1.2,1.2-1.2h10.6c0.7,0,1.2,0.6,1.2,1.2
	l0,0C220.6,299.3,220.1,299.8,219.4,299.8z"/>
<path style="fill:#8075B3;" d="M174,395.3c5.7-0.2,11.5,0,17.2,0c11.3,0.1,22.6,0.1,34,0.2c12.1,0.1,24.2,0.2,36.3,0.3
	c8.2,0.1,16.5,0.1,24.7,0.2c3.7,0,7.4,0,11.1-0.8c5-1,9.5-3.6,12.2-8c2.3-3.7,3.1-8.4,4.7-12.1c1.7-3.8,4.2-7.2,8.2-8.8
	c4.6-1.9,9.8-1.8,14.7-1.8c4.9-0.1,10.1,0,14.5,2.2c1.9,1,3.6,2.2,5.1,3.8c1.4,1.5,2.3,3.5,3.2,5.4c0,0,0.3,0.7,0.1,0.2
	c0.1,0.1,0.1,0.3,0.2,0.5c0.1,0.3,0.3,0.6,0.4,1c0.3,0.8,0.6,1.6,0.8,2.4c0.4,1.1,0.7,2.2,1.2,3.3c1.1,2.6,2.6,5.2,4.6,7.2
	c2.4,2.5,5.5,4,9,4.1c1,0,1.9,0,2.9,0c9.2-0.1,18.4-0.1,27.6-0.2c12.2-0.1,24.3-0.2,36.5-0.3c7.7-0.1,14.7-0.1,22.4-0.2
	c0.4,0,0.8,0,1.2,0c4.5,0,4.5-7,0-6.9c-5.6,0-10.4,0.1-15.9,0.1c-11.8,0.1-23.5,0.2-35.3,0.2c-10.6,0.1-21.1,0.1-31.7,0.2
	c-2.6,0-5.1,0.1-7.7,0.1c-0.1,0-0.1,0-0.2,0c-0.2,0-0.3,0-0.5,0c-0.6,0,0.5,0.1,0,0c-0.4-0.1-0.7-0.2-1.1-0.3
	c0.6,0.2-0.5-0.3-0.7-0.4c-0.2-0.1-0.9-0.7-0.4-0.3c-0.3-0.3-0.6-0.5-0.9-0.8c-0.3-0.3-0.5-0.5-0.7-0.8c-0.1-0.1-0.2-0.2-0.3-0.3
	c0.5,0.6-0.1-0.2-0.2-0.2c-0.7-1-1.4-2.2-1.9-3.3c-0.1-0.2-0.2-0.4-0.3-0.7c-0.3-0.5,0.3,0.9,0.1,0.3c-0.1-0.2-0.2-0.4-0.2-0.6
	c-1.4-3.8-2.5-7.7-4.6-11.2c-2.7-4.3-6.8-7.4-11.5-9.2c-5-2-10.6-2.1-16-2c-5.2,0.1-10.8,0.1-15.7,2c-4.8,1.8-8.6,5-11.2,9.3
	c-2.4,3.9-3.3,8.4-5,12.6c-0.7,1.6-1.7,3.4-3.2,4.6c-1.6,1.3-3.6,1.9-5.6,2.3c-2.3,0.5-4.7,0.6-7.1,0.6c-6.6,0-13.1-0.1-19.7-0.1
	c-11.6-0.1-23.3-0.2-34.9-0.2c-12-0.1-23.9-0.2-35.9-0.2c-7.5,0-15-0.1-22.5-0.1c-0.6,0-1.3,0-1.9,0
	C169.6,388.5,169.5,395.4,174,395.3L174,395.3z"/>
<rect x="251.6" y="270.3" style="opacity:0.27;fill:#554296;" width="217.6" height="80.6"/>
<polyline style="fill:none;stroke:#99893A;stroke-width:0.25;stroke-miterlimit:10;" points="185.7,385.6 185.7,341.1 197.9,341.1 
	244.5,341.2 "/>
<path style="fill:#AF934E;" d="M210.7,379.5c-0.1,0.1-0.3,0.2-0.3,0.3c-0.1,0.2,0.1,0.3,0.2,0.2c0.1,0,0.1-0.1,0.1-0.1
	C210.7,379.7,210.7,379.6,210.7,379.5z"/>
<path style="fill:#AF934E;" d="M209.6,378.9c-0.1,0.1-0.5,0.3-0.3,0.5c0.1,0.1,0.2,0.1,0.2,0C209.6,379.3,209.6,379.1,209.6,378.9z"
	/>
<path style="fill:#AF934E;" d="M209.5,380.2c1.1,0,2.2,0.8,2.3,1.9c-0.3-0.2-0.9-0.2-1.1,0.1c0,0-0.1,0.1-0.1,0.1
	c0-0.1-0.1-0.1-0.2-0.2c-0.2-0.1-0.6-0.2-0.8-0.1c0,0-0.1,0.1-0.1,0.1l0,1.5c0,0.5-0.6,0.8-1,0.5c-0.2-0.1-0.4-0.4-0.3-0.6
	c0-0.1,0.2-0.2,0.3,0c0,0,0,0.1,0,0.1c0.1,0.5,0.7,0.4,0.7,0l0-1.5c-0.3-0.2-0.9-0.2-1.1,0.1c0,0,0,0.1-0.1,0c0,0,0,0,0-0.1
	c-0.2-0.3-0.8-0.3-1.1-0.1c0.1-1.1,1.2-1.9,2.3-1.9V380c0-0.1,0.1-0.1,0.1-0.1c0.1,0,0.2,0.1,0.2,0.1V380.2z"/>
<path style="fill:#AF934E;" d="M208.5,379.5c0,0.1,0,0.4-0.1,0.5c-0.1,0.1-0.2,0.1-0.2,0C208,379.7,208.4,379.6,208.5,379.5z"/>
<path style="fill:#AF934E;" d="M200.2,379.2L200.2,379.2c0.8,0.8,1.5,1.5,2.2,2.2c0,0.1,0,0.2-0.1,0.2h-1.2v2.7c0,0-0.1,0.1-0.1,0.1
	l-1.7,0c0,0-0.1-0.1-0.1-0.1v-2.7h-1.2c0,0-0.1,0-0.1,0c-0.1-0.1,0-0.1,0-0.2l2.1-2.1L200.2,379.2L200.2,379.2z"/>
<path style="fill:#AF934E;" d="M192,384.4h-1.8c-0.2-0.1-0.2-0.3,0-0.3c0.3,0,0.7,0.1,0.7-0.3c0-0.4,0-0.7,0-1.1
	c0-0.3-0.4-0.3-0.6-0.5c-0.4-0.2-0.7-0.7-0.8-1.1c-0.1-0.5,0.1-1,0.2-1.5c0-0.1,0.1-0.3,0.1-0.4c0,0,0.1-0.1,0.1-0.1l2.2,0
	c0.1,0,0.1,0.1,0.1,0.1c0.1,0.1,0.1,0.4,0.2,0.5c0.2,0.7,0.3,1.2,0,1.9c-0.2,0.3-0.4,0.6-0.8,0.7c-0.1,0-0.2,0.1-0.3,0.1
	c-0.1,0.1-0.1,0.2-0.1,0.3c0,0.4,0,0.7,0,1.1c0,0.4,0.4,0.3,0.7,0.3C192.1,384.1,192.1,384.4,192,384.4z"/>
<g>
	<rect x="44.3" y="287.1" style="fill:#D1BB7C;" width="48.3" height="36.5"/>
</g>
<polygon style="fill:none;stroke:#99893A;stroke-width:0.25;stroke-miterlimit:10;" points="44.3,323.6 44.3,287.1 53.9,287.1 
	92.6,287.1 92.6,323.6 "/>
<rect x="57.1" y="287.5" style="fill:#D9DFF2;" width="6.7" height="6.7"/>
<rect x="82.5" y="317.3" style="fill:#D9DFF2;" width="6.7" height="6.7"/>
<path style="fill:#AF934E;" d="M61.6,318.8c-0.1,0-0.2,0.2-0.3,0.2c0,0.1,0.1,0.2,0.2,0.2c0,0,0-0.1,0.1-0.1
	C61.6,319,61.6,318.9,61.6,318.8z M60,318.8c-0.1,0.1-0.4,0.2-0.2,0.4c0,0.1,0.1,0.1,0.2,0C60,319.1,60,318.9,60,318.8z M60.8,319.3
	v-0.1c0,0-0.1-0.1-0.1-0.1c0,0-0.1,0-0.1,0.1v0.1c-0.9,0-1.7,0.6-1.8,1.5c0.2-0.2,0.7-0.1,0.9,0.1c0,0,0,0,0,0.1c0,0,0,0,0,0
	c0.2-0.2,0.6-0.3,0.9-0.1l0,1.2c0,0.3-0.5,0.4-0.6,0c0,0,0,0,0-0.1c0-0.1-0.2-0.1-0.2,0c0,0.2,0.1,0.4,0.3,0.5
	c0.3,0.2,0.8,0,0.8-0.4l0-1.2c0,0,0.1-0.1,0.1-0.1c0.2-0.1,0.5-0.1,0.7,0c0.1,0,0.1,0.1,0.1,0.1c0,0,0.1,0,0.1-0.1
	c0.2-0.2,0.6-0.2,0.9-0.1C62.5,320,61.7,319.4,60.8,319.3z"/>
<path style="fill:#AF934E;" d="M61,318.4c0,0.1,0,0.3-0.1,0.4c-0.1,0.1-0.1,0-0.2,0C60.7,318.6,60.9,318.5,61,318.4z"/>
<path style="fill:#AF934E;" d="M54.6,318.6L54.6,318.6c0.6,0.6,1.2,1.1,1.7,1.7c0,0,0,0.1-0.1,0.1h-0.9v2.1c0,0-0.1,0.1-0.1,0.1
	l-1.4,0c0,0-0.1,0-0.1-0.1v-2.1h-0.9c0,0,0,0,0,0c0,0,0-0.1,0-0.1L54.6,318.6L54.6,318.6L54.6,318.6z"/>
<path style="fill:#AF934E;" d="M48.1,322.7h-1.4c-0.1,0-0.1-0.2,0-0.3c0.2,0,0.5,0.1,0.5-0.2c0-0.3,0-0.6,0-0.9
	c0-0.3-0.3-0.3-0.5-0.4c-0.3-0.2-0.5-0.5-0.6-0.9c-0.1-0.4,0.1-0.8,0.2-1.2c0-0.1,0.1-0.3,0.1-0.3c0,0,0.1,0,0.1-0.1l1.7,0
	c0,0,0.1,0,0.1,0.1c0.1,0.1,0.1,0.3,0.1,0.4c0.1,0.5,0.2,1,0,1.5c-0.1,0.2-0.4,0.4-0.6,0.5c-0.1,0-0.2,0-0.2,0.1
	c-0.1,0.1-0.1,0.1-0.1,0.2c0,0.3,0,0.6,0,0.9c0,0.3,0.3,0.2,0.5,0.2C48.3,322.5,48.3,322.7,48.1,322.7z"/>
<g>
	<rect x="38.7" y="323.7" style="fill:#D1BB7C;" width="48.3" height="36.5"/>
</g>
<polygon style="fill:none;stroke:#99893A;stroke-width:0.25;stroke-miterlimit:10;" points="38.7,360.2 38.7,323.7 48.3,323.7 
	87,323.7 87,360.2 "/>
<rect x="51.5" y="324.1" style="fill:#D9DFF2;" width="6.7" height="6.7"/>
<rect x="76.9" y="353.9" style="fill:#D9DFF2;" width="6.7" height="6.7"/>
<path style="fill:#AF934E;" d="M57,355.5c-0.1,0-0.2,0.2-0.3,0.2c0,0.1,0.1,0.2,0.2,0.2c0,0,0-0.1,0.1-0.1
	C57,355.7,57,355.6,57,355.5z M55.4,355.5c-0.1,0.1-0.4,0.2-0.2,0.4c0,0.1,0.1,0.1,0.2,0C55.4,355.8,55.4,355.6,55.4,355.5z
	 M56.2,356v-0.1c0,0-0.1-0.1-0.1-0.1c0,0-0.1,0-0.1,0.1v0.1c-0.9,0-1.7,0.6-1.8,1.5c0.2-0.2,0.7-0.1,0.9,0.1c0,0,0,0,0,0.1
	c0,0,0,0,0,0c0.2-0.2,0.6-0.3,0.9-0.1l0,1.2c0,0.3-0.5,0.4-0.6,0c0,0,0,0,0-0.1c0-0.1-0.2-0.1-0.2,0c0,0.2,0.1,0.4,0.3,0.5
	c0.3,0.2,0.8,0,0.8-0.4l0-1.2c0,0,0.1-0.1,0.1-0.1c0.2-0.1,0.5-0.1,0.7,0c0.1,0,0.1,0.1,0.1,0.1c0,0,0.1,0,0.1-0.1
	c0.2-0.2,0.6-0.2,0.9-0.1C57.9,356.7,57.1,356.1,56.2,356z"/>
<path style="fill:#AF934E;" d="M56.2,356c0.9,0,1.7,0.6,1.8,1.5c-0.2-0.2-0.7-0.2-0.9,0.1c0,0,0,0.1-0.1,0.1c0-0.1-0.1-0.1-0.1-0.1
	c-0.2-0.1-0.5-0.1-0.7,0c0,0-0.1,0-0.1,0.1l0,1.2c0,0.4-0.5,0.6-0.8,0.4c-0.1-0.1-0.3-0.3-0.3-0.5c0-0.1,0.2-0.1,0.2,0
	c0,0,0,0.1,0,0.1c0.1,0.4,0.5,0.3,0.6,0l0-1.2c-0.2-0.2-0.7-0.2-0.9,0.1c0,0,0,0.1,0,0c0,0,0,0,0-0.1c-0.2-0.2-0.6-0.2-0.9-0.1
	c0.1-0.9,1-1.5,1.8-1.5v-0.1c0,0,0.1-0.1,0.1-0.1c0,0,0.1,0,0.1,0.1V356z"/>
<path style="fill:#AF934E;" d="M55.4,355.5c0,0.1,0,0.3-0.1,0.4c-0.1,0.1-0.1,0-0.2,0C55.1,355.7,55.3,355.6,55.4,355.5z"/>
<path style="fill:#AF934E;" d="M49,355.3L49,355.3c0.6,0.6,1.2,1.1,1.7,1.7c0,0,0,0.1-0.1,0.1h-0.9v2.1c0,0-0.1,0.1-0.1,0.1l-1.4,0
	c0,0-0.1,0-0.1-0.1v-2.1h-0.9c0,0,0,0,0,0c0,0,0-0.1,0-0.1L49,355.3L49,355.3L49,355.3z"/>
<path style="fill:#AF934E;" d="M42.5,359.4h-1.4c-0.1,0-0.1-0.2,0-0.3c0.2,0,0.5,0.1,0.5-0.2c0-0.3,0-0.6,0-0.9
	c0-0.3-0.3-0.3-0.5-0.4c-0.3-0.2-0.5-0.5-0.6-0.9c-0.1-0.4,0.1-0.8,0.2-1.2c0-0.1,0.1-0.3,0.1-0.3c0,0,0.1,0,0.1-0.1l1.7,0
	c0,0,0.1,0,0.1,0.1c0.1,0.1,0.1,0.3,0.1,0.4c0.1,0.5,0.2,1,0,1.5c-0.1,0.2-0.4,0.4-0.6,0.5c-0.1,0-0.2,0-0.2,0.1
	c-0.1,0.1-0.1,0.1-0.1,0.2c0,0.3,0,0.6,0,0.9c0,0.3,0.3,0.2,0.5,0.2C42.6,359.1,42.6,359.3,42.5,359.4z"/>
<g>
	<rect x="34.9" y="360" style="fill:#D1BB7C;" width="73.9" height="55.9"/>
</g>
<g>
	<rect x="34.9" y="360.6" style="fill:#D1BB7C;" width="73.9" height="55.3"/>
</g>
<rect x="54.5" y="360" style="fill:#D9DFF2;" width="10.3" height="10.3"/>
<rect x="93.3" y="405.7" style="fill:#D9DFF2;" width="10.3" height="10.3"/>
<path style="fill:#AF934E;" d="M58.2,408.6c-0.1,0.1-0.4,0.2-0.4,0.3c-0.1,0.2,0.1,0.3,0.3,0.2c0.1,0,0.1-0.1,0.1-0.2
	C58.2,408.9,58.2,408.7,58.2,408.6z M55.8,408.6c-0.1,0.1-0.5,0.3-0.4,0.5c0.1,0.1,0.2,0.1,0.3,0C55.8,409.1,55.8,408.8,55.8,408.6z
	 M57,409.4v-0.2c0-0.1-0.1-0.1-0.2-0.1c-0.1,0-0.2,0.1-0.2,0.1v0.2c-1.3,0-2.7,1-2.8,2.3c0.3-0.2,1.1-0.2,1.3,0.1c0,0,0,0.1,0,0.1
	c0,0.1,0.1,0,0.1,0c0.3-0.4,1-0.4,1.3-0.1l0,1.8c-0.1,0.5-0.8,0.6-0.9,0c0,0,0-0.1,0-0.1c-0.1-0.2-0.3-0.1-0.3,0
	c0,0.3,0.2,0.6,0.4,0.7c0.5,0.3,1.2,0,1.2-0.6l0-1.8c0-0.1,0.1-0.1,0.2-0.1c0.3-0.1,0.7-0.1,1,0.1c0.1,0.1,0.1,0.1,0.2,0.2
	c0,0.1,0.1-0.1,0.1-0.1c0.2-0.3,1-0.3,1.3-0.1C59.7,410.4,58.3,409.5,57,409.4z"/>
<path style="fill:#AF934E;" d="M57,409.4c1.3,0,2.6,1,2.8,2.3c-0.3-0.2-1.1-0.2-1.3,0.1c0,0-0.1,0.1-0.1,0.1
	c-0.1-0.1-0.1-0.1-0.2-0.2c-0.3-0.2-0.7-0.2-1-0.1c-0.1,0-0.2,0.1-0.2,0.1l0,1.8c0,0.6-0.7,0.9-1.2,0.6c-0.2-0.1-0.4-0.4-0.4-0.7
	c0-0.2,0.3-0.2,0.3,0c0,0,0,0.1,0,0.1c0.1,0.5,0.8,0.5,0.9,0l0-1.8c-0.3-0.2-1.1-0.2-1.3,0.1c0,0,0,0.1-0.1,0c0,0,0-0.1,0-0.1
	c-0.2-0.3-1-0.3-1.3-0.1c0.1-1.4,1.5-2.3,2.8-2.3v-0.2c0-0.1,0.1-0.1,0.2-0.1c0.1,0,0.2,0.1,0.2,0.1V409.4z"/>
<path style="fill:#AF934E;" d="M55.8,408.6c0,0.1,0,0.5-0.1,0.6c-0.1,0.1-0.2,0.1-0.3,0C55.3,408.9,55.7,408.7,55.8,408.6z"/>
<path style="fill:#AF934E;" d="M48,408.3L48,408.3c0.9,0.9,1.8,1.8,2.6,2.6c0,0.1,0,0.2-0.1,0.2h-1.4v3.2c0,0-0.1,0.1-0.1,0.1
	l-2.1,0c0,0-0.1-0.1-0.1-0.1v-3.2h-1.4c0,0-0.1,0-0.1,0c-0.1-0.1,0-0.1,0-0.2l2.5-2.5L48,408.3L48,408.3z"/>
<path style="fill:#AF934E;" d="M41.1,414.6H39c-0.2-0.1-0.2-0.4,0-0.4c0.3,0,0.8,0.1,0.8-0.4c0-0.4,0-0.9,0-1.3
	c-0.1-0.4-0.5-0.4-0.8-0.6c-0.5-0.3-0.8-0.8-0.9-1.4c-0.1-0.6,0.1-1.3,0.3-1.8c0-0.1,0.1-0.4,0.2-0.5c0,0,0.1-0.1,0.1-0.1l2.7,0
	c0.1,0,0.1,0.1,0.1,0.1c0.1,0.2,0.1,0.5,0.2,0.7c0.2,0.8,0.4,1.5-0.1,2.2c-0.2,0.4-0.5,0.7-0.9,0.8c-0.1,0.1-0.2,0.1-0.4,0.2
	c-0.1,0.1-0.2,0.2-0.2,0.3c0,0.4,0,0.9,0,1.3c0,0.5,0.5,0.3,0.8,0.4C41.3,414.2,41.3,414.5,41.1,414.6z"/>
<polygon style="fill:none;stroke:#99893A;stroke-width:0.25;stroke-miterlimit:10;" points="34.9,415.9 34.9,360 49.6,360 
	108.8,360 108.8,415.9 "/>
<path style="fill:#FFA635;" d="M174,376.7c0,0.8-0.6,1.4-1.4,1.4c-0.8,0-1.4-0.6-1.4-1.4c0-0.8,0.6-1.4,1.4-1.4
	C173.4,375.3,174,375.9,174,376.7z"/>
<path style="fill:#FFA635;" d="M174,380.8c0,0.8-0.6,1.4-1.4,1.4c-0.8,0-1.4-0.6-1.4-1.4c0-0.8,0.6-1.4,1.4-1.4
	C173.4,379.4,174,380,174,380.8z"/>
<path style="fill:#FFA635;" d="M174,385c0,0.8-0.6,1.4-1.4,1.4c-0.8,0-1.4-0.6-1.4-1.4c0-0.8,0.6-1.4,1.4-1.4
	C173.4,383.6,174,384.2,174,385z"/>
<polyline style="fill:none;stroke:#99893A;stroke-width:0.25;stroke-miterlimit:10;" points="87,327.3 87,276.4 154.7,276.4 "/>
<path style="fill:#AF934E;" d="M133.4,403.4L133.4,403.4c0,0.2,0,0.8-0.1,1c-0.2,0.2-0.5,0-0.5-0.2
	C132.7,403.9,133.2,403.6,133.4,403.4z"/>
<path style="fill:#AF934E;" d="M134.6,403.9c0,0.2,0,0.5,0,0.7c0,0.1,0,0.2-0.1,0.3c-0.3,0.2-0.6-0.1-0.5-0.4
	C134,404.3,134.4,404,134.6,403.9z"/>
<path style="fill:#AF934E;" d="M131.8,406.4L131.8,406.4c0,0.2,0,0.6-0.1,0.7c-0.2,0.1-0.5,0-0.5-0.2
	C131.1,406.8,131.7,406.6,131.8,406.4z"/>
<path style="fill:#AF934E;" d="M133.4,407.2L133.4,407.2c0,0.2,0,0.6-0.1,0.7c-0.2,0.1-0.5,0-0.5-0.2
	C132.7,407.5,133.2,407.3,133.4,407.2z"/>
<rect x="79.8" y="287.1" style="opacity:0.24;fill:#414042;" width="7.2" height="36.5"/>
<rect x="57.1" y="359.9" style="opacity:0.24;fill:#414042;" width="7.2" height="55.8"/>
<g>
	<rect x="62.7" y="327.3" style="fill:#D1BB7C;" width="122.5" height="92.7"/>
</g>
<rect x="95.2" y="326" style="fill:#D9DFF2;" width="17.1" height="17.1"/>
<rect x="159.6" y="401.6" style="fill:#D9DFF2;" width="17.1" height="17.1"/>
<path style="fill:#AF934E;" d="M109.6,405.5c-0.2,0.1-0.6,0.4-0.7,0.6c-0.1,0.3,0.2,0.6,0.5,0.4c0.1-0.1,0.1-0.2,0.1-0.3
	C109.6,406,109.6,405.7,109.6,405.5z"/>
<path style="fill:#AF934E;" d="M105.6,405.6c-0.2,0.2-0.9,0.5-0.6,0.9c0.1,0.2,0.3,0.2,0.5,0C105.6,406.3,105.5,405.8,105.6,405.6z"
	/>
<path style="fill:#AF934E;" d="M107.6,406.9v-0.3c0-0.1-0.2-0.2-0.3-0.2c-0.1,0-0.3,0.1-0.3,0.2v0.3c-2.2,0.1-4.4,1.6-4.6,3.9
	c0.5-0.4,1.8-0.4,2.2,0.2c0,0.1,0.1,0.1,0.1,0.2c0.1,0.1,0.1,0,0.1-0.1c0.4-0.6,1.6-0.6,2.2-0.2l0,3c-0.1,0.9-1.3,1-1.5,0.1
	c0-0.1,0-0.1,0-0.2c-0.1-0.3-0.5-0.2-0.6,0.1c-0.1,0.4,0.3,1,0.6,1.2c0.9,0.5,1.9-0.1,2-1.1l0-3c0-0.1,0.2-0.2,0.3-0.2
	c0.5-0.2,1.2-0.2,1.7,0.1c0.2,0.1,0.2,0.2,0.3,0.4c0.1,0.1,0.1-0.1,0.2-0.1c0.4-0.6,1.6-0.6,2.2-0.2
	C112,408.5,109.8,407,107.6,406.9z"/>
<path style="fill:#AF934E;" d="M91.2,405l0.1,0.1c1.4,1.4,2.9,2.8,4.2,4.3c0.1,0.1-0.1,0.3-0.2,0.3h-2.4v5.4c0,0-0.1,0.2-0.2,0.1
	l-3.5,0c-0.1,0-0.2-0.1-0.2-0.2v-5.3h-2.4c0,0-0.1-0.1-0.1-0.1c-0.1-0.1-0.1-0.2,0-0.3l4.2-4.2L91.2,405L91.2,405z"/>
<path style="fill:#AF934E;" d="M77.8,415.4h-3.5c-0.4-0.1-0.3-0.6,0.1-0.7c0.5-0.1,1.3,0.2,1.4-0.6c0.1-0.7,0-1.5,0-2.2
	c-0.1-0.6-0.8-0.7-1.3-1c-0.8-0.5-1.3-1.4-1.5-2.3c-0.2-0.9,0.2-2.1,0.4-3c0.1-0.2,0.2-0.7,0.3-0.8c0.1-0.1,0.1-0.1,0.2-0.1l4.4,0
	c0.1,0,0.2,0.1,0.2,0.2c0.1,0.3,0.2,0.8,0.3,1.1c0.3,1.3,0.6,2.5-0.1,3.7c-0.3,0.6-0.9,1.1-1.5,1.4c-0.2,0.1-0.4,0.1-0.6,0.3
	c-0.2,0.1-0.3,0.3-0.3,0.5c0,0.7-0.1,1.5,0,2.2c0.1,0.8,0.8,0.6,1.4,0.6C78.1,414.8,78.1,415.3,77.8,415.4z"/>
<g>
	<rect x="87" y="276.4" style="fill:#D1BB7C;" width="67.7" height="51.2"/>
</g>
<rect x="104.9" y="276.4" style="fill:#D9DFF2;" width="9.4" height="9.4"/>
<rect x="140.5" y="318.2" style="fill:#D9DFF2;" width="9.4" height="9.4"/>
<path style="fill:#AF934E;" d="M110.5,319.9c-0.1,0.1-0.3,0.2-0.3,0.3c-0.1,0.2,0.1,0.3,0.2,0.2c0.1,0,0.1-0.1,0.1-0.1
	C110.5,320.2,110.5,320.1,110.5,319.9z"/>
<path style="fill:#AF934E;" d="M108.5,320c-0.1,0.1-0.5,0.3-0.3,0.5c0.1,0.1,0.2,0.1,0.2,0C108.5,320.3,108.5,320.1,108.5,320z"/>
<path style="fill:#AF934E;" d="M109.5,320.7v-0.1c0-0.1-0.1-0.1-0.2-0.1c-0.1,0-0.1,0.1-0.1,0.1v0.1c-1.1,0-2.2,0.8-2.3,1.9
	c0.3-0.2,0.9-0.2,1.1,0.1c0,0,0,0.1,0,0.1c0,0.1,0.1,0,0.1,0c0.2-0.3,0.8-0.3,1.1-0.1l0,1.5c0,0.4-0.6,0.5-0.7,0c0,0,0-0.1,0-0.1
	c-0.1-0.1-0.3-0.1-0.3,0c0,0.2,0.1,0.5,0.3,0.6c0.4,0.3,1,0,1-0.5l0-1.5c0,0,0.1-0.1,0.1-0.1c0.2-0.1,0.6-0.1,0.8,0.1
	c0.1,0.1,0.1,0.1,0.2,0.2c0,0.1,0.1,0,0.1-0.1c0.2-0.3,0.8-0.3,1.1-0.1C111.7,321.4,110.6,320.7,109.5,320.7z"/>
<path style="fill:#AF934E;" d="M109.5,319.3c0,0.1,0,0.4-0.1,0.5c-0.1,0.1-0.2,0.1-0.2,0C109.1,319.6,109.4,319.4,109.5,319.3z"/>
<path style="fill:#AF934E;" d="M100.3,319.7L100.3,319.7c0.8,0.8,1.5,1.5,2.2,2.2c0,0.1,0,0.2-0.1,0.2h-1.2v2.7c0,0-0.1,0.1-0.1,0.1
	l-1.7,0c0,0-0.1-0.1-0.1-0.1V322h-1.2c0,0-0.1,0-0.1,0c-0.1,0,0-0.1,0-0.2l2.1-2.1L100.3,319.7L100.3,319.7z"/>
<path style="fill:#AF934E;" d="M92,324.9h-1.8c-0.2-0.1-0.2-0.3,0-0.3c0.3,0,0.7,0.1,0.7-0.3c0-0.4,0-0.7,0-1.1
	c0-0.3-0.4-0.3-0.6-0.5c-0.4-0.2-0.7-0.7-0.7-1.1c-0.1-0.5,0.1-1,0.2-1.5c0-0.1,0.1-0.3,0.1-0.4c0,0,0.1-0.1,0.1-0.1l2.2,0
	c0.1,0,0.1,0.1,0.1,0.1c0.1,0.1,0.1,0.4,0.2,0.5c0.2,0.7,0.3,1.2,0,1.9c-0.2,0.3-0.4,0.6-0.8,0.7c-0.1,0-0.2,0.1-0.3,0.1
	c-0.1,0.1-0.1,0.2-0.1,0.3c0,0.4,0,0.7,0,1.1c0,0.4,0.4,0.3,0.7,0.3C92.2,324.6,92.2,324.8,92,324.9z"/>
<polygon style="fill:none;stroke:#99893A;stroke-width:0.25;stroke-miterlimit:10;" points="62.7,420 62.7,327.3 87,327.3 
	185.3,327.3 185.3,420 "/>
<path style="fill:#F7A108;" d="M553.5,320.4c0,0-1.7,8.7,1.6,10.2c3.4,1.5,9.5,0.5,9.5,0.5S563.4,322.3,553.5,320.4z"/>
<path style="fill:#362062;" d="M292.6,319.2c-1.5-1.3-0.5-4,1.5-4l27.6,0c2.3,0.2,2.8,3.3,0.9,4.3l-28.5,0.2
	C293.6,319.7,293,319.6,292.6,319.2z"/>
<path style="fill:#362062;" d="M298.2,301.6l23.7,0c2.4,0.4,2.6,4.2,0,4.5l-23.7,0C295.9,305.3,295.9,302.3,298.2,301.6z"/>
<path style="fill:#362062;" d="M301.6,288.6c0.3-0.3,1.1-0.7,1.5-0.7c5.9,0.5,12.9-0.7,18.6,0c2.3,0.3,2.8,3.2,0.9,4.3l-19.9,0.1
	C301,292.1,300.6,289.7,301.6,288.6z"/>
<path style="fill:none;stroke:#362062;stroke-width:5;stroke-miterlimit:10;" d="M378.1,296.2l-7.4,31.9h11.1
	c1.1-5.2,5.6-8.9,10.8-9.1c5.4-0.1,10.2,3.7,11.4,9c0.6,0,1.3,0,1.9,0l3-17.2c0,0-0.4-12.2-14.2-14.7
	C379.4,296.2,378.1,296.2,378.1,296.2z"/>
<path style="fill:#362062;" d="M392.8,318.3c-6.2,0-11.3,5.1-11.3,11.3s5.1,11.3,11.3,11.3c6.2,0,11.3-5.1,11.3-11.3
	S399,318.3,392.8,318.3z M392.8,336.5c-3.8,0-6.9-3.1-6.9-6.9c0-3.8,3.1-6.9,6.9-6.9c3.8,0,6.9,3.1,6.9,6.9
	C399.7,333.4,396.6,336.5,392.8,336.5z"/>
<path style="fill:#362062;" d="M338.1,320.3c-6.2,0-11.3,5.1-11.3,11.3s5.1,11.3,11.3,11.3c6.2,0,11.3-5.1,11.3-11.3
	S344.3,320.3,338.1,320.3z M338.1,338.4c-3.8,0-6.9-3.1-6.9-6.9c0-3.8,3.1-6.9,6.9-6.9c3.8,0,6.9,3.1,6.9,6.9
	C345,335.4,341.9,338.4,338.1,338.4z"/>
<path style="fill:#362062;" d="M378.7,280.5h-56.9c-0.5,0-1-0.4-1-1l0,0c0-2,1.6-3.6,3.6-3.6h55.4L378.7,280.5z"/>
<path style="fill:#362062;" d="M330.3,330.6H320c-0.6,0-1.1-0.5-1.1-1.1v-0.5c0-1.3,1.1-2.4,2.4-2.4h11.1"/>
<polyline style="fill:#362062;" points="343.8,326.5 364.4,326.5 363.1,330.6 345.9,330.6 "/>
<polygon style="fill:#362062;" points="367.7,330.6 362.3,330.6 374.7,275.9 380.1,275.9 "/>
</svg>
