<svg id="Group_15810" data-name="Group 15810" xmlns="http://www.w3.org/2000/svg" xmlns:xlink="http://www.w3.org/1999/xlink" width="78.733" height="46.522" viewBox="0 0 78.733 46.522">
  <defs>
    <linearGradient id="linear-gradient" x1="1" y1="0.5" x2="0" y2="0.5" gradientUnits="objectBoundingBox">
      <stop offset="0" stop-color="#827cbc"/>
      <stop offset="1" stop-color="#4762af"/>
    </linearGradient>
    <linearGradient id="linear-gradient-3" x1="1" y1="0.5" x2="0" y2="0.5" xlink:href="#linear-gradient"/>
    <linearGradient id="linear-gradient-5" x1="1" y1="0.5" x2="0" y2="0.5" xlink:href="#linear-gradient"/>
    <linearGradient id="linear-gradient-29" x1="1" y1="0.5" x2="0" y2="0.5" gradientUnits="objectBoundingBox">
      <stop offset="0" stop-color="#fff"/>
      <stop offset="1" stop-color="#1d1d1b"/>
    </linearGradient>
    <linearGradient id="linear-gradient-30" x1="1" y1="0.5" x2="0" y2="0.5" xlink:href="#linear-gradient-29"/>
    <linearGradient id="linear-gradient-33" x1="1" y1="0.5" x2="0" y2="0.5" xlink:href="#linear-gradient-29"/>
    <linearGradient id="linear-gradient-35" x1="1" y1="0.5" x2="0" y2="0.5" xlink:href="#linear-gradient-29"/>
    <linearGradient id="linear-gradient-36" x1="1" y1="0.5" x2="0" y2="0.5" xlink:href="#linear-gradient-29"/>
    <linearGradient id="linear-gradient-37" x1="1" y1="0.5" x2="0" y2="0.5" xlink:href="#linear-gradient-29"/>
    <linearGradient id="linear-gradient-39" x1="1" y1="0.5" x2="0" y2="0.5" xlink:href="#linear-gradient-29"/>
    <linearGradient id="linear-gradient-41" x1="1" y1="0.5" x2="0" y2="0.5" xlink:href="#linear-gradient-29"/>
  </defs>
  <g id="Group_2992" data-name="Group 2992" transform="translate(53.44 16.86)">
    <g id="Group_2991" data-name="Group 2991" transform="translate(0 0)">
      <path id="Path_4681" data-name="Path 4681" d="M1635.663,288.014a.286.286,0,0,0,.287-.287v-9.057a1.319,1.319,0,0,0-.911-1.193.286.286,0,1,0-.191.54.747.747,0,0,1,.53.655v9.056A.287.287,0,0,0,1635.663,288.014Z" transform="translate(-1634.656 -277.459)" fill="#292c2d"/>
    </g>
    <rect id="Rectangle_2124" data-name="Rectangle 2124" width="1.266" height="5.301" rx="0.633" transform="translate(0.374 3.948)" fill="#383839"/>
  </g>
  <path id="Path_4682" data-name="Path 4682" d="M1665.682,310.519l6.059,6.52v1.9a.621.621,0,0,0,.621.621h-14.026V312.52l7-2.1A.337.337,0,0,1,1665.682,310.519Z" transform="translate(-1626.538 -281.152)" fill="#1e2122"/>
  <g id="Group_3018" data-name="Group 3018" transform="translate(29.761 31.751)">
    <g id="Group_3017" data-name="Group 3017" transform="translate(0 0)">
      <ellipse id="Ellipse_138" data-name="Ellipse 138" cx="7.373" cy="7.373" rx="7.373" ry="7.373" transform="translate(14.745 14.771) rotate(-179.902)" fill="#292c2d"/>
      <ellipse id="Ellipse_139" data-name="Ellipse 139" cx="6.803" cy="6.803" rx="6.803" ry="6.803" transform="translate(14.103 14.273) rotate(-179.284)" fill="#1e2122"/>
      <path id="Path_4683" data-name="Path 4683" d="M1670.752,332.439a6.424,6.424,0,1,0-6.423-6.424A6.431,6.431,0,0,0,1670.752,332.439Zm0-12.088a5.664,5.664,0,1,1-5.664,5.664A5.671,5.671,0,0,1,1670.752,320.351Z" transform="translate(-1663.367 -318.63)" fill="#1e2122"/>
      <path id="Path_4684" data-name="Path 4684" d="M1665.115,326.352c-.007-.112-.017-.223-.017-.337s.01-.22.017-.33c0,.048-.011.1-.013.144l-.757-.05a6.366,6.366,0,0,1,.215-1.429l.739.174c-.011.042-.017.085-.027.128a5.657,5.657,0,0,1,.189-.608c-.017.044-.038.085-.054.129l-.708-.271a6.388,6.388,0,0,1,.628-1.3l.654.385c-.024.037-.042.079-.065.117a5.671,5.671,0,0,1,.338-.5c-.022.028-.047.053-.068.082l-.6-.467a6.452,6.452,0,0,1,.98-1.062l.511.559c-.034.029-.062.063-.1.092a5.7,5.7,0,0,1,.447-.363c-.017.013-.036.023-.054.036l-.433-.623a6.416,6.416,0,0,1,1.249-.728l.324.686c-.038.017-.073.039-.111.056q.237-.109.486-.2l-.03.009-.23-.723a6.354,6.354,0,0,1,1.409-.326l.106.751-.047.008a5.7,5.7,0,0,1,.661-.042h0c-.083,0-.164.009-.247.012l-.008-.759c.085,0,.169-.013.255-.013a6.412,6.412,0,0,1,1.186.114l-.117.748c.126.024.248.055.371.088l.216-.726a6.4,6.4,0,0,1,1.348.525l-.333.678c.109.058.212.123.316.188l.421-.628a6.446,6.446,0,0,1,1.133.9l-.518.55c.085.086.165.178.244.269l.585-.477a6.438,6.438,0,0,1,.821,1.191l-.656.374c.059.112.114.226.165.343l.7-.282c.06.136.111.276.162.416q.089.25.16.517c.039.148.076.3.1.449l-.737.161c.022.12.041.242.056.365l.752-.062a6.077,6.077,0,0,1,0,1.446l-.752-.062c-.014.121-.034.241-.055.359l.737.16a6.365,6.365,0,0,1-.423,1.384l-.7-.281c-.052.116-.106.231-.165.343l.656.372a6.431,6.431,0,0,1-.818,1.192l-.586-.476c-.081.093-.162.186-.249.273l.519.55a6.469,6.469,0,0,1-1.133.9l-.422-.628c-.1.064-.2.129-.312.187l.336.677a6.381,6.381,0,0,1-1.347.528l-.218-.726c-.123.032-.245.064-.371.088l.119.748a6.409,6.409,0,0,1-1.2.116c-.082,0-.163-.009-.244-.012l.007-.759c.079,0,.158.012.238.012h0a5.578,5.578,0,0,1-.659-.042c.016,0,.032.007.049.009l-.105.751a6.351,6.351,0,0,1-1.409-.326l.224-.7.008-.019.03.009q-.25-.088-.489-.2c.04.018.077.042.117.059l-.322.686a6.413,6.413,0,0,1-1.25-.727l.433-.623c.016.012.035.022.052.035a5.737,5.737,0,0,1-.451-.366c.034.031.064.066.1.1l-.511.56a6.506,6.506,0,0,1-.982-1.061l.6-.468c.02.028.045.052.065.08a5.7,5.7,0,0,1-.341-.5c.024.039.043.081.067.119l-.653.386a6.428,6.428,0,0,1-.629-1.3l.708-.272c.015.044.037.085.053.129a5.551,5.551,0,0,1-.188-.608c.011.044.016.09.028.133l-.738.175a6.374,6.374,0,0,1-.217-1.429l.757-.051C1665.1,326.259,1665.112,326.3,1665.115,326.352Zm.037-1.078c.01-.075.021-.149.034-.223C1665.174,325.125,1665.162,325.2,1665.152,325.274Zm.464-1.611c.031-.067.063-.133.1-.2C1665.679,323.53,1665.647,323.6,1665.617,323.663Zm.917-1.4c.043-.049.086-.1.132-.145C1666.62,322.163,1666.577,322.211,1666.534,322.26Zm1.3-1.087c.046-.028.091-.057.138-.084C1667.929,321.117,1667.884,321.146,1667.838,321.174Zm1.586-.656c.031-.008.063-.017.094-.024Zm.1,11.021c-.032-.007-.063-.017-.1-.024Zm-1.54-.594c-.047-.026-.092-.056-.138-.084C1667.891,330.89,1667.936,330.919,1667.983,330.945Zm-1.313-1.024c-.045-.048-.089-.1-.132-.146C1666.581,329.825,1666.625,329.874,1666.67,329.921Zm-.957-1.352c-.033-.066-.065-.132-.1-.2C1665.648,328.438,1665.68,328.5,1665.714,328.57Zm-.56-1.806c.01.075.021.149.035.223C1665.175,326.913,1665.163,326.838,1665.153,326.764Z" transform="translate(-1663.377 -318.63)" fill="#404040"/>
      <path id="Path_4685" data-name="Path 4685" d="M1675.841,327.75a3.354,3.354,0,1,1-3.355,3.354A3.358,3.358,0,0,1,1675.841,327.75Z" transform="translate(-1668.455 -323.719)" fill="#1e2122"/>
      <path id="Path_4686" data-name="Path 4686" d="M1672.917,323.062a5.118,5.118,0,1,1-5.118,5.118A5.124,5.124,0,0,1,1672.917,323.062Z" transform="translate(-1665.531 -320.795)" fill="none" stroke="#1d2124" stroke-miterlimit="10" stroke-width="0.25"/>
      <path id="Path_4687" data-name="Path 4687" d="M1676.311,328.507a3.069,3.069,0,1,1-3.07,3.069A3.073,3.073,0,0,1,1676.311,328.507Z" transform="translate(-1668.926 -324.191)" fill="#f6f7f7"/>
      <path id="Path_4688" data-name="Path 4688" d="M1677.257,330.021a2.5,2.5,0,1,1-2.5,2.5A2.5,2.5,0,0,1,1677.257,330.021Z" transform="translate(-1669.872 -325.135)" fill="#a3a4a9"/>
      <g id="Group_2994" data-name="Group 2994" transform="translate(6.499 6.499)">
        <g id="Group_2993" data-name="Group 2993">
          <path id="Path_4689" data-name="Path 4689" d="M1679.932,336.082a.886.886,0,1,0-.886-.886A.887.887,0,0,0,1679.932,336.082Zm0-1.582a.7.7,0,1,1-.7.7A.7.7,0,0,1,1679.932,334.5Z" transform="translate(-1679.046 -334.31)" fill="#1e2122"/>
        </g>
      </g>
      <g id="Group_2998" data-name="Group 2998" transform="translate(7.211 6.151)">
        <g id="Group_2997" data-name="Group 2997">
          <g id="Group_2996" data-name="Group 2996">
            <g id="Group_2995" data-name="Group 2995">
              <path id="Path_4690" data-name="Path 4690" d="M1681.111,333.733a.175.175,0,1,0-.175-.175A.175.175,0,0,0,1681.111,333.733Z" transform="translate(-1680.936 -333.383)" fill="#1e2122"/>
            </g>
          </g>
        </g>
      </g>
      <g id="Group_3005" data-name="Group 3005" transform="translate(6.472 6.448)">
        <g id="Group_3001" data-name="Group 3001" transform="translate(1.477)">
          <g id="Group_3000" data-name="Group 3000">
            <g id="Group_2999" data-name="Group 2999">
              <path id="Path_4691" data-name="Path 4691" d="M1679.148,334.525a.175.175,0,1,0-.175-.175A.175.175,0,0,0,1679.148,334.525Z" transform="translate(-1678.973 -334.175)" fill="#1e2122"/>
            </g>
          </g>
        </g>
        <g id="Group_3004" data-name="Group 3004">
          <g id="Group_3003" data-name="Group 3003">
            <g id="Group_3002" data-name="Group 3002">
              <path id="Path_4692" data-name="Path 4692" d="M1683.074,334.525a.175.175,0,1,0-.175-.175A.175.175,0,0,0,1683.074,334.525Z" transform="translate(-1682.899 -334.175)" fill="#1e2122"/>
            </g>
          </g>
        </g>
      </g>
      <g id="Group_3009" data-name="Group 3009" transform="translate(7.211 8.27)">
        <g id="Group_3008" data-name="Group 3008">
          <g id="Group_3007" data-name="Group 3007">
            <g id="Group_3006" data-name="Group 3006">
              <path id="Path_4693" data-name="Path 4693" d="M1681.111,339.016a.175.175,0,1,0,.175.175A.175.175,0,0,0,1681.111,339.016Z" transform="translate(-1680.936 -339.016)" fill="#1e2122"/>
            </g>
          </g>
        </g>
      </g>
      <g id="Group_3016" data-name="Group 3016" transform="translate(6.472 7.972)">
        <g id="Group_3012" data-name="Group 3012">
          <g id="Group_3011" data-name="Group 3011">
            <g id="Group_3010" data-name="Group 3010">
              <path id="Path_4694" data-name="Path 4694" d="M1683.074,338.224a.175.175,0,1,0,.175.175A.175.175,0,0,0,1683.074,338.224Z" transform="translate(-1682.899 -338.224)" fill="#1e2122"/>
            </g>
          </g>
        </g>
        <g id="Group_3015" data-name="Group 3015" transform="translate(1.477)">
          <g id="Group_3014" data-name="Group 3014">
            <g id="Group_3013" data-name="Group 3013">
              <path id="Path_4695" data-name="Path 4695" d="M1679.148,338.224a.175.175,0,1,0,.175.175A.175.175,0,0,0,1679.148,338.224Z" transform="translate(-1678.973 -338.224)" fill="#1e2122"/>
            </g>
          </g>
        </g>
      </g>
    </g>
  </g>
  <g id="Group_3020" data-name="Group 3020" transform="translate(64.345 32.034)">
    <path id="Path_4696" data-name="Path 4696" d="M1604.9,317.787l1.37,1.721a.421.421,0,0,0-.336.282l-1.376-1.73A3.984,3.984,0,0,1,1604.9,317.787Z" transform="translate(-1604.559 -317.787)" fill="#f6f7f7"/>
    <path id="Path_4697" data-name="Path 4697" d="M1603.63,323.247l.76.973.162,2.41-.922-1.129Z" transform="translate(-1602.49 -321.192)" fill="url(#linear-gradient)"/>
    <g id="Group_3019" data-name="Group 3019" transform="translate(1.129 1.829)">
      <path id="Path_4698" data-name="Path 4698" d="M1605.087,322.649l.011,2.478.374-2.45Z" transform="translate(-1605.087 -322.649)" fill="url(#linear-gradient)"/>
    </g>
    <path id="Path_4699" data-name="Path 4699" d="M1603.572,328.232l-.3-2.4-.083,2.421Z" transform="translate(-1601.343 -322.803)" fill="url(#linear-gradient-3)"/>
    <path id="Path_4700" data-name="Path 4700" d="M1597.463,321.51a.428.428,0,0,1,.166-.034.415.415,0,0,1,.341.187l.006,0,2.645,3.708v.673l-.117.228-2.462-3.153-.76-.973.007,0a.411.411,0,0,1-.083-.238.3.3,0,0,1,.006-.03A.423.423,0,0,1,1597.463,321.51Z" transform="translate(-1596.141 -320.088)" fill="url(#linear-gradient)"/>
    <path id="Path_4701" data-name="Path 4701" d="M1600.74,327.364a23.848,23.848,0,0,0-3.221-4.125h0l.005-.005-.007,0v0a23.838,23.838,0,0,0,3.223,4.124Z" transform="translate(-1596.379 -321.185)" fill="url(#linear-gradient-5)"/>
    <path id="Path_4702" data-name="Path 4702" d="M1597.205,321.469a.39.39,0,0,1,.455.189l.025.052.064-.035.007,0-.089-.015c.386.656.813,1.284,1.26,1.9a18.918,18.918,0,0,0,1.437,1.772,18.853,18.853,0,0,0-1.207-1.936c-.436-.622-.89-1.23-1.385-1.809l-.045-.053-.044.038-.006,0,.089.016a.483.483,0,0,0-.268-.166A.4.4,0,0,0,1597.205,321.469Z" transform="translate(-1595.884 -320.047)" fill="url(#linear-gradient)"/>
  </g>
  <g id="Group_3025" data-name="Group 3025" transform="translate(31.798 17.324)">
    <path id="Path_4703" data-name="Path 4703" d="M1681.937,290.488l-5.691,1.681v-1.937l2.522-8.531a1.314,1.314,0,0,1,1.253-.936h2.741v9.653A2.09,2.09,0,0,0,1681.937,290.488Z" transform="translate(-1675.474 -279.984)" fill="none"/>
    <path id="Path_4704" data-name="Path 4704" d="M1658,297.077h-1a1.31,1.31,0,0,1-.957-.417l-5.2-5.594a2.1,2.1,0,0,0-.514-.4v-9.9h4.584a1.307,1.307,0,0,1,1.235.882l3.086,8.967a1.306,1.306,0,0,1,.071.425v4.733A1.308,1.308,0,0,1,1658,297.077Z" transform="translate(-1642.275 -279.984)" fill="none"/>
    <path id="Path_4705" data-name="Path 4705" d="M1681.937,290.488l-5.691,1.681v-1.937l2.522-8.531a1.314,1.314,0,0,1,1.253-.936h2.741v9.653A2.09,2.09,0,0,0,1681.937,290.488Z" transform="translate(-1675.474 -279.984)" fill="none"/>
    <path id="Path_4706" data-name="Path 4706" d="M1658,297.077h-1a1.31,1.31,0,0,1-.957-.417l-5.2-5.594a2.1,2.1,0,0,0-.514-.4v-9.9h4.584a1.307,1.307,0,0,1,1.235.882l3.086,8.967a1.306,1.306,0,0,1,.071.425v4.733A1.308,1.308,0,0,1,1658,297.077Z" transform="translate(-1642.275 -279.984)" fill="none"/>
    <path id="Path_4707" data-name="Path 4707" d="M1681.937,290.488l-5.691,1.681v-1.937l2.522-8.531a1.314,1.314,0,0,1,1.253-.936h2.741v9.653A2.09,2.09,0,0,0,1681.937,290.488Z" transform="translate(-1675.474 -279.984)" fill="none"/>
    <path id="Path_4708" data-name="Path 4708" d="M1658,297.077h-1a1.31,1.31,0,0,1-.957-.417l-5.2-5.594a2.1,2.1,0,0,0-.514-.4v-9.9h4.584a1.307,1.307,0,0,1,1.235.882l3.086,8.967a1.306,1.306,0,0,1,.071.425v4.733A1.308,1.308,0,0,1,1658,297.077Z" transform="translate(-1642.275 -279.984)" fill="none"/>
    <path id="Path_4709" data-name="Path 4709" d="M1666.091,289.757v4.733a2.081,2.081,0,0,1-2.079,2.079h-1a2.075,2.075,0,0,1-1.328-.494c-.031-.026-.066-.046-.1-.074s-.067-.062-.1-.1l-5.137-5.524-.065-.07,0,0a1.314,1.314,0,0,0-.18-.158,1.307,1.307,0,0,0-1.144-.2l-1.572.464-5.109,1.509V288.9l2.553-8.694a2.092,2.092,0,0,1,1.993-1.49h8.1a2.08,2.08,0,0,1,1.965,1.4l3.086,8.967c.016.047.024.1.037.145s.032.109.042.164A2.1,2.1,0,0,1,1666.091,289.757Zm-10.521-10.273h-2.741a1.314,1.314,0,0,0-1.252.936l-2.521,8.531v1.937l5.69-1.681a2.09,2.09,0,0,1,.825-.071Zm9.749,10.273a1.306,1.306,0,0,0-.07-.425l-3.086-8.967a1.308,1.308,0,0,0-1.235-.882h-4.584v9.9a2.091,2.091,0,0,1,.514.4l5.2,5.594a1.312,1.312,0,0,0,.957.417h1a1.308,1.308,0,0,0,1.306-1.307Z" transform="translate(-1648.282 -278.704)" fill="#292c2d"/>
    <g id="Group_3021" data-name="Group 3021" transform="translate(12.644 0)">
      <path id="Path_4710" data-name="Path 4710" d="M1649.371,278.7a2.112,2.112,0,0,1,1.894,1.651c.269.89.567,1.77.865,2.65s.614,1.754.949,2.621l.5,1.3c.181.429.351.862.543,1.287-.11-.453-.243-.9-.364-1.348l-.4-1.335c-.269-.89-.567-1.77-.865-2.65s-.614-1.753-.95-2.62a2.308,2.308,0,0,0-.825-1.177A2.058,2.058,0,0,0,1649.371,278.7Z" transform="translate(-1649.371 -278.691)" fill="#383839"/>
    </g>
    <path id="Path_4711" data-name="Path 4711" d="M1682.762,280.764h-2.741a1.314,1.314,0,0,0-1.253.936l-2.522,8.531v1.937l5.691-1.681a2.09,2.09,0,0,1,.825-.071Z" transform="translate(-1675.474 -279.984)" fill="#598f98"/>
    <path id="Path_4712" data-name="Path 4712" d="M1677.058,287.189l4.432,3.24v3.345l-5.245-3.834Z" transform="translate(-1674.203 -283.992)" fill="#75c6c6"/>
    <path id="Path_4713" data-name="Path 4713" d="M1677.3,296.3l5.191,3.8a2.078,2.078,0,0,0-.571.083l-1.051.31-3.953-2.89Z" transform="translate(-1675.462 -289.675)" fill="#75c6c6"/>
    <g id="Group_3022" data-name="Group 3022" transform="translate(0.772 0.78)">
      <path id="Path_4714" data-name="Path 4714" d="M1681.661,290.231l2.521-8.531a1.314,1.314,0,0,1,1.253-.936h.389a1.293,1.293,0,0,0-1.054.986l-2.21,7.957-.136,1.692,3.715-.553-4.478,1.323Z" transform="translate(-1681.661 -280.764)" fill="#3d6d70"/>
    </g>
    <path id="Path_4715" data-name="Path 4715" d="M1659.311,291.037a1.306,1.306,0,0,0-.071-.425l-3.086-8.967a1.307,1.307,0,0,0-1.235-.882h-4.584v9.9a2.1,2.1,0,0,1,.514.4l5.2,5.594a1.31,1.31,0,0,0,.957.417h1a1.308,1.308,0,0,0,1.307-1.307Z" transform="translate(-1642.275 -279.984)" fill="#598f98"/>
    <path id="Path_4716" data-name="Path 4716" d="M1680.02,280.764h2.741v9.653a2.09,2.09,0,0,0-.825.071l-5.691,1.681v-1.937l2.522-8.531A1.314,1.314,0,0,1,1680.02,280.764Z" transform="translate(-1675.474 -279.984)" fill="none"/>
    <path id="Path_4717" data-name="Path 4717" d="M1656.154,281.646l3.087,8.967a1.306,1.306,0,0,1,.071.425v4.733a1.294,1.294,0,0,1-.208.7h-.446v.423a1.291,1.291,0,0,1-.653.182h-1a1.31,1.31,0,0,1-.957-.417l-5.2-5.594a2.1,2.1,0,0,0-.514-.4v-9.9h4.584A1.307,1.307,0,0,1,1656.154,281.646Z" transform="translate(-1642.275 -279.984)" fill="none"/>
    <path id="Path_4718" data-name="Path 4718" d="M1659.311,291.037a1.306,1.306,0,0,0-.071-.425l-3.086-8.967a1.307,1.307,0,0,0-1.235-.882h-4.584v9.9a2.1,2.1,0,0,1,.514.4l5.2,5.594a1.31,1.31,0,0,0,.957.417h1a1.308,1.308,0,0,0,1.307-1.307Z" transform="translate(-1642.275 -279.984)" fill="#598f98"/>
    <g id="Group_3023" data-name="Group 3023" transform="translate(8.06 1.367)">
      <path id="Path_4719" data-name="Path 4719" d="M1650.335,285.669v-3.345l7.64,5.586,1.266,3.676a1.306,1.306,0,0,1,.071.425v.221Z" transform="translate(-1650.335 -282.324)" fill="#75c6c6"/>
      <path id="Path_4720" data-name="Path 4720" d="M1650.334,294.985v-1.579l8.977,6.562v1.579Z" transform="translate(-1650.334 -289.236)" fill="#75c6c6"/>
    </g>
    <g id="Group_3024" data-name="Group 3024" transform="translate(0 0.001)">
      <path id="Path_4721" data-name="Path 4721" d="M1683.531,288.884c.352-.915.663-1.842.968-2.771s.589-1.864.869-2.8.541-1.878.783-2.825a2.837,2.837,0,0,1,.222-.666,1.953,1.953,0,0,1,.42-.55,2.115,2.115,0,0,1,1.284-.572,2.075,2.075,0,0,0-1.407.428,2.122,2.122,0,0,0-.51.573,3.112,3.112,0,0,0-.295.7c-.309.928-.589,1.864-.868,2.8s-.542,1.878-.783,2.826S1683.73,287.924,1683.531,288.884Z" transform="translate(-1683.531 -278.693)" fill="#383839"/>
    </g>
    <line id="Line_85" data-name="Line 85" y2="9.878" transform="translate(7.842 0.711)" fill="none" stroke="#383839" stroke-miterlimit="10" stroke-width="1"/>
  </g>
  <g id="Group_3026" data-name="Group 3026" transform="translate(30.671 27.572)">
    <path id="Path_4722" data-name="Path 4722" d="M1615.6,309.174l5.962-1.785,1.572-.464a1.307,1.307,0,0,1,1.144.2,1.285,1.285,0,0,1,.131.118l.117.112,5.137,5.524c.032.034.066.064.1.1s.065.048.1.074a2.076,2.076,0,0,0,1.328.494h1a2.081,2.081,0,0,0,2.079-2.079v-4.733a2.039,2.039,0,0,0-.035-.367c-.01-.056-.027-.11-.042-.164l2.118-.267a.622.622,0,0,1,.255.015l9.646,2.609a.62.62,0,0,1,.459.6v6.987a.621.621,0,0,1-.621.621h-15.563a.621.621,0,0,1-.621-.621v-1.9l-6.059-6.52a.338.338,0,0,0-.345-.095l-7,2.1-.631.189a.386.386,0,0,1-.222-.74Z" transform="translate(-1615.32 -305.929)" fill="url(#linear-gradient)"/>
    <path id="Path_4723" data-name="Path 4723" d="M1646.56,319.234c-1.537-.068-3.073-.1-4.61-.147l-4.61-.083-4.611-.048-1.152,0-.576,0a.337.337,0,0,1-.271-.135.325.325,0,0,1-.062-.141.471.471,0,0,1-.006-.091v-.144l0-.576,0-1.152V316.6l-.077-.082-2.836-3.024c-.95-1-1.9-2.009-2.862-3l-.36-.373a.672.672,0,0,0-.288-.207.531.531,0,0,0-.2-.024.664.664,0,0,0-.17.038l-.988.315-1.974.634c-1.311.439-2.627.863-3.933,1.318,1.342-.337,2.674-.706,4.011-1.06l2-.555,1-.279a.3.3,0,0,1,.082-.018.139.139,0,0,1,.052.009c.037.015.043.026.116.106l.346.386c.919,1.033,1.852,2.053,2.783,3.074l2.809,3.05-.077-.2,0,1.152,0,.576v.144a1.128,1.128,0,0,0,.016.2.891.891,0,0,0,.17.381.907.907,0,0,0,.725.357l.576,0,1.152,0,4.611-.048,4.61-.083C1643.487,319.333,1645.024,319.3,1646.56,319.234Z" transform="translate(-1615.843 -308.396)" fill="url(#linear-gradient)"/>
  </g>
  <g id="Group_3027" data-name="Group 3027" transform="translate(49.197 26.72)">
    <path id="Path_4724" data-name="Path 4724" d="M1625.36,307.345l-9.647-2.609a.618.618,0,0,0-.255-.015l-2.118.267c-.012-.048-.021-.1-.037-.145l-.3-.861h2.654a16.023,16.023,0,0,1,2.848.434s6.9,2.1,7.408,2.485a1.729,1.729,0,0,1,.579,1.086l.193,7.618-.87-.106v-7.556A.621.621,0,0,0,1625.36,307.345Z" transform="translate(-1613.007 -303.863)" fill="#292c2d"/>
    <path id="Path_4725" data-name="Path 4725" d="M1613.52,303.784c.609.043,1.219.062,1.828.094l.911.029a8.039,8.039,0,0,1,.892.105c.593.1,1.188.223,1.773.37l1.731.542,3.49,1.074c.582.176,1.165.355,1.735.556a1.447,1.447,0,0,1,.751.426,1.921,1.921,0,0,1,.376.809,1.786,1.786,0,0,0-.295-.871,1.015,1.015,0,0,0-.344-.331,4.592,4.592,0,0,0-.42-.209c-.565-.24-1.138-.45-1.711-.662-1.146-.42-2.307-.793-3.469-1.161-.589-.178-1.153-.358-1.763-.529a17.285,17.285,0,0,0-1.817-.308,8.339,8.339,0,0,0-.927-.055l-.916.025C1614.739,303.722,1614.129,303.74,1613.52,303.784Z" transform="translate(-1613.52 -303.665)" fill="#383839"/>
  </g>
  <path id="Path_4726" data-name="Path 4726" d="M1665.192,315.133c.031.033.065.064.1.1s.064.048.1.074v.056l-5.4-5.821,0,0Z" transform="translate(-1620.183 -280.607)" fill="none"/>
  <path id="Path_4727" data-name="Path 4727" d="M1660.169,309.276l5.2,5.594c.031.033.065.064.1.1s.064.048.1.074v.056l-5.449-5.862a1.281,1.281,0,0,0-.131-.118,1.3,1.3,0,0,1,.18.158Z" transform="translate(-1620.363 -280.345)" fill="none"/>
  <path id="Path_4728" data-name="Path 4728" d="M1674.339,309.276l.065.07-.117-.112a1.269,1.269,0,0,0-.131-.118,1.3,1.3,0,0,1,.18.158Z" transform="translate(-1634.533 -280.345)" fill="none"/>
  <path id="Path_4729" data-name="Path 4729" d="M1653.807,326.173" transform="translate(-1606.279 -290.984)" fill="#ed8700"/>
  <path id="Path_4730" data-name="Path 4730" d="M1659.987,324.861" transform="translate(-1614.784 -290.166)" fill="#ed8700"/>
  <path id="Path_4731" data-name="Path 4731" d="M1674.469,309.43" transform="translate(-1634.715 -280.541)" fill="#ed8700"/>
  <path id="Path_4732" data-name="Path 4732" d="M1641.928,325.882" transform="translate(-1589.93 -290.803)" fill="#d40014"/>
  <path id="Path_4733" data-name="Path 4733" d="M1590.7,315.748l1.063.049-.014.024-.8,1.769a.97.97,0,0,0-.754.65h0l-.018.063c-.005.018-.012.036-.016.055-.085.3-.329,1.19-.6,2.267L1589,321.7v-6.156Z" transform="translate(-1519.849 -284.355)" fill="none"/>
  <path id="Path_4734" data-name="Path 4734" d="M1596.659,321.637l-.329.638v-6.834l.329.039Z" transform="translate(-1527.505 -284.29)" fill="#242021"/>
  <path id="Path_4735" data-name="Path 4735" d="M1572.109,326.148a2.832,2.832,0,0,1,1.092,1.936c.119,1.262-.238,3.374,1.381,4.416s2.578,1.262,2.715,1.893l1.454.576s.055.117-.165.11c0,0-5.582-.74-7.467-1.316a.706.706,0,0,1-.248-.14c.107.014.172.021.172.021Z" transform="translate(-1500.024 -290.969)" fill="#242021"/>
  <path id="Path_4736" data-name="Path 4736" d="M1570.887,326.148a3.208,3.208,0,0,1,.673,1.081,2.921,2.921,0,0,1,.163,1.205,8.083,8.083,0,0,0,.178,2.705,2.952,2.952,0,0,0,.751,1.27,3.307,3.307,0,0,0,.583.452c.188.12.385.227.581.333.391.213.792.407,1.182.588s.786.363.887.652l.041.118.078.021c.5.141,1.008.286,1.526.395-.452-.275-.917-.515-1.382-.757l.118.14a1.17,1.17,0,0,0-.417-.675,4.376,4.376,0,0,0-.565-.405l-1.111-.687-.538-.35a2.555,2.555,0,0,1-.443-.36,2.587,2.587,0,0,1-.573-.965,5.749,5.749,0,0,1-.235-1.2l-.106-1.3a2.907,2.907,0,0,0-.415-1.331A2.619,2.619,0,0,0,1570.887,326.148Z" transform="translate(-1498.802 -290.969)" fill="#383839"/>
  <path id="Path_4737" data-name="Path 4737" d="M1586.341,318.006l.8-1.769.014-.024,1,.046-.948,2.044a.959.959,0,0,0-.869-.3Z" transform="translate(-1515.246 -284.771)" fill="#404040"/>
  <path id="Path_4738" data-name="Path 4738" d="M1586.317,315.635l-.682,2.307,1.214-2.077Z" transform="translate(-1513.671 -284.411)" fill="#383839"/>
  <path id="Path_4739" data-name="Path 4739" d="M1588.631,327.47l-.3-.2-.162-.1.01-.019.627-1.215.117-.228.329-.638.556-1.077c.267-1.077.511-1.962.6-2.267,0-.019.011-.037.016-.055l.018-.063h0a.969.969,0,0,1,.754-.65.974.974,0,0,1,1.131.955.978.978,0,0,1-.034.243l-.106.746-1.066,7.5s-.065-.007-.172-.021c-.461-.061-1.708-.266-1.949-.711a.885.885,0,0,1-.079-.3h0l-.019-.125-.131-.886Z" transform="translate(-1520.094 -287.721)" fill="#2c2b2d"/>
  <path id="Path_4740" data-name="Path 4740" d="M1595.211,332.327l-.3-.2-.162-.1.01-.019.626-1.215.117-.228.329-.638.556-1.077c.267-1.077-.875,5.5-.891,5.377h0l-.018-.125-.131-.886Z" transform="translate(-1526.675 -292.578)" fill="#404040"/>
  <path id="Path_4741" data-name="Path 4741" d="M1586.571,314.293l-1.693-.2-.329-.039-.128-.015a.838.838,0,0,1,.823-.823c.787,0,3.658.091,3.658.091a1.069,1.069,0,0,1,.439,1.116l-.7-.033-1-.046Z" transform="translate(-1515.724 -282.901)" fill="#2c2b2d"/>
  <path id="Path_4742" data-name="Path 4742" d="M1611.85,309.931l-3.885-4.883.515-.41,3.884,4.882c-.03.02-.058.044-.088.065a3.973,3.973,0,0,0-.343.274C1611.906,309.883,1611.877,309.906,1611.85,309.931Z" transform="translate(-1547.588 -277.552)" fill="#292c2d"/>
  <path id="Path_4743" data-name="Path 4743" d="M1607.965,304.638a22.451,22.451,0,0,0,1.791,2.561,22.17,22.17,0,0,0,2.093,2.321,22.159,22.159,0,0,0-1.791-2.561A22.454,22.454,0,0,0,1607.965,304.638Z" transform="translate(-1547.073 -277.552)" fill="#383839"/>
  <path id="Path_4744" data-name="Path 4744" d="M1603.185,332.384a.514.514,0,0,1,.1.4.447.447,0,0,1-.208.305.387.387,0,0,1-.556-.161l-.055-.137-.171.065h0l.191.029c-1.017-1.052-2.085-2.047-3.184-3.007a38.377,38.377,0,0,0-3.442-2.721,38.315,38.315,0,0,0,3.067,3.138c1.071.993,2.172,1.95,3.325,2.851l.1.079.09-.05h0l-.226-.072a.682.682,0,0,0,.475.309.646.646,0,0,0,.513-.159.585.585,0,0,0,.195-.461A.546.546,0,0,0,1603.185,332.384Z" transform="translate(-1534.07 -291.599)" fill="url(#linear-gradient)"/>
  <g id="Group_3028" data-name="Group 3028" transform="translate(0 0)">
    <path id="Path_4745" data-name="Path 4745" d="M1727.579,247.311l.152-.4s.018-.072.043-.187l.95,1.714-.394.224Z" transform="translate(-1708.952 -241.43)" fill="#f6f7f7"/>
    <path id="Path_4746" data-name="Path 4746" d="M1747.516,246.041a1.79,1.79,0,0,0-1.823.908,2.642,2.642,0,0,0-.023,1.893l-.359.546a3.432,3.432,0,0,1-.079-2.666,2.428,2.428,0,0,1,2.64-1.164c-.21.284-.341.462-.341.462Z" transform="translate(-1734.651 -240.678)" fill="#242021"/>
    <path id="Path_4747" data-name="Path 4747" d="M1745.473,249.246a6.824,6.824,0,0,1-.165-1.425,2.517,2.517,0,0,1,.337-1.3,2.021,2.021,0,0,1,1-.85,3.9,3.9,0,0,1,1.392-.259,2.659,2.659,0,0,0-1.49-.026,2.068,2.068,0,0,0-1.229.938,2.418,2.418,0,0,0-.305,1.507A3.639,3.639,0,0,0,1745.473,249.246Z" transform="translate(-1734.813 -240.537)" fill="#383839"/>
    <path id="Path_4748" data-name="Path 4748" d="M1735.417,245.619a1,1,0,1,0,1-1A1,1,0,0,0,1735.417,245.619Z" transform="translate(-1720.587 -240.116)" fill="#e69b01"/>
    <path id="Path_4749" data-name="Path 4749" d="M1736.174,246.521a1.141,1.141,0,1,0-1.141-1.142A1.142,1.142,0,0,0,1736.174,246.521Zm0-1.993a.852.852,0,1,1-.852.852A.853.853,0,0,1,1736.174,244.527Z" transform="translate(-1720.348 -239.877)" fill="#d88a00"/>
    <path id="Path_4750" data-name="Path 4750" d="M1694.69,319.429v-.835h1.126v.835l.99.565h-3.1Z" transform="translate(-1664.287 -286.257)" fill="#2c2b2d"/>
    <path id="Path_4751" data-name="Path 4751" d="M1696.979,319.994a8.778,8.778,0,0,0-1.366-.22c-.457-.044-.914-.058-1.372-.058l.1.323c.2-.166.4-.336.591-.518l.051-.048,0-.044c-.026-.278-.062-.557-.115-.835-.053.278-.089.556-.115.835l.046-.093c-.229.129-.451.269-.667.415l-.427.285.527.038c.457.033.915.052,1.373.041A8.822,8.822,0,0,0,1696.979,319.994Z" transform="translate(-1664.461 -286.257)" fill="#242021"/>
    <path id="Path_4752" data-name="Path 4752" d="M1695.583,301.109h.356v-7.4h1.689v9.363h-1.689v-.386h-.356Z" transform="translate(-1665.817 -270.735)" fill="url(#linear-gradient)"/>
    <path id="Path_4753" data-name="Path 4753" d="M1695.072,293.53c.281.025.563.043.845.059s.563.039.844.046l-.1-.1c-.028.78-.064,1.56-.073,2.341s-.018,1.561-.011,2.341.015,1.561.048,2.341l.044,1.17.073,1.171.023-.023-.281.023.281.023.022,0,0-.025.074-1.171.043-1.17c.033-.78.044-1.561.048-2.341s0-1.56-.011-2.341-.045-1.56-.073-2.341l0-.108-.1,0c-.281.008-.563.031-.844.046S1695.354,293.5,1695.072,293.53Z" transform="translate(-1664.951 -270.556)" fill="url(#linear-gradient)"/>
    <path id="Path_4754" data-name="Path 4754" d="M1758.948,305.522c1.629-1.286,3.9-.021,3.9-.021l.541-.3h0l.5.3v.637l.906.686s.441-.064.863-.122a1.15,1.15,0,0,0,.341.829l-.6.21.108.712-3.563,2.229c-2.1,2.058-1.431,5.38-1.431,5.38s-1.779-3.622-2.572-5.422A4.134,4.134,0,0,1,1758.948,305.522Z" transform="translate(-1757.482 -277.743)" fill="#242021"/>
    <path id="Path_4755" data-name="Path 4755" d="M1762.147,305.522c1.629-1.286,3.9-.021,3.9-.021l.542-.3h0l.5.3v.637l.906.686s-5.522,3.431-6.142,5.38c-.271-.577-.523-1.126-.717-1.565A4.134,4.134,0,0,1,1762.147,305.522Z" transform="translate(-1760.681 -277.743)" fill="#2c2b2d"/>
    <path id="Path_4756" data-name="Path 4756" d="M1718.855,251.4l.172-.1.395-.223.222-.126,3.06,5.392c-.956-1.131-1.926-2.182-2.782-3.066Z" transform="translate(-1699.649 -244.062)" fill="#242021"/>
    <path id="Path_4757" data-name="Path 4757" d="M1718.855,250.948a22.15,22.15,0,0,0,1.362,2.791,21.834,21.834,0,0,0,1.7,2.6,25.049,25.049,0,0,0-3.06-5.392Z" transform="translate(-1698.861 -244.062)" fill="#383839"/>
    <path id="Path_4758" data-name="Path 4758" d="M1703.14,253.645c.856.885,1.826,1.936,2.782,3.066,1.677,1.985,6.264,8.792,7.057,10.746v7.811s-2.359,1.382-3.861-.346-.34-3.765-1.019-5.464c-.593-1.482-7.107-13.613-8-15.515l.924-2.4C1701.5,251.992,1702.256,252.731,1703.14,253.645Z" transform="translate(-1682.868 -244.433)" fill="url(#linear-gradient)"/>
    <path id="Path_4759" data-name="Path 4759" d="M1702.856,260.876c.568.989,1.134,1.978,1.687,2.975,1.114,1.989,2.191,4,3.246,6.021.516,1.02,1.041,2.024,1.526,3.078.057.14.122.269.172.419a3.133,3.133,0,0,1,.126.46,4.762,4.762,0,0,1,.091.915c0,.6-.061,1.163-.071,1.713a3.9,3.9,0,0,0,.251,1.564,2.8,2.8,0,0,0,.96,1.228,2.535,2.535,0,0,0,1.536.4,4.62,4.62,0,0,0,1.242-.251v.065a4.106,4.106,0,0,1-1.223.388,2.825,2.825,0,0,1-1.752-.283,3.2,3.2,0,0,1-1.222-1.341,4.262,4.262,0,0,1-.393-1.765c-.022-.59.015-1.162,0-1.7a4.079,4.079,0,0,0-.1-.78,3.205,3.205,0,0,0-.276-.726c-.49-1.006-1.023-2.022-1.549-3.028-1.041-2.025-2.089-4.049-3.094-6.1s-2-4.1-2.878-6.21Z" transform="translate(-1683.901 -248.412)" fill="url(#linear-gradient)"/>
    <path id="Path_4760" data-name="Path 4760" d="M1713.794,277.425a.906.906,0,0,0,.747-1.386l-2.74-4.408a.906.906,0,0,0-1.537.959L1713,277A.905.905,0,0,0,1713.794,277.425Z" transform="translate(-1688.34 -256.697)" fill="#383839"/>
    <path id="Path_4761" data-name="Path 4761" d="M1750.029,272.037l2.83-11.37.429.359c-.785,3.759-2.128,10.72-2.792,13.914l-1.361.15-.148-.19.791-2.931Z" transform="translate(-1741.571 -250.125)" fill="none"/>
    <path id="Path_4762" data-name="Path 4762" d="M1748.659,246.865l.014-.021-1.163,5.56-.429-.359-.87-.727-.314-.262.556-.844.359-.546Z" transform="translate(-1735.794 -241.502)" fill="url(#linear-gradient-3)"/>
    <rect id="Rectangle_2125" data-name="Rectangle 2125" width="0.515" height="3.036" transform="translate(7.415 24.775) rotate(-164.866)" fill="#f6f7f7"/>
    <path id="Path_4763" data-name="Path 4763" d="M1751.123,270.831l-.25-.068-.5-.134-.247-.067,2.954-11.829.87.727Z" transform="translate(-1742.666 -248.919)" fill="#242021"/>
    <path id="Path_4764" data-name="Path 4764" d="M1753.241,270.764c-.243-.086-.486-.17-.731-.248l.034.059c.308-.97.572-1.952.851-2.929s.521-1.964.764-2.951.481-1.974.691-2.969.426-1.988.6-2.992c-.318.968-.6,1.944-.876,2.923s-.535,1.961-.786,2.945-.486,1.973-.713,2.963-.441,1.984-.626,2.985l-.009.049.044.01C1752.736,270.665,1752.988,270.715,1753.241,270.764Z" transform="translate(-1745.034 -248.919)" fill="#383839"/>
    <path id="Path_4765" data-name="Path 4765" d="M1758.063,298.464l1.362-.15-.172.831-1.25.369-1.092,1.748-.5-.3.5-1.432v-.611l.508-.775.5.134Z" transform="translate(-1750.499 -273.498)" fill="url(#linear-gradient)"/>
    <path id="Path_4766" data-name="Path 4766" d="M1728.74,261.087c.014-.082.216-1.064.526-2.555.054-.262.112-.539.172-.831.664-3.194,2.007-10.155,2.792-13.914.661-3.164,1.162-5.56,1.162-5.56s.131-.179.341-.462c.634-.855,1.994-2.666,2.7-3.438a6.266,6.266,0,0,1,1.127-.968,1.328,1.328,0,0,1,2.115.522h0c0,.009,0,.019.007.029a1.332,1.332,0,0,1,.078.384,8.806,8.806,0,0,1,0,2.692c-.028.131-.048.213-.048.213l-.173.449-.537,1.4-1.049,2.725-7.331,20.3s-.5,1.172-1.433.722a.744.744,0,0,1-.157-.107,1.149,1.149,0,0,1-.342-.829A3.413,3.413,0,0,1,1728.74,261.087Z" transform="translate(-1720.514 -232.885)" fill="url(#linear-gradient)"/>
    <path id="Path_4767" data-name="Path 4767" d="M1729.1,262.548a.9.9,0,0,1-.422-.623,2.488,2.488,0,0,1-.013-.771c.075-.511.228-1.023.337-1.534.241-1.021.484-2.042.7-3.07.444-2.053.909-4.1,1.323-6.161l1.272-6.172,1.249-6.177-.043.1c.632-.863,1.264-1.729,1.907-2.584.323-.425.649-.85.992-1.251a6.083,6.083,0,0,1,1.155-1.049l.012-.008,0,0a1.2,1.2,0,0,1,1.056-.281,1.232,1.232,0,0,1,.863.717l.018.043.037.013,0,0-.061-.068.007.028v.011a1.232,1.232,0,0,1,.084.355v.01a8.045,8.045,0,0,1,.138,1.331,8.439,8.439,0,0,1-.055,1.346,8.037,8.037,0,0,0,.153-1.345,8.2,8.2,0,0,0-.065-1.361v.009a1.432,1.432,0,0,0-.073-.412l0,.01-.006-.029-.01-.052-.051-.017h0l.055.056a1.465,1.465,0,0,0-.982-.906,1.432,1.432,0,0,0-.7-.017,1.51,1.51,0,0,0-.63.316l.016-.012a6.412,6.412,0,0,0-1.259,1.066c-.368.4-.71.818-1.051,1.235-.681.835-1.337,1.685-1.976,2.551l-.032.043-.012.055-1.319,6.162-1.207,6.185c-.412,2.06-.774,4.13-1.156,6.2-.19,1.033-.385,2.066-.563,3.1-.082.521-.205,1.028-.253,1.56a2.349,2.349,0,0,0,.066.8A.924.924,0,0,0,1729.1,262.548Z" transform="translate(-1720.42 -232.647)" fill="url(#linear-gradient)"/>
    <path id="Path_4768" data-name="Path 4768" d="M1740.952,249.011c-.474,1-.918,2.014-1.359,3.028-.417,1.023-.831,2.047-1.23,3.076-.808,2.055-1.573,4.126-2.33,6.2s-1.479,4.161-2.171,6.26c-.351,1.048-.688,2.1-1.021,3.156l-.241.795-.12.4a1.4,1.4,0,0,1-.165.35,1.148,1.148,0,0,1-.571.5.873.873,0,0,1-.762-.127.93.93,0,0,0,.792.24,1.294,1.294,0,0,0,.708-.5,1.6,1.6,0,0,0,.229-.376l.161-.382.322-.763c.417-1.022.83-2.046,1.23-3.076.808-2.055,1.574-4.127,2.331-6.2s1.479-4.164,2.171-6.264c.351-1.048.688-2.1,1.021-3.156S1740.64,250.074,1740.952,249.011Z" transform="translate(-1722.461 -242.854)" fill="url(#linear-gradient)"/>
    <path id="Path_4769" data-name="Path 4769" d="M1767.395,305.522c1.535-1.212,3.639-.16,3.876-.034-1.6.288-3.746,1.514-4.574,5.818,0,.006,0,.01,0,.016-.111-.243-.215-.473-.305-.678A4.133,4.133,0,0,1,1767.395,305.522Z" transform="translate(-1765.928 -277.743)" fill="#383839"/>
    <path id="Path_4770" data-name="Path 4770" d="M1700.116,303.072l-.281-.025.025.025.027-.386,0-.048-.056,0-.356-.024.076.076c.037-.526.047-1.051.072-1.577l-.148.148.356.015.158.006.005-.169c.033-1.233.035-2.467.016-3.7-.008-.617-.034-1.233-.061-1.85s-.065-1.233-.118-1.85c-.053.617-.1,1.233-.118,1.85s-.052,1.233-.061,1.85c-.019,1.233-.017,2.467.016,3.7l.163-.163-.356.014-.155.006.007.142c.025.526.035,1.051.072,1.577l.006.081.07,0,.356-.024-.052-.052.027.386,0,.027.023,0Z" transform="translate(-1669.713 -270.735)" fill="url(#linear-gradient-5)"/>
    <path id="Path_4771" data-name="Path 4771" d="M1747.728,252.4c-.481-.517-.987-1-1.508-1.475l.032.217c.491-.684.952-1.386,1.4-2.1a25.255,25.255,0,0,0,1.24-2.2,25.277,25.277,0,0,0-1.537,2.008c-.478.692-.942,1.393-1.376,2.113l-.079.131.111.086C1746.564,251.611,1747.134,252.022,1747.728,252.4Z" transform="translate(-1736.011 -241.502)" fill="url(#linear-gradient-3)"/>
    <path id="Path_4772" data-name="Path 4772" d="M1700.1,251.543c.547.634,1.117,1.24,1.674,1.86.289.3.554.62.822.939l.81.947c.53.637,1.11,1.241,1.619,1.885s1,1.321,1.475,2c.967,1.351,1.913,2.719,2.854,4.091l1.4,2.069c.464.691.914,1.389,1.308,2.125a28.3,28.3,0,0,0-2.324-4.44c-.868-1.428-1.8-2.816-2.763-4.182-.494-.676-.986-1.351-1.521-2-.266-.333-.563-.624-.846-.933l-.864-.91c-.585-.6-1.143-1.222-1.765-1.782S1700.734,252.083,1700.1,251.543Z" transform="translate(-1681.944 -244.433)" fill="url(#linear-gradient)"/>
    <path id="Path_4773" data-name="Path 4773" d="M1710.476,271.57a.942.942,0,0,0-.522,1.07,1.139,1.139,0,0,0,.122.312l.136.263.281.521c.377.694.782,1.37,1.194,2.043l.637,1,.329.491a1.606,1.606,0,0,0,.211.273,1.152,1.152,0,0,0,.306.21,1.071,1.071,0,0,0,1.292-.291.943.943,0,0,0,0-1.192.866.866,0,0,1-.209,1,.74.74,0,0,1-.875.084.686.686,0,0,1-.164-.144,1.358,1.358,0,0,1-.132-.206l-.294-.513-.611-1.012c-.421-.667-.848-1.33-1.3-1.975l-.343-.483-.176-.239a.923.923,0,0,1-.133-.219A.868.868,0,0,1,1710.476,271.57Z" transform="translate(-1688.264 -256.925)" fill="#242021"/>
  </g>
  <g id="Group_3033" data-name="Group 3033" transform="translate(34.499 15.764)">
    <g id="Group_3030" data-name="Group 3030" transform="translate(0.096 0)">
      <g id="Group_3029" data-name="Group 3029">
        <rect id="Rectangle_2126" data-name="Rectangle 2126" width="11.811" height="1.568" rx="0.784" fill="url(#linear-gradient)"/>
      </g>
    </g>
    <g id="Group_3032" data-name="Group 3032" transform="translate(0 0.336)">
      <g id="Group_3031" data-name="Group 3031">
        <path id="Path_4774" data-name="Path 4774" d="M1659.8,275.438q-.046.369-.08.738c-.005.064-.013.118-.016.189a.427.427,0,0,0,.065.232.444.444,0,0,0,.186.166.594.594,0,0,0,.229.049c.492.033.984.064,1.476.084.984.046,1.967.059,2.951.064s1.968-.017,2.951-.064,1.968-.105,2.951-.226c-.983-.121-1.967-.184-2.951-.226s-1.967-.058-2.951-.063-1.967.018-2.951.064c-.492.019-.984.05-1.476.084a.357.357,0,0,1-.133,0,.207.207,0,0,1-.1-.061.215.215,0,0,1-.054-.112l-.018-.179Q1659.85,275.807,1659.8,275.438Z" transform="translate(-1659.708 -275.438)" fill="url(#linear-gradient)"/>
      </g>
    </g>
    <path id="Path_4775" data-name="Path 4775" d="M1666.275,275.623a24.383,24.383,0,0,0-3.97-.288,24.093,24.093,0,0,0-3.97.288,24.09,24.09,0,0,0,3.97.288A24.389,24.389,0,0,0,1666.275,275.623Z" transform="translate(-1654.95 -275.038)" fill="url(#linear-gradient)"/>
  </g>
  <g id="Group_3036" data-name="Group 3036" transform="translate(48.758 29.138)">
    <path id="Path_4776" data-name="Path 4776" d="M1622.223,323.112a1.406,1.406,0,0,0,.134.515H1620.9v-.515Z" transform="translate(-1611.205 -318.212)" fill="#f6f7f7"/>
    <g id="Group_3034" data-name="Group 3034" transform="translate(0 4.482)">
      <path id="Path_4777" data-name="Path 4777" d="M1625.489,322.513h8.977v.965h-9.7A2.077,2.077,0,0,0,1625.489,322.513Z" transform="translate(-1624.77 -322.321)" fill="#2c2b2d"/>
      <path id="Path_4778" data-name="Path 4778" d="M1624.7,322.195c1.5.148,2.992.184,4.489.192s2.992-.036,4.488-.169l-.022-.023.022.225.023-.225,0-.021-.025,0c-1.5-.133-2.992-.17-4.488-.169S1626.2,322.047,1624.7,322.195Z" transform="translate(-1623.984 -322.003)" fill="#383839"/>
      <path id="Path_4779" data-name="Path 4779" d="M1634.4,324.48l-.021.225.021-.021c-.808-.069-1.616-.1-2.424-.134s-1.616-.036-2.424-.038-1.616.011-2.424.046-1.615.068-2.424.146c.808.078,1.616.115,2.424.146s1.616.041,2.424.046,1.616-.009,2.424-.038,1.616-.065,2.424-.134l.023,0,0-.019Z" transform="translate(-1624.709 -323.548)" fill="#242021"/>
    </g>
    <g id="Group_3035" data-name="Group 3035" transform="translate(1.234 0)">
      <path id="Path_4780" data-name="Path 4780" d="M1605.66,315.273a1.4,1.4,0,0,1,.077-.441l-8.915-3.607-.774-.313h0a.561.561,0,0,1-.04-.2.573.573,0,0,1,.573-.573.607.607,0,0,1,.074.008l0,0,.02,0,.057.014,10.959,2.652,7.316,8.955a.506.506,0,0,1,.076.093.5.5,0,0,1,.05.1.52.52,0,0,1-.94.439h0l-6.51-5.859a1.4,1.4,0,0,1-2.015-1.172C1605.667,315.336,1605.66,315.305,1605.66,315.273Z" transform="translate(-1595.886 -310.117)" fill="url(#linear-gradient)"/>
      <path id="Path_4781" data-name="Path 4781" d="M1627.7,316.512a1.353,1.353,0,0,1-1.456-.3,1.331,1.331,0,0,1-.347-.64,1.645,1.645,0,0,1-.028-.357,1.346,1.346,0,0,1,.083-.344l.066-.175-.186-.084q-2.384-1.076-4.818-2.029c-.808-.324-1.625-.63-2.442-.932s-1.641-.6-2.468-.857l.038.152h0l.036-.054-.021-.043a.489.489,0,0,1,.038-.487.543.543,0,0,1,.477-.239h.005l0,0,0,0-.007,0,.078.012-.075-.026h0l0,0,0,0,.007,0a.582.582,0,0,0-.571.182.647.647,0,0,0-.132.63l.015-.1h0l-.082.092.12.06c.787.392,1.58.747,2.377,1.1s1.6.7,2.4,1.028q2.414,1,4.873,1.892l-.12-.259a1.558,1.558,0,0,0-.071.463,1.961,1.961,0,0,0,.081.458,1.5,1.5,0,0,0,.512.739,1.482,1.482,0,0,0,.812.313A1.338,1.338,0,0,0,1627.7,316.512Z" transform="translate(-1615.903 -310.09)" fill="url(#linear-gradient)"/>
      <path id="Path_4782" data-name="Path 4782" d="M1596.008,310.134l.074.011h0l0,0h0c1.821.519,3.652,1,5.484,1.474s3.672.918,5.507,1.379l-.1-.065,1.84,2.23,1.846,2.224c1.244,1.472,2.489,2.943,3.765,4.39h0a.588.588,0,0,1,.119.164.479.479,0,0,1,.052.2.492.492,0,0,0-.037-.205.622.622,0,0,0-.111-.181h0c-1.163-1.538-2.357-3.052-3.551-4.565l-1.811-2.253-1.818-2.247-.041-.051-.062-.015c-1.844-.429-3.681-.879-5.529-1.291s-3.694-.825-5.552-1.2h0l0,0h0Z" transform="translate(-1595.313 -310.117)" fill="url(#linear-gradient)"/>
    </g>
  </g>
  <g id="Group_3061" data-name="Group 3061" transform="translate(53.833 34.991)">
    <ellipse id="Ellipse_140" data-name="Ellipse 140" cx="5.395" cy="5.395" rx="5.395" ry="5.395" transform="translate(10.789 10.811) rotate(-179.885)" fill="#292c2d"/>
    <ellipse id="Ellipse_141" data-name="Ellipse 141" cx="4.978" cy="4.978" rx="4.978" ry="4.978" transform="translate(10.282 10.482) rotate(-178.85)" fill="#1e2122"/>
    <path id="Path_4783" data-name="Path 4783" d="M1614.894,336.922a4.7,4.7,0,1,0-4.7-4.7A4.705,4.705,0,0,0,1614.894,336.922Zm0-8.845a4.145,4.145,0,1,1-4.144,4.145A4.15,4.15,0,0,1,1614.894,328.077Z" transform="translate(-1609.488 -326.816)" fill="#1e2122"/>
    <path id="Path_4784" data-name="Path 4784" d="M1610.768,332.468c0-.082-.012-.163-.012-.246s.008-.161.012-.242c0,.036-.009.07-.01.106l-.554-.037a4.674,4.674,0,0,1,.157-1.046l.54.128c-.008.031-.012.063-.019.093a4.17,4.17,0,0,1,.138-.445c-.012.032-.028.062-.039.094l-.519-.2a4.681,4.681,0,0,1,.46-.953l.478.282c-.018.027-.031.058-.048.085a4.153,4.153,0,0,1,.247-.365c-.016.021-.034.039-.049.06l-.438-.342a4.738,4.738,0,0,1,.717-.777l.374.409c-.024.021-.045.045-.07.067a4.083,4.083,0,0,1,.327-.266c-.013.009-.027.017-.039.026l-.317-.456a4.7,4.7,0,0,1,.914-.533l.237.5c-.028.012-.054.029-.081.041.116-.053.234-.1.356-.144l-.022.007-.169-.529a4.637,4.637,0,0,1,1.03-.239l.078.55-.035.006a4.2,4.2,0,0,1,.484-.031h0c-.061,0-.121.007-.181.009l-.006-.556c.062,0,.124-.009.187-.009a4.687,4.687,0,0,1,.868.084l-.086.548c.092.017.182.04.271.064l.158-.531a4.65,4.65,0,0,1,.986.384l-.244.5c.08.042.156.09.231.137l.308-.459a4.725,4.725,0,0,1,.829.656l-.379.4c.063.063.12.13.179.2l.428-.349a4.676,4.676,0,0,1,.6.871l-.479.273q.064.123.121.251l.512-.206c.044.1.081.2.118.3q.065.183.117.378c.028.108.056.217.077.329l-.539.118c.016.088.03.177.041.267l.55-.046a4.391,4.391,0,0,1,0,1.058l-.55-.045c-.011.089-.024.176-.04.263l.539.117a4.662,4.662,0,0,1-.31,1.013l-.512-.206c-.037.085-.078.169-.121.251l.48.273a4.719,4.719,0,0,1-.6.872l-.429-.348c-.059.068-.118.136-.182.2l.38.4a4.708,4.708,0,0,1-.829.657l-.308-.459c-.075.047-.15.094-.229.137l.246.5a4.647,4.647,0,0,1-.985.386l-.16-.531c-.09.024-.18.047-.271.065l.087.547a4.706,4.706,0,0,1-.876.085c-.06,0-.119-.007-.179-.009l0-.555c.058,0,.116.009.174.009h0a4.081,4.081,0,0,1-.482-.031l.036.006-.078.55a4.647,4.647,0,0,1-1.031-.239l.163-.515.006-.014.022.007q-.183-.064-.358-.144c.029.013.056.031.086.043l-.236.5a4.663,4.663,0,0,1-.915-.532l.317-.456c.012.009.026.016.038.025a4.186,4.186,0,0,1-.33-.268c.025.023.047.048.073.07l-.374.41a4.749,4.749,0,0,1-.718-.776l.437-.342c.015.021.033.038.048.059a4.034,4.034,0,0,1-.25-.368c.017.029.031.059.049.087l-.478.282a4.676,4.676,0,0,1-.461-.952l.518-.2c.011.032.027.062.039.094a4.238,4.238,0,0,1-.138-.445c.008.032.012.065.021.1l-.54.129a4.7,4.7,0,0,1-.158-1.046l.554-.037C1610.76,332.4,1610.766,332.433,1610.768,332.468Zm.027-.789q.011-.082.025-.163Q1610.807,331.6,1610.8,331.679Zm.34-1.179c.022-.049.046-.1.07-.145C1611.181,330.4,1611.158,330.451,1611.135,330.5Zm.671-1.026c.032-.036.063-.071.1-.106C1611.87,329.4,1611.838,329.438,1611.806,329.474Zm.954-.795c.034-.021.067-.042.1-.061C1612.827,328.637,1612.794,328.658,1612.76,328.679Zm1.161-.48.069-.018Zm.072,8.064-.07-.018Zm-1.127-.434c-.034-.02-.067-.041-.1-.061C1612.8,335.787,1612.832,335.809,1612.866,335.829Zm-.96-.75c-.033-.035-.065-.071-.1-.107C1611.841,335.009,1611.873,335.044,1611.906,335.079Zm-.7-.989q-.037-.072-.07-.146Q1611.17,334.018,1611.206,334.09Zm-.41-1.321c.007.055.016.109.025.163C1610.812,332.878,1610.8,332.823,1610.8,332.769Z" transform="translate(-1609.495 -326.816)" fill="#404040"/>
    <path id="Path_4785" data-name="Path 4785" d="M1618.616,333.491a2.454,2.454,0,1,1-2.454,2.454A2.457,2.457,0,0,1,1618.616,333.491Z" transform="translate(-1613.211 -330.54)" fill="#1e2122"/>
    <path id="Path_4786" data-name="Path 4786" d="M1616.478,330.061a3.745,3.745,0,1,1-3.745,3.745A3.749,3.749,0,0,1,1616.478,330.061Z" transform="translate(-1611.072 -328.4)" fill="none" stroke="#1d2124" stroke-miterlimit="10" stroke-width="0.25"/>
    <path id="Path_4787" data-name="Path 4787" d="M1618.962,334.044a2.246,2.246,0,1,1-2.246,2.246A2.249,2.249,0,0,1,1618.962,334.044Z" transform="translate(-1613.557 -330.885)" fill="#f6f7f7"/>
    <path id="Path_4788" data-name="Path 4788" d="M1619.652,335.152a1.829,1.829,0,1,1-1.829,1.829A1.831,1.831,0,0,1,1619.652,335.152Z" transform="translate(-1614.247 -331.576)" fill="#a3a4a9"/>
    <g id="Group_3038" data-name="Group 3038" transform="translate(4.757 4.757)">
      <g id="Group_3037" data-name="Group 3037">
        <path id="Path_4789" data-name="Path 4789" d="M1621.611,339.587a.648.648,0,1,0-.649-.649A.649.649,0,0,0,1621.611,339.587Zm0-1.158a.509.509,0,1,1-.51.509A.51.51,0,0,1,1621.611,338.43Z" transform="translate(-1620.962 -338.291)" fill="#1e2122"/>
      </g>
    </g>
    <g id="Group_3042" data-name="Group 3042" transform="translate(5.277 4.502)">
      <g id="Group_3041" data-name="Group 3041">
        <g id="Group_3040" data-name="Group 3040">
          <g id="Group_3039" data-name="Group 3039">
            <path id="Path_4790" data-name="Path 4790" d="M1622.473,337.869a.128.128,0,1,0-.128-.128A.128.128,0,0,0,1622.473,337.869Z" transform="translate(-1622.345 -337.613)" fill="#1e2122"/>
          </g>
        </g>
      </g>
    </g>
    <g id="Group_3049" data-name="Group 3049" transform="translate(4.737 4.72)">
      <g id="Group_3045" data-name="Group 3045" transform="translate(1.081)">
        <g id="Group_3044" data-name="Group 3044">
          <g id="Group_3043" data-name="Group 3043">
            <path id="Path_4791" data-name="Path 4791" d="M1621.036,338.448a.128.128,0,1,0-.128-.128A.128.128,0,0,0,1621.036,338.448Z" transform="translate(-1620.908 -338.192)" fill="#1e2122"/>
          </g>
        </g>
      </g>
      <g id="Group_3048" data-name="Group 3048">
        <g id="Group_3047" data-name="Group 3047">
          <g id="Group_3046" data-name="Group 3046">
            <path id="Path_4792" data-name="Path 4792" d="M1623.909,338.448a.128.128,0,1,0-.128-.128A.128.128,0,0,0,1623.909,338.448Z" transform="translate(-1623.781 -338.192)" fill="#1e2122"/>
          </g>
        </g>
      </g>
    </g>
    <g id="Group_3053" data-name="Group 3053" transform="translate(5.277 6.053)">
      <g id="Group_3052" data-name="Group 3052">
        <g id="Group_3051" data-name="Group 3051">
          <g id="Group_3050" data-name="Group 3050">
            <path id="Path_4793" data-name="Path 4793" d="M1622.473,341.734a.128.128,0,1,0,.128.128A.128.128,0,0,0,1622.473,341.734Z" transform="translate(-1622.345 -341.734)" fill="#1e2122"/>
          </g>
        </g>
      </g>
    </g>
    <g id="Group_3060" data-name="Group 3060" transform="translate(4.737 5.835)">
      <g id="Group_3056" data-name="Group 3056">
        <g id="Group_3055" data-name="Group 3055">
          <g id="Group_3054" data-name="Group 3054">
            <path id="Path_4794" data-name="Path 4794" d="M1623.909,341.155a.128.128,0,1,0,.128.128A.128.128,0,0,0,1623.909,341.155Z" transform="translate(-1623.781 -341.155)" fill="#1e2122"/>
          </g>
        </g>
      </g>
      <g id="Group_3059" data-name="Group 3059" transform="translate(1.081)">
        <g id="Group_3058" data-name="Group 3058">
          <g id="Group_3057" data-name="Group 3057">
            <path id="Path_4795" data-name="Path 4795" d="M1621.036,341.155a.128.128,0,1,0,.128.128A.128.128,0,0,0,1621.036,341.155Z" transform="translate(-1620.908 -341.155)" fill="#1e2122"/>
          </g>
        </g>
      </g>
    </g>
  </g>
  <path id="Path_4796" data-name="Path 4796" d="M1615.431,311.015c.068-.879.1-1.757.147-2.636l.049-1.318.018-.659a2.7,2.7,0,0,0-.012-.351,1.461,1.461,0,0,0-.054-.359l-.195.287,1.851-.2.231-.025a.42.42,0,0,1,.152,0l.419.116.9.248c1.193.335,2.393.646,3.592.959s2.4.606,3.611.889l.906.209a2.92,2.92,0,0,1,.415.108.5.5,0,0,1,.245.274,1.7,1.7,0,0,1,.047.43l.024.465c.014.31.04.62.06.929.021-.31.046-.62.06-.929l.024-.465a1.792,1.792,0,0,0-.008-.494.742.742,0,0,0-.318-.438,2.212,2.212,0,0,0-.468-.175l-.888-.276q-1.779-.546-3.567-1.052c-1.193-.334-2.386-.669-3.586-.982l-.9-.238-.225-.059c-.082-.02-.13-.038-.255-.06a1,1,0,0,0-.31.008l-.23.033-1.837.267-.267.039.072.248.041.143.018.146a2.177,2.177,0,0,1,.027.306l.018.659.049,1.318C1615.333,309.258,1615.362,310.136,1615.431,311.015Z" transform="translate(-1565.824 -277.905)" fill="url(#linear-gradient)"/>
  <g id="Group_3062" data-name="Group 3062" transform="translate(14.829 4.405)">
    <path id="Path_4797" data-name="Path 4797" d="M1735.417,245.619a1,1,0,1,0,1-1A1,1,0,0,0,1735.417,245.619Z" transform="translate(-1735.417 -244.521)" fill="url(#linear-gradient-29)"/>
    <path id="Path_4798" data-name="Path 4798" d="M1734.905,245.451a1.1,1.1,0,0,0,1,1.093,1.1,1.1,0,1,0,0-2.186A1.1,1.1,0,0,0,1734.905,245.451Zm0,0a.9.9,0,0,1,1-.9.906.906,0,0,1,0,1.8.9.9,0,0,1-1-.9Z" transform="translate(-1734.905 -244.354)" fill="url(#linear-gradient-30)"/>
  </g>
  <g id="Group_3063" data-name="Group 3063" transform="translate(26.695 27.792)">
    <path id="Path_4799" data-name="Path 4799" d="M1703.879,307.779a1,1,0,1,0,1-1A1,1,0,0,0,1703.879,307.779Z" transform="translate(-1703.878 -306.681)" fill="url(#linear-gradient-29)"/>
    <path id="Path_4800" data-name="Path 4800" d="M1703.367,307.611a1.1,1.1,0,0,0,1,1.093,1.1,1.1,0,1,0,0-2.186A1.1,1.1,0,0,0,1703.367,307.611Zm0,0a.9.9,0,0,1,1-.9.906.906,0,0,1,0,1.8.9.9,0,0,1-1-.9Z" transform="translate(-1703.367 -306.514)" fill="url(#linear-gradient-30)"/>
  </g>
  <path id="Path_4801" data-name="Path 4801" d="M1584.279,312.988a12.378,12.378,0,0,0,1.826.227c.608.033,1.217.043,1.826.018l-.072-.021a.824.824,0,0,1,.207.162.906.906,0,0,1,.166.23,1.378,1.378,0,0,1,.143.591,1.184,1.184,0,0,0,.069-.321,1.106,1.106,0,0,0-.03-.339,1.152,1.152,0,0,0-.144-.321,1.03,1.03,0,0,0-.257-.267l-.022-.016-.05,0c-.609-.056-1.22-.076-1.83-.074A12.232,12.232,0,0,0,1584.279,312.988Z" transform="translate(-1514.759 -282.675)" fill="#383839"/>
  <path id="Path_4802" data-name="Path 4802" d="M1587.964,320.907a1,1,0,0,1,.456.1.956.956,0,0,1,.337.28.885.885,0,0,1,.161.382.763.763,0,0,1,.006.2l-.045.192,0,.021c-.144.68-.266,1.364-.382,2.048s-.212,1.371-.3,2.06a38.731,38.731,0,0,0-.331,4.157l.025-.02-.174,0,.169.044.019,0,.007-.025a38.884,38.884,0,0,0,.841-4.084c.11-.685.2-1.373.289-2.061s.153-1.379.2-2.073l0,.021.022-.285a1.054,1.054,0,0,0-.344-.733,1.01,1.01,0,0,0-.46-.246A.954.954,0,0,0,1587.964,320.907Z" transform="translate(-1516.869 -287.672)" fill="#383839"/>
  <g id="Group_3064" data-name="Group 3064" transform="translate(13.105 12.278)">
    <path id="Path_4803" data-name="Path 4803" d="M1742.724,265.893a.484.484,0,1,0,.484-.484A.484.484,0,0,0,1742.724,265.893Z" transform="translate(-1742.724 -265.36)" fill="url(#linear-gradient-33)"/>
    <path id="Path_4804" data-name="Path 4804" d="M1742.475,265.812a.534.534,0,0,0,.484.531.533.533,0,1,0,0-1.062A.534.534,0,0,0,1742.475,265.812Zm0,0a.45.45,0,0,1,.151-.333.445.445,0,0,1,.333-.1.44.44,0,0,1,0,.874.438.438,0,0,1-.484-.438Z" transform="translate(-1742.475 -265.279)" fill="url(#linear-gradient-33)"/>
  </g>
  <g id="Group_3065" data-name="Group 3065" transform="translate(20.723 12.718)">
    <path id="Path_4805" data-name="Path 4805" d="M1722.476,267.063a.484.484,0,1,0,.484-.484A.485.485,0,0,0,1722.476,267.063Z" transform="translate(-1722.476 -266.53)" fill="url(#linear-gradient-35)"/>
    <path id="Path_4806" data-name="Path 4806" d="M1722.226,266.982a.534.534,0,0,0,.484.531.533.533,0,1,0,0-1.062A.535.535,0,0,0,1722.226,266.982Zm0,0a.437.437,0,0,1,.484-.437.44.44,0,0,1,0,.875.438.438,0,0,1-.484-.438Z" transform="translate(-1722.226 -266.448)" fill="url(#linear-gradient-36)"/>
  </g>
  <g id="Group_3066" data-name="Group 3066" transform="translate(26.413 21.887)">
    <path id="Path_4807" data-name="Path 4807" d="M1707.355,291.433a.484.484,0,1,0,.484-.484A.484.484,0,0,0,1707.355,291.433Z" transform="translate(-1707.355 -290.9)" fill="url(#linear-gradient-37)"/>
    <path id="Path_4808" data-name="Path 4808" d="M1707.106,291.352a.534.534,0,0,0,.484.531.533.533,0,1,0,0-1.062A.534.534,0,0,0,1707.106,291.352Zm0,0a.437.437,0,0,1,.484-.437.44.44,0,0,1,0,.875.437.437,0,0,1-.484-.438Z" transform="translate(-1707.106 -290.819)" fill="url(#linear-gradient-37)"/>
  </g>
  <g id="Group_3067" data-name="Group 3067" transform="translate(60.953 33.884)">
    <path id="Path_4809" data-name="Path 4809" d="M1615.553,323.318a.484.484,0,1,0,.485-.484A.484.484,0,0,0,1615.553,323.318Z" transform="translate(-1615.553 -322.785)" fill="url(#linear-gradient-39)"/>
    <path id="Path_4810" data-name="Path 4810" d="M1615.3,323.237a.534.534,0,0,0,.484.531.533.533,0,1,0,0-1.062A.534.534,0,0,0,1615.3,323.237Zm0,0a.437.437,0,0,1,.484-.437.44.44,0,0,1,0,.875.437.437,0,0,1-.484-.438Z" transform="translate(-1615.304 -322.704)" fill="url(#linear-gradient-39)"/>
  </g>
  <g id="Group_3068" data-name="Group 3068" transform="translate(11.792 16.721)">
    <ellipse id="Ellipse_142" data-name="Ellipse 142" cx="0.484" cy="0.484" rx="0.484" ry="0.484" transform="translate(0 0.049)" fill="url(#linear-gradient-41)"/>
    <path id="Path_4811" data-name="Path 4811" d="M1745.965,277.622a.535.535,0,0,0,.484.531.533.533,0,1,0,0-1.062A.535.535,0,0,0,1745.965,277.622Zm0,0a.438.438,0,0,1,.484-.437.44.44,0,1,1-.333.77A.45.45,0,0,1,1745.965,277.622Z" transform="translate(-1745.965 -277.089)" fill="url(#linear-gradient-35)"/>
  </g>
  <g id="Group_3069" data-name="Group 3069" transform="translate(39.858 18.104)">
    <path id="Path_4812" data-name="Path 4812" d="M1655.084,290.447c.206.089,6.485,6.436,6.485,6.436a1.352,1.352,0,0,0,.3.194h-.763a1.312,1.312,0,0,1-.957-.417l-5.2-5.594a2.079,2.079,0,0,0-.514-.4v-9.9Z" transform="translate(-1654.427 -280.764)" fill="#3d6d70"/>
  </g>
  <g id="Group_3070" data-name="Group 3070" transform="translate(46.406 36.182)">
    <rect id="Rectangle_2127" data-name="Rectangle 2127" width="5.982" height="3.649" transform="translate(0.187 0.191)" fill="url(#linear-gradient)"/>
    <rect id="Rectangle_2128" data-name="Rectangle 2128" width="5.982" height="1.824" transform="translate(0.187 2.016)" fill="url(#linear-gradient)"/>
    <path id="Path_4813" data-name="Path 4813" d="M1644.5,334.044l4.438-.193-4.437-.193Z" transform="translate(-1644.312 -331.835)" fill="url(#linear-gradient)"/>
    <path id="Path_4814" data-name="Path 4814" d="M1639.993,333.435c1,.114,1.994.166,2.991.184s1.994.007,2.991-.04l.151-.007-.006-.138c-.027-.608-.075-2.761-.145-3.369-.07.608-.118,2.76-.145,3.369l.145-.145c-1-.046-1.994-.056-2.991-.039S1640.99,333.321,1639.993,333.435Z" transform="translate(-1639.806 -329.595)" fill="url(#linear-gradient)"/>
    <path id="Path_4815" data-name="Path 4815" d="M1646.562,329c-1-.093-1.994-.143-2.991-.169s-1.994-.026-2.991-.015l-.186,0,0,.182c.019,1.216.071,2.432.184,3.649.113-1.216.166-2.433.184-3.649l-.184.184c1,.01,1.994.014,2.991-.015S1645.565,329.1,1646.562,329Z" transform="translate(-1640.394 -328.813)" fill="url(#linear-gradient)"/>
  </g>
</svg>
