<svg xmlns="http://www.w3.org/2000/svg" xmlns:xlink="http://www.w3.org/1999/xlink" width="59.322" height="40.194" viewBox="0 0 59.322 40.194">
  <defs>
    <linearGradient id="linear-gradient" x1="1" y1="0.5" x2="0" y2="0.5" gradientUnits="objectBoundingBox">
      <stop offset="0" stop-color="#827cbc"/>
      <stop offset="1" stop-color="#4762af"/>
    </linearGradient>
    <linearGradient id="linear-gradient-4" x1="1" y1="0.5" x2="0" y2="0.5" gradientUnits="objectBoundingBox">
      <stop offset="0" stop-color="#3b393c"/>
      <stop offset="0.261" stop-color="#4b4b4d"/>
      <stop offset="0.513" stop-color="#59595b"/>
      <stop offset="0.917" stop-color="#95969a"/>
      <stop offset="1" stop-color="#95969a"/>
    </linearGradient>
    <clipPath id="clip-path">
      <path id="Path_2703" data-name="Path 2703" d="M-231.2,1560.152l-9.87,1.916a3.524,3.524,0,0,0-2.5,2.295l-.328,1.1,13.425-2.323Z" transform="translate(243.894 -1560.152)" fill="#454545" opacity="0.5" style="mix-blend-mode: screen;isolation: isolate"/>
    </clipPath>
    <radialGradient id="radial-gradient" cx="0.5" cy="0.5" r="0.318" gradientTransform="translate(-1235.333 -737.469) rotate(180) scale(1.573 1.571)" gradientUnits="objectBoundingBox">
      <stop offset="0" stop-color="#fff"/>
      <stop offset="0.27" stop-color="#fff"/>
      <stop offset="0.381" stop-color="#fcfcfc"/>
      <stop offset="0.452" stop-color="#f4f3f5"/>
      <stop offset="0.51" stop-color="#e7e5e8"/>
      <stop offset="0.563" stop-color="#d4d0d7"/>
      <stop offset="0.604" stop-color="#c0bac4"/>
      <stop offset="0.621" stop-color="#c8c3cb"/>
      <stop offset="0.678" stop-color="#e0dde2"/>
      <stop offset="0.737" stop-color="#f1f0f2"/>
      <stop offset="0.797" stop-color="#fbfbfb"/>
      <stop offset="0.862" stop-color="#fff"/>
      <stop offset="0.907" stop-color="#fcfcfc"/>
      <stop offset="0.936" stop-color="#f4f3f5"/>
      <stop offset="0.961" stop-color="#e6e4e8"/>
      <stop offset="0.983" stop-color="#d3cfd6"/>
      <stop offset="1" stop-color="#c0bac4"/>
    </radialGradient>
  </defs>
  <g id="Group_15817" data-name="Group 15817" transform="translate(0)">
    <g id="Group_2240" data-name="Group 2240" transform="translate(24.504 11.262)">
      <g id="Group_2239" data-name="Group 2239" transform="translate(0 0)">
        <path id="Path_2604" data-name="Path 2604" d="M-334.134,1582.581l-1.815,1.956h2.073Z" transform="translate(345.304 -1574.927)" fill="#0f0f0f"/>
        <path id="Path_2605" data-name="Path 2605" d="M-324.11,1546.2l.249,1.189-.125.181-.275-1.173Z" transform="translate(333.112 -1545.32)" fill="#2b2b2b"/>
        <path id="Path_2606" data-name="Path 2606" d="M-322.192,1555.282l1.205-.152.131-.177-1.2.122Z" transform="translate(329.722 -1552.441)" fill="#2b2b2b"/>
        <path id="Path_2607" data-name="Path 2607" d="M-326.191,1590.884h-10.383v1.515h9.566Z" transform="translate(337.735 -1581.684)" fill="#23211f"/>
        <path id="Path_2608" data-name="Path 2608" d="M-326.191,1594.836h-10.383v.78h9.566Z" transform="translate(337.735 -1584.9)" fill="#696969" style="mix-blend-mode: multiply;isolation: isolate"/>
        <path id="Path_2609" data-name="Path 2609" d="M-328.908,1551.412l-1.98-1.478-.45.563,1.746,1.783Z" transform="translate(339.477 -1548.357)" fill="#525252"/>
        <path id="Path_2610" data-name="Path 2610" d="M-327.073,1553.047l-.265.336-1.746-1.784.249-.311C-328.488,1551.628-327.313,1552.8-327.073,1553.047Z" transform="translate(337.223 -1549.458)" fill="#525252" opacity="0.4" style="mix-blend-mode: multiply;isolation: isolate"/>
        <path id="Path_2611" data-name="Path 2611" d="M-321.195,1550.647l-.145-.149.451-.563.119.089Q-320.975,1550.34-321.195,1550.647Z" transform="translate(329.479 -1548.357)" fill="#525252" style="mix-blend-mode: multiply;isolation: isolate"/>
        <path id="Path_2612" data-name="Path 2612" d="M-330.743,1554.539l.831.62-.684.869-.742-.758C-331.134,1555.032-330.935,1554.786-330.743,1554.539Z" transform="translate(340.481 -1552.104)" fill="#525252" style="mix-blend-mode: multiply;isolation: isolate"/>
        <path id="Path_2613" data-name="Path 2613" d="M-330.717,1552.169l-.469-.251-1.314,1.677.31.539Z" transform="translate(341.503 -1549.971)" fill="#0f0f0f"/>
        <path id="Path_2614" data-name="Path 2614" d="M-324.1,1545.767c-.17.227-.209.485-.088.575h0c.121.09.356-.021.526-.249l1.353-1.816c.169-.227.209-.485.088-.575h0c-.121-.09-.357.022-.526.249Z" transform="translate(331.406 -1543.259)" fill="#0f0f0f"/>
        <path id="Path_2615" data-name="Path 2615" d="M-342.282,1552.836l-.3-1.389-1.333.088-1.54,2s-.131.113,0,.432,2.066,5.446,2.066,5.446l1.953-1.052Z" transform="translate(354.645 -1549.588)" fill="#914a17"/>
        <path id="Path_2616" data-name="Path 2616" d="M-344.09,1552.836l-.3-1.389-.894.059,1.339,6s-1.618.93-1.568,1.062l.315.836,1.953-1.052Z" transform="translate(356.453 -1549.588)" fill="#914a17" opacity="0.5" style="mix-blend-mode: multiply;isolation: isolate"/>
        <path id="Path_2617" data-name="Path 2617" d="M-315.1,1572.326s4.449.338,6.336.647a1.11,1.11,0,0,1,.789.958c.169.845.422,3.689.422,3.689h-5.266Z" transform="translate(315.104 -1566.58)" fill="#363432"/>
        <path id="Path_2618" data-name="Path 2618" d="M-312.48,1574.86l-1.091-2.534s4.449.338,6.336.647a1.11,1.11,0,0,1,.789.958c.042.21.089.545.136.929Z" transform="translate(313.571 -1566.58)" fill="#5c5c5c"/>
        <path id="Path_2619" data-name="Path 2619" d="M-312.724,1574.741s2.58.188,4.222.458a.965.965,0,0,1,.686.833c.147.735.327,2.77.327,2.77H-311l-.378-2.859-1.308-.929Z" transform="translate(314.593 -1568.546)" fill="#696969" style="mix-blend-mode: multiply;isolation: isolate"/>
        <g id="Group_2237" data-name="Group 2237" transform="translate(1.869 6.195)">
          <path id="Path_2620" data-name="Path 2620" d="M-308.577,1575.366c-1.449-.238-3.628-.413-4.12-.451l-.027-.175s2.58.188,4.222.458a.965.965,0,0,1,.686.833c.147.735.327,2.77.327,2.77h-.09c-.046-.5-.19-2-.312-2.6A.964.964,0,0,0-308.577,1575.366Z" transform="translate(312.724 -1574.741)" fill="#696969" style="mix-blend-mode: multiply;isolation: isolate"/>
        </g>
        <path id="Path_2621" data-name="Path 2621" d="M-325.969,1551.313l-1.118-.849-.047.061,1.047.938Z" transform="translate(335.755 -1548.788)" fill="#525252" style="mix-blend-mode: screen;isolation: isolate"/>
        <g id="Group_2238" data-name="Group 2238" transform="translate(0.759)">
          <path id="Path_2622" data-name="Path 2622" d="M-309.831,1546.66s1.437.094,1.493.638-.5.626-1.079.6l-4.491-.528a.524.524,0,0,1-.41-.352,47.51,47.51,0,0,1-.807-4.713s-.038-.826.469-.844a1.2,1.2,0,0,1,1.183.882c.187.582.544,3.623-.038,4.3,0,0,.312-.234,1.483-.169C-311.183,1546.519-309.831,1546.66-309.831,1546.66Z" transform="translate(315.125 -1541.459)" fill="#303030"/>
          <path id="Path_2623" data-name="Path 2623" d="M-314.317,1541.459a1.137,1.137,0,0,1,.6.148l-.043,0c-.246-.009-.574.147-.567.434a2.078,2.078,0,0,0,.146.583,5.332,5.332,0,0,1,.214.818,13.074,13.074,0,0,1,.131,1.766c.006.278-.017.625.219.823a.477.477,0,0,0,.607-.12.83.83,0,0,0,.118-.2,1.816,1.816,0,0,1-.284.931,1.566,1.566,0,0,1,.746-.169c.12.229.173.49.436.609a4.475,4.475,0,0,0,1.109.211c.523.082,1.049.153,1.574.219.414.053.832.075,1.249.108-.156.257-.578.3-1.02.278l-4.491-.528a.524.524,0,0,1-.41-.352,47.507,47.507,0,0,1-.807-4.713S-314.824,1541.478-314.317,1541.459Z" transform="translate(314.787 -1541.458)" fill="#0f0f0f"/>
          <path id="Path_2624" data-name="Path 2624" d="M-291.256,1568.232s.576-1.032,1.4-1.052.468,1.245.468,1.245Z" transform="translate(291.658 -1562.392)" fill="#262626"/>
          <path id="Path_2625" data-name="Path 2625" d="M-288.551,1542.552s.427.039.662.966a9.765,9.765,0,0,1,.155,3.142S-287.8,1543.5-288.551,1542.552Z" transform="translate(289.509 -1542.349)" fill="#303030" style="mix-blend-mode: screen;isolation: isolate"/>
          <path id="Path_2626" data-name="Path 2626" d="M-288.553,1569.7a.249.249,0,0,0,.248.249.249.249,0,0,0,.249-.249.249.249,0,0,0-.249-.249A.248.248,0,0,0-288.553,1569.7Z" transform="translate(289.901 -1564.24)"/>
          <path id="Path_2627" data-name="Path 2627" d="M-287.938,1570.2a.134.134,0,0,0,.134.134.134.134,0,0,0,.135-.134.135.135,0,0,0-.135-.134A.134.134,0,0,0-287.938,1570.2Z" transform="translate(289.4 -1564.74)" fill="#262626"/>
          <path id="Path_2628" data-name="Path 2628" d="M-310.816,1569.508s.083-.528-1.363-.708c0,0-2.373-.233-2.612-.2,0,0,2.689.245,3.2.4A1.62,1.62,0,0,1-310.816,1569.508Z" transform="translate(317.545 -1563.547)" fill="#303030" style="mix-blend-mode: screen;isolation: isolate"/>
        </g>
      </g>
    </g>
    <g id="Group_2243" data-name="Group 2243" transform="translate(35.544 0.228)">
      <g id="Group_2242" data-name="Group 2242" transform="translate(0)">
        <path id="Path_2629" data-name="Path 2629" d="M-335.893,1486.141h-.355s-.257.171.021.409h.309Z" transform="translate(336.356 -1485.405)" fill="#727271"/>
        <g id="Group_2241" data-name="Group 2241" transform="translate(0.261)">
          <path id="Path_2630" data-name="Path 2630" d="M-339.19,1482.186a.783.783,0,0,1,.1.007v1.867a.741.741,0,0,1-.1.007c-.428,0-.656-.355-.774-.758v-.365A.766.766,0,0,1-339.19,1482.186Z" transform="translate(339.964 -1482.186)"/>
          <path id="Path_2631" data-name="Path 2631" d="M-342.364,1482.224s.445.136.447.933c0,.879-.447.934-.447.934Z" transform="translate(343.237 -1482.217)" fill="#ed3a0f"/>
        </g>
      </g>
      <path id="Path_2632" data-name="Path 2632" d="M-341.921,1482.955a1.384,1.384,0,0,1,.282,1.032s-.052-.439-.282-.582Z" transform="translate(343.135 -1482.812)" fill="#ffd4a8" style="mix-blend-mode: screen;isolation: isolate"/>
    </g>
    <g id="Group_2246" data-name="Group 2246" transform="translate(20.086 0.228)">
      <g id="Group_2245" data-name="Group 2245">
        <path id="Path_2633" data-name="Path 2633" d="M-259.318,1486.141h.354s.258.171-.02.409h-.309Z" transform="translate(260.436 -1485.405)" fill="#727271"/>
        <g id="Group_2244" data-name="Group 2244" transform="translate(0)">
          <path id="Path_2634" data-name="Path 2634" d="M-257.816,1482.186a.779.779,0,0,0-.1.007v1.867a.737.737,0,0,0,.1.007c.427,0,.656-.355.774-.758v-.365A.766.766,0,0,0-257.816,1482.186Z" transform="translate(258.362 -1482.186)"/>
          <path id="Path_2635" data-name="Path 2635" d="M-252.779,1482.224s-.447.136-.447.933c0,.879.447.934.447.934Z" transform="translate(253.226 -1482.217)" fill="#ed3a0f"/>
        </g>
      </g>
      <path id="Path_2636" data-name="Path 2636" d="M-252.509,1482.955a1.384,1.384,0,0,0-.282,1.032s.052-.439.282-.582Z" transform="translate(252.876 -1482.812)" fill="#ffd4a8" style="mix-blend-mode: screen;isolation: isolate"/>
    </g>
    <path id="Path_2637" data-name="Path 2637" d="M-357.725,1608.143l13.553.913,2.421-5.142h3.478l-3.978,9.859h-15.474Z" transform="translate(378.258 -1581.027)" fill="#292929"/>
    <path id="Path_2638" data-name="Path 2638" d="M-344.855,1612.768v-4.625l13.553.913,2.421-5.142h1.082c-.921,1.728-1.763,3.5-2.7,5.219-.666,1.226-1.376,2.427-2.076,3.635Z" transform="translate(365.388 -1581.026)" fill="#292929" style="mix-blend-mode: multiply;isolation: isolate"/>
    <path id="Path_2639" data-name="Path 2639" d="M-339.013,1603.914h34.975l-4.153,8h-32.7v-5.711S-340.85,1604.045-339.013,1603.914Z" transform="translate(340.889 -1581.026)" fill="#807be5"/>
    <path id="Path_2640" data-name="Path 2640" d="M-288.024,1641.847l-.49.943h-32.7v-.943Z" transform="translate(321.212 -1611.898)" fill="#292929"/>
    <path id="Path_2641" data-name="Path 2641" d="M-340.889,1607.718v-1.51s.039-2.162,1.876-2.293h34.975l-1.973,3.8Z" transform="translate(340.889 -1581.026)" fill="#292929"/>
    <path id="Path_2642" data-name="Path 2642" d="M-269.142,1608.41a16.15,16.15,0,0,1,3.058-4.5h17.2a11.919,11.919,0,0,1,2.028,3.926,25.792,25.792,0,0,1,.9,4.078h-23.566v-2.64Q-269.342,1608.838-269.142,1608.41Z" transform="translate(269.522 -1581.026)" fill="url(#linear-gradient)"/>
    <path id="Path_2643" data-name="Path 2643" d="M-256.615,1557.339a4.2,4.2,0,0,1,2.849-1.581l10.825-2.223,2.328,9.378h-17.725Z" transform="translate(262.097 -1540.026)" fill="url(#linear-gradient)"/>
    <path id="Path_2644" data-name="Path 2644" d="M-241.1,1562.236c0-.029-1.726-6.06-2.4-8.585l.561-.115,2.328,9.378h-17.725l.253-.817C-256.971,1562.047-241.1,1562.236-241.1,1562.236Z" transform="translate(262.097 -1540.026)" fill="url(#linear-gradient)"/>
    <g id="Group_2255" data-name="Group 2255" transform="translate(1.21 19.776)">
      <g id="Group_2252" data-name="Group 2252" transform="translate(1.084 1.514)">
        <path id="Path_2645" data-name="Path 2645" d="M-255.071,1606.206a9.131,9.131,0,0,0,9.131,9.13,9.131,9.131,0,0,0,9.13-9.13,9.131,9.131,0,0,0-9.13-9.131A9.131,9.131,0,0,0-255.071,1606.206Z" transform="translate(255.392 -1596.751)" fill="#0f0f0f"/>
        <path id="Path_2646" data-name="Path 2646" d="M-256.251,1604.879v-.425l-.552.094a9.418,9.418,0,0,1,.63-3.173l.6.047.165-.392-.569-.133a9.476,9.476,0,0,1,1.8-2.66l.556.284.3-.3-.488-.352a9.462,9.462,0,0,1,2.743-1.788l.413.493.4-.156-.32-.528a9.41,9.41,0,0,1,2.974-.555l.2.609h.426l-.1-.608a9.42,9.42,0,0,1,3.186.653l-.049.639.392.165.14-.6a9.494,9.494,0,0,1,2.655,1.828l-.284.557.3.3.351-.486a9.464,9.464,0,0,1,1.764,2.763l-.467.391.156.4.5-.3a9.43,9.43,0,0,1,.531,2.973l-.553.185v.426l.549-.094a9.407,9.407,0,0,1-.671,3.17l-.56-.043-.165.392.522.122a9.479,9.479,0,0,1-1.829,2.634l-.482-.246-.3.3.419.3a9.473,9.473,0,0,1-2.746,1.752l-.341-.407-.4.156.261.432a9.4,9.4,0,0,1-2.954.537l-.165-.494h-.426l.084.492a9.414,9.414,0,0,1-3.158-.649l.04-.527-.391-.165-.116.493a9.463,9.463,0,0,1-2.64-1.8l.245-.48-.3-.3-.3.42a9.453,9.453,0,0,1-1.776-2.727l.431-.362-.155-.4-.465.281a9.448,9.448,0,0,1-.561-2.955Z" transform="translate(256.803 -1595.333)" fill="#292929"/>
        <g id="Group_2251" data-name="Group 2251" transform="translate(1.108 1.108)">
          <path id="Path_2647" data-name="Path 2647" d="M-250.838,1609.631a8.343,8.343,0,0,0,8.343,8.343,8.343,8.343,0,0,0,8.342-8.343,8.343,8.343,0,0,0-8.342-8.343A8.343,8.343,0,0,0-250.838,1609.631Z" transform="translate(250.838 -1601.288)" fill="#0f0f0f"/>
          <g id="Group_2247" data-name="Group 2247" style="mix-blend-mode: screen;isolation: isolate">
            <path id="Path_2648" data-name="Path 2648" d="M-250.2,1607.8a10.319,10.319,0,0,0-.449,3.579,8.351,8.351,0,0,1-.187-1.752,8.343,8.343,0,0,1,8.343-8.343,8.343,8.343,0,0,1,8.342,8.343,8.335,8.335,0,0,1-.5,2.836c.015-.064.032-.128.047-.193a7.83,7.83,0,0,0,.105-2.712c0-.024-.007-.048-.009-.073a8,8,0,0,0-7.989-7.525A8.008,8.008,0,0,0-250.2,1607.8Z" transform="translate(250.838 -1601.288)" fill="#636363" opacity="0.5" style="mix-blend-mode: screen;isolation: isolate"/>
            <path id="Path_2649" data-name="Path 2649" d="M-206.022,1690.871c.137.006.274.01.412.01C-205.748,1690.881-205.885,1690.877-206.022,1690.871Z" transform="translate(213.953 -1674.196)" fill="#1c1c1c"/>
            <path id="Path_2650" data-name="Path 2650" d="M-208.231,1690.881c.138,0,.275,0,.411-.01C-207.956,1690.877-208.093,1690.881-208.231,1690.881Z" transform="translate(216.575 -1674.196)" fill="#1c1c1c"/>
          </g>
          <path id="Path_2651" data-name="Path 2651" d="M-235.069,1622.072a5.408,5.408,0,0,0,5.408,5.407,5.408,5.408,0,0,0,5.407-5.407,5.408,5.408,0,0,0-5.407-5.407A5.408,5.408,0,0,0-235.069,1622.072Z" transform="translate(238.005 -1613.803)" fill="#1c1c1c" style="mix-blend-mode: screen;isolation: isolate"/>
          <path id="Path_2652" data-name="Path 2652" d="M-231.315,1625.52a4.709,4.709,0,0,0,4.709,4.708,4.709,4.709,0,0,0,4.708-4.708,4.708,4.708,0,0,0-4.708-4.708A4.709,4.709,0,0,0-231.315,1625.52Z" transform="translate(234.95 -1617.178)" fill="#ededed" style="mix-blend-mode: screen;isolation: isolate"/>
          <path id="Path_2653" data-name="Path 2653" d="M-229.917,1626.736a4.449,4.449,0,0,0,4.449,4.448,4.448,4.448,0,0,0,4.448-4.448,4.448,4.448,0,0,0-4.448-4.448A4.448,4.448,0,0,0-229.917,1626.736Z" transform="translate(233.812 -1618.379)" fill="#bbbaba"/>
          <path id="Path_2654" data-name="Path 2654" d="M-226.374,1630.031a3.789,3.789,0,0,0,3.789,3.788,3.789,3.789,0,0,0,3.788-3.788,3.788,3.788,0,0,0-3.788-3.789A3.789,3.789,0,0,0-226.374,1630.031Z" transform="translate(230.929 -1621.597)" fill="#070402"/>
          <path id="Path_2655" data-name="Path 2655" d="M-219.356,1635.231a2.483,2.483,0,0,0,2.483,2.483,2.483,2.483,0,0,0,2.482-2.483,2.482,2.482,0,0,0-2.482-2.482A2.483,2.483,0,0,0-219.356,1635.231Z" transform="translate(225.216 -1626.893)" fill="#acada6"/>
          <g id="Group_2250" data-name="Group 2250" transform="translate(4.93 4.93)">
            <g id="Group_2248" data-name="Group 2248">
              <path id="Path_2656" data-name="Path 2656" d="M-207.264,1628.007a.237.237,0,0,0,.237.237.237.237,0,0,0,.237-.237.237.237,0,0,0-.237-.236A.236.236,0,0,0-207.264,1628.007Z" transform="translate(210.435 -1627.771)" fill="#acada6"/>
              <path id="Path_2657" data-name="Path 2657" d="M-207.322,1662.135a.237.237,0,0,0,.237.236.236.236,0,0,0,.237-.236.236.236,0,0,0-.237-.237A.237.237,0,0,0-207.322,1662.135Z" transform="translate(210.504 -1655.545)" fill="#acada6"/>
              <path id="Path_2658" data-name="Path 2658" d="M-189.989,1645.339a.236.236,0,0,0,.236-.236.236.236,0,0,0-.236-.236.237.237,0,0,0-.237.236A.237.237,0,0,0-189.989,1645.339Z" transform="translate(190.226 -1641.685)" fill="#acada6"/>
              <path id="Path_2659" data-name="Path 2659" d="M-224.119,1645.276a.237.237,0,0,0,.237-.236.237.237,0,0,0-.237-.237.237.237,0,0,0-.237.237A.237.237,0,0,0-224.119,1645.276Z" transform="translate(230.709 -1641.633)" fill="#acada6"/>
            </g>
            <g id="Group_2249" data-name="Group 2249" transform="translate(0.927 0.926)">
              <path id="Path_2660" data-name="Path 2660" d="M-195.134,1633.193a.237.237,0,0,0,.335,0,.237.237,0,0,0,0-.334.236.236,0,0,0-.335,0A.238.238,0,0,0-195.134,1633.193Z" transform="translate(195.203 -1632.781)" fill="#acada6"/>
              <path id="Path_2661" data-name="Path 2661" d="M-219.31,1657.283a.236.236,0,0,0,.335,0,.235.235,0,0,0,0-.334.236.236,0,0,0-.335,0A.235.235,0,0,0-219.31,1657.283Z" transform="translate(223.879 -1652.387)" fill="#acada6"/>
              <path id="Path_2662" data-name="Path 2662" d="M-194.842,1657.325a.238.238,0,0,0,0-.334.237.237,0,0,0-.334,0,.235.235,0,0,0,0,.334A.236.236,0,0,0-194.842,1657.325Z" transform="translate(195.254 -1652.422)" fill="#acada6"/>
              <path id="Path_2663" data-name="Path 2663" d="M-218.931,1633.151a.235.235,0,0,0,0-.334.236.236,0,0,0-.334,0,.237.237,0,0,0,0,.335A.236.236,0,0,0-218.931,1633.151Z" transform="translate(223.826 -1632.748)" fill="#acada6"/>
            </g>
          </g>
        </g>
      </g>
      <g id="Group_2254" data-name="Group 2254" transform="translate(0 0)">
        <path id="Path_2664" data-name="Path 2664" d="M-244.522,1598.631c0-.083.007-.167.007-.251a10.142,10.142,0,0,0-10.131-10.131,10.144,10.144,0,0,0-9.413,6.392c-.309-.173-.615-.35-.917-.536a11.2,11.2,0,0,1,10.329-6.906,11.193,11.193,0,0,1,11.181,11.18c0,.084,0,.167-.006.251Z" transform="translate(264.976 -1587.2)" fill="#292929"/>
        <g id="Group_2253" data-name="Group 2253" transform="translate(0.089 0.012)">
          <path id="Path_2665" data-name="Path 2665" d="M-254.675,1587.7a11.319,11.319,0,0,0-10.068,6.168,11.193,11.193,0,0,1,10.2-6.6,11.193,11.193,0,0,1,11.18,11.18c0,.058,0,.115,0,.173h-.006A11.321,11.321,0,0,0-254.675,1587.7Z" transform="translate(264.743 -1587.266)" fill="#949494" opacity="0.5" style="mix-blend-mode: screen;isolation: isolate"/>
        </g>
      </g>
    </g>
    <path id="Path_2666" data-name="Path 2666" d="M-346.707,1482.467s.467-1.508,1.7-1.508h11.217a1.816,1.816,0,0,1,1.716,1.443l2.482,18.625-1.463,2.82h-15.367l-2.328-9.378Zm3.893,12.43s3.5,4.8,4.066,5.254a1.259,1.259,0,0,0,1.181.223s5.771-.943,6.383-1.117.438-1.049.438-1.049l-2.055-14.559c-.044-.7-1.049-.874-1.049-.874h-6.821s-.7.131-.83.612l-1.4,10.427S-343.055,1494.644-342.814,1494.9Zm-3.893-.8,2.557.526c.453.093.516-.548.516-.548s1.263-10.17,1.345-10.6c.131-.7-.219-.7-.219-.7h-2.142a1.1,1.1,0,0,0-1.049.888s-1.706,9.167-1.793,9.736S-346.707,1494.1-346.707,1494.1Z" transform="translate(367.906 -1480.959)" fill="#807be5"/>
    <path id="Path_2667" data-name="Path 2667" d="M-341.788,1567.839h6.054a.131.131,0,0,0,.126-.1,1.7,1.7,0,0,1,1.71-1.139.13.13,0,0,0,.12-.08l3.47-8.242a.132.132,0,0,0-.017-.131.132.132,0,0,0-.122-.05l-7.377,1.045-4.569-5.392a.132.132,0,0,0-.145-.039.131.131,0,0,0-.086.124v12.635a.122.122,0,0,0,.008.043,3.982,3.982,0,0,0,.522,1.071l.214.214A.133.133,0,0,0-341.788,1567.839Zm5.961-.263h-5.906l-.176-.175a3.668,3.668,0,0,1-.452-.95V1554.2l4.384,5.175a.13.13,0,0,0,.118.045l7.219-1.022-3.347,7.95a2,2,0,0,0-1.486.661A2.013,2.013,0,0,0-335.827,1567.576Z" transform="translate(367.471 -1540.165)" fill="#813521" style="mix-blend-mode: multiply;isolation: isolate"/>
    <g id="Group_2256" data-name="Group 2256" transform="translate(20.407 1.815)">
      <path id="Path_2668" data-name="Path 2668" d="M-341.217,1491.319c.131-.481.83-.612.83-.612h6.821s1.005.174,1.049.874l2.055,14.559s.175.874-.438,1.049-6.383,1.117-6.383,1.117a1.259,1.259,0,0,1-1.181-.223c-.569-.458-4.066-5.254-4.066-5.254-.241-.253-.087-1.084-.087-1.084Zm-.81,11.368s3.2,4.394,3.725,4.813a1.152,1.152,0,0,0,1.081.2s5.287-.863,5.847-1.023.4-.961.4-.961l-1.882-13.336c-.04-.641-.961-.8-.961-.8h-6.249s-.641.12-.76.56l-1.282,9.552S-342.247,1502.455-342.027,1502.687Z" transform="translate(347.213 -1490.707)" fill="#292929"/>
      <path id="Path_2669" data-name="Path 2669" d="M-338.581,1495.964c.119-.44.76-.56.76-.56h6.249s.921.16.961.8l1.882,13.336s.161.8-.4.962-5.847,1.023-5.847,1.023a1.152,1.152,0,0,1-1.081-.2c-.521-.419-3.725-4.812-3.725-4.812-.22-.232-.08-.993-.08-.993Z" transform="translate(344.968 -1494.53)" fill="#00a8e3" opacity="0.3"/>
      <path id="Path_2670" data-name="Path 2670" d="M-336.167,1498.035c.745.513,6.609,4.825,8.811,6.454l.406,2.879c-2.489-1.821-8.889-6.339-9.571-6.816l.328-2.447A.465.465,0,0,1-336.167,1498.035Z" transform="translate(342.58 -1496.671)" fill="#9be9e3" opacity="0.3" style="mix-blend-mode: screen;isolation: isolate"/>
      <path id="Path_2671" data-name="Path 2671" d="M-320.86,1550.047c-1.614-1.228-6.327-4.738-7.072-5.261.01-.078.019-.128.019-.128l.156-1.16c.784.574,6.637,4.893,8.77,6.49-.505.088-1.06.183-1.592.273Z" transform="translate(333.019 -1533.671)" fill="#9be9e3" opacity="0.3" style="mix-blend-mode: screen;isolation: isolate"/>
      <path id="Path_2672" data-name="Path 2672" d="M-280.687,1501.331c.087-.568,1.793-9.736,1.793-9.736a1.1,1.1,0,0,1,1.049-.888h2.142s.35,0,.219.7c-.082.432-1.345,10.6-1.345,10.6s-.063.641-.516.548l-2.557-.526S-280.774,1501.9-280.687,1501.331Zm1.2.174,1.979.462c.351.082.4-.481.4-.481s.978-8.94,1.04-9.319c.1-.615-.169-.615-.169-.615H-277.9c-.677,0-.812.781-.812.781s-1.32,8.058-1.388,8.558S-279.488,1501.505-279.488,1501.505Z" transform="translate(280.693 -1490.707)" fill="#292929"/>
      <path id="Path_2673" data-name="Path 2673" d="M-276.12,1496.025s.135-.781.812-.781h1.658s.27,0,.169.615c-.063.38-1.04,9.319-1.04,9.319s-.049.563-.4.481l-1.979-.462s-.676-.116-.608-.615S-276.12,1496.025-276.12,1496.025Z" transform="translate(278.104 -1494.399)" fill="#00a8e3" opacity="0.3"/>
      <path id="Path_2674" data-name="Path 2674" d="M-275.218,1497.172l-2.294-1.595a.73.73,0,0,1,.622-.334h1.658s.27,0,.169.615C-275.077,1495.942-275.136,1496.443-275.218,1497.172Z" transform="translate(279.687 -1494.399)" fill="#9be9e3" opacity="0.3" style="mix-blend-mode: screen;isolation: isolate"/>
      <path id="Path_2675" data-name="Path 2675" d="M-272.987,1528.761c.071-.435.148-.913.229-1.41q1.335.97,2.668,1.942c-.059.539-.111,1.006-.149,1.355C-270.581,1530.411-272.413,1529.153-272.987,1528.761Z" transform="translate(273.894 -1520.53)" fill="#9be9e3" opacity="0.3" style="mix-blend-mode: screen;isolation: isolate"/>
    </g>
    <g id="Group_2263" data-name="Group 2263" transform="translate(32.792 19.12)">
      <g id="Group_2261" data-name="Group 2261" transform="translate(3.236 0)">
        <g id="Group_2257" data-name="Group 2257">
          <path id="Path_2676" data-name="Path 2676" d="M-449.678,1594.212a10.536,10.536,0,0,0,10.536,10.537,10.537,10.537,0,0,0,10.537-10.537,10.537,10.537,0,0,0-10.537-10.537A10.536,10.536,0,0,0-449.678,1594.212Z" transform="translate(449.678 -1583.675)"/>
          <path id="Path_2677" data-name="Path 2677" d="M-442.845,1600.59a9.265,9.265,0,0,0,9.265,9.265,9.265,9.265,0,0,0,9.265-9.265,9.265,9.265,0,0,0-9.265-9.265A9.265,9.265,0,0,0-442.845,1600.59Z" transform="translate(444.116 -1589.901)" fill="#bababa" opacity="0.5" style="mix-blend-mode: screen;isolation: isolate"/>
        </g>
        <path id="Path_2678" data-name="Path 2678" d="M-432.035,1600.59a6.391,6.391,0,0,1,.774-3.06l-2.069-2.069a9.309,9.309,0,0,1,2.25-2.351l2.046,2.046a6.39,6.39,0,0,1,1.524-.7v-2.934a9.33,9.33,0,0,1,1.9-.195,9.327,9.327,0,0,1,1.358.1v2.888a6.368,6.368,0,0,1,1.724.642l2.068-2.068a9.332,9.332,0,0,1,2.345,2.257l-2.047,2.047a6.385,6.385,0,0,1,.974,3.4,6.384,6.384,0,0,1-.988,3.42l2.047,2.046a9.32,9.32,0,0,1-2.351,2.25l-2.069-2.068a6.382,6.382,0,0,1-1.7.629v2.889a9.293,9.293,0,0,1-1.358.1,9.321,9.321,0,0,1-1.9-.2v-2.933a6.4,6.4,0,0,1-1.5-.689l-2.047,2.046a9.289,9.289,0,0,1-2.257-2.344l2.067-2.068A6.4,6.4,0,0,1-432.035,1600.59Z" transform="translate(436.151 -1589.901)" fill="url(#linear-gradient-4)"/>
        <path id="Path_2679" data-name="Path 2679" d="M-415.674,1631.3h-11.484l.378-.378a6.394,6.394,0,0,1-.786-3.081,6.383,6.383,0,0,1,.76-3.032h11.32a6.382,6.382,0,0,1,.761,3.032,6.385,6.385,0,0,1-.988,3.42Z" transform="translate(431.683 -1617.151)" fill="#a86b1c" style="mix-blend-mode: multiply;isolation: isolate"/>
        <path id="Path_2680" data-name="Path 2680" d="M-412.321,1626.852a3.583,3.583,0,0,0,3.582,3.583,3.583,3.583,0,0,0,3.583-3.583,3.583,3.583,0,0,0-3.583-3.583A3.583,3.583,0,0,0-412.321,1626.852Z" transform="translate(419.275 -1615.899)"/>
        <g id="Group_2260" data-name="Group 2260" transform="translate(7.309 7.64)">
          <g id="Group_2258" data-name="Group 2258">
            <path id="Path_2681" data-name="Path 2681" d="M-394.247,1624.94a.224.224,0,0,0,.224.224.224.224,0,0,0,.224-.224.224.224,0,0,0-.224-.224A.224.224,0,0,0-394.247,1624.94Z" transform="translate(397.245 -1624.716)" fill="#acada6"/>
            <path id="Path_2682" data-name="Path 2682" d="M-394.3,1657.213a.223.223,0,0,0,.223.223.223.223,0,0,0,.224-.223.224.224,0,0,0-.224-.224A.224.224,0,0,0-394.3,1657.213Z" transform="translate(397.31 -1650.981)" fill="#acada6"/>
            <path id="Path_2683" data-name="Path 2683" d="M-377.915,1641.329a.224.224,0,0,0,.224-.223.224.224,0,0,0-.224-.224.224.224,0,0,0-.224.224A.224.224,0,0,0-377.915,1641.329Z" transform="translate(378.139 -1637.873)" fill="#acada6"/>
            <path id="Path_2684" data-name="Path 2684" d="M-410.188,1641.275a.224.224,0,0,0,.224-.223.223.223,0,0,0-.224-.223.223.223,0,0,0-.224.223A.223.223,0,0,0-410.188,1641.275Z" transform="translate(416.419 -1637.829)" fill="#acada6"/>
          </g>
          <g id="Group_2259" data-name="Group 2259" transform="translate(0.876 0.876)">
            <path id="Path_2685" data-name="Path 2685" d="M-382.78,1629.845a.223.223,0,0,0,.316,0,.223.223,0,0,0,0-.316.222.222,0,0,0-.316,0A.223.223,0,0,0-382.78,1629.845Z" transform="translate(382.846 -1629.456)" fill="#acada6"/>
            <path id="Path_2686" data-name="Path 2686" d="M-405.64,1652.625a.222.222,0,0,0,.316,0,.222.222,0,0,0,0-.316.223.223,0,0,0-.316,0A.223.223,0,0,0-405.64,1652.625Z" transform="translate(409.961 -1647.996)" fill="#acada6"/>
            <path id="Path_2687" data-name="Path 2687" d="M-382.5,1652.666a.223.223,0,0,0,0-.316.224.224,0,0,0-.316,0,.222.222,0,0,0,0,.316A.223.223,0,0,0-382.5,1652.666Z" transform="translate(382.892 -1648.029)" fill="#acada6"/>
            <path id="Path_2688" data-name="Path 2688" d="M-405.284,1629.806a.222.222,0,0,0,0-.316.224.224,0,0,0-.316,0,.224.224,0,0,0,0,.317A.223.223,0,0,0-405.284,1629.806Z" transform="translate(409.913 -1629.424)" fill="#acada6"/>
          </g>
        </g>
      </g>
      <path id="Path_2689" data-name="Path 2689" d="M-406.411,1630.421a2.483,2.483,0,0,0,2.483,2.483,2.483,2.483,0,0,0,2.483-2.483,2.482,2.482,0,0,0-2.483-2.482A2.482,2.482,0,0,0-406.411,1630.421Z" transform="translate(417.701 -1619.699)" fill="#636363" opacity="0.5" style="mix-blend-mode: screen;isolation: isolate"/>
      <path id="Path_2690" data-name="Path 2690" d="M-398.9,1635.145a1.085,1.085,0,0,0,1.084,1.085,1.085,1.085,0,0,0,1.085-1.085,1.084,1.084,0,0,0-1.085-1.084A1.085,1.085,0,0,0-398.9,1635.145Z" transform="translate(411.588 -1624.681)" opacity="0.5" style="mix-blend-mode: multiply;isolation: isolate"/>
      <path id="Path_2691" data-name="Path 2691" d="M-460.095,1625.806h24.264a.837.837,0,0,1,.754.945v4.227s.066.776-.59.776H-461.6v-4.492A1.439,1.439,0,0,1-460.095,1625.806Zm10.493,4.669h3.651c1.836-.088,2.453-.738,2.453-1.892,0-1.977-2.322-1.977-2.322-1.977H-449.6Z" transform="translate(461.604 -1617.963)" fill="url(#linear-gradient)"/>
      <g id="Group_2262" data-name="Group 2262" transform="translate(0.668 8.463)">
        <path id="Path_2692" data-name="Path 2692" d="M-325.161,1629.372a.231.231,0,0,0,.232.231.231.231,0,0,0,.231-.231.232.232,0,0,0-.231-.232A.232.232,0,0,0-325.161,1629.372Z" transform="translate(325.161 -1629.14)"/>
        <path id="Path_2693" data-name="Path 2693" d="M-325.161,1653.725a.231.231,0,0,0,.232.232.231.231,0,0,0,.231-.232.231.231,0,0,0-.231-.231A.231.231,0,0,0-325.161,1653.725Z" transform="translate(325.161 -1648.96)"/>
        <path id="Path_2694" data-name="Path 2694" d="M-408.741,1653.725a.231.231,0,0,0,.232.232.232.232,0,0,0,.232-.232.232.232,0,0,0-.232-.231A.231.231,0,0,0-408.741,1653.725Z" transform="translate(424.299 -1648.96)"/>
        <path id="Path_2695" data-name="Path 2695" d="M-377.125,1653.725a.231.231,0,0,0,.232.232.232.232,0,0,0,.232-.232.231.231,0,0,0-.232-.231A.231.231,0,0,0-377.125,1653.725Z" transform="translate(386.798 -1648.96)"/>
        <path id="Path_2696" data-name="Path 2696" d="M-353.892,1653.725a.231.231,0,0,0,.232.232.231.231,0,0,0,.231-.232.231.231,0,0,0-.231-.231A.231.231,0,0,0-353.892,1653.725Z" transform="translate(359.24 -1648.96)"/>
        <path id="Path_2697" data-name="Path 2697" d="M-458.073,1653.725a.231.231,0,0,0,.232.232.231.231,0,0,0,.231-.232.231.231,0,0,0-.231-.231A.231.231,0,0,0-458.073,1653.725Z" transform="translate(482.814 -1648.96)"/>
        <path id="Path_2698" data-name="Path 2698" d="M-438,1653.725a.231.231,0,0,0,.231.232.231.231,0,0,0,.232-.232.231.231,0,0,0-.232-.231A.231.231,0,0,0-438,1653.725Z" transform="translate(459.01 -1648.96)"/>
      </g>
      <path id="Path_2699" data-name="Path 2699" d="M-440.534,1631.658v-3.589a1.214,1.214,0,0,0-1.377-1.079h-19.242l19.259.382s.985.14,1.082.963S-440.534,1631.658-440.534,1631.658Z" transform="translate(466.979 -1618.927)" fill="url(#linear-gradient)"/>
    </g>
    <path id="Path_2700" data-name="Path 2700" d="M-231.038,1558.819l-9.838,1.967a3.923,3.923,0,0,0-2.662,2.406l-.356,1.223,13.643-2.361Z" transform="translate(249.046 -1544.326)" fill="#0f0f0f"/>
    <g id="Group_2265" data-name="Group 2265" transform="translate(5.371 14.741)" opacity="0.7">
      <path id="Path_2701" data-name="Path 2701" d="M-231.2,1560.152l-9.87,1.916a3.524,3.524,0,0,0-2.5,2.295l-.328,1.1,13.425-2.323Z" transform="translate(243.894 -1560.152)" fill="#454545" opacity="0.5" style="mix-blend-mode: screen;isolation: isolate"/>
      <g id="Group_2264" data-name="Group 2264" transform="translate(0)" clip-path="url(#clip-path)">
        <path id="Path_2702" data-name="Path 2702" d="M-245.806,1564c.015-.08.029-.16.044-.24l.019.016.219-.184-.173-.145c.017-.073.036-.147.055-.221l.143-.12-.09-.075c.013-.046.027-.091.041-.137l.151.127.18-.15-.154-.129-.175.146c.037-.122.077-.243.12-.363l.055.045.176-.147-.144-.12c.018-.042.035-.085.054-.126l.192.161.205-.172-.2-.168-.187.158c.053-.118.112-.23.175-.339l.013.011.2-.167-.073-.062c.026-.036.052-.071.08-.1l.1.08.179-.151-.121-.1c.032-.031.064-.061.1-.09l.126.105.176-.147-.119-.1c.038-.026.076-.051.116-.075l.1.088.135-.113-.075-.064c.043-.021.087-.042.132-.061l.046.039.126-.106c.1-.036.207-.066.315-.093l-.037.031.2.167.179-.15-.119-.1.162-.035.058.049.1-.083.286-.061.15.126.14-.117-.066-.056.163-.035.006.005.011-.009.275-.059-.184.154.176.147.2-.168-.166-.14.163-.035.106.089.179-.15h0l.277-.06-.072.061.179.15.176-.148-.118-.1.163-.035.058.048.1-.081.277-.058.2.166.2-.167-.079-.067.163-.035.018.016.031-.026.4-.083.092.076.151-.127.269-.055-.041.034.176.147.14-.117-.115-.1.165-.033.053.044.084-.07.354-.069.146.122.179-.15-.031-.026.339-.062-.1.088.2.167.176-.147-.152-.128.17-.029.085.072.127-.108.251-.039-.021.017.168.141.2-.168-.043-.036.1-.015c.083-.012.165-.023.248-.033l-.1.083.176.147.179-.15-.114-.1.181-.019.035.029.044-.036.228-.021-.17.142.179.15.176-.147-.175-.146.186-.015.09.076.109-.091.244-.019.191.16.2-.168-.027-.023.292-.028-.061.051.14.117.179-.151-.05-.042c.121-.015.243-.032.364-.051l-.111.092.176.147.176-.147-.13-.11.166-.031.066.056.109-.092c.1-.021.193-.045.288-.07l-.3.247.179.151.424-.356c.013.046.026.092.039.139l-.36.3.2.168.236-.2c.013.047.026.093.039.139l-.173.145.135.113.088-.074c.012.046.025.093.039.139l-.025.02.039.032c.03.109.059.218.089.327l-.127.107.18.151.012-.011c.021.082.044.165.065.247l-.077-.065-.18.15.2.168.1-.084.036.141-.033.028.051.043c.018.071.035.143.052.215l-.2-.172-.2.168.206.173.2-.167c.011.047.023.095.034.143l-.131.11.176.147.013-.011c.018.079.035.158.052.236l-.065-.055-.14.118.179.15.06-.05c.023.109.045.218.066.328l-.127-.106-.176.147.2.168.122-.1c.009.049.018.1.027.148l-.014.012a2.688,2.688,0,0,1-.322.1l.084-.07-.2-.168-.179.151.144.12c-.055.012-.111.021-.168.031l-.078-.065-.11.092c-.114.014-.227.025-.341.035l-.131-.11-.155.129,0,0-.23.017.023-.019-.176-.147-.176.147.051.042c-.115.011-.226.024-.334.041l-.025,0,.1-.087-.205-.172-.18.15.155.13-.171.028-.086-.072-.129.109-.285.05-.19-.159-.14.117.1.084-.167.031-.034-.029-.054.046-.363.07-.141-.118-.179.15.03.026-.347.07.112-.1-.175-.147-.2.168.122.1-.164.034-.061-.052-.1.085-.271.056h0l-.134-.113-.176.147.029.024-.348.072.114-.1-.2-.168-.179.151.16.135-.164.033-.1-.082-.161.135-.267.053.025-.021-.179-.151-.14.118.109.092-.167.031-.044-.037-.068.058-.342.063-.145-.122-.179.151.032.026c-.114.021-.228.043-.342.063l.106-.09-.14-.117-.2.168.079.066-.169.03-.012-.01-.019.016-.361.063-.159-.133-.176.147.044.037-.368.064.12-.1-.18-.151-.179.151.14.117-.17.029-.072-.061-.109.092-.32.054-.151-.126-.205.172.015.013-.3.052.077-.064-.167-.141-.176.148.1.086-.169.029-.036-.03-.054.046-.262.045-.113.021-.155-.13-.075.063-.084-.1.057-.048-.179-.15-.2.167.312.261-.164.033-.249-.209-.219.184.116.1-.165.033-.331-.278-.062.053-.085-.1.045-.037-.442-.371-.15.126-.084-.1.132-.111-.179-.15Zm.208-.641.176.147.2-.168-.176-.147Zm1.318-.339.206-.172-.179-.15-.206.172Zm-.281-.064-.176.147.18.15.175-.148Zm10.977-1.77.179.15.177-.147-.18-.15Zm.316-.436-.176-.147-.14.117.176.147Zm-.242.2-.176-.148-.176.148.176.148Zm-.278-.233-.135-.113-.176.148.135.113Zm-.176.318-.179.15.176.147.18-.15Zm-.1-.086-.135-.113-.179.151.135.113Zm-9.5,1.642.2.168.179-.151-.2-.167Zm.077-.236-.18-.15-.179.15.179.151Zm.4.168.175-.147-.2-.167-.176.147Zm.278-.233.134-.113-.2-.168-.135.113Zm.1.085.14.118.135-.113-.14-.117Zm.377-.081.2-.168-.14-.118-.2.168Zm.1.085.176.148.2-.168-.176-.147Zm.477-.106.179-.151-.176-.147-.179.151Zm.281-.236.176-.147-.176-.147-.176.147Zm.1.085.179.151.176-.147-.18-.151Zm.457-.082.14-.118-.18-.15-.14.117Zm.1.085.2.168.14-.118-.2-.168Zm.14-.289.2-.167-.18-.151-.2.168Zm.1.086.2.168.2-.168-.2-.167Zm.5-.086.179-.15-.2-.168-.179.151Zm.1.086.167.141.18-.15-.168-.14Zm.179-.321.176-.147-.2-.168-.176.147Zm.1.086.168.141.176-.148-.167-.141Zm.269.226.176.148.176-.148-.176-.147Zm.176-.319.167-.14-.167-.141-.168.141Zm.1.086.176.148.168-.141-.176-.148Zm.445-.079.2-.168-.176-.147-.2.168Zm.1.086.18.15.2-.167-.18-.151Zm.2-.339.18-.15-.176-.147-.179.15Zm.1.086.18.151.18-.151-.18-.15Zm.461-.086.176-.148-.179-.15-.176.147Zm.1.086.2.168.176-.147-.2-.168Zm.478-.066.14-.117-.2-.167-.14.117Zm.1.086.14.117.14-.117-.14-.118Zm.14-.289.2-.167-.2-.168-.2.168Zm.1.086.14.117.2-.168-.141-.117Zm.441-.136.18-.15-.14-.118-.18.151Zm.1.086.176.148.179-.15-.176-.147Zm.456-.088.176-.147-.176-.148-.175.148Zm.1.085.179.15.176-.148-.18-.15Zm.457-.083.154-.129-.18-.151-.154.13Zm.256-.214.2-.167-.18-.151-.2.168Zm.1.086.2.167.2-.167-.2-.168Zm.5-.086.179-.15-.2-.168-.179.151Zm0,.171-.2.167.135.114.2-.168Zm-.3.253-.154.13.135.113.153-.129Zm-.1-.086-.2-.167-.154.129.2.168Zm-.456.047-.176.147.2.168.176-.147Zm-.278.233-.179.151.2.167.179-.15Zm-.1-.086-.18-.15-.179.15.179.151Zm-.461.086-.2.168.179.15.2-.167Zm-.1-.086-.176-.147-.2.168.176.147Zm-.478.106-.14.118.175.148.14-.118Zm-.242.2-.176.147.176.147.176-.147Zm-.1-.086-.14-.118-.176.148.14.118Zm-.417.116-.18.15.14.118.179-.151Zm-.1-.086-.2-.168-.179.151.2.167Zm-.482.068-.2.167.2.168.2-.168Zm-.3.253-.167.141.2.168.168-.141Zm-.1-.086-.18-.15-.167.14.179.15Zm-.449.076-.176.148.18.15.176-.148Zm-.277.233-.179.15.179.151.179-.151Zm-.1-.085-.176-.148-.179.15.176.148Zm-.457.089-.2.168.175.147.2-.168Zm-.1-.086-.167-.141-.2.168.168.141Zm-.469.113-.14.117.167.141.14-.118Zm-.242.2-.176.148.168.141.175-.148Zm-.1-.086-.2-.167-.176.147.2.168Zm-.478.065-.179.151.2.167.179-.15Zm-.1-.086-.179-.15-.18.15.18.15Zm-.461.086-.2.168.18.15.2-.167Zm-.3.253-.135.114.179.15.135-.113Zm-.1-.085-.176-.148-.135.114.176.147Zm-.413.051-.176.147.176.148.176-.148Zm-.1-.085-.139-.118-.176.148.14.118Zm-.418.115-.179.15.14.117.18-.15Zm-.281.236-.2.168.14.118.2-.168Zm-.1-.086-.2-.168-.2.168.2.168Zm-.3-.253-.179-.15-.2.167.179.151Zm-.281-.236-.176-.147-.2.167.176.147Zm.1-.085.179-.15-.176-.148-.179.15Zm.281-.236.176-.148-.176-.147-.176.147Zm.1.086.18.15.175-.148-.179-.15Zm.457-.083.135-.113-.18-.15-.135.113Zm.237-.2.2-.167-.179-.151-.2.168Zm.1.085.2.168.2-.168-.2-.167Zm.5-.085.179-.15-.2-.168-.179.151Zm.1.085.14.118.18-.151-.14-.117Zm.421-.118.176-.148-.14-.118-.176.148Zm.278-.233.14-.117-.14-.118-.14.118Zm.1.086.175.148.14-.118-.176-.148Zm.417-.056.2-.168-.176-.147-.2.168Zm.3-.253.18-.15-.176-.147-.179.15Zm.1.086.179.151.18-.151-.18-.15Zm.46-.086.176-.148-.179-.15-.176.147Zm.278-.233.167-.14-.18-.15-.167.141Zm.1.086.2.168.167-.14-.2-.168Zm.469-.058.2-.168-.2-.168-.2.168Zm.1.085.168.14.2-.168-.168-.14Zm.47-.113.18-.15-.167-.141-.18.15Zm.281-.235.176-.147-.168-.141-.176.148Zm.1.086.176.147.176-.147-.176-.148Zm.454-.086.14-.118-.176-.148-.14.118Zm.1.086.18.15.14-.117-.18-.15Zm.422-.053.2-.168-.179-.15-.2.167Zm.3-.253.18-.15-.18-.151-.179.151Zm.1.085.2.168.18-.151-.2-.167Zm.481-.068.176-.147-.2-.168-.176.148Zm.1.085.14.118.176-.147-.14-.118Zm.417-.115.155-.129-.14-.118-.154.13Zm.1.086.176.147.154-.129-.176-.148Zm.432-.068.2-.168-.176-.148-.2.168Zm.3-.253.18-.151-.176-.148-.179.15Zm.1.085.179.151.179-.151-.179-.15Zm.46-.085.176-.148-.179-.15-.176.148Zm.1.085.2.168.176-.147-.2-.168Zm.477-.065.14-.118-.2-.168-.14.117Zm.1.086.134.113.14-.118-.135-.113Zm.377-.09.2-.168-.135-.113-.2.168Zm.1.086.176.147.2-.167-.176-.148Zm.036.436.18.15.14-.117-.179-.151Zm0,.469.2.168.176-.148-.2-.168Zm-.1.086-.179.151.2.167.18-.15Zm-.1-.086-.18-.15-.179.15.179.151Zm-.461.086-.2.168.179.15.2-.167Zm-.1-.086-.176-.147-.2.168.176.148Zm-.477.106-.154.128.176.148.154-.129Zm-.256.215-.176.147.176.148.176-.148Zm-.1-.086-.135-.113-.176.148.135.113Zm-.412.121-.179.15.135.113.179-.151Zm-.281.236-.2.168.135.113.2-.168Zm-.1-.086-.2-.167-.2.167.2.168Zm-.5.086-.14.118.2.168.14-.118Zm-.1-.086-.18-.15-.139.117.179.151Zm-.422.052-.175.147.179.151.176-.147Zm-.277.233-.179.15.179.15.18-.15Zm-.1-.086-.176-.147-.18.151.176.147Zm-.457.089-.2.167.176.148.2-.168Zm-.1-.086-.14-.118-.2.168.14.118Zm-.442.136-.167.14.14.118.167-.141Zm-.27.226-.176.148.14.117.176-.148Zm-.1-.085-.2-.168-.176.147.2.168Zm-.478.065-.18.151.2.167.18-.15Zm-.281.236-.2.168.2.167.2-.167Zm-.1-.086-.179-.151-.2.168.179.15Zm-.482.1-.139.117.179.151.14-.118Zm-.1-.086-.176-.148-.14.117.176.148Zm-.418.055-.176.147.176.148.176-.148Zm-.278.233-.179.151.176.148.179-.151Zm-.1-.086-.167-.141-.179.151.167.141Zm-.449.1-.2.168.167.14.2-.168Zm-.1-.086-.2-.167-.2.167.2.168Zm-.5.086-.135.113.2.168.135-.113Zm-.237.2-.176.147.2.168.176-.147Zm-.1-.086-.18-.15-.176.147.179.15Zm-.457.083-.179.15.179.151.179-.151Zm-.1-.086-.176-.147-.179.15.176.148Zm-.457.088-.2.168.175.147.2-.168Zm-.3.253-.2.172.176.147.205-.172Zm-.1-.085-.14-.117-.205.172.14.117Zm-.242-.2-.2-.168-.205.172.2.168Zm-.507.09-.176.147.2.168.175-.147Zm-.277.233-.18.15.2.168.18-.151Zm-.1-.086-.179-.15-.179.15.179.15Zm0-.469-.175-.147-.175.147.175.147Zm.1-.086.206-.172-.176-.148-.205.172Zm.23-.659-.154-.129-.2.168.154.129Zm.1-.085.179-.151-.154-.129-.179.15Zm.281-.236.176-.148-.154-.128-.176.147Zm.278-.233.135-.113-.154-.13-.134.113Zm.1.085.176.148.135-.113-.176-.148Zm.412-.051.2-.168-.176-.147-.2.168Zm.3-.253.179-.15-.175-.147-.18.15Zm.1.086.179.151.179-.151-.179-.15Zm.461-.086.176-.148-.179-.15-.176.147Zm.1.086.2.168.176-.147-.2-.168Zm.477-.066.14-.117-.2-.167-.14.117Zm.242-.2.2-.167-.2-.168-.2.168Zm.1.086.14.117.2-.168-.14-.117Zm.442-.136.179-.15-.14-.117-.179.15Zm.281-.235.176-.147-.14-.118-.176.148Zm.1.086.176.147.176-.147-.176-.148Zm.453-.086.168-.141-.176-.148-.168.141Zm.269-.226.2-.167-.176-.148-.2.167Zm.1.085.179.151.2-.168-.179-.15Zm.481-.1.179-.15-.179-.151-.179.151Zm.1.086.2.168.18-.151-.2-.168Zm.482-.068.176-.147-.2-.167-.176.148Zm.277-.233.14-.117-.2-.168-.139.117Zm.1.086.167.14.14-.117-.167-.141Zm.409-.063.2-.168-.167-.14-.2.168Zm.1.086.176.147.2-.168-.175-.148Zm.478-.106.179-.15-.176-.147-.18.15Zm.281-.236.176-.147-.176-.148-.176.148Zm.1.086.179.15.176-.148-.18-.15Zm.457-.082.153-.13-.179-.15-.154.129Zm.1.085.2.168.154-.129-.2-.168Zm.456-.047.2-.167-.2-.168-.2.168Zm.1.086.14.118.2-.168-.14-.117Zm.442-.136.179-.151-.14-.117-.179.15Zm.281-.236.176-.148-.14-.118-.175.148Zm.1.085.176.148.176-.148-.176-.147Zm.453-.085.14-.117-.176-.148-.14.118Zm.1.085.18.151.14-.117-.179-.15Zm.421-.052.2-.168-.179-.151-.2.168Zm.1.085.2.167.2-.167-.2-.168Zm.5-.085.179-.15-.2-.168-.179.151Zm.1.085.135.113.179-.151-.134-.113Zm.237.2.176.148.179-.151-.176-.148Zm-.024.486.179.151.2-.168-.179-.15Zm.039.439.2.168.14-.118-.2-.168Zm.024.486.2.173.176-.148-.205-.172Zm.308.258.176.147.175-.147-.175-.147Zm-.1.085-.179.15.176.147.179-.15Zm-.1-.085-.206-.173-.179.15.206.173Zm-.487.063-.2.168.2.172.2-.168Zm-.1-.086-.2-.167-.2.167.2.168Zm-.5.086-.154.129.2.168.155-.129Zm-.1-.086-.179-.15-.155.129.18.151Zm-.436.065-.176.148.179.15.176-.148Zm-.278.233-.179.15.179.151.18-.151Zm-.1-.085-.176-.148-.18.15.176.148Zm-.457.089-.2.167.176.147.2-.168Zm-.3.253-.14.118.176.147.14-.118Zm-.1-.086-.135-.113-.139.117.135.113Zm-.377.09-.176.148.135.113.176-.147Zm-.1-.086-.2-.167-.176.147.2.168Zm-.478.065-.179.151.2.167.18-.15Zm-.281.236-.2.167.2.168.2-.168Zm-.1-.086-.179-.151-.2.168.179.15Zm-.481.1-.167.141.18.151.167-.141Zm-.1-.085-.176-.148-.167.14.176.148Zm-.445.078-.176.147.176.148.176-.148Zm-.278.233-.179.151.176.148.179-.151Zm-.1-.086-.14-.117-.18.15.14.118Zm-.421.119-.2.168.14.117.2-.168Zm-.3.253-.141.117.141.118.14-.118Zm-.1-.086-.2-.168-.14.117.2.168Zm-.442.035-.176.148.2.168.176-.148Zm-.1-.085-.179-.151-.176.148.179.151Zm-.457.083-.179.15.179.15.179-.15Zm-.281.236-.2.168.179.15.2-.168Zm-.1-.086-.176-.148-.2.168.176.147Zm-.478.106-.135.113.176.147.134-.113Zm-.1-.086-.167-.141-.135.114.168.14Zm-.4.058-.176.148.167.14.176-.147Zm-.278.233-.179.151.168.14.179-.15Zm-.1-.085-.2-.168-.179.15.2.168Zm-.482.068-.2.168.2.168.2-.168Zm-.1-.086-.179-.15-.2.168.179.15Zm-.482.1-.2.172.179.151.205-.172Zm-.306.258-.176.148.179.15.176-.147Zm-.1-.086-.176-.147-.176.147.176.148Zm-.278-.233-.14-.117-.176.148.14.117Zm-.417.115-.18.15.14.117.18-.151Zm-.282.236-.2.168.14.117.2-.167Zm-.1-.086-.2-.168-.2.168.2.168Zm-.3-.253-.18-.15-.2.168.179.151Zm-.355-.469.176.148.18-.15-.176-.147Zm.025-.45.154.129.176-.147-.154-.129Zm.278-.233.154.129.205-.172-.154-.129Zm.005-.512.2.168.2-.168-.2-.167Zm.3-.253.2.167.179-.15-.2-.168Zm.282-.236.2.168.176-.148-.2-.168Zm.278-.233.2.168.135-.114-.2-.167Zm.437-.366-.2.168.2.167.2-.167Zm.1.421.154.129.2-.168-.154-.129Zm.3-.253.154.129.18-.15-.154-.13Zm.457-.384-.176.148.155.129.175-.147Zm.08.363.176.147.176-.147-.176-.148Zm.418-.351-.14.118.176.147.14-.118Zm.138.351.179.15.14-.117-.18-.151Zm.242-.2.18.151.2-.168-.179-.15Zm.481-.4-.179.151.179.15.179-.15Zm.1.386.2.168.179-.151-.2-.167Zm.281-.236.2.168.176-.147-.2-.168Zm.445-.373-.168.14.2.168.167-.14Zm.135.394.14.117.168-.14-.14-.117Zm.269-.226.14.117.2-.168-.14-.117Zm.481-.4-.18.151.14.117.18-.151Zm.063.354.176.147.179-.151-.176-.147Zm.457-.384-.176.147.176.148.176-.148Zm.1.38.18.151.176-.147-.179-.151Zm.278-.233.179.151.141-.117-.179-.151Zm.442-.371-.2.167.179.151.2-.168Zm.081.4.2.167.2-.167-.2-.168Zm.481-.4-.179.15.2.168.179-.151Zm.123.4.168.141.179-.151-.167-.141Zm.281-.236.168.141.176-.147-.167-.141Zm.432-.362-.154.129.167.14.155-.129Zm.115.356.175.147.155-.129-.176-.148Zm.456-.383-.2.168.176.148.2-.168Zm.077.4.18.15.2-.168-.179-.151Zm.481-.4-.179.15.179.151.179-.151Zm.1.386.2.168.179-.15-.2-.168Zm.281-.236.2.168.176-.148-.2-.168Zm.418-.35-.14.117.2.168.14-.118Zm.162.371.14.117.14-.117-.14-.117Zm.442-.371-.2.167.14.118.2-.168Zm.042.371.176.148.2-.168-.176-.147Zm.481-.4-.18.15.176.147.179-.15Zm.1.383.18.151.179-.151-.179-.15Zm.457-.383-.176.147.179.15.175-.147Zm.281.236-.176.147.2.168.176-.148Zm.3.253-.175.148.134.113.176-.147Zm.412.346-.175-.147-.176.147.176.148Zm0,.469-.179-.151-.179.151.179.15Zm.021.489-.2-.168-.2.168.2.168Zm-.2.339-.14.118.206.172.14-.117Zm.483.405-.176-.147-.14.117.176.148Zm.039.439-.179-.15-.176.147.179.15Zm-.278.233-.179-.151-.179.151.179.151Zm-.481.4.2-.168-.179-.151-.2.168Zm-.081-.4-.176-.147-.2.168.176.147Zm-.456.383.154-.129-.176-.148-.154.129Zm-.124-.362-.206-.172-.154.129.206.172Zm-.432.362.176-.147-.206-.172-.176.148Zm-.132-.406-.2-.167-.176.147.2.168Zm-.277.233-.2-.167-.179.15.2.168Zm-.482.4.2-.168-.2-.168-.2.168Zm-.1-.421-.179-.15-.2.167.179.151Zm-.442.37.14-.117-.18-.15-.14.117Zm-.277.233.175-.148-.179-.15-.176.147Zm-.106-.383-.176-.147-.176.147.176.148Zm-.457.383.179-.15-.176-.147-.18.15Zm-.1-.383-.134-.114-.18.151.135.113Zm-.481.4.2-.168-.135-.113-.2.168Zm-.269.226.168-.14-.135-.114-.167.141Zm-.07-.339-.2-.168-.168.141.2.168Zm-.445.373.176-.147-.2-.168-.176.148Zm-.125-.4-.18-.151-.176.148.179.151Zm-.278.233-.179-.15-.18.15.18.15Zm-.482.4.2-.168-.179-.151-.2.168Zm-.082-.4-.175-.148-.2.167.176.148Zm-.442.371.14-.117-.176-.148-.14.117Zm-.277.233.176-.148-.176-.147-.176.147Zm-.1-.381-.14-.117-.176.148.14.117Zm-.457.384.18-.151-.14-.118-.18.151Zm-.062-.353-.2-.168-.179.151.2.168Zm-.481.4.2-.168-.2-.168-.2.168Zm-.237.2.135-.113-.2-.168-.135.113Zm-.167-.366-.179-.151-.135.113.179.15Zm-.412.346.176-.147-.179-.15-.176.147Zm-.106-.383-.176-.147-.176.147.176.147Zm-.278.233-.176-.147-.179.15.176.147Zm-.481.4.2-.168-.176-.147-.2.168Zm-.078-.4-.168-.14-.2.168.168.14Zm-.507.426.206-.172-.168-.141-.205.172Zm-.064-.4-.2-.168-.206.172.2.167Zm-.483.405.176-.147-.2-.168-.176.147Zm-.281.236.179-.151-.2-.167-.179.15Zm-.3-.254.18-.15-.18-.15-.179.15Zm-.1-.386-.175-.148-.18.151.176.147Zm-.281.236-.176-.147-.2.168.176.147Zm-.522.438.219-.184-.176-.148-.219.184Zm-.277-.233.219-.184-.14-.118-.22.185Zm-.243-.2.22-.184-.2-.168-.219.184Zm-.3-.254.22-.184-.18-.15-.219.184Z" transform="translate(245.566 -1559.1)" fill="#949494" opacity="0.5" style="mix-blend-mode: screen;isolation: isolate"/>
      </g>
    </g>
    <path id="Path_2704" data-name="Path 2704" d="M-334.853,1483.6a2.684,2.684,0,0,1,.528-1.136,1.415,1.415,0,0,1,.82-.275h11.269a1.986,1.986,0,0,1,1.433,1.411Z" transform="translate(356.531 -1481.958)" fill="#807be5"/>
    <g id="Group_2268" data-name="Group 2268" transform="translate(36.186 1.745)">
      <path id="Path_2705" data-name="Path 2705" d="M-340.269,1491.238c.167,0,.3-.2.3-.453s-.136-.45-.3-.45-.3.2-.3.45S-340.435,1491.238-340.269,1491.238Z" transform="translate(340.571 -1490.335)" fill="#c0bac4" opacity="0.5" style="mix-blend-mode: multiply;isolation: isolate"/>
      <g id="Group_2266" data-name="Group 2266" transform="translate(1.313 2.441)">
        <path id="Path_2706" data-name="Path 2706" d="M-349.519,1508.27c0-.273-.075-3.3-.075-3.807,0-.646-.087-1-.47-1.013-.458-.015-.632.129-.632,1.243v3.4c0,.435.141.874.557.874S-349.519,1508.912-349.519,1508.27Z" transform="translate(350.696 -1503.448)" fill="#262625"/>
        <path id="Path_2707" data-name="Path 2707" d="M-349.266,1508.969a.684.684,0,0,0,.458-.1,1.26,1.26,0,0,1-.306.028c-.414,0-.557-.429-.557-.856v-3.329c0-1.088.176-1.229.633-1.215a.2.2,0,0,1,.039,0,.424.424,0,0,0-.193-.046c-.458-.015-.632.129-.632,1.243v3.4C-349.823,1508.531-349.682,1508.969-349.266,1508.969Z" transform="translate(349.823 -1503.448)" fill="#1d1d1b" opacity="0.5" style="mix-blend-mode: multiply;isolation: isolate"/>
      </g>
      <g id="Group_2267" data-name="Group 2267" transform="translate(0.107 0.075)">
        <path id="Path_2708" data-name="Path 2708" d="M-340.475,1491.114c0-.208.107-.378.241-.378s.24.17.24.378-.106.378-.24.378S-340.475,1491.322-340.475,1491.114Z" transform="translate(340.475 -1490.736)" fill="url(#radial-gradient)" style="mix-blend-mode: multiply;isolation: isolate"/>
        <path id="Path_2709" data-name="Path 2709" d="M-340.379,1491.23c0-.193.1-.352.223-.352s.222.159.222.352-.1.349-.222.349S-340.379,1491.423-340.379,1491.23Z" transform="translate(340.397 -1490.852)" fill="#262625"/>
      </g>
      <path id="Path_2710" data-name="Path 2710" d="M-340.021,1492.15c.082,0,.149-.1.149-.223s-.066-.222-.149-.222-.151.1-.151.222S-340.105,1492.15-340.021,1492.15Z" transform="translate(340.404 -1491.45)" fill="#c0bac4" opacity="0.5" style="mix-blend-mode: multiply;isolation: isolate"/>
      <path id="Path_2711" data-name="Path 2711" d="M-349.4,1515.359c.081,0,.15-.1.15-.221s-.068-.224-.15-.224-.15.1-.15.224S-349.488,1515.359-349.4,1515.359Z" transform="translate(351.531 -1510.338)" fill="#c0bac4" opacity="0.5" style="mix-blend-mode: multiply;isolation: isolate"/>
      <path id="Path_2712" data-name="Path 2712" d="M-353.537,1492.01h1.642a.953.953,0,0,1,.715.232,1.074,1.074,0,0,1,.215.814c0,.032,0,.062,0,.094,0,.181,0,.482.01.831.007.488.015,1.1.015,1.613a.932.932,0,0,1-.856,1.065h0a.176.176,0,0,1-.176-.172.174.174,0,0,1,.172-.175c.053,0,.514-.04.514-.718,0-.515-.008-1.12-.016-1.608,0-.351-.009-.653-.009-.837,0-.031,0-.064,0-.1a.809.809,0,0,0-.112-.566.646.646,0,0,0-.467-.13h-1.642a.175.175,0,0,1-.174-.176A.174.174,0,0,1-353.537,1492.01Z" transform="translate(353.993 -1491.698)" fill="#2c2d2b"/>
      <path id="Path_2713" data-name="Path 2713" d="M-352.953,1492.314a.182.182,0,0,0,.117.044h1.642a1.112,1.112,0,0,1,.255.024.421.421,0,0,1,.213.106.809.809,0,0,1,.112.566c0,.032,0,.064,0,.1,0,.183,0,.485.009.837.008.487.016,1.093.016,1.608,0,.677-.462.715-.514.718a.174.174,0,0,0-.172.175.183.183,0,0,0,.04.106h.007a.926.926,0,0,0,.857-1.059c0-.513-.008-1.119-.017-1.607,0-.346-.009-.646-.009-.826,0-.033,0-.062,0-.091a1.068,1.068,0,0,0-.213-.812.685.685,0,0,0-.219-.147,1.382,1.382,0,0,0-.367-.041h-1.642a.174.174,0,0,0-.174.173A.185.185,0,0,0-352.953,1492.314Z" transform="translate(353.292 -1491.698)" fill="#686867"/>
      <path id="Path_2714" data-name="Path 2714" d="M-352.124,1493.6a.178.178,0,0,0,.117.044h1.642a1.1,1.1,0,0,1,.255.024.418.418,0,0,1,.213.106.808.808,0,0,1,.112.566c0,.032,0,.064,0,.1,0,.183,0,.485.009.837.008.487.016,1.093.016,1.608s-.273.663-.425.7c.125-.017.48-.118.48-.713,0-.514-.009-1.119-.016-1.609-.006-.349-.011-.653-.011-.836,0-.032,0-.064,0-.1a.815.815,0,0,0-.112-.564.4.4,0,0,0-.213-.1,1.134,1.134,0,0,0-.255-.024h-1.642C-352.072,1493.636-352.159,1493.567-352.124,1493.6Z" transform="translate(352.464 -1492.986)" fill="#c0bac4" opacity="0.5" style="mix-blend-mode: multiply;isolation: isolate"/>
      <path id="Path_2715" data-name="Path 2715" d="M-349.959,1493.645a.182.182,0,0,0,.117.045h1.642a1.1,1.1,0,0,1,.255.024.852.852,0,0,0-.386-.069Z" transform="translate(350.299 -1493.029)" fill="#c0bac4" opacity="0.5" style="mix-blend-mode: multiply;isolation: isolate"/>
    </g>
    <path id="Path_2716" data-name="Path 2716" d="M-347.15,1491.705l2.414,18.052-.914,1.754.538-1.775-2.422-18.03Z" transform="translate(382.823 -1489.705)" fill="url(#linear-gradient)"/>
    <g id="Group_2269" data-name="Group 2269" transform="translate(20.377 13.283)">
      <path id="Path_2717" data-name="Path 2717" d="M-306.59,1586.7a.156.156,0,0,0,.155.155.155.155,0,0,0,.155-.155.155.155,0,0,0-.155-.155A.156.156,0,0,0-306.59,1586.7Z" transform="translate(316.368 -1580.174)" fill="#292929"/>
      <path id="Path_2718" data-name="Path 2718" d="M-270.357,1556.235a.155.155,0,0,0,.155.155.155.155,0,0,0,.155-.155.155.155,0,0,0-.155-.155A.155.155,0,0,0-270.357,1556.235Z" transform="translate(273.391 -1555.379)" fill="#292929"/>
      <path id="Path_2719" data-name="Path 2719" d="M-254.059,1552.47a.155.155,0,0,0,.155.156.155.155,0,0,0,.155-.156.156.156,0,0,0-.155-.155A.156.156,0,0,0-254.059,1552.47Z" transform="translate(254.059 -1552.315)" fill="#292929"/>
      <path id="Path_2720" data-name="Path 2720" d="M-338.563,1580.847a.185.185,0,0,0,.186.185.185.185,0,0,0,.184-.185.185.185,0,0,0-.184-.185A.185.185,0,0,0-338.563,1580.847Z" transform="translate(354.233 -1575.385)" fill="#292929"/>
    </g>
    <path id="Path_2721" data-name="Path 2721" d="M-322.451,1484.059s-.55-1.044-1.4-1.1h-10.018l10.067.137A2.244,2.244,0,0,1-322.451,1484.059Z" transform="translate(357.996 -1482.583)" fill="#ffde6b" style="mix-blend-mode: screen;isolation: isolate"/>
  </g>
</svg>
