<svg id="Group_15812" data-name="Group 15812" xmlns="http://www.w3.org/2000/svg" xmlns:xlink="http://www.w3.org/1999/xlink" width="43.864" height="78.196" viewBox="0 0 43.864 78.196">
  <defs>
    <linearGradient id="linear-gradient" x1="-4.94" y1="-366.64" x2="-6.153" y2="-366.64" gradientUnits="objectBoundingBox">
      <stop offset="0" stop-color="#fec866"/>
      <stop offset="1" stop-color="#e0ae57"/>
    </linearGradient>
    <linearGradient id="linear-gradient-2" x1="1" y1="0.5" x2="0" y2="0.5" gradientUnits="objectBoundingBox">
      <stop offset="0" stop-color="#827cbc"/>
      <stop offset="1" stop-color="#4762af"/>
    </linearGradient>
    <linearGradient id="linear-gradient-13" x1="0" y1="0.5" x2="1" y2="0.5" xlink:href="#linear-gradient-2"/>
    <linearGradient id="linear-gradient-14" x1="1" y1="0.5" x2="0" y2="0.5" gradientUnits="objectBoundingBox">
      <stop offset="0" stop-color="#3b393c"/>
      <stop offset="0.31" stop-color="#4b4b4d"/>
      <stop offset="0.609" stop-color="#59595b"/>
      <stop offset="0.936" stop-color="#95969a"/>
      <stop offset="1" stop-color="#95969a"/>
    </linearGradient>
  </defs>
  <path id="Path_2722" data-name="Path 2722" d="M1627.416,539.225v-.811h-.6v1.666h.329a1.331,1.331,0,0,1,1.068,1.671,1.258,1.258,0,0,1-.856,1.028,1.1,1.1,0,0,1-1.274-.793.76.76,0,0,0-.692-.542h-.435l.171.442.341.174a1.789,1.789,0,0,0,1.7,1.473,1.939,1.939,0,0,0,1.67-1.95A2.254,2.254,0,0,0,1627.416,539.225Z" transform="translate(-1586.851 -490.955)" fill="#292929"/>
  <path id="Path_2723" data-name="Path 2723" d="M1631.984,539.387v-.973h-.6v1.666h.328a1.331,1.331,0,0,1,1.068,1.671,1.259,1.259,0,0,1-.856,1.028,1.1,1.1,0,0,1-1.274-.793.759.759,0,0,0-.692-.542,1.746,1.746,0,1,0,3.446.139A2.047,2.047,0,0,0,1631.984,539.387Z" transform="translate(-1591.854 -490.955)" fill="#3f3f3f"/>
  <rect id="Rectangle_1241" data-name="Rectangle 1241" width="8.049" height="0.144" rx="0.072" transform="translate(15.781 69.506)" fill="#d1cea6"/>
  <path id="Path_2724" data-name="Path 2724" d="M1838.135,750.2l2.728-3.449a1.044,1.044,0,0,1,1.8,0l2.728,3.449Z" transform="translate(-1821.947 -680.692)" fill="url(#linear-gradient)"/>
  <path id="Path_2725" data-name="Path 2725" d="M1740.677,796.6l-20.581,8.27-13.031-6.538Z" transform="translate(-1705.83 -726.677)" fill="#292929" opacity="0.14"/>
  <path id="Path_2726" data-name="Path 2726" d="M1623.881-5.1l-2.915-1.868-3.494,8.32.3.191-9.295,22.29-5.04,21.332.717.249.514-2.177,1.2,5.218-.7,1.669.665.412L1615,28.769l6.053-25.1.4.26Zm-5.919,8.183.41,1.769-1.523.9Zm-1.687,4.045.466,2.875-2.062.953Zm-2.23,5.347.662,3.448-2.518,1Zm-2.342,5.616,1.186,4.527-3.412.81Zm-2.686,6.691,1.145,5.058-2.49.642Zm-1.7,7.2,1.1,4.353-2.309.777Zm-1.51,6.4.612,3.38-1.514.444Zm.307,9.481-1.2-5.2,1.583-.464.6,3.319Zm1.254-2.974-.505-2.792,1.92-.563ZM1609.007,41l-2.224.652-.734-4.051,2.477-.834.848,3.359Zm.612-1.453-.733-2.9,2.279-.767Zm1.777-4.216-2.619.882-1.27-5.03.049-.21,2.7-.7,1.141,5.042Zm.258-.612-1.027-4.538,3.3-.851Zm2.65-6.286-.159.377-3.616.933-1.3-5.728.032-.077L1613,23.05l1.353,5.164Zm.24-1-1.172-4.473,2.387-.567Zm-1.286-4.908-1.314-5.016.006-.016,2.842-1.133,1.065,5.548Zm2.821-1.458-.931-4.849,2.323-.926Zm-1.016-5.292-.756-3.935.121-.289,2.386-1.1.7,4.348Zm2.712-1.742-.607-3.749,1.7-.786ZM1619,8.957l-1.905.881-.546-3.368.023-.054,1.9-1.123.691,2.976Zm.364-1.508-.547-2.358,1.3-.767Zm.895-3.712-1.545.911-.5-2.165.215-.516,1.954,1.263Z" transform="translate(-1580.016 6.971)" fill="url(#linear-gradient-2)"/>
  <path id="Path_2727" data-name="Path 2727" d="M1632.46,28.693h-2.437v1.17h.008l.256,39.464h.409l-.121-39.515.442-.041.257,39.556h.409l-.121-39.608.805-.075Z" transform="translate(-1590.91 -25.589)" fill="#373737"/>
  <path id="Path_2728" data-name="Path 2728" d="M1664.811-6.983l-3.493,8.322.295.19-.228.548-.5,1.191-1.232,2.952-.541,1.3-6.8,16.3-5.038,21.33.716.249.515-2.173,1.2,5.216-.706,1.671.668.412,9.173-21.765L1664.9,3.653l.4.263,2.426-9.028Zm-3,10.052.41,1.77-1.522.9Zm-1.687,4.043.466,2.88-2.064.951Zm-2.228,5.347.661,3.45-2.519,1.005Zm-2.344,5.619,1.187,4.528-3.411.811Zm-2.683,6.692,1.142,5.057-2.489.638Zm-1.7,7.2,1.1,4.351-2.31.779Zm-1.508,6.4.612,3.378-1.515.444Zm.306,9.481-1.2-5.2,1.582-.462.6,3.319Zm1.254-2.975-.508-2.794,1.922-.561Zm1.638-3.885-2.224.652-.735-4.052,2.478-.833.847,3.359Zm.612-1.453-.731-2.9,2.277-.765Zm1.776-4.215-2.62.878-1.269-5.026.049-.213,2.706-.7,1.142,5.044Zm.258-.611-1.026-4.541,3.3-.851Zm2.65-6.289-.161.38-3.616.933L1653.078,24l.034-.077,3.739-.887L1658.2,28.2Zm.239-1-1.172-4.473,2.388-.566Zm-1.284-4.908-1.313-5.017,0-.014,2.844-1.132L1659.7,21.9Zm2.822-1.458-.933-4.849,2.325-.924Zm-1.019-5.288-.754-3.939.119-.285,2.388-1.1.7,4.347Zm2.713-1.743-.608-3.749,1.7-.788Zm1.224-5.08-1.9.878-.545-3.369.023-.05,1.9-1.123.69,2.975Zm.366-1.508-.549-2.359,1.3-.765Zm.9-3.713-1.545.91-.5-2.164.216-.516,1.952,1.263Z" transform="translate(-1627.677 6.983)" fill="url(#linear-gradient-2)"/>
  <path id="Path_2729" data-name="Path 2729" d="M1796.155,642.324v3.319l-11.32,2.49-16.484-2.49v-7.321h24.322v4Z" transform="translate(-1766.642 -582.168)" fill="url(#linear-gradient-2)"/>
  <path id="Path_2730" data-name="Path 2730" d="M1741.91,749.416v1.44l-3.822,2.1-1.444-.525-2.758-1.005-4.243,1.413v0a3.7,3.7,0,0,1-2.344,2.785l-2.273.724-16.093-3.5a2.214,2.214,0,0,1-1.34-.946,3.119,3.119,0,0,1-.53-1.766,2.8,2.8,0,0,1,1.437-2.563h0a1.825,1.825,0,0,1,.511-.168l5.232-.91h25.61l0,0A2.838,2.838,0,0,1,1741.91,749.416Z" transform="translate(-1707.064 -680.93)" fill="#292929"/>
  <path id="Path_2731" data-name="Path 2731" d="M1917.757,773.285l-.142.543-15.7-3.418a1.656,1.656,0,0,1-1.026-.724,2.4,2.4,0,0,1-.407-1.354,2.258,2.258,0,0,1,.788-1.766l.172-.14,15.746,3.011.123.154C1917.633,769.979,1918.316,771.12,1917.757,773.285Z" transform="translate(-1899.954 -699.125)" fill="#131313"/>
  <path id="Path_2732" data-name="Path 2732" d="M1761.759,762.973,1759,761.968l-1.292-3.921,4.639.992S1763.248,761.561,1761.759,762.973Z" transform="translate(-1732.178 -691.476)" fill="#131313"/>
  <path id="Path_2733" data-name="Path 2733" d="M1870.937,746.5l13.9,2.409-6.624,1.159-13.021-2.49Z" transform="translate(-1863.753 -680.93)" fill="#2b2b2b"/>
  <path id="Path_2734" data-name="Path 2734" d="M1800.847,759.451l-1.572-.272,6.017-1.131,1.291,3.921-4.243,1.413S1802.678,760.074,1800.847,759.451Z" transform="translate(-1779.76 -691.476)" fill="#2b2b2b"/>
  <path id="Path_2735" data-name="Path 2735" d="M1768.338,724.359v1.1l4.412.75,10.807-3.75-11.32,2.49Z" transform="translate(-1754.042 -658.983)" fill="url(#linear-gradient-2)"/>
  <path id="Path_2736" data-name="Path 2736" d="M2049.754,773.436a.345.345,0,1,1-.338-.41A.379.379,0,0,1,2049.754,773.436Z" transform="translate(-2044.669 -705.151)" fill="url(#linear-gradient-2)"/>
  <ellipse id="Ellipse_92" data-name="Ellipse 92" cx="0.73" cy="0.885" rx="0.73" ry="0.885" transform="translate(3.193 70.25)" fill="url(#linear-gradient-2)"/>
  <ellipse id="Ellipse_93" data-name="Ellipse 93" cx="0.73" cy="0.885" rx="0.73" ry="0.885" transform="translate(6.863 71.135)" fill="url(#linear-gradient-2)"/>
  <path id="Path_2737" data-name="Path 2737" d="M1966.873,821.553a.743.743,0,1,1-.73-.885A.819.819,0,0,1,1966.873,821.553Z" transform="translate(-1954.507 -748.648)" fill="url(#linear-gradient-2)"/>
  <path id="Path_2738" data-name="Path 2738" d="M1981.8,786.607a.345.345,0,1,1-.338-.41A.38.38,0,0,1,1981.8,786.607Z" transform="translate(-1970.805 -717.176)" fill="url(#linear-gradient-2)"/>
  <path id="Path_2739" data-name="Path 2739" d="M1907.573,776.858a1.168,1.168,0,0,1-.713-.5,1.669,1.669,0,0,1-.285-.945,1.586,1.586,0,0,1,.549-1.232l15.374,2.94c.263.322.785,1.235.314,3.055Z" transform="translate(-1905.516 -706.202)" fill="#3f3f3f"/>
  <path id="Path_2740" data-name="Path 2740" d="M1911.848,761.936l-15.984-3.056h0a2.8,2.8,0,0,0-1.437,2.563,3.116,3.116,0,0,0,.53,1.766,2.212,2.212,0,0,0,1.34.946l16.093,3.5C1913.952,763.557,1911.848,761.936,1911.848,761.936Zm.377,4.46-.142.543-15.7-3.418a1.655,1.655,0,0,1-1.026-.724,2.4,2.4,0,0,1-.407-1.354,2.258,2.258,0,0,1,.787-1.766l.172-.14,15.745,3.011.123.154C1912.1,763.091,1912.784,764.232,1912.224,766.4Z" transform="translate(-1894.422 -692.236)" fill="#3f3f3f"/>
  <path id="Path_2741" data-name="Path 2741" d="M1841.266,593.36V579.694l6.438,1.245,4.269-.509,2.525,7.471-.139,5.643-4.835,1.064Z" transform="translate(-1831.329 -528.643)" fill="#373737"/>
  <path id="Path_2742" data-name="Path 2742" d="M1905.945,609.067l-2.986-.453-.6-.091-1.765-.263-1.818-.276v-11.03l5.348,1.037.892,3.414.735,2.821.045.168.037,1.127.019.6Z" transform="translate(-1887.781 -544.402)" fill="#346a77"/>
  <path id="Path_2743" data-name="Path 2743" d="M1851.123,609.081l-.071,4.315-4.049.874-.116-3.269-.022-.607-.026-.765-.112-.444-.728-2.843-.791-3.1,3.852-.462.272.829.922,2.816.265.806.164.5Z" transform="translate(-1828.298 -549.723)" fill="#346a77"/>
  <path id="Path_2744" data-name="Path 2744" d="M1870.286,579.694h6.422l4.284.736-4.269.509Z" transform="translate(-1860.349 -528.643)" fill="#3f3f3f"/>
  <path id="Path_2745" data-name="Path 2745" d="M1894.919,619.115l-.541.118-.149-4.673-1.672-6.4.567-.068,1.631,6.384Z" transform="translate(-1876.213 -554.568)" fill="#373737"/>
  <path id="Path_2746" data-name="Path 2746" d="M2015.235,684.659l-.366-.05-6.557-.933v-2.065l6.15.978Z" transform="translate(-2006.602 -621.692)" fill="#373737"/>
  <path id="Path_2747" data-name="Path 2747" d="M1808.367,638.321l1.05,3.1-.027,1.075,2.89-.177v-4Z" transform="translate(-1786.248 -582.168)" fill="url(#linear-gradient-2)"/>
  <path id="Path_2748" data-name="Path 2748" d="M2015.235,684.659l-.366-.05-.616-1.707-5.942-1.032v-.258l6.15.978Z" transform="translate(-2006.602 -621.692)" fill="#1f1f1f"/>
  <rect id="Rectangle_1242" data-name="Rectangle 1242" width="5.738" height="1.904" transform="translate(4.199 54.249)" fill="url(#linear-gradient-2)"/>
  <rect id="Rectangle_1243" data-name="Rectangle 1243" width="5.738" height="0.149" transform="translate(4.199 56.004)" fill="url(#linear-gradient-13)"/>
  <path id="Path_2749" data-name="Path 2749" d="M1989,473.786V486.2h.752V474.013Z" transform="translate(-1979.438 -431.951)" fill="url(#linear-gradient-14)"/>
  <rect id="Rectangle_1244" data-name="Rectangle 1244" width="1.75" height="1.754" transform="translate(8.187 54.249)" fill="url(#linear-gradient-13)"/>
  <rect id="Rectangle_1245" data-name="Rectangle 1245" width="1.376" height="0.803" transform="translate(4.607 55.201)" fill="#3f3f3f"/>
  <rect id="Rectangle_1246" data-name="Rectangle 1246" width="1.376" height="0.803" transform="translate(6.589 55.201)" fill="#3f3f3f"/>
  <rect id="Rectangle_1247" data-name="Rectangle 1247" width="1.75" height="0.149" transform="translate(8.187 56.004)" fill="url(#linear-gradient-13)"/>
  <path id="Path_2750" data-name="Path 2750" d="M1993.32,719.191v-.311l8.228,1.283v.271Z" transform="translate(-1991.61 -655.717)" fill="#373737"/>
  <path id="Path_2751" data-name="Path 2751" d="M1944.6,472.1l-1.668-3.623H1938.1l4.479,9.678h4.8Zm-1.779-2.548,1.172,2.547h-3.607l-1.179-2.547ZM1940.9,473.2h3.6l1.985,4.31h-3.594Z" transform="translate(-1932.645 -427.102)" fill="url(#linear-gradient-2)"/>
  <path id="Path_2752" data-name="Path 2752" d="M2023.076,496.72v10.418h.752v-8.793Z" transform="translate(-2016.48 -452.888)" fill="url(#linear-gradient-14)"/>
  <path id="Path_2753" data-name="Path 2753" d="M1907.245,648.1l.736,2.821-5.158,4.034-1.818-.276v-1.462Z" transform="translate(-1890.01 -591.099)" fill="#5fb8be"/>
  <path id="Path_2754" data-name="Path 2754" d="M1859.455,615.121l-3.527,2.757-.728-2.843,3.333-2.73Z" transform="translate(-1837.499 -558.416)" fill="#5fb8be"/>
  <path id="Path_2755" data-name="Path 2755" d="M1903.322,695.4l.019.6-2.892,2.49-.6-.091Z" transform="translate(-1885.27 -634.28)" fill="#5fb8be"/>
  <path id="Path_2756" data-name="Path 2756" d="M1854.086,654.429l-3.8,3.269-.022-.607,3.654-3.16Z" transform="translate(-1831.701 -596.419)" fill="#5fb8be"/>
  <path id="Path_2757" data-name="Path 2757" d="M1836.244,638.321l1.079,3.067v1.082l-.5.031.026-1.075-1.05-3.1Z" transform="translate(-1813.679 -582.168)" fill="url(#linear-gradient-2)"/>
  <path id="Path_2758" data-name="Path 2758" d="M1745.833,97.133l-.5,1.191-14.167,19.229-10.83,12.669-.194-.249,10.823-12.655Z" transform="translate(-1712.125 -88.073)" fill="#373737"/>
  <path id="Path_2759" data-name="Path 2759" d="M1762.246,144.743l-.541,1.3L1751.647,160.4l-11.454,12.949-.19-.249,11.439-12.936Z" transform="translate(-1730.266 -131.54)" fill="#373737"/>
  <path id="Path_2760" data-name="Path 2760" d="M1628.385,485.438h-1.406l-.844,1.024.633,3.585h1.828l.633-3.585Z" transform="translate(-1587.341 -442.589)" fill="url(#linear-gradient-2)"/>
  <path id="Path_2761" data-name="Path 2761" d="M1634.248,485.438h-1.406l-.844,1.024.633,3.585h1.828l.634-3.585Z" transform="translate(-1593.714 -442.589)" fill="url(#linear-gradient-2)"/>
  <path id="Path_2762" data-name="Path 2762" d="M2010.854,470.78a.336.336,0,1,1-.33-.4A.37.37,0,0,1,2010.854,470.78Z" transform="translate(-2002.385 -428.841)" fill="#3f3f3f"/>
  <path id="Path_2763" data-name="Path 2763" d="M1991.6,469.588a.336.336,0,1,1-.33-.4A.37.37,0,0,1,1991.6,469.588Z" transform="translate(-1981.46 -427.753)" fill="#3f3f3f"/>
  <path id="Path_2764" data-name="Path 2764" d="M1768.338,721.568l.009-.354,6.476-1.294v.221Z" transform="translate(-1745.308 -656.667)" fill="#373737"/>
</svg>
