<svg id="Group_15815" data-name="Group 15815" xmlns="http://www.w3.org/2000/svg" xmlns:xlink="http://www.w3.org/1999/xlink" width="64.03" height="39.53" viewBox="0 0 64.03 39.53">
  <defs>
    <linearGradient id="linear-gradient" x1="1" y1="0.5" x2="0" y2="0.5" gradientUnits="objectBoundingBox">
      <stop offset="0" stop-color="#3b393c"/>
      <stop offset="0.417" stop-color="#4b4b4d"/>
      <stop offset="0.832" stop-color="#59595b"/>
      <stop offset="1" stop-color="#59595b"/>
    </linearGradient>
    <linearGradient id="linear-gradient-5" x1="-2.364" y1="0.5" x2="3.363" y2="0.5" xlink:href="#linear-gradient"/>
  </defs>
  <g id="Group_2180" data-name="Group 2180" transform="translate(0)">
    <g id="Group_2151" data-name="Group 2151" transform="translate(43.154 9.909)">
      <g id="Group_2150" data-name="Group 2150" transform="translate(0.556 1.253)">
        <g id="Group_2149" data-name="Group 2149" transform="translate(2.048 2.2)">
          <rect id="Rectangle_1211" data-name="Rectangle 1211" width="1.789" height="1.666" fill="url(#linear-gradient)"/>
          <rect id="Rectangle_1212" data-name="Rectangle 1212" width="1.789" height="1.665" transform="translate(0 6.304)" fill="url(#linear-gradient)"/>
          <rect id="Rectangle_1213" data-name="Rectangle 1213" width="1.789" height="1.665" transform="translate(0 12.609)" fill="url(#linear-gradient)"/>
          <rect id="Rectangle_1214" data-name="Rectangle 1214" width="1.789" height="1.665" transform="translate(0 18.913)" fill="url(#linear-gradient)"/>
        </g>
        <path id="Path_2121" data-name="Path 2121" d="M-439.365,850.988s-.1.69.281.741l16.941.485s.331,0,.357.256c0,0,.051.255-.333.306h-16.966s-1.506.128-1.635-.664a2.425,2.425,0,0,1,0-1.125Z" transform="translate(442.104 -827.223)"/>
        <rect id="Rectangle_1215" data-name="Rectangle 1215" width="2.048" height="22.171" transform="translate(0 0.794)" fill="#0f0f0f"/>
        <rect id="Rectangle_1216" data-name="Rectangle 1216" width="1.942" height="24.098" transform="translate(1.078)" fill="#292929"/>
        <rect id="Rectangle_1217" data-name="Rectangle 1217" width="0.92" height="24.098" transform="translate(1.078)" fill="#3b3b3b" opacity="0.4" style="mix-blend-mode: screen;isolation: isolate"/>
      </g>
      <rect id="Rectangle_1218" data-name="Rectangle 1218" width="4.393" height="2.31" transform="translate(0)" fill="#1d1d1b"/>
      <rect id="Rectangle_1219" data-name="Rectangle 1219" width="4.393" height="1.156" transform="translate(0 1.155)" fill="#0f0f0f"/>
    </g>
    <path id="Path_2122" data-name="Path 2122" d="M-325.085,800.969l-3.295,3.55h3.762Z" transform="translate(359.667 -778.041)" fill="#0f0f0f"/>
    <path id="Path_2123" data-name="Path 2123" d="M-314.868,759.759l.452,2.157-.226.33-.5-2.129Z" transform="translate(345.84 -746.808)" fill="#2b2b2b"/>
    <path id="Path_2124" data-name="Path 2124" d="M-312.8,770.268l2.186-.274.239-.321-2.176.222Z" transform="translate(341.306 -754.158)" fill="#2b2b2b"/>
    <g id="Group_2154" data-name="Group 2154" transform="translate(14.225 0.249)">
      <g id="Group_2153" data-name="Group 2153" transform="translate(0)">
        <path id="Path_2125" data-name="Path 2125" d="M-257.059,711.373h.511s.372.252-.03.6h-.446Z" transform="translate(258.671 -710.288)" fill="#727271"/>
        <g id="Group_2152" data-name="Group 2152">
          <path id="Path_2126" data-name="Path 2126" d="M-255.652,707.734a1.283,1.283,0,0,0-.144.01v2.75a1.019,1.019,0,0,0,.144.011c.617,0,.947-.523,1.117-1.117v-.537A1.117,1.117,0,0,0-255.652,707.734Z" transform="translate(256.44 -707.734)"/>
          <path id="Path_2127" data-name="Path 2127" d="M-250.924,707.769s-.642.2-.644,1.375c0,1.293.644,1.375.644,1.375Z" transform="translate(251.568 -707.759)" fill="#ed3a0f"/>
        </g>
      </g>
      <path id="Path_2128" data-name="Path 2128" d="M-250.774,708.442a2.07,2.07,0,0,0-.407,1.521s.075-.648.407-.859Z" transform="translate(251.303 -708.231)" fill="#ffd4a8" style="mix-blend-mode: screen;isolation: isolate"/>
    </g>
    <g id="Group_2158" data-name="Group 2158" transform="translate(46.608 2.9)">
      <g id="Group_2155" data-name="Group 2155" transform="translate(0)">
        <path id="Path_2129" data-name="Path 2129" d="M-375.324,716.625l.425.239v.357l-.425.221Z" transform="translate(375.324 -716.625)" fill="#787878"/>
        <path id="Path_2130" data-name="Path 2130" d="M-375.324,719.5l.425.239v.357l-.425.223Z" transform="translate(375.324 -718.643)" fill="#787878"/>
        <path id="Path_2131" data-name="Path 2131" d="M-375.324,722.381l.425.238v.358l-.425.221Z" transform="translate(375.324 -720.665)" fill="#787878"/>
        <path id="Path_2132" data-name="Path 2132" d="M-375.324,725.26l.425.238v.358l-.425.221Z" transform="translate(375.324 -722.685)" fill="#787878"/>
        <path id="Path_2133" data-name="Path 2133" d="M-375.324,728.138l.425.239v.358l-.425.221Z" transform="translate(375.324 -724.705)" fill="#787878"/>
        <path id="Path_2134" data-name="Path 2134" d="M-375.324,731.016l.425.239v.357l-.425.222Z" transform="translate(375.324 -726.725)" fill="#787878"/>
        <path id="Path_2135" data-name="Path 2135" d="M-375.324,733.9l.425.238v.358l-.425.222Z" transform="translate(375.324 -728.747)" fill="#787878"/>
        <path id="Path_2136" data-name="Path 2136" d="M-375.324,736.772l.425.238v.358l-.425.221Z" transform="translate(375.324 -730.765)" fill="#787878"/>
      </g>
      <g id="Group_2156" data-name="Group 2156" transform="translate(0 6.981)">
        <path id="Path_2137" data-name="Path 2137" d="M-375.324,740.038l.425.239v.359l-.425.221Z" transform="translate(375.324 -740.038)" fill="#787878"/>
        <path id="Path_2138" data-name="Path 2138" d="M-375.324,742.917l.425.239v.358l-.425.221Z" transform="translate(375.324 -742.059)" fill="#787878"/>
        <path id="Path_2139" data-name="Path 2139" d="M-375.324,745.794l.425.239v.358l-.425.221Z" transform="translate(375.324 -744.078)" fill="#787878"/>
        <path id="Path_2140" data-name="Path 2140" d="M-375.324,748.672l.425.239v.358l-.425.221Z" transform="translate(375.324 -746.098)" fill="#787878"/>
        <path id="Path_2141" data-name="Path 2141" d="M-375.324,751.55l.425.239v.358l-.425.221Z" transform="translate(375.324 -748.118)" fill="#787878"/>
        <path id="Path_2142" data-name="Path 2142" d="M-375.324,754.43l.425.238v.358l-.425.222Z" transform="translate(375.324 -750.139)" fill="#787878"/>
        <path id="Path_2143" data-name="Path 2143" d="M-375.324,757.308l.425.238v.358l-.425.222Z" transform="translate(375.324 -752.159)" fill="#787878"/>
        <path id="Path_2144" data-name="Path 2144" d="M-375.324,760.185l.425.239v.357l-.425.222Z" transform="translate(375.324 -754.178)" fill="#787878"/>
      </g>
      <g id="Group_2157" data-name="Group 2157" transform="translate(0 13.962)">
        <path id="Path_2145" data-name="Path 2145" d="M-375.324,763.451l.425.239v.358l-.425.221Z" transform="translate(375.324 -763.451)" fill="#787878"/>
        <path id="Path_2146" data-name="Path 2146" d="M-375.324,766.329l.425.238v.358l-.425.222Z" transform="translate(375.324 -765.471)" fill="#787878"/>
        <path id="Path_2147" data-name="Path 2147" d="M-375.324,769.21l.425.238v.357l-.425.222Z" transform="translate(375.324 -767.493)" fill="#787878"/>
        <path id="Path_2148" data-name="Path 2148" d="M-375.324,772.086l.425.239v.358l-.425.222Z" transform="translate(375.324 -769.511)" fill="#787878"/>
        <path id="Path_2149" data-name="Path 2149" d="M-375.324,774.964l.425.239v.358l-.425.221Z" transform="translate(375.324 -771.531)" fill="#787878"/>
        <path id="Path_2150" data-name="Path 2150" d="M-375.324,777.844l.425.238v.358l-.425.221Z" transform="translate(375.324 -773.553)" fill="#787878"/>
        <path id="Path_2151" data-name="Path 2151" d="M-375.324,780.722l.425.239v.357l-.425.222Z" transform="translate(375.324 -775.572)" fill="#787878"/>
        <path id="Path_2152" data-name="Path 2152" d="M-375.324,783.6l.425.238v.358l-.425.222Z" transform="translate(375.324 -777.592)" fill="#787878"/>
      </g>
    </g>
    <g id="Group_2162" data-name="Group 2162" transform="translate(46.608 15.763)">
      <g id="Group_2159" data-name="Group 2159" transform="translate(0)">
        <path id="Path_2153" data-name="Path 2153" d="M-375.324,786.716l.425.239v.358l-.425.221Z" transform="translate(375.324 -786.716)" fill="#787878"/>
        <path id="Path_2154" data-name="Path 2154" d="M-375.324,789.594l.425.239v.358l-.425.221Z" transform="translate(375.324 -788.736)" fill="#787878"/>
        <path id="Path_2155" data-name="Path 2155" d="M-375.324,792.472l.425.239v.358l-.425.221Z" transform="translate(375.324 -790.756)" fill="#787878"/>
        <path id="Path_2156" data-name="Path 2156" d="M-375.324,795.35l.425.239v.358l-.425.221Z" transform="translate(375.324 -792.775)" fill="#787878"/>
        <path id="Path_2157" data-name="Path 2157" d="M-375.324,798.229l.425.238v.358l-.425.221Z" transform="translate(375.324 -794.796)" fill="#787878"/>
        <path id="Path_2158" data-name="Path 2158" d="M-375.324,801.109l.425.238v.358l-.425.221Z" transform="translate(375.324 -796.817)" fill="#787878"/>
        <path id="Path_2159" data-name="Path 2159" d="M-375.324,803.986l.425.238v.357l-.425.222Z" transform="translate(375.324 -798.837)" fill="#787878"/>
        <path id="Path_2160" data-name="Path 2160" d="M-375.324,806.862l.425.239v.358l-.425.221Z" transform="translate(375.324 -800.856)" fill="#787878"/>
      </g>
      <g id="Group_2160" data-name="Group 2160" transform="translate(0 6.981)">
        <path id="Path_2161" data-name="Path 2161" d="M-375.324,810.13l.425.239v.357l-.425.222Z" transform="translate(375.324 -810.13)" fill="#787878"/>
        <path id="Path_2162" data-name="Path 2162" d="M-375.324,813.008l.425.239v.358l-.425.221Z" transform="translate(375.324 -812.15)" fill="#787878"/>
        <path id="Path_2163" data-name="Path 2163" d="M-375.324,815.89l.425.238v.357l-.425.222Z" transform="translate(375.324 -814.172)" fill="#787878"/>
        <path id="Path_2164" data-name="Path 2164" d="M-375.324,818.766l.425.239v.358l-.425.221Z" transform="translate(375.324 -816.191)" fill="#787878"/>
        <path id="Path_2165" data-name="Path 2165" d="M-375.324,821.645l.425.239v.358l-.425.222Z" transform="translate(375.324 -818.211)" fill="#787878"/>
        <path id="Path_2166" data-name="Path 2166" d="M-375.324,824.521l.425.239v.359l-.425.22Z" transform="translate(375.324 -820.23)" fill="#787878"/>
        <path id="Path_2167" data-name="Path 2167" d="M-375.324,827.4l.425.238V828l-.425.221Z" transform="translate(375.324 -822.251)" fill="#787878"/>
        <path id="Path_2168" data-name="Path 2168" d="M-375.324,830.278l.425.239v.358l-.425.221Z" transform="translate(375.324 -824.271)" fill="#787878"/>
      </g>
      <g id="Group_2161" data-name="Group 2161" transform="translate(0 13.963)">
        <path id="Path_2169" data-name="Path 2169" d="M-375.324,833.546l.425.238v.358l-.425.221Z" transform="translate(375.324 -833.546)" fill="#787878"/>
        <path id="Path_2170" data-name="Path 2170" d="M-375.324,836.424l.425.239v.358l-.425.221Z" transform="translate(375.324 -835.566)" fill="#787878"/>
        <path id="Path_2171" data-name="Path 2171" d="M-375.324,839.3l.425.238v.358l-.425.222Z" transform="translate(375.324 -837.586)" fill="#787878"/>
        <path id="Path_2172" data-name="Path 2172" d="M-375.324,842.179l.425.24v.357l-.425.221Z" transform="translate(375.324 -839.605)" fill="#787878"/>
        <path id="Path_2173" data-name="Path 2173" d="M-375.324,845.06l.425.238v.358l-.425.221Z" transform="translate(375.324 -841.627)" fill="#787878"/>
        <path id="Path_2174" data-name="Path 2174" d="M-375.324,847.937l.425.239v.358l-.425.221Z" transform="translate(375.324 -843.646)" fill="#787878"/>
      </g>
    </g>
    <rect id="Rectangle_1220" data-name="Rectangle 1220" width="0.545" height="21.76" transform="translate(41.539 2.535)" fill="#757676"/>
    <rect id="Rectangle_1221" data-name="Rectangle 1221" width="1.09" height="19.368" transform="translate(41.255 3.42)" fill="#1d1d1b"/>
    <rect id="Rectangle_1222" data-name="Rectangle 1222" width="0.545" height="19.368" transform="translate(41.301 3.42)" fill="#121212"/>
    <path id="Path_2175" data-name="Path 2175" d="M-310.253,810.377h-18.839v2.75h17.356Z" transform="translate(346.729 -785.056)" fill="#23211f"/>
    <path id="Path_2176" data-name="Path 2176" d="M-310.253,814.857h-18.839v1.414h17.356Z" transform="translate(346.729 -788.273)" fill="#696969" style="mix-blend-mode: multiply;isolation: isolate"/>
    <rect id="Rectangle_1223" data-name="Rectangle 1223" width="4.569" height="33.322" transform="translate(42.351 2.109)" fill="#292929"/>
    <rect id="Rectangle_1224" data-name="Rectangle 1224" width="0.703" height="33.322" transform="translate(45.767 2.109)" fill="#292929" style="mix-blend-mode: screen;isolation: isolate"/>
    <rect id="Rectangle_1225" data-name="Rectangle 1225" width="2.284" height="33.322" transform="translate(42.567 2.109)" fill="#121212"/>
    <rect id="Rectangle_1226" data-name="Rectangle 1226" width="4.569" height="1.283" transform="translate(42.351 2.109)" fill="#1d1d1b" style="mix-blend-mode: multiply;isolation: isolate"/>
    <rect id="Rectangle_1227" data-name="Rectangle 1227" width="4.569" height="0.782" transform="translate(42.351 8.089)" fill="#1d1d1b" style="mix-blend-mode: multiply;isolation: isolate"/>
    <rect id="Rectangle_1228" data-name="Rectangle 1228" width="1.226" height="6.925" transform="matrix(-0.226, -0.974, 0.974, -0.226, 37.938, 21.747)" fill="url(#linear-gradient-5)"/>
    <path id="Path_2177" data-name="Path 2177" d="M-365.167,784.871l1.627-.378.279,1.195-1.409.327A1.738,1.738,0,0,1-365.167,784.871Z" transform="translate(407.716 -765.395)" fill="#914a17" opacity="0.5" style="mix-blend-mode: multiply;isolation: isolate"/>
    <path id="Path_2178" data-name="Path 2178" d="M-347.187,788.184c.094.4.171.8.253,1.2l-1.985.461-.278-1.194Z" transform="translate(387.274 -768.191)" fill="#914a17" opacity="0.5" style="mix-blend-mode: multiply;isolation: isolate"/>
    <g id="Group_2163" data-name="Group 2163" transform="translate(42.791 18.101)">
      <path id="Path_2179" data-name="Path 2179" d="M-370.068,782.44a1.488,1.488,0,0,0,1.488,1.488,1.487,1.487,0,0,0,1.488-1.488,1.488,1.488,0,0,0-1.488-1.488A1.488,1.488,0,0,0-370.068,782.44Z" transform="translate(370.068 -780.952)" fill="#1d1d1b"/>
      <path id="Path_2180" data-name="Path 2180" d="M-367.518,784.231a.727.727,0,0,0,.727.728.727.727,0,0,0,.728-.728.727.727,0,0,0-.728-.727A.727.727,0,0,0-367.518,784.231Z" transform="translate(368.279 -782.743)" fill="#e0e0e0"/>
    </g>
    <rect id="Rectangle_1229" data-name="Rectangle 1229" width="7.399" height="0.834" transform="translate(40.221 1.947)" fill="url(#linear-gradient)"/>
    <path id="Path_2181" data-name="Path 2181" d="M-347.916,810.181v4.881l-11.276,6.6h-3.338a11.405,11.405,0,0,1,3.424-9.673A9.338,9.338,0,0,1-347.916,810.181Z" transform="translate(392.387 -786.635)" fill="#070747"/>
    <path id="Path_2182" data-name="Path 2182" d="M-359.105,811.993a9.338,9.338,0,0,1,11.189-1.812v1.694c-3.576-2.043-8.523-1.687-11.189,1.837a9.259,9.259,0,0,0-1.846,7.954h-1.578A11.405,11.405,0,0,1-359.105,811.993Z" transform="translate(392.387 -786.635)" fill="#914a17" style="mix-blend-mode: multiply;isolation: isolate"/>
    <path id="Path_2183" data-name="Path 2183" d="M-318.75,766.668l-3.593-2.681-.818,1.022,3.167,3.236Z" transform="translate(352.498 -750.123)" fill="#525252"/>
    <path id="Path_2184" data-name="Path 2184" d="M-316.956,768.712l-.482.61-3.167-3.236.451-.564C-319.523,766.137-317.391,768.262-316.956,768.712Z" transform="translate(349.993 -751.251)" fill="#525252" opacity="0.4" style="mix-blend-mode: multiply;isolation: isolate"/>
    <path id="Path_2185" data-name="Path 2185" d="M-311.569,765.278l-.264-.27.818-1.022.216.161C-311.047,764.531-311.3,764.907-311.569,765.278Z" transform="translate(341.387 -749.921)" fill="#525252" style="mix-blend-mode: multiply;isolation: isolate"/>
    <path id="Path_2186" data-name="Path 2186" d="M-322.08,769.206l1.508,1.125-1.243,1.577-1.345-1.375C-322.79,770.1-322.43,769.654-322.08,769.206Z" transform="translate(354.197 -753.956)" fill="#525252" style="mix-blend-mode: multiply;isolation: isolate"/>
    <path id="Path_2187" data-name="Path 2187" d="M-321.242,766.688l-.852-.453-2.384,3.043.562.978Z" transform="translate(355.25 -751.808)" fill="#0f0f0f"/>
    <path id="Path_2188" data-name="Path 2188" d="M-314.855,760.694c-.308.413-.38.88-.161,1.044h0c.219.163.647-.039.956-.452l2.454-3.3c.308-.413.379-.88.159-1.044h0c-.219-.163-.647.039-.954.451Z" transform="translate(342.96 -744.792)" fill="#0f0f0f"/>
    <path id="Path_2189" data-name="Path 2189" d="M-333.354,768.222l-.544-2.521-2.42.159-2.793,3.622s-.239.2,0,.783,3.747,9.881,3.747,9.881l3.543-1.908Z" transform="translate(369.89 -752.422)" fill="#5c5c5c"/>
    <path id="Path_2190" data-name="Path 2190" d="M-336.631,768.222l-.544-2.521-1.621.107,2.429,10.894s-2.937,1.688-2.847,1.927c.222.586.574,1.517.574,1.517l3.543-1.908Z" transform="translate(372.963 -752.422)" fill="#696969" opacity="0.5" style="mix-blend-mode: multiply;isolation: isolate"/>
    <path id="Path_2191" data-name="Path 2191" d="M-304.769,789.353s8.075.613,11.5,1.176a2.011,2.011,0,0,1,1.43,1.737c.307,1.533.767,6.695.767,6.695h-9.557Z" transform="translate(320.946 -769.973)" fill="#363432"/>
    <path id="Path_2192" data-name="Path 2192" d="M-301.046,793.951l-1.982-4.6s8.075.613,11.5,1.176a2.011,2.011,0,0,1,1.43,1.737c.077.381.163.989.248,1.685Z" transform="translate(319.231 -769.366)" fill="#5c5c5c"/>
    <path id="Path_2193" data-name="Path 2193" d="M-302.069,792.089s4.681.341,7.66.831a1.75,1.75,0,0,1,1.245,1.512c.267,1.334.593,5.027.593,5.027h-6.364l-.685-5.187-2.373-1.686Z" transform="translate(321.339 -771.767)" fill="#696969" style="mix-blend-mode: multiply;isolation: isolate"/>
    <g id="Group_2164" data-name="Group 2164" transform="translate(19.27 20.322)">
      <path id="Path_2194" data-name="Path 2194" d="M-294.545,793.223c-2.629-.432-6.585-.749-7.475-.817l-.049-.317s4.681.341,7.66.831a1.75,1.75,0,0,1,1.245,1.512c.267,1.334.593,5.027.593,5.027h-.163c-.084-.908-.344-3.621-.566-4.724A1.749,1.749,0,0,0-294.545,793.223Z" transform="translate(302.069 -792.089)" fill="#696969" style="mix-blend-mode: multiply;isolation: isolate"/>
    </g>
    <path id="Path_2195" data-name="Path 2195" d="M-267.777,810.377h12.746l4.424,12.213h-21.23Z" transform="translate(273.689 -787.56)" fill="#070747"/>
    <path id="Path_2196" data-name="Path 2196" d="M-267.777,810.377h12.746l4.424,12.213h-1.61L-256,811.752h-10.953l-3.578,10.838h-1.306Z" transform="translate(273.689 -787.56)" fill="#914a17" style="mix-blend-mode: multiply;isolation: isolate"/>
    <path id="Path_2197" data-name="Path 2197" d="M-341.277,736.75c.435,0,.871,0,1.306-.014a27.265,27.265,0,0,0,.29-3.308c-.453-.162-.9-.331-1.328-.528l.56-8s.409-2.772,4.974-2.938h8.244l1.635-11.8a5.229,5.229,0,0,1,4.565-3.132s14.683-.831,16.489,1.746c0,0,.75.555,2.385,4.489s4.223,16.073,4.428,18.622c0,0-9.16,1.545-8.074,10.045h-13.324l-4.179-9.38h-12.034l-3.833,9.38h-2.445l.213-3.394Zm23.67-7.484.869,4.739,12.281.068a12.622,12.622,0,0,1,5.6-3.02,102.881,102.881,0,0,0-4.08-16.826c-1.507-3.785-2.2-4.318-2.2-4.318-1.82-1.653-13.406-1.414-13.406-1.414-4.768-.221-5.109,3.085-5.109,3.085l-.925,12.94Z" transform="translate(341.616 -706.899)" fill="#807be5"/>
    <path id="Path_2198" data-name="Path 2198" d="M-362.37,820.5h-1.255a10.861,10.861,0,0,1-.216-2.163A10.937,10.937,0,0,1-352.9,807.4a10.9,10.9,0,0,1,4.581,1.007v1.369a9.657,9.657,0,0,0-4.581-1.148,9.71,9.71,0,0,0-9.71,9.71A9.719,9.719,0,0,0-362.37,820.5Z" transform="translate(393.145 -785.472)" fill="url(#linear-gradient)"/>
    <g id="Group_2169" data-name="Group 2169" transform="translate(32.007 24.734)">
      <path id="Path_2199" data-name="Path 2199" d="M-370.354,825.815c.241-.089.4-.166.4-.166s-.174.01-.428.053-.588.114-.919.2c-.14.037-.277.078-.411.119a7.41,7.41,0,0,1-.223-1.726c.138.006.28.01.425.01.341,0,.683-.018.94-.043s.427-.059.427-.059-.171-.035-.427-.059-.6-.043-.94-.043c-.145,0-.287,0-.425.009a7.419,7.419,0,0,1,.224-1.73c.133.042.271.082.411.12.331.087.664.16.92.2s.426.054.426.054-.156-.077-.4-.167-.566-.2-.9-.285c-.14-.037-.279-.07-.415-.1a7.362,7.362,0,0,1,.675-1.626c.117.073.239.149.364.221.3.171.6.327.835.433s.4.164.4.164-.131-.116-.34-.265-.5-.337-.791-.508c-.126-.073-.252-.141-.374-.205a7.364,7.364,0,0,1,1.06-1.379c.093.1.192.205.294.307.241.242.5.471.695.634s.344.261.344.261-.1-.145-.261-.344-.392-.453-.634-.7c-.1-.1-.206-.2-.308-.293a7.415,7.415,0,0,1,1.381-1.064c.065.124.134.249.207.374.171.3.356.583.506.792s.266.341.266.341-.057-.165-.163-.4-.263-.539-.433-.835c-.073-.125-.148-.248-.221-.364a7.267,7.267,0,0,1,1.627-.674c.03.135.063.274.1.414.089.33.193.656.284.9s.167.4.167.4-.011-.174-.054-.427-.112-.589-.2-.919c-.038-.141-.079-.278-.12-.411a7.337,7.337,0,0,1,1.724-.223c-.005.138-.009.281-.01.425,0,.342.018.683.044.94s.058.428.058.428.035-.171.058-.428.044-.6.044-.94c0-.144,0-.286-.009-.425a7.337,7.337,0,0,1,1.728.224c-.039.132-.082.271-.118.411-.088.329-.159.665-.2.919s-.055.427-.055.427.078-.157.167-.4.2-.567.285-.9c.038-.14.07-.278.1-.414a7.366,7.366,0,0,1,1.627.674c-.074.117-.149.239-.221.364-.172.3-.329.6-.434.835s-.163.4-.163.4.115-.131.265-.34.336-.5.508-.792c.072-.125.141-.251.206-.374a7.386,7.386,0,0,1,1.377,1.061c-.1.094-.2.191-.306.293-.241.242-.471.5-.634.7s-.261.344-.261.344.145-.1.343-.261.454-.393.7-.634c.1-.1.2-.205.294-.307a7.457,7.457,0,0,1,1.063,1.382c-.123.065-.249.133-.374.205-.295.172-.583.358-.792.508s-.341.265-.341.265.165-.056.4-.163.541-.262.836-.433c.125-.073.247-.148.365-.222a7.378,7.378,0,0,1,.673,1.627c-.135.03-.274.064-.414.1-.33.089-.655.193-.9.284s-.4.166-.4.166.174-.011.427-.054.59-.113.919-.2c.14-.037.279-.078.411-.119a7.37,7.37,0,0,1,.223,1.725c-.137-.006-.28-.009-.424-.009-.341,0-.683.018-.94.043s-.427.059-.427.059.171.034.427.058.6.043.94.044c.144,0,.287,0,.424-.009a7.412,7.412,0,0,1-.223,1.729c-.133-.041-.272-.083-.411-.121-.33-.087-.665-.158-.919-.2s-.428-.054-.428-.054.156.077.4.166.567.2.9.286c.14.037.28.07.414.1a7.3,7.3,0,0,1-.675,1.627c-.117-.074-.239-.149-.364-.222-.3-.17-.6-.327-.834-.433s-.4-.164-.4-.164.132.116.34.265.5.337.792.509c.126.072.253.141.374.205a7.363,7.363,0,0,1-1.06,1.378c-.094-.1-.192-.2-.294-.307-.242-.241-.5-.471-.7-.634s-.343-.261-.343-.261.1.145.261.344.393.453.634.7c.1.1.206.2.306.293a7.357,7.357,0,0,1-1.381,1.063c-.064-.123-.133-.248-.205-.374-.172-.3-.357-.583-.508-.792a4.21,4.21,0,0,0-.265-.34s.057.165.164.4.263.539.433.835q.11.188.221.364a7.31,7.31,0,0,1-1.627.674c-.03-.135-.064-.274-.1-.414-.088-.33-.192-.656-.284-.9s-.165-.4-.165-.4.01.174.053.428.113.589.2.92q.058.211.12.411a7.449,7.449,0,0,1-1.725.223c.005-.138.009-.281.009-.425,0-.342-.018-.683-.044-.94s-.058-.427-.058-.427-.034.171-.058.427-.042.6-.044.94c0,.144,0,.287.01.425a7.407,7.407,0,0,1-1.728-.224c.04-.132.083-.271.119-.411.087-.33.16-.665.2-.919s.053-.428.053-.428-.076.156-.167.4-.2.567-.285.9c-.036.141-.069.28-.1.415a7.349,7.349,0,0,1-1.627-.676c.073-.116.148-.239.221-.364.171-.3.328-.6.434-.834s.163-.4.163-.4-.115.13-.264.34-.337.5-.509.792c-.072.125-.141.25-.206.373a7.479,7.479,0,0,1-1.378-1.062c.1-.093.205-.191.308-.293.242-.242.47-.5.634-.695s.261-.345.261-.345-.145.1-.344.261-.454.392-.695.634c-.1.1-.2.206-.294.307a7.4,7.4,0,0,1-1.062-1.381c.122-.065.248-.133.374-.206.3-.172.582-.357.791-.508s.341-.265.341-.265-.166.056-.4.163-.539.262-.835.433c-.126.072-.248.148-.365.222a7.422,7.422,0,0,1-.674-1.628c.136-.03.275-.063.415-.1C-370.921,826.011-370.6,825.906-370.354,825.815Z" transform="translate(371.938 -816.806)"/>
      <path id="Path_2200" data-name="Path 2200" d="M-369.146,826.166a6.566,6.566,0,0,0,6.565,6.565,6.565,6.565,0,0,0,6.565-6.565,6.565,6.565,0,0,0-6.565-6.564A6.565,6.565,0,0,0-369.146,826.166Z" transform="translate(369.979 -818.768)" fill="#0f0f0f"/>
      <g id="Group_2165" data-name="Group 2165" transform="translate(0.833 0.834)" style="mix-blend-mode: screen;isolation: isolate">
        <path id="Path_2201" data-name="Path 2201" d="M-369.146,826.166a6.565,6.565,0,0,1,6.565-6.564,6.565,6.565,0,0,1,6.565,6.564,6.565,6.565,0,0,1-6.241,6.556,6.3,6.3,0,0,0,5.975-6.29,6.3,6.3,0,0,0-6.3-6.3,6.3,6.3,0,0,0-6.3,6.3,6.3,6.3,0,0,0,5.975,6.29A6.565,6.565,0,0,1-369.146,826.166Z" transform="translate(369.146 -819.602)" fill="#1c1c1c" style="mix-blend-mode: screen;isolation: isolate"/>
        <path id="Path_2202" data-name="Path 2202" d="M-347.128,863.606c.107.006.216.009.324.009C-346.912,863.615-347.021,863.612-347.128,863.606Z" transform="translate(353.369 -850.486)" fill="#1c1c1c"/>
        <path id="Path_2203" data-name="Path 2203" d="M-348.214,863.615q.162,0,.324-.009Q-348.052,863.615-348.214,863.615Z" transform="translate(354.779 -850.486)" fill="#1c1c1c"/>
      </g>
      <path id="Path_2204" data-name="Path 2204" d="M-361.4,831.41a4.254,4.254,0,0,0,4.255,4.254,4.254,4.254,0,0,0,4.254-4.254,4.255,4.255,0,0,0-4.254-4.255A4.255,4.255,0,0,0-361.4,831.41Z" transform="translate(364.54 -824.069)" fill="#1c1c1c" style="mix-blend-mode: screen;isolation: isolate"/>
      <path id="Path_2205" data-name="Path 2205" d="M-359.553,832.9a3.705,3.705,0,0,0,3.7,3.7,3.705,3.705,0,0,0,3.7-3.7,3.705,3.705,0,0,0-3.7-3.705A3.705,3.705,0,0,0-359.553,832.9Z" transform="translate(363.246 -825.498)" fill="#1c1c1c" style="mix-blend-mode: screen;isolation: isolate"/>
      <path id="Path_2206" data-name="Path 2206" d="M-358.866,833.418a3.5,3.5,0,0,0,3.5,3.5,3.5,3.5,0,0,0,3.5-3.5,3.5,3.5,0,0,0-3.5-3.5A3.5,3.5,0,0,0-358.866,833.418Z" transform="translate(362.764 -826.009)" fill="#292929"/>
      <path id="Path_2207" data-name="Path 2207" d="M-357.126,834.841a2.982,2.982,0,0,0,2.982,2.981,2.982,2.982,0,0,0,2.981-2.981,2.982,2.982,0,0,0-2.981-2.982A2.981,2.981,0,0,0-357.126,834.841Z" transform="translate(361.542 -827.371)" style="mix-blend-mode: multiply;isolation: isolate"/>
      <path id="Path_2208" data-name="Path 2208" d="M-353.679,837.01a1.954,1.954,0,0,0,1.954,1.954,1.954,1.954,0,0,0,1.953-1.954,1.953,1.953,0,0,0-1.953-1.953A1.954,1.954,0,0,0-353.679,837.01Z" transform="translate(359.123 -829.615)" fill="#3b3b3b"/>
      <g id="Group_2168" data-name="Group 2168" transform="translate(4.712 4.713)">
        <g id="Group_2166" data-name="Group 2166">
          <path id="Path_2209" data-name="Path 2209" d="M-347.74,832.8a.186.186,0,0,0,.186.185.187.187,0,0,0,.187-.185.187.187,0,0,0-.187-.186A.186.186,0,0,0-347.74,832.8Z" transform="translate(350.235 -832.612)" fill="#3b3b3b"/>
          <path id="Path_2210" data-name="Path 2210" d="M-347.769,849.561a.187.187,0,0,0,.186.186.187.187,0,0,0,.187-.186.187.187,0,0,0-.187-.186A.186.186,0,0,0-347.769,849.561Z" transform="translate(350.273 -844.377)" fill="#3b3b3b"/>
          <path id="Path_2211" data-name="Path 2211" d="M-339.184,841.381a.186.186,0,0,0,.187-.186.186.186,0,0,0-.187-.186.185.185,0,0,0-.186.186A.186.186,0,0,0-339.184,841.381Z" transform="translate(339.37 -838.505)" fill="#3b3b3b"/>
          <path id="Path_2212" data-name="Path 2212" d="M-355.947,841.351a.185.185,0,0,0,.186-.185.185.185,0,0,0-.186-.186.185.185,0,0,0-.185.186A.185.185,0,0,0-355.947,841.351Z" transform="translate(361.131 -838.484)" fill="#3b3b3b"/>
        </g>
        <g id="Group_2167" data-name="Group 2167" transform="translate(0.729 0.728)">
          <path id="Path_2213" data-name="Path 2213" d="M-341.76,835.395a.187.187,0,0,0,.263,0,.186.186,0,0,0,0-.264.187.187,0,0,0-.263,0A.187.187,0,0,0-341.76,835.395Z" transform="translate(341.814 -835.07)" fill="#3b3b3b"/>
          <path id="Path_2214" data-name="Path 2214" d="M-353.633,847.229a.187.187,0,0,0,.264,0,.19.19,0,0,0,0-.264.188.188,0,0,0-.264,0A.186.186,0,0,0-353.633,847.229Z" transform="translate(357.229 -843.376)" fill="#3b3b3b"/>
          <path id="Path_2215" data-name="Path 2215" d="M-341.519,847.249a.186.186,0,0,0,0-.263.188.188,0,0,0-.264,0,.186.186,0,0,0,0,.263A.187.187,0,0,0-341.519,847.249Z" transform="translate(341.844 -843.391)" fill="#3b3b3b"/>
          <path id="Path_2216" data-name="Path 2216" d="M-353.352,835.373a.187.187,0,0,0,0-.264.187.187,0,0,0-.263,0,.188.188,0,0,0,0,.264A.186.186,0,0,0-353.352,835.373Z" transform="translate(357.205 -835.055)" fill="#3b3b3b"/>
        </g>
      </g>
    </g>
    <g id="Group_2174" data-name="Group 2174" transform="translate(4.97 24.734)">
      <path id="Path_2217" data-name="Path 2217" d="M-259.128,825.815c.242-.089.4-.166.4-.166s-.175.01-.428.053-.589.114-.919.2c-.142.037-.278.078-.411.119a7.4,7.4,0,0,1-.223-1.726c.138.006.281.01.425.01.341,0,.683-.018.939-.043s.427-.059.427-.059-.171-.035-.427-.059-.6-.043-.939-.043c-.144,0-.287,0-.425.009a7.354,7.354,0,0,1,.225-1.73c.133.042.27.082.411.12.33.087.664.16.919.2s.427.054.427.054-.157-.077-.4-.167-.565-.2-.9-.285c-.14-.037-.279-.07-.415-.1a7.319,7.319,0,0,1,.675-1.626c.117.073.239.149.363.221.295.171.6.327.835.433s.4.164.4.164-.131-.116-.34-.265-.5-.337-.792-.508c-.127-.073-.251-.141-.374-.205a7.37,7.37,0,0,1,1.061-1.379c.092.1.192.205.295.307.241.242.495.471.695.634s.343.261.343.261-.1-.145-.261-.344-.392-.453-.634-.7c-.1-.1-.205-.2-.306-.293a7.414,7.414,0,0,1,1.381-1.064c.066.124.134.249.205.374.172.3.356.583.508.792s.264.341.264.341-.055-.165-.163-.4-.262-.539-.433-.835c-.072-.125-.147-.248-.221-.364a7.334,7.334,0,0,1,1.627-.674c.031.135.064.274.1.414.09.33.193.656.284.9s.167.4.167.4-.011-.174-.053-.427-.114-.589-.2-.919c-.037-.141-.077-.278-.118-.411a7.336,7.336,0,0,1,1.725-.223c-.005.138-.009.281-.009.425,0,.342.017.683.043.94s.058.428.058.428.035-.171.06-.428.042-.6.043-.94c0-.144,0-.286-.01-.425a7.358,7.358,0,0,1,1.729.224c-.041.132-.081.271-.12.411-.087.329-.159.665-.2.919s-.055.427-.055.427a4.279,4.279,0,0,0,.168-.4c.09-.241.2-.567.284-.9.038-.14.071-.278.1-.414a7.373,7.373,0,0,1,1.628.674c-.075.117-.15.239-.222.364-.17.3-.327.6-.433.835s-.164.4-.164.4.115-.131.264-.34.337-.5.508-.792c.074-.125.142-.251.206-.374a7.374,7.374,0,0,1,1.379,1.061c-.1.094-.205.191-.309.293-.24.242-.469.5-.632.7s-.261.344-.261.344.145-.1.343-.261.454-.393.7-.634c.1-.1.2-.205.294-.307a7.482,7.482,0,0,1,1.063,1.382c-.122.065-.248.133-.374.205-.3.172-.583.358-.791.508s-.341.265-.341.265.165-.056.4-.163.54-.262.836-.433c.125-.073.247-.148.363-.222a7.34,7.34,0,0,1,.674,1.627c-.135.03-.274.064-.414.1-.329.089-.655.193-.9.284s-.4.166-.4.166.174-.011.428-.054.589-.113.919-.2c.141-.037.278-.078.411-.119a7.386,7.386,0,0,1,.223,1.725c-.138-.006-.281-.009-.424-.009-.342,0-.684.018-.94.043s-.428.059-.428.059.171.034.428.058.6.043.94.044c.143,0,.286,0,.424-.009a7.365,7.365,0,0,1-.224,1.729c-.132-.041-.271-.083-.411-.121-.33-.087-.664-.158-.92-.2s-.427-.054-.427-.054.155.077.4.166.567.2.9.286c.14.037.28.07.415.1a7.253,7.253,0,0,1-.675,1.627c-.117-.074-.239-.149-.363-.222-.3-.17-.6-.327-.835-.433s-.4-.164-.4-.164a4.123,4.123,0,0,0,.339.265c.209.15.5.337.792.509.125.072.251.141.374.205a7.433,7.433,0,0,1-1.061,1.378c-.094-.1-.192-.2-.294-.307-.242-.241-.5-.471-.7-.634s-.343-.261-.343-.261.1.145.261.344.392.453.632.7c.1.1.207.2.309.293a7.451,7.451,0,0,1-1.382,1.063c-.065-.123-.133-.248-.205-.374-.171-.3-.357-.583-.509-.792s-.263-.34-.263-.34.055.165.162.4.262.539.433.835c.073.125.148.247.222.364a7.324,7.324,0,0,1-1.627.674c-.031-.135-.064-.274-.1-.414-.09-.33-.195-.656-.285-.9s-.167-.4-.167-.4.011.174.054.428.113.589.2.92c.038.141.079.278.119.411a7.424,7.424,0,0,1-1.724.223c.005-.138.01-.281.01-.425,0-.342-.018-.683-.043-.94s-.06-.427-.06-.427-.034.171-.058.427-.043.6-.043.94c0,.144,0,.287.009.425a7.411,7.411,0,0,1-1.729-.224c.042-.132.083-.271.12-.411.089-.33.16-.665.2-.919s.053-.428.053-.428-.078.156-.168.4-.195.567-.283.9c-.037.141-.071.28-.1.415a7.389,7.389,0,0,1-1.627-.676c.075-.116.149-.239.221-.364.172-.3.328-.6.434-.834s.162-.4.162-.4-.115.13-.265.34-.337.5-.507.792c-.073.125-.142.25-.206.373a7.427,7.427,0,0,1-1.378-1.062c.1-.093.2-.191.306-.293.242-.242.472-.5.634-.695s.261-.345.261-.345-.145.1-.343.261-.453.392-.695.634c-.1.1-.2.206-.295.307a7.451,7.451,0,0,1-1.064-1.381c.123-.065.249-.133.376-.206.294-.172.582-.357.791-.508s.34-.265.34-.265-.165.056-.4.163-.54.262-.835.433c-.126.072-.248.148-.364.222a7.279,7.279,0,0,1-.674-1.628c.135-.03.274-.063.414-.1C-259.695,826.011-259.368,825.906-259.128,825.815Z" transform="translate(260.711 -816.806)"/>
      <path id="Path_2218" data-name="Path 2218" d="M-257.917,826.166a6.564,6.564,0,0,0,6.564,6.565,6.565,6.565,0,0,0,6.565-6.565,6.564,6.564,0,0,0-6.565-6.564A6.564,6.564,0,0,0-257.917,826.166Z" transform="translate(258.751 -818.768)" fill="#0f0f0f"/>
      <g id="Group_2170" data-name="Group 2170" transform="translate(0.834 0.834)" style="mix-blend-mode: screen;isolation: isolate">
        <path id="Path_2219" data-name="Path 2219" d="M-257.917,826.166a6.564,6.564,0,0,1,6.564-6.564,6.564,6.564,0,0,1,6.565,6.564,6.564,6.564,0,0,1-6.24,6.556,6.3,6.3,0,0,0,5.974-6.29,6.3,6.3,0,0,0-6.3-6.3,6.3,6.3,0,0,0-6.3,6.3,6.3,6.3,0,0,0,5.975,6.29A6.564,6.564,0,0,1-257.917,826.166Z" transform="translate(257.917 -819.602)" fill="#1c1c1c" style="mix-blend-mode: screen;isolation: isolate"/>
        <path id="Path_2220" data-name="Path 2220" d="M-235.9,863.606c.107.006.214.009.323.009C-235.685,863.615-235.792,863.612-235.9,863.606Z" transform="translate(242.139 -850.486)" fill="#1c1c1c"/>
        <path id="Path_2221" data-name="Path 2221" d="M-236.988,863.615c.109,0,.218,0,.325-.009C-236.77,863.612-236.879,863.615-236.988,863.615Z" transform="translate(243.552 -850.486)" fill="#1c1c1c"/>
      </g>
      <path id="Path_2222" data-name="Path 2222" d="M-250.168,831.41a4.253,4.253,0,0,0,4.254,4.254,4.254,4.254,0,0,0,4.254-4.254,4.254,4.254,0,0,0-4.254-4.255A4.254,4.254,0,0,0-250.168,831.41Z" transform="translate(253.312 -824.069)" fill="#1c1c1c" style="mix-blend-mode: screen;isolation: isolate"/>
      <path id="Path_2223" data-name="Path 2223" d="M-248.326,832.9a3.7,3.7,0,0,0,3.7,3.7,3.7,3.7,0,0,0,3.705-3.7,3.7,3.7,0,0,0-3.705-3.705A3.7,3.7,0,0,0-248.326,832.9Z" transform="translate(252.019 -825.498)" fill="#1c1c1c" style="mix-blend-mode: screen;isolation: isolate"/>
      <path id="Path_2224" data-name="Path 2224" d="M-247.637,833.418a3.5,3.5,0,0,0,3.5,3.5,3.5,3.5,0,0,0,3.5-3.5,3.5,3.5,0,0,0-3.5-3.5A3.5,3.5,0,0,0-247.637,833.418Z" transform="translate(251.535 -826.009)" fill="#292929"/>
      <path id="Path_2225" data-name="Path 2225" d="M-245.9,834.841a2.982,2.982,0,0,0,2.981,2.981,2.981,2.981,0,0,0,2.981-2.981,2.98,2.98,0,0,0-2.981-2.982A2.981,2.981,0,0,0-245.9,834.841Z" transform="translate(250.312 -827.371)" style="mix-blend-mode: multiply;isolation: isolate"/>
      <path id="Path_2226" data-name="Path 2226" d="M-242.451,837.01a1.953,1.953,0,0,0,1.952,1.954,1.954,1.954,0,0,0,1.954-1.954,1.953,1.953,0,0,0-1.954-1.953A1.953,1.953,0,0,0-242.451,837.01Z" transform="translate(247.896 -829.615)" fill="#3b3b3b"/>
      <g id="Group_2173" data-name="Group 2173" transform="translate(4.712 4.713)">
        <g id="Group_2171" data-name="Group 2171">
          <path id="Path_2227" data-name="Path 2227" d="M-236.509,832.8a.186.186,0,0,0,.186.185.185.185,0,0,0,.186-.185.186.186,0,0,0-.186-.186A.186.186,0,0,0-236.509,832.8Z" transform="translate(239.005 -832.612)" fill="#3b3b3b"/>
          <path id="Path_2228" data-name="Path 2228" d="M-236.538,849.561a.188.188,0,0,0,.187.186.185.185,0,0,0,.186-.186.185.185,0,0,0-.186-.186A.188.188,0,0,0-236.538,849.561Z" transform="translate(239.041 -844.377)" fill="#3b3b3b"/>
          <path id="Path_2229" data-name="Path 2229" d="M-227.957,841.381a.187.187,0,0,0,.187-.186.186.186,0,0,0-.187-.186.186.186,0,0,0-.186.186A.187.187,0,0,0-227.957,841.381Z" transform="translate(228.143 -838.505)" fill="#3b3b3b"/>
          <path id="Path_2230" data-name="Path 2230" d="M-244.719,841.351a.185.185,0,0,0,.186-.185.186.186,0,0,0-.186-.186.187.187,0,0,0-.187.186A.186.186,0,0,0-244.719,841.351Z" transform="translate(249.905 -838.484)" fill="#3b3b3b"/>
        </g>
        <g id="Group_2172" data-name="Group 2172" transform="translate(0.729 0.728)">
          <path id="Path_2231" data-name="Path 2231" d="M-230.533,835.395a.187.187,0,0,0,.264,0,.187.187,0,0,0,0-.264.187.187,0,0,0-.264,0A.186.186,0,0,0-230.533,835.395Z" transform="translate(230.588 -835.07)" fill="#3b3b3b"/>
          <path id="Path_2232" data-name="Path 2232" d="M-242.408,847.229a.188.188,0,0,0,.264,0,.189.189,0,0,0,0-.264.188.188,0,0,0-.264,0A.189.189,0,0,0-242.408,847.229Z" transform="translate(246.003 -843.376)" fill="#3b3b3b"/>
          <path id="Path_2233" data-name="Path 2233" d="M-230.29,847.249a.186.186,0,0,0,0-.263.186.186,0,0,0-.263,0,.187.187,0,0,0,0,.263A.185.185,0,0,0-230.29,847.249Z" transform="translate(230.614 -843.391)" fill="#3b3b3b"/>
          <path id="Path_2234" data-name="Path 2234" d="M-242.125,835.373a.186.186,0,0,0,0-.264.187.187,0,0,0-.264,0,.186.186,0,0,0,0,.264A.186.186,0,0,0-242.125,835.373Z" transform="translate(245.978 -835.055)" fill="#3b3b3b"/>
        </g>
      </g>
    </g>
    <path id="Path_2235" data-name="Path 2235" d="M-348.475,782.205l2.49.512.679,4.052-2.216,2.093Z" transform="translate(385.505 -764.163)" fill="#292929"/>
    <path id="Path_2236" data-name="Path 2236" d="M-241.836,773.986c.381-1.331.956-1.919,1.707-2.145,2.678-.806,9.564-.391,9.564-.391l0,2.537Z" transform="translate(244.702 -755.565)" fill="url(#linear-gradient)"/>
    <path id="Path_2237" data-name="Path 2237" d="M-253.625,784.614c.013-.177.025-.354.039-.527a16.1,16.1,0,0,1,.285-2.043h11.741l3.182,2.57Z" transform="translate(256.03 -763.64)" fill="#0f0f0f"/>
    <path id="Path_2238" data-name="Path 2238" d="M-264.714,794.83c.024-.694.057-1.43.1-2.162h16.029l2.193,1.771s.161.15.373.391Z" transform="translate(266.975 -771.621)" fill="url(#linear-gradient)"/>
    <path id="Path_2239" data-name="Path 2239" d="M-248.682,802.5a2.377,2.377,0,0,1,.411,1.242c-.006.282-.01.519-.01.715H-268.02c0-.494.017-1.178.039-1.957Z" transform="translate(270.215 -779.016)" fill="#0f0f0f"/>
    <g id="Group_2175" data-name="Group 2175" transform="translate(12.262 1.3)">
      <path id="Path_2240" data-name="Path 2240" d="M-334.442,711.5s9.374-1.043,15.8,1.244c0,0,.554,0,1.321,1.566a44.2,44.2,0,0,1,2.2,6.133c1.123,3.883,3.206,16.2,3.519,18.908a.808.808,0,0,1-.454.306,151.122,151.122,0,0,0-4.08-20.686c-1.507-4.654-2.2-5.309-2.2-5.309-1.82-2.032-13.406-1.738-13.406-1.738-4.768-.272-5.109,3.792-5.109,3.792l-.925,15.908-1.6-1.27,1.15-14.638S-337.922,711.957-334.442,711.5Z" transform="translate(339.37 -711.259)"/>
    </g>
    <rect id="Rectangle_1230" data-name="Rectangle 1230" width="7.399" height="0.834" transform="translate(40.221 7.536)" fill="url(#linear-gradient)"/>
    <path id="Path_2241" data-name="Path 2241" d="M-350.73,808.951s-7.4-3.408-12.658,3.165c0,0,5.281-5.67,12.658-2.705Z" transform="translate(395.263 -783.473)" fill="#fff"/>
    <path id="Path_2242" data-name="Path 2242" d="M-317.108,777.356l8.2,6.694.921,6.338h12.009l-.256.409H-308.7l-.774-6.389Z" transform="translate(329.775 -761.295)" fill="url(#linear-gradient)"/>
    <g id="Group_2178" data-name="Group 2178" transform="translate(32.972 3.402)">
      <g id="Group_2177" data-name="Group 2177" transform="translate(0)">
        <path id="Path_2243" data-name="Path 2243" d="M-324,722.853h-.64s-.463.313.038.752h.555Z" transform="translate(324.838 -721.498)" fill="#727271"/>
        <g id="Group_2176" data-name="Group 2176" transform="translate(0.469)">
          <path id="Path_2244" data-name="Path 2244" d="M-327.495,718.31a1.466,1.466,0,0,1,.179.013v3.434a1.323,1.323,0,0,1-.179.013c-.771,0-1.181-.654-1.4-1.394V719.7A1.4,1.4,0,0,1-327.495,718.31Z" transform="translate(328.89 -718.31)"/>
          <path id="Path_2245" data-name="Path 2245" d="M-331.589,718.354s.8.25.8,1.716c0,1.615-.8,1.717-.8,1.717Z" transform="translate(333.163 -718.341)" fill="#ed3a0f"/>
        </g>
      </g>
      <path id="Path_2246" data-name="Path 2246" d="M-331.088,719.192a2.581,2.581,0,0,1,.507,1.9s-.094-.808-.507-1.071Z" transform="translate(333.276 -718.929)" fill="#ffd4a8" style="mix-blend-mode: screen;isolation: isolate"/>
    </g>
    <path id="Path_2247" data-name="Path 2247" d="M-304.027,711.859a5.641,5.641,0,0,0-2.917-3.162c-2.04-.714-9.88-1.309-15.092-.76,0,0,11.992-.181,15.228,1.174A7.78,7.78,0,0,1-304.027,711.859Z" transform="translate(338.671 -707.477)" fill="#fff"/>
    <path id="Path_2248" data-name="Path 2248" d="M-298.554,827.155h-15.071l.844,2h13.307Z" transform="translate(330.792 -797.623)" fill="#ffb71f" opacity="0.3" style="mix-blend-mode: multiply;isolation: isolate"/>
    <path id="Path_2249" data-name="Path 2249" d="M-313.171,828.233l-.454-1.078h15.071l-.5,1.078Z" transform="translate(330.792 -797.497)" fill="url(#linear-gradient)"/>
    <path id="Path_2250" data-name="Path 2250" d="M-313.423,827.637l-.2-.482h15.071Z" transform="translate(330.792 -797.419)" fill="#fff"/>
    <path id="Path_2251" data-name="Path 2251" d="M-316.284,766.128l-2.027-1.542-.085.111,1.9,1.7Z" transform="translate(348.645 -750.407)" fill="#525252" style="mix-blend-mode: screen;isolation: isolate"/>
    <g id="Group_2179" data-name="Group 2179" transform="translate(17.411 10.987)">
      <path id="Path_2252" data-name="Path 2252" d="M-295.184,763.824s2.607.17,2.709,1.158-.9,1.137-1.958,1.086l-8.149-.958a.955.955,0,0,1-.745-.639c-.2-.579-1.191-5.9-1.464-8.552,0,0-.067-1.5.852-1.532a2.184,2.184,0,0,1,2.147,1.6c.339,1.056.988,6.576-.069,7.8,0,0,.565-.426,2.692-.307C-297.64,763.568-295.184,763.824-295.184,763.824Z" transform="translate(304.793 -754.385)" fill="#303030"/>
      <path id="Path_2253" data-name="Path 2253" d="M-303.555,754.387a2.062,2.062,0,0,1,1.1.269.728.728,0,0,0-.077-.007c-.447-.017-1.042.266-1.03.789a3.776,3.776,0,0,0,.266,1.056,9.85,9.85,0,0,1,.387,1.484,24.006,24.006,0,0,1,.237,3.205c.01.5-.032,1.134.4,1.493a.865.865,0,0,0,1.1-.219,1.527,1.527,0,0,0,.215-.358,3.291,3.291,0,0,1-.514,1.69,2.823,2.823,0,0,1,1.353-.308c.219.414.315.888.792,1.1a8.124,8.124,0,0,0,2.011.383c.949.149,1.9.278,2.857.4.752.1,1.51.135,2.266.195-.282.467-1.049.544-1.85.5l-8.149-.958a.955.955,0,0,1-.745-.639c-.2-.579-1.191-5.9-1.464-8.552C-304.407,755.919-304.474,754.42-303.555,754.387Z" transform="translate(304.408 -754.385)" fill="#0f0f0f"/>
      <path id="Path_2254" data-name="Path 2254" d="M-277.752,785.433s1.043-1.873,2.542-1.908.849,2.261.849,2.261Z" transform="translate(278.482 -774.836)" fill="#262626"/>
      <path id="Path_2255" data-name="Path 2255" d="M-274.688,755.623s.776.07,1.2,1.753a17.743,17.743,0,0,1,.281,5.7S-273.335,757.345-274.688,755.623Z" transform="translate(276.427 -755.254)" fill="#303030" style="mix-blend-mode: screen;isolation: isolate"/>
      <path id="Path_2256" data-name="Path 2256" d="M-274.689,786.548a.451.451,0,0,0,.451.451.452.452,0,0,0,.452-.451.452.452,0,0,0-.452-.451A.451.451,0,0,0-274.689,786.548Z" transform="translate(277.134 -776.642)"/>
      <path id="Path_2257" data-name="Path 2257" d="M-273.99,787.036a.243.243,0,0,0,.243.244.243.243,0,0,0,.244-.244.243.243,0,0,0-.244-.244A.243.243,0,0,0-273.99,787.036Z" transform="translate(276.643 -777.13)" fill="#262626"/>
      <path id="Path_2258" data-name="Path 2258" d="M-297.2,786.781s.15-.958-2.474-1.285c0,0-4.3-.422-4.74-.358,0,0,4.88.445,5.813.732A2.933,2.933,0,0,1-297.2,786.781Z" transform="translate(309.41 -775.964)" fill="#303030" style="mix-blend-mode: screen;isolation: isolate"/>
    </g>
  </g>
</svg>
