<svg xmlns="http://www.w3.org/2000/svg" xmlns:xlink="http://www.w3.org/1999/xlink" width="102.667" height="36.45" viewBox="0 0 102.667 36.45">
  <defs>
    <linearGradient id="linear-gradient" x1="0.494" y1="-0.012" x2="0.501" y2="1.025" gradientUnits="objectBoundingBox">
      <stop offset="0" stop-color="#827cbc"/>
      <stop offset="0.079" stop-color="#7476b9"/>
      <stop offset="0.241" stop-color="#606db4"/>
      <stop offset="0.424" stop-color="#5266b1"/>
      <stop offset="0.644" stop-color="#4963af"/>
      <stop offset="1" stop-color="#4762af"/>
    </linearGradient>
    <linearGradient id="linear-gradient-2" y1="0.5" x2="1" y2="0.5" gradientUnits="objectBoundingBox">
      <stop offset="0" stop-color="#ffe027"/>
      <stop offset="0" stop-color="#827cbc"/>
      <stop offset="1" stop-color="#4762af"/>
      <stop offset="1" stop-color="#f9c521"/>
    </linearGradient>
    <linearGradient id="linear-gradient-3" x1="0.038" y1="0.5" x2="0.962" y2="0.5" gradientUnits="objectBoundingBox">
      <stop offset="0" stop-color="#ffe027"/>
      <stop offset="0" stop-color="#827cbc"/>
      <stop offset="1" stop-color="#4762af"/>
      <stop offset="1" stop-color="#f9c721"/>
      <stop offset="1" stop-color="#f9c521"/>
    </linearGradient>
    <linearGradient id="linear-gradient-4" x1="0.497" y1="-0.599" x2="0.503" y2="1.599" xlink:href="#linear-gradient"/>
    <linearGradient id="linear-gradient-6" x1="-3.537" y1="0.5" x2="4.537" y2="0.5" gradientUnits="objectBoundingBox">
      <stop offset="0" stop-color="#ffe027"/>
      <stop offset="0" stop-color="#3b393c"/>
      <stop offset="0.007" stop-color="#6d6e70"/>
      <stop offset="0.297" stop-color="#4b4b4d"/>
      <stop offset="0.574" stop-color="#59595b"/>
      <stop offset="0.923" stop-color="#95969a"/>
      <stop offset="1" stop-color="#95969a"/>
      <stop offset="1" stop-color="#f9c521"/>
    </linearGradient>
    <linearGradient id="linear-gradient-7" x1="-3.538" y1="0.5" x2="4.537" y2="0.5" gradientUnits="objectBoundingBox">
      <stop offset="0" stop-color="#ffe027"/>
      <stop offset="0" stop-color="#39393c"/>
      <stop offset="0.289" stop-color="#4b4b4d"/>
      <stop offset="0.623" stop-color="#59595b"/>
      <stop offset="0.952" stop-color="#95969a"/>
      <stop offset="1" stop-color="#95969a"/>
      <stop offset="1" stop-color="#f9c521"/>
    </linearGradient>
    <linearGradient id="linear-gradient-8" x1="0.187" y1="0.5" x2="0.813" y2="0.5" xlink:href="#linear-gradient-6"/>
    <linearGradient id="linear-gradient-9" x1="0.187" y1="0.5" x2="0.813" y2="0.5" xlink:href="#linear-gradient-6"/>
    <linearGradient id="linear-gradient-11" x1="0.499" y1="-0.124" x2="0.501" y2="1.106" xlink:href="#linear-gradient"/>
    <linearGradient id="linear-gradient-15" y1="0.5" x2="1" y2="0.5" gradientUnits="objectBoundingBox">
      <stop offset="0" stop-color="#ffe027"/>
      <stop offset="0" stop-color="#827cbc"/>
      <stop offset="1" stop-color="#4762af"/>
      <stop offset="1" stop-color="#eebf29"/>
      <stop offset="1" stop-color="#f9c521"/>
    </linearGradient>
    <clipPath id="clip-path">
      <rect id="Rectangle_2369" data-name="Rectangle 2369" width="8.629" height="13.188" fill="none"/>
    </clipPath>
    <linearGradient id="linear-gradient-16" y1="0.5" x2="1" y2="0.5" gradientUnits="objectBoundingBox">
      <stop offset="0" stop-color="#ffe027"/>
      <stop offset="0" stop-color="#3b393c"/>
      <stop offset="0.307" stop-color="#4b4b4d"/>
      <stop offset="0.646" stop-color="#59595b"/>
      <stop offset="0.942" stop-color="#95969a"/>
      <stop offset="1" stop-color="#95969a"/>
      <stop offset="1" stop-color="#4762af"/>
      <stop offset="1" stop-color="#f9c721"/>
      <stop offset="1" stop-color="#f9c521"/>
    </linearGradient>
    <linearGradient id="linear-gradient-19" x1="0" y1="0.5" x2="1" y2="0.5" xlink:href="#linear-gradient-6"/>
    <linearGradient id="linear-gradient-21" x1="0.439" y1="0.016" x2="0.561" y2="0.984" xlink:href="#linear-gradient"/>
    <linearGradient id="linear-gradient-29" x1="0" y1="0.5" x2="1" y2="0.5" xlink:href="#linear-gradient-3"/>
    <linearGradient id="linear-gradient-33" x1="-5.398" y1="0.5" x2="6.398" y2="0.5" xlink:href="#linear-gradient-2"/>
    <linearGradient id="linear-gradient-38" x1="0.496" y1="-0.028" x2="0.5" y2="0.965" xlink:href="#linear-gradient"/>
    <linearGradient id="linear-gradient-40" x1="0.478" y1="0.003" x2="0.535" y2="1.408" xlink:href="#linear-gradient-6"/>
    <linearGradient id="linear-gradient-51" y1="0.5" x2="1" y2="0.5" gradientUnits="objectBoundingBox">
      <stop offset="0" stop-color="#ffe027"/>
      <stop offset="0" stop-color="#3b393c"/>
      <stop offset="0.007" stop-color="#3b393c"/>
      <stop offset="0.297" stop-color="#4b4b4d"/>
      <stop offset="0.574" stop-color="#59595b"/>
      <stop offset="0.923" stop-color="#95969a"/>
      <stop offset="1" stop-color="#95969a"/>
      <stop offset="1" stop-color="#f9c521"/>
    </linearGradient>
    <linearGradient id="linear-gradient-52" x1="-0.009" y1="0.5" x2="1.009" y2="0.5" xlink:href="#linear-gradient-6"/>
    <linearGradient id="linear-gradient-53" x1="-0.044" y1="0.5" x2="1.044" y2="0.5" xlink:href="#linear-gradient-6"/>
    <linearGradient id="linear-gradient-54" x1="-0.566" y1="0.5" x2="1.566" y2="0.5" xlink:href="#linear-gradient-7"/>
    <linearGradient id="linear-gradient-55" x1="-0.559" y1="0.5" x2="1.559" y2="0.5" gradientUnits="objectBoundingBox">
      <stop offset="0" stop-color="#ffe027"/>
      <stop offset="0" stop-color="#3b393c"/>
      <stop offset="0.338" stop-color="#4b4b4d"/>
      <stop offset="0.637" stop-color="#59595b"/>
      <stop offset="0.949" stop-color="#95969a"/>
      <stop offset="1" stop-color="#95969a"/>
      <stop offset="1" stop-color="#81744d"/>
      <stop offset="1" stop-color="#f9c521"/>
    </linearGradient>
    <linearGradient id="linear-gradient-56" x1="0" y1="0.5" x2="1" y2="0.5" xlink:href="#linear-gradient-6"/>
    <linearGradient id="linear-gradient-57" x1="0" y1="0.5" x2="1" y2="0.5" xlink:href="#linear-gradient-6"/>
    <clipPath id="clip-path-2">
      <path id="Path_5186" data-name="Path 5186" d="M-208.107,408.909h2.295l1-2.68h1.858l.961,9.945,3.714,1.338v1.264h-9.387Z" transform="translate(208.107 -406.229)" fill="none"/>
    </clipPath>
  </defs>
  <g id="Group_15818" data-name="Group 15818" transform="translate(650.624 -300.765)">
    <path id="Path_5155" data-name="Path 5155" d="M-608.338,362.479l1.346-1.592h.733l.283-1.87h-16.93V348.033h-15.878l-8.531,4.619.007,9.827h-3.315v1.448h3.316v.112h28.041v1.336h14.738v-2.9Z" transform="translate(0 -37.351)" fill="url(#linear-gradient)"/>
    <g id="Group_4209" data-name="Group 4209" transform="translate(-588.744 325.128)">
      <line id="Line_91" data-name="Line 91" y2="3.732" transform="translate(0.315 0)" fill="#fff"/>
      <rect id="Rectangle_2355" data-name="Rectangle 2355" width="0.629" height="3.732" transform="translate(0 0)" fill="url(#linear-gradient-2)"/>
    </g>
    <rect id="Rectangle_2356" data-name="Rectangle 2356" width="3.945" height="0.63" transform="translate(-566.044 318.709) rotate(-33.302)" fill="url(#linear-gradient-3)"/>
    <rect id="Rectangle_2357" data-name="Rectangle 2357" width="7.263" height="1.049" transform="translate(-562.599 329.756) rotate(-11.196)" fill="url(#linear-gradient-4)"/>
    <rect id="Rectangle_2358" data-name="Rectangle 2358" width="7.719" height="7.719" transform="translate(-568.883 324.335)" fill="url(#linear-gradient-2)"/>
    <rect id="Rectangle_2359" data-name="Rectangle 2359" width="0.629" height="6.258" transform="translate(-605.509 322.835) rotate(-48.173)" fill="url(#linear-gradient-6)"/>
    <rect id="Rectangle_2360" data-name="Rectangle 2360" width="0.629" height="6.258" transform="translate(-602.395 319.381) rotate(-48.173)" fill="url(#linear-gradient-7)"/>
    <rect id="Rectangle_2361" data-name="Rectangle 2361" width="4.138" height="0.629" transform="matrix(0.494, -0.87, 0.87, 0.494, -583.955, 323.336)" fill="url(#linear-gradient-8)"/>
    <rect id="Rectangle_2362" data-name="Rectangle 2362" width="4.138" height="0.629" transform="translate(-581.219 324.963) rotate(-60.406)" fill="url(#linear-gradient-9)"/>
    <path id="Path_5156" data-name="Path 5156" d="M-443.478,410.888H-448.6v-.629h4.856l6.582-6.918h11.643l7.761,4.432-.312.547-7.616-4.349H-436.9Z" transform="translate(-159.635 -81.055)" fill="url(#linear-gradient-2)"/>
    <path id="Path_5157" data-name="Path 5157" d="M-588.785,433.453h-38.09V430.3l41.113.082Z" transform="translate(-18.766 -102.358)" fill="url(#linear-gradient-11)"/>
    <path id="Path_5158" data-name="Path 5158" d="M-489.39,372.868-491.4,375.4h-7.476l-6.245-3.561-.6.413-17.106-.413h-.635l-.377,1.03-9.095,9.252H-552.6v2.067h20.536l8.638-8.787h16.585l5.588,3.364v6.259h16.213v-8.742Z" transform="translate(-77.456 -56.158)" fill="url(#linear-gradient-2)"/>
    <g id="Group_4210" data-name="Group 4210" transform="translate(-649.162 326.471)">
      <rect id="Rectangle_2363" data-name="Rectangle 2363" width="5.813" height="1.483" transform="translate(0.105 0.105)" fill="url(#linear-gradient-2)"/>
      <path id="Path_5159" data-name="Path 5159" d="M-637.634,424.98h-6.023v-1.693h6.023Zm-5.813-.21h5.6V423.5h-5.6Z" transform="translate(643.657 -423.287)" fill="url(#linear-gradient-2)"/>
    </g>
    <rect id="Rectangle_2364" data-name="Rectangle 2364" width="13.925" height="18.813" transform="translate(-621.034 302.853)" fill="#807be5"/>
    <path id="Path_5160" data-name="Path 5160" d="M-516.58,318.547l-3.093-2v-5.83h3.982Z" transform="translate(-103.476 -7.865)" fill="#807be5"/>
    <rect id="Rectangle_2365" data-name="Rectangle 2365" width="18.456" height="0.969" transform="translate(-624.464 301.885)" fill="url(#linear-gradient-15)"/>
    <rect id="Rectangle_2366" data-name="Rectangle 2366" width="8.629" height="13.188" transform="translate(-618.403 304.822)" fill="#93d8ca"/>
    <g id="Group_4213" data-name="Group 4213" transform="translate(-618.403 304.822)" style="mix-blend-mode: soft-light;isolation: isolate">
      <g id="Group_4212" data-name="Group 4212" transform="translate(0)" clip-path="url(#clip-path)">
        <g id="Group_4211" data-name="Group 4211" transform="translate(-8.599 -1.265)">
          <rect id="Rectangle_2367" data-name="Rectangle 2367" width="23.199" height="4.054" transform="translate(1.497 13.886) rotate(-31.58)" fill="#fff"/>
          <rect id="Rectangle_2368" data-name="Rectangle 2368" width="23.703" height="1.362" transform="translate(0 12.413) rotate(-31.58)" fill="#fff"/>
        </g>
      </g>
    </g>
    <rect id="Rectangle_2370" data-name="Rectangle 2370" width="1.259" height="15.114" transform="translate(-615.866 304.124)" fill="#3f2a1b"/>
    <rect id="Rectangle_2371" data-name="Rectangle 2371" width="6.23" height="1.259" transform="translate(-615.236 313.944)" fill="#3f2a1b"/>
    <path id="Path_5161" data-name="Path 5161" d="M-449.359,334.52l-.546-.638,3.23-2.764V328.6l-.566-.439.515-.663.89.691V331.5Z" transform="translate(-158.607 -21.127)" fill="#3f2a1b"/>
    <rect id="Rectangle_2372" data-name="Rectangle 2372" width="0.769" height="2.489" transform="translate(-605.458 308.009) rotate(180)" fill="url(#linear-gradient-16)"/>
    <rect id="Rectangle_2373" data-name="Rectangle 2373" width="2.633" height="7.093" transform="translate(-623.666 314.574)" fill="url(#linear-gradient-15)"/>
    <rect id="Rectangle_2374" data-name="Rectangle 2374" width="1.033" height="18.813" transform="translate(-623.666 302.854)" fill="url(#linear-gradient-16)"/>
    <g id="Group_4214" data-name="Group 4214" transform="translate(-576.306 325.582)">
      <path id="Path_5162" data-name="Path 5162" d="M-285.245,426.214v-2.758h-.5a5.213,5.213,0,0,0-.2-.595l.453-.412-.852-.938-.7-1.055-.461.307a5.325,5.325,0,0,0-.433-.315l.159-.444-1.289-.46-1.4-.4-.13.456c-.073,0-.145-.005-.218-.005-.115,0-.228,0-.341.012l-.231-.554-1.191.5-1.242.355.151.53q-.191.123-.37.262l-.279-.253-.989,1.089-.819,1.227.374.249q-.087.232-.153.474h-.49v2.741h.479a5.206,5.206,0,0,0,.216.644l-.457.457.873.873.685,1.028.426-.284c.112.093.23.18.35.264l-.13.26,1.338.669,1.442.412.116-.4c.08,0,.16.006.241.006.138,0,.274-.007.409-.017l.28.559,1.111-.556,1.2-.342-.139-.486q.179-.116.348-.245l.2.2,1.064-1.063.836-1.255-.357-.238q.088-.236.153-.483Z" transform="translate(296.402 -419.049)" fill="#020100"/>
      <circle id="Ellipse_171" data-name="Ellipse 171" cx="4.012" cy="4.012" r="4.012" transform="translate(1.567 1.805)" fill="#acada6"/>
      <circle id="Ellipse_172" data-name="Ellipse 172" cx="3.38" cy="3.38" r="3.38" transform="translate(2.198 2.436)" fill="#5a5b5b"/>
      <circle id="Ellipse_173" data-name="Ellipse 173" cx="2.538" cy="2.538" r="2.538" transform="translate(3.04 3.278)" fill="url(#linear-gradient-19)"/>
      <path id="Path_5163" data-name="Path 5163" d="M-277.737,440.436a.316.316,0,0,1,.257-.366h0a.317.317,0,0,1,.366.257h0a.318.318,0,0,1-.257.366h0a.482.482,0,0,1-.055,0h0A.316.316,0,0,1-277.737,440.436Zm-1.13-.006a.316.316,0,0,1-.116-.432h0a.316.316,0,0,1,.431-.116h0a.317.317,0,0,1,.116.432h0a.317.317,0,0,1-.274.158h0A.307.307,0,0,1-278.867,440.43Zm2.368-.459a.317.317,0,0,1-.04-.446h0a.316.316,0,0,1,.444-.038h0a.314.314,0,0,1,.04.444h0a.319.319,0,0,1-.242.114h0A.32.32,0,0,1-276.5,439.971Zm-3.347-.7a.319.319,0,0,1,.189-.406h0a.317.317,0,0,1,.4.189h0a.318.318,0,0,1-.187.4h0a.333.333,0,0,1-.109.019h0A.317.317,0,0,1-279.846,439.268Zm3.68-.764h0V438.5h0a.315.315,0,0,1,.314-.318h0a.318.318,0,0,1,.318.316h0v0h0v0h0a.315.315,0,0,1-.316.316h0A.315.315,0,0,1-276.167,438.5Zm-3.492-.352a.316.316,0,0,1-.19-.4h0a.316.316,0,0,1,.4-.189h0a.316.316,0,0,1,.189.4h0a.316.316,0,0,1-.3.208h0A.321.321,0,0,1-279.659,438.152Zm3.115-.676h0a.316.316,0,0,1,.038-.444h0a.314.314,0,0,1,.444.036h0a.317.317,0,0,1-.036.446h0a.33.33,0,0,1-.2.074h0A.317.317,0,0,1-276.543,437.477Zm-2.446-.463a.318.318,0,0,1,.114-.432h0a.316.316,0,0,1,.434.113h0a.317.317,0,0,1-.116.432h0a.3.3,0,0,1-.158.042h0A.314.314,0,0,1-278.99,437.014Zm1.5-.078a.316.316,0,0,1-.257-.364h0a.315.315,0,0,1,.364-.259h0a.315.315,0,0,1,.257.364h0a.314.314,0,0,1-.309.263h0A.484.484,0,0,1-277.486,436.936Z" transform="translate(283.336 -432.687)" fill="#070300"/>
      <circle id="Ellipse_174" data-name="Ellipse 174" cx="0.854" cy="0.854" r="0.854" transform="translate(4.724 4.962)" fill="#050201"/>
    </g>
    <rect id="Rectangle_2375" data-name="Rectangle 2375" width="0.629" height="13.048" transform="translate(-588.177 311.68)" fill="#736357"/>
    <rect id="Rectangle_2376" data-name="Rectangle 2376" width="1.469" height="14.031" transform="translate(-588.596 306.768)" fill="url(#linear-gradient-2)"/>
    <rect id="Rectangle_2377" data-name="Rectangle 2377" width="0.629" height="13.048" transform="matrix(0.896, -0.445, 0.445, 0.896, -562.857, 316.947)" fill="#736357"/>
    <rect id="Rectangle_2378" data-name="Rectangle 2378" width="1.469" height="9.752" transform="translate(-563.514 316.566) rotate(-26.415)" fill="url(#linear-gradient-21)"/>
    <rect id="Rectangle_2379" data-name="Rectangle 2379" width="0.629" height="13.048" transform="translate(-594.373 311.68)" fill="#736357"/>
    <rect id="Rectangle_2380" data-name="Rectangle 2380" width="1.469" height="9.119" transform="translate(-594.792 311.68)" fill="url(#linear-gradient-2)"/>
    <rect id="Rectangle_2381" data-name="Rectangle 2381" width="2.516" height="7.724" transform="translate(-592.348 313.075)" fill="url(#linear-gradient-2)"/>
    <g id="Group_4215" data-name="Group 4215" transform="translate(-597.529 313.398)">
      <path id="Path_5164" data-name="Path 5164" d="M-384.323,361.477a1,1,0,0,0-.855.482H-395.2a1,1,0,0,0-.856-.482,1.007,1.007,0,0,0-1.007,1.007,1.007,1.007,0,0,0,1.007,1.007,1,1,0,0,0,.856-.482h10.018a1,1,0,0,0,.855.482,1.007,1.007,0,0,0,1.007-1.007A1.007,1.007,0,0,0-384.323,361.477Z" transform="translate(397.164 -361.372)" fill="url(#linear-gradient-2)"/>
      <path id="Path_5165" data-name="Path 5165" d="M-384.717,363.2a1.1,1.1,0,0,1-.912-.482h-9.9a1.1,1.1,0,0,1-.912.482,1.113,1.113,0,0,1-1.111-1.112,1.113,1.113,0,0,1,1.111-1.112,1.1,1.1,0,0,1,.912.482h9.9a1.1,1.1,0,0,1,.912-.482,1.113,1.113,0,0,1,1.112,1.112A1.113,1.113,0,0,1-384.717,363.2Zm-10.933-.692h10.136l.031.05a.9.9,0,0,0,.766.432.9.9,0,0,0,.9-.9.9.9,0,0,0-.9-.9.9.9,0,0,0-.766.432l-.031.05H-395.65l-.031-.05a.9.9,0,0,0-.766-.432.9.9,0,0,0-.9.9.9.9,0,0,0,.9.9.9.9,0,0,0,.766-.432Z" transform="translate(397.558 -360.977)" fill="url(#linear-gradient-2)"/>
    </g>
    <circle id="Ellipse_175" data-name="Ellipse 175" cx="0.515" cy="0.515" r="0.515" transform="translate(-596.932 313.995)" fill="url(#linear-gradient-19)"/>
    <circle id="Ellipse_176" data-name="Ellipse 176" cx="0.515" cy="0.515" r="0.515" transform="translate(-607.065 322.563)" fill="url(#linear-gradient-19)"/>
    <circle id="Ellipse_177" data-name="Ellipse 177" cx="0.515" cy="0.515" r="0.515" transform="translate(-585.203 313.995)" fill="url(#linear-gradient-19)"/>
    <circle id="Ellipse_178" data-name="Ellipse 178" cx="1.356" cy="1.356" r="1.356" transform="translate(-563.93 315.451)" fill="url(#linear-gradient-29)"/>
    <circle id="Ellipse_179" data-name="Ellipse 179" cx="0.693" cy="0.693" r="0.693" transform="translate(-563.268 316.113)" fill="url(#linear-gradient-19)"/>
    <g id="Group_4216" data-name="Group 4216" transform="translate(-591.761 324.091)">
      <rect id="Rectangle_2382" data-name="Rectangle 2382" width="6.453" height="1.864" transform="translate(0.105 0.105)" fill="url(#linear-gradient-2)"/>
      <path id="Path_5166" data-name="Path 5166" d="M-363.4,414.016h-6.663v-2.074h6.663Zm-6.453-.21h6.243v-1.654h-6.243Z" transform="translate(370.064 -411.942)" fill="url(#linear-gradient-2)"/>
    </g>
    <rect id="Rectangle_2383" data-name="Rectangle 2383" width="0.629" height="8.081" transform="matrix(0.471, -0.882, 0.882, 0.471, -585.796, 325.061)" fill="url(#linear-gradient-33)"/>
    <rect id="Rectangle_2384" data-name="Rectangle 2384" width="20.231" height="0.639" transform="translate(-626.781 324.489)" fill="url(#linear-gradient-2)"/>
    <rect id="Rectangle_2385" data-name="Rectangle 2385" width="19.992" height="1.883" transform="translate(-644.331 326.232)" fill="url(#linear-gradient-19)"/>
    <g id="Group_4217" data-name="Group 4217" transform="translate(-644.331 325.582)">
      <path id="Path_5167" data-name="Path 5167" d="M-609.473,426.214v-2.758h-.5a5.207,5.207,0,0,0-.2-.595l.453-.412-.852-.938-.7-1.055-.461.307a5.315,5.315,0,0,0-.433-.315l.159-.444-1.289-.46-1.4-.4-.13.456c-.072,0-.145-.005-.218-.005-.115,0-.228,0-.341.012l-.231-.554-1.191.5-1.242.355.151.53q-.191.123-.37.262l-.279-.253-.989,1.089-.819,1.227.374.249q-.088.232-.153.474h-.49v2.741h.479a5.247,5.247,0,0,0,.216.644l-.457.457.873.873.685,1.028.425-.284c.113.093.23.18.35.264l-.13.26,1.338.669,1.442.412.116-.4c.08,0,.16.006.241.006.138,0,.274-.007.409-.017l.28.559,1.111-.556,1.2-.342-.139-.486q.179-.116.348-.245l.2.2,1.064-1.063.837-1.255-.357-.238q.087-.236.153-.483Z" transform="translate(620.63 -419.049)"/>
      <circle id="Ellipse_180" data-name="Ellipse 180" cx="4.012" cy="4.012" r="4.012" transform="translate(1.567 1.805)" fill="#acada6"/>
      <circle id="Ellipse_181" data-name="Ellipse 181" cx="3.38" cy="3.38" r="3.38" transform="translate(2.198 2.436)" fill="#5a5b5b"/>
      <circle id="Ellipse_182" data-name="Ellipse 182" cx="2.538" cy="2.538" r="2.538" transform="translate(3.04 3.278)" fill="url(#linear-gradient-19)"/>
      <path id="Path_5168" data-name="Path 5168" d="M-601.964,440.436a.316.316,0,0,1,.257-.366h0a.317.317,0,0,1,.366.257h0a.318.318,0,0,1-.257.366h0a.491.491,0,0,1-.055,0h0A.316.316,0,0,1-601.964,440.436Zm-1.131-.006a.316.316,0,0,1-.116-.432h0a.317.317,0,0,1,.431-.116h0a.317.317,0,0,1,.116.432h0a.317.317,0,0,1-.274.158h0A.308.308,0,0,1-603.1,440.43Zm2.368-.459a.317.317,0,0,1-.04-.446h0a.316.316,0,0,1,.444-.038h0a.314.314,0,0,1,.04.444h0a.318.318,0,0,1-.242.114h0A.32.32,0,0,1-600.727,439.971Zm-3.347-.7a.319.319,0,0,1,.189-.406h0a.317.317,0,0,1,.4.189h0a.317.317,0,0,1-.187.4h0a.335.335,0,0,1-.11.019h0A.317.317,0,0,1-604.074,439.268Zm3.68-.764h0V438.5h0a.316.316,0,0,1,.314-.318h0a.318.318,0,0,1,.318.316h0v0h0v0h0a.315.315,0,0,1-.316.316h0A.316.316,0,0,1-600.394,438.5Zm-3.492-.352a.316.316,0,0,1-.19-.4h0a.316.316,0,0,1,.4-.189h0a.315.315,0,0,1,.189.4h0a.316.316,0,0,1-.3.208h0A.322.322,0,0,1-603.886,438.152Zm3.115-.676h0a.316.316,0,0,1,.038-.444h0a.314.314,0,0,1,.444.036h0a.317.317,0,0,1-.036.446h0a.33.33,0,0,1-.2.074h0A.317.317,0,0,1-600.771,437.477Zm-2.446-.463a.317.317,0,0,1,.114-.432h0a.317.317,0,0,1,.434.113h0a.317.317,0,0,1-.116.432h0a.3.3,0,0,1-.158.042h0A.315.315,0,0,1-603.217,437.014Zm1.5-.078a.316.316,0,0,1-.257-.364h0a.315.315,0,0,1,.364-.259h0a.315.315,0,0,1,.257.364h0a.313.313,0,0,1-.309.263h0A.483.483,0,0,1-601.714,436.936Z" transform="translate(607.564 -432.687)" fill="#020100"/>
      <path id="Path_5169" data-name="Path 5169" d="M-596.4,443.555a.854.854,0,0,1-.854.854.854.854,0,0,1-.854-.854.854.854,0,0,1,.854-.854A.854.854,0,0,1-596.4,443.555Z" transform="translate(602.837 -437.739)" fill="#050201"/>
    </g>
    <g id="Group_4218" data-name="Group 4218" transform="translate(-628.966 325.582)">
      <path id="Path_5170" data-name="Path 5170" d="M-536.24,426.214v-2.758h-.5a5.243,5.243,0,0,0-.2-.595l.453-.412-.852-.938-.7-1.055-.461.307a5.3,5.3,0,0,0-.433-.315l.159-.444-1.288-.46-1.4-.4-.13.456c-.073,0-.145-.005-.218-.005-.115,0-.228,0-.341.012l-.231-.554-1.191.5-1.242.355.151.53q-.191.123-.371.262l-.279-.253-.989,1.089-.818,1.227.374.249q-.088.232-.153.474h-.49v2.741h.479a5.225,5.225,0,0,0,.216.644l-.457.457.873.873.685,1.028.426-.284c.112.093.229.18.349.264l-.13.26,1.338.669,1.442.412.116-.4c.08,0,.16.006.241.006.138,0,.274-.007.409-.017l.279.559,1.111-.556,1.2-.342-.139-.486q.179-.116.348-.245l.2.2,1.063-1.063.837-1.255-.357-.238q.088-.236.153-.483Z" transform="translate(547.397 -419.049)" fill="#020100"/>
      <circle id="Ellipse_183" data-name="Ellipse 183" cx="4.012" cy="4.012" r="4.012" transform="translate(1.567 1.805)" fill="#5a5b5b"/>
      <circle id="Ellipse_184" data-name="Ellipse 184" cx="3.38" cy="3.38" r="3.38" transform="translate(2.198 2.436)" fill="#acada6"/>
      <circle id="Ellipse_185" data-name="Ellipse 185" cx="2.538" cy="2.538" r="2.538" transform="translate(3.04 3.278)" fill="url(#linear-gradient-19)"/>
      <path id="Path_5171" data-name="Path 5171" d="M-528.731,440.436a.316.316,0,0,1,.257-.366h0a.317.317,0,0,1,.366.257h0a.318.318,0,0,1-.257.366h0a.485.485,0,0,1-.055,0h0A.316.316,0,0,1-528.731,440.436Zm-1.13-.006a.316.316,0,0,1-.116-.432h0a.317.317,0,0,1,.432-.116h0a.317.317,0,0,1,.116.432h0a.316.316,0,0,1-.274.158h0A.307.307,0,0,1-529.861,440.43Zm2.368-.459a.317.317,0,0,1-.04-.446h0a.316.316,0,0,1,.444-.038h0a.314.314,0,0,1,.04.444h0a.319.319,0,0,1-.242.114h0A.321.321,0,0,1-527.493,439.971Zm-3.347-.7a.319.319,0,0,1,.189-.406h0a.317.317,0,0,1,.4.189h0a.318.318,0,0,1-.187.4h0a.334.334,0,0,1-.109.019h0A.317.317,0,0,1-530.84,439.268Zm3.68-.764h0V438.5h0a.315.315,0,0,1,.314-.318h0a.318.318,0,0,1,.318.316h0v0h0v0h0a.315.315,0,0,1-.316.316h0A.315.315,0,0,1-527.161,438.5Zm-3.492-.352a.316.316,0,0,1-.189-.4h0a.316.316,0,0,1,.4-.189h0a.316.316,0,0,1,.189.4h0a.317.317,0,0,1-.3.208h0A.322.322,0,0,1-530.653,438.152Zm3.116-.676h0a.316.316,0,0,1,.038-.444h0a.314.314,0,0,1,.444.036h0a.317.317,0,0,1-.036.446h0a.33.33,0,0,1-.2.074h0A.317.317,0,0,1-527.537,437.477Zm-2.446-.463a.317.317,0,0,1,.114-.432h0a.316.316,0,0,1,.434.113h0a.317.317,0,0,1-.116.432h0a.3.3,0,0,1-.158.042h0A.314.314,0,0,1-529.983,437.014Zm1.5-.078a.316.316,0,0,1-.257-.364h0a.315.315,0,0,1,.364-.259h0a.315.315,0,0,1,.257.364h0a.314.314,0,0,1-.309.263h0A.487.487,0,0,1-528.48,436.936Z" transform="translate(534.33 -432.687)" fill="#070301"/>
      <circle id="Ellipse_186" data-name="Ellipse 186" cx="0.854" cy="0.854" r="0.854" transform="translate(4.724 4.962)" fill="#050200"/>
    </g>
    <path id="Path_5172" data-name="Path 5172" d="M-640.379,417h-3.284v-1.678h2.344l3.539-5.781h22.541l5.627,5.294-1.15,1.222-5.143-4.838H-636.84Z" transform="translate(-5.5 -85.957)" fill="url(#linear-gradient-38)"/>
    <path id="Path_5173" data-name="Path 5173" d="M-208.107,408.909h2.295l1-2.68h1.858l.961,9.945,3.714,1.338v1.264h-9.387Z" transform="translate(-349.674 -83.337)" fill="url(#linear-gradient-19)"/>
    <path id="Path_5174" data-name="Path 5174" d="M-372.29,433.155H-370l1-1.7h1.858l.961,6.32,3.714.85v.8h-9.387Z" transform="translate(-219.937 -103.268)" fill="url(#linear-gradient-40)"/>
    <rect id="Rectangle_2386" data-name="Rectangle 2386" width="4.882" height="0.629" transform="translate(-644.277 321.351)" fill="#3f2a1b"/>
    <rect id="Rectangle_2387" data-name="Rectangle 2387" width="4.882" height="0.629" transform="translate(-644.277 320.307)" fill="#3f2a1b"/>
    <rect id="Rectangle_2388" data-name="Rectangle 2388" width="4.882" height="0.629" transform="translate(-644.277 319.263)" fill="#3f2a1b"/>
    <rect id="Rectangle_2389" data-name="Rectangle 2389" width="4.882" height="0.629" transform="translate(-644.277 318.219)" fill="#3f2a1b"/>
    <rect id="Rectangle_2390" data-name="Rectangle 2390" width="4.882" height="0.629" transform="translate(-644.277 317.175)" fill="#3f2a1b"/>
    <rect id="Rectangle_2391" data-name="Rectangle 2391" width="4.882" height="0.629" transform="translate(-644.277 316.13)" fill="#3f2a1b"/>
    <rect id="Rectangle_2392" data-name="Rectangle 2392" width="4.882" height="0.629" transform="translate(-629.745 314.861)" fill="#3f2a1b"/>
    <rect id="Rectangle_2393" data-name="Rectangle 2393" width="4.882" height="0.629" transform="translate(-629.745 316.278)" fill="#3f2a1b"/>
    <rect id="Rectangle_2394" data-name="Rectangle 2394" width="4.882" height="0.629" transform="translate(-629.745 317.696)" fill="#3f2a1b"/>
    <rect id="Rectangle_2395" data-name="Rectangle 2395" width="4.882" height="0.629" transform="translate(-629.745 319.113)" fill="#3f2a1b"/>
    <rect id="Rectangle_2396" data-name="Rectangle 2396" width="23.809" height="0.998" transform="translate(-647.475 310.682)" fill="url(#linear-gradient-2)"/>
    <g id="Group_4219" data-name="Group 4219" transform="translate(-637.553 304.212)">
      <path id="Path_5175" data-name="Path 5175" d="M-585.315,324.524v-4.259l-1.429-1.843" transform="translate(587.076 -318.164)" fill="url(#linear-gradient-16)"/>
      <path id="Path_5176" data-name="Path 5176" d="M-586.144,323.555h-.839V319.44l-1.341-1.73.663-.514,1.517,1.957Z" transform="translate(588.325 -317.196)" fill="url(#linear-gradient-16)"/>
    </g>
    <rect id="Rectangle_2397" data-name="Rectangle 2397" width="2.311" height="3.162" transform="translate(-637.003 307.521)" fill="url(#linear-gradient-16)"/>
    <rect id="Rectangle_2398" data-name="Rectangle 2398" width="5.583" height="5.583" transform="translate(-638.008 314.597)" fill="url(#linear-gradient-2)"/>
    <rect id="Rectangle_2399" data-name="Rectangle 2399" width="1.814" height="1.814" transform="translate(-594.965 324.163)" fill="url(#linear-gradient-29)"/>
    <rect id="Rectangle_2400" data-name="Rectangle 2400" width="1.495" height="0.629" transform="translate(-593.151 324.756)" fill="#736357"/>
    <circle id="Ellipse_187" data-name="Ellipse 187" cx="0.502" cy="0.502" r="0.502" transform="translate(-594.56 324.626)" fill="#736357"/>
    <rect id="Rectangle_2401" data-name="Rectangle 2401" width="2.328" height="0.516" transform="translate(-589.593 326.06)" fill="url(#linear-gradient-2)"/>
    <rect id="Rectangle_2402" data-name="Rectangle 2402" width="9.326" height="0.396" transform="translate(-593.092 326.576)" fill="url(#linear-gradient-2)"/>
    <rect id="Rectangle_2403" data-name="Rectangle 2403" width="6.453" height="0.198" transform="translate(-591.656 326.972)" fill="url(#linear-gradient-2)"/>
    <rect id="Rectangle_2404" data-name="Rectangle 2404" width="0.629" height="1.986" transform="translate(-591.404 320.799)" fill="url(#linear-gradient-19)"/>
    <rect id="Rectangle_2405" data-name="Rectangle 2405" width="2.516" height="0.802" transform="translate(-592.348 322.2)" fill="url(#linear-gradient-51)"/>
    <rect id="Rectangle_2406" data-name="Rectangle 2406" width="2.33" height="1.049" transform="translate(-601.85 327.289) rotate(-45.989)" fill="url(#linear-gradient-52)"/>
    <rect id="Rectangle_2407" data-name="Rectangle 2407" width="1.903" height="1.049" transform="translate(-598.532 323.802) rotate(-46.425)" fill="url(#linear-gradient-53)"/>
    <rect id="Rectangle_2408" data-name="Rectangle 2408" width="1.049" height="1.976" transform="translate(-584.764 323.477) rotate(-60.275)" fill="url(#linear-gradient-54)"/>
    <rect id="Rectangle_2409" data-name="Rectangle 2409" width="1.049" height="1.958" transform="translate(-581.898 325.114) rotate(-60.275)" fill="url(#linear-gradient-55)"/>
    <circle id="Ellipse_188" data-name="Ellipse 188" cx="0.852" cy="0.852" r="0.852" transform="translate(-600.54 316.593)" fill="#807bef"/>
    <path id="Path_5177" data-name="Path 5177" d="M-409.251,378.352a.509.509,0,0,1-.509.509.508.508,0,0,1-.508-.509.508.508,0,0,1,.508-.508A.508.508,0,0,1-409.251,378.352Z" transform="translate(-189.928 -60.907)" fill="url(#linear-gradient-56)"/>
    <circle id="Ellipse_189" data-name="Ellipse 189" cx="0.852" cy="0.852" r="0.852" transform="translate(-610.856 322.225)" fill="#807bef"/>
    <path id="Path_5178" data-name="Path 5178" d="M-458.42,405.2a.508.508,0,0,1-.508.509.509.509,0,0,1-.509-.509.508.508,0,0,1,.509-.508A.508.508,0,0,1-458.42,405.2Z" transform="translate(-151.075 -82.121)" fill="url(#linear-gradient-57)"/>
    <path id="Path_5179" data-name="Path 5179" d="M-329.151,379.027a1.183,1.183,0,0,1-1.183,1.183,1.183,1.183,0,0,1-1.183-1.183,1.183,1.183,0,0,1,1.183-1.183A1.183,1.183,0,0,1-329.151,379.027Z" transform="translate(-252.156 -60.907)" fill="#807bef"/>
    <circle id="Ellipse_190" data-name="Ellipse 190" cx="0.706" cy="0.706" r="0.706" transform="translate(-583.196 317.414)" fill="url(#linear-gradient-19)"/>
    <rect id="Rectangle_2410" data-name="Rectangle 2410" width="0.708" height="4.333" transform="translate(-612.121 321.233)" fill="url(#linear-gradient-19)"/>
    <rect id="Rectangle_2411" data-name="Rectangle 2411" width="0.708" height="4.333" transform="translate(-608.593 321.233)" fill="url(#linear-gradient-19)"/>
    <path id="Path_5180" data-name="Path 5180" d="M-275.483,387.546l-1.19,2.26-8.34.287-.541,2.41,11.532,2.047v-5.859Z" transform="translate(-288.476 -68.574)" fill="url(#linear-gradient-2)"/>
    <path id="Path_5181" data-name="Path 5181" d="M-318.516,386.118l2.9-4.183,2.351,1.442-3.015,4.274Z" transform="translate(-262.43 -64.14)" fill="url(#linear-gradient-2)"/>
    <g id="Group_4220" data-name="Group 4220" transform="translate(-637.562 315.175)">
      <path id="Path_5182" data-name="Path 5182" d="M-587.736,369.764a.316.316,0,0,1-.316.316.316.316,0,0,1-.316-.316.316.316,0,0,1,.316-.316A.316.316,0,0,1-587.736,369.764Z" transform="translate(588.368 -369.448)" fill="#3f2a1b"/>
      <path id="Path_5183" data-name="Path 5183" d="M-568.732,369.764a.316.316,0,0,1-.316.316.316.316,0,0,1-.316-.316.316.316,0,0,1,.316-.316A.316.316,0,0,1-568.732,369.764Z" transform="translate(573.351 -369.448)" fill="#3f2a1b"/>
    </g>
    <g id="Group_4221" data-name="Group 4221" transform="translate(-637.562 318.971)">
      <path id="Path_5184" data-name="Path 5184" d="M-587.736,387.856a.316.316,0,0,1-.316.316.316.316,0,0,1-.316-.316.316.316,0,0,1,.316-.316A.316.316,0,0,1-587.736,387.856Z" transform="translate(588.368 -387.54)" fill="#3f2a1b"/>
      <path id="Path_5185" data-name="Path 5185" d="M-568.732,387.856a.316.316,0,0,1-.316.316.316.316,0,0,1-.316-.316.316.316,0,0,1,.316-.316A.316.316,0,0,1-568.732,387.856Z" transform="translate(573.351 -387.54)" fill="#3f2a1b"/>
    </g>
    <g id="Group_4223" data-name="Group 4223" transform="translate(-557.781 322.892)">
      <g id="Group_4222" data-name="Group 4222" transform="translate(0 0)" clip-path="url(#clip-path-2)">
        <line id="Line_92" data-name="Line 92" x1="0.654" y1="7.119" transform="translate(1.536 6.095)" fill="#606060"/>
        <line id="Line_93" data-name="Line 93" x1="0.654" y1="7.119" transform="translate(2.846 6.095)" fill="#606060"/>
        <line id="Line_94" data-name="Line 94" x1="0.654" y1="7.119" transform="translate(4.155 6.095)" fill="#606060"/>
      </g>
    </g>
    <rect id="Rectangle_2412" data-name="Rectangle 2412" width="14.761" height="0.629" transform="translate(-638.427 320.715)" fill="url(#linear-gradient-2)"/>
    <path id="Path_5187" data-name="Path 5187" d="M-514.921,301.885h-5.506l.4-1.12h4.5Z" transform="translate(-102.881)" fill="url(#linear-gradient-15)"/>
    <path id="Path_5188" data-name="Path 5188" d="M-464.018,301.885h-5.506l.6-1.12h4.5Z" transform="translate(-143.104)" fill="url(#linear-gradient-2)"/>
    <rect id="Rectangle_2413" data-name="Rectangle 2413" width="4.839" height="0.629" transform="translate(-613.431 319.578)" fill="url(#linear-gradient-2)"/>
    <path id="Path_5189" data-name="Path 5189" d="M-372.29,439.57H-370l.662,6.271h-2.519Z" transform="translate(-219.937 -109.682)" fill="url(#linear-gradient-19)"/>
    <g id="Group_4224" data-name="Group 4224" transform="translate(-650.624 300.966)">
      <path id="Path_5190" data-name="Path 5190" d="M-636.632,352.79l-8.447,4.82v10.075h-5.545v-1.448h3.315l-.007-9.827,6.687-3.621Z" transform="translate(650.624 -342.076)" style="mix-blend-mode: soft-light;isolation: isolate"/>
      <rect id="Rectangle_2414" data-name="Rectangle 2414" width="4.232" height="0.998" transform="translate(3.148 9.717)" style="mix-blend-mode: soft-light;isolation: isolate"/>
      <path id="Path_5191" data-name="Path 5191" d="M-525.445,303.81v5.563l2.633,1.634v11.615h1.608l8.414-18.813h-4.829v-.969h-1.96l-.6-1.12h-4.5l-.4,1.12h-1.157v.969Z" transform="translate(552.339 -301.721)" style="mix-blend-mode: soft-light;isolation: isolate"/>
    </g>
    <path id="Path_5192" data-name="Path 5192" d="M-614.034,370.426h-.629v-10.45h12.114v7.841h-.629v-7.212h-10.855Z" transform="translate(-28.416 -46.789)" fill="url(#linear-gradient-2)"/>
  </g>
</svg>
