<svg xmlns="http://www.w3.org/2000/svg" width="73.627" height="71.029" viewBox="0 0 73.627 71.029">
  <g id="Group_6" data-name="Group 6" transform="translate(-583.504 -68.735)" opacity="0.167">
    <path id="Path_7" data-name="Path 7" d="M616.963,123.4c-.3.014-.544.036-.79.036-8.267,0-16.535.016-24.8-.005a7.559,7.559,0,0,1-7.706-6.1,9.809,9.809,0,0,1-.153-1.979q-.012-19.286,0-38.573c0-4.063,2.351-7.093,6.093-7.881a8.885,8.885,0,0,1,1.813-.157q23.683-.012,47.366,0a7.57,7.57,0,0,1,7.837,7.67q.01,12.526,0,25.052c0,.163-.017.327-.031.573-7.374-2.868-14.42-2.4-20.88,2.24S616.793,115.546,616.963,123.4ZM642.471,89.3v-.982q0-5.766,0-11.531c0-2.537-1.346-3.866-3.906-3.866H591.608c-2.588,0-3.925,1.339-3.925,3.932q0,15.928,0,31.857c0,.288.024.576.045,1.027.393-.375.67-.632.938-.9q4.721-4.664,9.441-9.331a10,10,0,0,1,14.354-.039c.742.727,1.434,1.5,2.166,2.274.32-.3.524-.482.721-.673q4.846-4.715,9.691-9.43A14.511,14.511,0,0,1,642.471,89.3Z" fill="#4a3c51"/>
    <path id="Path_8" data-name="Path 8" d="M631.52,109.884a7.756,7.756,0,0,1-7.722-7.689,7.786,7.786,0,1,1,15.571-.039A7.748,7.748,0,0,1,631.52,109.884Z" transform="translate(-27.035 -17.158)" fill="#4a3c51"/>
    <path id="Path_9" data-name="Path 9" d="M709.8,206.326a19.192,19.192,0,1,1,19.192-19.192A19.214,19.214,0,0,1,709.8,206.326Zm0-35.751a16.559,16.559,0,1,0,16.559,16.559A16.578,16.578,0,0,0,709.8,170.575Z" transform="translate(-71.858 -66.562)" fill="#4a3c51"/>
    <path id="Path_10" data-name="Path 10" d="M734.5,196.845l-6.887-6.887a3.281,3.281,0,0,0-4.675.036l-6.681,6.887a3.281,3.281,0,0,0,2.355,5.565h3.72v7a3.42,3.42,0,0,0,6.84,0v-7h3.009A3.281,3.281,0,0,0,734.5,196.845Z" transform="translate(-88.441 -80.688)" fill="#4a3c51"/>
  </g>
</svg>
