<svg xmlns="http://www.w3.org/2000/svg" xmlns:xlink="http://www.w3.org/1999/xlink" width="91.54" height="25.662" viewBox="0 0 91.54 25.662">
  <defs>
    <linearGradient id="linear-gradient" y1="0.5" x2="1" y2="0.5" gradientUnits="objectBoundingBox">
      <stop offset="0" stop-color="#827cbc"/>
      <stop offset="1" stop-color="#4762af"/>
    </linearGradient>
  </defs>
  <g id="Group_15803" data-name="Group 15803" transform="translate(-46.096 -612.548)">
    <path id="Path_49250" data-name="Path 49250" d="M1381.407,1455.832h50.4v-3.289h11.609v3.289h2.033v2.83l-.758.759-54.765-.844v.1l-12.947-.2-1.689-1.759v-.879Z" transform="translate(-1308.355 -826.825)" fill="#6c6d70" fill-rule="evenodd"/>
    <path id="Path_49251" data-name="Path 49251" d="M4408.772,717.624h6.746c.035,0,.07,0,.105,0h0a3.1,3.1,0,0,1,.669.076,3.313,3.313,0,0,1,.628.185,7.415,7.415,0,0,1,.828.37l-.064.245,3.489,6.87-.1.4h-.239v3.145a7.571,7.571,0,0,0-1.616,1.807,11.107,11.107,0,0,0-1.813,7.1h-.478v-5.006h-8.467V717.669l.057-.045Z" transform="translate(-4293.967 -103.429)" fill-rule="evenodd" fill="url(#linear-gradient)"/>
    <path id="Path_49252" data-name="Path 49252" d="M5197.986,1211.906l.793.038.277.265-1.229.6-.058,2.552h0l-.124.086V1212.3h.239Z" transform="translate(-5070.778 -589.961)" fill="#323230" fill-rule="evenodd"/>
    <path id="Path_49253" data-name="Path 49253" d="M4980.252,1392.263l.822.777.019.366c-2.957,1.284-3.725,4.267-3.645,7.9l-.625-.137a11.107,11.107,0,0,1,1.813-7.1,7.553,7.553,0,0,1,1.616-1.807Zm10.573,1.647c-2.6-2.16-5.889-3.1-10.45-1.734l.873.854.02.3c2.9-1.052,5.166-.025,6.9,2.744l2.339-.156c.169-.025.3-.067.323-.156Z" transform="translate(-4853.386 -766.777)" fill="#323230" fill-rule="evenodd"/>
    <path id="Path_49254" data-name="Path 49254" d="M5205.571,1234.366l.058-2.552,1.23-.6a68.047,68.047,0,0,1,8.346,1.985,1.129,1.129,0,0,1,.649.752l.167,2.148c-2.6-2.161-5.889-3.1-10.449-1.734Z" transform="translate(-5078.58 -608.966)" fill-rule="evenodd" fill="url(#linear-gradient)"/>
    <path id="Path_49255" data-name="Path 49255" d="M5287.681,1213.61c.146-.061.242-.147.242-.281a28.8,28.8,0,0,1,8.1,2.266,68.025,68.025,0,0,0-8.346-1.985Z" transform="translate(-5159.402 -591.362)" fill="#323230" fill-rule="evenodd"/>
    <path id="Path_49256" data-name="Path 49256" d="M5705.807,1696.145c-.013-.376-1.013-.421-2.508-.293-.155.029-.2.188-.166.449l.517,2.928,1.338-.118c.325-.044.583-.252.663-.873Z" transform="translate(-5568.328 -1066.255)" fill="#323230" fill-rule="evenodd"/>
    <path id="Path_49257" data-name="Path 49257" d="M4445.735,755.614h-7.453l-.277-.268-.277-14.321,5.213-.029h1.816a1.585,1.585,0,0,1,1.118.695c.01.016.016.032.025.051a19.154,19.154,0,0,1,1.406,2.817h0l.02.054,0,0a8.577,8.577,0,0,1,.624,2.712l0,.092v.006h0l.185,4.946a2,2,0,0,1-.791,1.469Z" transform="translate(-4322.776 -126.435)" fill="#323230" fill-rule="evenodd"/>
    <path id="Path_49258" data-name="Path 49258" d="M4459.224,766.245h-7.148l-.264-.261L4451.547,752l5-.029h1.74a1.519,1.519,0,0,1,1.074.679.3.3,0,0,1,.022.048,18.265,18.265,0,0,1,1.348,2.753h0l.022.051v.006a8.381,8.381,0,0,1,.6,2.648l0,.089v0h0l.175,4.831a1.971,1.971,0,0,1-.755,1.434Z" transform="translate(-4336.378 -137.238)" fill-rule="evenodd" fill="url(#linear-gradient)"/>
    <path id="Path_49259" data-name="Path 49259" d="M4485.77,777.783h-3.817a.525.525,0,0,0-.529.513V782.8a.615.615,0,0,0,.625.6h3.27a2.581,2.581,0,0,1,1.121,1.068.808.808,0,0,0,.784.287h1.769a.634.634,0,0,0,.608-.638l.01-.755a11.828,11.828,0,0,0-1.122-5.213.538.538,0,0,0-.535-.347Z" transform="translate(-4365.787 -162.644)" fill="#323230" fill-rule="evenodd"/>
    <path id="Path_49260" data-name="Path 49260" d="M4497.868,788.352h-3.553a.489.489,0,0,0-.494.478v4.194a.57.57,0,0,0,.58.561l3.148-.019a2.309,2.309,0,0,1,1.087.943c.127.207.284.456.631.44l1.647.029c.357-.064.631-.207.644-.545.007-.217.017-.437.026-.653a11.454,11.454,0,0,0-1.112-5.127.6.6,0,0,0-.571-.28Z" transform="translate(-4377.989 -173.048)" fill="#d0d2d4" fill-rule="evenodd"/>
    <path id="Path_49261" data-name="Path 49261" d="M4309.51,1440.092h-.784a.26.26,0,0,1-.261-.258v-.5h1.045Z" transform="translate(-4195.54 -813.822)" fill="#323230" fill-rule="evenodd"/>
    <path id="Path_49262" data-name="Path 49262" d="M4299.4,661.1v1.7h.14a.133.133,0,0,1,.13.131V671.3a.131.131,0,0,1-.13.131h-.14v.9h-.822v-.9h-.141a.131.131,0,0,1-.13-.131v-8.375a.134.134,0,0,1,.13-.131h.141v-2.686h.509a.312.312,0,0,1,.313.312Zm.631,11.893v-.57h-.52v.57Z" transform="translate(-4185.537 -46.813)" fill="#323230" fill-rule="evenodd"/>
    <path id="Path_49263" data-name="Path 49263" d="M4316.4,1439.333Zm.632.666v-.571h-.52V1440Z" transform="translate(-4202.542 -813.822)" fill="#323230" fill-rule="evenodd"/>
    <path id="Path_49264" data-name="Path 49264" d="M4310.187,772.905h-.8a.113.113,0,0,0-.112.112v.229a.111.111,0,0,0,.112.112h.8a.111.111,0,0,0,.111-.112v-.229a.113.113,0,0,0-.111-.112Z" transform="translate(-4196.34 -157.843)" fill="#323230" fill-rule="evenodd"/>
    <path id="Path_49265" data-name="Path 49265" d="M4310.5,1087.929h.226l.1.1v.605l-.1.1h-.226Z" transform="translate(-4197.541 -467.927)" fill="#bbbdbf" fill-rule="evenodd"/>
    <path id="Path_49266" data-name="Path 49266" d="M4315.862,1095.405a.081.081,0,0,0,.08-.08.084.084,0,0,0-.08-.08.081.081,0,0,0-.08.08.079.079,0,0,0,.08.08Z" transform="translate(-4202.742 -475.13)" fill="#212121" fill-rule="evenodd"/>
    <path id="Path_49267" data-name="Path 49267" d="M4315.862,1121.623a.08.08,0,0,0,0-.159.08.08,0,0,0,0,.159Z" transform="translate(-4202.742 -500.937)" fill="#212121" fill-rule="evenodd"/>
    <path id="Path_49268" data-name="Path 49268" d="M4310.5,1270.236h.226l.1.1v.6l-.1.1h-.226Z" transform="translate(-4197.541 -647.376)" fill="#bbbdbf" fill-rule="evenodd"/>
    <path id="Path_49269" data-name="Path 49269" d="M4315.862,1277.712a.08.08,0,0,0,0-.159.08.08,0,0,0,0,.159Z" transform="translate(-4202.742 -654.578)" fill="#212121" fill-rule="evenodd"/>
    <path id="Path_49270" data-name="Path 49270" d="M4315.862,1303.93a.08.08,0,0,0,0-.159.08.08,0,0,0,0,.159Z" transform="translate(-4202.742 -680.385)" fill="#212121" fill-rule="evenodd"/>
    <path id="Path_49271" data-name="Path 49271" d="M4369.576,853.459a.069.069,0,1,0-.138,0,.069.069,0,1,0,.138,0Z" transform="translate(-4255.556 -237.065)" fill="#e5e6e7" fill-rule="evenodd"/>
    <path id="Path_49272" data-name="Path 49272" d="M4348.237,853.459a.07.07,0,1,0-.14,0,.07.07,0,1,0,.14,0Z" transform="translate(-4234.55 -237.065)" fill="#e5e6e7" fill-rule="evenodd"/>
    <path id="Path_49273" data-name="Path 49273" d="M4326.9,853.459a.067.067,0,0,0-.07-.07.069.069,0,0,0-.07.07.07.07,0,0,0,.07.07.068.068,0,0,0,.07-.07Z" transform="translate(-4213.545 -237.065)" fill="#e5e6e7" fill-rule="evenodd"/>
    <path id="Path_49274" data-name="Path 49274" d="M4305.354,853.459a.07.07,0,1,0-.14,0,.07.07,0,0,0,.14,0Z" transform="translate(-4192.339 -237.065)" fill="#e5e6e7" fill-rule="evenodd"/>
    <path id="Path_49275" data-name="Path 49275" d="M4369.576,871.141a.069.069,0,1,0-.138,0,.069.069,0,1,0,.138,0Z" transform="translate(-4255.556 -254.47)" fill="#e5e6e7" fill-rule="evenodd"/>
    <path id="Path_49276" data-name="Path 49276" d="M4348.237,871.141a.07.07,0,1,0-.14,0,.07.07,0,1,0,.14,0Z" transform="translate(-4234.55 -254.47)" fill="#e5e6e7" fill-rule="evenodd"/>
    <path id="Path_49277" data-name="Path 49277" d="M4326.9,871.141a.069.069,0,0,0-.07-.07.071.071,0,0,0-.07.07.069.069,0,0,0,.07.07.067.067,0,0,0,.07-.07Z" transform="translate(-4213.545 -254.47)" fill="#e5e6e7" fill-rule="evenodd"/>
    <path id="Path_49278" data-name="Path 49278" d="M4305.354,871.141a.07.07,0,1,0-.14,0,.07.07,0,1,0,.14,0Z" transform="translate(-4192.339 -254.47)" fill="#e5e6e7" fill-rule="evenodd"/>
    <path id="Path_49279" data-name="Path 49279" d="M4369.576,889.026a.069.069,0,1,0-.071.07.069.069,0,0,0,.071-.07Z" transform="translate(-4255.556 -272.074)" fill="#e5e6e7" fill-rule="evenodd"/>
    <path id="Path_49280" data-name="Path 49280" d="M4348.237,889.026a.07.07,0,1,0-.069.07.07.07,0,0,0,.069-.07Z" transform="translate(-4234.55 -272.074)" fill="#e5e6e7" fill-rule="evenodd"/>
    <path id="Path_49281" data-name="Path 49281" d="M4326.9,889.026a.069.069,0,0,0-.07-.07.07.07,0,0,0,0,.14.069.069,0,0,0,.07-.07Z" transform="translate(-4213.545 -272.074)" fill="#e5e6e7" fill-rule="evenodd"/>
    <path id="Path_49282" data-name="Path 49282" d="M4305.354,889.026a.07.07,0,1,0-.071.07.071.071,0,0,0,.071-.07Z" transform="translate(-4192.339 -272.074)" fill="#e5e6e7" fill-rule="evenodd"/>
    <path id="Path_49283" data-name="Path 49283" d="M4369.576,906.911a.069.069,0,1,0-.071.07.069.069,0,0,0,.071-.07Z" transform="translate(-4255.556 -289.679)" fill="#e5e6e7" fill-rule="evenodd"/>
    <path id="Path_49284" data-name="Path 49284" d="M4348.237,906.911a.07.07,0,1,0-.069.07.071.071,0,0,0,.069-.07Z" transform="translate(-4234.55 -289.679)" fill="#e5e6e7" fill-rule="evenodd"/>
    <path id="Path_49285" data-name="Path 49285" d="M4326.9,906.911a.069.069,0,0,0-.07-.07.07.07,0,0,0,0,.14.069.069,0,0,0,.07-.07Z" transform="translate(-4213.545 -289.679)" fill="#e5e6e7" fill-rule="evenodd"/>
    <path id="Path_49286" data-name="Path 49286" d="M4305.354,906.911a.07.07,0,1,0-.071.07.071.071,0,0,0,.071-.07Z" transform="translate(-4192.339 -289.679)" fill="#e5e6e7" fill-rule="evenodd"/>
    <path id="Path_49287" data-name="Path 49287" d="M4369.576,924.8a.069.069,0,1,0-.071.07.069.069,0,0,0,.071-.07Z" transform="translate(-4255.556 -307.283)" fill="#e5e6e7" fill-rule="evenodd"/>
    <path id="Path_49288" data-name="Path 49288" d="M4348.237,924.8a.07.07,0,1,0-.069.07.071.071,0,0,0,.069-.07Z" transform="translate(-4234.55 -307.283)" fill="#e5e6e7" fill-rule="evenodd"/>
    <path id="Path_49289" data-name="Path 49289" d="M4326.9,924.8a.069.069,0,0,0-.07-.07.07.07,0,0,0,0,.14.069.069,0,0,0,.07-.07Z" transform="translate(-4213.545 -307.283)" fill="#e5e6e7" fill-rule="evenodd"/>
    <path id="Path_49290" data-name="Path 49290" d="M4305.354,924.8a.07.07,0,1,0-.071.07.071.071,0,0,0,.071-.07Z" transform="translate(-4192.339 -307.283)" fill="#e5e6e7" fill-rule="evenodd"/>
    <path id="Path_49291" data-name="Path 49291" d="M4369.576,989.427a.069.069,0,1,0-.071.07.069.069,0,0,0,.071-.07Z" transform="translate(-4255.556 -370.901)" fill="#e5e6e7" fill-rule="evenodd"/>
    <path id="Path_49292" data-name="Path 49292" d="M4348.237,989.427a.07.07,0,1,0-.069.07.071.071,0,0,0,.069-.07Z" transform="translate(-4234.55 -370.901)" fill="#e5e6e7" fill-rule="evenodd"/>
    <path id="Path_49293" data-name="Path 49293" d="M4326.9,989.427a.069.069,0,0,0-.07-.07.07.07,0,0,0,0,.14.068.068,0,0,0,.07-.07Z" transform="translate(-4213.545 -370.901)" fill="#e5e6e7" fill-rule="evenodd"/>
    <path id="Path_49294" data-name="Path 49294" d="M4305.354,989.427a.07.07,0,1,0-.071.07.071.071,0,0,0,.071-.07Z" transform="translate(-4192.339 -370.901)" fill="#e5e6e7" fill-rule="evenodd"/>
    <path id="Path_49295" data-name="Path 49295" d="M4369.576,1007.312a.069.069,0,1,0-.071.07.069.069,0,0,0,.071-.07Z" transform="translate(-4255.556 -388.506)" fill="#e5e6e7" fill-rule="evenodd"/>
    <path id="Path_49296" data-name="Path 49296" d="M4348.237,1007.312a.07.07,0,1,0-.069.07.071.071,0,0,0,.069-.07Z" transform="translate(-4234.55 -388.506)" fill="#e5e6e7" fill-rule="evenodd"/>
    <path id="Path_49297" data-name="Path 49297" d="M4326.9,1007.312a.069.069,0,0,0-.07-.07.07.07,0,0,0,0,.14.069.069,0,0,0,.07-.07Z" transform="translate(-4213.545 -388.506)" fill="#e5e6e7" fill-rule="evenodd"/>
    <path id="Path_49298" data-name="Path 49298" d="M4305.354,1007.312a.07.07,0,1,0-.071.07.071.071,0,0,0,.071-.07Z" transform="translate(-4192.339 -388.506)" fill="#e5e6e7" fill-rule="evenodd"/>
    <path id="Path_49299" data-name="Path 49299" d="M4369.576,1025.2a.069.069,0,1,0-.138,0,.069.069,0,1,0,.138,0Z" transform="translate(-4255.556 -406.111)" fill="#e5e6e7" fill-rule="evenodd"/>
    <path id="Path_49300" data-name="Path 49300" d="M4348.237,1025.2a.07.07,0,1,0-.14,0,.07.07,0,1,0,.14,0Z" transform="translate(-4234.55 -406.111)" fill="#e5e6e7" fill-rule="evenodd"/>
    <path id="Path_49301" data-name="Path 49301" d="M4326.9,1025.2a.067.067,0,0,0-.07-.07.068.068,0,0,0-.07.07.071.071,0,0,0,.07.07.069.069,0,0,0,.07-.07Z" transform="translate(-4213.545 -406.111)" fill="#e5e6e7" fill-rule="evenodd"/>
    <path id="Path_49302" data-name="Path 49302" d="M4305.354,1025.2a.07.07,0,0,0-.14,0,.07.07,0,1,0,.14,0Z" transform="translate(-4192.339 -406.111)" fill="#e5e6e7" fill-rule="evenodd"/>
    <path id="Path_49303" data-name="Path 49303" d="M4369.576,1043.08a.066.066,0,0,0-.071-.067.066.066,0,0,0-.067.067.069.069,0,1,0,.138,0Z" transform="translate(-4255.556 -423.716)" fill="#e5e6e7" fill-rule="evenodd"/>
    <path id="Path_49304" data-name="Path 49304" d="M4348.237,1043.08a.07.07,0,0,0-.14,0,.07.07,0,1,0,.14,0Z" transform="translate(-4234.55 -423.716)" fill="#e5e6e7" fill-rule="evenodd"/>
    <path id="Path_49305" data-name="Path 49305" d="M4326.9,1043.08a.066.066,0,0,0-.07-.067.068.068,0,0,0-.07.067.069.069,0,0,0,.07.07.067.067,0,0,0,.07-.07Z" transform="translate(-4213.545 -423.716)" fill="#e5e6e7" fill-rule="evenodd"/>
    <path id="Path_49306" data-name="Path 49306" d="M4305.354,1043.08a.07.07,0,1,0-.071.07.069.069,0,0,0,.071-.07Z" transform="translate(-4192.339 -423.716)" fill="#e5e6e7" fill-rule="evenodd"/>
    <path id="Path_49307" data-name="Path 49307" d="M4369.576,1060.765a.069.069,0,1,0-.138,0,.069.069,0,1,0,.138,0Z" transform="translate(-4255.556 -441.12)" fill="#e5e6e7" fill-rule="evenodd"/>
    <path id="Path_49308" data-name="Path 49308" d="M4348.237,1060.765a.07.07,0,1,0-.14,0,.07.07,0,1,0,.14,0Z" transform="translate(-4234.55 -441.12)" fill="#e5e6e7" fill-rule="evenodd"/>
    <path id="Path_49309" data-name="Path 49309" d="M4326.9,1060.765a.069.069,0,0,0-.07-.07.071.071,0,0,0-.07.07.069.069,0,0,0,.07.07.067.067,0,0,0,.07-.07Z" transform="translate(-4213.545 -441.12)" fill="#e5e6e7" fill-rule="evenodd"/>
    <path id="Path_49310" data-name="Path 49310" d="M4305.354,1060.765a.07.07,0,1,0-.14,0,.07.07,0,1,0,.14,0Z" transform="translate(-4192.339 -441.12)" fill="#e5e6e7" fill-rule="evenodd"/>
    <path id="Path_49311" data-name="Path 49311" d="M4328.374,1699.481h8.378a.2.2,0,0,1,.2.194v.319h-8.767v-.319a.2.2,0,0,1,.194-.194Z" transform="translate(-4214.946 -1069.891)" fill="#323230" fill-rule="evenodd"/>
    <rect id="Rectangle_5624" data-name="Rectangle 5624" width="9.012" height="3.375" transform="translate(113.235 629.944)" fill="#d0d2d4"/>
    <path id="Path_49312" data-name="Path 49312" d="M4340.78,1732.2h8.617v.319a.28.28,0,0,1-.278.277h-8.062a.28.28,0,0,1-.278-.277Z" transform="translate(-4227.348 -1102.1)" fill="#323230" fill-rule="evenodd"/>
    <path id="Path_49313" data-name="Path 49313" d="M4328.333,1937.579h8.706a.155.155,0,0,0,.153-.153h0a.153.153,0,0,0-.153-.153h-8.706a.153.153,0,0,0-.153.153h0a.155.155,0,0,0,.153.153Z" transform="translate(-4214.946 -1303.955)" fill-rule="evenodd" fill="url(#linear-gradient)"/>
    <path id="Path_49314" data-name="Path 49314" d="M4328.359,1957.249h8.413a.178.178,0,0,0,.176-.178v-.287h-8.767v.287a.178.178,0,0,0,.179.178Z" transform="translate(-4214.946 -1323.16)" fill="#323230" fill-rule="evenodd"/>
    <path id="Path_49315" data-name="Path 49315" d="M4424.485,1787.219a.173.173,0,0,0,.168-.172.171.171,0,1,0-.341,0,.173.173,0,0,0,.173.172Z" transform="translate(-4309.571 -1155.915)" fill="#323230" fill-rule="evenodd"/>
    <path id="Path_49316" data-name="Path 49316" d="M4785.234,1787.219a.174.174,0,0,0,.172-.172.17.17,0,1,0-.172.172Z" transform="translate(-4664.667 -1155.915)" fill="#323230" fill-rule="evenodd"/>
    <path id="Path_49317" data-name="Path 49317" d="M4424.485,1903.473a.171.171,0,0,0,.168-.172.171.171,0,1,0-.168.172Z" transform="translate(-4309.571 -1270.346)" fill="#323230" fill-rule="evenodd"/>
    <path id="Path_49318" data-name="Path 49318" d="M4785.234,1903.473a.172.172,0,0,0,.172-.172.17.17,0,1,0-.341,0,.171.171,0,0,0,.169.172Z" transform="translate(-4664.667 -1270.346)" fill="#323230" fill-rule="evenodd"/>
    <path id="Path_49319" data-name="Path 49319" d="M4603.947,1850.833a.172.172,0,0,0,0-.344.172.172,0,0,0,0,.344Z" transform="translate(-4486.22 -1218.531)" fill="#323230" fill-rule="evenodd"/>
    <path id="Path_49320" data-name="Path 49320" d="M4414.557,695.215h3.069V695.1l-.242-.242H4414.8l-.242.242Z" transform="translate(-4299.968 -81.022)" fill="#323230" fill-rule="evenodd"/>
    <path id="Path_49321" data-name="Path 49321" d="M4456.425,613.839h1.724v-.631a.66.66,0,0,0-.657-.66h-.41a.661.661,0,0,0-.657.66Z" transform="translate(-4341.179)" fill="#f5811e" fill-rule="evenodd"/>
    <path id="Path_49322" data-name="Path 49322" d="M4488.174,1326.127c.188.064.319.194.319.341v1.361c0,.21-.265.382-.59.382h0c-.321,0-.586-.172-.586-.382v-1.361c0-.147.127-.277.318-.341v1.055c0,.1.122.175.268.175h0c.15,0,.271-.08.271-.175Z" transform="translate(-4371.587 -702.391)" fill="#323230" fill-rule="evenodd"/>
    <path id="Path_49323" data-name="Path 49323" d="M4510.31,1414.793a.229.229,0,1,0-.23-.229.231.231,0,0,0,.23.229Z" transform="translate(-4393.993 -789.215)" fill="#3ba2f7" fill-rule="evenodd"/>
    <rect id="Rectangle_5625" data-name="Rectangle 5625" width="0.344" height="0.076" transform="translate(116.144 625.31)" fill="#323230"/>
    <path id="Path_49324" data-name="Path 49324" d="M4512.31,1317.591h0a.2.2,0,0,1,.2.2v.9a.2.2,0,0,1-.2.2h0a.2.2,0,0,1-.2-.2v-.9a.2.2,0,0,1,.2-.2Z" transform="translate(-4395.994 -693.989)" fill="#323230" fill-rule="evenodd"/>
    <path id="Path_49325" data-name="Path 49325" d="M5857.625,1404.985h.042l.223.22v3.563l-.1.245,0-.245v-1.622l-.166-2.148Zm-.058,1.976c.032.029.067.054.1.08-.032-.025-.067-.051-.1-.08Zm.108.089.118.1-.118-.1Z" transform="translate(-5720.353 -780.012)" fill="none" stroke="#221f20" stroke-miterlimit="10" stroke-width="0.198"/>
    <path id="Path_49326" data-name="Path 49326" d="M5360.673,1500.66l-.012.676-.017.66c.1-.019.2-.032.309-.045l-.134-.953a.233.233,0,0,1,0-.083Zm.686.22c0,.013.006.025.009.041l.141,1c.169,0,.335.01.5.025l-.238-.768-.2-.65-.017.029Zm-.281-.982a.363.363,0,1,0,.364.363.363.363,0,0,0-.364-.363Zm0,.166a.2.2,0,1,0,.2.2.2.2,0,0,0-.2-.2Z" transform="translate(-5231.222 -873.437)" fill="#323230" fill-rule="evenodd"/>
    <path id="Path_49327" data-name="Path 49327" d="M5371.693,1562.532a.26.26,0,0,0,0,.083l.134.953a5.078,5.078,0,0,1,.542-.029h.012l-.14-1c0-.016-.006-.029-.01-.042l-.168.293h-.217Z" transform="translate(-5242.093 -935.055)" fill="#d0d2d4" fill-rule="evenodd"/>
    <path id="Path_49328" data-name="Path 49328" d="M5334.765,1491.97l-.357-.615-.389-.672.134-.134h1.428l.14.14-.382.666-.357.615Zm.1-1.275a.363.363,0,1,0,.363.363.363.363,0,0,0-.363-.363Z" transform="translate(-5205.015 -864.235)" fill="#e5e6e7" fill-rule="evenodd"/>
    <path id="Path_49329" data-name="Path 49329" d="M5375.882,1510.467a.2.2,0,1,0,.2.2.2.2,0,0,0-.2-.2Z" transform="translate(-5246.026 -883.841)" fill="#e5e6e7" fill-rule="evenodd"/>
    <path id="Path_49330" data-name="Path 49330" d="M5346.1,1495.427a.091.091,0,1,0,.092.089.092.092,0,0,0-.092-.089Z" transform="translate(-5216.816 -869.036)" fill="#323230" fill-rule="evenodd"/>
    <path id="Path_49331" data-name="Path 49331" d="M5418.863,1495.427a.091.091,0,1,0,0,.182.091.091,0,1,0,0-.182Z" transform="translate(-5288.437 -869.036)" fill="#323230" fill-rule="evenodd"/>
    <path id="Path_49332" data-name="Path 49332" d="M5382.483,1558.635a.091.091,0,1,0,.093.089.092.092,0,0,0-.093-.089Z" transform="translate(-5252.628 -931.253)" fill="#212121" fill-rule="evenodd"/>
    <path id="Path_49333" data-name="Path 49333" d="M5077.135,1610.609l.064-.147c.133.006.26.016.392.029l.038.156c.086.013.172.026.258.042l.089-.137c.127.025.255.057.379.092l.013.159c.086.022.168.051.252.08l.108-.121c.121.045.242.1.36.15l-.014.16c.08.038.16.077.236.118l.125-.1c.114.064.226.131.334.2l-.038.156c.074.048.144.1.213.153l.14-.08c.1.08.2.162.3.252l-.061.15c.064.06.127.121.188.185l.15-.057c.09.1.172.195.255.3l-.083.137c.054.07.1.14.153.21l.159-.032c.073.108.14.217.2.331l-.1.124c.041.076.083.153.121.233l.16-.01c.054.118.1.239.149.36l-.121.105c.029.083.058.166.083.252l.159.016a3.873,3.873,0,0,1,.093.379l-.137.086c.016.086.032.172.041.258l.156.042c.016.127.026.258.032.389l-.146.064v.261l.146.067c0,.131-.016.261-.028.389l-.156.038c-.009.089-.025.175-.042.258l.137.089c-.026.13-.054.255-.089.379l-.163.016c-.022.083-.051.166-.08.249l.121.109c-.044.124-.1.242-.15.36l-.159-.009c-.038.08-.077.156-.118.233l.1.128c-.064.111-.131.223-.2.331l-.156-.035c-.048.07-.1.143-.153.21l.083.14c-.083.105-.166.2-.255.3l-.149-.06c-.057.064-.121.124-.185.185l.057.15a3.585,3.585,0,0,1-.3.255l-.137-.083c-.067.054-.137.1-.21.156l.032.16c-.105.07-.217.14-.332.2l-.121-.105c-.077.044-.156.083-.236.121l.009.162c-.118.054-.239.105-.36.15l-.1-.121c-.083.029-.166.054-.249.079l-.019.163c-.125.035-.251.067-.379.092l-.086-.137c-.083.016-.168.029-.258.041l-.042.156c-.127.013-.258.025-.389.029l-.063-.146c-.044,0-.093,0-.141,0s-.08,0-.121,0l-.067.15c-.13-.006-.261-.016-.388-.032l-.039-.156q-.129-.014-.258-.038l-.089.134c-.127-.025-.255-.054-.379-.089l-.016-.16c-.083-.025-.166-.051-.249-.08l-.108.118c-.124-.045-.242-.092-.359-.146l.009-.163c-.077-.035-.156-.076-.233-.118l-.127.1c-.111-.064-.223-.13-.331-.2l.035-.156-.21-.153-.14.08a3.869,3.869,0,0,1-.3-.255l.061-.146c-.064-.06-.125-.121-.185-.185l-.15.057c-.09-.1-.175-.194-.255-.3l.083-.137c-.054-.07-.1-.14-.156-.213l-.156.035c-.073-.108-.143-.22-.207-.331l.105-.124c-.042-.076-.083-.153-.122-.233l-.163.006c-.054-.118-.1-.236-.15-.36l.121-.1c-.028-.08-.054-.166-.079-.249l-.163-.016c-.035-.124-.064-.252-.089-.379l.134-.086c-.016-.086-.029-.172-.042-.258l-.156-.044c-.013-.127-.026-.258-.029-.389l.146-.06c0-.048,0-.1,0-.14s0-.083,0-.121l-.146-.067a3.927,3.927,0,0,1,.029-.392l.156-.038c.01-.086.022-.172.038-.258l-.134-.089c.025-.128.054-.255.089-.379l.16-.013a2.544,2.544,0,0,1,.083-.249l-.121-.111c.045-.121.1-.242.15-.36l.159.013c.038-.08.077-.159.118-.236l-.1-.124c.064-.115.134-.226.2-.335l.156.038c.051-.073.1-.143.153-.213l-.08-.14c.08-.1.166-.2.255-.3l.146.061c.061-.064.121-.128.185-.185l-.058-.153c.1-.089.194-.172.3-.255l.136.083c.071-.051.141-.105.214-.153l-.036-.159c.108-.073.221-.14.335-.2l.121.1c.077-.041.157-.083.232-.118l-.006-.162c.118-.054.236-.105.36-.15l.1.121c.083-.029.166-.057.249-.083l.019-.16c.125-.035.249-.067.38-.092l.083.137c.086-.016.172-.032.257-.041l.045-.156c.127-.016.258-.025.389-.032l.063.15c.044,0,.092,0,.137,0Zm-.125.427a4.4,4.4,0,1,1-4.4,4.4,4.4,4.4,0,0,1,4.4-4.4Zm0-.357c.036,0,.071,0,.106,0-.035,0-.07,0-.106,0Zm.15,0c.147.006.29.016.431.035Zm.485.041a.494.494,0,0,1,.061.006.494.494,0,0,0-.061-.006Zm.128.019a.2.2,0,0,1,.041.006.2.2,0,0,0-.041-.006Zm.13.022c.144.026.284.061.42.1l-.015-.162c-.1-.029-.208-.054-.316-.076Zm.42.1c.029.01.061.016.089.026-.028-.01-.06-.016-.089-.026Zm.115.035c.025.01.051.016.08.026-.028-.01-.054-.016-.08-.026Zm.118.038a4.591,4.591,0,0,1,.465.188l.013-.166c-.1-.042-.2-.083-.3-.121l-.112.121a.6.6,0,0,1-.067-.022Zm.65.28c.012.006.028.016.044.022-.016-.007-.032-.016-.044-.022Zm.1.051a5.263,5.263,0,0,1,.455.284c-.028-.019-.057-.038-.085-.06l.035-.16c-.089-.057-.182-.115-.277-.169Zm.468.293c.022.019.048.035.07.051-.022-.016-.048-.032-.07-.051Zm.105.076c.13.1.258.207.379.319l.061-.15c-.08-.073-.163-.143-.246-.21l-.146.08-.048-.038Zm.525.465a.305.305,0,0,0,.026.022.305.305,0,0,1-.026-.022Zm.074.077c.1.1.194.214.283.328l.083-.14q-.1-.129-.21-.249Zm.283.328c.02.022.035.048.054.07-.019-.022-.035-.048-.054-.07Zm.071.093.051.07-.051-.07Zm.07.1a.721.721,0,0,0,.044.067.721.721,0,0,1-.044-.067Zm.044.067c.08.118.156.239.227.366l.1-.127c-.053-.093-.107-.185-.168-.274Zm.37.647a4.127,4.127,0,0,1,.165.4l.125-.109c-.038-.1-.08-.2-.125-.3l-.165.01Zm.165.4a.789.789,0,0,1,.032.089.789.789,0,0,0-.032-.089Zm.042.111a.618.618,0,0,0,.025.08.618.618,0,0,1-.025-.08Zm.038.121c.047.162.089.328.121.5v0l0,.007h0Zm.137.583c0,.019.006.042.009.064,0-.022-.006-.045-.009-.064Zm.016.1a.861.861,0,0,1,.013.093.861.861,0,0,0-.013-.093Zm.016.111c.019.14.028.287.035.43l.15-.064c0-.108-.013-.217-.026-.325l-.159-.042Zm.035.494c0,.035,0,.067,0,.1s0,.067,0,.1c0-.035,0-.067,0-.1s0-.067,0-.1Zm0,.252c-.007.144-.017.287-.032.43Zm-.039.481c0,.019-.006.041-.01.06,0-.019.007-.042.01-.06Zm-.019.127c0,.016-.006.029-.009.041,0-.013.006-.025.009-.041Zm-.025.13c-.025.144-.061.284-.1.421l.162-.013c.029-.105.054-.21.077-.316Zm-.1.421c-.01.032-.016.06-.026.089.01-.029.016-.057.026-.089Zm-.035.118a.778.778,0,0,1-.025.076.778.778,0,0,0,.025-.076Zm-.039.118a4.5,4.5,0,0,1-.188.462l.166.013c.044-.1.083-.2.121-.3l-.121-.112c.006-.022.016-.042.022-.064Zm-.277.647a.423.423,0,0,1-.026.044.423.423,0,0,0,.026-.044Zm-.054.1a4.382,4.382,0,0,1-.284.456c.019-.029.038-.057.061-.086l.159.038c.058-.093.116-.182.17-.277Zm-.293.468c-.016.025-.035.048-.051.07.016-.022.035-.045.051-.07Zm-.076.105c-.1.131-.207.258-.319.379l.152.064c.071-.083.141-.162.21-.249l-.083-.144c.013-.016.025-.035.039-.051Zm-.462.526a.216.216,0,0,0-.025.025.216.216,0,0,1,.025-.025Zm-.08.076c-.105.1-.213.191-.328.28l.14.086c.086-.067.169-.14.249-.211Zm-.328.28c-.023.019-.048.038-.07.054.022-.016.047-.035.07-.054Zm-.093.07c-.022.019-.044.035-.067.051.022-.016.044-.032.067-.051Zm-.1.07-.064.045.064-.045Zm-.064.045c-.121.083-.242.156-.37.226l.127.108c.092-.054.185-.111.274-.172Zm-.649.37a4.089,4.089,0,0,1-.4.169l.108.125c.1-.038.2-.08.3-.125l-.009-.169Zm-.4.169c-.028.01-.057.019-.089.032.032-.013.061-.022.089-.032Zm-.111.038c-.029.01-.054.019-.08.025.025-.006.051-.016.08-.025Zm-.122.038c-.162.051-.328.089-.494.124h-.009Zm-.583.137a.383.383,0,0,1-.063.013.383.383,0,0,0,.063-.013Zm-.1.019a.877.877,0,0,0-.092.013.877.877,0,0,1,.092-.013Zm-.111.013a3.8,3.8,0,0,1-.43.035l.063.153c.108-.006.217-.016.326-.025l.041-.163Zm-.494.038h0Zm-.248,0c-.146,0-.29-.016-.434-.032Zm-.485-.038-.061-.01.061.01Zm-.127-.019c-.016,0-.029,0-.042-.006.013,0,.025,0,.042.006Zm-.131-.022c-.144-.029-.284-.06-.42-.1l.012.162c.105.029.21.054.316.077Zm-.42-.1-.09-.029.09.029Zm-.118-.035a.734.734,0,0,0-.077-.026.734.734,0,0,1,.077.026Zm-.118-.042a4.8,4.8,0,0,1-.462-.185l-.013.163c.1.045.2.086.3.124l.112-.124c.022.009.044.016.064.022Zm-.647-.277a.22.22,0,0,1-.045-.026.22.22,0,0,0,.045.026Zm-.1-.051a4.255,4.255,0,0,1-.456-.287c.029.022.058.042.087.06l-.039.159c.093.06.185.118.277.169Zm-.468-.3a.587.587,0,0,1-.07-.051.587.587,0,0,0,.07.051Zm-.105-.077a4.491,4.491,0,0,1-.379-.319l-.061.153c.08.073.163.144.245.21l.144-.083a.625.625,0,0,1,.051.038Zm-.525-.462-.025-.026.025.026Zm-.077-.077c-.1-.1-.191-.217-.28-.328l-.086.14c.07.083.141.166.213.246Zm-.28-.328c-.02-.026-.038-.048-.055-.073.017.026.035.048.055.073Zm-.07-.1a.713.713,0,0,1-.051-.067.713.713,0,0,0,.051.067Zm-.071-.092c-.016-.022-.032-.044-.044-.067.013.022.029.045.044.067Zm-.044-.067c-.083-.118-.156-.242-.226-.366l-.108.124c.053.1.111.188.171.277Zm-.37-.647c-.061-.131-.118-.265-.166-.4l-.125.109c.039.1.08.2.125.3l.166-.006Zm-.168-.4-.029-.089.029.089Zm-.039-.115c-.01-.026-.016-.051-.025-.08.01.029.016.054.025.08Zm-.039-.121a4.142,4.142,0,0,1-.121-.494l0,0v-.006h0Zm-.137-.58c0-.022-.009-.042-.012-.064,0,.022.009.041.012.064Zm-.019-.105a.815.815,0,0,0-.013-.089.815.815,0,0,1,.013.089Zm-.013-.108c-.019-.144-.029-.287-.035-.434l-.153.067c.006.109.017.217.026.322l.163.045Zm-.039-.5v0Zm0-.249c0-.146.016-.29.032-.43Zm.039-.481c0-.022.006-.042.009-.064,0,.022-.006.042-.009.064Zm.019-.131a.172.172,0,0,0,.006-.041.172.172,0,0,1-.006.041Zm.022-.131c.029-.14.06-.28.1-.421l-.166.016a3.051,3.051,0,0,0-.073.316Zm.1-.421c.006-.029.016-.057.025-.089-.009.032-.019.06-.025.089Zm.032-.115a.787.787,0,0,0,.025-.076.787.787,0,0,1-.025.076Zm.042-.118a4.663,4.663,0,0,1,.188-.465l-.166-.013c-.045.1-.086.2-.125.3l.125.111a.525.525,0,0,0-.022.067Zm.277-.65a.3.3,0,0,0,.025-.045.3.3,0,0,1-.025.045Zm.051-.1a5.246,5.246,0,0,1,.287-.456.9.9,0,0,0-.061.089l-.159-.038a3.018,3.018,0,0,0-.169.277Zm.3-.469c.015-.022.032-.044.05-.07-.019.025-.035.048-.05.07Zm.076-.1a4.116,4.116,0,0,1,.319-.379l-.153-.064c-.073.08-.144.162-.21.248l.083.144c-.013.016-.025.032-.039.051Zm.463-.529c.009-.007.016-.016.025-.022-.009.006-.016.016-.025.022Zm.076-.073c.105-.1.216-.194.328-.284l-.14-.083c-.083.067-.166.137-.246.21Zm.328-.284c.026-.016.048-.035.074-.054-.025.019-.048.038-.074.054Zm.1-.07a.692.692,0,0,0,.067-.051.692.692,0,0,1-.067.051Zm.1-.067c.019-.016.041-.032.063-.048-.022.016-.045.032-.063.048Zm.063-.048c.118-.08.242-.156.367-.226l-.125-.105c-.1.054-.185.112-.277.169Zm.647-.369c.131-.061.265-.115.4-.166l-.1-.124c-.1.038-.2.08-.3.124l.006.166Zm.4-.166c.032-.01.06-.022.089-.032-.029.01-.057.022-.089.032Zm.114-.038.08-.029-.08.029Zm.122-.042a5.067,5.067,0,0,1,.494-.121h.009Zm.58-.137.063-.009-.063.009Zm.1-.016a.855.855,0,0,1,.089-.013.855.855,0,0,0-.089.013Zm.108-.016c.143-.016.287-.029.433-.035l-.063-.15c-.112,0-.217.013-.326.025l-.044.159Zm.5-.035c.032,0,.067,0,.1,0-.032,0-.066,0-.1,0Zm.249,0,.067-.15c.111,0,.217.013.325.025l.039.159Zm4.4,3.359.019.067.166.016c.029.105.054.21.073.315l-.14.089Zm.2,1.542.15.067c0,.109-.013.217-.022.325l-.159.038Zm-3.359,4.395-.066.019-.016.166c-.1.029-.21.054-.315.077l-.086-.14Zm-1.539.2-.071.153c-.108-.006-.216-.013-.321-.025l-.042-.16Zm-4.4-3.359c-.006-.022-.012-.041-.019-.064l-.166-.019c-.028-.1-.054-.207-.076-.315l.14-.086Zm-.2-1.539-.153-.067c.006-.108.013-.217.026-.325l.159-.038Zm3.359-4.4.063-.019.019-.162c.1-.029.208-.054.315-.077l.086.14Z" transform="translate(-4947.145 -982.268)" fill="#221f20" fill-rule="evenodd"/>
    <path id="Path_49334" data-name="Path 49334" d="M5109.819,1652.887a4.445,4.445,0,1,0-4.445-4.445,4.456,4.456,0,0,0,4.445,4.445Z" transform="translate(-4979.954 -1015.276)" fill="#fefefe" fill-rule="evenodd"/>
    <path id="Path_49335" data-name="Path 49335" d="M5126.224,1660.459a4.186,4.186,0,1,1-4.185,4.187,4.185,4.185,0,0,1,4.185-4.187Zm0,.258a3.928,3.928,0,1,1-3.926,3.929,3.929,3.929,0,0,1,3.926-3.929Z" transform="translate(-4996.357 -1031.481)" fill="#323230" fill-rule="evenodd"/>
    <path id="Path_49336" data-name="Path 49336" d="M5146.429,1681.189a3.862,3.862,0,1,1-3.863,3.862,3.859,3.859,0,0,1,3.863-3.862Zm0,1.322a2.538,2.538,0,1,1-2.537,2.54,2.541,2.541,0,0,1,2.537-2.54Z" transform="translate(-5016.563 -1051.886)" fill="#323230" fill-rule="evenodd"/>
    <path id="Path_49337" data-name="Path 49337" d="M5236.253,1772.241a2.433,2.433,0,1,1-2.431,2.435,2.435,2.435,0,0,1,2.431-2.435Zm0,.073a2.361,2.361,0,1,1-2.357,2.361,2.362,2.362,0,0,1,2.357-2.361Z" transform="translate(-5106.388 -1141.51)" fill="#221f20" fill-rule="evenodd"/>
    <path id="Path_49338" data-name="Path 49338" d="M5253.658,1789.923a2.156,2.156,0,1,1-2.154,2.157,2.157,2.157,0,0,1,2.154-2.157Zm0,1.087a1.071,1.071,0,1,1-1.071,1.071,1.069,1.069,0,0,1,1.071-1.071Zm1.271-.2a.226.226,0,0,1-.322.319.224.224,0,0,1,0-.319.227.227,0,0,1,.322,0Zm-1.271-.526a.226.226,0,0,1,0,.452.226.226,0,1,1,0-.452Zm0,3.136a.226.226,0,0,1,0,.452.226.226,0,1,1,0-.452Zm-1.794-1.342a.226.226,0,1,1,.226.226.227.227,0,0,1-.226-.226Zm3.136,0a.228.228,0,1,1,.229.226.227.227,0,0,1-.229-.226Zm-2.611-1.268a.227.227,0,1,1,0,.319.225.225,0,0,1,0-.319Zm.322,2.218a.227.227,0,0,1-.322.319.225.225,0,0,1,0-.319.228.228,0,0,1,.322,0Zm1.9,0a.226.226,0,1,1,0,.319.224.224,0,0,1,0-.319Z" transform="translate(-5123.792 -1158.915)" fill="#6c6d70" fill-rule="evenodd"/>
    <path id="Path_49339" data-name="Path 49339" d="M5353.485,1892.472a.566.566,0,1,0-.564-.564.566.566,0,0,0,.564.564Z" transform="translate(-5223.62 -1258.743)" fill="#323230" fill-rule="evenodd"/>
    <path id="Path_49340" data-name="Path 49340" d="M5332.325,1869.455a.115.115,0,0,1,0,.163.11.11,0,0,1-.163,0,.117.117,0,0,1,0-.163.115.115,0,0,1,.163,0Zm-.647-.268a.117.117,0,0,1,.115.118.115.115,0,0,1-.23,0,.117.117,0,0,1,.115-.118Zm0,1.6a.115.115,0,1,1-.115.115.115.115,0,0,1,.115-.115Zm-.911-.682a.115.115,0,1,1,.115.115.115.115,0,0,1-.115-.115Zm1.594,0a.116.116,0,1,1,.118.115.117.117,0,0,1-.118-.115Zm-1.326-.647a.115.115,0,0,1,.162.163.11.11,0,0,1-.162,0,.117.117,0,0,1,0-.163Zm.162,1.128a.115.115,0,0,1-.162.163.117.117,0,0,1,0-.163.115.115,0,0,1,.162,0Zm.966,0a.115.115,0,1,1,0,.163.117.117,0,0,1,0-.163Z" transform="translate(-5201.813 -1236.936)" fill="#323230" fill-rule="evenodd"/>
    <path id="Path_49341" data-name="Path 49341" d="M5072.607,1606.133l.115-.143a5.465,5.465,0,0,1,.564.044l.089.16.134-.124a5.1,5.1,0,0,1,.549.13l.063.172.152-.1c.178.064.354.137.523.217l.034.178.166-.073a5.088,5.088,0,0,1,.48.293l.011.182.175-.048a4.752,4.752,0,0,1,.427.367l-.02.182.182-.019a4.5,4.5,0,0,1,.367.427l-.048.175.182.01a5.326,5.326,0,0,1,.293.481l-.073.166.179.038a4.786,4.786,0,0,1,.216.519l-.1.153.172.064a5.209,5.209,0,0,1,.13.548l-.124.134.159.092a5.558,5.558,0,0,1,.045.561l-.144.115.144.112a4.666,4.666,0,0,1-.045.564l-.159.089.124.137a4.694,4.694,0,0,1-.13.548l-.172.064.1.153a5.077,5.077,0,0,1-.216.519l-.179.038.073.166c-.089.166-.188.325-.293.481l-.182.006.048.175a4.941,4.941,0,0,1-.367.43l-.182-.019.02.178a4.752,4.752,0,0,1-.427.367l-.175-.048-.011.182a4.546,4.546,0,0,1-.48.3l-.166-.077-.034.182a5.178,5.178,0,0,1-.523.213l-.152-.1-.063.169a5.171,5.171,0,0,1-.549.134l-.134-.124-.089.159a5.536,5.536,0,0,1-.564.041l-.115-.14-.111.14a5.517,5.517,0,0,1-.563-.041l-.09-.159-.134.124a5.154,5.154,0,0,1-.548-.134l-.066-.169-.153.1a5.206,5.206,0,0,1-.52-.213l-.035-.182-.169.077a4.62,4.62,0,0,1-.479-.3l-.009-.182-.176.048a5.239,5.239,0,0,1-.43-.367l.022-.178-.182.019a5.1,5.1,0,0,1-.366-.43l.048-.175-.182-.006a4.92,4.92,0,0,1-.3-.481l.077-.166-.179-.038a4.872,4.872,0,0,1-.217-.519l.1-.153-.173-.064a4.7,4.7,0,0,1-.131-.548l.121-.137-.155-.089a4.476,4.476,0,0,1-.045-.564l.14-.112-.14-.115a4.426,4.426,0,0,1,.045-.561l.155-.092-.121-.134a4.392,4.392,0,0,1,.131-.548l.173-.064-.1-.153a4.6,4.6,0,0,1,.217-.519l.179-.038-.077-.166a4.6,4.6,0,0,1,.3-.481l.182-.01-.048-.175a4.636,4.636,0,0,1,.366-.427l.182.019-.022-.182a5.239,5.239,0,0,1,.43-.367l.176.048.009-.182a5.184,5.184,0,0,1,.479-.293l.169.073.035-.178c.169-.08.344-.153.52-.217l.153.1.066-.172a5.087,5.087,0,0,1,.548-.13l.134.124.09-.16a5.446,5.446,0,0,1,.563-.044Zm0,.781a4.117,4.117,0,1,1-4.116,4.117,4.118,4.118,0,0,1,4.116-4.117Z" transform="translate(-4942.743 -977.866)" fill="#323230" fill-rule="evenodd"/>
    <path id="Path_49342" data-name="Path 49342" d="M5238.866,1269.642h.927a.167.167,0,0,1,.166.166v.044H5238.7v-.044a.166.166,0,0,1,.166-.166Zm0-.625h.927a.168.168,0,0,1,.166.169v.041H5238.7v-.041a.167.167,0,0,1,.166-.169Zm0,.306h.927a.168.168,0,0,1,.166.169v.042H5238.7v-.042a.167.167,0,0,1,.166-.169Z" transform="translate(-5111.189 -646.176)" fill="#323230" fill-rule="evenodd"/>
    <path id="Path_49343" data-name="Path 49343" d="M5857.625,1404.985h.042l.223.22v3.563l-.1.245,0-.245v-1.622l-.166-2.148Zm-.058,1.976c.032.029.067.054.1.08-.032-.025-.067-.051-.1-.08Zm.108.089.118.1-.118-.1Z" transform="translate(-5720.353 -780.012)" fill="#323230" fill-rule="evenodd"/>
    <path id="Path_49344" data-name="Path 49344" d="M5691.312,1506.917a2.669,2.669,0,0,0-1.568-1.045c-.586-.137-.892.064-.825.711.156.93.549,1.322,1.064,1.437h1.443c.255-.045.315-.3-.114-1.1Z" transform="translate(-5554.34 -879.277)" fill-rule="evenodd" fill="url(#linear-gradient)"/>
    <path id="Path_49345" data-name="Path 49345" d="M5702.263,1515.879a2.3,2.3,0,0,0-1.361-.911c-.513-.118-.777.054-.72.618.137.81.478,1.15.927,1.252h1.256c.223-.042.274-.268-.1-.959Z" transform="translate(-5565.428 -888.236)" fill="#d0d2d4" fill-rule="evenodd"/>
    <path id="Path_49346" data-name="Path 49346" d="M5700.185,1540.75h.195a.674.674,0,0,1,.672.672h0a.578.578,0,0,1-.437.561,1.793,1.793,0,0,1-.427-.984,1.293,1.293,0,0,1,0-.249Z" transform="translate(-5565.434 -913.649)" fill="#f5811e" fill-rule="evenodd"/>
    <path id="Path_49347" data-name="Path 49347" d="M4989.632,758.1a.025.025,0,0,1,0,.013h0c-.141.825,1.574,4.155,2.706,6.905a1.127,1.127,0,0,0,.558.564h.239l.006-.029h-.08a1.13,1.13,0,0,1-.557-.564,67.928,67.928,0,0,1-2.677-6.491h.116l-.141-.427-.158.038Z" transform="translate(-4866.015 -143.239)" fill="#323230" fill-rule="evenodd"/>
    <path id="Path_49348" data-name="Path 49348" d="M5000.236,758.069c-.163.8,1.564,4.155,2.7,6.918a1.125,1.125,0,0,0,.558.564h.238l.1-.4a18.768,18.768,0,0,0-3.6-7.087Z" transform="translate(-4876.454 -143.239)" fill="#d0d2d4" fill-rule="evenodd"/>
    <path id="Path_49349" data-name="Path 49349" d="M4464.326,1910.583v.083h-.178v-.424h.153v.038h.152v-.038h.153v.038h.153v-.038h.153v.038h.153v-.038h.156v.038h.153v-.038h.152v.038h.153v-.038h.153v.038h.152v-.038h.153v.038h.153v-.038h.152v.038h.153v-.038h.153v.038h.153v-.038h.153v.038h.152v-.038h.153v.038h.153v-.038h.152v.038h.157v-.038h.153v.038h.152v-.038h.153v.038h.153v-.038h.153v.038h.153v-.038h.153v.424h-.179v-.083Z" transform="translate(-4348.781 -1277.347)" fill="#323230" fill-rule="evenodd"/>
    <path id="Path_49350" data-name="Path 49350" d="M5744.974,1555.383h1.134a1.57,1.57,0,0,1,.145.153h-1.173a.764.764,0,0,0-.105-.153Z" transform="translate(-5609.525 -928.052)" fill="#323230" fill-rule="evenodd"/>
    <path id="Path_49351" data-name="Path 49351" d="M5755.338,1577.333h1.243c.028.054.054.105.079.153h-1.315v-.054h0a.481.481,0,0,0-.007-.1Z" transform="translate(-5619.727 -949.658)" fill="#323230" fill-rule="evenodd"/>
    <path id="Path_49352" data-name="Path 49352" d="M5744.277,1600.706h1.473c.021.057.041.108.053.153h-1.644a.579.579,0,0,0,.118-.153Z" transform="translate(-5608.724 -972.665)" fill="#323230" fill-rule="evenodd"/>
    <path id="Path_49353" data-name="Path 49353" d="M5001.311,851.56h-.434a.379.379,0,0,0-.376.379v.14l.2.2v2.655l-.2.166v.064a.376.376,0,0,0,.376.376h.517l-.213-.373-.035-3.355Z" transform="translate(-4876.725 -235.265)" fill="#323230" fill-rule="evenodd"/>
    <path id="Path_49354" data-name="Path 49354" d="M5044.492,851.56h-.127l-.166.252.035,3.355.213.373h.044a.379.379,0,0,0,.379-.376v-.838h-.249v-.169h.249v-.172h-.249v-.169h.249v-.172h-.249v-.169h.249V853.3h-.249v-.169h.249v-.172h-.249v-.169h.249v-.172h-.249v-.169h.249v-.513a.382.382,0,0,0-.379-.379Z" transform="translate(-4919.738 -235.265)" fill="#323230" fill-rule="evenodd"/>
    <path id="Path_49355" data-name="Path 49355" d="M4930.4,756.14l-.453-.806a.3.3,0,0,0-.4-.112h0a.293.293,0,0,0-.111.4l.453.806a.292.292,0,0,0,.4.111h0a.3.3,0,0,0,.112-.4Z" transform="translate(-4806.74 -140.402)" fill="#bbbdbf" fill-rule="evenodd"/>
    <path id="Path_49356" data-name="Path 49356" d="M4964.538,808.259h-.325v-.408h-.7a.235.235,0,1,1-.173-.4.239.239,0,0,1,.166.07h.844a.192.192,0,0,1,.186.147h0v.586Z" transform="translate(-4839.915 -191.852)" fill="#323230" fill-rule="evenodd"/>
    <path id="Path_49357" data-name="Path 49357" d="M5071.478,908.467h-.249v.169h.249Zm0,1.7h-.249v.169h.249Zm0-.341h-.249V910h.249Zm0-.341h-.249v.169h.249Zm0-.341h-.249v.169h.249Zm0-.341h-.249v.169h.249Z" transform="translate(-4946.344 -291.279)" fill="#fcdf02" fill-rule="evenodd"/>
    <path id="Path_49358" data-name="Path 49358" d="M4939.345,763.368a.108.108,0,0,0-.146-.041.109.109,0,1,0,.146.041Z" transform="translate(-4816.331 -148.401)" fill="#212121" fill-rule="evenodd"/>
    <path id="Path_49359" data-name="Path 49359" d="M4942.4,766.552a.059.059,0,1,0-.022.08.058.058,0,0,0,.022-.08Z" transform="translate(-4819.427 -151.56)" fill="#2491eb" fill-rule="evenodd"/>
    <path id="Path_49360" data-name="Path 49360" d="M4950.733,783.692a.105.105,0,0,0-.144-.041.1.1,0,0,0-.041.147.108.108,0,0,0,.146.041.105.105,0,0,0,.038-.147Z" transform="translate(-4827.541 -168.407)" fill="#212121" fill-rule="evenodd"/>
    <path id="Path_49361" data-name="Path 49361" d="M4953.782,786.713a.061.061,0,0,0-.08-.022.062.062,0,0,0-.022.083.058.058,0,0,0,.08.022.062.062,0,0,0,.022-.083Z" transform="translate(-4830.63 -171.406)" fill="#2491eb" fill-rule="evenodd"/>
    <path id="Path_49362" data-name="Path 49362" d="M4856.328,1283.853h2.345a.334.334,0,0,1,.335.331v2.1a1.284,1.284,0,0,1-1.278,1.278h-1.4a.334.334,0,0,1-.332-.335v-3.043a.333.333,0,0,1,.332-.331Z" transform="translate(-4734.486 -660.78)" fill="#323230" fill-rule="evenodd"/>
    <path id="Path_49363" data-name="Path 49363" d="M4866.778,1294.015h2.25a.214.214,0,0,1,.213.214v2.043a1.137,1.137,0,0,1-1.134,1.135h-1.33a.214.214,0,0,1-.213-.214v-2.964a.214.214,0,0,1,.213-.214Z" transform="translate(-4744.889 -670.782)" fill="#d0d2d4" stroke="#221f20" stroke-miterlimit="10" stroke-width="0.198" fill-rule="evenodd"/>
    <path id="Path_49364" data-name="Path 49364" d="M4464.326,2032.934v.083h-.178v-.424h.153v.038h.152v-.038h.153v.038h.153v-.038h.153v.038h.153v-.038h.156v.038h.153v-.038h.152v.038h.153v-.038h.153v.038h.152v-.038h.153v.038h.153v-.038h.152v.038h.153v-.038h.153v.038h.153v-.038h.153v.038h.152v-.038h.153v.038h.153v-.038h.152v.038h.157v-.038h.153v.038h.152v-.038h.153v.038h.153v-.038h.153v.038h.153v-.038h.153v.424h-.179v-.083Z" transform="translate(-4348.781 -1397.78)" fill="#323230" fill-rule="evenodd"/>
    <path id="Path_49365" data-name="Path 49365" d="M4328.383,1487.7h.42v2.948a.166.166,0,0,1-.165.166h-.255Z" transform="translate(-4215.146 -861.435)" fill="#323230" fill-rule="evenodd"/>
    <path id="Path_49366" data-name="Path 49366" d="M4309.51,1570.423h-.784a.262.262,0,0,0-.261.258v.5h1.045Z" transform="translate(-4195.54 -942.857)" fill="#323230" fill-rule="evenodd"/>
    <path id="Path_49367" data-name="Path 49367" d="M4317.61,1577.786Zm.621-.656v.561h-.513v-.561Z" transform="translate(-4203.742 -949.458)" fill="#323230" fill-rule="evenodd"/>
    <path id="Path_49368" data-name="Path 49368" d="M4464.415,1770.209h-.268v4.764h.02l.248-.249Z" transform="translate(-4348.781 -1139.51)" fill="#323230" fill-rule="evenodd"/>
    <path id="Path_49369" data-name="Path 49369" d="M4753.36,1770.209h.268v4.764h-.022l-.245-.249Z" transform="translate(-4633.46 -1139.51)" fill="#323230" fill-rule="evenodd"/>
    <rect id="Rectangle_5626" data-name="Rectangle 5626" width="0.809" height="0.424" transform="translate(112.68 628.959)" fill="#323230"/>
    <rect id="Rectangle_5627" data-name="Rectangle 5627" width="0.424" height="0.854" transform="translate(109.93 629.418)" fill="#323230"/>
    <path id="Path_49370" data-name="Path 49370" d="M4020.632,1735.973h-.532a.113.113,0,0,0-.111-.112h-1.173a.114.114,0,0,0-.115.112h-.532a.539.539,0,0,0-.542.529v.924h3.547v-.924a.537.537,0,0,0-.542-.529Zm-.532,0" transform="translate(-3909.262 -1105.701)" fill="#323230" fill-rule="evenodd"/>
    <path id="Path_49371" data-name="Path 49371" d="M4020.989,1855.828h-2.769a.391.391,0,0,1-.389-.392v-.679h3.547v.679a.391.391,0,0,1-.389.392Z" transform="translate(-3909.463 -1222.732)" fill="#323230" fill-rule="evenodd"/>
    <rect id="Rectangle_5628" data-name="Rectangle 5628" width="3.429" height="0.3" transform="translate(108.429 631.725)" fill="#a6a9ab"/>
    <rect id="Rectangle_5629" data-name="Rectangle 5629" width="0.446" height="0.73" transform="translate(109.917 629.893)" fill="#323230"/>
    <path id="Path_49372" data-name="Path 49372" d="M3957.036,1768.583h-.695l-.3.3v.376l.3.3h.695Z" transform="translate(-3848.645 -1137.909)" fill="#bbbdbf" fill-rule="evenodd"/>
    <path id="Path_49373" data-name="Path 49373" d="M4021.286,1768.583h.274l.118.118v.73l-.118.121h-.274Z" transform="translate(-3912.864 -1137.909)" fill="#bbbdbf" fill-rule="evenodd"/>
    <path id="Path_49374" data-name="Path 49374" d="M4027.886,1777.717a.1.1,0,0,0,.1-.1.1.1,0,0,0-.1-.1.094.094,0,0,0-.1.1.1.1,0,0,0,.1.1Z" transform="translate(-3919.265 -1146.713)" fill="#212121" fill-rule="evenodd"/>
    <path id="Path_49375" data-name="Path 49375" d="M4027.886,1809.222a.1.1,0,0,0,0-.194.1.1,0,0,0,0,.194Z" transform="translate(-3919.265 -1177.72)" fill="#212121" fill-rule="evenodd"/>
    <path id="Path_49376" data-name="Path 49376" d="M3997.183,1772.611a.083.083,0,1,0,0-.166.083.083,0,1,0,0,.166Z" transform="translate(-3889.056 -1141.711)" fill="#212121" fill-rule="evenodd"/>
    <path id="Path_49377" data-name="Path 49377" d="M3997.183,1816.1a.081.081,0,1,0,0-.162.081.081,0,1,0,0,.162Z" transform="translate(-3889.056 -1184.522)" fill="#212121" fill-rule="evenodd"/>
    <path id="Path_49378" data-name="Path 49378" d="M3966.7,1781.756a.083.083,0,1,0-.083-.083.085.085,0,0,0,.083.083Z" transform="translate(-3859.049 -1150.713)" fill="#212121" fill-rule="evenodd"/>
    <path id="Path_49379" data-name="Path 49379" d="M3966.7,1806.755a.082.082,0,0,0,.083-.083.083.083,0,0,0-.166,0,.082.082,0,0,0,.083.083Z" transform="translate(-3859.049 -1175.32)" fill="#212121" fill-rule="evenodd"/>
    <path id="Path_49380" data-name="Path 49380" d="M4245.258,1773.664h.691l.3.3v.376l-.3.3h-.691Z" transform="translate(-4133.323 -1142.911)" fill="#bbbdbf" fill-rule="evenodd"/>
    <path id="Path_49381" data-name="Path 49381" d="M4218.416,1773.664h-.271l-.121.121v.73l.121.118h.271Z" transform="translate(-4106.516 -1142.911)" fill="#bbbdbf" fill-rule="evenodd"/>
    <path id="Path_49382" data-name="Path 49382" d="M4224.423,1782.8a.1.1,0,1,0-.1-.1.1.1,0,0,0,.1.1Z" transform="translate(-4112.718 -1151.714)" fill="#212121" fill-rule="evenodd"/>
    <path id="Path_49383" data-name="Path 49383" d="M4224.423,1814.5a.1.1,0,1,0-.1-.1.1.1,0,0,0,.1.1Z" transform="translate(-4112.718 -1182.922)" fill="#212121" fill-rule="evenodd"/>
    <path id="Path_49384" data-name="Path 49384" d="M4256.925,1777.891a.081.081,0,1,0,0-.162.08.08,0,0,0-.083.083.08.08,0,0,0,.083.08Z" transform="translate(-4144.726 -1146.912)" fill="#212121" fill-rule="evenodd"/>
    <path id="Path_49385" data-name="Path 49385" d="M4256.925,1821.185a.083.083,0,1,0,0-.166.083.083,0,1,0,0,.166Z" transform="translate(-4144.726 -1189.523)" fill="#212121" fill-rule="evenodd"/>
    <path id="Path_49386" data-name="Path 49386" d="M4287.208,1787.041a.082.082,0,0,0,.083-.083.08.08,0,0,0-.083-.083.082.082,0,0,0-.083.083.084.084,0,0,0,.083.083Z" transform="translate(-4174.534 -1155.915)" fill="#212121" fill-rule="evenodd"/>
    <path id="Path_49387" data-name="Path 49387" d="M4287.208,1812.039a.083.083,0,0,0,0-.166.083.083,0,0,0,0,.166Z" transform="translate(-4174.534 -1180.521)" fill="#212121" fill-rule="evenodd"/>
    <path id="Path_49388" data-name="Path 49388" d="M3767.516,1456.837h.758l.3-.822a.582.582,0,0,1,.743-.347h0a.582.582,0,0,1,.347.742l-.156.427h.125l.542.583v.5h-4.764v-.538Zm1.73-.988a.263.263,0,0,1-.179.494.263.263,0,0,1,.179-.494Z" transform="translate(-3660.995 -829.866)" fill="#323230" fill-rule="evenodd"/>
    <rect id="Rectangle_5630" data-name="Rectangle 5630" width="45.205" height="1.453" transform="translate(66.936 627.554)" fill="#323230"/>
    <path id="Path_49389" data-name="Path 49389" d="M1997.406,1638.852l.061-.14c.127,0,.251.013.373.026l.038.15c.083.01.166.022.249.038l.083-.131q.186.038.363.086l.013.153c.083.026.162.051.239.08l.105-.115c.118.042.233.089.344.14l-.01.153c.073.038.15.073.223.115l.121-.1c.108.061.213.124.319.194l-.035.15c.067.045.137.1.2.147l.137-.08c.1.08.191.159.284.246l-.057.14c.06.057.118.118.175.178l.146-.057c.083.093.166.188.242.284l-.08.134c.051.064.1.131.15.2l.15-.032c.07.1.134.21.2.319l-.1.118c.038.073.076.146.115.223l.153-.009c.051.115.1.229.143.344l-.115.1q.043.115.076.239l.156.016q.048.177.086.363l-.131.08c.016.083.029.166.038.249l.15.042a3.684,3.684,0,0,1,.029.373l-.14.057c0,.045,0,.089,0,.134s0,.08,0,.118l.143.064q-.01.186-.029.373l-.15.035q-.014.125-.038.249l.131.083q-.038.186-.086.363l-.153.013c-.026.083-.051.162-.08.239l.118.1q-.067.177-.143.344l-.153-.01c-.035.076-.073.15-.115.223l.1.121c-.061.108-.127.214-.2.319l-.146-.035c-.048.07-.1.137-.15.2l.08.137c-.08.1-.159.191-.242.284l-.143-.057c-.057.06-.115.118-.175.175l.054.147c-.093.083-.185.166-.284.242l-.131-.08c-.067.051-.134.1-.2.15l.032.15c-.1.07-.21.134-.319.2l-.115-.1-.223.115.006.153a3.273,3.273,0,0,1-.344.144l-.1-.115c-.076.029-.156.054-.239.076l-.016.156q-.177.048-.363.086l-.08-.131c-.083.016-.166.029-.249.042l-.038.146c-.124.016-.249.025-.373.032l-.061-.143c-.045,0-.089,0-.134,0h-.118l-.061.14q-.191-.01-.373-.029l-.038-.15q-.125-.015-.249-.038l-.083.131q-.186-.038-.364-.086l-.013-.153q-.124-.038-.239-.076l-.105.115q-.177-.067-.344-.143l.01-.153c-.073-.035-.15-.073-.223-.115l-.121.1c-.108-.061-.213-.127-.318-.194l.035-.15c-.067-.048-.137-.1-.2-.146l-.137.076c-.1-.076-.191-.159-.284-.242l.057-.143c-.06-.058-.118-.115-.175-.175l-.146.054c-.083-.092-.166-.185-.242-.283l.08-.131c-.051-.067-.1-.134-.146-.2l-.153.032c-.07-.1-.134-.207-.2-.319l.1-.115c-.038-.073-.076-.15-.115-.223l-.153.006q-.076-.167-.143-.344l.115-.1c-.025-.076-.054-.156-.076-.236l-.156-.019q-.048-.177-.086-.364l.131-.08c-.016-.083-.029-.166-.038-.248l-.15-.038q-.023-.186-.029-.373l.14-.061c0-.045,0-.089,0-.134s0-.076,0-.115l-.143-.064q.01-.191.029-.373l.15-.038c.009-.083.022-.166.038-.249l-.131-.083q.038-.186.086-.363l.153-.013c.025-.08.051-.159.08-.239l-.118-.105q.067-.177.143-.344l.153.01c.035-.073.073-.15.115-.223l-.1-.121c.064-.108.127-.213.2-.319l.146.035c.048-.067.1-.134.15-.2l-.08-.134c.08-.1.159-.194.245-.287l.14.057c.057-.061.115-.118.175-.175l-.054-.143c.093-.086.188-.169.284-.245l.131.08c.067-.051.134-.1.2-.146l-.032-.153c.1-.07.21-.134.319-.195l.115.1c.073-.042.15-.08.226-.115l-.009-.156q.167-.077.344-.143l.1.115c.077-.025.156-.051.239-.076l.016-.153c.118-.035.239-.064.363-.089l.08.131c.083-.016.166-.029.249-.038l.038-.15c.124-.016.249-.025.373-.029l.061.14.134,0c.038,0,.076,0,.118,0Zm-.118.4a4.206,4.206,0,1,1-4.207,4.206,4.206,4.206,0,0,1,4.207-4.206Zm0-.338h0Zm.143,0a3.531,3.531,0,0,1,.411.032Zm.462.035.057.01-.057-.01Zm.121.019a.159.159,0,0,0,.038.006.159.159,0,0,1-.038-.006Zm.124.022a4.1,4.1,0,0,1,.4.1l-.013-.156c-.1-.029-.2-.051-.3-.073Zm.4.1c.029.01.057.016.086.026-.029-.01-.057-.016-.086-.026Zm.112.032c.025.01.051.016.077.025-.026-.01-.051-.016-.077-.025Zm.115.038a4.508,4.508,0,0,1,.443.178l.013-.156c-.1-.042-.191-.083-.287-.118l-.109.118-.06-.022Zm.618.268a.3.3,0,0,1,.044.022.3.3,0,0,0-.044-.022Zm.092.048a4.706,4.706,0,0,1,.437.274l-.083-.057.035-.153c-.086-.057-.175-.112-.264-.163Zm.449.283.067.048-.067-.048Zm.1.073c.127.1.249.2.363.3l.061-.144c-.077-.07-.156-.137-.239-.2l-.137.08a.454.454,0,0,0-.048-.035Zm.5.443a.147.147,0,0,1,.022.022.147.147,0,0,0-.022-.022Zm.073.073c.093.1.182.2.268.312l.083-.134c-.067-.08-.134-.159-.2-.236Zm.268.312a.544.544,0,0,1,.051.07.544.544,0,0,0-.051-.07Zm.067.089.048.067-.048-.067Zm.067.093c.016.019.029.041.044.061-.016-.019-.029-.042-.044-.061Zm.044.061c.077.115.15.232.217.354l.1-.121c-.054-.089-.108-.178-.166-.264Zm.354.621c.057.124.112.252.159.379l.118-.1c-.038-.1-.076-.191-.118-.287l-.159.01Zm.159.383c.01.025.019.054.029.083-.01-.029-.019-.057-.029-.083Zm.038.108c.007.022.016.048.022.073-.007-.026-.016-.051-.022-.073Zm.035.115a4.672,4.672,0,0,1,.118.472v.01h0Zm.134.555c0,.022.006.041.01.061,0-.019-.006-.038-.01-.061Zm.016.1c0,.029.007.057.01.086,0-.029-.006-.057-.01-.086Zm.013.105c.016.137.029.274.032.414l.146-.061c-.006-.1-.013-.21-.025-.312l-.153-.042Zm.035.475v0Zm0,.239q0,.211-.029.411Zm-.035.462-.01.057.01-.057Zm-.019.121c0,.013,0,.026-.006.042,0-.016,0-.029.006-.042Zm-.022.124c-.026.137-.057.271-.1.4l.156-.016c.029-.1.051-.2.073-.3Zm-.1.4a.88.88,0,0,1-.025.086.88.88,0,0,0,.025-.086Zm-.032.108c-.01.025-.016.051-.026.076.01-.025.016-.051.026-.076Zm-.038.115a4.161,4.161,0,0,1-.178.443l.156.013c.042-.1.083-.192.118-.287l-.118-.109a.45.45,0,0,0,.022-.06Zm-.268.618a.194.194,0,0,1-.022.044.194.194,0,0,0,.022-.044Zm-.048.092a4.392,4.392,0,0,1-.274.437c.019-.029.038-.054.057-.083l.153.035c.057-.086.112-.175.163-.264Zm-.281.449c-.016.022-.035.044-.051.067.016-.022.035-.045.051-.067Zm-.073.1a4.16,4.16,0,0,1-.306.363l.147.061c.067-.076.134-.156.2-.239l-.08-.137.038-.048Zm-.443.5-.025.025.025-.025Zm-.077.073c-.1.092-.2.185-.312.268l.134.083c.08-.067.16-.134.236-.2Zm-.312.268c-.022.019-.045.035-.067.054.022-.019.044-.035.067-.054Zm-.089.07a.762.762,0,0,1-.067.045.762.762,0,0,0,.067-.045Zm-.093.064c-.019.016-.041.029-.061.045.019-.016.042-.029.061-.045Zm-.061.045c-.115.076-.232.15-.354.217l.121.1c.089-.051.178-.108.264-.163Zm-.621.354c-.125.057-.249.112-.379.159l.1.118c.1-.035.191-.076.287-.118l-.009-.159Zm-.379.159-.086.029.086-.029Zm-.108.038c-.026.006-.051.016-.077.022.026-.006.051-.016.077-.022Zm-.118.035a4.672,4.672,0,0,1-.472.118h-.01Zm-.555.134-.061.01.061-.01Zm-.1.016-.086.01.086-.01Zm-.1.013a3.581,3.581,0,0,1-.414.032l.064.146c.1-.006.207-.013.309-.025l.042-.153Zm-.475.035h0Zm-.239,0c-.137-.006-.277-.016-.411-.032Zm-.462-.038-.057-.01.057.01Zm-.121-.019c-.013,0-.025,0-.038-.006.013,0,.025,0,.038.006Zm-.124-.022a4.1,4.1,0,0,1-.4-.1l.013.156c.1.029.2.054.3.073Zm-.4-.1a.86.86,0,0,1-.086-.025.86.86,0,0,0,.086.025Zm-.112-.032c-.025-.01-.051-.016-.077-.026.026.01.051.016.077.026Zm-.115-.038a4.45,4.45,0,0,1-.443-.178l-.013.156c.1.044.191.083.287.118l.108-.118a.466.466,0,0,0,.061.022Zm-.618-.264-.044-.026.044.026Zm-.092-.051a4.794,4.794,0,0,1-.437-.274.643.643,0,0,0,.083.057l-.035.153c.086.057.175.112.264.163Zm-.449-.281c-.022-.016-.045-.032-.067-.051.022.019.045.035.067.051Zm-.1-.073a4.124,4.124,0,0,1-.363-.306l-.058.146c.077.07.153.137.236.2l.137-.08.048.038Zm-.5-.443a.16.16,0,0,1-.022-.026.16.16,0,0,0,.022.026Zm-.073-.077c-.092-.1-.182-.2-.268-.312l-.083.134c.067.083.134.159.2.236Zm-.268-.312c-.019-.022-.035-.044-.051-.067.016.022.032.044.051.067Zm-.067-.089c-.016-.022-.032-.045-.048-.064.016.019.032.042.048.064Zm-.067-.093c-.016-.019-.029-.041-.044-.061.016.019.029.042.044.061Zm-.044-.061c-.077-.115-.15-.232-.217-.354l-.1.121c.051.089.1.178.162.264Zm-.354-.618c-.057-.124-.112-.252-.159-.382l-.118.1c.038.1.076.195.118.287l.159-.009Zm-.159-.382-.029-.086.029.086Zm-.035-.108c-.01-.026-.019-.051-.025-.077.007.025.016.051.025.077Zm-.038-.118a4.439,4.439,0,0,1-.118-.472v-.01h0Zm-.131-.554a.4.4,0,0,1-.013-.061.4.4,0,0,0,.013.061Zm-.016-.1a.8.8,0,0,1-.013-.086.8.8,0,0,0,.013.086Zm-.016-.105c-.016-.137-.029-.274-.032-.411l-.146.061c.006.1.013.207.025.309l.153.041Zm-.035-.475v0Zm0-.239q.005-.205.029-.411Zm.035-.459c0-.022.006-.042.01-.06,0,.019-.007.038-.01.06Zm.019-.124c0-.013,0-.025.006-.038,0,.013,0,.025-.006.038Zm.022-.124a4.109,4.109,0,0,1,.1-.4l-.156.013c-.029.1-.051.2-.073.3Zm.1-.4c.006-.029.016-.057.025-.086-.01.029-.019.058-.025.086Zm.032-.112c.01-.026.016-.051.026-.073-.01.022-.016.048-.026.073Zm.038-.115a4.508,4.508,0,0,1,.178-.443l-.156-.01c-.042.092-.083.188-.118.283l.118.108c-.006.019-.016.042-.022.061Zm.268-.618a.317.317,0,0,1,.022-.045.317.317,0,0,0-.022.045Zm.048-.092a4.794,4.794,0,0,1,.274-.437c-.019.029-.038.057-.057.083l-.153-.035c-.057.086-.112.175-.163.264Zm.283-.449.048-.067-.048.067Zm.07-.1a4.693,4.693,0,0,1,.306-.363l-.147-.057c-.067.077-.134.153-.2.236l.08.137-.038.048Zm.443-.5c.01-.006.016-.016.025-.022-.009.006-.016.016-.025.022Zm.077-.07c.1-.1.2-.185.312-.271l-.134-.08c-.08.064-.159.131-.236.2Zm.312-.271c.022-.016.045-.035.067-.051-.022.016-.044.035-.067.051Zm.089-.067.067-.048-.067.048Zm.093-.067c.019-.016.041-.029.061-.045-.019.016-.042.029-.061.045Zm.061-.045c.115-.076.232-.146.354-.217l-.121-.1c-.089.051-.178.105-.264.163Zm.621-.354a4.056,4.056,0,0,1,.379-.156l-.1-.121c-.1.038-.191.076-.287.121l.009.156Zm.379-.156c.029-.013.057-.022.086-.032-.029.01-.057.019-.086.032Zm.108-.038a.718.718,0,0,1,.076-.025.718.718,0,0,0-.076.025Zm.118-.038a4.671,4.671,0,0,1,.472-.118h.01Zm.555-.13.061-.013-.061.013Zm.1-.016a.8.8,0,0,1,.086-.013.8.8,0,0,0-.086.013Zm.1-.016c.137-.016.274-.029.414-.032l-.064-.146c-.1.006-.207.013-.309.025l-.042.153Zm.475-.035h0Zm.239,0,.064-.146c.105.006.207.013.309.025l.038.153Zm4.2,3.212c.006.019.013.042.019.061l.156.019c.029.1.054.2.073.3l-.134.083Zm.194,1.472.146.064c0,.105-.013.207-.022.309l-.153.038Zm-3.212,4.2-.061.019-.016.159c-.1.025-.2.051-.3.07l-.083-.134Zm-1.472.2-.064.143c-.105,0-.207-.013-.309-.022l-.038-.153Zm-4.2-3.215c-.006-.019-.013-.038-.019-.061l-.156-.016c-.029-.1-.054-.2-.073-.3l.134-.083Zm-.195-1.472-.146-.064c.006-.105.013-.207.025-.309l.15-.038Zm3.212-4.2.061-.019.016-.156c.1-.029.2-.054.3-.073l.083.134Z" transform="translate(-1915.92 -1010.075)" fill="#221f20" fill-rule="evenodd"/>
    <path id="Path_49390" data-name="Path 49390" d="M2028.9,1679.123a4.251,4.251,0,1,0-4.251-4.251,4.258,4.258,0,0,0,4.251,4.251Z" transform="translate(-1947.529 -1041.484)" fill="#fefefe" fill-rule="evenodd"/>
    <path id="Path_49391" data-name="Path 49391" d="M2044.5,1686.474a4,4,0,1,1-4,4,4,4,0,0,1,4-4Zm0,.245a3.757,3.757,0,1,1-3.757,3.757,3.758,3.758,0,0,1,3.757-3.757Z" transform="translate(-1963.133 -1057.088)" fill="#323230" fill-rule="evenodd"/>
    <path id="Path_49392" data-name="Path 49392" d="M2063.907,1706.188a3.693,3.693,0,1,1-3.693,3.693,3.694,3.694,0,0,1,3.693-3.693Zm0,1.265a2.428,2.428,0,1,1-2.428,2.428,2.428,2.428,0,0,1,2.428-2.428Z" transform="translate(-1982.539 -1076.493)" fill="#323230" fill-rule="evenodd"/>
    <path id="Path_49393" data-name="Path 49393" d="M2149.731,1793.378a2.326,2.326,0,1,1-2.326,2.326,2.327,2.327,0,0,1,2.326-2.326Zm0,.07a2.258,2.258,0,1,1-2.256,2.256,2.256,2.256,0,0,1,2.256-2.256Z" transform="translate(-2068.362 -1162.316)" fill="#221f20" fill-rule="evenodd"/>
    <path id="Path_49394" data-name="Path 49394" d="M2166.335,1810.247a2.062,2.062,0,1,1-2.062,2.062,2.063,2.063,0,0,1,2.062-2.062Zm0,1.039a1.025,1.025,0,1,1-1.023,1.023,1.024,1.024,0,0,1,1.023-1.023Zm1.214-.191a.22.22,0,0,1,0,.306.216.216,0,0,1-.306-.306.219.219,0,0,1,.306,0Zm-1.214-.5a.217.217,0,0,1,.217.217.217.217,0,0,1-.434,0,.217.217,0,0,1,.217-.217Zm0,3a.217.217,0,1,1-.217.217.215.215,0,0,1,.217-.217Zm-1.717-1.284a.217.217,0,0,1,.433,0,.217.217,0,1,1-.433,0Zm3,0a.217.217,0,1,1,.217.217.217.217,0,0,1-.217-.217Zm-2.5-1.214a.219.219,0,0,1,.306,0,.216.216,0,1,1-.306.306.22.22,0,0,1,0-.306Zm.306,2.122a.216.216,0,1,1-.306.306.219.219,0,0,1,0-.306.213.213,0,0,1,.306,0Zm1.817,0a.214.214,0,0,1,.306,0,.219.219,0,0,1,0,.306.216.216,0,0,1-.306-.306Z" transform="translate(-2084.967 -1178.92)" fill="#6c6d70" fill-rule="evenodd"/>
    <path id="Path_49395" data-name="Path 49395" d="M2261.761,1908.277a.542.542,0,1,0-.542-.542.543.543,0,0,0,.542.542Z" transform="translate(-2180.393 -1274.346)" fill="#323230" fill-rule="evenodd"/>
    <path id="Path_49396" data-name="Path 49396" d="M2241.573,1886.314a.109.109,0,0,1,0,.153.108.108,0,0,1-.156,0,.1.1,0,0,1,0-.153.108.108,0,0,1,.156,0Zm-.618-.258a.113.113,0,0,1,.112.112.112.112,0,0,1-.223,0,.113.113,0,0,1,.111-.112Zm0,1.526a.11.11,0,1,1-.111.108.11.11,0,0,1,.111-.108Zm-.873-.653a.11.11,0,0,1,.112-.108.107.107,0,0,1,.108.108.11.11,0,0,1-.108.112.113.113,0,0,1-.112-.112Zm1.526,0a.107.107,0,0,1,.108-.108.11.11,0,0,1,.112.108.113.113,0,0,1-.112.112.11.11,0,0,1-.108-.112Zm-1.271-.615a.108.108,0,0,1,.156,0,.1.1,0,0,1,0,.153.108.108,0,0,1-.156,0,.11.11,0,0,1,0-.153Zm.156,1.077a.108.108,0,0,1,0,.156.11.11,0,0,1-.156-.156.108.108,0,0,1,.156,0Zm.924,0a.108.108,0,0,1,.156,0,.11.11,0,0,1-.156.156.108.108,0,0,1,0-.156Z" transform="translate(-2159.587 -1253.541)" fill="#323230" fill-rule="evenodd"/>
    <path id="Path_49397" data-name="Path 49397" d="M1993.288,1634.578l.108-.134a4.3,4.3,0,0,1,.538.042l.086.15.128-.118a4.808,4.808,0,0,1,.526.127l.061.162.146-.1a4.286,4.286,0,0,1,.5.207l.035.172.159-.073a5.344,5.344,0,0,1,.462.28l.006.175.169-.048a4.838,4.838,0,0,1,.408.354l-.019.172.175-.019c.124.131.239.268.35.411l-.048.166.175.01a4.722,4.722,0,0,1,.28.459l-.07.159.172.035a5.332,5.332,0,0,1,.2.5l-.1.147.163.061a4.83,4.83,0,0,1,.127.526l-.118.128.15.086a4.3,4.3,0,0,1,.042.538l-.134.109.134.108a4.258,4.258,0,0,1-.042.539l-.15.086.118.131a4.781,4.781,0,0,1-.127.523l-.163.061.1.147a4.975,4.975,0,0,1-.2.5l-.172.035.07.159a5.189,5.189,0,0,1-.28.462l-.175.006.048.169a5.356,5.356,0,0,1-.35.411l-.175-.022.019.175a4.825,4.825,0,0,1-.408.35l-.169-.048-.006.175a4.63,4.63,0,0,1-.462.28l-.159-.07-.035.172a4.229,4.229,0,0,1-.5.2l-.146-.1-.061.162a4.175,4.175,0,0,1-.526.127l-.128-.118-.086.15a4.991,4.991,0,0,1-.538.045l-.108-.137-.108.137a5.048,5.048,0,0,1-.538-.045l-.086-.15-.128.118a4.185,4.185,0,0,1-.526-.127l-.061-.162-.147.1a4.229,4.229,0,0,1-.5-.2l-.035-.172-.159.07a4.225,4.225,0,0,1-.459-.28l-.01-.175-.169.048a4.864,4.864,0,0,1-.408-.35l.019-.175-.175.022a5.362,5.362,0,0,1-.351-.411l.048-.169-.176-.006a5.189,5.189,0,0,1-.28-.462l.07-.159-.172-.035a4.806,4.806,0,0,1-.2-.5l.1-.147-.162-.061a4.782,4.782,0,0,1-.127-.523l.118-.131-.15-.086a4.258,4.258,0,0,1-.042-.539l.134-.108-.134-.109a4.3,4.3,0,0,1,.042-.538l.15-.086-.118-.128a4.831,4.831,0,0,1,.127-.526l.162-.061-.1-.147a5.138,5.138,0,0,1,.2-.5l.172-.035-.07-.159a4.722,4.722,0,0,1,.28-.459l.176-.01-.048-.166c.112-.143.226-.28.351-.411l.175.019-.019-.172a4.877,4.877,0,0,1,.408-.354l.169.048.01-.175a4.817,4.817,0,0,1,.459-.28l.159.073.035-.172a4.286,4.286,0,0,1,.5-.207l.147.1.061-.162a4.822,4.822,0,0,1,.526-.127l.128.118.086-.15a4.289,4.289,0,0,1,.538-.042Zm0,.746a3.939,3.939,0,1,1-3.939,3.939,3.939,3.939,0,0,1,3.939-3.939Z" transform="translate(-1911.92 -1005.874)" fill="#323230" fill-rule="evenodd"/>
    <path id="Path_49398" data-name="Path 49398" d="M46.1,846.064l60.422-16.048.5,1.88L57.341,845.089,46.213,846.51Z" transform="translate(0 -214.058)" fill-rule="evenodd" fill="url(#linear-gradient)"/>
    <path id="Path_49399" data-name="Path 49399" d="M360.383,711.574l-.994.265-.236-.9-.488-.28-41.853,11.115-7.967,3.5-4.831,1.284-.006-.016,12.5-5.491,0-.006.045-.013h.006L359.229,709.7l.774.446Z" transform="translate(-253.869 -95.626)" fill="#323230" fill-rule="evenodd"/>
    <path id="Path_49400" data-name="Path 49400" d="M1113.924,1464.6l1.01-.271.344,1.294-1.01.268Z" transform="translate(-1051.085 -838.428)" fill="#323230" fill-rule="evenodd"/>
    <path id="Path_49401" data-name="Path 49401" d="M2463.647,1106.085l1.01-.271.344,1.294-1.013.268Z" transform="translate(-2379.647 -485.532)" fill="#323230" fill-rule="evenodd"/>
    <path id="Path_49402" data-name="Path 49402" d="M1737.67,1298.958l1.013-.268.341,1.291-1.01.271Z" transform="translate(-1665.052 -675.384)" fill="#323230" fill-rule="evenodd"/>
    <path id="Path_49403" data-name="Path 49403" d="M3123.571,930.888l1.01-.268.344,1.291-1.01.271Z" transform="translate(-3029.223 -313.086)" fill="#323230" fill-rule="evenodd"/>
    <path id="Path_49404" data-name="Path 49404" d="M813.006,949.928l-49.673,13.193.194.733,49.673-13.2Z" transform="translate(-705.992 -332.091)" fill="#323230" fill-rule="evenodd"/>
    <path id="Path_49405" data-name="Path 49405" d="M635.1,1791.346l-2.043.542.516,1.954,2.046-.542Z" transform="translate(-577.757 -1160.316)" fill="#323230" fill-rule="evenodd"/>
    <path id="Path_49406" data-name="Path 49406" d="M674.855,1830.664a.632.632,0,1,1-.449.774.635.635,0,0,1,.449-.774Z" transform="translate(-618.438 -1198.996)" fill="#da3d44" stroke="#221f20" stroke-miterlimit="10" stroke-width="0.198" fill-rule="evenodd"/>
    <path id="Path_49407" data-name="Path 49407" d="M869.018,1892.617l2.154-.306-1.5,1.421,2.686-.382,1.507-1.421,2.935-.421.354,1.16.806-.115-.354-1.16,3.222-.459.169,1.186-11.806,1.683Z" transform="translate(-810.02 -1258.342)" fill="#323230" fill-rule="evenodd"/>
    <path id="Path_49408" data-name="Path 49408" d="M910.479,1709.882l6.058-5.727.51,1.676-3.881,3.668Z" transform="translate(-850.831 -1074.492)" fill="#323230" fill-rule="evenodd"/>
    <path id="Path_49409" data-name="Path 49409" d="M1282.172,1640.541l1.7,5.545-.806.115-1.667-5.452Z" transform="translate(-1215.93 -1011.875)" fill="#323230" fill-rule="evenodd"/>
    <path id="Path_49410" data-name="Path 49410" d="M590.274,1827.272l.567-.156.472.268,1.412.507.274,1.052-.752,1.848-.29.51-4,1.1-.51-.29-.124-.452,2.6-.714a.969.969,0,0,1,.88-1.727Z" transform="translate(-532.745 -1195.525)" fill="#323230" fill-rule="evenodd"/>
    <path id="Path_49411" data-name="Path 49411" d="M658.092,2013.5l-.15.159-.5.019a.281.281,0,0,0-.21.083.27.27,0,0,0,.013.379.26.26,0,0,0,.2.07h0l1.093.016,1.342-1.421.21-.006.717-.759-.006-.226-.593-.558-.226.006-.717.759.006.226-1.179,1.252Z" transform="translate(-601.481 -1376.775)" fill-rule="evenodd" fill="url(#linear-gradient)"/>
    <path id="Path_49412" data-name="Path 49412" d="M500.623,2178.927h2.109l.542.583v.507H498.51v-.542Z" transform="translate(-445.321 -1541.819)" fill="#323230" fill-rule="evenodd"/>
    <path id="Path_49413" data-name="Path 49413" d="M294.066,1961.162h0l-.539-.286-4.544,2.559-1.437.376,4.28-3.48,1-.481,1.867-.019a.817.817,0,1,1-.625,1.332Zm.924.019a.579.579,0,1,0-.774-.264.579.579,0,0,0,.774.264Z" transform="translate(-237.665 -1326.158)" fill-rule="evenodd" fill="url(#linear-gradient)"/>
    <path id="Path_49414" data-name="Path 49414" d="M137.634,2178.927h2.11l.542.583v.507h-4.764v-.542Z" transform="translate(-88.024 -1541.819)" fill="#323230" fill-rule="evenodd"/>
    <path id="Path_49415" data-name="Path 49415" d="M709.054,1977.081a.6.6,0,1,0-.6-.6.6.6,0,0,0,.6.6Z" transform="translate(-651.977 -1341.965)" fill="#fff100" fill-rule="evenodd"/>
    <path id="Path_49416" data-name="Path 49416" d="M723.058,1990.862a.373.373,0,1,0-.373-.373.371.371,0,0,0,.373.373Z" transform="translate(-665.981 -1355.969)" fill="#323230" fill-rule="evenodd"/>
    <path id="Path_49417" data-name="Path 49417" d="M816.774,2034.806a.4.4,0,1,0-.4-.4.4.4,0,0,0,.4.4Z" transform="translate(-758.206 -1399.181)" fill="#fff100" fill-rule="evenodd"/>
    <path id="Path_49418" data-name="Path 49418" d="M825.977,2043.862a.249.249,0,1,0-.249-.249.249.249,0,0,0,.249.249Z" transform="translate(-767.409 -1408.383)" fill="#323230" fill-rule="evenodd"/>
    <path id="Path_49419" data-name="Path 49419" d="M1258.84,1635.867a.995.995,0,1,1-1.252.331Z" transform="translate(-1192.324 -1007.274)" fill="#323230" fill-rule="evenodd"/>
    <path id="Path_49420" data-name="Path 49420" d="M887.485,1822.645l-3.021,1.469.137.283,3.021-1.469Z" transform="translate(-825.224 -1191.124)" fill="#a6a9ab" fill-rule="evenodd"/>
    <path id="Path_49421" data-name="Path 49421" d="M861.7,1867.061a.444.444,0,0,1,.437.029l1.118-.545.2.408-1.119.542a.442.442,0,1,1-.634-.433Z" transform="translate(-802.568 -1234.336)" fill-rule="evenodd" fill="url(#linear-gradient)"/>
    <path id="Path_49422" data-name="Path 49422" d="M869.978,1904.96a.311.311,0,0,1,.417.144.315.315,0,0,1-.147.417.311.311,0,0,1-.414-.147.307.307,0,0,1,.143-.414Z" transform="translate(-810.791 -1272.117)" fill="#323230" fill-rule="evenodd"/>
    <path id="Path_49423" data-name="Path 49423" d="M878.38,1913.424a.18.18,0,0,1,.239.083.179.179,0,1,1-.322.156.18.18,0,0,1,.083-.239Z" transform="translate(-819.136 -1280.463)" fill="#edbc00" fill-rule="evenodd"/>
    <path id="Path_49424" data-name="Path 49424" d="M1137.44,1690.335l-2.989,1.453.28.58,2.989-1.453Z" transform="translate(-1071.291 -1060.889)" fill="#edbc00" fill-rule="evenodd"/>
    <path id="Path_49425" data-name="Path 49425" d="M1074.834,1779.544l.8-.392.341.7-.8.389a.187.187,0,0,1-.252-.086l-.175-.36a.189.189,0,0,1,.086-.252Z" transform="translate(-1012.506 -1148.313)" fill="#323230" fill-rule="evenodd"/>
    <path id="Path_49426" data-name="Path 49426" d="M1092.856,1800.237a.264.264,0,1,1,.229.475.264.264,0,0,1-.229-.475Z" transform="translate(-1030.203 -1169.041)" fill="#edbc00" fill-rule="evenodd"/>
    <path id="Path_49427" data-name="Path 49427" d="M1093.982,1802.941l-.124,0-.124-.006-.067.108-.067.105.061.108.057.111.124,0,.124,0,.067-.105.067-.105-.061-.112Zm-.172.041a.176.176,0,0,0-.131.21.181.181,0,0,0,.054.089l.182-.29a.2.2,0,0,0-.105-.01Zm-.042.325a.176.176,0,0,0,.121.016.18.18,0,0,0,.131-.21.177.177,0,0,0-.07-.1Z" transform="translate(-1031.08 -1171.719)" fill="#323230" fill-rule="evenodd"/>
    <path id="Path_49428" data-name="Path 49428" d="M1324.081,1659.9l-.819.4.341.7.819-.4a.19.19,0,0,0,.086-.252l-.175-.36a.188.188,0,0,0-.252-.089Z" transform="translate(-1257.142 -1030.917)" fill="#bbbdbf" fill-rule="evenodd"/>
    <path id="Path_49429" data-name="Path 49429" d="M1318.1,1637.747l.15.306-.739.36-.146-.306.051-.15.535-.261Z" transform="translate(-1251.34 -1009.074)" fill="#bbbdbf" fill-rule="evenodd"/>
    <path id="Path_49430" data-name="Path 49430" d="M1347.383,1646.793a.123.123,0,0,1,.169.057.128.128,0,1,1-.169-.057Z" transform="translate(-1280.814 -1018.016)" fill="#323230" fill-rule="evenodd"/>
    <path id="Path_49431" data-name="Path 49431" d="M1325.433,1657.489a.127.127,0,0,1,.169.06.123.123,0,0,1-.057.169.128.128,0,0,1-.172-.057.132.132,0,0,1,.061-.172Z" transform="translate(-1259.208 -1028.545)" fill="#323230" fill-rule="evenodd"/>
    <path id="Path_49432" data-name="Path 49432" d="M1350.437,1649.992a.079.079,0,0,1,.1.035.08.08,0,0,1-.038.1.079.079,0,0,1-.105-.035.076.076,0,0,1,.038-.105Z" transform="translate(-1283.845 -1021.17)" fill="#edbc00" fill-rule="evenodd"/>
    <path id="Path_49433" data-name="Path 49433" d="M1328.487,1660.565a.079.079,0,1,1,.067.143.08.08,0,0,1-.105-.038.078.078,0,0,1,.038-.105Z" transform="translate(-1262.239 -1031.577)" fill="#edbc00" fill-rule="evenodd"/>
    <path id="Path_49434" data-name="Path 49434" d="M4119.805,660.107V675.82h-2.183v-2.753l1.014-12.96Z" transform="translate(-4007.689 -46.813)" fill="#323230" fill-rule="evenodd"/>
    <path id="Path_49435" data-name="Path 49435" d="M4076.814,1447.259h-.729l-1.753,1.345v1.813a.2.2,0,0,0,.2.2h2.281a.2.2,0,0,0,.2-.2v-2.957a.2.2,0,0,0-.2-.2Z" transform="translate(-3965.078 -821.624)" fill="#d0d2d4" fill-rule="evenodd"/>
    <path id="Path_49436" data-name="Path 49436" d="M4219.986,1521.913a.134.134,0,1,0-.134-.134.135.135,0,0,0,.134.134Z" transform="translate(-4108.315 -894.843)" fill="#212121" fill-rule="evenodd"/>
    <path id="Path_49437" data-name="Path 49437" d="M4219.986,1568.659a.134.134,0,1,0-.134-.134.135.135,0,0,0,.134.134Z" transform="translate(-4108.315 -940.856)" fill="#212121" fill-rule="evenodd"/>
    <path id="Path_49438" data-name="Path 49438" d="M4219.986,1474.968a.136.136,0,1,0-.134-.134.135.135,0,0,0,.134.134Z" transform="translate(-4108.315 -848.631)" fill="#212121" fill-rule="evenodd"/>
    <path id="Path_49439" data-name="Path 49439" d="M4219.986,1615.407a.136.136,0,1,0-.134-.137.136.136,0,0,0,.134.137Z" transform="translate(-4108.315 -986.868)" fill="#212121" fill-rule="evenodd"/>
    <path id="Path_49440" data-name="Path 49440" d="M4151.294,1631.867a.134.134,0,0,0,0-.268.134.134,0,1,0,0,.268Z" transform="translate(-4040.698 -1003.073)" fill="#212121" fill-rule="evenodd"/>
    <path id="Path_49441" data-name="Path 49441" d="M4082.8,1631.867a.134.134,0,1,0-.134-.134.135.135,0,0,0,.134.134Z" transform="translate(-3973.279 -1003.073)" fill="#212121" fill-rule="evenodd"/>
    <path id="Path_49442" data-name="Path 49442" d="M2980.39,1405.925l-2.345-.94-.006.009v0l-.392.972v0l0,.013,2.345.94.092-.229.217-.542Z" transform="translate(-2885.584 -780.012)" fill="#323230" fill-rule="evenodd"/>
    <path id="Path_49443" data-name="Path 49443" d="M2950.327,1390.766l.252.1a.1.1,0,0,1,.054.127l-.392.972a.1.1,0,0,1-.127.054l-.249-.1a.1.1,0,0,1-.057-.127l.089-.217h0l.217-.542h0l.086-.214a.1.1,0,0,1,.127-.057Z" transform="translate(-2858.178 -766.01)" fill="#edbc00" fill-rule="evenodd"/>
    <path id="Path_49444" data-name="Path 49444" d="M3133.688,1479.714l-.347-.14-.217.542.351.14a.449.449,0,0,1,.214-.542Z" transform="translate(-3038.626 -853.432)" fill="#a6a9ab" fill-rule="evenodd"/>
    <path id="Path_49445" data-name="Path 49445" d="M2707.13,1303.161l4.117,1.651-.217.542-3.9-1.565Z" transform="translate(-2619.312 -679.785)" fill="#323230" fill-rule="evenodd"/>
    <path id="Path_49446" data-name="Path 49446" d="M3073.525,1569.61h6.564l.765.765v.688h-8.094v-.688Z" transform="translate(-2979.209 -942.056)" fill="#d0d2d4" fill-rule="evenodd"/>
    <path id="Path_49447" data-name="Path 49447" d="M3154.121,1485.745h0a.453.453,0,0,1,.462-.778l2.814.975h0a.782.782,0,0,1,.108.048.867.867,0,1,1-.787,1.546.8.8,0,0,1-.124-.077Zm3.225.561a.514.514,0,1,0,.223.691.515.515,0,0,0-.223-.691Zm-2.858-1.15a.242.242,0,0,0-.325.105.241.241,0,1,0,.325-.105Z" transform="translate(-3059.101 -858.691)" fill="#323230" fill-rule="evenodd"/>
    <path id="Path_49448" data-name="Path 49448" d="M3167.777,1498.452a.241.241,0,1,0-.216.43.241.241,0,0,0,.216-.43Z" transform="translate(-3072.391 -871.988)" fill="#edbc00" fill-rule="evenodd"/>
    <path id="Path_49449" data-name="Path 49449" d="M3325.23,1569.98a.514.514,0,1,0,.223.691.515.515,0,0,0-.223-.691Zm-.1.2a.289.289,0,0,0-.389.127.29.29,0,1,0,.389-.127Z" transform="translate(-3226.986 -942.366)" fill="#edbc00" fill-rule="evenodd"/>
    <path id="Path_49450" data-name="Path 49450" d="M3339.216,1584.158a.29.29,0,0,0-.389.128.29.29,0,1,0,.389-.128Z" transform="translate(-3241.074 -956.346)" fill="#323230" fill-rule="evenodd"/>
    <path id="Path_49451" data-name="Path 49451" d="M2680.01,1252.352l-.74.185a.45.45,0,0,0-.392.545,3.239,3.239,0,0,0,.988,1.778.412.412,0,0,0,.427-.1l1.609-2.036a.408.408,0,0,0-.287-.57l-.076.019-.106.025-1.061.265a.374.374,0,0,1-.363-.105Z" transform="translate(-2591.497 -629.572)" fill="#d0d2d4" fill-rule="evenodd"/>
    <path id="Path_49452" data-name="Path 49452" d="M2719.529,1315.694a.563.563,0,1,0,.682.408.562.562,0,0,0-.682-.408Z" transform="translate(-2631.096 -692.104)" fill="#323230" stroke="#221f20" stroke-miterlimit="10" stroke-width="0.198" fill-rule="evenodd"/>
    <path id="Path_49453" data-name="Path 49453" d="M2734.566,1330.846a.325.325,0,1,0,.4.239.328.328,0,0,0-.4-.239Z" transform="translate(-2646.076 -707.027)" fill="#d0d2d4" stroke="#221f20" stroke-miterlimit="10" stroke-width="0.198" fill-rule="evenodd"/>
    <path id="Path_49454" data-name="Path 49454" d="M2689.411,1288.656a.166.166,0,1,0-.166-.166.165.165,0,0,0,.166.166Z" transform="translate(-2601.708 -665.181)" fill="#323230" fill-rule="evenodd"/>
    <path id="Path_49455" data-name="Path 49455" d="M2744.637,1289.767a.113.113,0,0,0,.112-.112.111.111,0,0,0-.112-.112.109.109,0,0,0-.112.112.111.111,0,0,0,.112.112Z" transform="translate(-2656.122 -666.381)" fill="#323230" fill-rule="evenodd"/>
    <path id="Path_49456" data-name="Path 49456" d="M2834.267,1267.614a.111.111,0,0,0,.111-.111.113.113,0,0,0-.111-.112.111.111,0,0,0-.112.112.109.109,0,0,0,.112.111Z" transform="translate(-2744.345 -644.576)" fill="#323230" fill-rule="evenodd"/>
    <path id="Path_49457" data-name="Path 49457" d="M2788.131,1278.8a.113.113,0,1,0,0-.226.113.113,0,0,0,0,.226Z" transform="translate(-2698.934 -655.579)" fill="#323230" fill-rule="evenodd"/>
    <path id="Path_49458" data-name="Path 49458" d="M3129.424,1585.991a.163.163,0,1,0-.163-.163.164.164,0,0,0,.163.163Z" transform="translate(-3034.824 -957.86)" fill="#323230" fill-rule="evenodd"/>
    <path id="Path_49459" data-name="Path 49459" d="M3186.332,1585.991a.163.163,0,1,0-.163-.163.163.163,0,0,0,.163.163Z" transform="translate(-3090.84 -957.86)" fill="#323230" fill-rule="evenodd"/>
    <path id="Path_49460" data-name="Path 49460" d="M3129.424,1630.3a.163.163,0,1,0-.163-.163.164.164,0,0,0,.163.163Z" transform="translate(-3034.824 -1001.473)" fill="#323230" fill-rule="evenodd"/>
    <path id="Path_49461" data-name="Path 49461" d="M3186.332,1630.3a.163.163,0,1,0-.163-.163.163.163,0,0,0,.163.163Z" transform="translate(-3090.84 -1001.473)" fill="#323230" fill-rule="evenodd"/>
    <path id="Path_49462" data-name="Path 49462" d="M3452.374,1585.991a.163.163,0,1,0-.163-.163.164.164,0,0,0,.163.163Z" transform="translate(-3352.711 -957.86)" fill="#323230" fill-rule="evenodd"/>
    <path id="Path_49463" data-name="Path 49463" d="M3509.281,1585.991a.163.163,0,1,0-.163-.163.163.163,0,0,0,.163.163Z" transform="translate(-3408.727 -957.86)" fill="#323230" fill-rule="evenodd"/>
    <path id="Path_49464" data-name="Path 49464" d="M3452.374,1630.3a.163.163,0,1,0-.163-.163.164.164,0,0,0,.163.163Z" transform="translate(-3352.711 -1001.473)" fill="#323230" fill-rule="evenodd"/>
    <path id="Path_49465" data-name="Path 49465" d="M3509.281,1630.3a.163.163,0,1,0-.163-.163.164.164,0,0,0,.163.163Z" transform="translate(-3408.727 -1001.473)" fill="#323230" fill-rule="evenodd"/>
    <path id="Path_49466" data-name="Path 49466" d="M310.3,2187.237a.4.4,0,1,0-.4-.4.4.4,0,0,0,.4.4Z" transform="translate(-259.67 -1549.221)" fill="#d0d2d4" fill-rule="evenodd"/>
    <path id="Path_49467" data-name="Path 49467" d="M319.5,2196.293a.249.249,0,0,0,0-.5.249.249,0,1,0,0,.5Z" transform="translate(-268.873 -1558.424)" fill="#323230" fill-rule="evenodd"/>
    <path id="Path_49468" data-name="Path 49468" d="M676.331,2190.285a.4.4,0,1,0-.392-.4.4.4,0,0,0,.392.4Z" transform="translate(-619.968 -1552.222)" fill="#d0d2d4" fill-rule="evenodd"/>
    <path id="Path_49469" data-name="Path 49469" d="M685.533,2199.341a.249.249,0,1,0-.245-.249.249.249,0,0,0,.245.249Z" transform="translate(-629.171 -1561.424)" fill="#323230" fill-rule="evenodd"/>
    <path id="Path_49470" data-name="Path 49470" d="M3793.737,868.8a.693.693,0,1,0-.691-.692.7.7,0,0,0,.691.692Z" transform="translate(-3688.202 -250.869)" fill="#323230" fill-rule="evenodd"/>
    <path id="Path_49471" data-name="Path 49471" d="M3804.941,880.02a.511.511,0,1,0-.513-.51.511.511,0,0,0,.513.51Z" transform="translate(-3699.406 -262.271)" fill="#f5811e" fill-rule="evenodd"/>
    <path id="Path_49472" data-name="Path 49472" d="M3100.686,1052.932a.691.691,0,1,0-.691-.692.695.695,0,0,0,.691.692Z" transform="translate(-3006.017 -432.118)" fill="#323230" fill-rule="evenodd"/>
    <path id="Path_49473" data-name="Path 49473" d="M3111.889,1063.953a.511.511,0,1,0-.513-.51.511.511,0,0,0,.513.51Z" transform="translate(-3017.22 -443.32)" fill="#f5811e" fill-rule="evenodd"/>
    <path id="Path_49474" data-name="Path 49474" d="M2430.4,1230.971a.691.691,0,1,0-.691-.691.691.691,0,0,0,.691.691Z" transform="translate(-2346.238 -607.365)" fill="#323230" fill-rule="evenodd"/>
    <path id="Path_49475" data-name="Path 49475" d="M2441.8,1242a.513.513,0,1,0-.51-.513.515.515,0,0,0,.51.513Z" transform="translate(-2357.64 -618.569)" fill="#f5811e" fill-rule="evenodd"/>
    <path id="Path_49476" data-name="Path 49476" d="M1703.811,1423.237a.691.691,0,1,0-.691-.691.691.691,0,0,0,.691.691Z" transform="translate(-1631.043 -796.617)" fill="#323230" fill-rule="evenodd"/>
    <path id="Path_49477" data-name="Path 49477" d="M1715.014,1434.261a.513.513,0,1,0-.513-.513.517.517,0,0,0,.513.513Z" transform="translate(-1642.246 -807.82)" fill="#f5811e" fill-rule="evenodd"/>
    <path id="Path_49478" data-name="Path 49478" d="M1082.3,1588.878a.691.691,0,1,0-.691-.691.693.693,0,0,0,.691.691Z" transform="translate(-1019.277 -959.661)" fill="#323230" fill-rule="evenodd"/>
    <path id="Path_49479" data-name="Path 49479" d="M1093.7,1599.9a.513.513,0,1,0-.51-.513.513.513,0,0,0,.51.513Z" transform="translate(-1030.68 -970.864)" fill="#f5811e" fill-rule="evenodd"/>
    <path id="Path_49480" data-name="Path 49480" d="M520.967,1734.229a.505.505,0,1,0-.507-.507.506.506,0,0,0,.507.507Z" transform="translate(-466.927 -1103.1)" fill="#323230" fill-rule="evenodd"/>
    <path id="Path_49481" data-name="Path 49481" d="M529.369,1742.3a.374.374,0,1,0-.373-.376.377.377,0,0,0,.373.376Z" transform="translate(-475.329 -1111.303)" fill="#f5811e" fill-rule="evenodd"/>
    <path id="Path_49482" data-name="Path 49482" d="M967.737,2029.434a.148.148,0,0,0,0-.3.148.148,0,0,0,0,.3Z" transform="translate(-907.046 -1394.379)" fill="#d0d2d4" fill-rule="evenodd"/>
    <path id="Path_49483" data-name="Path 49483" d="M1055.131,2016.83a.148.148,0,0,0,.147-.146.146.146,0,0,0-.147-.146.144.144,0,0,0-.147.146.146.146,0,0,0,.147.146Z" transform="translate(-993.07 -1381.976)" fill="#d0d2d4" fill-rule="evenodd"/>
    <path id="Path_49484" data-name="Path 49484" d="M1097.4,1974.356a.148.148,0,1,0-.147-.15.15.15,0,0,0,.147.15Z" transform="translate(-1034.681 -1340.165)" fill="#d0d2d4" fill-rule="evenodd"/>
    <path id="Path_49485" data-name="Path 49485" d="M1010.011,1987.161a.148.148,0,1,0-.147-.15.15.15,0,0,0,.147.15Z" transform="translate(-948.658 -1352.768)" fill="#d0d2d4" fill-rule="evenodd"/>
    <path id="Path_49486" data-name="Path 49486" d="M1385.8,1933.708a.148.148,0,1,0-.146-.15.149.149,0,0,0,.146.15Z" transform="translate(-1318.558 -1300.153)" fill="#d0d2d4" fill-rule="evenodd"/>
    <path id="Path_49487" data-name="Path 49487" d="M1397.184,1967.243a.148.148,0,1,0-.146-.147.149.149,0,0,0,.146.147Z" transform="translate(-1329.761 -1333.163)" fill="#d0d2d4" fill-rule="evenodd"/>
    <path id="Path_49488" data-name="Path 49488" d="M3087.6,1732.609h.694v.551h-1.105v-.089a.439.439,0,0,1,.411-.462Zm.694,1.325v2.04h-1.105v-2.04Zm0,2.977v.389h-.694a.43.43,0,0,1-.4-.389Zm.472-4.3H3091v.551h-2.23Zm2.23,1.325v2.04h-2.23v-2.04Zm0,2.977v.389h-2.23v-.389Zm.472-4.3h1.186a.358.358,0,0,1,.156.035v.516h-1.341Zm1.59,4.3a.429.429,0,0,1-.4.389h-1.186v-.389Zm-1.59-.937v-2.04h.472v2.04Z" transform="translate(-2993.413 -1102.5)" fill="#bbbdbf" fill-rule="evenodd"/>
    <path id="Path_49489" data-name="Path 49489" d="M3157.715,1732.609h.472v.551h-.472Zm.472,1.325v2.04h-.472v-2.04Zm0,2.977v.714h-.472v-.714Z" transform="translate(-3062.833 -1102.5)" fill="#212121" fill-rule="evenodd"/>
    <path id="Path_49490" data-name="Path 49490" d="M2924.191,1709.237h.488v.918h5.876v.774h-5.876v2.039h5.876v.937h-6.364Zm6.835.918h1.342v-.918h.274v4.668h-1.616v-.937h.472v-2.039h-.472Z" transform="translate(-2832.969 -1079.494)" fill="#212121" fill-rule="evenodd"/>
    <rect id="Rectangle_5631" data-name="Rectangle 5631" width="0.472" height="5.016" transform="translate(97.585 630.109)" fill="#212121"/>
    <path id="Path_49491" data-name="Path 49491" d="M3517.04,1749.478h-5.516a.375.375,0,0,0-.373.373v3.05a.375.375,0,0,0,.373.373h5.838a.375.375,0,0,0,.373-.373v-3.05a.375.375,0,0,0-.373-.373Zm-.657.481h-4.124a.278.278,0,0,0-.277.277v2.279a.278.278,0,0,0,.277.277h4.366a.277.277,0,0,0,.277-.277v-2.279a.277.277,0,0,0-.277-.277Z" transform="translate(-3410.727 -1119.104)" fill="#212121" fill-rule="evenodd"/>
    <path id="Path_49492" data-name="Path 49492" d="M3568.6,1780.168h-4.124a.277.277,0,0,0-.277.277v2.279a.278.278,0,0,0,.277.277h4.366a.278.278,0,0,0,.277-.277v-2.279a.278.278,0,0,0-.277-.277Z" transform="translate(-3462.941 -1149.313)" fill="#57585a" fill-rule="evenodd"/>
    <path id="Path_49493" data-name="Path 49493" d="M3579.66,1790.94h-3.824a.253.253,0,0,0-.258.245v2a.253.253,0,0,0,.258.245h4.047a.253.253,0,0,0,.258-.245v-2a.253.253,0,0,0-.258-.245Zm-2.616.79h-.9v.465h.9Zm2.53,0h-.9v.465h.9Z" transform="translate(-3474.144 -1159.916)" fill="#d0d2d4" fill-rule="evenodd"/>
    <path id="Path_49494" data-name="Path 49494" d="M3516.009,1713.095v-.567l-.242-.242h-.309l-.242.242v.567Z" transform="translate(-3414.728 -1082.495)" fill="#bbbdbf" fill-rule="evenodd"/>
    <path id="Path_49495" data-name="Path 49495" d="M3516.009,1765.738v.223l-.1.1h-.6l-.1-.1v-.223Z" transform="translate(-3414.728 -1135.109)" fill="#bbbdbf" fill-rule="evenodd"/>
    <path id="Path_49496" data-name="Path 49496" d="M3548.7,1771.1a.078.078,0,1,0-.08.08.078.078,0,0,0,.08-.08Z" transform="translate(-3447.537 -1140.31)" fill="#212121" fill-rule="evenodd"/>
    <path id="Path_49497" data-name="Path 49497" d="M3522.688,1771.1a.078.078,0,0,0-.156,0,.078.078,0,1,0,.156,0Z" transform="translate(-3421.929 -1140.31)" fill="#212121" fill-rule="evenodd"/>
    <path id="Path_49498" data-name="Path 49498" d="M3554.169,1745.887a.067.067,0,1,0-.067.07.068.068,0,0,0,.067-.07Z" transform="translate(-3452.939 -1115.503)" fill="#212121" fill-rule="evenodd"/>
    <path id="Path_49499" data-name="Path 49499" d="M3518.6,1745.887a.067.067,0,0,0-.134,0,.067.067,0,1,0,.134,0Z" transform="translate(-3417.929 -1115.503)" fill="#212121" fill-rule="evenodd"/>
    <path id="Path_49500" data-name="Path 49500" d="M3546.649,1720.891a.067.067,0,1,0-.133,0,.067.067,0,1,0,.133,0Z" transform="translate(-3445.537 -1090.897)" fill="#212121" fill-rule="evenodd"/>
    <path id="Path_49501" data-name="Path 49501" d="M3526.121,1720.891a.067.067,0,1,0-.134,0,.067.067,0,1,0,.134,0Z" transform="translate(-3425.331 -1090.897)" fill="#212121" fill-rule="evenodd"/>
    <path id="Path_49502" data-name="Path 49502" d="M3875.339,1713.095v-.567l-.242-.242h-.309l-.242.242v.567Z" transform="translate(-3768.424 -1082.495)" fill="#bbbdbf" fill-rule="evenodd"/>
    <path id="Path_49503" data-name="Path 49503" d="M3875.339,1765.738v.223l-.1.1h-.6l-.1-.1v-.223Z" transform="translate(-3768.424 -1135.109)" fill="#bbbdbf" fill-rule="evenodd"/>
    <path id="Path_49504" data-name="Path 49504" d="M3908.033,1771.1a.078.078,0,1,0-.08.08.078.078,0,0,0,.08-.08Z" transform="translate(-3801.232 -1140.31)" fill="#212121" fill-rule="evenodd"/>
    <path id="Path_49505" data-name="Path 49505" d="M3882.019,1771.1a.078.078,0,0,0-.156,0,.078.078,0,1,0,.156,0Z" transform="translate(-3775.626 -1140.31)" fill="#212121" fill-rule="evenodd"/>
    <path id="Path_49506" data-name="Path 49506" d="M3913.5,1745.887a.067.067,0,0,0-.134,0,.067.067,0,1,0,.134,0Z" transform="translate(-3806.635 -1115.503)" fill="#212121" fill-rule="evenodd"/>
    <path id="Path_49507" data-name="Path 49507" d="M3877.932,1745.887a.068.068,0,0,0-.067-.067.067.067,0,0,0-.066.067.068.068,0,0,0,.066.07.069.069,0,0,0,.067-.07Z" transform="translate(-3771.625 -1115.503)" fill="#212121" fill-rule="evenodd"/>
    <path id="Path_49508" data-name="Path 49508" d="M3905.979,1720.891a.067.067,0,1,0-.134,0,.067.067,0,1,0,.134,0Z" transform="translate(-3799.232 -1090.897)" fill="#212121" fill-rule="evenodd"/>
    <path id="Path_49509" data-name="Path 49509" d="M3885.451,1720.891a.067.067,0,1,0-.134,0,.067.067,0,1,0,.134,0Z" transform="translate(-3779.026 -1090.897)" fill="#212121" fill-rule="evenodd"/>
    <rect id="Rectangle_5632" data-name="Rectangle 5632" width="2.944" height="0.424" transform="translate(110.14 628.959)" fill="#323230"/>
    <path id="Path_49510" data-name="Path 49510" d="M4112.947,1655.529h.564v-.558h-.344a.22.22,0,0,0-.22.22Z" transform="translate(-4003.087 -1026.079)" fill="#323230" fill-rule="evenodd"/>
    <path id="Path_49511" data-name="Path 49511" d="M1871.252,1837.075v.749a.73.73,0,0,1-.01.124l.883.886v.1a4.831,4.831,0,0,0,.032.573h-.242l-1.08-1.083a.64.64,0,0,1-.217.038h0a.639.639,0,0,1-.637-.637v-.749Zm-.625.526a.292.292,0,1,0,.29.293.292.292,0,0,0-.29-.293Zm0-.115a.406.406,0,1,0,.4.408.407.407,0,0,0-.4-.408Z" transform="translate(-1795.288 -1205.328)" fill="#323230" fill-rule="evenodd"/>
    <path id="Path_49512" data-name="Path 49512" d="M1869.98,1771.995h1.272v-.921l-.255-.255h-.762l-.255.255Z" transform="translate(-1795.288 -1140.11)" fill="#323230" fill-rule="evenodd"/>
    <path id="Path_49513" data-name="Path 49513" d="M1880.115,1788.444a.175.175,0,0,0,.178-.175.177.177,0,0,0-.354,0,.175.175,0,0,0,.176.175Z" transform="translate(-1805.091 -1157.115)" fill="#e5e6e7" fill-rule="evenodd"/>
    <path id="Path_49514" data-name="Path 49514" d="M1918.73,1788.444a.174.174,0,0,0,.175-.175.175.175,0,0,0-.351,0,.175.175,0,0,0,.175.175Z" transform="translate(-1843.101 -1157.115)" fill="#e5e6e7" fill-rule="evenodd"/>
    <path id="Path_49515" data-name="Path 49515" d="M2589.545,1837.075v.749a.526.526,0,0,0,.013.124l-.886.886c0,.032,0,.067,0,.1a4.881,4.881,0,0,1-.035.573h.242l1.083-1.083a.617.617,0,0,0,.217.038h0a.639.639,0,0,0,.634-.637v-.749Zm.628.526a.292.292,0,1,1-.293.293.292.292,0,0,1,.293-.293Zm0-.115a.406.406,0,1,1-.408.408.406.406,0,0,1,.408-.408Z" transform="translate(-2502.68 -1205.328)" fill="#323230" fill-rule="evenodd"/>
    <path id="Path_49516" data-name="Path 49516" d="M2647.635,1771.995h-1.275v-.921l.258-.255h.761l.255.255Z" transform="translate(-2559.495 -1140.11)" fill="#323230" fill-rule="evenodd"/>
    <path id="Path_49517" data-name="Path 49517" d="M2695.313,1788.444a.174.174,0,0,0,.175-.175.177.177,0,0,0-.175-.175.175.175,0,0,0-.176.175.173.173,0,0,0,.176.175Z" transform="translate(-2607.508 -1157.115)" fill="#e5e6e7" fill-rule="evenodd"/>
    <path id="Path_49518" data-name="Path 49518" d="M2656.7,1788.444a.175.175,0,0,0,.178-.175.177.177,0,0,0-.354,0,.175.175,0,0,0,.176.175Z" transform="translate(-2569.498 -1157.115)" fill="#e5e6e7" fill-rule="evenodd"/>
    <path id="Path_49519" data-name="Path 49519" d="M1794.179,1666.029h-.172v2.164h.172Zm0-3.037v6.074h.408l.108-6.074h.146v-.7h-.876v.7Z" transform="translate(-1720.468 -1033.281)" fill="#323230" fill-rule="evenodd"/>
    <path id="Path_49520" data-name="Path 49520" d="M1764.474,1969.385h.143v1.058h-.143a.383.383,0,0,1-.382-.382v-.293a.383.383,0,0,1,.382-.382Z" transform="translate(-1691.059 -1335.563)" fill="#f5811e" fill-rule="evenodd"/>
    <path id="Path_49521" data-name="Path 49521" d="M2802.406,1713.214a.162.162,0,0,0,.16-.159.16.16,0,0,0-.16-.159.158.158,0,0,0-.159.159.16.16,0,0,0,.159.159Z" transform="translate(-2712.937 -1083.095)" fill="#e5e6e7" fill-rule="evenodd"/>
    <path id="Path_49522" data-name="Path 49522" d="M2835.941,1713.214a.16.16,0,0,0,.159-.159.158.158,0,0,0-.159-.159.16.16,0,0,0-.16.159.162.162,0,0,0,.16.159Z" transform="translate(-2745.946 -1083.095)" fill="#e5e6e7" fill-rule="evenodd"/>
    <path id="Path_49523" data-name="Path 49523" d="M2802.406,1769.1a.162.162,0,0,0,.16-.159.16.16,0,0,0-.16-.159.158.158,0,0,0-.159.159.16.16,0,0,0,.159.159Z" transform="translate(-2712.937 -1138.109)" fill="#e5e6e7" fill-rule="evenodd"/>
    <path id="Path_49524" data-name="Path 49524" d="M2835.941,1769.1a.159.159,0,0,0,.159-.159.158.158,0,0,0-.159-.159.16.16,0,0,0-.16.159.162.162,0,0,0,.16.159Z" transform="translate(-2745.946 -1138.109)" fill="#e5e6e7" fill-rule="evenodd"/>
    <path id="Path_49525" data-name="Path 49525" d="M1680.922,1713.214a.162.162,0,0,0,.159-.159.16.16,0,0,0-.159-.159.158.158,0,0,0-.159.159.16.16,0,0,0,.159.159Z" transform="translate(-1609.038 -1083.095)" fill="#e5e6e7" fill-rule="evenodd"/>
    <path id="Path_49526" data-name="Path 49526" d="M1714.457,1713.214a.162.162,0,0,0,.159-.159.16.16,0,0,0-.159-.159.158.158,0,0,0-.159.159.16.16,0,0,0,.159.159Z" transform="translate(-1642.047 -1083.095)" fill="#e5e6e7" fill-rule="evenodd"/>
    <path id="Path_49527" data-name="Path 49527" d="M1680.922,1769.1a.162.162,0,0,0,.159-.159.16.16,0,0,0-.159-.159.158.158,0,0,0-.159.159.16.16,0,0,0,.159.159Z" transform="translate(-1609.038 -1138.109)" fill="#e5e6e7" fill-rule="evenodd"/>
    <path id="Path_49528" data-name="Path 49528" d="M1714.457,1769.1a.162.162,0,0,0,.159-.159.16.16,0,0,0-.159-.159.158.158,0,0,0-.159.159.16.16,0,0,0,.159.159Z" transform="translate(-1642.047 -1138.109)" fill="#e5e6e7" fill-rule="evenodd"/>
    <path id="Path_49529" data-name="Path 49529" d="M4046.894,672.066a1.8,1.8,0,0,1,1.8-1.8h.013v.143h-.013a1.653,1.653,0,0,0-.634,3.18v.156a1.8,1.8,0,0,1-1.163-1.683Z" transform="translate(-3938.07 -56.816)" fill="#323230" fill-rule="evenodd"/>
    <path id="Path_49530" data-name="Path 49530" d="M4065.592,690.471a1.5,1.5,0,0,1,1.5-1.5h.013v3h-.013a1.5,1.5,0,0,1-1.5-1.5Z" transform="translate(-3956.475 -75.221)" fill="#323230" fill-rule="evenodd"/>
    <path id="Path_49531" data-name="Path 49531" d="M4098.924,660.066v-1.118l.883-1.89h1.619v3.008Z" transform="translate(-3989.284 -43.812)" fill-rule="evenodd" fill="url(#linear-gradient)"/>
    <path id="Path_49532" data-name="Path 49532" d="M4113.15,744.4a.759.759,0,1,1,.758.758.758.758,0,0,1-.758-.758Z" transform="translate(-4003.287 -129.036)" fill="#323230" fill-rule="evenodd"/>
    <path id="Path_49533" data-name="Path 49533" d="M4136.654,771.483l-.131.185.653.459.131-.185Z" transform="translate(-4026.294 -156.443)" fill="#d0d2d4" fill-rule="evenodd"/>
    <path id="Path_49534" data-name="Path 49534" d="M4073.106,848.918h2.5v.277l-.424.822h0a.583.583,0,0,1-.229.293.462.462,0,0,1-.468.083.567.567,0,0,1-.233-.115l-.825-.586-.619-.214a.153.153,0,0,1-.111-.185Zm1.38,1.475a.863.863,0,0,1-.233-.115Z" transform="translate(-3963.466 -232.664)" fill-rule="evenodd" fill="url(#linear-gradient)"/>
    <path id="Path_49535" data-name="Path 49535" d="M4169.448,880.228a.416.416,0,1,1,.414.417.417.417,0,0,1-.414-.417Z" transform="translate(-4058.702 -263.072)" fill="#323230" fill-rule="evenodd"/>
  </g>
</svg>
