<svg id="Group_15813" data-name="Group 15813" xmlns="http://www.w3.org/2000/svg" xmlns:xlink="http://www.w3.org/1999/xlink" width="121.955" height="33.251" viewBox="0 0 121.955 33.251">
  <defs>
    <linearGradient id="linear-gradient" x1="1" y1="0.5" x2="0" y2="0.5" gradientUnits="objectBoundingBox">
      <stop offset="0" stop-color="#fff"/>
      <stop offset="0" stop-color="#827cbc"/>
      <stop offset="1" stop-color="#4762af"/>
      <stop offset="1"/>
    </linearGradient>
    <linearGradient id="linear-gradient-3" x1="1" y1="0.5" x2="0" y2="0.5" gradientUnits="objectBoundingBox">
      <stop offset="0" stop-color="#fff"/>
      <stop offset="0" stop-color="#3b393c"/>
      <stop offset="0.277" stop-color="#4b4b4d"/>
      <stop offset="0.597" stop-color="#4a4f5e"/>
      <stop offset="0.796" stop-color="#7e8087"/>
      <stop offset="1" stop-color="#95969a"/>
      <stop offset="1" stop-color="#4762af"/>
      <stop offset="1"/>
    </linearGradient>
    <linearGradient id="linear-gradient-6" x1="1" y1="0.5" x2="0" y2="0.5" xlink:href="#linear-gradient"/>
  </defs>
  <path id="Path_5201" data-name="Path 5201" d="M197.883,278.479l6.163-.2c.007.006.013.013.021.019a.906.906,0,0,0,1.013.186l2.237-3.264,11.749-.389v2.4h-.907v6.408l-10.932-.068v-2.862h-2.642v2.846l-5.752-.036V283H193.04v.482l-3.655-.023-.482-1.727-7.54.167v-1.459l3.872-.024,1.362-.934,11.306-.374Z" transform="translate(-137.563 -263.721)" fill="none"/>
  <path id="Path_5202" data-name="Path 5202" d="M400.081,247.881c.516-.025,1.033-.043,1.543-.059.683-.022,1.389-.046,2.073-.087.239-.015.489-.037.738-.058a4.377,4.377,0,0,0-1.108,1.41l-1.93.067A4.384,4.384,0,0,0,400.081,247.881Z" transform="translate(-390.626 -244.973)" fill="none"/>
  <path id="Path_5203" data-name="Path 5203" d="M377.866,250.818l.02.007-.51.018c-.047-.081-.093-.162-.146-.24C377.443,250.68,377.656,250.75,377.866,250.818Z" transform="translate(-357.005 -246.993)" fill="none"/>
  <path id="Path_5204" data-name="Path 5204" d="M171.854,274.508l-.149,1.568v-1.563Z" transform="translate(-87.361 -263.5)" fill="none"/>
  <path id="Path_5205" data-name="Path 5205" d="M245.657,277.9a.741.741,0,0,1,.2.184l-5.911.195-.016-.478-9,.3.034-.886-.113-.163,13.774-.456A3.235,3.235,0,0,0,245.657,277.9Z" transform="translate(-179.678 -264.942)" fill="none"/>
  <path id="Path_5206" data-name="Path 5206" d="M403.525,309.035l.171-2.79h.319l.512-4.539-.551-.021.068-1.107.972-.025v8.483Z" transform="translate(-392.273 -281.484)" fill="#505152"/>
  <path id="Path_5207" data-name="Path 5207" d="M371.352,302.056l3.612,0-.006.02Z" transform="translate(-352.263 -282.522)" fill="#505152"/>
  <path id="Path_5208" data-name="Path 5208" d="M372.732,302.054l-1.508,4.89.825.343h2.167v0c0,.213.352.539.618.758,0,.044-.005.084-.005.128s0,.08.005.123a2.993,2.993,0,0,0-.522.526H365.8v-8.551l1.022-.026.013,6,1.353-.029,1.315-5.408-.251,1.247Z" transform="translate(-350.415 -281.273)" fill="#505152"/>
  <path id="Path_5209" data-name="Path 5209" d="M72.7,277.309c.7.9,1.38.611,1.38.611l.237-.245-1.245,2.4-.272.156h-.018l-.113.168s.722,1.425.366,2.089a1.83,1.83,0,0,1-1.791.965,1.421,1.421,0,0,1-1.039-1.216,2.1,2.1,0,0,1,.193-.9,3.908,3.908,0,0,0,.126-.477s.333.065.315.285c0,0,.13.764.18.954a.718.718,0,0,0,.773.274c.206-.118.325-.339.222-.86a7.824,7.824,0,0,1-.168-1.308.924.924,0,0,1,.054-.266,1.644,1.644,0,0,1-.221-.528s.4-1.6.5-2.123a1.365,1.365,0,0,1,.342-.808A.967.967,0,0,0,72.7,277.309Z" transform="translate(41.592 -264.858)" fill="#5f6061"/>
  <path id="Path_5210" data-name="Path 5210" d="M93.326,272.62l-1.386-.678,1.029-.034Z" transform="translate(15.855 -261.704)" fill="url(#linear-gradient)"/>
  <path id="Path_5211" data-name="Path 5211" d="M108.1,239.935l.7-.993.478.952Z" transform="translate(-5.099 -238.942)" fill="url(#linear-gradient)"/>
  <path id="Path_5212" data-name="Path 5212" d="M81.648,243.191a4.742,4.742,0,0,0-.978,5.9,6.565,6.565,0,0,0,.654,1.99l-2.4.083-2.68-7.814Z" transform="translate(32.389 -241.876)" fill="#505152"/>
  <path id="Path_5213" data-name="Path 5213" d="M373.437,247.157c-.21-.068-.423-.138-.636-.216a4.375,4.375,0,0,0-2.087-1.641,9.657,9.657,0,0,1,1.882.658,9.227,9.227,0,0,0,1.1.407l.193.063a4.761,4.761,0,0,1,.558.247c.3.148.8.393.986.318l.042.1-2.017.07Z" transform="translate(-352.576 -243.332)" fill="#231f20"/>
  <path id="Path_5214" data-name="Path 5214" d="M398.737,245.565c-.683.042-1.39.065-2.073.087-.511.017-1.027.034-1.543.059a4.337,4.337,0,0,0-2.164-.662c1.211-.146,2.462-.189,3.68-.229.678-.022,1.378-.045,2.05-.086.334-.02.678-.05,1.029-.081.649-.057,1.309-.112,1.964-.118a4.345,4.345,0,0,0-2.2.972C399.226,245.528,398.977,245.551,398.737,245.565Z" transform="translate(-385.666 -242.804)" fill="#231f20"/>
  <path id="Path_5215" data-name="Path 5215" d="M435.114,263.719l1-.368c.024.109.051.217.083.323Z" transform="translate(-433.236 -255.796)" fill="#d49800"/>
  <path id="Path_5216" data-name="Path 5216" d="M229.892,281.609l5.911-.195c.323.437-.184,1.016.3,1.409l-6.164.2Z" transform="translate(-169.619 -268.269)" fill="url(#linear-gradient-3)"/>
  <path id="Path_5217" data-name="Path 5217" d="M260.977,280.977l.047,1.418.021.627-11.306.374,2.183-1.5.042-1.1,9-.3Zm-1.34-.081.045,1.827.837-.041-.045-1.827Z" transform="translate(-200.704 -267.636)" fill="url(#linear-gradient)"/>
  <path id="Path_5218" data-name="Path 5218" d="M99.618,268.831l.478.952-1.029.034-5.32.176-.653-.947Z" transform="translate(8.726 -259.58)" fill="url(#linear-gradient)"/>
  <path id="Path_5219" data-name="Path 5219" d="M403.662,252.3l1.93-.067a4.331,4.331,0,0,0-.351.988l-1.1.036A4.349,4.349,0,0,0,403.662,252.3Z" transform="translate(-392.892 -248.119)" fill="url(#linear-gradient-6)"/>
  <path id="Path_5220" data-name="Path 5220" d="M171.406,271.378l.242-.008-.092.971-.149,0Z" transform="translate(-87.063 -261.333)" fill="url(#linear-gradient)"/>
  <path id="Path_5221" data-name="Path 5221" d="M166.1,243.159l-22.306.726c-.551-.327-1.138-.627-1.138-.627a3.87,3.87,0,0,1,.191.658l-2.02.066.141,7.285,1.884-.063v.968l-11.749.389-2.236,3.264a.906.906,0,0,1-1.013-.186c-.008-.006-.014-.013-.021-.019-.483-.393.024-.973-.3-1.41a.741.741,0,0,0-.2-.184,3.236,3.236,0,0,1-1.024-1.306l-13.774.456-.653-.947,10.517-.348-.141-7.3-15.3.5-.7-1.018,58.1-2.008,1.177-.041Zm-37.647,12.367a.6.6,0,1,0-.6-.6A.6.6,0,0,0,128.456,255.526Zm-5.181-3.673,16.82-.556-.142-7.286-16.819.548Z" transform="translate(-61.353 -241.067)" fill="url(#linear-gradient)"/>
  <path id="Path_5222" data-name="Path 5222" d="M207.245,255.74l-16.819.556L190.284,249l16.819-.548Z" transform="translate(-128.503 -245.51)" fill="url(#linear-gradient)"/>
  <path id="Path_5223" data-name="Path 5223" d="M179.583,249.028s1.033.24,1.138,1.059a16.779,16.779,0,0,1,.048,2.032h-1.163v3.319l-1.884.063-.141-7.285,2.02-.066a1.207,1.207,0,0,1,.019.191C179.62,248.541,179.6,248.787,179.583,249.028Z" transform="translate(-98.103 -245.299)" fill="url(#linear-gradient)"/>
  <path id="Path_5224" data-name="Path 5224" d="M365.146,254.578l1.1-.036a4.364,4.364,0,1,0,8.445-.275l3.7-.12.131,7.314-13.083.433-.193-4.694a4.277,4.277,0,0,0-.1-2.622Z" transform="translate(-353.899 -249.441)" fill="url(#linear-gradient)"/>
  <path id="Path_5225" data-name="Path 5225" d="M96.538,251.191v-.761h-.532v-2.568c-.3-.6-.158-.484-.515-.842a5.055,5.055,0,0,0-.851-.59l22.306-.726,3.594,7.158-6.523.216-3.639-5.276h2.3c.069.223.143.459.219.691h0l.066.2c.1.287.192.552.278.759l.018.043.035.082c.019.043.038.083.055.117.026.051.059.109.1.17l.03.048c.029.047.059.1.093.147l.043.065.1.15.051.075.111.158.053.074.138.19.032.044c.534.725,1.128,1.458,1.128,1.458l.794-.409L113.15,246.3l-.793.409s.082.291.2.693H110.1l-.744-1.079-12.112,2.412-.467,4.91-.242.008Z" transform="translate(-12.194 -243.61)" fill="url(#linear-gradient)"/>
  <path id="Path_5226" data-name="Path 5226" d="M336.121,257.145l-1.426,2.941-.149-6.666,8.722-.284-.382,4.008Z" transform="translate(-309.177 -248.743)" fill="url(#linear-gradient)"/>
  <path id="Path_5227" data-name="Path 5227" d="M262.909,257.611l-10.517.348-4.928-7.145,15.3-.5Z" transform="translate(-201.864 -246.795)" fill="url(#linear-gradient)"/>
  <path id="Path_5228" data-name="Path 5228" d="M331.141,294.6l-11.457.254.063-1.721,11.394-.072Z" transform="translate(-292.449 -276.311)" fill="url(#linear-gradient)"/>
  <path id="Path_5229" data-name="Path 5229" d="M303.181,294.43v-1.47l.674,0v1.459Z" transform="translate(-260.055 -276.238)" fill="url(#linear-gradient)"/>
  <path id="Path_5230" data-name="Path 5230" d="M305.358,294.538V293l4.434-.028v1.47Z" transform="translate(-266.665 -276.248)" fill="url(#linear-gradient)"/>
  <path id="Path_5231" data-name="Path 5231" d="M281.64,255.007v-.041l1.426-2.941h6.766l.382-4.008.026-.274,4.536-.9,5.622-1.119.623.9.7,1.018,4.928,7.145.653.947.113.163-.034.886-.042,1.1-2.183,1.5-1.362.934-3.872.024-.674,0-4.434.028-11.394.072-4.45.028,1.873-3.865.247-.51Zm13.9-1.469v-5.445l-1.854.3v5.145h1.854Zm3.619-6.1-1.92.4h0l-.951.2v5.5h5.922S299.155,247.735,299.155,247.436Zm3.267,12.005,1.5-1.732H283.438l-1.5,1.732Z" transform="translate(-256.121 -243.623)" fill="url(#linear-gradient)"/>
  <path id="Path_5232" data-name="Path 5232" d="M295.934,256.406v-4.692l-.141-.053,1.92-.4c0,.3,3.051,6.1,3.051,6.1s-.2-.384-.5-.958Z" transform="translate(-254.679 -247.449)" fill="#f2f2f2"/>
  <path id="Path_5233" data-name="Path 5233" d="M317.347,253.686l1.854-.3-.942.3v5.145h-.912Z" transform="translate(-279.786 -248.915)" fill="#d6d6d6"/>
  <path id="Path_5234" data-name="Path 5234" d="M318.289,253.386v5.445h-.942v-5.145Z" transform="translate(-278.874 -248.915)" fill="#f2f2f2"/>
  <path id="Path_5235" data-name="Path 5235" d="M295.794,252.75l.951-.2h0l.141.053V257.3h4.329c.3.574.5.958.5.958h-5.922Z" transform="translate(-255.63 -248.34)" fill="#d4d4d4"/>
  <path id="Path_5236" data-name="Path 5236" d="M197.9,306.086a3.261,3.261,0,0,0-.337.556c-.084.016-.163.042-.245.062-.275-.214-.673-.482-.88-.435a4.052,4.052,0,0,0-.493.216,4.317,4.317,0,0,0-.478.251c-.166.133-.2.612-.207.959-.067.052-.135.1-.2.154-.34-.074-.811-.143-.976-.011a3.991,3.991,0,0,0-.35.409,4.056,4.056,0,0,0-.321.434c-.093.19.082.635.227.949-.037.076-.073.151-.108.226-.339.083-.794.226-.887.417a4.529,4.529,0,0,0-.139.519,4.3,4.3,0,0,0-.1.53c0,.213.351.539.619.758,0,.044-.006.084-.006.128s.005.08.006.123a2.953,2.953,0,0,0-.522.526h-4.341v-6.77Z" transform="translate(-118.498 -285.304)" fill="#505152"/>
  <path id="Path_5237" data-name="Path 5237" d="M157.948,310.614c0-.042.006-.083.006-.123s0-.084-.006-.128c.27-.219.621-.545.621-.758a4.61,4.61,0,0,0-.1-.53,4.688,4.688,0,0,0-.139-.519c-.093-.19-.548-.333-.887-.417-.035-.075-.071-.15-.11-.226.148-.314.323-.758.231-.95a4.488,4.488,0,0,0-.32-.433,4.374,4.374,0,0,0-.353-.409c-.164-.131-.634-.063-.974.011-.064-.055-.133-.1-.2-.154-.006-.347-.041-.827-.207-.959a8.117,8.117,0,0,0-.972-.467c-.207-.047-.6.222-.879.435-.082-.02-.163-.046-.246-.062a3.885,3.885,0,0,0-.23-.41,1.108,1.108,0,0,0-.282-.317h4.148v-.6l.139.432h.84l3.805-.034-.122.377v-.007l-1.206.111-1.852,4.954,2.724.219.018-.279h.412a1.45,1.45,0,0,0-.034.23c0,.213.35.539.618.758,0,.044-.006.084-.006.128s0,.08.006.123a2.946,2.946,0,0,0-.523.526h-3.4A2.911,2.911,0,0,0,157.948,310.614Z" transform="translate(-72.078 -283.589)" fill="#505152"/>
  <path id="Path_5238" data-name="Path 5238" d="M265.452,312.33c0-.042.006-.083.006-.123s0-.084-.006-.128c.27-.219.618-.545.618-.758v0h3.319l-1.461-5.233h3.364v6.77h-5.318A2.887,2.887,0,0,0,265.452,312.33Z" transform="translate(-215.815 -285.304)" fill="#505152"/>
  <path id="Path_5239" data-name="Path 5239" d="M321,323c0,.213.35.539.618.758,0,.044,0,.084,0,.128s0,.08,0,.123a4.3,4.3,0,0,0-.336.3l-.313-1.316H321Z" transform="translate(-283.325 -296.979)" fill="#505152"/>
  <rect id="Rectangle_2422" data-name="Rectangle 2422" width="5.752" height="6.77" transform="translate(61.27 20.782)" fill="#505152"/>
  <path id="Path_5240" data-name="Path 5240" d="M269.107,303.756h-3.364l-.292-1.045,3.655.023Z" transform="translate(-213.63 -282.974)" fill="#353536"/>
  <path id="Path_5241" data-name="Path 5241" d="M233.9,303.886h-5.752V302.9l5.752.036Z" transform="translate(-166.881 -283.105)" fill="#353536"/>
  <path id="Path_5242" data-name="Path 5242" d="M195.225,303.778c-.112-.005-.265-.006-.4,0a3.847,3.847,0,0,0-.54.019.551.551,0,0,0-.261.21h-9.735v-.934l10.932.068Z" transform="translate(-114.629 -283.221)" fill="#353536"/>
  <path id="Path_5243" data-name="Path 5243" d="M374.851,303.3h-3.479l.251-1.247,3.606.022Z" transform="translate(-352.535 -282.522)" fill="#353536"/>
  <path id="Path_5244" data-name="Path 5244" d="M101.4,263.114l-11.323.6-.545,1.693-3.805.034h-.84l-.139-.432V258.5h-.627v-.932l.149-1.568.093-.971.467-4.91,12.112-2.412.744,1.079H95.517v.4h2.444l3.639,5.276.653.946,3.059,4.435,2.13-.2.19.4-3.613.418,2.021,6.129,4.125.539-.834-2.34.625.076,1.422,2.952h-8.607ZM86.281,250.9v6.134h3v-6.491Zm8.835-1.142-3.1.477h0l-1.534.237v6.562h9.558s-.322-.452-.8-1.13C97.845,253.927,95.115,250.023,95.115,249.758Z" transform="translate(0.22 -244.998)" fill="url(#linear-gradient)"/>
  <path id="Path_5245" data-name="Path 5245" d="M87.173,321.628c0-.212-.349-.539-.617-.759,0-.042.005-.083.005-.123s0-.084-.005-.128c.269-.219.62-.545.62-.758a2.109,2.109,0,0,0-.041-.247h.735l.888.019-.284-.977h1.113l6.159-.2L94.636,321.1,87.063,322.2l.011-.047A4.455,4.455,0,0,0,87.173,321.628Z" transform="translate(15.101 -293.843)" fill="url(#linear-gradient)"/>
  <path id="Path_5246" data-name="Path 5246" d="M157.6,310.782l-.125.311h.362l-.018.279-2.724-.22,1.852-4.954,1.207-.111v.007l-1.5,4.669Z" transform="translate(-68.52 -285.304)" fill="#3f3f41"/>
  <path id="Path_5247" data-name="Path 5247" d="M112.1,307.944l2.2-5.468,9.377-.5,2.324,6.26h-.743c-.018-.091-.04-.192-.061-.283a4.886,4.886,0,0,0-.138-.519c-.094-.19-.548-.333-.888-.417-.034-.075-.07-.15-.108-.226.147-.314.321-.758.228-.95a4.609,4.609,0,0,0-.319-.433,4.536,4.536,0,0,0-.353-.409c-.165-.131-.635-.063-.976.011-.064-.055-.133-.1-.2-.154-.006-.347-.041-.827-.208-.959a3.936,3.936,0,0,0-.477-.249,4.155,4.155,0,0,0-.493-.218c-.207-.047-.605.222-.878.435-.084-.02-.163-.046-.247-.062a3.629,3.629,0,0,0-.231-.41c-.118-.18-.248-.33-.366-.356a.3.3,0,0,0-.054-.008c-.107-.01-.314-.012-.484-.01a3.849,3.849,0,0,0-.54.019c-.2.046-.444.456-.6.766-.084.016-.164.042-.245.062-.274-.214-.672-.482-.879-.435a3.993,3.993,0,0,0-.493.216,4.323,4.323,0,0,0-.478.251c-.166.133-.2.612-.206.959-.067.052-.134.1-.2.154-.34-.074-.812-.143-.976-.011a4.363,4.363,0,0,0-.351.409,4.131,4.131,0,0,0-.321.434c-.092.19.082.634.228.949-.037.076-.073.151-.108.226-.338.083-.795.226-.887.417a4.435,4.435,0,0,0-.139.519c-.022.1-.046.2-.065.3h-.774Z" transform="translate(-23.021 -282.466)" fill="#353536"/>
  <path id="Path_5248" data-name="Path 5248" d="M114.868,311.819c0-.043-.006-.084-.006-.123s0-.084.006-.128c-.268-.219-.621-.545-.618-.758a1.451,1.451,0,0,1,.034-.23c.019-.1.043-.2.065-.3a4.436,4.436,0,0,1,.139-.519c.092-.19.549-.333.887-.417.035-.075.071-.15.108-.226-.146-.314-.321-.758-.228-.949a4.127,4.127,0,0,1,.321-.434,4.357,4.357,0,0,1,.351-.409c.165-.131.636-.063.976.011.064-.055.131-.1.2-.154,0-.347.041-.826.206-.959a4.32,4.32,0,0,1,.478-.251,3.994,3.994,0,0,1,.493-.216c.206-.047.6.222.879.435.081-.02.161-.046.245-.062.155-.31.394-.72.6-.766a3.853,3.853,0,0,1,.54-.019c.17,0,.377,0,.484.01a.3.3,0,0,1,.054.008c.118.026.248.176.366.356a3.634,3.634,0,0,1,.231.41c.084.016.164.042.247.062.273-.214.671-.482.878-.435a4.147,4.147,0,0,1,.493.218,3.931,3.931,0,0,1,.477.249c.167.132.2.612.208.959.065.052.133.1.2.154.34-.074.811-.143.976-.011a4.527,4.527,0,0,1,.353.409,4.605,4.605,0,0,1,.319.433c.092.192-.081.636-.228.95.039.076.074.151.108.226.34.084.794.226.888.417a4.88,4.88,0,0,1,.138.519c.021.092.043.192.061.283a2.107,2.107,0,0,1,.041.247c0,.213-.351.539-.62.758,0,.044.005.084.005.128s0,.081-.005.123c.268.22.617.548.617.76a4.455,4.455,0,0,1-.1.529l-.011.047a4.04,4.04,0,0,1-.127.475c-.092.19-.548.333-.888.412-.034.079-.07.154-.108.227.147.316.321.761.228.952a4.535,4.535,0,0,1-.321.435,4.222,4.222,0,0,1-.351.408c-.165.131-.635.063-.976-.011-.064.053-.133.1-.2.154,0,.349-.041.826-.207.957a4.335,4.335,0,0,1-.478.253,4.466,4.466,0,0,1-.493.215c-.207.048-.605-.222-.878-.436-.084.021-.163.046-.247.063-.154.31-.393.72-.6.766a7.009,7.009,0,0,1-1.077,0c-.2-.046-.444-.455-.6-.766-.084-.016-.164-.042-.245-.063-.277.215-.672.483-.879.436a4.557,4.557,0,0,1-.493-.215,4.359,4.359,0,0,1-.478-.253c-.166-.131-.2-.61-.206-.957-.067-.052-.136-.1-.2-.154-.339.074-.811.142-.975.009a4.082,4.082,0,0,1-.351-.408,3.871,3.871,0,0,1-.321-.433c-.092-.191.082-.636.228-.952-.037-.073-.073-.148-.108-.227-.338-.079-.795-.222-.887-.412a4.674,4.674,0,0,1-.139-.522,4.3,4.3,0,0,1-.1-.528.453.453,0,0,1,.1-.234A2.948,2.948,0,0,1,114.868,311.819Zm5.673,3.4a3.525,3.525,0,1,0-3.527-3.524A3.526,3.526,0,0,0,120.54,315.22Z" transform="translate(-24.555 -284.794)" fill="#3f3f41"/>
  <path id="Path_5249" data-name="Path 5249" d="M125.957,319.908a2.667,2.667,0,1,1,2.668,2.665A2.672,2.672,0,0,1,125.957,319.908Zm4.293,0a1.626,1.626,0,1,0-1.627,1.626A1.626,1.626,0,0,0,130.25,319.907Z" transform="translate(-32.64 -293.006)" fill="#2d2d2e"/>
  <path id="Path_5250" data-name="Path 5250" d="M123.183,317.994a3.526,3.526,0,1,1,3.527,3.524A3.526,3.526,0,0,1,123.183,317.994Zm6.452,0a2.925,2.925,0,1,0-2.925,2.924A2.926,2.926,0,0,0,129.635,317.994Z" transform="translate(-30.725 -291.091)" fill="#2d2d2e"/>
  <path id="Path_5251" data-name="Path 5251" d="M125.124,319.334a2.925,2.925,0,1,1,2.926,2.924A2.926,2.926,0,0,1,125.124,319.334Zm5.593,0A2.667,2.667,0,1,0,128.05,322,2.672,2.672,0,0,0,130.717,319.334Z" transform="translate(-32.065 -292.431)" fill="url(#linear-gradient)"/>
  <path id="Path_5252" data-name="Path 5252" d="M131.829,324.342a1.234,1.234,0,1,1,1.232-1.233A1.237,1.237,0,0,1,131.829,324.342Zm-.8-1.507a.091.091,0,0,0-.116.058.1.1,0,0,0,.059.118.092.092,0,0,0,.058-.175Zm.708-.515a.092.092,0,0,0,.091.092h0a.092.092,0,0,0,0-.184A.092.092,0,0,0,131.738,322.32Zm.091.24a.547.547,0,1,0,.548.548A.548.548,0,0,0,131.829,322.56Zm.8.275a.09.09,0,0,0-.059.115.092.092,0,0,0,.116.061.094.094,0,0,0,.058-.118A.089.089,0,0,0,132.629,322.835Zm-.363,1.113a.091.091,0,0,0,.128.021.092.092,0,0,0,.02-.128.09.09,0,0,0-.128-.021A.092.092,0,0,0,132.266,323.948Zm-1,.021a.089.089,0,0,0,.128-.021.092.092,0,1,0-.128.021Z" transform="translate(-35.845 -296.206)" fill="#020100"/>
  <path id="Path_5253" data-name="Path 5253" d="M130.946,323.857a1.626,1.626,0,1,1,1.627-1.626A1.625,1.625,0,0,1,130.946,323.857Zm1.352-1.625a1.352,1.352,0,1,0-1.352,1.35A1.354,1.354,0,0,0,132.3,322.232Z" transform="translate(-34.963 -295.33)" fill="#5a5b5b"/>
  <path id="Path_5254" data-name="Path 5254" d="M133.355,325.184a.547.547,0,1,1,.548-.547A.547.547,0,0,1,133.355,325.184Zm.063-.347a.263.263,0,0,1-.262-.262.27.27,0,0,1,.048-.153.268.268,0,0,0-.11.215.262.262,0,0,0,.477.15A.267.267,0,0,1,133.417,324.837Z" transform="translate(-37.371 -297.736)" fill="#3f3f41"/>
  <path id="Path_5255" data-name="Path 5255" d="M133.882,325.379a.268.268,0,0,1,.11-.215.27.27,0,0,0-.048.153.263.263,0,0,0,.262.262.267.267,0,0,0,.153-.05.262.262,0,0,1-.477-.15Z" transform="translate(-38.16 -298.478)" fill="#747c7e"/>
  <path id="Path_5256" data-name="Path 5256" d="M134.372,323.314a.091.091,0,0,1-.091.092h0A.091.091,0,0,0,134.372,323.314Z" transform="translate(-38.296 -297.2)" fill="#8f999c"/>
  <path id="Path_5257" data-name="Path 5257" d="M137.017,325.142a.1.1,0,0,1-.059-.118.092.092,0,0,1,.176.057A.093.093,0,0,1,137.017,325.142Zm.1-.078-.129-.042-.007.02.129.042Z" transform="translate(-41.89 -298.338)" fill="#3f3f41"/>
  <path id="Path_5258" data-name="Path 5258" d="M137.038,325.156l.129.042-.006.02-.129-.042Z" transform="translate(-41.942 -298.472)" fill="#747c7e"/>
  <path id="Path_5259" data-name="Path 5259" d="M136.077,328.12a.092.092,0,1,1-.128.021A.09.09,0,0,1,136.077,328.12Zm-.085.134.079-.107-.016-.011-.079.108Z" transform="translate(-40.551 -300.506)" fill="#3f3f41"/>
  <path id="Path_5260" data-name="Path 5260" d="M136.171,328.22l-.079.107-.017-.011.079-.108Z" transform="translate(-40.651 -300.58)" fill="#747c7e"/>
  <path id="Path_5261" data-name="Path 5261" d="M132.793,328.14a.092.092,0,0,1-.02.128.091.091,0,0,1-.128-.021.092.092,0,0,1,.02-.128A.09.09,0,0,1,132.793,328.14Zm-.044.113.018-.011-.08-.108-.016.011Z" transform="translate(-36.223 -300.506)" fill="#3f3f41"/>
  <path id="Path_5262" data-name="Path 5262" d="M132.864,328.316l-.018.011-.078-.107.016-.011Z" transform="translate(-36.321 -300.58)" fill="#747c7e"/>
  <path id="Path_5263" data-name="Path 5263" d="M131.727,325.142a.092.092,0,0,1-.116-.061.092.092,0,0,1,.174-.057A.094.094,0,0,1,131.727,325.142Zm.031-.12-.127.042.006.02.128-.042Z" transform="translate(-34.886 -298.338)" fill="#3f3f41"/>
  <path id="Path_5264" data-name="Path 5264" d="M131.684,325.2l.127-.042.007.02-.128.042Z" transform="translate(-34.939 -298.472)" fill="#747c7e"/>
  <path id="Path_5265" data-name="Path 5265" d="M134.463,323.11a.091.091,0,0,1-.092.092h0a.092.092,0,1,1,.092-.092Z" transform="translate(-38.387 -296.996)" fill="#3f3f41"/>
  <path id="Path_5266" data-name="Path 5266" d="M131.561,324.189a1.353,1.353,0,1,1,1.352-1.35A1.352,1.352,0,0,1,131.561,324.189Zm1.232-1.35a1.233,1.233,0,1,0-1.232,1.233A1.233,1.233,0,0,0,132.794,322.839Z" transform="translate(-35.578 -295.937)" fill="#3f3f41"/>
  <path id="Path_5267" data-name="Path 5267" d="M165.868,296.1c0-.043-.006-.084-.006-.123s.005-.084.006-.128c-.267-.219-.619-.545-.619-.758a4.3,4.3,0,0,1,.1-.53,4.527,4.527,0,0,1,.139-.519c.093-.19.548-.333.887-.417.035-.075.071-.15.108-.226-.146-.314-.321-.758-.227-.949a4.05,4.05,0,0,1,.321-.434,3.981,3.981,0,0,1,.35-.409c.165-.131.635-.063.976.011.063-.055.131-.1.2-.154.005-.347.041-.826.207-.959a4.306,4.306,0,0,1,.478-.251,4.053,4.053,0,0,1,.493-.216c.207-.047.6.222.88.435.082-.02.161-.046.245-.062a3.261,3.261,0,0,1,.337-.556.552.552,0,0,1,.261-.21,3.854,3.854,0,0,1,.54-.019c.132,0,.284,0,.4,0v-7.051h4.374v7.1h-4.148a1.109,1.109,0,0,1,.282.317,3.881,3.881,0,0,1,.23.41c.083.016.164.042.246.062.275-.214.671-.482.879-.435a8.1,8.1,0,0,1,.972.467c.166.132.2.612.207.959.066.052.134.1.2.154.34-.074.81-.143.974-.011a4.375,4.375,0,0,1,.353.409,4.479,4.479,0,0,1,.32.433c.092.192-.082.636-.231.95.04.076.075.151.11.226.339.084.794.226.887.417a4.682,4.682,0,0,1,.139.519,4.617,4.617,0,0,1,.1.53c0,.213-.35.539-.621.758,0,.044.006.084.006.128s0,.081-.006.123a2.91,2.91,0,0,1,.522.526.455.455,0,0,1,.1.234,4.452,4.452,0,0,1-.1.529,4.615,4.615,0,0,1-.139.521c-.092.19-.548.333-.887.412-.035.079-.071.154-.11.227.148.316.323.761.231.952a4.422,4.422,0,0,1-.322.435,4.084,4.084,0,0,1-.351.408c-.164.131-.634.063-.974-.011-.064.053-.133.1-.2.154-.006.349-.042.826-.206.957a4.323,4.323,0,0,1-.479.253,4.4,4.4,0,0,1-.493.215c-.207.048-.6-.222-.879-.436-.082.021-.163.046-.246.063-.154.31-.393.72-.6.766a6.994,6.994,0,0,1-1.077,0c-.206-.046-.444-.455-.6-.766-.084-.016-.163-.042-.245-.063-.276.214-.673.483-.88.436a4.793,4.793,0,0,1-.493-.215,4.29,4.29,0,0,1-.478-.253c-.166-.131-.2-.61-.207-.957-.067-.052-.135-.1-.2-.154-.339.074-.81.142-.974.009a3.914,3.914,0,0,1-.351-.408,3.98,3.98,0,0,1-.321-.433c-.092-.191.081-.636.228-.952-.037-.073-.073-.148-.108-.227-.339-.079-.794-.222-.887-.412a4.7,4.7,0,0,1-.139-.522,4.4,4.4,0,0,1-.1-.528.452.452,0,0,1,.1-.234A2.952,2.952,0,0,1,165.868,296.1Zm10.033-8.208h-2.919v.509H175.9Zm0-4.649h-2.919v.509H175.9Zm0,.93h-2.919v.508H175.9Zm0,.93h-2.919v.509H175.9Zm0,.93h-2.919v.508H175.9Zm0,.931h-2.919v.506H175.9Zm0,2.366v-.508h-2.919v.508Zm-4.36,10.172a3.525,3.525,0,1,0-3.528-3.524A3.527,3.527,0,0,0,171.541,299.5Z" transform="translate(-91.341 -269.076)" fill="#3f3f41"/>
  <path id="Path_5268" data-name="Path 5268" d="M177.71,314.467a3.525,3.525,0,1,1-3.528,3.527A3.526,3.526,0,0,1,177.71,314.467Zm0,6.451a2.925,2.925,0,1,0-2.926-2.924A2.924,2.924,0,0,0,177.71,320.918Z" transform="translate(-97.51 -291.091)" fill="#2d2d2e"/>
  <path id="Path_5269" data-name="Path 5269" d="M176.956,319.908a2.668,2.668,0,1,1,2.668,2.665A2.673,2.673,0,0,1,176.956,319.908Zm2.668,1.625A1.626,1.626,0,1,0,178,319.907,1.627,1.627,0,0,0,179.624,321.533Z" transform="translate(-99.424 -293.006)" fill="#2d2d2e"/>
  <path id="Path_5270" data-name="Path 5270" d="M176.126,319.334a2.925,2.925,0,1,1,2.926,2.924A2.927,2.927,0,0,1,176.126,319.334ZM179.052,322a2.667,2.667,0,1,0-2.668-2.665A2.67,2.67,0,0,0,179.052,322Z" transform="translate(-98.852 -292.431)" fill="url(#linear-gradient)"/>
  <path id="Path_5271" data-name="Path 5271" d="M181.594,323.109a1.233,1.233,0,1,1,1.235,1.233A1.236,1.236,0,0,1,181.594,323.109Zm.435-.274a.091.091,0,0,0-.116.058.092.092,0,1,0,.176.057A.092.092,0,0,0,182.029,322.835Zm.8-.607a.092.092,0,1,0,0,.184.092.092,0,0,0,0-.184Zm0,.332a.547.547,0,1,0,.547.548A.548.548,0,0,0,182.829,322.56Zm.8.275a.091.091,0,0,0-.059.115.093.093,0,0,0,.116.061.1.1,0,0,0,.059-.118A.091.091,0,0,0,183.627,322.835Zm-.362,1.113a.091.091,0,1,0,.02-.128A.091.091,0,0,0,183.265,323.948Zm-1,.021a.09.09,0,0,0,.128-.021.092.092,0,1,0-.128.021Z" transform="translate(-102.629 -296.206)" fill="#050301"/>
  <path id="Path_5272" data-name="Path 5272" d="M180.32,322.231a1.626,1.626,0,1,1,1.626,1.626A1.626,1.626,0,0,1,180.32,322.231Zm1.626,1.351a1.353,1.353,0,1,0-1.353-1.35A1.351,1.351,0,0,0,181.946,323.582Z" transform="translate(-101.746 -295.33)" fill="#5a5b5b"/>
  <path id="Path_5273" data-name="Path 5273" d="M184.355,325.184a.547.547,0,1,1,.547-.547A.547.547,0,0,1,184.355,325.184Zm.062-.347a.262.262,0,0,1-.262-.262.268.268,0,0,1,.048-.153.267.267,0,0,0-.111.215.263.263,0,0,0,.477.15A.266.266,0,0,1,184.416,324.837Z" transform="translate(-104.155 -297.736)" fill="#3f3f41"/>
  <path id="Path_5274" data-name="Path 5274" d="M184.884,325.379a.267.267,0,0,1,.111-.215.268.268,0,0,0-.048.153.262.262,0,0,0,.262.262.266.266,0,0,0,.152-.05.263.263,0,0,1-.477-.15Z" transform="translate(-104.948 -298.478)" fill="#747c7e"/>
  <path id="Path_5275" data-name="Path 5275" d="M188.017,325.142a.094.094,0,0,1-.059-.118.091.091,0,0,1,.116-.058.092.092,0,0,1-.057.175Zm.1-.078-.129-.042-.007.02.129.042Z" transform="translate(-108.675 -298.338)" fill="#3f3f41"/>
  <path id="Path_5276" data-name="Path 5276" d="M188.039,325.156l.129.042-.007.02-.129-.042Z" transform="translate(-108.729 -298.472)" fill="#747c7e"/>
  <path id="Path_5277" data-name="Path 5277" d="M187.077,328.12a.091.091,0,0,1,.02.128.092.092,0,1,1-.02-.128Zm-.085.134.079-.107-.017-.011-.079.108Z" transform="translate(-107.335 -300.506)" fill="#3f3f41"/>
  <path id="Path_5278" data-name="Path 5278" d="M187.17,328.22l-.079.107-.018-.011.079-.108Z" transform="translate(-107.435 -300.58)" fill="#747c7e"/>
  <path id="Path_5279" data-name="Path 5279" d="M183.793,328.14a.091.091,0,1,1-.128-.021A.09.09,0,0,1,183.793,328.14Zm-.043.113.017-.011-.079-.108-.017.011Z" transform="translate(-103.009 -300.506)" fill="#3f3f41"/>
  <path id="Path_5280" data-name="Path 5280" d="M183.866,328.316l-.017.011-.079-.107.017-.011Z" transform="translate(-103.107 -300.58)" fill="#747c7e"/>
  <path id="Path_5281" data-name="Path 5281" d="M182.724,325.142a.093.093,0,0,1-.116-.061.092.092,0,0,1,.176-.057A.1.1,0,0,1,182.724,325.142Zm.032-.12-.128.042.006.02.13-.042Z" transform="translate(-101.669 -298.338)" fill="#3f3f41"/>
  <path id="Path_5282" data-name="Path 5282" d="M182.683,325.2l.128-.042.007.02-.13.042Z" transform="translate(-101.723 -298.472)" fill="#747c7e"/>
  <path id="Path_5283" data-name="Path 5283" d="M185.375,323.2a.092.092,0,1,1,0-.184.092.092,0,0,1,0,.184Z" transform="translate(-105.174 -296.996)" fill="#3f3f41"/>
  <path id="Path_5284" data-name="Path 5284" d="M181.208,322.839a1.352,1.352,0,1,1,1.353,1.35A1.355,1.355,0,0,1,181.208,322.839Zm1.353,1.233a1.234,1.234,0,1,0-1.235-1.233A1.234,1.234,0,0,0,182.561,324.072Z" transform="translate(-102.361 -295.937)" fill="#3f3f41"/>
  <path id="Path_5285" data-name="Path 5285" d="M130.56,260.457h-6.987v-5.6l-.226-.061,3.1-.477c0,.266,2.73,4.169,4.124,6.146Z" transform="translate(-31.108 -249.562)" fill="#f2f2f2"/>
  <path id="Path_5286" data-name="Path 5286" d="M157.012,263.351h-1.473v-6.134l3-.357-1.522.357Z" transform="translate(-69.038 -251.314)" fill="#d6d6d6"/>
  <path id="Path_5287" data-name="Path 5287" d="M157.061,263.351h-1.522v-6.134l1.522-.357Z" transform="translate(-67.565 -251.314)" fill="#f2f2f2"/>
  <path id="Path_5288" data-name="Path 5288" d="M122.524,261.52h6.987l.008.011c.478.678.8,1.13.8,1.13h-9.558V256.1l1.534-.237h0l.226.061Z" transform="translate(-30.06 -250.625)" fill="#d4d4d4"/>
  <path id="Path_5289" data-name="Path 5289" d="M89.866,287.822l1.5,4.2,1.984.24.834,2.34-4.125-.539-2.021-6.129,3.613-.419.1-.011v.12Z" transform="translate(16.2 -272.472)" fill="url(#linear-gradient)"/>
  <rect id="Rectangle_2423" data-name="Rectangle 2423" width="2.919" height="0.509" transform="translate(81.642 14.169)" fill="#5f6061"/>
  <rect id="Rectangle_2424" data-name="Rectangle 2424" width="2.919" height="0.508" transform="translate(81.642 15.099)" fill="#5f6061"/>
  <rect id="Rectangle_2425" data-name="Rectangle 2425" width="2.919" height="0.509" transform="translate(81.642 16.029)" fill="#5f6061"/>
  <rect id="Rectangle_2426" data-name="Rectangle 2426" width="2.919" height="0.508" transform="translate(81.642 16.958)" fill="#5f6061"/>
  <rect id="Rectangle_2427" data-name="Rectangle 2427" width="2.919" height="0.506" transform="translate(81.642 17.889)" fill="#5f6061"/>
  <rect id="Rectangle_2428" data-name="Rectangle 2428" width="2.919" height="0.509" transform="translate(81.642 18.818)" fill="#5f6061"/>
  <rect id="Rectangle_2429" data-name="Rectangle 2429" width="2.919" height="0.508" transform="translate(81.642 19.747)" fill="#5f6061"/>
  <path id="Path_5290" data-name="Path 5290" d="M172.187,264.293v-3.319h1.163c-.015.761-.048,1.407-.048,1.407H174.5v-.887l.532.241v5.927h-2.84v-3.369Z" transform="translate(-90.684 -254.155)" fill="#5f6061"/>
  <path id="Path_5291" data-name="Path 5291" d="M176.41,248.083v2.568h-1.145l1.145.52v.887h-1.193s.032-.646.048-1.407a16.785,16.785,0,0,0-.048-2.032c-.105-.819-1.138-1.059-1.138-1.059.021-.241.037-.488.037-.689a1.2,1.2,0,0,0-.019-.191,3.866,3.866,0,0,0-.191-.658s.587.3,1.138.627a5.056,5.056,0,0,1,.851.59C176.252,247.6,176.1,247.487,176.41,248.083Z" transform="translate(-92.598 -243.832)" fill="#5f6061"/>
  <path id="Path_5292" data-name="Path 5292" d="M246.735,301.71v-.482h5.793v10.144h-5.793V301.71Zm5.251-.109h-4.8v.775h4.8Zm-4.8,9.264h4.8v-.775h-4.8Zm4.8-2.831v-.772h-4.8v.772Zm-4.8.642v.774h4.8v-.774Zm4.8-2.056v-.774h-4.8v.774Zm0-1.414v-.775h-4.8v.775Zm0-1.417v-.773h-4.8v.773Z" transform="translate(-191.258 -281.95)" fill="#3f3f41"/>
  <rect id="Rectangle_2430" data-name="Rectangle 2430" width="4.805" height="0.775" transform="translate(55.923 19.651)" fill="#5f6061"/>
  <rect id="Rectangle_2431" data-name="Rectangle 2431" width="4.805" height="0.773" transform="translate(55.923 21.067)" fill="#5f6061"/>
  <rect id="Rectangle_2432" data-name="Rectangle 2432" width="4.805" height="0.775" transform="translate(55.923 22.481)" fill="#5f6061"/>
  <rect id="Rectangle_2433" data-name="Rectangle 2433" width="4.805" height="0.774" transform="translate(55.923 23.896)" fill="#5f6061"/>
  <rect id="Rectangle_2434" data-name="Rectangle 2434" width="4.805" height="0.772" transform="translate(55.923 25.313)" fill="#5f6061"/>
  <rect id="Rectangle_2435" data-name="Rectangle 2435" width="4.805" height="0.774" transform="translate(55.923 26.727)" fill="#5f6061"/>
  <rect id="Rectangle_2436" data-name="Rectangle 2436" width="4.805" height="0.775" transform="translate(55.923 28.141)" fill="#5f6061"/>
  <path id="Path_5293" data-name="Path 5293" d="M118.222,255.34c.1.286.193.552.278.759C118.414,255.892,118.319,255.627,118.222,255.34Z" transform="translate(-17.454 -250.265)" fill="#5f6061"/>
  <path id="Path_5294" data-name="Path 5294" d="M113.676,248.049l.793-.409,2.867,5.553-.794.409s-.594-.732-1.128-1.458c.184.251.376.5.549.724-.125-.317-.285-.709-.48-1.159a7.5,7.5,0,0,0-1.267-1.881c-.076-.232-.15-.468-.219-.691h-4.747v-.4h4.627C113.758,248.339,113.676,248.049,113.676,248.049Z" transform="translate(-13.513 -244.948)" fill="#5f6061"/>
  <path id="Path_5295" data-name="Path 5295" d="M115.562,261.44l.138.19Z" transform="translate(-13.83 -254.477)" fill="#5f6061"/>
  <path id="Path_5296" data-name="Path 5296" d="M118.05,257.931q.018.043.035.082Z" transform="translate(-16.986 -252.054)" fill="#5f6061"/>
  <path id="Path_5297" data-name="Path 5297" d="M116.177,260.691l.111.158Z" transform="translate(-14.609 -253.959)" fill="#5f6061"/>
  <path id="Path_5298" data-name="Path 5298" d="M116.7,259.965l.1.15Z" transform="translate(-15.286 -253.458)" fill="#5f6061"/>
  <path id="Path_5299" data-name="Path 5299" d="M117.166,259.279c.029.047.059.1.093.147C117.225,259.375,117.195,259.326,117.166,259.279Z" transform="translate(-15.886 -252.984)" fill="#5f6061"/>
  <path id="Path_5300" data-name="Path 5300" d="M117.562,258.574c.027.051.059.109.1.17C117.621,258.683,117.588,258.625,117.562,258.574Z" transform="translate(-16.407 -252.498)" fill="#5f6061"/>
  <path id="Path_5301" data-name="Path 5301" d="M115.433,257.75c-.172-.222-.364-.474-.549-.724l-.032-.044c-.047-.063-.093-.127-.138-.19l-.053-.074-.111-.158-.051-.075-.1-.15-.043-.065c-.033-.051-.064-.1-.093-.147l-.03-.048c-.037-.061-.069-.119-.1-.17-.018-.034-.036-.074-.055-.117q-.018-.039-.035-.082l-.018-.043c-.085-.207-.181-.473-.278-.759l-.066-.2h0a7.5,7.5,0,0,1,1.267,1.881C115.148,257.041,115.307,257.433,115.433,257.75Z" transform="translate(-12.983 -249.829)" fill="#d4d4d4"/>
  <path id="Path_5302" data-name="Path 5302" d="M88.747,292.081l-1.5-4.2,1.883-.2L90,287.59v.176l1.812,4.685-.456-.055-.624-.075Z" transform="translate(18.822 -272.533)" fill="#d6d6d6"/>
  <path id="Path_5303" data-name="Path 5303" d="M324.259,322.96s0,.008,0,.01h-1.293s0-.007,0-.01Z" transform="translate(-286.581 -296.956)" fill="#5f6061"/>
  <path id="Path_5304" data-name="Path 5304" d="M369.964,322.99h0Z" transform="translate(-346.163 -296.976)" fill="#5f6061"/>
  <path id="Path_5305" data-name="Path 5305" d="M293.916,297.312l.674-.015,7.54-.167.482,1.727.292,1.045,1.461,5.233h-3.319s0-.013,0-.018l2.44,0-2.323-6.529-26.415.52-2.323,6.029-.825-.343,1.508-4.89.378-1.225.006-.02.277-.9,4.257-.095,11.457-.254Z" transform="translate(-250.79 -279.12)" fill="#5f6061"/>
  <path id="Path_5306" data-name="Path 5306" d="M302.828,307.336c-.093-.19-.548-.333-.887-.417-.035-.075-.071-.15-.109-.226.147-.314.321-.758.229-.95a4.166,4.166,0,0,0-.321-.433,4.033,4.033,0,0,0-.353-.409c-.163-.131-.633-.063-.974.011-.063-.055-.132-.1-.2-.154-.006-.347-.042-.827-.208-.959a3.986,3.986,0,0,0-.477-.249,4.242,4.242,0,0,0-.493-.218c-.209-.047-.6.222-.878.435-.084-.02-.163-.046-.247-.062a3.779,3.779,0,0,0-.23-.41c-.119-.18-.248-.33-.367-.356a.294.294,0,0,0-.054-.008c-.106-.01-.313-.012-.484-.01a3.848,3.848,0,0,0-.539.019c-.206.046-.444.456-.6.766-.084.016-.163.042-.245.062-.275-.214-.671-.482-.878-.435a4.025,4.025,0,0,0-.495.216,4.289,4.289,0,0,0-.477.251c-.166.133-.2.612-.206.959-.067.052-.134.1-.2.154-.339-.074-.811-.143-.976-.011a4.128,4.128,0,0,0-.349.409,3.959,3.959,0,0,0-.321.434c-.092.19.082.635.229.949-.038.076-.074.151-.11.226-.339.083-.794.226-.886.417a6.816,6.816,0,0,0-.237,1.036h-1.3a5.112,5.112,0,0,0-.1-.518,4.673,4.673,0,0,0-.139-.519c-.092-.19-.548-.333-.887-.417-.035-.075-.072-.15-.109-.226.147-.314.32-.758.229-.95a4.584,4.584,0,0,0-.32-.433,4.415,4.415,0,0,0-.353-.409c-.164-.131-.634-.063-.975.011-.064-.055-.132-.1-.2-.154-.006-.347-.042-.827-.206-.959a4.118,4.118,0,0,0-.478-.249,4.061,4.061,0,0,0-.494-.218c-.207-.047-.605.222-.879.435-.082-.02-.163-.046-.245-.062a4.119,4.119,0,0,0-.231-.41c-.118-.18-.249-.33-.367-.356a.3.3,0,0,0-.054-.008c-.106-.01-.314-.012-.483-.01a3.862,3.862,0,0,0-.541.019c-.2.046-.444.456-.6.766-.084.016-.164.042-.245.062-.275-.214-.673-.482-.879-.435a4.1,4.1,0,0,0-.493.216,4.248,4.248,0,0,0-.478.251c-.166.133-.2.612-.206.959-.067.052-.135.1-.2.154-.341-.074-.812-.143-.976-.011a3.873,3.873,0,0,0-.35.409,4.005,4.005,0,0,0-.321.434c-.094.19.081.635.227.949-.038.076-.072.151-.109.226-.339.083-.793.226-.886.417a4.489,4.489,0,0,0-.139.519,4.336,4.336,0,0,0-.1.526l-2.167,0,2.323-6.029,26.415-.52,2.323,6.529-2.44,0a4.644,4.644,0,0,0-.1-.509A4.772,4.772,0,0,0,302.828,307.336Z" transform="translate(-252.81 -282.368)" fill="#353536"/>
  <path id="Path_5307" data-name="Path 5307" d="M327.764,311.819c0-.043-.005-.084-.005-.123s0-.084.005-.128c-.266-.219-.62-.545-.618-.758v0a4.336,4.336,0,0,1,.1-.526,4.488,4.488,0,0,1,.139-.519c.093-.19.547-.333.886-.417.037-.075.071-.15.109-.226-.146-.314-.321-.758-.227-.949a4.009,4.009,0,0,1,.321-.434,3.869,3.869,0,0,1,.35-.409c.164-.131.635-.063.976.011.063-.055.131-.1.2-.154,0-.347.04-.826.206-.959a4.252,4.252,0,0,1,.478-.251,4.1,4.1,0,0,1,.493-.216c.206-.047.6.222.879.435.08-.02.161-.046.245-.062.155-.31.394-.72.6-.766a3.865,3.865,0,0,1,.541-.019c.168,0,.376,0,.483.01a.294.294,0,0,1,.054.008c.118.026.249.176.367.356a4.123,4.123,0,0,1,.231.41c.083.016.163.042.245.062.274-.214.672-.482.879-.435a4.057,4.057,0,0,1,.494.218,4.116,4.116,0,0,1,.478.249c.164.132.2.612.206.959.066.052.134.1.2.154.341-.074.811-.143.975-.011a4.415,4.415,0,0,1,.353.409,4.584,4.584,0,0,1,.32.433c.091.192-.082.636-.229.95.037.076.074.151.109.226.339.084.795.226.887.417a4.672,4.672,0,0,1,.139.519,5.123,5.123,0,0,1,.1.518s0,.007,0,.01v0c0,.213-.351.539-.62.758,0,.044.006.084.006.128s0,.081-.006.123c.268.22.619.548.619.76a7.28,7.28,0,0,1-.239,1.05c-.091.19-.548.333-.887.412-.035.079-.072.154-.109.227.147.316.32.761.229.952a4.514,4.514,0,0,1-.321.435,4.123,4.123,0,0,1-.352.408c-.164.131-.634.063-.975-.011-.064.053-.132.1-.2.154-.006.349-.042.826-.208.957a4.307,4.307,0,0,1-.476.253,4.384,4.384,0,0,1-.494.215c-.207.048-.605-.222-.879-.436-.082.021-.163.046-.245.063-.155.31-.394.72-.6.766a7,7,0,0,1-1.077,0c-.2-.046-.444-.455-.6-.766-.084-.016-.164-.042-.245-.063-.276.215-.673.483-.879.436a4.64,4.64,0,0,1-.493-.215,4.179,4.179,0,0,1-.478-.253c-.166-.131-.2-.61-.206-.957-.067-.052-.135-.1-.2-.154-.339.074-.81.142-.974.009a3.794,3.794,0,0,1-.352-.408,4.058,4.058,0,0,1-.321-.433c-.092-.191.082-.636.229-.952-.038-.073-.072-.148-.109-.227-.339-.079-.793-.222-.886-.412a4.465,4.465,0,0,1-.139-.522,4.558,4.558,0,0,1-.1-.528.454.454,0,0,1,.1-.234A3,3,0,0,1,327.764,311.819Zm5.675,3.4a3.525,3.525,0,1,0-3.528-3.524A3.526,3.526,0,0,0,333.439,315.22Z" transform="translate(-303.345 -284.794)" fill="#3f3f41"/>
  <path id="Path_5308" data-name="Path 5308" d="M338.852,319.908a2.668,2.668,0,1,1,2.67,2.665A2.674,2.674,0,0,1,338.852,319.908Zm2.669,1.625a1.626,1.626,0,1,0-1.627-1.626A1.627,1.627,0,0,0,341.521,321.533Z" transform="translate(-311.429 -293.006)" fill="#2d2d2e"/>
  <path id="Path_5309" data-name="Path 5309" d="M339.606,314.467a3.525,3.525,0,1,1-3.528,3.527A3.525,3.525,0,0,1,339.606,314.467Zm0,6.451a2.925,2.925,0,1,0-2.928-2.924A2.924,2.924,0,0,0,339.606,320.918Z" transform="translate(-309.513 -291.091)" fill="#2d2d2e"/>
  <path id="Path_5310" data-name="Path 5310" d="M338.022,319.334a2.926,2.926,0,1,1,2.928,2.924A2.928,2.928,0,0,1,338.022,319.334ZM340.95,322a2.667,2.667,0,1,0-2.67-2.665A2.67,2.67,0,0,0,340.95,322Z" transform="translate(-310.857 -292.431)" fill="url(#linear-gradient)"/>
  <path id="Path_5311" data-name="Path 5311" d="M343.489,323.109a1.233,1.233,0,1,1,1.234,1.233A1.236,1.236,0,0,1,343.489,323.109Zm1.234-.549a.547.547,0,1,0,.547.548A.547.547,0,0,0,344.723,322.56Zm.091-.24a.091.091,0,0,0-.091-.092.092.092,0,1,0,0,.184h0A.091.091,0,0,0,344.814,322.32Zm-1.007.573a.1.1,0,0,0,.058.118.094.094,0,0,0,.118-.061.092.092,0,0,0-.06-.115A.091.091,0,0,0,343.807,322.892Zm1.716-.058a.091.091,0,0,0-.061.115.093.093,0,0,0,.116.061.1.1,0,0,0,.06-.118A.091.091,0,0,0,345.523,322.835Zm-.363,1.113a.09.09,0,0,0,.128.021.092.092,0,0,0,.02-.128.09.09,0,0,0-.128-.021A.091.091,0,0,0,345.16,323.948Zm-1,.021a.092.092,0,1,0-.021-.128A.092.092,0,0,0,344.157,323.969Z" transform="translate(-314.631 -296.206)" fill="#050301"/>
  <path id="Path_5312" data-name="Path 5312" d="M342.216,322.231a1.627,1.627,0,1,1,1.627,1.626A1.626,1.626,0,0,1,342.216,322.231Zm1.627,1.351a1.353,1.353,0,1,0-1.354-1.35A1.35,1.35,0,0,0,343.843,323.582Z" transform="translate(-313.751 -295.33)" fill="#acada6"/>
  <path id="Path_5313" data-name="Path 5313" d="M346.8,324.638a.547.547,0,1,1-.547-.547A.548.548,0,0,1,346.8,324.638Zm-.486.2a.262.262,0,0,1-.261-.262.271.271,0,0,1,.047-.153.269.269,0,0,0-.11.215.262.262,0,0,0,.263.261.258.258,0,0,0,.213-.111A.265.265,0,0,1,346.312,324.837Z" transform="translate(-316.159 -297.736)" fill="#3f3f41"/>
  <path id="Path_5314" data-name="Path 5314" d="M346.782,325.379a.269.269,0,0,1,.11-.215.272.272,0,0,0-.047.153.262.262,0,0,0,.261.262.265.265,0,0,0,.152-.05.258.258,0,0,1-.213.111A.262.262,0,0,1,346.782,325.379Z" transform="translate(-316.953 -298.478)" fill="#747c7e"/>
  <path id="Path_5315" data-name="Path 5315" d="M347.178,323.406a.09.09,0,0,0,.09-.092.091.091,0,0,1-.089.092Z" transform="translate(-317.086 -297.2)" fill="#8f999c"/>
  <path id="Path_5316" data-name="Path 5316" d="M350.031,325.081a.094.094,0,0,1-.118.061.1.1,0,0,1-.058-.118.091.091,0,0,1,.115-.058A.092.092,0,0,1,350.031,325.081Zm-.149-.059-.007.02.131.042,0-.02Z" transform="translate(-320.679 -298.338)" fill="#3f3f41"/>
  <path id="Path_5317" data-name="Path 5317" d="M350.062,325.219l-.131-.042.007-.02.128.042Z" transform="translate(-320.737 -298.472)" fill="#747c7e"/>
  <path id="Path_5318" data-name="Path 5318" d="M348.974,328.12a.092.092,0,1,1-.129.021A.091.091,0,0,1,348.974,328.12Zm-.085.134.079-.107-.017-.011-.079.108Z" transform="translate(-319.34 -300.506)" fill="#3f3f41"/>
  <path id="Path_5319" data-name="Path 5319" d="M349.066,328.22l-.079.107-.017-.011.079-.108Z" transform="translate(-319.438 -300.58)" fill="#747c7e"/>
  <path id="Path_5320" data-name="Path 5320" d="M345.69,328.14a.092.092,0,0,1-.02.128.092.092,0,1,1,.02-.128Zm-.044.113.017-.011-.079-.108-.017.011Z" transform="translate(-315.013 -300.506)" fill="#3f3f41"/>
  <path id="Path_5321" data-name="Path 5321" d="M345.762,328.316l-.017.011-.078-.107.017-.011Z" transform="translate(-315.112 -300.58)" fill="#747c7e"/>
  <path id="Path_5322" data-name="Path 5322" d="M344.62,325.142a.093.093,0,0,1-.116-.061.093.093,0,0,1,.176-.057A.1.1,0,0,1,344.62,325.142Zm.032-.12-.129.042.008.02.128-.042Z" transform="translate(-313.672 -298.338)" fill="#3f3f41"/>
  <path id="Path_5323" data-name="Path 5323" d="M344.582,325.2l.129-.042.007.02-.128.042Z" transform="translate(-313.731 -298.472)" fill="#747c7e"/>
  <path id="Path_5324" data-name="Path 5324" d="M347.271,323.2h0a.092.092,0,1,1,0-.184.092.092,0,0,1,0,.183Z" transform="translate(-317.178 -296.996)" fill="#3f3f41"/>
  <path id="Path_5325" data-name="Path 5325" d="M343.107,322.839a1.352,1.352,0,1,1,1.354,1.35A1.357,1.357,0,0,1,343.107,322.839Zm1.354,1.233a1.234,1.234,0,1,0-1.234-1.233A1.235,1.235,0,0,0,344.461,324.072Z" transform="translate(-314.369 -295.937)" fill="#3f3f41"/>
  <path id="Path_5326" data-name="Path 5326" d="M282.942,311.819c0-.043,0-.084,0-.123s0-.084,0-.128c-.268-.219-.62-.545-.618-.758v0s0-.008,0-.01a6.813,6.813,0,0,1,.237-1.036c.092-.19.547-.333.886-.417.036-.075.072-.15.11-.226-.147-.314-.321-.758-.229-.949a3.965,3.965,0,0,1,.321-.434,4.137,4.137,0,0,1,.349-.409c.165-.131.638-.063.976.011.065-.055.132-.1.2-.154.005-.347.04-.826.206-.959a4.292,4.292,0,0,1,.477-.251,4.03,4.03,0,0,1,.495-.216c.207-.047.6.222.878.435.081-.02.16-.046.245-.062.156-.31.393-.72.6-.766a3.853,3.853,0,0,1,.539-.019c.171,0,.378,0,.484.01a.294.294,0,0,1,.054.008c.119.026.249.176.367.356a3.782,3.782,0,0,1,.23.41c.084.016.163.042.247.062.274-.214.669-.482.878-.435a4.238,4.238,0,0,1,.493.218,3.983,3.983,0,0,1,.477.249c.166.132.2.612.208.959.065.052.134.1.2.154.341-.074.811-.143.974-.011a4.033,4.033,0,0,1,.353.409,4.17,4.17,0,0,1,.321.433c.092.192-.082.636-.229.95.038.076.074.151.109.226.339.084.794.226.887.417a4.774,4.774,0,0,1,.139.519,4.621,4.621,0,0,1,.1.509s0,.014,0,.018v0c0,.213-.349.539-.618.758,0,.044.006.084.006.128s0,.081-.006.123a2.886,2.886,0,0,1,.522.526.454.454,0,0,1,.1.234,4.407,4.407,0,0,1-.1.529,4.7,4.7,0,0,1-.139.521c-.092.19-.548.333-.887.412-.035.079-.071.154-.109.227.147.316.321.761.229.952a4.294,4.294,0,0,1-.321.435,3.906,3.906,0,0,1-.352.408c-.163.131-.633.063-.974-.011-.063.053-.132.1-.2.154-.005.349-.042.826-.208.957a4.214,4.214,0,0,1-.477.253,4.544,4.544,0,0,1-.493.215c-.209.048-.6-.222-.878-.436-.084.021-.163.046-.247.063-.153.31-.392.72-.6.766a7.017,7.017,0,0,1-1.078,0c-.206-.046-.444-.455-.6-.766-.084-.016-.163-.042-.245-.063-.275.215-.671.483-.878.436a4.656,4.656,0,0,1-.495-.215,4.331,4.331,0,0,1-.477-.253c-.166-.131-.2-.61-.206-.957-.067-.052-.135-.1-.2-.154-.338.074-.81.142-.975.009a4.179,4.179,0,0,1-.351-.408,4.244,4.244,0,0,1-.321-.433c-.091-.191.082-.636.23-.952-.038-.073-.074-.148-.11-.227-.339-.079-.794-.222-.886-.412a4.348,4.348,0,0,1-.14-.522,4.452,4.452,0,0,1-.1-.528.833.833,0,0,1,.284-.455A4.289,4.289,0,0,1,282.942,311.819Zm5.672,3.4a3.525,3.525,0,1,0-3.526-3.524A3.526,3.526,0,0,0,288.614,315.22Z" transform="translate(-244.648 -284.794)" fill="#3f3f41"/>
  <path id="Path_5327" data-name="Path 5327" d="M294.025,319.908a2.668,2.668,0,1,1,2.668,2.665A2.672,2.672,0,0,1,294.025,319.908Zm2.667,1.625a1.626,1.626,0,1,0-1.626-1.626A1.626,1.626,0,0,0,296.692,321.533Z" transform="translate(-252.727 -293.006)" fill="#2d2d2e"/>
  <path id="Path_5328" data-name="Path 5328" d="M291.252,317.994a3.526,3.526,0,1,1,3.526,3.524A3.526,3.526,0,0,1,291.252,317.994Zm3.526,2.924a2.925,2.925,0,1,0-2.926-2.924A2.925,2.925,0,0,0,294.778,320.918Z" transform="translate(-250.812 -291.091)" fill="#2d2d2e"/>
  <path id="Path_5329" data-name="Path 5329" d="M293.192,319.334a2.926,2.926,0,1,1,2.926,2.924A2.926,2.926,0,0,1,293.192,319.334ZM296.118,322a2.667,2.667,0,1,0-2.668-2.665A2.67,2.67,0,0,0,296.118,322Z" transform="translate(-252.152 -292.431)" fill="url(#linear-gradient)"/>
  <path id="Path_5330" data-name="Path 5330" d="M297.391,322.231a1.626,1.626,0,1,1,1.626,1.626A1.626,1.626,0,0,1,297.391,322.231Zm1.626,1.351a1.353,1.353,0,1,0-1.353-1.35A1.351,1.351,0,0,0,299.017,323.582Z" transform="translate(-255.051 -295.33)" fill="#acada6"/>
  <path id="Path_5331" data-name="Path 5331" d="M298.663,323.109a1.233,1.233,0,1,1,1.233,1.233A1.236,1.236,0,0,1,298.663,323.109Zm1.233-.549a.547.547,0,1,0,.547.548A.548.548,0,0,0,299.9,322.56Zm.092-.24a.091.091,0,1,0-.092.092h0A.091.091,0,0,0,299.988,322.32Zm-1.008.573a.1.1,0,0,0,.061.118.092.092,0,1,0-.061-.118Zm1.716-.058a.091.091,0,0,0-.06.115.092.092,0,1,0,.175-.057A.09.09,0,0,0,300.7,322.835Zm-.363,1.113a.092.092,0,1,0,.02-.128A.093.093,0,0,0,300.333,323.948Zm-1,.021a.092.092,0,1,0-.021-.128A.089.089,0,0,0,299.332,323.969Z" transform="translate(-255.931 -296.206)" fill="#0a0602"/>
  <path id="Path_5332" data-name="Path 5332" d="M301.973,324.638a.547.547,0,1,1-.547-.547A.547.547,0,0,1,301.973,324.638Zm-.484.2a.264.264,0,0,1-.263-.262.274.274,0,0,1,.049-.153.266.266,0,0,0-.112.215.263.263,0,0,0,.478.15A.267.267,0,0,1,301.489,324.837Z" transform="translate(-257.461 -297.736)" fill="#3f3f41"/>
  <path id="Path_5333" data-name="Path 5333" d="M301.952,325.379a.266.266,0,0,1,.112-.215.274.274,0,0,0-.049.153.264.264,0,0,0,.263.262.267.267,0,0,0,.152-.05.263.263,0,0,1-.478-.15Z" transform="translate(-258.249 -298.478)" fill="#747c7e"/>
  <path id="Path_5334" data-name="Path 5334" d="M302.348,323.406a.091.091,0,0,0,.092-.092.091.091,0,0,1-.092.092Z" transform="translate(-258.382 -297.2)" fill="#8f999c"/>
  <path id="Path_5335" data-name="Path 5335" d="M305.2,325.081a.092.092,0,0,1-.115.061.1.1,0,0,1-.061-.118.093.093,0,0,1,.176.057Zm-.149-.059-.008.02.13.042.007-.02Z" transform="translate(-261.978 -298.338)" fill="#3f3f41"/>
  <path id="Path_5336" data-name="Path 5336" d="M305.23,325.219l-.13-.042.008-.02.129.042Z" transform="translate(-262.031 -298.472)" fill="#747c7e"/>
  <path id="Path_5337" data-name="Path 5337" d="M304.146,328.12a.092.092,0,1,1-.127.021A.09.09,0,0,1,304.146,328.12Zm-.085.134.08-.107-.017-.011-.079.108Z" transform="translate(-260.639 -300.506)" fill="#3f3f41"/>
  <path id="Path_5338" data-name="Path 5338" d="M304.239,328.22l-.08.107-.017-.011.079-.108Z" transform="translate(-260.737 -300.58)" fill="#747c7e"/>
  <path id="Path_5339" data-name="Path 5339" d="M300.863,328.14a.092.092,0,1,1-.148.107.093.093,0,0,1,.019-.128A.09.09,0,0,1,300.863,328.14Zm-.043.113.018-.011-.079-.108-.017.011Z" transform="translate(-256.313 -300.506)" fill="#3f3f41"/>
  <path id="Path_5340" data-name="Path 5340" d="M300.935,328.316l-.018.011-.078-.107.017-.011Z" transform="translate(-256.411 -300.58)" fill="#747c7e"/>
  <path id="Path_5341" data-name="Path 5341" d="M299.794,325.142a.093.093,0,0,1-.116-.061.091.091,0,0,1,.06-.115.09.09,0,0,1,.115.058A.094.094,0,0,1,299.794,325.142Zm.033-.12-.128.042.006.02.128-.042Z" transform="translate(-254.972 -298.338)" fill="#3f3f41"/>
  <path id="Path_5342" data-name="Path 5342" d="M299.756,325.2l.128-.042.005.02-.128.042Z" transform="translate(-255.029 -298.472)" fill="#747c7e"/>
  <path id="Path_5343" data-name="Path 5343" d="M302.439,323.2h0a.092.092,0,1,1,.092-.092A.091.091,0,0,1,302.439,323.2Z" transform="translate(-258.473 -296.996)" fill="#3f3f41"/>
  <path id="Path_5344" data-name="Path 5344" d="M298.281,322.839a1.352,1.352,0,1,1,1.353,1.35A1.355,1.355,0,0,1,298.281,322.839Zm1.353,1.233a1.234,1.234,0,1,0-1.233-1.233A1.234,1.234,0,0,0,299.634,324.072Z" transform="translate(-255.668 -295.937)" fill="#3f3f41"/>
  <path id="Path_5345" data-name="Path 5345" d="M412.261,309.42c-.325.035-.678-.741-.79-1.736s.065-1.831.392-1.867a.2.2,0,0,1,.056,0l.464,3.543A.232.232,0,0,1,412.261,309.42Z" transform="translate(-402.09 -285.118)" fill="#bf0000"/>
  <path id="Path_5346" data-name="Path 5346" d="M407.092,308.606h-1.381l-.068-.517-.464-3.543-.075-.574,1.948.074.551.021Z" transform="translate(-395.35 -283.845)" fill="#5f6061"/>
  <path id="Path_5347" data-name="Path 5347" d="M95.288,304.169l.284.976-.888-.019h.008l-2.324-6.26-9.377.5-2.2,5.468-.951-.02,1.5-4.669.122-.377.545-1.693,11.323-.6,1.37,4.7h8.607l-.49-1.017s1.815.351,1.815.893a6.856,6.856,0,0,1-.691,1.873l-1.387.046-6.159.2Z" transform="translate(8.287 -279.358)" fill="#5f6061"/>
  <path id="Path_5348" data-name="Path 5348" d="M225.948,282.385a.6.6,0,1,1,.6.6A.6.6,0,0,1,225.948,282.385Z" transform="translate(-159.444 -268.524)" fill="#473200"/>
  <path id="Path_5349" data-name="Path 5349" d="M396.541,334.373h.712v.406H394v-.406h.711v-1.139h1.83Z" transform="translate(-381.562 -304.05)" fill="#505152"/>
  <path id="Path_5350" data-name="Path 5350" d="M397.629,306.02h-2.643v-12.2h2.643v12.2Zm-2.2-.638h1.764v-.637h-1.764Z" transform="translate(-382.243 -276.836)" fill="url(#linear-gradient)"/>
  <path id="Path_5351" data-name="Path 5351" d="M221.167,334.373h.712v.406h-3.253v-.406h.711v-1.139h1.83Z" transform="translate(-151.909 -304.05)" fill="#505152"/>
  <path id="Path_5352" data-name="Path 5352" d="M219.615,296.667v-2.846h2.642v12.2h-2.642v-9.353Zm.439,8.715h1.764v-.637h-1.764Z" transform="translate(-152.593 -276.836)" fill="url(#linear-gradient)"/>
  <path id="Path_5353" data-name="Path 5353" d="M384.92,246.313c.052.077.1.159.146.24a4.367,4.367,0,1,1-4.358-2.118,4.416,4.416,0,0,1,.593-.045,4.4,4.4,0,0,1,3.618,1.923Zm-6.627,2.441a3,3,0,0,0,1.084,2.311l-.245.368c-.18.271.282.622.482.329l.248-.366a3,3,0,0,0,3.081-.122l.281.343c.207.25.676-.087.457-.364l-.279-.347a3,3,0,0,0-.167-4.457l.251-.366c.2-.292-.3-.595-.481-.329l-.254.362a3,3,0,0,0-3.081.111l-.276-.348c-.22-.277-.655.107-.456.363l.272.35A3,3,0,0,0,378.294,248.754Z" transform="translate(-364.695 -242.704)" fill="#000707"/>
  <path id="Path_5354" data-name="Path 5354" d="M393.156,251.512c.491.63,1.105,1.4,1.721,2.174-.556.815-1.11,1.631-1.554,2.3a3,3,0,0,1-.167-4.471Z" transform="translate(-378.641 -247.621)" fill="#acada6"/>
  <path id="Path_5355" data-name="Path 5355" d="M387.971,251.277c-.59-.741-1.165-1.461-1.612-2.024a3,3,0,0,1,3.081-.111C389.011,249.758,388.492,250.512,387.971,251.277Z" transform="translate(-371.384 -245.728)" fill="#acada6"/>
  <path id="Path_5356" data-name="Path 5356" d="M388.819,262.127a3,3,0,0,1-3.081.122c.4-.6.923-1.357,1.457-2.141C387.773,260.832,388.345,261.545,388.819,262.127Z" transform="translate(-370.571 -253.557)" fill="#acada6"/>
  <path id="Path_5357" data-name="Path 5357" d="M382.882,251.045a3,3,0,0,1,.167,4.457c-.479-.6-1.1-1.376-1.731-2.166C381.889,252.5,382.45,251.677,382.882,251.045Z" transform="translate(-364.342 -247.299)" fill="#acada6"/>
  <path id="Path_5358" data-name="Path 5358" d="M383.494,249.411l-.272-.35c-.2-.256.236-.641.456-.363l.276.348c.447.563,1.022,1.283,1.612,2.024.521-.765,1.04-1.52,1.469-2.135l.254-.362c.186-.266.681.036.481.329l-.251.366c-.433.632-.993,1.455-1.564,2.29.631.79,1.252,1.569,1.731,2.166l.279.347c.22.277-.25.614-.457.364l-.281-.343c-.474-.582-1.046-1.295-1.624-2.019-.534.784-1.053,1.545-1.457,2.141l-.248.366c-.2.293-.661-.058-.482-.329l.245-.368c.444-.665,1-1.481,1.554-2.3C384.6,250.814,383.986,250.042,383.494,249.411Z" transform="translate(-368.979 -245.521)" fill="url(#linear-gradient)"/>
  <path id="Path_5359" data-name="Path 5359" d="M71.152,275.643a.66.66,0,1,1-.66.66A.66.66,0,0,1,71.152,275.643Z" transform="translate(44.006 -264.284)" fill="#fff"/>
  <path id="Path_5360" data-name="Path 5360" d="M50.665,244.051a4.758,4.758,0,1,1,7.237,4.055L54.135,252l-.237.245s-.679.286-1.38-.611a.967.967,0,0,1-.182-.835c.118-.614.581-1.231-.011-1.873a2.855,2.855,0,0,1-.384-.542,6.565,6.565,0,0,1-.654-1.99A4.728,4.728,0,0,1,50.665,244.051Zm7.139-2.912c.219-.319-.322-.649-.525-.358l-.276.395a3.275,3.275,0,0,0-3.36.122l-.3-.38c-.24-.3-.714.116-.5.4l.3.381a3.275,3.275,0,0,0,.182,4.874l-.267.4c-.2.3.309.678.526.358l.271-.4a3.276,3.276,0,0,0,3.359-.133l.305.374c.224.273.739-.1.5-.4l-.3-.377a3.276,3.276,0,0,0-.182-4.86Zm-4.419,10.723a.66.66,0,1,0-.66-.66A.66.66,0,0,0,53.385,251.863Z" transform="translate(61.774 -239.184)" fill="#000707"/>
  <path id="Path_5361" data-name="Path 5361" d="M70.226,249.429c-.605.888-1.209,1.779-1.693,2.5a3.276,3.276,0,0,1-.182-4.874C68.887,247.745,69.556,248.588,70.226,249.429Z" transform="translate(46.565 -244.547)" fill="#acada6"/>
  <path id="Path_5362" data-name="Path 5362" d="M58.319,249.062a3.269,3.269,0,0,1-.991,2.347c-.522-.651-1.2-1.5-1.888-2.362.622-.911,1.234-1.809,1.705-2.5A3.271,3.271,0,0,1,58.319,249.062Z" transform="translate(62.159 -244.195)" fill="#acada6"/>
  <path id="Path_5363" data-name="Path 5363" d="M60.936,244.6a3.275,3.275,0,0,1,3.36-.122c-.468.671-1.033,1.493-1.6,2.327C62.05,246,61.423,245.211,60.936,244.6Z" transform="translate(54.481 -242.483)" fill="#acada6"/>
  <path id="Path_5364" data-name="Path 5364" d="M61.846,256.433c.63.789,1.255,1.566,1.771,2.2a3.276,3.276,0,0,1-3.359.133C60.7,258.118,61.265,257.287,61.846,256.433Z" transform="translate(55.369 -251.019)" fill="#acada6"/>
  <path id="Path_5365" data-name="Path 5365" d="M62.383,249.47l.3.377c.241.3-.273.671-.5.4l-.305-.374c-.516-.634-1.141-1.412-1.771-2.2-.582.854-1.148,1.685-1.588,2.334l-.271.4c-.217.32-.721-.063-.526-.358l.267-.4c.484-.725,1.088-1.617,1.693-2.5-.67-.841-1.339-1.683-1.875-2.37l-.3-.381c-.218-.28.257-.7.5-.4l.3.38c.487.613,1.114,1.4,1.757,2.205.569-.834,1.135-1.656,1.6-2.327l.276-.395c.2-.291.744.039.525.358l-.273.4c-.472.688-1.084,1.586-1.705,2.5C61.183,247.97,61.86,248.819,62.383,249.47Z" transform="translate(57.103 -242.256)" fill="url(#linear-gradient)"/>
  <path id="Path_5366" data-name="Path 5366" d="M415.52,248.116a4.327,4.327,0,0,1,.575,3.578l-.009-.225-1.356.056a2.994,2.994,0,0,0-.907-3.291l.251-.366c.2-.292-.3-.594-.481-.329l-.254.363a3,3,0,0,0-3.081.112l-.276-.348c-.221-.278-.655.106-.455.363l.272.35a3,3,0,0,0-.658,3.376l-1.424.059c-.032-.106-.059-.214-.083-.323a4.355,4.355,0,0,1,4.257-5.316c.051,0,.1.006.151.007a4.336,4.336,0,0,1,2.164.662A4.384,4.384,0,0,1,415.52,248.116Z" transform="translate(-404.75 -243.936)" fill="#000707"/>
  <path id="Path_5367" data-name="Path 5367" d="M423.745,253.3c.491.63,1.1,1.4,1.72,2.173-.262.384-.523.768-.773,1.137l-1.606.066a3,3,0,0,1,.658-3.376Z" transform="translate(-418.697 -248.854)" fill="#acada6"/>
  <path id="Path_5368" data-name="Path 5368" d="M420.49,261.894l.466.582-.887.037Z" transform="translate(-413.333 -254.79)" fill="#acada6"/>
  <path id="Path_5369" data-name="Path 5369" d="M420.028,250.926c-.429.616-.947,1.37-1.469,2.134-.591-.74-1.166-1.46-1.613-2.023a3,3,0,0,1,3.081-.112Z" transform="translate(-411.44 -246.96)" fill="#acada6"/>
  <path id="Path_5370" data-name="Path 5370" d="M414.548,255.134a3,3,0,0,1-.169.986l-1.619.066-.852-1.067c.57-.836,1.132-1.659,1.564-2.29A3,3,0,0,1,414.548,255.134Z" transform="translate(-404.4 -248.531)" fill="#acada6"/>
  <path id="Path_5371" data-name="Path 5371" d="M330.956,259.553l-2.443.081v-.022l-8.706.209,1.878-5.779,1.087-.045,1.424-.058,1.606-.066c.25-.369.511-.753.773-1.137-.615-.771-1.229-1.544-1.72-2.173l-.272-.35c-.2-.257.234-.641.455-.363l.276.348c.447.562,1.022,1.283,1.613,2.023.522-.765,1.04-1.519,1.469-2.134l.254-.363c.186-.265.682.037.481.329l-.251.366c-.432.632-.994,1.455-1.564,2.29l.852,1.067,1.619-.067,1.356-.056.009.225.193,4.694,13.083-.433-.131-7.314-3.7.12a4.341,4.341,0,0,0-.423-.977l.51-.018,2.017-.07,15.756-.545-4.536.9-.026.274-8.722.284.149,6.665v.041l-.55,1.091-.247.51h-.01l-.071.141,0-.139-13.061.432v0Zm-3.992-6.331-.422.619.887-.037Z" transform="translate(-319.807 -246.118)" fill="url(#linear-gradient)"/>
  <path id="Path_5372" data-name="Path 5372" d="M87.909,248.193l-3.594-7.158-.572-1.14-.478-.952,4.453.063.483,1.408,2.68,7.814.549,1.6-2.685.031-.357-.713Zm-1.432-8.383a.844.844,0,1,0,.844.843A.844.844,0,0,0,86.477,239.81Zm3.79,8.628a.844.844,0,1,0-.845.845A.843.843,0,0,0,90.267,248.437Z" transform="translate(20.436 -238.942)" fill="url(#linear-gradient)"/>
  <path id="Path_5373" data-name="Path 5373" d="M87.021,267.741a.844.844,0,1,1,.844.845A.844.844,0,0,1,87.021,267.741Z" transform="translate(21.993 -258.245)" fill="#fff"/>
  <path id="Path_5374" data-name="Path 5374" d="M97.383,243.433a.844.844,0,1,1,.844-.845A.845.845,0,0,1,97.383,243.433Z" transform="translate(9.53 -240.877)" fill="#fff"/>
  <path id="Path_5375" data-name="Path 5375" d="M312.231,284.455l-1.5,1.732H290.24l1.5-1.732Z" transform="translate(-264.426 -270.368)" fill="url(#linear-gradient)"/>
  <rect id="Rectangle_2437" data-name="Rectangle 2437" width="1.765" height="0.637" transform="translate(13.185 27.909)" fill="url(#linear-gradient-3)"/>
  <rect id="Rectangle_2438" data-name="Rectangle 2438" width="1.765" height="0.637" transform="translate(67.461 27.909)" fill="url(#linear-gradient-3)"/>
  <path id="Path_5376" data-name="Path 5376" d="M252.322,283.477l-.837.041-.045-1.827.837-.042Z" transform="translate(-192.508 -268.432)" fill="url(#linear-gradient-3)"/>
  <path id="Path_5377" data-name="Path 5377" d="M172.462,260.974h1.4v.761l-.532-.241-1.146-.52Z" transform="translate(-89.521 -254.155)" fill="#3f3f41"/>
</svg>
