<svg xmlns="http://www.w3.org/2000/svg" xmlns:xlink="http://www.w3.org/1999/xlink" width="180.747" height="57.627" viewBox="0 0 180.747 57.627">
  <defs>
    <linearGradient id="linear-gradient" x1="-102.449" y1="13.059" x2="-102.319" y2="13.059" gradientUnits="objectBoundingBox">
      <stop offset="0.15" stop-color="#6069ff"/>
      <stop offset="1" stop-color="#7f6bf6"/>
    </linearGradient>
    <linearGradient id="linear-gradient-2" x1="-27.155" y1="12.435" x2="-27.122" y2="12.435" xlink:href="#linear-gradient"/>
    <linearGradient id="linear-gradient-3" x1="-63.928" y1="44.921" x2="-63.851" y2="44.921" gradientUnits="objectBoundingBox">
      <stop offset="0.15" stop-color="#6069ff"/>
      <stop offset="1" stop-color="#8b7dff"/>
    </linearGradient>
    <linearGradient id="linear-gradient-4" x1="-33.191" y1="18.232" x2="-33.153" y2="18.232" xlink:href="#linear-gradient"/>
    <linearGradient id="linear-gradient-5" x1="-30.625" y1="13.303" x2="-30.591" y2="13.303" xlink:href="#linear-gradient"/>
    <linearGradient id="linear-gradient-6" x1="-76.429" y1="13.618" x2="-76.344" y2="13.618" xlink:href="#linear-gradient"/>
    <linearGradient id="linear-gradient-7" x1="-33.233" y1="18.232" x2="-33.198" y2="18.232" xlink:href="#linear-gradient"/>
    <linearGradient id="linear-gradient-8" x1="-34.35" y1="18.232" x2="-34.315" y2="18.232" xlink:href="#linear-gradient"/>
  </defs>
  <g id="Group_15810" data-name="Group 15810" transform="translate(0.001)">
    <path id="Path_72017" data-name="Path 72017" d="M7.77,46.049l1.443-.778S9.2,24,9.178,22.9c0,0-.451-5.7,1.651-9.64a9.815,9.815,0,0,1,3.421-3.8A9.555,9.555,0,0,1,18.53,8.04a24.726,24.726,0,0,0-3.223-.532c-.866-.084-1.677-.117-2.421-.116.378-.222.787-.442,1.225-.655a22.068,22.068,0,0,1,2.919-1.3A11.022,11.022,0,0,0,13.8,6.511a9,9,0,0,0-2.165,1.468,16.949,16.949,0,0,0-2.409,2.329c-2.153,4.5-2.593,15.523-3.09,35.743" fill="#0d0dff"/>
    <path id="Path_72018" data-name="Path 72018" d="M36.247,3.635,32.118,17.556,28.594,29.4V46.046h7.653Z" fill="url(#linear-gradient)"/>
    <path id="Path_72019" data-name="Path 72019" d="M12.16,7.655c1.132-.911,2.248-1.365,9.219-3.509,3.829-1.178,7.1-2.149,9.588-2.879-11.612.034-14.491.238-15.849.456l-2.572.416a16.6,16.6,0,0,0-2.506.76A20.15,20.15,0,0,0,5.1,5.8C-.264,10.33-.012,20.073,0,20.546v25.5H7.77V21.432C7.392,12.187,10.745,8.8,12.16,7.655Z" fill="url(#linear-gradient-2)"/>
    <g id="Group_15808" data-name="Group 15808">
      <path id="Path_72020" data-name="Path 72020" d="M36.83,0,34.34.814,31.215,1.8,24.966,3.769,18.693,5.663,13.547,7.185a14.141,14.141,0,0,1,2.337.056,15.065,15.065,0,0,1,3.477.831,16.582,16.582,0,0,1,5.026,2.957l4.291-4.078Z" fill="#0d0dff"/>
      <path id="Path_72021" data-name="Path 72021" d="M26.2,12.952a12.01,12.01,0,0,1,1.347,3.171,20.942,20.942,0,0,1,.366,4.966c.014.926,0,1.6,0,2.027-.018,1.516-.034,3.7-.028,6.491l5.773-19.133L36.826,0Q34.07,3.372,31.309,6.737,28.761,9.847,26.2,12.952Z" fill="#0d0dff"/>
    </g>
    <path id="Path_72022" data-name="Path 72022" d="M23.917,10.637c.181.139.372.3.566.471.229.206.431.411.61.6L36.832,0Z" fill="url(#linear-gradient-3)"/>
    <path id="Path_72023" data-name="Path 72023" d="M25.092,13.2c-10.639,9.818-9.066,25.772-.515,33.54,6.642,6.035,17.808,6.789,26.829,1.142" fill="none" stroke="#0d0dff" stroke-miterlimit="10" stroke-width="1" stroke-dasharray="5"/>
    <path id="Path_72024" data-name="Path 72024" d="M38.119,37.755a7.378,7.378,0,0,1,1.557-4.7,10,10,0,0,1,4.289-3.068A17.093,17.093,0,0,1,50.3,28.9a29.1,29.1,0,0,1,4.043.3,18.5,18.5,0,0,1,3.77.9V28.038a6.671,6.671,0,0,0-1.967-5.091,7.8,7.8,0,0,0-5.573-1.859,12.241,12.241,0,0,0-4.507.847,24.956,24.956,0,0,0-4.562,2.431l-1.748-3.387a23.215,23.215,0,0,1,5.573-2.868,17.737,17.737,0,0,1,5.79-.956q5.461,0,8.632,3.007t3.169,8.367V40.5a1.9,1.9,0,0,0,.355,1.273,1.637,1.637,0,0,0,1.175.46v3.715q-.711.11-1.229.164c-.346.035-.628.054-.847.054a3.267,3.267,0,0,1-2.54-.929,3.44,3.44,0,0,1-.956-1.967l-.109-1.8a12.154,12.154,0,0,1-4.862,3.715,14.791,14.791,0,0,1-5.955,1.311,10.836,10.836,0,0,1-5.081-1.167,8.913,8.913,0,0,1-3.5-3.149A8.08,8.08,0,0,1,38.119,37.755Zm18.576,2a7.129,7.129,0,0,0,1.038-1.542,3.162,3.162,0,0,0,.382-1.325V33.367a20.747,20.747,0,0,0-3.551-1,19.717,19.717,0,0,0-3.66-.352,10.956,10.956,0,0,0-5.928,1.433,4.428,4.428,0,0,0-2.267,3.922,5.16,5.16,0,0,0,.737,2.623,5.647,5.647,0,0,0,2.186,2.083,7.221,7.221,0,0,0,3.578.811,10.424,10.424,0,0,0,4.262-.892,9.215,9.215,0,0,0,3.223-2.245Z" fill="url(#linear-gradient-4)"/>
    <path id="Path_72025" data-name="Path 72025" d="M96.9,52.4V17.591h-.133v-.056H92.51v5.276a12.321,12.321,0,0,0-2.07-2.428,12.991,12.991,0,0,0-2.246-1.7,11.559,11.559,0,0,0-6.063-1.639,12.126,12.126,0,0,0-5.3,1.175,13.69,13.69,0,0,0-4.288,3.2,15,15,0,0,0-2.868,4.7A15.579,15.579,0,0,0,68.637,31.8a17.016,17.016,0,0,0,.929,5.626,15.108,15.108,0,0,0,2.622,4.725A12.678,12.678,0,0,0,76.23,45.4a11.231,11.231,0,0,0,5.189,1.2,11.426,11.426,0,0,0,6.648-2,14.02,14.02,0,0,0,3.894-4.039V53.807a3.683,3.683,0,0,0,1.12,2.7,3.623,3.623,0,0,0,2.649,1.12,20.588,20.588,0,0,0,2.567-.164V53.312A1.382,1.382,0,0,1,96.9,52.4ZM86.879,41.531a8.337,8.337,0,0,1-3.688.809,8.6,8.6,0,0,1-4.917-1.432,10.08,10.08,0,0,1-3.36-3.812,11.138,11.138,0,0,1-1.229-5.191,10.975,10.975,0,0,1,.714-3.894A11.433,11.433,0,0,1,76.393,24.6,9.764,9.764,0,0,1,79.425,22.2a8.419,8.419,0,0,1,3.879-.892,8.153,8.153,0,0,1,2.868.54c.231.086.458.182.682.285a11.314,11.314,0,0,1,1.864,1.14,9.37,9.37,0,0,1,2.1,2.212,7.217,7.217,0,0,1,1.147,2.649v8.193a14.515,14.515,0,0,1-3.6,4.318A10.1,10.1,0,0,1,86.879,41.531Z" fill="url(#linear-gradient-5)"/>
    <path id="Path_72026" data-name="Path 72026" d="M104.77,6.064h4.808V38.72q0,2.359.656,2.908a2.381,2.381,0,0,0,1.584.549A9.462,9.462,0,0,0,114,41.931a13.806,13.806,0,0,0,1.748-.519l.765,3.933a15.668,15.668,0,0,1-2.841.819,14.889,14.889,0,0,1-2.9.328,5.545,5.545,0,0,1-6.01-6.035Z" fill="url(#linear-gradient-6)"/>
    <g id="Group_15809" data-name="Group 15809">
      <path id="Path_72027" data-name="Path 72027" d="M134.143,46.493a14.434,14.434,0,0,1-5.873-1.166,14.121,14.121,0,0,1-4.589-3.2,14.6,14.6,0,0,1-3-4.691,15.022,15.022,0,0,1-1.065-5.64,14.7,14.7,0,0,1,1.857-7.321,14.269,14.269,0,0,1,12.724-7.32,13.685,13.685,0,0,1,7.512,2.035,14.262,14.262,0,0,1,4.971,5.318,14.66,14.66,0,0,1,1.776,7.083q0,.543-.027,1.058a5.931,5.931,0,0,1-.082.787H124.691a10.6,10.6,0,0,0,1.557,4.888,9.747,9.747,0,0,0,3.469,3.349,9.11,9.11,0,0,0,4.589,1.215,9.893,9.893,0,0,0,4.944-1.311,7.012,7.012,0,0,0,3.2-3.442l4.152,1.147A11,11,0,0,1,143.843,43a13.441,13.441,0,0,1-4.32,2.567A15.255,15.255,0,0,1,134.143,46.493ZM124.523,30.1h19.45a10.272,10.272,0,0,0-1.584-4.86,9.824,9.824,0,0,0-3.5-3.294,9.487,9.487,0,0,0-4.7-1.188,9.374,9.374,0,0,0-4.644,1.188,9.6,9.6,0,0,0-3.469,3.294A10.438,10.438,0,0,0,124.523,30.1Z" fill="url(#linear-gradient-7)"/>
      <path id="Path_72028" data-name="Path 72028" d="M166.431,46.493a14.434,14.434,0,0,1-5.873-1.166,14.125,14.125,0,0,1-4.59-3.2,14.58,14.58,0,0,1-3-4.691A15.021,15.021,0,0,1,151.9,31.8a14.688,14.688,0,0,1,1.852-7.321,14.269,14.269,0,0,1,12.73-7.32A13.685,13.685,0,0,1,174,19.19a14.273,14.273,0,0,1,4.972,5.318,14.66,14.66,0,0,1,1.776,7.083c0,.362-.01.715-.027,1.058a5.933,5.933,0,0,1-.082.787H156.979a10.62,10.62,0,0,0,1.557,4.888,9.75,9.75,0,0,0,3.47,3.349,9.1,9.1,0,0,0,4.589,1.215,9.893,9.893,0,0,0,4.944-1.311,7.012,7.012,0,0,0,3.2-3.442l4.152,1.147A11,11,0,0,1,176.132,43a13.454,13.454,0,0,1-4.316,2.568A15.263,15.263,0,0,1,166.431,46.493ZM156.815,30.1h19.45a10.273,10.273,0,0,0-1.585-4.86,9.824,9.824,0,0,0-3.5-3.294,9.487,9.487,0,0,0-4.7-1.188,9.374,9.374,0,0,0-4.644,1.188,9.6,9.6,0,0,0-3.469,3.294,10.433,10.433,0,0,0-1.552,4.859Z" fill="url(#linear-gradient-8)"/>
    </g>
  </g>
</svg>
