<svg id="Group_15803" data-name="Group 15803" xmlns="http://www.w3.org/2000/svg" xmlns:xlink="http://www.w3.org/1999/xlink" width="102.772" height="32.983" viewBox="0 0 102.772 32.983">
  <defs>
    <clipPath id="clip-path">
      <path id="Path_5389" data-name="Path 5389" d="M-469.53,2253.344h3.244c3.1,0,5.609-2.9,5.609-6.479s-2.511-6.477-5.609-6.477h-3.244c3.1,0,5.609,2.9,5.609,6.477S-466.431,2253.344-469.53,2253.344Z" transform="translate(469.53 -2240.388)"/>
    </clipPath>
    <clipPath id="clip-path-2">
      <path id="Path_5405" data-name="Path 5405" d="M-1403.632,2253.344h3.244c3.1,0,5.609-2.9,5.609-6.479s-2.51-6.477-5.609-6.477h-3.244c3.1,0,5.609,2.9,5.609,6.477S-1400.533,2253.344-1403.632,2253.344Z" transform="translate(1403.632 -2240.388)"/>
    </clipPath>
    <linearGradient id="linear-gradient" x1="1" y1="0.5" x2="0" y2="0.5" gradientUnits="objectBoundingBox">
      <stop offset="0" stop-color="#fff"/>
      <stop offset="0" stop-color="#827cbc"/>
      <stop offset="1" stop-color="#4762af"/>
      <stop offset="1"/>
    </linearGradient>
  </defs>
  <ellipse id="Ellipse_192" data-name="Ellipse 192" cx="51.386" cy="0.457" rx="51.386" ry="0.457" transform="translate(0 32.068)" fill="#58595b" style="mix-blend-mode: multiply;isolation: isolate"/>
  <g id="Group_4290" data-name="Group 4290" transform="translate(0 0)">
    <g id="Group_4251" data-name="Group 4251" transform="translate(15.951 19.57)">
      <g id="Group_4245" data-name="Group 4245" transform="translate(0)">
        <g id="Group_4243" data-name="Group 4243" transform="translate(17.369)">
          <path id="Path_5378" data-name="Path 5378" d="M-874.951,2253.212q.137-.033.272-.072a5.056,5.056,0,0,0,.527-.189q.129-.055.255-.116a5.4,5.4,0,0,0,.953-.6,6.152,6.152,0,0,0,1.515-1.75,7.173,7.173,0,0,0,.958-3.622h0c0-.162-.006-.322-.017-.48,0-.021,0-.043,0-.064-.012-.161-.028-.321-.05-.478q-.045-.327-.117-.642l0-.01q-.07-.3-.164-.594c-.006-.02-.014-.04-.02-.059-.053-.16-.111-.318-.175-.472l0-.006c-.064-.154-.135-.3-.21-.452l-.03-.059c-.072-.14-.149-.275-.23-.407l-.043-.071q-.122-.2-.257-.379l-.056-.075q-.083-.11-.17-.216l-.059-.071c-.078-.092-.158-.182-.241-.268l0,0c-.082-.085-.167-.167-.253-.247l-.053-.048q-.118-.107-.241-.206l-.033-.027q-.158-.126-.324-.239l-.042-.028c-.1-.07-.211-.137-.32-.2l-.026-.016c-.114-.065-.231-.124-.349-.18l-.06-.028c-.111-.051-.224-.1-.338-.14l-.028-.011c-.12-.044-.243-.082-.366-.117l-.079-.021c-.118-.031-.237-.059-.358-.081l-.023,0c-.126-.022-.253-.039-.381-.051l-.092-.008c-.13-.01-.26-.018-.392-.018h3.244c.132,0,.262.007.392.018l.092.008c.128.013.256.029.381.051l.023,0c.121.022.24.05.358.081l.079.021c.124.035.246.073.366.117l.028.011c.114.042.227.09.338.14l.06.028c.118.056.235.115.349.18l.026.016c.109.062.215.129.32.2l.042.028q.165.113.324.239l.009.007.023.02q.124.1.242.207l.052.048c.087.08.171.162.254.248l0,0c.083.086.163.176.241.268l.059.071q.087.105.17.216c.013.017.026.032.039.049l.018.026q.134.184.257.379l.043.071c.081.132.158.268.23.408l.029.059c.075.148.146.3.21.453l0,0c.064.154.122.313.175.473,0,.014.01.026.015.04s0,.012.005.018q.094.291.164.594l0,.01a7.362,7.362,0,0,1,.167,1.119c0,.021,0,.043,0,.064.01.159.017.319.017.482a7,7,0,0,1-1.643,4.581,5.779,5.779,0,0,1-1.293,1.116,5.166,5.166,0,0,1-1.272.578,4.913,4.913,0,0,1-1.4.2h-3.244a4.9,4.9,0,0,0,.574-.033A4.965,4.965,0,0,0-874.951,2253.212Z" transform="translate(881.69 -2240.388)" fill="#231f20"/>
          <g id="Group_4241" data-name="Group 4241" transform="translate(0)">
            <path id="Path_5379" data-name="Path 5379" d="M-815.484,2240.388c-3.168,0-5.735,2.9-5.735,6.477s2.567,6.479,5.735,6.479,5.735-2.9,5.735-6.479S-812.316,2240.388-815.484,2240.388Z" transform="translate(821.219 -2240.388)" fill="#939598"/>
          </g>
          <g id="Group_4242" data-name="Group 4242" transform="translate(0)">
            <path id="Path_5380" data-name="Path 5380" d="M-810.99,2240.388c-3.1,0-5.609,2.9-5.609,6.477s2.511,6.479,5.609,6.479,5.609-2.9,5.609-6.479S-807.891,2240.388-810.99,2240.388Z" transform="translate(816.599 -2240.388)"/>
          </g>
        </g>
        <g id="Group_4244" data-name="Group 4244" transform="translate(0 2.767)">
          <rect id="Rectangle_2439" data-name="Rectangle 2439" width="24.795" height="5.39"/>
          <ellipse id="Ellipse_193" data-name="Ellipse 193" cx="2.804" cy="2.804" rx="2.804" ry="2.804" transform="translate(11.429 7.471) rotate(-103.283)"/>
        </g>
      </g>
      <g id="Group_4250" data-name="Group 4250" transform="translate(50.947)">
        <g id="Group_4248" data-name="Group 4248" transform="translate(17.369)">
          <path id="Path_5381" data-name="Path 5381" d="M-1809.053,2253.212q.137-.033.271-.072a5.056,5.056,0,0,0,.527-.189q.129-.055.255-.116a5.4,5.4,0,0,0,.953-.6,6.15,6.15,0,0,0,1.515-1.75,7.172,7.172,0,0,0,.958-3.622h0c0-.162-.006-.322-.017-.48,0-.021,0-.043,0-.064-.012-.161-.028-.321-.05-.478q-.045-.327-.117-.642l0-.01c-.046-.2-.1-.4-.164-.594l-.02-.059c-.053-.16-.111-.318-.175-.472l0-.006c-.064-.154-.135-.3-.21-.452l-.03-.059c-.072-.14-.149-.275-.23-.407l-.043-.071q-.122-.2-.257-.379l-.056-.075q-.083-.11-.17-.216l-.059-.071c-.078-.092-.158-.182-.241-.268l0,0c-.082-.085-.167-.167-.253-.247l-.053-.048q-.118-.107-.241-.206l-.033-.027q-.158-.126-.324-.239l-.042-.028c-.1-.07-.211-.137-.319-.2l-.026-.016c-.114-.065-.23-.124-.349-.18l-.06-.028c-.111-.051-.224-.1-.338-.14l-.028-.011c-.12-.044-.243-.082-.366-.117l-.079-.021c-.118-.031-.237-.059-.358-.081l-.022,0c-.126-.022-.253-.039-.381-.051l-.092-.008c-.13-.01-.26-.018-.392-.018h3.244c.132,0,.262.007.392.018l.092.008c.128.013.256.029.381.051l.023,0c.121.022.24.05.358.081l.079.021c.124.035.246.073.366.117l.028.011c.114.042.227.09.338.14l.061.028c.118.056.235.115.349.18l.026.016c.109.062.215.129.32.2l.042.028q.165.113.324.239l.009.007.023.02q.123.1.242.207l.052.048c.086.08.172.162.254.248l0,0c.083.086.163.176.241.268l.059.071q.087.105.17.216c.013.017.026.032.039.049l.018.026q.134.184.257.379l.043.071c.081.132.158.268.23.408l.029.059c.074.148.146.3.21.453l0,0c.064.154.122.313.176.473,0,.014.01.026.015.04s0,.012.005.018q.094.291.164.594s0,.007,0,.01a7.354,7.354,0,0,1,.167,1.119c0,.021,0,.043,0,.064.01.159.017.319.017.482a7,7,0,0,1-1.643,4.581,5.778,5.778,0,0,1-1.293,1.116,5.164,5.164,0,0,1-1.272.578,4.914,4.914,0,0,1-1.4.2h-3.244a4.9,4.9,0,0,0,.574-.033A4.969,4.969,0,0,0-1809.053,2253.212Z" transform="translate(1815.793 -2240.388)" fill="#231f20"/>
          <g id="Group_4246" data-name="Group 4246" transform="translate(0)">
            <path id="Path_5382" data-name="Path 5382" d="M-1749.586,2240.388c-3.168,0-5.735,2.9-5.735,6.477s2.567,6.479,5.735,6.479,5.735-2.9,5.735-6.479S-1746.418,2240.388-1749.586,2240.388Z" transform="translate(1755.321 -2240.388)" fill="#939598"/>
          </g>
          <g id="Group_4247" data-name="Group 4247">
            <path id="Path_5383" data-name="Path 5383" d="M-1745.092,2240.388c-3.1,0-5.609,2.9-5.609,6.477s2.511,6.479,5.609,6.479,5.609-2.9,5.609-6.479S-1741.993,2240.388-1745.092,2240.388Z" transform="translate(1750.701 -2240.388)"/>
          </g>
        </g>
        <g id="Group_4249" data-name="Group 4249" transform="translate(0 2.767)">
          <rect id="Rectangle_2440" data-name="Rectangle 2440" width="24.795" height="5.39"/>
          <circle id="Ellipse_194" data-name="Ellipse 194" cx="2.804" cy="2.804" r="2.804" transform="translate(13.514 8.063) rotate(-135)"/>
        </g>
      </g>
    </g>
    <path id="Rectangle_2441" data-name="Rectangle 2441" d="M0,0H88.249A10.451,10.451,0,0,1,98.7,10.451v0a1.88,1.88,0,0,1-1.88,1.88H10.207A10.207,10.207,0,0,1,0,2.125V0A0,0,0,0,1,0,0Z" transform="translate(3.176 14.222)"/>
    <g id="Group_4263" data-name="Group 4263" transform="translate(11.146 19.57)">
      <g id="Group_4254" data-name="Group 4254" transform="translate(5.609)" style="isolation: isolate">
        <path id="Path_5384" data-name="Path 5384" d="M-469.53,2253.344h3.244c3.1,0,5.609-2.9,5.609-6.479s-2.511-6.477-5.609-6.477h-3.244c3.1,0,5.609,2.9,5.609,6.477S-466.431,2253.344-469.53,2253.344Z" transform="translate(469.53 -2240.388)"/>
        <g id="Group_4253" data-name="Group 4253" clip-path="url(#clip-path)">
          <g id="Group_4252" data-name="Group 4252" style="isolation: isolate">
            <path id="Path_5385" data-name="Path 5385" d="M-463.921,2341.4a7.5,7.5,0,0,0-.071-1.023h3.244a7.5,7.5,0,0,1,.071,1.023c0,3.578-2.511,6.478-5.609,6.478h-3.244C-466.432,2347.878-463.921,2344.977-463.921,2341.4Z" transform="translate(469.53 -2334.923)"/>
            <path id="Path_5386" data-name="Path 5386" d="M-464.982,2282.127a6.751,6.751,0,0,1,.979,1.912,7.243,7.243,0,0,1,.289,1.265h-3.244a7.246,7.246,0,0,0-.289-1.265h0a6.751,6.751,0,0,0-.979-1.912Z" transform="translate(472.496 -2279.85)"/>
            <path id="Path_5387" data-name="Path 5387" d="M-441.728,2261.411a6.021,6.021,0,0,1,1.083,1.13h-3.244a6.02,6.02,0,0,0-1.083-1.13Z" transform="translate(448.158 -2260.264)"/>
            <path id="Path_5388" data-name="Path 5388" d="M-425.109,2240.388h3.244a5.08,5.08,0,0,1,3.186,1.147h-3.244A5.08,5.08,0,0,0-425.109,2240.388Z" transform="translate(425.109 -2240.388)"/>
          </g>
        </g>
      </g>
      <g id="Group_4255" data-name="Group 4255" transform="translate(0)">
        <path id="Path_5390" data-name="Path 5390" d="M-408.932,2240.388c-3.168,0-5.735,2.9-5.735,6.477s2.567,6.479,5.735,6.479,5.735-2.9,5.735-6.479S-405.764,2240.388-408.932,2240.388Z" transform="translate(414.667 -2240.388)" fill="#939598"/>
      </g>
      <g id="Group_4256" data-name="Group 4256" transform="translate(0)">
        <path id="Path_5391" data-name="Path 5391" d="M-404.438,2240.388c-3.1,0-5.609,2.9-5.609,6.477s2.511,6.479,5.609,6.479,5.609-2.9,5.609-6.479S-401.339,2240.388-404.438,2240.388Z" transform="translate(410.047 -2240.388)" fill="#414042"/>
      </g>
      <g id="Group_4257" data-name="Group 4257" transform="translate(1.438 1.66)">
        <path id="Path_5392" data-name="Path 5392" d="M-379.518,2270.826c-2.3,0-4.172,2.157-4.172,4.817s1.867,4.818,4.172,4.818,4.172-2.157,4.172-4.818S-377.214,2270.826-379.518,2270.826Z" transform="translate(383.69 -2270.826)" fill="#231f20"/>
      </g>
      <g id="Group_4258" data-name="Group 4258" transform="translate(2.045 2.362)" style="mix-blend-mode: multiply;isolation: isolate">
        <path id="Path_5393" data-name="Path 5393" d="M-368.985,2283.693a3.869,3.869,0,0,0-3.564,4.115,3.87,3.87,0,0,0,3.564,4.116,3.87,3.87,0,0,0,3.564-4.116A3.869,3.869,0,0,0-368.985,2283.693Z" transform="translate(372.549 -2283.693)"/>
      </g>
      <path id="Path_5394" data-name="Path 5394" d="M-376.2,2274.938c2.2,0,3.98,2.058,3.98,4.6s-1.781,4.6-3.98,4.6-3.98-2.058-3.98-4.6S-378.4,2274.938-376.2,2274.938Zm-.612,5.057-2.886.9a4.432,4.432,0,0,0,.79,1.535Zm-2.146-3.288a4.457,4.457,0,0,0-.766,1.552l2.874.892Zm1.953-1.331.767,3.315.771-3.335a3.229,3.229,0,0,0-.733-.085A3.213,3.213,0,0,0-377.005,2275.376Zm3.562,6.987a4.454,4.454,0,0,0,.766-1.552l-2.874-.892Zm.741-4.184a4.432,4.432,0,0,0-.79-1.535l-2.1,2.431Zm-2.693,5.515-.767-3.315-.771,3.335a3.23,3.23,0,0,0,.733.085A3.224,3.224,0,0,0-375.4,2283.694Z" transform="translate(381.81 -2273.054)" fill="#e6e7e8"/>
      <path id="Path_5395" data-name="Path 5395" d="M-371.152,2285.161a9.009,9.009,0,0,0-3.649.736,4.906,4.906,0,0,1-.04-.593,4.005,4.005,0,0,1,3.689-4.26,4.005,4.005,0,0,1,3.689,4.26,4.912,4.912,0,0,1-.04.593A9.009,9.009,0,0,0-371.152,2285.161Z" transform="translate(376.761 -2278.827)" fill="#d1d3d4" style="mix-blend-mode: multiply;isolation: isolate"/>
      <path id="Path_5396" data-name="Path 5396" d="M-376.056,2274.938c2.2,0,3.976,2.057,3.976,4.594s-1.78,4.595-3.976,4.595-3.976-2.057-3.976-4.595S-378.252,2274.938-376.056,2274.938Zm0,8.865a4.015,4.015,0,0,0,3.7-4.272,4.015,4.015,0,0,0-3.7-4.27,4.015,4.015,0,0,0-3.7,4.27A4.015,4.015,0,0,0-376.056,2283.8Z" transform="translate(381.661 -2273.054)" fill="#fff"/>
      <g id="Group_4259" data-name="Group 4259" transform="translate(4.911 5.072)" style="mix-blend-mode: multiply;isolation: isolate">
        <path id="Path_5397" data-name="Path 5397" d="M-337.818,2333.389a1.321,1.321,0,0,0-1.217,1.405c0,.776.545,2.65,1.217,2.65s1.217-1.874,1.217-2.65A1.321,1.321,0,0,0-337.818,2333.389Z" transform="translate(339.035 -2333.389)" fill="#939598"/>
      </g>
      <g id="Group_4262" data-name="Group 4262" transform="translate(4.392 5.072)">
        <g id="Group_4260" data-name="Group 4260" transform="translate(0.519)">
          <path id="Path_5398" data-name="Path 5398" d="M-337.818,2333.389a1.321,1.321,0,0,0-1.217,1.405,1.321,1.321,0,0,0,1.217,1.406,1.321,1.321,0,0,0,1.217-1.406A1.321,1.321,0,0,0-337.818,2333.389Z" transform="translate(339.035 -2333.389)"/>
        </g>
        <g id="Group_4261" data-name="Group 4261" transform="translate(0)">
          <path id="Path_5399" data-name="Path 5399" d="M-328.3,2333.389a1.321,1.321,0,0,0-1.217,1.405,1.321,1.321,0,0,0,1.217,1.406,1.321,1.321,0,0,0,1.217-1.406A1.321,1.321,0,0,0-328.3,2333.389Z" transform="translate(329.516 -2333.389)" fill="#fff"/>
        </g>
      </g>
    </g>
    <g id="Group_4275" data-name="Group 4275" transform="translate(62.093 19.57)">
      <g id="Group_4266" data-name="Group 4266" transform="translate(5.609)" style="isolation: isolate">
        <path id="Path_5400" data-name="Path 5400" d="M-1403.632,2253.344h3.244c3.1,0,5.609-2.9,5.609-6.479s-2.51-6.477-5.609-6.477h-3.244c3.1,0,5.609,2.9,5.609,6.477S-1400.533,2253.344-1403.632,2253.344Z" transform="translate(1403.632 -2240.388)"/>
        <g id="Group_4265" data-name="Group 4265" clip-path="url(#clip-path-2)">
          <g id="Group_4264" data-name="Group 4264" style="isolation: isolate">
            <path id="Path_5401" data-name="Path 5401" d="M-1398.023,2341.4a7.5,7.5,0,0,0-.071-1.023h3.244a7.5,7.5,0,0,1,.071,1.023c0,3.578-2.51,6.478-5.609,6.478h-3.244C-1400.533,2347.878-1398.023,2344.977-1398.023,2341.4Z" transform="translate(1403.632 -2334.923)"/>
            <path id="Path_5402" data-name="Path 5402" d="M-1399.085,2282.127a6.75,6.75,0,0,1,.979,1.912,7.238,7.238,0,0,1,.289,1.265h-3.244a7.238,7.238,0,0,0-.289-1.265h0a6.75,6.75,0,0,0-.979-1.912Z" transform="translate(1406.599 -2279.85)"/>
            <path id="Path_5403" data-name="Path 5403" d="M-1375.831,2261.411a6.018,6.018,0,0,1,1.083,1.13h-3.244a6.021,6.021,0,0,0-1.083-1.13Z" transform="translate(1382.261 -2260.264)"/>
            <path id="Path_5404" data-name="Path 5404" d="M-1359.211,2240.388h3.244a5.08,5.08,0,0,1,3.186,1.147h-3.244A5.081,5.081,0,0,0-1359.211,2240.388Z" transform="translate(1359.211 -2240.388)"/>
          </g>
        </g>
      </g>
      <g id="Group_4267" data-name="Group 4267" transform="translate(0)">
        <path id="Path_5406" data-name="Path 5406" d="M-1343.035,2240.388c-3.168,0-5.735,2.9-5.735,6.477s2.567,6.479,5.735,6.479,5.735-2.9,5.735-6.479S-1339.867,2240.388-1343.035,2240.388Z" transform="translate(1348.77 -2240.388)" fill="#939598"/>
      </g>
      <g id="Group_4268" data-name="Group 4268" transform="translate(0)">
        <path id="Path_5407" data-name="Path 5407" d="M-1338.54,2240.388c-3.1,0-5.609,2.9-5.609,6.477s2.511,6.479,5.609,6.479,5.609-2.9,5.609-6.479S-1335.441,2240.388-1338.54,2240.388Z" transform="translate(1344.149 -2240.388)" fill="#414042"/>
      </g>
      <g id="Group_4269" data-name="Group 4269" transform="translate(1.437 1.66)">
        <path id="Path_5408" data-name="Path 5408" d="M-1313.62,2270.826c-2.3,0-4.172,2.157-4.172,4.817s1.867,4.818,4.172,4.818,4.172-2.157,4.172-4.818S-1311.316,2270.826-1313.62,2270.826Z" transform="translate(1317.792 -2270.826)" fill="#231f20"/>
      </g>
      <g id="Group_4270" data-name="Group 4270" transform="translate(2.045 2.362)" style="mix-blend-mode: multiply;isolation: isolate">
        <path id="Path_5409" data-name="Path 5409" d="M-1303.087,2283.693a3.869,3.869,0,0,0-3.564,4.115,3.87,3.87,0,0,0,3.564,4.116,3.87,3.87,0,0,0,3.564-4.116A3.869,3.869,0,0,0-1303.087,2283.693Z" transform="translate(1306.651 -2283.693)"/>
      </g>
      <path id="Path_5410" data-name="Path 5410" d="M-1310.3,2274.938c2.2,0,3.98,2.058,3.98,4.6s-1.782,4.6-3.98,4.6-3.98-2.058-3.98-4.6S-1312.5,2274.938-1310.3,2274.938Zm-.612,5.057-2.886.9a4.433,4.433,0,0,0,.79,1.535Zm-2.146-3.288a4.456,4.456,0,0,0-.766,1.552l2.874.892Zm1.953-1.331.767,3.315.771-3.335a3.229,3.229,0,0,0-.733-.085A3.213,3.213,0,0,0-1311.108,2275.376Zm3.562,6.987a4.455,4.455,0,0,0,.766-1.552l-2.874-.892Zm.74-4.184a4.434,4.434,0,0,0-.79-1.535l-2.1,2.431Zm-2.693,5.515-.766-3.315-.771,3.335a3.231,3.231,0,0,0,.733.085A3.223,3.223,0,0,0-1309.5,2283.694Z" transform="translate(1315.913 -2273.054)" fill="#e6e7e8"/>
      <path id="Path_5411" data-name="Path 5411" d="M-1305.254,2285.161a9.009,9.009,0,0,0-3.649.736,4.9,4.9,0,0,1-.04-.593,4.005,4.005,0,0,1,3.689-4.26,4.005,4.005,0,0,1,3.689,4.26,4.925,4.925,0,0,1-.04.593A9.01,9.01,0,0,0-1305.254,2285.161Z" transform="translate(1310.863 -2278.827)" fill="#d1d3d4" style="mix-blend-mode: multiply;isolation: isolate"/>
      <path id="Path_5412" data-name="Path 5412" d="M-1310.158,2274.938c2.2,0,3.976,2.057,3.976,4.594s-1.78,4.595-3.976,4.595-3.976-2.057-3.976-4.595S-1312.354,2274.938-1310.158,2274.938Zm0,8.865a4.015,4.015,0,0,0,3.7-4.272,4.015,4.015,0,0,0-3.7-4.27,4.015,4.015,0,0,0-3.7,4.27A4.015,4.015,0,0,0-1310.158,2283.8Z" transform="translate(1315.763 -2273.054)" fill="#fff"/>
      <g id="Group_4271" data-name="Group 4271" transform="translate(4.911 5.072)" style="mix-blend-mode: multiply;isolation: isolate">
        <path id="Path_5413" data-name="Path 5413" d="M-1271.92,2333.389a1.321,1.321,0,0,0-1.217,1.405c0,.776.545,2.65,1.217,2.65s1.217-1.874,1.217-2.65A1.321,1.321,0,0,0-1271.92,2333.389Z" transform="translate(1273.137 -2333.389)" fill="#939598"/>
      </g>
      <g id="Group_4274" data-name="Group 4274" transform="translate(4.392 5.072)">
        <g id="Group_4272" data-name="Group 4272" transform="translate(0.519)">
          <path id="Path_5414" data-name="Path 5414" d="M-1271.92,2333.389a1.321,1.321,0,0,0-1.217,1.405,1.321,1.321,0,0,0,1.217,1.406,1.321,1.321,0,0,0,1.217-1.406A1.321,1.321,0,0,0-1271.92,2333.389Z" transform="translate(1273.137 -2333.389)"/>
        </g>
        <g id="Group_4273" data-name="Group 4273" transform="translate(0)">
          <path id="Path_5415" data-name="Path 5415" d="M-1262.4,2333.389a1.321,1.321,0,0,0-1.217,1.405,1.321,1.321,0,0,0,1.217,1.406,1.321,1.321,0,0,0,1.217-1.406A1.321,1.321,0,0,0-1262.4,2333.389Z" transform="translate(1263.618 -2333.389)" fill="#fff"/>
        </g>
      </g>
    </g>
    <g id="Group_4278" data-name="Group 4278" transform="translate(26.15 25.95)">
      <g id="Group_4276" data-name="Group 4276" transform="translate(3.466)">
        <rect id="Rectangle_2442" data-name="Rectangle 2442" width="1.752" height="3.158" transform="translate(0)"/>
        <rect id="Rectangle_2443" data-name="Rectangle 2443" width="1.752" height="3.158" transform="translate(26.844)"/>
        <rect id="Rectangle_2444" data-name="Rectangle 2444" width="1.752" height="3.158" transform="translate(13.422)"/>
      </g>
      <g id="Group_4277" data-name="Group 4277" transform="translate(0 1.168)">
        <path id="Rectangle_2445" data-name="Rectangle 2445" d="M0,0H34.228a0,0,0,0,1,0,0V0a1.99,1.99,0,0,1-1.99,1.99H0a0,0,0,0,1,0,0V0A0,0,0,0,1,0,0Z" fill="#231f20"/>
        <path id="Rectangle_2446" data-name="Rectangle 2446" d="M0,0H28.061a0,0,0,0,1,0,0V0a1,1,0,0,1-1,1H1A1,1,0,0,1,0,0V0A0,0,0,0,1,0,0Z" transform="translate(1.928)" fill="#fff"/>
        <path id="Rectangle_2447" data-name="Rectangle 2447" d="M0,0H2.167a0,0,0,0,1,0,0V0A1.99,1.99,0,0,1,.177,1.99H0a0,0,0,0,1,0,0V0A0,0,0,0,1,0,0Z" transform="translate(32.061)" fill="#414042"/>
        <path id="Rectangle_2448" data-name="Rectangle 2448" d="M0,0H26.523a0,0,0,0,1,0,0V0a1,1,0,0,1-1,1H1A1,1,0,0,1,0,0V0A0,0,0,0,1,0,0Z" transform="translate(3.466)" fill="#d1d3d4"/>
      </g>
    </g>
    <path id="Path_5416" data-name="Path 5416" d="M-1883.67,1891.277h29.27c0-1.4,2.26-8.555,2.264-8.558,1.526-1.381,21.68-1.679,38.513.051,1.663.171,5.824,2.4,13.061,8.674,3.547.408,14.011,1.694,15.592,2.839,1.908,1.381,4.323,6.355,2.921,12.64h-27.339c0-4.826-3.308-8.738-7.389-8.738s-7.389,3.912-7.389,8.738h-36.012c0-4.826-3.308-8.738-7.389-8.738s-7.389,3.912-7.389,8.738h-.579c-2.3-.9-3.23-1.335-7.042-2.97C-1885.329,1902.774-1884.094,1892.97-1883.67,1891.277Z" transform="translate(1884.405 -1881.576)" fill="url(#linear-gradient)"/>
    <path id="Path_5417" data-name="Path 5417" d="M-1883.511,1898.96h29.27c0-1.4.926-7.6,2.185-8.507,1.6-1.151,9.364-.838,13.766,0,1.642.313,5.824,2.4,13.061,8.673,3.547.408,14.011,1.694,15.592,2.839a9.009,9.009,0,0,1,2.757,4.672,6.522,6.522,0,0,0,6.27,4.717h19.131a17.263,17.263,0,0,1-.41,3.251h-27.339c0-4.826-3.308-8.738-7.389-8.738s-7.389,3.912-7.389,8.738h-36.012c0-4.826-3.308-8.738-7.389-8.738s-7.389,3.912-7.389,8.738h-.579c-2.3-.9-3.23-1.335-7.042-2.97C-1885.169,1910.457-1883.934,1900.653-1883.511,1898.96Z" transform="translate(1884.245 -1889.259)" fill="url(#linear-gradient)"/>
    <path id="Path_5418" data-name="Path 5418" d="M-1804.956,2302.028h9.112c2.619,0,2.755,1.33,3.193,3.078h-17.533C-1809.746,2303.358-1807.575,2302.028-1804.956,2302.028Z" transform="translate(1891.38 -2279.096)"/>
    <path id="Path_5419" data-name="Path 5419" d="M-1358.418,1901.039h-33.941a20.442,20.442,0,0,1,.341-2.078h29.27c0-1.4.926-7.6,2.185-8.507,1.6-1.151,9.364-.838,13.766,0,1.642.313,5.824,2.4,13.061,8.673,3.547.408,14.011,1.694,15.591,2.839a5.72,5.72,0,0,1,1.334,1.483C-1323.129,1901.231-1336.039,1901.039-1358.418,1901.039Z" transform="translate(1392.752 -1889.259)" fill="#e6e7e8"/>
    <path id="Path_5420" data-name="Path 5420" d="M-1404.425,2133.917a1.169,1.169,0,0,0,.978-.531,8.812,8.812,0,0,1,7.29-4.311,8.332,8.332,0,0,1,5.974,2.661,7.171,7.171,0,0,0,5.129,2.181h28.7a7.171,7.171,0,0,0,5.13-2.181,8.332,8.332,0,0,1,5.974-2.661c5.25,0,9.489,5.332,9.362,11.844l0,0h-1.971c0-4.826-3.308-8.738-7.389-8.738s-7.389,3.912-7.389,8.738h-1.967l0,0a14.07,14.07,0,0,1,.452-3.844h-33.089a14.07,14.07,0,0,1,.452,3.844l0,0h-1.854c0-4.826-3.308-8.738-7.389-8.738s-7.389,3.912-7.389,8.738h-.579c-.563-.22-1.044-.412-1.5-.6a14.006,14.006,0,0,1,.451-3.247h-3.987a2.206,2.206,0,0,1-2.11-1.562l-.487-1.6Z" transform="translate(1412.876 -2115.576)" fill="#fff"/>
    <path id="Path_5421" data-name="Path 5421" d="M-1405.8,2133.917a3.815,3.815,0,0,0,2.984-1.407,8.558,8.558,0,0,1,6.657-3.435,8.914,8.914,0,0,1,7.509,4.655,2.577,2.577,0,0,0,2.2,1.269h31.5a2.577,2.577,0,0,0,2.2-1.269,8.914,8.914,0,0,1,7.508-4.655c5.25,0,9.489,5.332,9.362,11.844l0,0h-1.971c0-4.826-3.308-8.738-7.389-8.738s-7.389,3.912-7.389,8.738h-1.967l0,0a14.07,14.07,0,0,1,.452-3.844h-33.089a14.07,14.07,0,0,1,.452,3.844l0,0h-1.854c0-4.826-3.308-8.738-7.389-8.738s-7.389,3.912-7.389,8.738h-.579c-.563-.22-1.044-.412-1.5-.6a14.006,14.006,0,0,1,.451-3.247h-3.987a2.206,2.206,0,0,1-2.11-1.562l-.487-1.6Z" transform="translate(1412.876 -2115.576)" fill="url(#linear-gradient)"/>
    <path id="Path_5422" data-name="Path 5422" d="M-1787.527,2023.318q1.2.98,2.533,2.137c3,.345,10.924,1.316,14.269,2.3-7.719-.179-24.281-.764-27.672-2.527C-1800.613,2024.075-1794.367,2023.552-1787.527,2023.318Z" transform="translate(1868.836 -2015.587)" fill="#e6e7e8"/>
    <path id="Path_5423" data-name="Path 5423" d="M-553.95,2075.432h.355l-.355-2.436v-11.63l.127-1.924h-.355l-.127,1.924V2073Z" transform="translate(583.827 -2049.74)" style="mix-blend-mode: multiply;isolation: isolate"/>
    <path id="Path_5424" data-name="Path 5424" d="M-1009.723,1918.679c1.281.281,4.33,1.982,9.467,6.833a1.158,1.158,0,0,1,.36.841.626.626,0,0,1-.642.628c-2.133-.056-9.208-.248-15.6-.519-.012-4.232.086-7.219.135-8.45A43.293,43.293,0,0,1-1009.723,1918.679Z" transform="translate(1055.318 -1916.025)" fill="#231f20"/>
    <path id="Path_5425" data-name="Path 5425" d="M-1525.852,1922.294c-5.463-4.737-9.184-7.086-11.387-8.088h23.648c2.221,1.017,5.891,3.442,11.247,8.088h-23.509Z" transform="translate(1586.185 -1912.426)"/>
    <path id="Path_5426" data-name="Path 5426" d="M-1804.956,2221.012h9.112c2.619,0,2.755-1.364,3.193-3.158h-17.533C-1809.746,2219.648-1807.575,2221.012-1804.956,2221.012Z" transform="translate(1891.38 -2199.513)"/>
    <path id="Path_5427" data-name="Path 5427" d="M-1499.266,1927.394a61.965,61.965,0,0,1,9,6.631h-20.943a4.687,4.687,0,0,1-2.975-1.069,58.591,58.591,0,0,0-7.22-5.209.19.19,0,0,1,.1-.354Z" transform="translate(1573.252 -1924.895)" fill="#709aa3"/>
    <g id="Group_4279" data-name="Group 4279" transform="translate(0 12.599)">
      <path id="Path_5428" data-name="Path 5428" d="M-36.645,2114.647l.645,3.174a.83.83,0,0,1-.813,1h-1.169a34.807,34.807,0,0,1,.177-4.878h.293A.885.885,0,0,1-36.645,2114.647Z" transform="translate(38.056 -2113.864)" fill="#be1e2d"/>
      <path id="Path_5429" data-name="Path 5429" d="M-25.971,2142.183l.421,2.072a.542.542,0,0,1-.531.65h0a.776.776,0,0,1-.779-.773c0-.763.048-1.537.113-2.223a.209.209,0,0,1,.21-.188h0A.577.577,0,0,1-25.971,2142.183Z" transform="translate(27.004 -2140.132)" fill="#ed1c24"/>
      <path id="Path_5430" data-name="Path 5430" d="M-26.277,2120.714l.276,1.357a.355.355,0,0,1-.348.426h0a.508.508,0,0,1-.51-.506c0-.5.032-1.007.074-1.457a.137.137,0,0,1,.137-.123h0A.378.378,0,0,1-26.277,2120.714Z" transform="translate(27.459 -2119.984)" fill="#fff" opacity="0.5"/>
      <path id="Path_5431" data-name="Path 5431" d="M-39.284,2117.61h1.169a.9.9,0,0,0,.7-.332.9.9,0,0,0,.186-.752l-.645-3.175a.961.961,0,0,0-.939-.768h-.293a.074.074,0,0,0-.074.074.074.074,0,0,0,.074.074h.293a.813.813,0,0,1,.795.649l.645,3.174a.753.753,0,0,1-.156.629.753.753,0,0,1-.585.278h-1.169a.074.074,0,0,0-.074.074A.074.074,0,0,0-39.284,2117.61Z" transform="translate(39.358 -2112.584)"/>
    </g>
    <path id="Path_5432" data-name="Path 5432" d="M-1879.548,2139.369h4.329a13.014,13.014,0,0,0,4.63.723h10.074c1.885,0,2.6-.284,3.012-.723h2.813a12.6,12.6,0,0,1,1.9,5.078h-25.075a2.89,2.89,0,0,1-2.89-2.89v-.977A1.21,1.21,0,0,1-1879.548,2139.369Z" transform="translate(1955.373 -2125.309)"/>
    <g id="Group_4282" data-name="Group 4282" transform="translate(74.862 14.558)">
      <g id="Group_4280" data-name="Group 4280" transform="translate(0)">
        <path id="Path_5433" data-name="Path 5433" d="M-1482.79,2149.818l.4.835a.569.569,0,0,1-.512.816h-5.157a.46.46,0,0,1-.432-.3,2.856,2.856,0,0,1-.172-.976v-.977a1.176,1.176,0,0,1,.049-.335.534.534,0,0,1,.512-.384h3.2A2.344,2.344,0,0,1-1482.79,2149.818Z" transform="translate(1488.659 -2148.495)" fill="#e6e7e8"/>
        <path id="Path_5434" data-name="Path 5434" d="M-1460.718,2165.328l.257.532a.362.362,0,0,1-.326.52h-3.481a1.832,1.832,0,0,1-.191-.814v-.623a.764.764,0,0,1,.154-.458h2.242A1.494,1.494,0,0,1-1460.718,2165.328Z" transform="translate(1465.435 -2163.613)" fill="#d1d3d4"/>
        <path id="Path_5435" data-name="Path 5435" d="M-1471.044,2156.533l.175.362a.246.246,0,0,1-.222.354h-2.366a1.246,1.246,0,0,1-.13-.553v-.424a.52.52,0,0,1,.1-.312h1.524A1.015,1.015,0,0,1-1471.044,2156.533Z" transform="translate(1476.353 -2155.553)" fill="#fff"/>
        <path id="Path_5436" data-name="Path 5436" d="M-1420.844,2159.61l.273.565a.385.385,0,0,1-.346.552h-2.239a2.847,2.847,0,0,1-.141-.874v-.977a1.18,1.18,0,0,1,.014-.162h1.011A1.586,1.586,0,0,1-1420.844,2159.61Z" transform="translate(1423.297 -2158.157)" fill="#f7941d"/>
      </g>
      <g id="Group_4281" data-name="Group 4281" transform="translate(23.153)">
        <path id="Path_5437" data-name="Path 5437" d="M-1872.484,2148.5h1.177a12.219,12.219,0,0,1,1.234,2.974h-3.42a.819.819,0,0,1-.784-.816l.125-.835A1.561,1.561,0,0,1-1872.484,2148.5Z" transform="translate(1874.282 -2148.495)" fill="#e6e7e8"/>
        <path id="Path_5438" data-name="Path 5438" d="M-1864.239,2174.8l-.054.362a.355.355,0,0,0,.34.354h2.366a1.162,1.162,0,0,0-.055-.553l-.141-.424a.764.764,0,0,0-.209-.312h-1.524A.676.676,0,0,0-1864.239,2174.8Z" transform="translate(1865.24 -2172.823)" fill="#d1d3d4"/>
        <path id="Path_5439" data-name="Path 5439" d="M-1871.586,2164.14a.555.555,0,0,1-.531-.553l.085-.565a1,1,0,0,1,.437-.7,12.646,12.646,0,0,1,.712,1.817Z" transform="translate(1874.974 -2161.569)" fill="#f7941d"/>
        <path id="Path_5440" data-name="Path 5440" d="M-1857.188,2159.287l-.054.362a.355.355,0,0,0,.34.354h2.366a1.163,1.163,0,0,0-.055-.553l-.141-.423a.765.765,0,0,0-.209-.312h-1.524A.676.676,0,0,0-1857.188,2159.287Z" transform="translate(1857.804 -2158.157)" fill="#fff"/>
      </g>
    </g>
    <path id="Path_5441" data-name="Path 5441" d="M-684.085,1916.026h1.537a1.035,1.035,0,0,0,1.034-1l.393-11.477c0-.511-3.776-.1-3.776-.1-1.491.406-2.117,5.378-2.465,8.977A3.29,3.29,0,0,0-684.085,1916.026Z" transform="translate(718.611 -1902.107)"/>
    <path id="Path_5442" data-name="Path 5442" d="M-672.933,1925.909h1.2a.8.8,0,0,0,.8-.777l.305-8.924c0-.4-2.936-.081-2.936-.081-1.16.316-1.646,4.182-1.916,6.98A2.558,2.558,0,0,0-672.933,1925.909Z" transform="translate(707.47 -1914.129)" fill="#58595b"/>
    <path id="Path_5443" data-name="Path 5443" d="M-672.194,1919.706c0-.381-3.042-.107-3.3-.083.31-1.788.767-3.3,1.475-3.5,0,0,2.936-.317,2.936.081l-.305,8.924a.8.8,0,0,1-.8.777h-.243Z" transform="translate(707.924 -1914.129)" fill="#fff" opacity="0.5"/>
    <path id="Path_5444" data-name="Path 5444" d="M-1521.308,1927.394h22.044a61.949,61.949,0,0,1,9,6.631h-3.077c-6.014-4.037-9.329-5.475-10.64-5.718a52.346,52.346,0,0,0-6.456-.6c.238.977.795,3.189,1.687,6.316h-2.265l-1.249-6.117c-.095-.4-2.956-.081-2.956-.081-.7.2-.766,1.881-.62,3.8a52.446,52.446,0,0,0-5.561-3.877A.19.19,0,0,1-1521.308,1927.394Z" transform="translate(1573.251 -1924.895)" fill="#231f20"/>
    <path id="Path_5445" data-name="Path 5445" d="M-1127.748,1953.832h4.028a1.324,1.324,0,0,1,1.326,1.007l.269,1.77a.726.726,0,0,0,.727.552h0a1.063,1.063,0,0,1,1.065.808l.16,1.052h-.244a4.688,4.688,0,0,1-2.975-1.069c-1.96-1.612-3.655-2.876-5.1-3.858A1.113,1.113,0,0,1-1127.748,1953.832Zm.352,5.547a1.158,1.158,0,0,1,.36.841.626.626,0,0,1-.642.628l-1.767-.048-.431-2.83a.651.651,0,0,1,.248-.619C-1128.932,1957.956-1128.189,1958.629-1127.4,1959.379Zm-13.766-2.218a.5.5,0,0,0,.559-.552l-.269-1.77a.921.921,0,0,1,1.02-1.007h4.028a1.324,1.324,0,0,1,1.326,1.007l.269,1.77a.725.725,0,0,0,.727.552,1.063,1.063,0,0,1,1.065.808l.419,2.756c-2.7-.081-6.172-.193-9.594-.329l-.369-2.427A.739.739,0,0,1-1141.161,1957.161Z" transform="translate(1182.457 -1949.891)" fill="#726658"/>
    <path id="Path_5446" data-name="Path 5446" d="M-1479.872,2020.032a4.63,4.63,0,0,1,3.392,1.478l.094.1h-19.756a4.688,4.688,0,0,1-2.975-1.069c-.212-.174-.42-.344-.626-.51Z" transform="translate(1558.185 -2012.48)" fill="#c49a6c"/>
    <g id="Group_4283" data-name="Group 4283" transform="translate(39.213 1.987)">
      <path id="Path_5447" data-name="Path 5447" d="M-1009.76,1918.679c1.281.281,4.33,1.982,9.467,6.833a1.158,1.158,0,0,1,.359.868.621.621,0,0,1-.64.6c-.735-.019-2.057-.054-3.737-.1-3.773-3.279-6.1-4.522-7.182-4.759a35.84,35.84,0,0,0-4.649-.57c.03-1.651.072-2.86.1-3.536A43.293,43.293,0,0,1-1009.76,1918.679Z" transform="translate(1016.143 -1918.012)" fill="#fff" opacity="0.5"/>
      <path id="Path_5448" data-name="Path 5448" d="M-1509.718,1929.92h-8.393c-1.256-.9-2.353-1.618-3.294-2.172a.19.19,0,0,1,.1-.354h22.044a61.965,61.965,0,0,1,9,6.631h-6.5A22.437,22.437,0,0,0-1509.718,1929.92Z" transform="translate(1534.039 -1926.882)" fill="#fff" opacity="0.5"/>
    </g>
    <g id="Group_4289" data-name="Group 4289" transform="translate(38.142 1.225)">
      <g id="Group_4286" data-name="Group 4286" transform="translate(0.941 10.678)">
        <ellipse id="Ellipse_195" data-name="Ellipse 195" cx="1.102" cy="0.771" rx="1.102" ry="0.771" transform="translate(0.419)" fill="#939598" style="mix-blend-mode: multiply;isolation: isolate"/>
        <g id="Group_4284" data-name="Group 4284" transform="translate(0.272 0.336)" style="mix-blend-mode: multiply;isolation: isolate">
          <path id="Path_5449" data-name="Path 5449" d="M-771.976,2106.835h1.9a.435.435,0,0,0,.435-.435h0a.435.435,0,0,0-.435-.435h-1.9a.435.435,0,0,0-.435.435h0A.435.435,0,0,0-771.976,2106.835Z" transform="translate(772.411 -2105.965)" fill="#939598"/>
        </g>
        <g id="Group_4285" data-name="Group 4285" transform="translate(0 0.336)">
          <path id="Path_5450" data-name="Path 5450" d="M-766.982,2106.835h1.9a.435.435,0,0,0,.435-.435h0a.435.435,0,0,0-.435-.435h-1.9a.435.435,0,0,0-.435.435h0A.435.435,0,0,0-766.982,2106.835Z" transform="translate(767.417 -2105.965)" fill="#fff"/>
        </g>
      </g>
      <path id="Path_5451" data-name="Path 5451" d="M-1037.716,1904.176v-.147a50.274,50.274,0,0,1,7.655.755c.739.159,3.662,1.152,10.237,7.247a1.29,1.29,0,0,1,.411.944v14.6h-18.047v-.132C-1038.181,1914.5-1037.757,1905.031-1037.716,1904.176Zm18.156,8.8a1.143,1.143,0,0,0-.364-.836c-6.548-6.07-9.438-7.054-10.168-7.211a49.948,49.948,0,0,0-7.477-.735c-.044.911-.462,10.347.256,23.237h17.752Z" transform="translate(1037.877 -1904.029)"/>
      <path id="Path_5452" data-name="Path 5452" d="M-1018.667,1915.346a.154.154,0,0,1,.107-.039,42.969,42.969,0,0,1,6.308.671c.691.151,3.42,1.094,9.536,6.87a1.308,1.308,0,0,1,.406.948.771.771,0,0,1-.234.557.766.766,0,0,1-.539.219h-.021c-2.037-.053-9.181-.247-15.606-.519a.149.149,0,0,1-.141-.149c-.011-4.142.08-7.075.135-8.455A.148.148,0,0,1-1018.667,1915.346Zm.112,8.417c4.676.2,9.707.352,12.861.442V1922.5a4.09,4.09,0,0,0-1.568-3.216c-3.058-2.4-4.57-2.907-5.053-3.013a42.009,42.009,0,0,0-6.111-.657C-1018.481,1917.026-1018.564,1919.843-1018.555,1923.764Z" transform="translate(1019.737 -1914.693)"/>
      <path id="Path_5453" data-name="Path 5453" d="M-962.5,2052.341l3.74-3.058a1.069,1.069,0,0,0,.392-.828v-2c0-.592-.48-.679-1.072-.2l-3.061,2.5a1.473,1.473,0,0,0-.529.962v2.518C-963.026,2052.537-962.789,2052.58-962.5,2052.341Z" transform="translate(972.747 -2038.209)" fill="#939598" style="mix-blend-mode: multiply;isolation: isolate"/>
      <g id="Group_4288" data-name="Group 4288" transform="translate(9.721 5.952)">
        <g id="Group_4287" data-name="Group 4287" transform="translate(0)">
          <path id="Rectangle_2449" data-name="Rectangle 2449" d="M1.541,0h0A3.121,3.121,0,0,1,4.662,3.121v.456a0,0,0,0,1,0,0H1.541A1.541,1.541,0,0,1,0,2.036V1.541A1.541,1.541,0,0,1,1.541,0Z" fill="#414042"/>
          <path id="Rectangle_2450" data-name="Rectangle 2450" d="M1.333,0h0a2.7,2.7,0,0,1,2.7,2.7v.877a0,0,0,0,1,0,0h-2.7A1.333,1.333,0,0,1,0,2.244V1.333A1.333,1.333,0,0,1,1.333,0Z" transform="translate(0.63)" fill="#808285"/>
          <path id="Rectangle_2451" data-name="Rectangle 2451" d="M.593,0h2.14a1.2,1.2,0,0,1,1.2,1.2v0a0,0,0,0,1,0,0H0a0,0,0,0,1,0,0V.593A.593.593,0,0,1,.593,0Z" transform="translate(0.63 0.587)" fill="#bcbec0"/>
          <path id="Path_5454" data-name="Path 5454" d="M-951.628,2016.236h1.781a.533.533,0,0,0,.533-.533h0a.533.533,0,0,0-.533-.533h-1.781a.533.533,0,0,0-.533.533h0A.533.533,0,0,0-951.628,2016.236Z" transform="translate(953.383 -2015.061)" fill="#fff"/>
        </g>
        <path id="Path_5455" data-name="Path 5455" d="M-976.544,2063.994h1.856a.425.425,0,0,0,.425-.425h0a.425.425,0,0,0-.425-.425h-1.856a.425.425,0,0,0-.425.425h0A.425.425,0,0,0-976.544,2063.994Z" transform="translate(979.685 -2060.417)" fill="#414042"/>
        <path id="Path_5456" data-name="Path 5456" d="M-980.094,2063.994h1.856a.425.425,0,0,0,.425-.425h0a.425.425,0,0,0-.425-.425h-1.856a.425.425,0,0,0-.425.425h0A.425.425,0,0,0-980.094,2063.994Z" transform="translate(983.428 -2060.417)" fill="#808285"/>
        <path id="Path_5457" data-name="Path 5457" d="M-980.519,2063.142h1.746a.425.425,0,0,1,.425.425h-1.746A.425.425,0,0,1-980.519,2063.142Z" transform="translate(983.964 -2060.416)" fill="#e6e7e8"/>
      </g>
    </g>
    <path id="Path_5458" data-name="Path 5458" d="M-1775.775,2167.667h8.355a1.583,1.583,0,0,0,1.634-1.344l.3-3.017a.947.947,0,0,0-1-.983h-13.2a.908.908,0,0,0-.877,1.345l1.37,2.2A4.02,4.02,0,0,0-1775.775,2167.667Z" transform="translate(1862.606 -2147.011)" fill="#e6e7e8"/>
    <path id="Path_5459" data-name="Path 5459" d="M-1757.557,2176.764h7.068a1.335,1.335,0,0,0,1.382-1.124l.251-2.523a.8.8,0,0,0-.847-.822h-11.169a.76.76,0,0,0-.742,1.125l1.159,1.836A3.411,3.411,0,0,0-1757.557,2176.764Z" transform="translate(1844.938 -2156.439)"/>
  </g>
</svg>
