<svg xmlns="http://www.w3.org/2000/svg" xmlns:xlink="http://www.w3.org/1999/xlink" width="116.946" height="26.707" viewBox="0 0 116.946 26.707">
  <defs>
    <radialGradient id="radial-gradient" cx="0.5" cy="0.5" r="0.639" gradientTransform="translate(-0.254 0.109) scale(0.782 0.782)" gradientUnits="objectBoundingBox">
      <stop offset="0.484" stop-color="#4d4d4d"/>
      <stop offset="0.66" stop-color="#8f8f8f"/>
      <stop offset="0.818" stop-color="#c4c4c4"/>
      <stop offset="0.935" stop-color="#e5e5e5"/>
      <stop offset="1" stop-color="#f2f2f2"/>
    </radialGradient>
    <radialGradient id="radial-gradient-2" cx="0.5" cy="0.5" r="0.639" gradientTransform="translate(-0.394 0.109) scale(0.782 0.782)" gradientUnits="objectBoundingBox">
      <stop offset="0" stop-color="gray"/>
      <stop offset="1" stop-color="#f2f2f2"/>
    </radialGradient>
    <linearGradient id="linear-gradient" x1="-4.058" y1="0.5" x2="-3.286" y2="0.5" gradientTransform="matrix(1, 0, 0, 1, 0, 0)" xlink:href="#radial-gradient-2"/>
    <linearGradient id="linear-gradient-2" x1="-2.33" y1="0.5" x2="-1.559" y2="0.5" gradientUnits="objectBoundingBox">
      <stop offset="0" stop-color="#000347"/>
      <stop offset="0.999" stop-color="#38579c"/>
    </linearGradient>
    <linearGradient id="linear-gradient-3" x1="-8.188" y1="0.5" x2="-7.417" y2="0.5" xlink:href="#linear-gradient-2"/>
    <linearGradient id="linear-gradient-4" x1="-45.282" y1="0.5" x2="-44.511" y2="0.5" gradientTransform="matrix(1, 0, 0, 1, 0, 0)" xlink:href="#radial-gradient-2"/>
    <linearGradient id="linear-gradient-5" x1="-0.039" y1="1.202" x2="-0.039" y2="-0.046" gradientUnits="objectBoundingBox">
      <stop offset="0" stop-color="#f2f2f2"/>
      <stop offset="1" stop-color="gray"/>
    </linearGradient>
    <linearGradient id="linear-gradient-6" x1="-1.069" y1="1.202" x2="-1.069" y2="-0.045" xlink:href="#linear-gradient-5"/>
    <linearGradient id="linear-gradient-7" x1="-12.828" y1="0.501" x2="-12.134" y2="0.489" gradientTransform="matrix(1, 0, 0, 1, 0, 0)" xlink:href="#radial-gradient-2"/>
    <linearGradient id="linear-gradient-8" x1="-4.248" y1="1.169" x2="-4.413" y2="0.29" gradientUnits="objectBoundingBox">
      <stop offset="0"/>
      <stop offset="0.998" stop-color="#666"/>
    </linearGradient>
    <linearGradient id="linear-gradient-9" x1="-6.634" y1="0.742" x2="-5.754" y2="0.372" xlink:href="#linear-gradient-8"/>
    <linearGradient id="linear-gradient-10" x1="-0.82" y1="0.5" x2="-0.049" y2="0.5" gradientUnits="objectBoundingBox">
      <stop offset="0" stop-color="#827cbc"/>
      <stop offset="0.999" stop-color="#4762af"/>
    </linearGradient>
    <linearGradient id="linear-gradient-11" x1="-23.443" y1="0.751" x2="-33.901" y2="-0.064" gradientTransform="matrix(1, 0, 0, 1, 0, 0)" xlink:href="#radial-gradient-2"/>
    <linearGradient id="linear-gradient-12" x1="-3.628" y1="0.5" x2="-2.857" y2="0.5" gradientTransform="matrix(1, 0, 0, 1, 0, 0)" xlink:href="#radial-gradient-2"/>
    <linearGradient id="linear-gradient-13" x1="-17.232" y1="1.035" x2="-16.209" y2="-0.192" gradientUnits="objectBoundingBox">
      <stop offset="0.007" stop-color="#fbb03b"/>
      <stop offset="0.979" stop-color="#fe6120"/>
    </linearGradient>
    <linearGradient id="linear-gradient-14" x1="-22.294" y1="1.159" x2="-24.949" y2="-0.733" gradientTransform="matrix(1, 0, 0, 1, 0, 0)" xlink:href="#radial-gradient-2"/>
    <linearGradient id="linear-gradient-15" x1="-2.921" y1="0.75" x2="-1.687" y2="0.242" xlink:href="#linear-gradient-10"/>
    <linearGradient id="linear-gradient-16" x1="-2.029" y1="0.5" x2="-1.257" y2="0.5" gradientTransform="matrix(1, 0, 0, 1, 0, 0)" xlink:href="#radial-gradient-2"/>
    <linearGradient id="linear-gradient-17" x1="-90.943" y1="0.5" x2="-90.172" y2="0.5" gradientTransform="matrix(1, 0, 0, 1, 0, 0)" xlink:href="#radial-gradient-2"/>
    <linearGradient id="linear-gradient-18" x1="-3.976" y1="0.5" x2="-3.205" y2="0.5" xlink:href="#linear-gradient-8"/>
    <linearGradient id="linear-gradient-19" x1="-4.214" y1="0.5" x2="-3.443" y2="0.5" xlink:href="#linear-gradient-8"/>
    <linearGradient id="linear-gradient-20" x1="-40.845" y1="5.136" x2="-40.027" y2="5.136" gradientTransform="matrix(1, 0, 0, 1, 0, 0)" xlink:href="#radial-gradient-2"/>
    <radialGradient id="radial-gradient-3" cx="0.5" cy="0.5" r="0.639" gradientTransform="translate(-0.527 0.109) scale(0.782 0.782)" xlink:href="#radial-gradient"/>
    <radialGradient id="radial-gradient-4" cx="0.5" cy="0.5" r="0.639" gradientTransform="translate(-0.772 0.109) scale(0.782 0.782)" xlink:href="#radial-gradient-2"/>
    <linearGradient id="linear-gradient-21" x1="-7.074" y1="0.5" x2="-6.303" y2="0.5" gradientTransform="matrix(1, 0, 0, 1, 0, 0)" xlink:href="#radial-gradient-2"/>
    <linearGradient id="linear-gradient-22" x1="-1.408" y1="0.5" x2="-0.637" y2="0.5" xlink:href="#linear-gradient-10"/>
    <linearGradient id="linear-gradient-23" x1="-79.05" y1="0.5" x2="-78.019" y2="0.497" xlink:href="#linear-gradient-13"/>
    <linearGradient id="linear-gradient-24" x1="-4.069" y1="0.912" x2="-7.283" y2="-0.42" gradientTransform="matrix(1, 0, 0, 1, 0, 0)" xlink:href="#radial-gradient-2"/>
    <linearGradient id="linear-gradient-25" x1="-6.498" y1="0.844" x2="-10.476" y2="-0.27" gradientTransform="matrix(1, 0, 0, 1, 0, 0)" xlink:href="#radial-gradient-2"/>
    <linearGradient id="linear-gradient-26" x1="-11.595" y1="0.734" x2="-23.384" y2="-0.047" gradientTransform="matrix(1, 0, 0, 1, 0, 0)" xlink:href="#radial-gradient-2"/>
    <linearGradient id="linear-gradient-27" x1="-0.917" y1="-0.279" x2="-0.917" y2="0.737" gradientUnits="objectBoundingBox">
      <stop offset="0" stop-color="#827cbc"/>
      <stop offset="0.259" stop-color="#7e7abb"/>
      <stop offset="0.517" stop-color="#7274b8"/>
      <stop offset="0.774" stop-color="#5e6cb4"/>
      <stop offset="0.992" stop-color="#4762af"/>
    </linearGradient>
    <linearGradient id="linear-gradient-28" x1="-59.075" y1="-0.279" x2="-59.075" y2="0.737" xlink:href="#linear-gradient-5"/>
    <linearGradient id="linear-gradient-29" x1="-62.387" y1="-0.279" x2="-62.387" y2="0.737" xlink:href="#linear-gradient-5"/>
    <linearGradient id="linear-gradient-30" x1="-65.699" y1="-0.279" x2="-65.699" y2="0.737" xlink:href="#linear-gradient-5"/>
    <linearGradient id="linear-gradient-31" x1="0.029" y1="0.5" x2="0.8" y2="0.5" gradientUnits="objectBoundingBox">
      <stop offset="0" stop-color="#666"/>
      <stop offset="0.159" stop-color="#757575"/>
      <stop offset="0.467" stop-color="#9e9e9e"/>
      <stop offset="0.892" stop-color="#e0e0e0"/>
      <stop offset="1" stop-color="#f2f2f2"/>
    </linearGradient>
    <linearGradient id="linear-gradient-32" x1="0.435" y1="2.741" x2="0.419" y2="0.185" gradientUnits="objectBoundingBox">
      <stop offset="0" stop-color="#3b393c"/>
      <stop offset="0.159" stop-color="#3e3c3f"/>
      <stop offset="0.317" stop-color="#49484b"/>
      <stop offset="0.336" stop-color="#4b4b4d"/>
      <stop offset="0.495" stop-color="#4f4f51"/>
      <stop offset="0.628" stop-color="#59595b"/>
      <stop offset="0.694" stop-color="#5e5e60"/>
      <stop offset="0.783" stop-color="#6e6f71"/>
      <stop offset="0.884" stop-color="#89898d"/>
      <stop offset="0.922" stop-color="#95969a"/>
      <stop offset="0.992" stop-color="#95969a"/>
    </linearGradient>
    <radialGradient id="radial-gradient-5" cx="0.5" cy="0.5" r="0.639" gradientTransform="translate(0.149 0.109) scale(0.782 0.782)" xlink:href="#radial-gradient"/>
    <radialGradient id="radial-gradient-6" cx="0.5" cy="0.5" r="0.639" gradientTransform="translate(0.165 0.109) scale(0.782 0.782)" xlink:href="#radial-gradient-2"/>
    <linearGradient id="linear-gradient-33" x1="0.344" y1="0.5" x2="1.116" y2="0.5" gradientTransform="matrix(1, 0, 0, 1, 0, 0)" xlink:href="#radial-gradient-2"/>
    <radialGradient id="radial-gradient-7" cx="0.5" cy="0.5" r="0.639" gradientTransform="translate(0.077 0.109) scale(0.782 0.782)" xlink:href="#radial-gradient"/>
    <radialGradient id="radial-gradient-8" cx="0.5" cy="0.5" r="0.639" gradientTransform="translate(0.065 0.109) scale(0.782 0.782)" xlink:href="#radial-gradient-2"/>
    <linearGradient id="linear-gradient-34" x1="-0.454" y1="0.5" x2="0.317" y2="0.5" gradientTransform="matrix(1, 0, 0, 1, 0, 0)" xlink:href="#radial-gradient-2"/>
    <radialGradient id="radial-gradient-9" cx="0.5" cy="0.5" r="0.639" gradientTransform="translate(0.005 0.109) scale(0.782 0.782)" xlink:href="#radial-gradient"/>
    <radialGradient id="radial-gradient-10" cx="0.5" cy="0.5" r="0.639" gradientTransform="translate(-0.035 0.109) scale(0.782 0.782)" xlink:href="#radial-gradient-2"/>
    <linearGradient id="linear-gradient-35" x1="-1.255" y1="0.5" x2="-0.484" y2="0.5" gradientTransform="matrix(1, 0, 0, 1, 0, 0)" xlink:href="#radial-gradient-2"/>
    <linearGradient id="linear-gradient-36" x1="0.028" y1="0.5" x2="0.8" y2="0.5" gradientUnits="objectBoundingBox">
      <stop offset="0.033" stop-color="#827cbc"/>
      <stop offset="0.991" stop-color="#4762af"/>
    </linearGradient>
    <linearGradient id="linear-gradient-37" x1="0.531" y1="1.444" x2="0.499" y2="0.459" xlink:href="#linear-gradient-36"/>
  </defs>
  <g id="Group_15810" data-name="Group 15810" transform="translate(-700.074 -64.5)">
    <g id="Group_4197" data-name="Group 4197" transform="translate(700.074 64.5)">
      <g id="Group_4177" data-name="Group 4177" transform="translate(62.626 18.032)">
        <g id="Group_4176" data-name="Group 4176">
          <ellipse id="Ellipse_159" data-name="Ellipse 159" cx="5.547" cy="4.337" rx="5.547" ry="4.337" fill="#000002"/>
          <ellipse id="Ellipse_160" data-name="Ellipse 160" cx="3.587" cy="2.805" rx="3.587" ry="2.805" transform="translate(1.901 1.532)" fill="url(#radial-gradient)"/>
          <g id="Group_4175" data-name="Group 4175" transform="translate(2.898 2.312)">
            <path id="Path_5130" data-name="Path 5130" d="M1008.171,160.577a2.669,2.669,0,1,1-2.59-2.025A2.36,2.36,0,0,1,1008.171,160.577Zm-.464-.709c-.051.015-.077.059-.058.1a1.489,1.489,0,0,1,.1.29.1.1,0,0,0,.1.063l.018,0c.053-.008.089-.048.078-.09a1.582,1.582,0,0,0-.113-.315A.108.108,0,0,0,1007.707,159.869Zm-1.04-.8a2.325,2.325,0,0,1,.317.17.116.116,0,0,0,.063.018.112.112,0,0,0,.076-.028.066.066,0,0,0-.014-.109,2.468,2.468,0,0,0-.345-.185.114.114,0,0,0-.134.029A.069.069,0,0,0,1006.667,159.072Zm-.8-.288c-.009.042.027.082.081.089a2.727,2.727,0,0,1,.373.075.13.13,0,0,0,.033,0,.1.1,0,0,0,.093-.051c.018-.04-.009-.084-.061-.1a2.987,2.987,0,0,0-.406-.082A.1.1,0,0,0,1005.864,158.784Zm-.8.032a.1.1,0,0,0,.1.063h.018a2.805,2.805,0,0,1,.383-.029.079.079,0,1,0,0-.154h0a3.053,3.053,0,0,0-.417.031C1005.089,158.734,1005.054,158.774,1005.063,158.816Zm-.737.244a.107.107,0,0,0,.085.038.122.122,0,0,0,.05-.011,2.481,2.481,0,0,1,.347-.13.073.073,0,0,0,.058-.1.107.107,0,0,0-.127-.045,2.678,2.678,0,0,0-.378.141A.069.069,0,0,0,1004.326,159.061Zm-.587.426a.119.119,0,0,0,.063.018.113.113,0,0,0,.076-.028,2,2,0,0,1,.27-.214.066.066,0,0,0,.012-.109.119.119,0,0,0-.139-.009,2.213,2.213,0,0,0-.294.233A.067.067,0,0,0,1003.739,159.487Zm-.426.458c-.018.04.009.084.06.1a.124.124,0,0,0,.033,0,.1.1,0,0,0,.093-.051,1.606,1.606,0,0,1,.16-.273.069.069,0,0,0-.037-.105.116.116,0,0,0-.134.029A1.7,1.7,0,0,0,1003.313,159.945Zm-.04.715a.094.094,0,0,0,.1-.082,1.363,1.363,0,0,1,.031-.289c.009-.042-.027-.082-.08-.089a.1.1,0,0,0-.114.063,1.478,1.478,0,0,0-.034.315v.011C1003.175,160.631,1003.219,160.66,1003.273,160.66Zm.177.616c.051-.015.077-.059.058-.1a1.5,1.5,0,0,1-.1-.29.1.1,0,0,0-.115-.062c-.054.008-.089.048-.079.09a1.606,1.606,0,0,0,.111.316.1.1,0,0,0,.092.05A.126.126,0,0,0,1003.45,161.276Zm.445.418a1.745,1.745,0,0,1-.222-.245.116.116,0,0,0-.135-.028.069.069,0,0,0-.036.106,1.931,1.931,0,0,0,.242.267.113.113,0,0,0,.075.027.115.115,0,0,0,.064-.018A.066.066,0,0,0,1003.895,161.694Zm.589.383a2.316,2.316,0,0,1-.316-.172.118.118,0,0,0-.139.01.066.066,0,0,0,.013.108,2.508,2.508,0,0,0,.343.187.121.121,0,0,0,.049.01.107.107,0,0,0,.086-.039A.069.069,0,0,0,1004.484,162.077Zm.8.292c.009-.042-.027-.082-.08-.089a2.654,2.654,0,0,1-.372-.077.107.107,0,0,0-.126.046.074.074,0,0,0,.059.1,2.861,2.861,0,0,0,.406.084h.017A.1.1,0,0,0,1005.285,162.369Zm.8-.029a.1.1,0,0,0-.115-.062,2.846,2.846,0,0,1-.383.027.079.079,0,1,0,0,.154h0a3.07,3.07,0,0,0,.417-.029C1006.059,162.423,1006.095,162.383,1006.085,162.34Zm.739-.241a.115.115,0,0,0-.135-.028,2.512,2.512,0,0,1-.348.128.074.074,0,0,0-.059.1.1.1,0,0,0,.093.05.134.134,0,0,0,.034,0,2.755,2.755,0,0,0,.378-.139A.069.069,0,0,0,1006.824,162.1Zm.59-.424a.12.12,0,0,0-.139.01,2.066,2.066,0,0,1-.271.213.067.067,0,0,0-.011.109.113.113,0,0,0,.076.027.115.115,0,0,0,.064-.018,2.324,2.324,0,0,0,.3-.232A.066.066,0,0,0,1007.415,161.676Zm.068-1.979a.107.107,0,0,0,.085.038.122.122,0,0,0,.05-.011.069.069,0,0,0,.035-.106,2.011,2.011,0,0,0-.244-.266.117.117,0,0,0-.139-.008.066.066,0,0,0-.01.109A1.855,1.855,0,0,1,1007.483,159.7Zm.361,1.523a.074.074,0,0,0-.059-.1.108.108,0,0,0-.126.046,1.551,1.551,0,0,1-.162.272.069.069,0,0,0,.036.106.119.119,0,0,0,.049.01.106.106,0,0,0,.085-.038A1.692,1.692,0,0,0,1007.844,161.22Zm.143-.642v-.021a.1.1,0,0,0-.2,0v.021a1.377,1.377,0,0,1-.033.3c-.009.042.027.082.08.089h.017a.1.1,0,0,0,.1-.064A1.481,1.481,0,0,0,1007.988,160.577Z" transform="translate(-1002.991 -158.552)" fill="url(#radial-gradient-2)"/>
          </g>
          <path id="Path_5131" data-name="Path 5131" d="M1010.871,163.493a1.608,1.608,0,1,1-1.561-1.221A1.422,1.422,0,0,1,1010.871,163.493Z" transform="translate(-1003.822 -159.155)" fill="url(#linear-gradient)"/>
        </g>
      </g>
      <g id="Group_4186" data-name="Group 4186" transform="translate(71.991)">
        <path id="Path_5132" data-name="Path 5132" d="M1133.3,91.195h-6.784v.918h7.957A1.069,1.069,0,0,0,1133.3,91.195Z" transform="translate(-1106.264 -85.421)" fill="url(#linear-gradient-2)"/>
        <g id="Group_4178" data-name="Group 4178" transform="translate(24.017 4.152)">
          <path id="Path_5133" data-name="Path 5133" d="M1145.677,83.693h-.828a.761.761,0,0,0-.809.578l-.121,1.045h2.37V84.171A.558.558,0,0,0,1145.677,83.693Z" transform="translate(-1143.92 -83.693)" fill="url(#linear-gradient-3)"/>
          <rect id="Rectangle_2335" data-name="Rectangle 2335" width="0.44" height="1.045" transform="translate(2.369 0.285)" fill="url(#linear-gradient-4)"/>
        </g>
        <g id="Group_4179" data-name="Group 4179" transform="translate(0 18.743)">
          <path id="Path_5134" data-name="Path 5134" d="M1034.263,153.426h31.348v-2.148h-31.348a1.252,1.252,0,0,0-1.373,1.074h0A1.252,1.252,0,0,0,1034.263,153.426Z" transform="translate(-1032.89 -151.25)" fill="url(#linear-gradient-5)"/>
          <rect id="Rectangle_2336" data-name="Rectangle 2336" width="12.307" height="0.661" transform="translate(17.475)" fill="url(#linear-gradient-6)"/>
        </g>
        <rect id="Rectangle_2337" data-name="Rectangle 2337" width="1.801" height="4.64" transform="translate(42.85 18.798)" fill="url(#linear-gradient-7)"/>
        <path id="Path_5135" data-name="Path 5135" d="M1174.288,104.837h-3.173l-.05-.207-1.124-4.566,1.578,1.732Z" transform="translate(-1140.296 -92.371)" fill="url(#linear-gradient-8)"/>
        <path id="Path_5136" data-name="Path 5136" d="M1178.36,111.112h-3.173l-.05-.207.454-2.834Z" transform="translate(-1144.368 -98.646)" fill="url(#linear-gradient-9)"/>
        <path id="Path_5137" data-name="Path 5137" d="M1149.114,100.866v6.347h-13.148v.06h-9.449V95.162h7.659c.058,0,.117,0,.178.008A1.808,1.808,0,0,1,1136,96.434l.806,3.348a1.679,1.679,0,0,0,1.694,1.084Z" transform="translate(-1106.264 -88.53)" fill="url(#linear-gradient-10)"/>
        <path id="Rectangle_2338" data-name="Rectangle 2338" d="M0,0H0A.884.884,0,0,1,.884.884V6.319a0,0,0,0,1,0,0H0a0,0,0,0,1,0,0V0A0,0,0,0,1,0,0Z" transform="translate(42.85 12.354)" fill="url(#linear-gradient-11)"/>
        <g id="Group_4180" data-name="Group 4180" transform="translate(37.8 14.295)">
          <path id="Path_5138" data-name="Path 5138" d="M1213.512,130.746v2.523a.185.185,0,0,1-.2.158h-5.464c-.205,0-.281-.213-.1-.3l5.464-2.523C1213.342,130.547,1213.512,130.624,1213.512,130.746Z" transform="translate(-1207.642 -130.587)" fill="url(#linear-gradient-12)"/>
          <rect id="Rectangle_2339" data-name="Rectangle 2339" width="0.212" height="2.276" transform="translate(5.657 0.216)" fill="#fff"/>
          <path id="Path_5139" data-name="Path 5139" d="M1226.451,136.338a.7.7,0,1,1-.682-.533A.622.622,0,0,1,1226.451,136.338Z" transform="translate(-1221.314 -134.676)" fill="url(#linear-gradient-13)"/>
        </g>
        <path id="Rectangle_2340" data-name="Rectangle 2340" d="M0,0H.221a.792.792,0,0,1,.792.792v0a0,0,0,0,1,0,0H0a0,0,0,0,1,0,0V0A0,0,0,0,1,0,0Z" transform="translate(42.85 18.007)" fill="url(#linear-gradient-14)"/>
        <path id="Path_5140" data-name="Path 5140" d="M1136.193,108.708v-7.4a.841.841,0,0,1,.923-.722h3.629a.94.94,0,0,1,.869.478l1.57,3.418a.582.582,0,0,1,.054.244v3.986a.841.841,0,0,1-.923.722h-5.2A.841.841,0,0,1,1136.193,108.708Z" transform="translate(-1113.847 -92.777)" fill="url(#linear-gradient-15)"/>
        <rect id="Rectangle_2341" data-name="Rectangle 2341" width="9.138" height="0.162" transform="translate(20.252 12.601)" fill="url(#linear-gradient-16)"/>
        <rect id="Rectangle_2342" data-name="Rectangle 2342" width="0.207" height="5.991" transform="translate(21.599 10.078)" fill="url(#linear-gradient-17)"/>
        <path id="Path_5141" data-name="Path 5141" d="M1144.04,106.986H1140.4a.729.729,0,0,1-.335-.08.444.444,0,0,1-.259-.381V104.6a.54.54,0,0,1,.593-.464h2.788a.7.7,0,0,1,.282.057.507.507,0,0,1,.275.254l.855,1.921C1144.736,106.672,1144.448,106.986,1144.04,106.986Z" transform="translate(-1116.679 -95.565)" fill="url(#linear-gradient-18)"/>
        <path id="Path_5142" data-name="Path 5142" d="M1144.976,107.193h-3.641a.73.73,0,0,1-.335-.08l3.405-2.709a.507.507,0,0,1,.275.254l.855,1.921C1145.673,106.879,1145.384,107.193,1144.976,107.193Z" transform="translate(-1117.615 -95.772)" opacity="0.5" fill="url(#linear-gradient-19)" style="mix-blend-mode: multiply;isolation: isolate"/>
        <path id="Rectangle_2343" data-name="Rectangle 2343" d="M.257,0h0A.257.257,0,0,1,.515.257V3.231a.257.257,0,0,1-.257.257h0A.257.257,0,0,1,0,3.231V.257A.257.257,0,0,1,.257,0Z" transform="translate(28.212 11.824) rotate(-180)" fill="url(#linear-gradient-20)"/>
        <g id="Group_4184" data-name="Group 4184" transform="translate(30.01 16.539)">
          <g id="Group_4183" data-name="Group 4183" transform="translate(1.81 1.493)">
            <g id="Group_4182" data-name="Group 4182">
              <ellipse id="Ellipse_161" data-name="Ellipse 161" cx="5.547" cy="4.337" rx="5.547" ry="4.337" fill="#000005"/>
              <ellipse id="Ellipse_162" data-name="Ellipse 162" cx="3.587" cy="2.805" rx="3.587" ry="2.805" transform="translate(1.901 1.532)" fill="url(#radial-gradient-3)"/>
              <g id="Group_4181" data-name="Group 4181" transform="translate(2.898 2.312)">
                <path id="Path_5143" data-name="Path 5143" d="M1198.568,160.577a2.669,2.669,0,1,1-2.59-2.025A2.361,2.361,0,0,1,1198.568,160.577Zm-.464-.709c-.051.015-.077.059-.058.1a1.458,1.458,0,0,1,.1.29.1.1,0,0,0,.1.063h.018c.053-.008.089-.048.079-.09a1.6,1.6,0,0,0-.113-.315A.108.108,0,0,0,1198.1,159.869Zm-1.04-.8a2.316,2.316,0,0,1,.317.17.116.116,0,0,0,.063.018.112.112,0,0,0,.076-.028.066.066,0,0,0-.013-.109,2.486,2.486,0,0,0-.345-.185.114.114,0,0,0-.135.029A.069.069,0,0,0,1197.064,159.072Zm-.8-.288c-.009.042.027.082.081.089a2.709,2.709,0,0,1,.373.075.132.132,0,0,0,.033,0,.1.1,0,0,0,.093-.051.075.075,0,0,0-.06-.1,3.035,3.035,0,0,0-.406-.082A.1.1,0,0,0,1196.261,158.784Zm-.8.032a.1.1,0,0,0,.1.063h.018a2.8,2.8,0,0,1,.382-.029.079.079,0,1,0,0-.154h0a3.051,3.051,0,0,0-.417.031C1195.486,158.734,1195.451,158.774,1195.461,158.816Zm-.737.244a.107.107,0,0,0,.085.038.122.122,0,0,0,.05-.011,2.473,2.473,0,0,1,.347-.129.074.074,0,0,0,.058-.1.107.107,0,0,0-.127-.045,2.692,2.692,0,0,0-.378.141A.069.069,0,0,0,1194.723,159.061Zm-.587.426a.119.119,0,0,0,.063.018.112.112,0,0,0,.076-.028,2.012,2.012,0,0,1,.27-.214.067.067,0,0,0,.012-.109.12.12,0,0,0-.139-.009,2.229,2.229,0,0,0-.294.233A.067.067,0,0,0,1194.136,159.487Zm-.426.458c-.018.04.008.084.06.1a.124.124,0,0,0,.033,0,.1.1,0,0,0,.093-.051,1.6,1.6,0,0,1,.16-.273.069.069,0,0,0-.037-.105.116.116,0,0,0-.134.029A1.708,1.708,0,0,0,1193.71,159.945Zm-.04.715a.094.094,0,0,0,.1-.082,1.344,1.344,0,0,1,.031-.289c.009-.042-.027-.082-.081-.089a.1.1,0,0,0-.114.063,1.488,1.488,0,0,0-.034.315v.011C1193.572,160.631,1193.616,160.66,1193.67,160.66Zm.177.616c.051-.015.078-.059.058-.1a1.482,1.482,0,0,1-.1-.29.1.1,0,0,0-.115-.062c-.054.008-.089.048-.079.09a1.646,1.646,0,0,0,.111.316.1.1,0,0,0,.092.05A.123.123,0,0,0,1193.847,161.276Zm.445.418a1.767,1.767,0,0,1-.222-.245.115.115,0,0,0-.135-.028.069.069,0,0,0-.036.105,1.944,1.944,0,0,0,.242.267.113.113,0,0,0,.075.027.116.116,0,0,0,.064-.018A.066.066,0,0,0,1194.292,161.694Zm.589.383a2.309,2.309,0,0,1-.316-.172.118.118,0,0,0-.139.01.066.066,0,0,0,.013.108,2.5,2.5,0,0,0,.344.187.12.12,0,0,0,.049.01.107.107,0,0,0,.086-.039A.069.069,0,0,0,1194.88,162.077Zm.8.292c.009-.042-.027-.082-.08-.089a2.65,2.65,0,0,1-.372-.077.107.107,0,0,0-.126.046.074.074,0,0,0,.059.1,2.873,2.873,0,0,0,.406.084h.017A.094.094,0,0,0,1195.681,162.369Zm.8-.029a.1.1,0,0,0-.115-.062,2.809,2.809,0,0,1-.383.027.079.079,0,1,0,0,.154h0a3.068,3.068,0,0,0,.417-.029C1196.456,162.423,1196.492,162.383,1196.482,162.34Zm.739-.241a.116.116,0,0,0-.135-.028,2.5,2.5,0,0,1-.348.128.074.074,0,0,0-.059.1.1.1,0,0,0,.093.05.13.13,0,0,0,.034,0,2.741,2.741,0,0,0,.378-.139A.069.069,0,0,0,1197.222,162.1Zm.59-.424a.12.12,0,0,0-.139.01,2.064,2.064,0,0,1-.271.213.067.067,0,0,0-.012.109.12.12,0,0,0,.139.009,2.3,2.3,0,0,0,.3-.232A.067.067,0,0,0,1197.812,161.676Zm.068-1.979a.107.107,0,0,0,.085.038.123.123,0,0,0,.05-.011.069.069,0,0,0,.035-.106,2.033,2.033,0,0,0-.244-.266.117.117,0,0,0-.139-.008.066.066,0,0,0-.01.109A1.819,1.819,0,0,1,1197.88,159.7Zm.361,1.523a.074.074,0,0,0-.059-.1.108.108,0,0,0-.127.046,1.536,1.536,0,0,1-.162.272.069.069,0,0,0,.036.106.12.12,0,0,0,.05.01.105.105,0,0,0,.085-.038A1.7,1.7,0,0,0,1198.241,161.22Zm.144-.642v-.021a.1.1,0,0,0-.2,0v.021a1.392,1.392,0,0,1-.033.3c-.009.042.027.082.08.089h.017a.1.1,0,0,0,.1-.064A1.5,1.5,0,0,0,1198.385,160.577Z" transform="translate(-1193.388 -158.552)" fill="url(#radial-gradient-4)"/>
              </g>
              <path id="Path_5144" data-name="Path 5144" d="M1201.268,163.493a1.608,1.608,0,1,1-1.561-1.22A1.422,1.422,0,0,1,1201.268,163.493Z" transform="translate(-1194.22 -159.156)" fill="url(#linear-gradient-21)"/>
            </g>
          </g>
          <path id="Path_5145" data-name="Path 5145" d="M1186.376,146.254h-2.128c-.315-2.048-2.546-3.635-5.245-3.635s-4.933,1.587-5.245,3.635h-2.132c.318-2.966,3.5-5.294,7.377-5.294S1186.058,143.288,1186.376,146.254Z" transform="translate(-1171.625 -140.96)" fill="url(#linear-gradient-22)"/>
        </g>
        <rect id="Rectangle_2344" data-name="Rectangle 2344" width="0.304" height="3.744" transform="translate(44.65 19.101)" fill="url(#linear-gradient-23)"/>
        <path id="Rectangle_2345" data-name="Rectangle 2345" d="M1.658,0h0A1.658,1.658,0,0,1,3.316,1.658v2.8a0,0,0,0,1,0,0H0a0,0,0,0,1,0,0v-2.8A1.658,1.658,0,0,1,1.658,0Z" transform="translate(17.475 14.287)" fill="url(#linear-gradient-24)"/>
        <path id="Rectangle_2346" data-name="Rectangle 2346" d="M1.119,0h0A1.119,1.119,0,0,1,2.238,1.119V4.456a0,0,0,0,1,0,0H0a0,0,0,0,1,0,0V1.119A1.119,1.119,0,0,1,1.119,0Z" transform="translate(18.014 9.864)" fill="url(#linear-gradient-25)"/>
        <path id="Rectangle_2347" data-name="Rectangle 2347" d="M.588,0h0a.588.588,0,0,1,.588.588V9.9a0,0,0,0,1,0,0H0a0,0,0,0,1,0,0V.588A.588.588,0,0,1,.588,0Z" transform="translate(18.545)" fill="url(#linear-gradient-26)"/>
        <g id="Group_4185" data-name="Group 4185" transform="translate(4.835 18.803)">
          <path id="Rectangle_2348" data-name="Rectangle 2348" d="M0,0H11.525a0,0,0,0,1,0,0V.607A1.878,1.878,0,0,1,9.647,2.485H1.878A1.878,1.878,0,0,1,0,.607V0A0,0,0,0,1,0,0Z" fill="url(#linear-gradient-27)"/>
          <rect id="Rectangle_2349" data-name="Rectangle 2349" width="0.259" height="2.485" transform="translate(1.748)" fill="url(#linear-gradient-28)"/>
          <rect id="Rectangle_2350" data-name="Rectangle 2350" width="0.259" height="2.485" transform="translate(5.503)" fill="url(#linear-gradient-29)"/>
          <rect id="Rectangle_2351" data-name="Rectangle 2351" width="0.259" height="2.485" transform="translate(9.258)" fill="url(#linear-gradient-30)"/>
        </g>
      </g>
      <path id="Path_5146" data-name="Path 5146" d="M788.912,149.384H700.737a.6.6,0,0,1-.663-.518h0a.6.6,0,0,1,.663-.519h88.175Z" transform="translate(-700.074 -130.21)" fill="url(#linear-gradient-31)"/>
      <path id="Path_5147" data-name="Path 5147" d="M704.673,153.142h65.9a6.265,6.265,0,0,0-5.647,2.982H704.673Z" transform="translate(-703.678 -133.968)" fill="url(#linear-gradient-32)"/>
      <path id="Path_5148" data-name="Path 5148" d="M1009.858,153.142l-.033.018c-.166-.013-.335-.018-.507-.018Z" transform="translate(-942.426 -133.968)" fill="#b751bb"/>
      <g id="Group_4189" data-name="Group 4189" transform="translate(4.774 19.785)">
        <g id="Group_4188" data-name="Group 4188">
          <ellipse id="Ellipse_163" data-name="Ellipse 163" cx="4.103" cy="3.208" rx="4.103" ry="3.208" fill="#000005"/>
          <ellipse id="Ellipse_164" data-name="Ellipse 164" cx="2.653" cy="2.075" rx="2.653" ry="2.075" transform="translate(1.406 1.133)" fill="url(#radial-gradient-5)"/>
          <g id="Group_4187" data-name="Group 4187" transform="translate(2.143 1.71)">
            <path id="Path_5149" data-name="Path 5149" d="M735.886,165.368a1.974,1.974,0,1,1-1.916-1.5A1.746,1.746,0,0,1,735.886,165.368Zm-.343-.524c-.038.011-.057.044-.043.073a1.1,1.1,0,0,1,.077.214.071.071,0,0,0,.072.047h.014c.04-.006.066-.036.058-.067a1.167,1.167,0,0,0-.084-.233A.079.079,0,0,0,735.542,164.844Zm-.769-.589a1.692,1.692,0,0,1,.234.126.088.088,0,0,0,.046.013.083.083,0,0,0,.056-.021.049.049,0,0,0-.01-.08,1.862,1.862,0,0,0-.255-.137.084.084,0,0,0-.1.021A.051.051,0,0,0,734.773,164.255Zm-.594-.213c-.007.031.02.061.06.066a2.026,2.026,0,0,1,.275.056.106.106,0,0,0,.024,0,.074.074,0,0,0,.069-.038c.013-.03-.007-.062-.045-.073a2.215,2.215,0,0,0-.3-.06A.075.075,0,0,0,734.179,164.042Zm-.592.024a.071.071,0,0,0,.072.047h.013a2.075,2.075,0,0,1,.283-.021.059.059,0,1,0,0-.114h0a2.306,2.306,0,0,0-.308.023C733.606,164,733.58,164.034,733.587,164.065Zm-.545.181a.078.078,0,0,0,.063.028.09.09,0,0,0,.037-.008,1.851,1.851,0,0,1,.257-.1.054.054,0,0,0,.043-.073.079.079,0,0,0-.094-.034,2.014,2.014,0,0,0-.28.1A.051.051,0,0,0,733.042,164.246Zm-.434.315a.088.088,0,0,0,.047.013.083.083,0,0,0,.056-.021,1.484,1.484,0,0,1,.2-.158.049.049,0,0,0,.009-.081.089.089,0,0,0-.1-.007,1.663,1.663,0,0,0-.218.172A.049.049,0,0,0,732.608,164.561Zm-.315.339c-.014.03.006.062.044.073a.1.1,0,0,0,.025,0,.075.075,0,0,0,.069-.038,1.17,1.17,0,0,1,.118-.2.051.051,0,0,0-.027-.078.086.086,0,0,0-.1.021A1.251,1.251,0,0,0,732.293,164.9Zm-.03.529a.069.069,0,0,0,.073-.061,1.01,1.01,0,0,1,.023-.214c.007-.031-.02-.06-.059-.066a.073.073,0,0,0-.084.047,1.1,1.1,0,0,0-.025.233v.008C732.19,165.408,732.223,165.429,732.263,165.429Zm.131.456c.038-.011.057-.044.043-.073a1.1,1.1,0,0,1-.075-.215.073.073,0,0,0-.085-.046c-.04.006-.066.036-.059.066a1.2,1.2,0,0,0,.082.234.074.074,0,0,0,.068.037A.094.094,0,0,0,732.394,165.885Zm.329.309a1.294,1.294,0,0,1-.164-.181.085.085,0,0,0-.1-.021.051.051,0,0,0-.027.078,1.41,1.41,0,0,0,.179.2.084.084,0,0,0,.056.02.086.086,0,0,0,.047-.013A.049.049,0,0,0,732.723,166.194Zm.435.283a1.718,1.718,0,0,1-.233-.127.087.087,0,0,0-.1.007.049.049,0,0,0,.01.08,1.866,1.866,0,0,0,.254.138.086.086,0,0,0,.036.007.078.078,0,0,0,.064-.029A.051.051,0,0,0,733.158,166.477Zm.592.216c.007-.031-.02-.061-.059-.066a1.972,1.972,0,0,1-.275-.057.079.079,0,0,0-.094.034.055.055,0,0,0,.044.073,2.145,2.145,0,0,0,.3.062h.012A.07.07,0,0,0,733.75,166.693Zm.592-.021a.073.073,0,0,0-.085-.046,2.12,2.12,0,0,1-.283.02.059.059,0,1,0,0,.114h0a2.292,2.292,0,0,0,.309-.021C734.323,166.733,734.35,166.7,734.343,166.672Zm.547-.178a.085.085,0,0,0-.1-.021,1.863,1.863,0,0,1-.257.095.055.055,0,0,0-.044.073.075.075,0,0,0,.069.037.1.1,0,0,0,.025,0,2.011,2.011,0,0,0,.28-.1A.051.051,0,0,0,734.89,166.494Zm.437-.313a.089.089,0,0,0-.1.007,1.543,1.543,0,0,1-.2.158.049.049,0,0,0-.008.08.083.083,0,0,0,.056.02.086.086,0,0,0,.047-.013,1.717,1.717,0,0,0,.218-.172A.049.049,0,0,0,735.326,166.181Zm.05-1.464a.08.08,0,0,0,.063.028.093.093,0,0,0,.037-.008.051.051,0,0,0,.026-.078,1.488,1.488,0,0,0-.181-.2.087.087,0,0,0-.1-.006.049.049,0,0,0-.008.081A1.35,1.35,0,0,1,735.376,164.717Zm.267,1.126a.055.055,0,0,0-.044-.073.08.08,0,0,0-.093.034,1.171,1.171,0,0,1-.12.2.051.051,0,0,0,.026.078.087.087,0,0,0,.037.008.078.078,0,0,0,.063-.029A1.241,1.241,0,0,0,735.644,165.843Zm.106-.475v-.016a.075.075,0,0,0-.146,0v.016a1.016,1.016,0,0,1-.025.221c-.007.031.02.061.059.066h.013a.07.07,0,0,0,.072-.047A1.091,1.091,0,0,0,735.75,165.368Z" transform="translate(-732.054 -163.87)" fill="url(#radial-gradient-6)"/>
          </g>
          <ellipse id="Ellipse_165" data-name="Ellipse 165" cx="1.154" cy="0.903" rx="1.154" ry="0.903" transform="translate(2.905 2.305)" fill="url(#linear-gradient-33)"/>
        </g>
      </g>
      <g id="Group_4192" data-name="Group 4192" transform="translate(12.84 19.785)">
        <g id="Group_4191" data-name="Group 4191">
          <ellipse id="Ellipse_166" data-name="Ellipse 166" cx="4.103" cy="3.208" rx="4.103" ry="3.208" fill="#000005"/>
          <ellipse id="Ellipse_167" data-name="Ellipse 167" cx="2.653" cy="2.075" rx="2.653" ry="2.075" transform="translate(1.406 1.133)" fill="url(#radial-gradient-7)"/>
          <g id="Group_4190" data-name="Group 4190" transform="translate(2.143 1.71)">
            <path id="Path_5150" data-name="Path 5150" d="M773.172,165.368a1.974,1.974,0,1,1-1.916-1.5A1.746,1.746,0,0,1,773.172,165.368Zm-.343-.524c-.038.011-.057.044-.043.073a1.1,1.1,0,0,1,.077.214.07.07,0,0,0,.072.047h.014c.04-.006.066-.036.058-.067a1.185,1.185,0,0,0-.083-.233A.079.079,0,0,0,772.829,164.844Zm-.769-.589a1.692,1.692,0,0,1,.234.126.087.087,0,0,0,.046.013.083.083,0,0,0,.056-.021.049.049,0,0,0-.01-.08,1.844,1.844,0,0,0-.255-.137.084.084,0,0,0-.1.021A.051.051,0,0,0,772.06,164.255Zm-.594-.213c-.007.031.02.061.06.066a2.031,2.031,0,0,1,.276.056l.024,0a.074.074,0,0,0,.069-.038.055.055,0,0,0-.045-.073,2.228,2.228,0,0,0-.3-.06A.075.075,0,0,0,771.466,164.042Zm-.592.024a.07.07,0,0,0,.072.047h.013a2.075,2.075,0,0,1,.283-.021.059.059,0,1,0,0-.114h0a2.3,2.3,0,0,0-.308.023C770.893,164,770.867,164.034,770.874,164.065Zm-.545.181a.079.079,0,0,0,.063.028.09.09,0,0,0,.037-.008,1.861,1.861,0,0,1,.256-.1.054.054,0,0,0,.043-.073.079.079,0,0,0-.094-.034,2,2,0,0,0-.28.1A.051.051,0,0,0,770.329,164.246Zm-.434.315a.087.087,0,0,0,.047.013.083.083,0,0,0,.056-.021,1.459,1.459,0,0,1,.2-.158.049.049,0,0,0,.008-.081.088.088,0,0,0-.1-.007,1.639,1.639,0,0,0-.218.172A.049.049,0,0,0,769.895,164.561Zm-.315.339a.055.055,0,0,0,.044.073.1.1,0,0,0,.025,0,.074.074,0,0,0,.069-.038,1.175,1.175,0,0,1,.118-.2.051.051,0,0,0-.027-.078.086.086,0,0,0-.1.021A1.25,1.25,0,0,0,769.58,164.9Zm-.03.529a.07.07,0,0,0,.073-.061,1.01,1.01,0,0,1,.023-.214c.007-.031-.02-.06-.06-.066a.073.073,0,0,0-.084.047,1.105,1.105,0,0,0-.025.233v.008C769.477,165.408,769.509,165.429,769.55,165.429Zm.131.456c.038-.011.057-.044.043-.073a1.116,1.116,0,0,1-.075-.215.073.073,0,0,0-.085-.046c-.04.006-.066.036-.059.066a1.207,1.207,0,0,0,.082.234.074.074,0,0,0,.068.037A.093.093,0,0,0,769.681,165.885Zm.329.309a1.312,1.312,0,0,1-.164-.181.085.085,0,0,0-.1-.021.051.051,0,0,0-.026.078,1.427,1.427,0,0,0,.179.2.084.084,0,0,0,.056.02.086.086,0,0,0,.047-.013A.049.049,0,0,0,770.009,166.194Zm.436.283a1.736,1.736,0,0,1-.234-.127.087.087,0,0,0-.1.007.049.049,0,0,0,.009.08,1.892,1.892,0,0,0,.254.138.089.089,0,0,0,.036.007.078.078,0,0,0,.063-.029A.051.051,0,0,0,770.445,166.477Zm.592.216c.007-.031-.02-.061-.06-.066a1.963,1.963,0,0,1-.275-.057.079.079,0,0,0-.094.034.055.055,0,0,0,.044.073,2.146,2.146,0,0,0,.3.062h.012A.07.07,0,0,0,771.038,166.693Zm.592-.021a.073.073,0,0,0-.085-.046,2.126,2.126,0,0,1-.283.02.059.059,0,1,0,0,.114h0a2.286,2.286,0,0,0,.308-.021C771.61,166.733,771.637,166.7,771.63,166.672Zm.547-.178a.086.086,0,0,0-.1-.021,1.854,1.854,0,0,1-.257.095.055.055,0,0,0-.043.073.075.075,0,0,0,.069.037.1.1,0,0,0,.025,0,2.025,2.025,0,0,0,.28-.1A.051.051,0,0,0,772.177,166.494Zm.436-.313a.089.089,0,0,0-.1.007,1.542,1.542,0,0,1-.2.158.049.049,0,0,0-.008.08.083.083,0,0,0,.056.02.086.086,0,0,0,.047-.013,1.747,1.747,0,0,0,.218-.172A.049.049,0,0,0,772.613,166.181Zm.05-1.464a.079.079,0,0,0,.063.028.092.092,0,0,0,.037-.008.051.051,0,0,0,.025-.078,1.491,1.491,0,0,0-.181-.2.087.087,0,0,0-.1-.006.049.049,0,0,0-.008.081A1.346,1.346,0,0,1,772.664,164.717Zm.267,1.126a.055.055,0,0,0-.044-.073.08.08,0,0,0-.094.034,1.15,1.15,0,0,1-.12.2.051.051,0,0,0,.026.078.088.088,0,0,0,.037.008.078.078,0,0,0,.063-.029A1.242,1.242,0,0,0,772.931,165.843Zm.106-.475v-.016a.075.075,0,0,0-.146,0v.016a1.019,1.019,0,0,1-.025.221c-.007.031.02.061.059.066h.013a.07.07,0,0,0,.072-.047A1.091,1.091,0,0,0,773.037,165.368Z" transform="translate(-769.341 -163.87)" fill="url(#radial-gradient-8)"/>
          </g>
          <ellipse id="Ellipse_168" data-name="Ellipse 168" cx="1.154" cy="0.903" rx="1.154" ry="0.903" transform="translate(2.905 2.305)" fill="url(#linear-gradient-34)"/>
        </g>
      </g>
      <g id="Group_4195" data-name="Group 4195" transform="translate(20.928 19.785)">
        <g id="Group_4194" data-name="Group 4194">
          <ellipse id="Ellipse_169" data-name="Ellipse 169" cx="4.103" cy="3.208" rx="4.103" ry="3.208" fill="#000005"/>
          <ellipse id="Ellipse_170" data-name="Ellipse 170" cx="2.653" cy="2.075" rx="2.653" ry="2.075" transform="translate(1.406 1.133)" fill="url(#radial-gradient-9)"/>
          <g id="Group_4193" data-name="Group 4193" transform="translate(2.143 1.71)">
            <path id="Path_5151" data-name="Path 5151" d="M810.566,165.368a1.974,1.974,0,1,1-1.916-1.5A1.746,1.746,0,0,1,810.566,165.368Zm-.343-.524c-.038.011-.057.044-.043.073a1.1,1.1,0,0,1,.077.214.071.071,0,0,0,.072.047h.014c.04-.006.066-.036.058-.067a1.182,1.182,0,0,0-.084-.233A.079.079,0,0,0,810.222,164.844Zm-.769-.589a1.688,1.688,0,0,1,.234.126.088.088,0,0,0,.046.013.082.082,0,0,0,.056-.021.049.049,0,0,0-.01-.08,1.836,1.836,0,0,0-.255-.137.084.084,0,0,0-.1.021A.051.051,0,0,0,809.453,164.255Zm-.594-.213c-.007.031.02.061.06.066a2.031,2.031,0,0,1,.276.056l.024,0a.074.074,0,0,0,.069-.038c.013-.03-.007-.062-.045-.073a2.215,2.215,0,0,0-.3-.06A.075.075,0,0,0,808.859,164.042Zm-.592.024a.071.071,0,0,0,.072.047h.013a2.076,2.076,0,0,1,.283-.021.059.059,0,1,0,0-.114h0a2.308,2.308,0,0,0-.308.023C808.286,164,808.26,164.034,808.267,164.065Zm-.545.181a.079.079,0,0,0,.063.028.089.089,0,0,0,.037-.008,1.859,1.859,0,0,1,.256-.1.054.054,0,0,0,.043-.073.079.079,0,0,0-.094-.034,1.991,1.991,0,0,0-.28.1A.051.051,0,0,0,807.722,164.246Zm-.434.315a.087.087,0,0,0,.047.013.083.083,0,0,0,.056-.021,1.473,1.473,0,0,1,.2-.158.049.049,0,0,0,.008-.081.088.088,0,0,0-.1-.007,1.642,1.642,0,0,0-.218.172A.049.049,0,0,0,807.288,164.561Zm-.315.339a.055.055,0,0,0,.044.073.1.1,0,0,0,.025,0,.074.074,0,0,0,.069-.038,1.191,1.191,0,0,1,.119-.2.051.051,0,0,0-.027-.078.086.086,0,0,0-.1.021A1.252,1.252,0,0,0,806.973,164.9Zm-.03.529a.069.069,0,0,0,.073-.061,1.006,1.006,0,0,1,.023-.214c.007-.031-.02-.06-.06-.066a.073.073,0,0,0-.084.047,1.1,1.1,0,0,0-.025.233v.008C806.87,165.408,806.9,165.429,806.943,165.429Zm.131.456c.038-.011.057-.044.043-.073a1.1,1.1,0,0,1-.075-.215.073.073,0,0,0-.085-.046c-.04.006-.066.036-.059.066a1.2,1.2,0,0,0,.082.234.074.074,0,0,0,.068.037A.094.094,0,0,0,807.074,165.885Zm.329.309a1.306,1.306,0,0,1-.164-.181.085.085,0,0,0-.1-.021.051.051,0,0,0-.027.078,1.41,1.41,0,0,0,.179.2.084.084,0,0,0,.056.02.086.086,0,0,0,.047-.013A.049.049,0,0,0,807.4,166.194Zm.435.283a1.715,1.715,0,0,1-.233-.127.087.087,0,0,0-.1.007.049.049,0,0,0,.009.08,1.884,1.884,0,0,0,.254.138.086.086,0,0,0,.036.007.079.079,0,0,0,.064-.029A.051.051,0,0,0,807.838,166.477Zm.592.216c.007-.031-.02-.061-.059-.066a1.97,1.97,0,0,1-.275-.057.079.079,0,0,0-.094.034.055.055,0,0,0,.044.073,2.146,2.146,0,0,0,.3.062h.012A.07.07,0,0,0,808.43,166.693Zm.592-.021a.073.073,0,0,0-.085-.046,2.12,2.12,0,0,1-.283.02.059.059,0,1,0,0,.114h0a2.285,2.285,0,0,0,.308-.021C809,166.733,809.03,166.7,809.023,166.672Zm.547-.178a.085.085,0,0,0-.1-.021,1.857,1.857,0,0,1-.257.095.055.055,0,0,0-.043.073.075.075,0,0,0,.069.037.1.1,0,0,0,.025,0,2.018,2.018,0,0,0,.28-.1A.051.051,0,0,0,809.57,166.494Zm.437-.313a.089.089,0,0,0-.1.007,1.538,1.538,0,0,1-.2.158.049.049,0,0,0-.008.08.083.083,0,0,0,.056.02.086.086,0,0,0,.047-.013,1.725,1.725,0,0,0,.218-.172A.049.049,0,0,0,810.006,166.181Zm.05-1.464a.079.079,0,0,0,.063.028.092.092,0,0,0,.037-.008.051.051,0,0,0,.026-.078,1.5,1.5,0,0,0-.181-.2.087.087,0,0,0-.1-.006.049.049,0,0,0-.008.081A1.351,1.351,0,0,1,810.057,164.717Zm.267,1.126a.055.055,0,0,0-.044-.073.08.08,0,0,0-.093.034,1.167,1.167,0,0,1-.12.2.051.051,0,0,0,.026.078.088.088,0,0,0,.037.008.078.078,0,0,0,.063-.029A1.238,1.238,0,0,0,810.324,165.843Zm.106-.475v-.016a.075.075,0,0,0-.146,0v.016a1.016,1.016,0,0,1-.025.221c-.007.031.02.061.059.066h.012a.07.07,0,0,0,.072-.047A1.091,1.091,0,0,0,810.43,165.368Z" transform="translate(-806.734 -163.87)" fill="url(#radial-gradient-10)"/>
          </g>
          <path id="Path_5152" data-name="Path 5152" d="M812.563,167.525a1.189,1.189,0,1,1-1.154-.9A1.052,1.052,0,0,1,812.563,167.525Z" transform="translate(-807.349 -164.317)" fill="url(#linear-gradient-35)"/>
        </g>
      </g>
      <g id="Group_4196" data-name="Group 4196" transform="translate(0.187 1.738)">
        <g id="Rectangle_2352" data-name="Rectangle 2352" stroke="#707070" stroke-miterlimit="10" stroke-width="1.199" fill="url(#linear-gradient-36)">
          <rect width="88.651" height="16.399" stroke="none"/>
          <rect x="0.599" y="0.599" width="87.453" height="15.2" fill="none"/>
        </g>
        <path id="Path_5153" data-name="Path 5153" d="M789.591,72.536v16.4H700.939v-.179l87.252-16.22Z" transform="translate(-700.939 -72.536)" fill="url(#linear-gradient-37)" style="mix-blend-mode: multiply;isolation: isolate"/>
      </g>
    </g>
    <path id="Path_5154" data-name="Path 5154" d="M873.355,96.3a.5.5,0,0,1-.3-.541c.014-.347,0-.7,0-1.042-.044-.013-.061.017-.082.033-.285.213-.569.427-.855.64a.4.4,0,1,1-.484-.644q.673-.507,1.348-1.011a.14.14,0,0,0,.075-.122c0-.731,0-1.462,0-2.193a.31.31,0,0,0-.009-.044l-.153.093c-.562.338-1.123.678-1.689,1.011a.271.271,0,0,0-.15.239c-.051.552-.109,1.1-.17,1.654a.4.4,0,0,1-.425.36.393.393,0,0,1-.371-.424c.025-.337.066-.672.1-1.008.007-.065.012-.13.018-.2-.049-.006-.075.024-.1.042-.312.186-.621.375-.934.558a.394.394,0,0,1-.517-.086.407.407,0,0,1-.006-.509.505.505,0,0,1,.145-.116l.971-.583a.176.176,0,0,0,.024-.026l-.554-.227c-.176-.072-.353-.142-.529-.216a.4.4,0,1,1,.307-.743q.789.319,1.576.642a.128.128,0,0,0,.131,0q.955-.578,1.912-1.151c.011-.007.022-.016.042-.03l-.079-.05q-.928-.558-1.856-1.117a.157.157,0,0,0-.161-.009q-.781.323-1.566.638a.4.4,0,0,1-.508-.138.4.4,0,0,1,.191-.6c.324-.135.651-.265.976-.4l.124-.053c-.12-.073-.231-.142-.343-.209-.223-.134-.447-.267-.669-.4a.4.4,0,1,1,.416-.69c.3.18.6.362.905.543a.217.217,0,0,0,.107.047c-.029-.287-.058-.567-.086-.848-.012-.124-.03-.248-.033-.373a.4.4,0,0,1,.795-.062q.094.837.174,1.676a.246.246,0,0,0,.13.217c.6.352,1.189.711,1.783,1.067l.064.037c.035-.019.021-.048.021-.071,0-.713,0-1.425,0-2.138a.159.159,0,0,0-.076-.144q-.68-.506-1.357-1.017a.4.4,0,1,1,.469-.654c.293.215.582.435.873.653l.071.05c.033-.035.017-.074.018-.108,0-.367,0-.735,0-1.1a.393.393,0,0,1,.335-.381.408.408,0,0,1,.432.235.486.486,0,0,1,.034.2q0,.567,0,1.135a.063.063,0,0,0,0,.012c.045,0,.07-.035.1-.057.289-.215.574-.434.864-.646a.4.4,0,0,1,.615.17.407.407,0,0,1-.159.494c-.443.333-.885.667-1.331,1a.207.207,0,0,0-.1.189c0,.723,0,1.447,0,2.169.038.019.059-.011.081-.024q.915-.548,1.829-1.1a.138.138,0,0,0,.079-.117c.054-.555.115-1.11.169-1.665a.407.407,0,1,1,.809.051c-.041.383-.081.766-.121,1.152a.2.2,0,0,0,.107-.049c.3-.18.6-.363.905-.543a.4.4,0,1,1,.41.693l-1.006.606.676.276c.142.058.286.114.427.175a.4.4,0,1,1-.309.744c-.526-.212-1.051-.427-1.577-.641-.043-.018-.08-.04-.132-.008q-.973.59-1.948,1.175c.005.04.039.044.062.058.618.373,1.238.744,1.854,1.119a.165.165,0,0,0,.17.009q.787-.324,1.576-.642a.4.4,0,0,1,.42.678.593.593,0,0,1-.164.088l-1.043.424c.022.041.061.052.093.071.31.188.622.373.932.562a.4.4,0,0,1,.19.424.407.407,0,0,1-.327.318.421.421,0,0,1-.3-.068l-.914-.549c-.031-.019-.063-.036-.1-.058.04.386.076.763.118,1.138a.412.412,0,0,1-.34.493.408.408,0,0,1-.464-.4q-.085-.838-.172-1.676a.118.118,0,0,0-.056-.108q-.949-.566-1.9-1.136a.074.074,0,0,0-.022,0c-.029.017-.015.046-.015.068,0,.713,0,1.425,0,2.138a.16.16,0,0,0,.076.144c.45.335.9.673,1.349,1.008a.407.407,0,0,1,.181.419.374.374,0,0,1-.258.3.4.4,0,0,1-.394-.066q-.422-.318-.846-.634l-.088-.064c-.034.023-.018.055-.018.081,0,.334-.011.669,0,1a.466.466,0,0,1-.314.513Z" transform="translate(-131.942 -16.073)" fill="#fff"/>
  </g>
</svg>
