<svg id="Group_15804" data-name="Group 15804" xmlns="http://www.w3.org/2000/svg" xmlns:xlink="http://www.w3.org/1999/xlink" width="69.404" height="31.357" viewBox="0 0 69.404 31.357">
  <defs>
    <linearGradient id="linear-gradient" y1="0.5" x2="1" y2="0.5" gradientUnits="objectBoundingBox">
      <stop offset="0" stop-color="#3b393c"/>
      <stop offset="0.374" stop-color="#4b4b4d"/>
      <stop offset="0.671" stop-color="#59595b"/>
      <stop offset="1" stop-color="#95969a"/>
    </linearGradient>
    <linearGradient id="linear-gradient-2" x1="1" y1="0.5" x2="0" y2="0.5" gradientUnits="objectBoundingBox">
      <stop offset="0" stop-color="#827cbc"/>
      <stop offset="1" stop-color="#4762af"/>
    </linearGradient>
    <linearGradient id="linear-gradient-5" x1="1" y1="0.5" x2="0" y2="0.5" xlink:href="#linear-gradient"/>
  </defs>
  <g id="Group_15344" data-name="Group 15344" transform="translate(13.472 19.298)">
    <rect id="Rectangle_8493" data-name="Rectangle 8493" width="17.568" height="6.108" transform="translate(0)" fill="#263238"/>
    <rect id="Rectangle_8494" data-name="Rectangle 8494" width="17.568" height="6.108" transform="translate(0)" fill="#fff" opacity="0.3"/>
  </g>
  <g id="Group_15373" data-name="Group 15373" transform="translate(0)">
    <g id="Group_15345" data-name="Group 15345" transform="translate(46.488 17.887)">
      <path id="Path_71428" data-name="Path 71428" d="M-578.143,383.345v-3.034h11.635v7.519h-15.97v-4.486Z" transform="translate(582.478 -380.311)" fill="#263238"/>
      <path id="Path_71429" data-name="Path 71429" d="M-578.143,383.345v-3.034h11.635v7.519h-15.97v-4.486Z" transform="translate(582.478 -380.311)" fill="#fff" opacity="0.3"/>
    </g>
    <g id="Group_15372" data-name="Group 15372">
      <g id="Group_15360" data-name="Group 15360" transform="translate(0.901)">
        <g id="Group_15355" data-name="Group 15355">
          <g id="Group_15350" data-name="Group 15350">
            <path id="Path_71430" data-name="Path 71430" d="M-435.142,299.706l-37.091,2.767a1.749,1.749,0,0,1-1.874-1.614l-.557-7.468a2.624,2.624,0,0,1,.214-1.249l1.427-3.252a3.2,3.2,0,0,1,2.693-1.906l16.269-1.214a10.934,10.934,0,0,1,6.86,1.793l4.139,2.747,7.306.827a2.966,2.966,0,0,1,2.33,1.644l.725,1.482a2.963,2.963,0,0,1,.3,1.3l0,1.182A2.965,2.965,0,0,1-435.142,299.706Z" transform="translate(474.672 -284.768)" fill="#263238"/>
            <path id="Path_71431" data-name="Path 71431" d="M-470.931,340.475l.863-.048a5.669,5.669,0,0,1,5.1-4.389,5.671,5.671,0,0,1,5.773,3.78l17.3-.969a5.672,5.672,0,0,1,5.2-4.92,5.67,5.67,0,0,1,5.926,4.3l.871-.049a2.984,2.984,0,0,1-.755.656v.005c-.029.017-.059.031-.088.047q-.066.038-.134.072c-.048.024-.1.047-.145.068s-.109.044-.165.064-.09.033-.136.047c-.067.021-.136.037-.2.053-.038.009-.075.02-.114.027a2.966,2.966,0,0,1-.334.045l-9.953.743-16.962,1.265-10.176.759c-.056,0-.112.005-.167,0l-.056,0c-.036,0-.072,0-.108-.008l-.065-.01c-.032,0-.064-.01-.1-.017l-.066-.016c-.03-.008-.06-.016-.089-.025l-.065-.022-.086-.033-.06-.026c-.029-.013-.058-.028-.087-.043l-.052-.028c-.031-.018-.062-.037-.092-.057l-.039-.026-.019-.012v0A1.745,1.745,0,0,1-470.931,340.475Z" transform="translate(471.503 -324.324)" fill="#263238"/>
            <path id="Path_71432" data-name="Path 71432" d="M-470.931,340.475l.863-.048a5.669,5.669,0,0,1,5.1-4.389,5.671,5.671,0,0,1,5.773,3.78l17.3-.969a5.672,5.672,0,0,1,5.2-4.92,5.67,5.67,0,0,1,5.926,4.3l.871-.049a2.984,2.984,0,0,1-.755.656v.005c-.029.017-.059.031-.088.047q-.066.038-.134.072c-.048.024-.1.047-.145.068s-.109.044-.165.064-.09.033-.136.047c-.067.021-.136.037-.2.053-.038.009-.075.02-.114.027a2.966,2.966,0,0,1-.334.045l-9.953.743-16.962,1.265-10.176.759c-.056,0-.112.005-.167,0l-.056,0c-.036,0-.072,0-.108-.008l-.065-.01c-.032,0-.064-.01-.1-.017l-.066-.016c-.03-.008-.06-.016-.089-.025l-.065-.022-.086-.033-.06-.026c-.029-.013-.058-.028-.087-.043l-.052-.028c-.031-.018-.062-.037-.092-.057l-.039-.026-.019-.012v0A1.745,1.745,0,0,1-470.931,340.475Z" transform="translate(471.503 -324.324)" fill="#fff" opacity="0.4"/>
            <path id="Path_71433" data-name="Path 71433" d="M-468.672,317.477l-.154-.167,2.2.25a2.465,2.465,0,0,1,1.937,1.366l.434.887-1.1-.308A7.119,7.119,0,0,1-468.672,317.477Z" transform="translate(505.481 -310.691)" fill="#fff" opacity="0.7"/>
            <path id="Path_71434" data-name="Path 71434" d="M-472.583,345.2c.035.467.246.833.47.816s.379-.409.344-.877-.246-.833-.47-.816S-472.617,344.732-472.583,345.2Z" transform="translate(513.665 -332.872)" fill="#fff" opacity="0.7"/>
            <rect id="Rectangle_8495" data-name="Rectangle 8495" width="1.829" height="1.829" rx="0.914" transform="translate(5.737 10.38) rotate(175.733)" fill="#fff" opacity="0.1"/>
            <path id="Path_71435" data-name="Path 71435" d="M-397.054,292.716a2.13,2.13,0,0,1,1.742-1.163l9.721-.725c2.033-.152,2.868.4,4.7,1.618l3.1,2.059a.557.557,0,0,1-.285,1.02l-20.839.873Z" transform="translate(406.268 -288.925)" fill="#263238"/>
            <path id="Path_71436" data-name="Path 71436" d="M-397.054,292.716a2.13,2.13,0,0,1,1.742-1.163l9.721-.725c2.033-.152,2.868.4,4.7,1.618l3.1,2.059a.557.557,0,0,1-.285,1.02l-20.839.873Z" transform="translate(406.268 -288.925)" fill="#fff" opacity="0.3"/>
            <path id="Path_71437" data-name="Path 71437" d="M-282.792,300.759l1.427-3.252a3.189,3.189,0,0,1,.54-.839l.021,0,5.773-.431-3.152,4.02a2.019,2.019,0,0,1-1.5.772l-3.251.188A2.613,2.613,0,0,1-282.792,300.759Z" transform="translate(283.013 -293.385)" fill="#263238"/>
            <path id="Path_71438" data-name="Path 71438" d="M-282.792,300.759l1.427-3.252a3.189,3.189,0,0,1,.54-.839l.021,0,5.773-.431-3.152,4.02a2.019,2.019,0,0,1-1.5.772l-3.251.188A2.613,2.613,0,0,1-282.792,300.759Z" transform="translate(283.013 -293.385)" fill="#fff" opacity="0.3"/>
            <path id="Path_71439" data-name="Path 71439" d="M-409.066,291.817l-5.978-4a10.932,10.932,0,0,1,3.227,1.453l4.139,2.747-.535.034A1.379,1.379,0,0,1-409.066,291.817Z" transform="translate(439.287 -286.47)" fill="#263238"/>
            <path id="Path_71440" data-name="Path 71440" d="M-409.066,291.817l-5.978-4a10.932,10.932,0,0,1,3.227,1.453l4.139,2.747-.535.034A1.379,1.379,0,0,1-409.066,291.817Z" transform="translate(439.287 -286.47)" fill="#fff" opacity="0.3"/>
            <rect id="Rectangle_8496" data-name="Rectangle 8496" width="2.306" height="0.524" rx="0.262" transform="translate(21.26 8.292) rotate(175.734)" fill="#fff" opacity="0.7"/>
            <rect id="Rectangle_8497" data-name="Rectangle 8497" width="2.306" height="0.524" rx="0.262" transform="matrix(-0.997, 0.074, -0.074, -0.997, 9.581, 8.784)" fill="#fff" opacity="0.7"/>
            <path id="Path_71441" data-name="Path 71441" d="M-244.332,327.648l-1.045,2.226-.2-2.661c-.005-.075,0-.15,0-.225l.753-.056A.5.5,0,0,1-244.332,327.648Z" transform="translate(245.583 -318.59)" fill="#fff" opacity="0.7"/>
            <path id="Path_71442" data-name="Path 71442" d="M-345.622,281.29a4.979,4.979,0,0,0-2.365-.366l-4.623.41.086.464-.6.045-.084-.456-6.086.54a5.007,5.007,0,0,0-1.807.512l-1.081.081c-.06,0-.118.012-.177.019a5.585,5.585,0,0,1,3.012-1.211l11.311-1a5.617,5.617,0,0,1,3.628.93l.073.049A10.9,10.9,0,0,0-345.622,281.29Z" transform="translate(366.527 -280.304)" fill="#263238"/>
            <path id="Path_71443" data-name="Path 71443" d="M-345.622,281.29a4.979,4.979,0,0,0-2.365-.366l-4.623.41.086.464-.6.045-.084-.456-6.086.54a5.007,5.007,0,0,0-1.807.512l-1.081.081c-.06,0-.118.012-.177.019a5.585,5.585,0,0,1,3.012-1.211l11.311-1a5.617,5.617,0,0,1,3.628.93l.073.049A10.9,10.9,0,0,0-345.622,281.29Z" transform="translate(366.527 -280.304)" fill="#fff" opacity="0.5"/>
            <g id="Group_15346" data-name="Group 15346" transform="translate(29.178 7.004)" opacity="0.3">
              <path id="Path_71444" data-name="Path 71444" d="M-404.572,319.572q.181,2.422.361,4.843a.12.12,0,0,1-.24.018q-.181-2.421-.361-4.843a.12.12,0,0,1,.24-.018Z" transform="translate(404.812 -319.464)" fill="#fff"/>
            </g>
            <g id="Group_15347" data-name="Group 15347" transform="translate(18.14 7.628)" opacity="0.3">
              <path id="Path_71445" data-name="Path 71445" d="M-346.979,323.059l1.1,6.6c.025.153-.215.17-.24.018l-1.1-6.6c-.025-.153.215-.17.24-.018Z" transform="translate(347.221 -322.953)" fill="#fff"/>
            </g>
            <g id="Group_15348" data-name="Group 15348" transform="translate(6.505 8.294)" opacity="0.3">
              <path id="Path_71446" data-name="Path 71446" d="M-277.742,326.784l.348,2.659c.02.154-.22.171-.24.018l-.348-2.659c-.02-.154.22-.171.24-.018Z" transform="translate(277.983 -326.677)" fill="#fff"/>
            </g>
            <path id="Path_71447" data-name="Path 71447" d="M-311.352,299.493l-2.044-4.519a2.128,2.128,0,0,1,.54-.112l.384-.029,2.089,4.619Z" transform="translate(323.813 -292.235)" fill="#fff" opacity="0.1"/>
            <g id="Group_15349" data-name="Group 15349" transform="translate(7.352 1.885)" opacity="0.1">
              <path id="Path_71448" data-name="Path 71448" d="M-366.905,295.957l-1.1-2.437-.18-2.411,3.365-.251c.112-.008.22-.014.325-.018l2.226,4.923Z" transform="translate(378.147 -290.84)" fill="#fff"/>
              <path id="Path_71449" data-name="Path 71449" d="M-302.263,298.06a2.122,2.122,0,0,1,.637-.749l1.92,4.245-4.419.185Z" transform="translate(304.125 -296.154)" fill="#fff"/>
            </g>
            <path id="Path_71450" data-name="Path 71450" d="M-341.487,296.956l-1.416.059-.892-4.84,1.408-.1Z" transform="translate(360.353 -289.966)" fill="#263238"/>
          </g>
          <g id="Group_15352" data-name="Group 15352" transform="translate(29.52 9.547)">
            <ellipse id="Ellipse_491" data-name="Ellipse 491" cx="4.05" cy="4.05" rx="4.05" ry="4.05" transform="matrix(-0.758, -0.653, 0.653, -0.758, 6.138, 11.423)" fill="#263238"/>
            <ellipse id="Ellipse_492" data-name="Ellipse 492" cx="2.529" cy="2.529" rx="2.529" ry="2.529" transform="matrix(-0.543, -0.84, 0.84, -0.543, 4.96, 9.209)" fill="#fff" opacity="0.5"/>
            <g id="Group_15351" data-name="Group 15351" transform="translate(3.632 3.632)" opacity="0.3">
              <path id="Path_71451" data-name="Path 71451" d="M-432.935,355.545h0a.2.2,0,0,1-.212-.015L-433.9,355a.206.206,0,0,1-.017-.324,2.074,2.074,0,0,1,.86-.434.206.206,0,0,1,.251.206l-.018.918A.2.2,0,0,1-432.935,355.545Z" transform="translate(434.65 -354.191)"/>
              <path id="Path_71452" data-name="Path 71452" d="M-441.638,355.294h0a.205.205,0,0,1-.138-.16l-.154-.905a.207.207,0,0,1,.218-.241,2.076,2.076,0,0,1,.915.3.206.206,0,0,1,.031.323l-.662.637A.205.205,0,0,1-441.638,355.294Z" transform="translate(443.973 -353.986)"/>
              <path id="Path_71453" data-name="Path 71453" d="M-446.645,358.751v0a.205.205,0,0,1,.015-.212l.532-.749a.206.206,0,0,1,.324-.017,2.074,2.074,0,0,1,.434.86.206.206,0,0,1-.206.251l-.918-.017A.205.205,0,0,1-446.645,358.751Z" transform="translate(449.451 -357.035)"/>
              <path id="Path_71454" data-name="Path 71454" d="M-430.414,359.034l.637.662a.2.2,0,0,1,.046.208v0a.205.205,0,0,1-.16.139l-.906.154a.207.207,0,0,1-.241-.218,2.076,2.076,0,0,1,.3-.915A.206.206,0,0,1-430.414,359.034Z" transform="translate(431.039 -358.079)"/>
              <path id="Path_71455" data-name="Path 71455" d="M-434.6,369.877h0a.2.2,0,0,1,.138.16l.154.906a.207.207,0,0,1-.218.241,2.072,2.072,0,0,1-.915-.3.206.206,0,0,1-.031-.323l.662-.637A.205.205,0,0,1-434.6,369.877Z" transform="translate(436.421 -367.026)"/>
              <path id="Path_71456" data-name="Path 71456" d="M-446.908,365.673v0a.2.2,0,0,1,.16-.139l.906-.154a.207.207,0,0,1,.241.218,2.073,2.073,0,0,1-.3.915.206.206,0,0,1-.323.031l-.637-.662A.205.205,0,0,1-446.908,365.673Z" transform="translate(449.759 -363.338)"/>
              <path id="Path_71457" data-name="Path 71457" d="M-430.056,367.05v0a.205.205,0,0,1-.015.212l-.532.749a.206.206,0,0,1-.324.017,2.074,2.074,0,0,1-.434-.86.207.207,0,0,1,.206-.251l.918.018A.2.2,0,0,1-430.056,367.05Z" transform="translate(431.41 -364.606)"/>
              <path id="Path_71458" data-name="Path 71458" d="M-443.075,369.564h0a.2.2,0,0,1,.212.015l.749.532a.206.206,0,0,1,.017.324,2.075,2.075,0,0,1-.86.434.207.207,0,0,1-.251-.206l.018-.918A.2.2,0,0,1-443.075,369.564Z" transform="translate(445.519 -366.758)"/>
            </g>
          </g>
          <g id="Group_15354" data-name="Group 15354" transform="translate(1.249 11.656)">
            <ellipse id="Ellipse_493" data-name="Ellipse 493" cx="4.05" cy="4.05" rx="4.05" ry="4.05" transform="matrix(-0.758, -0.653, 0.653, -0.758, 6.138, 11.423)" fill="#263238"/>
            <ellipse id="Ellipse_494" data-name="Ellipse 494" cx="2.529" cy="2.529" rx="2.529" ry="2.529" transform="translate(7.303 8.915) rotate(-161.423)" fill="#fff" opacity="0.5"/>
            <g id="Group_15353" data-name="Group 15353" transform="translate(3.632 3.632)" opacity="0.3">
              <path id="Path_71459" data-name="Path 71459" d="M-274.874,367.337h0a.205.205,0,0,1-.212-.015l-.749-.532a.206.206,0,0,1-.017-.324,2.074,2.074,0,0,1,.86-.434.207.207,0,0,1,.251.206l-.018.918A.205.205,0,0,1-274.874,367.337Z" transform="translate(276.589 -365.983)"/>
              <path id="Path_71460" data-name="Path 71460" d="M-283.577,367.086h0a.2.2,0,0,1-.138-.16l-.154-.906a.206.206,0,0,1,.218-.241,2.072,2.072,0,0,1,.915.3.206.206,0,0,1,.031.323l-.662.637A.205.205,0,0,1-283.577,367.086Z" transform="translate(285.911 -365.778)"/>
              <path id="Path_71461" data-name="Path 71461" d="M-288.584,370.542v0a.2.2,0,0,1,.015-.212l.532-.749a.206.206,0,0,1,.324-.017,2.076,2.076,0,0,1,.434.86.207.207,0,0,1-.206.251l-.918-.018A.205.205,0,0,1-288.584,370.542Z" transform="translate(291.39 -368.827)"/>
              <path id="Path_71462" data-name="Path 71462" d="M-272.353,370.825l.637.662a.205.205,0,0,1,.046.208v0a.2.2,0,0,1-.16.138l-.906.154a.207.207,0,0,1-.241-.218,2.072,2.072,0,0,1,.3-.915A.206.206,0,0,1-272.353,370.825Z" transform="translate(272.978 -369.87)"/>
              <path id="Path_71463" data-name="Path 71463" d="M-276.535,381.669h0a.205.205,0,0,1,.139.16l.154.906a.207.207,0,0,1-.218.241,2.076,2.076,0,0,1-.915-.3.206.206,0,0,1-.031-.323l.662-.637A.206.206,0,0,1-276.535,381.669Z" transform="translate(278.36 -378.818)"/>
              <path id="Path_71464" data-name="Path 71464" d="M-288.847,377.465v0a.205.205,0,0,1,.16-.138l.905-.154a.207.207,0,0,1,.241.218,2.076,2.076,0,0,1-.3.915.206.206,0,0,1-.323.031l-.637-.662A.205.205,0,0,1-288.847,377.465Z" transform="translate(291.698 -375.13)"/>
              <path id="Path_71465" data-name="Path 71465" d="M-271.995,378.841v0a.205.205,0,0,1-.015.212l-.532.749a.206.206,0,0,1-.324.017,2.074,2.074,0,0,1-.434-.86.207.207,0,0,1,.206-.251l.918.018A.2.2,0,0,1-271.995,378.841Z" transform="translate(273.349 -376.398)"/>
              <path id="Path_71466" data-name="Path 71466" d="M-285.014,381.356h0a.205.205,0,0,1,.212.015l.749.532a.206.206,0,0,1,.017.324,2.074,2.074,0,0,1-.86.434.206.206,0,0,1-.251-.206l.017-.918A.205.205,0,0,1-285.014,381.356Z" transform="translate(287.458 -378.55)"/>
            </g>
          </g>
        </g>
        <g id="Group_15356" data-name="Group 15356" transform="translate(33.344 17.018)">
          <path id="Path_71467" data-name="Path 71467" d="M-449.481,375.466l-.143.065a.143.143,0,0,0-.06.209l1.393,2.086.508-.263-1.525-2.052A.143.143,0,0,0-449.481,375.466Z" transform="translate(452.249 -375.454)" fill="#407bff"/>
          <path id="Path_71468" data-name="Path 71468" d="M-432.448,376.083l.151.043a.142.142,0,0,1,.09.2l-1.068,2.27-.542-.185,1.2-2.255A.142.142,0,0,1-432.448,376.083Z" transform="translate(433.815 -375.966)" fill="#407bff"/>
        </g>
        <g id="Group_15357" data-name="Group 15357" transform="translate(33.344 17.018)" opacity="0.5">
          <path id="Path_71469" data-name="Path 71469" d="M-449.481,375.466l-.143.065a.143.143,0,0,0-.06.209l1.393,2.086.508-.263-1.525-2.052A.143.143,0,0,0-449.481,375.466Z" transform="translate(452.249 -375.454)" fill="#fff"/>
          <path id="Path_71470" data-name="Path 71470" d="M-432.448,376.083l.151.043a.142.142,0,0,1,.09.2l-1.068,2.27-.542-.185,1.2-2.255A.142.142,0,0,1-432.448,376.083Z" transform="translate(433.815 -375.966)" fill="#fff"/>
        </g>
        <g id="Group_15358" data-name="Group 15358" transform="translate(4.985 19.134)">
          <path id="Path_71471" data-name="Path 71471" d="M-290.926,387.294l-.143.065a.142.142,0,0,0-.06.209l1.393,2.086.508-.264-1.525-2.051A.142.142,0,0,0-290.926,387.294Z" transform="translate(293.694 -387.282)" fill="#407bff"/>
          <path id="Path_71472" data-name="Path 71472" d="M-273.893,387.912l.151.043a.143.143,0,0,1,.091.2l-1.068,2.27-.542-.185,1.2-2.255A.143.143,0,0,1-273.893,387.912Z" transform="translate(275.261 -387.795)" fill="#407bff"/>
        </g>
        <g id="Group_15359" data-name="Group 15359" transform="translate(4.985 19.134)" opacity="0.5">
          <path id="Path_71473" data-name="Path 71473" d="M-290.926,387.294l-.143.065a.142.142,0,0,0-.06.209l1.393,2.086.508-.264-1.525-2.051A.142.142,0,0,0-290.926,387.294Z" transform="translate(293.694 -387.282)" fill="#fff"/>
          <path id="Path_71474" data-name="Path 71474" d="M-273.893,387.912l.151.043a.143.143,0,0,1,.091.2l-1.068,2.27-.542-.185,1.2-2.255A.143.143,0,0,1-273.893,387.912Z" transform="translate(275.261 -387.795)" fill="#fff"/>
        </g>
      </g>
      <ellipse id="Ellipse_495" data-name="Ellipse 495" cx="5.4" cy="5.4" rx="5.4" ry="5.4" transform="translate(14.937 20.557)" fill="#010405"/>
      <circle id="Ellipse_496" data-name="Ellipse 496" cx="3.154" cy="3.154" r="3.154" transform="translate(20.337 30.418) rotate(-135)" fill="url(#linear-gradient)"/>
      <g id="Group_15361" data-name="Group 15361" transform="translate(17.833 23.453)" opacity="0.5">
        <path id="Path_71475" data-name="Path 71475" d="M-360.643,418.027a2.013,2.013,0,0,0-.293-.706.264.264,0,0,1,.014-.315h0a.264.264,0,0,1,.422.021,2.536,2.536,0,0,1,.371.9.264.264,0,0,1-.283.316h0A.264.264,0,0,1-360.643,418.027Z" transform="translate(365.131 -415.93)" fill="#fff"/>
        <path id="Path_71476" data-name="Path 71476" d="M-354.582,412.243a2.014,2.014,0,0,0-.706-.293.264.264,0,0,1-.211-.233h0a.264.264,0,0,1,.315-.283,2.534,2.534,0,0,1,.9.372.263.263,0,0,1,.021.422h0A.264.264,0,0,1-354.582,412.243Z" transform="translate(358.199 -411.429)" fill="#fff"/>
        <path id="Path_71477" data-name="Path 71477" d="M-336.984,417.006h0a.264.264,0,0,1,.015.315,2.011,2.011,0,0,0-.293.706.264.264,0,0,1-.233.212h0a.264.264,0,0,1-.283-.316,2.535,2.535,0,0,1,.372-.9A.264.264,0,0,1-336.984,417.006Z" transform="translate(337.783 -415.93)" fill="#fff"/>
        <path id="Path_71478" data-name="Path 71478" d="M-344.777,411.95a2.013,2.013,0,0,0-.706.293.264.264,0,0,1-.315-.015h0a.263.263,0,0,1,.021-.422,2.534,2.534,0,0,1,.9-.372.264.264,0,0,1,.315.283h0A.264.264,0,0,1-344.777,411.95Z" transform="translate(346.874 -411.429)" fill="#fff"/>
        <path id="Path_71479" data-name="Path 71479" d="M-355.288,434.965a2.012,2.012,0,0,0,.706-.293.264.264,0,0,1,.315.015h0a.264.264,0,0,1-.021.422,2.534,2.534,0,0,1-.9.371.264.264,0,0,1-.315-.283h0A.264.264,0,0,1-355.288,434.965Z" transform="translate(358.199 -430.478)" fill="#fff"/>
        <path id="Path_71480" data-name="Path 71480" d="M-337.262,426.73a2.008,2.008,0,0,0,.293.706.264.264,0,0,1-.015.315h0a.264.264,0,0,1-.422-.021,2.534,2.534,0,0,1-.372-.9.264.264,0,0,1,.283-.316h0A.263.263,0,0,1-337.262,426.73Z" transform="translate(337.784 -423.819)" fill="#fff"/>
        <path id="Path_71481" data-name="Path 71481" d="M-360.936,427.436a2.013,2.013,0,0,0,.293-.706.263.263,0,0,1,.233-.211h0a.264.264,0,0,1,.283.316,2.534,2.534,0,0,1-.371.9.264.264,0,0,1-.422.021h0A.264.264,0,0,1-360.936,427.436Z" transform="translate(365.131 -423.819)" fill="#fff"/>
        <path id="Path_71482" data-name="Path 71482" d="M-345.483,434.672a2.009,2.009,0,0,0,.706.293.264.264,0,0,1,.212.233h0a.264.264,0,0,1-.315.283,2.533,2.533,0,0,1-.9-.371.264.264,0,0,1-.021-.422h0A.264.264,0,0,1-345.483,434.672Z" transform="translate(346.874 -430.478)" fill="#fff"/>
      </g>
      <path id="Path_71483" data-name="Path 71483" d="M-498.405,312.314h29.834v-7.855l1.117-7.914h4.935v16.386l-2.328,6.86h-21.115c0-.065,0-.129,0-.194a6.158,6.158,0,0,0-6.158-6.158,6.158,6.158,0,0,0-6.158,6.158c0,.065,0,.13.005.194h-1.167l-13.017-.593v-2.043Z" transform="translate(512.452 -293.64)" fill="url(#linear-gradient-2)"/>
      <g id="Group_15363" data-name="Group 15363" transform="translate(49.747 20.557)">
        <ellipse id="Ellipse_497" data-name="Ellipse 497" cx="5.4" cy="5.4" rx="5.4" ry="5.4" transform="translate(0)" fill="#060707"/>
        <circle id="Ellipse_498" data-name="Ellipse 498" cx="3.154" cy="3.154" r="3.154" transform="translate(5.4 9.861) rotate(-135)" fill="url(#linear-gradient)"/>
        <g id="Group_15362" data-name="Group 15362" transform="translate(2.896 2.896)" opacity="0.5">
          <path id="Path_71484" data-name="Path 71484" d="M-555.265,418.027a2.013,2.013,0,0,0-.293-.706.264.264,0,0,1,.015-.315h0a.264.264,0,0,1,.422.021,2.537,2.537,0,0,1,.372.9.264.264,0,0,1-.283.316h0A.263.263,0,0,1-555.265,418.027Z" transform="translate(559.753 -415.93)" fill="#fff"/>
          <path id="Path_71485" data-name="Path 71485" d="M-549.2,412.243a2.015,2.015,0,0,0-.706-.293.264.264,0,0,1-.211-.233h0a.264.264,0,0,1,.315-.283,2.533,2.533,0,0,1,.9.372.263.263,0,0,1,.022.422h0A.264.264,0,0,1-549.2,412.243Z" transform="translate(552.821 -411.429)" fill="#fff"/>
          <path id="Path_71486" data-name="Path 71486" d="M-531.606,417.006h0a.264.264,0,0,1,.015.315,2.012,2.012,0,0,0-.293.706.264.264,0,0,1-.233.212h0a.264.264,0,0,1-.283-.316,2.536,2.536,0,0,1,.372-.9A.263.263,0,0,1-531.606,417.006Z" transform="translate(532.405 -415.93)" fill="#fff"/>
          <path id="Path_71487" data-name="Path 71487" d="M-539.4,411.95a2.012,2.012,0,0,0-.706.293.264.264,0,0,1-.315-.015h0a.263.263,0,0,1,.021-.422,2.534,2.534,0,0,1,.9-.372.264.264,0,0,1,.315.283h0A.264.264,0,0,1-539.4,411.95Z" transform="translate(541.496 -411.429)" fill="#fff"/>
          <path id="Path_71488" data-name="Path 71488" d="M-549.91,434.965a2.013,2.013,0,0,0,.706-.293.264.264,0,0,1,.315.015h0a.264.264,0,0,1-.022.422,2.533,2.533,0,0,1-.9.371.264.264,0,0,1-.315-.283h0A.264.264,0,0,1-549.91,434.965Z" transform="translate(552.821 -430.478)" fill="#fff"/>
          <path id="Path_71489" data-name="Path 71489" d="M-531.884,426.73a2.012,2.012,0,0,0,.293.706.264.264,0,0,1-.015.315h0a.264.264,0,0,1-.422-.021,2.534,2.534,0,0,1-.372-.9.264.264,0,0,1,.283-.316h0A.263.263,0,0,1-531.884,426.73Z" transform="translate(532.405 -423.819)" fill="#fff"/>
          <path id="Path_71490" data-name="Path 71490" d="M-555.558,427.436a2.013,2.013,0,0,0,.293-.706.263.263,0,0,1,.233-.211h0a.264.264,0,0,1,.283.316,2.536,2.536,0,0,1-.372.9.264.264,0,0,1-.422.021h0A.264.264,0,0,1-555.558,427.436Z" transform="translate(559.753 -423.819)" fill="#fff"/>
          <path id="Path_71491" data-name="Path 71491" d="M-540.1,434.672a2.009,2.009,0,0,0,.706.293.264.264,0,0,1,.212.233h0a.264.264,0,0,1-.315.283,2.534,2.534,0,0,1-.9-.371.264.264,0,0,1-.021-.422h0A.264.264,0,0,1-540.1,434.672Z" transform="translate(541.496 -430.478)" fill="#fff"/>
        </g>
      </g>
      <g id="Group_15371" data-name="Group 15371" transform="translate(50.269 2.905)">
        <g id="Group_15364" data-name="Group 15364" transform="translate(18.273 9.52)">
          <rect id="Rectangle_8498" data-name="Rectangle 8498" width="0.326" height="1.731" transform="translate(0)" fill="#263238"/>
          <rect id="Rectangle_8499" data-name="Rectangle 8499" width="0.326" height="1.731" transform="translate(0)" opacity="0.6"/>
        </g>
        <path id="Path_71492" data-name="Path 71492" d="M-602.408,315.137l-2.048-1.58-2.032-.408h-5.736V298.254a1.709,1.709,0,0,1,1.709-1.709h10.07A2.912,2.912,0,0,1-597.7,298.5l2.3,6.593a8.862,8.862,0,0,1,.494,2.918v11.039h-4.813Z" transform="translate(612.411 -296.545)" fill="url(#linear-gradient-2)"/>
        <g id="Group_15365" data-name="Group 15365" transform="translate(16.795 13.361)">
          <path id="Rectangle_8500" data-name="Rectangle 8500" d="M.655,0h0A.555.555,0,0,1,1.21.555V2.688a.555.555,0,0,1-.555.555h0A.655.655,0,0,1,0,2.588V.655A.655.655,0,0,1,.655,0Z" transform="translate(0)" fill="#407bff"/>
          <path id="Rectangle_8501" data-name="Rectangle 8501" d="M.655,0h0A.555.555,0,0,1,1.21.555V2.688a.555.555,0,0,1-.555.555h0A.655.655,0,0,1,0,2.588V.655A.655.655,0,0,1,.655,0Z" transform="translate(0)" fill="#fff" opacity="0.8"/>
        </g>
        <rect id="Rectangle_8502" data-name="Rectangle 8502" width="0.635" height="2.22" rx="0.318" transform="translate(3.592 11.941)" fill="#263238"/>
        <path id="Path_71493" data-name="Path 71493" d="M-618.409,358.49l.984-.439a.318.318,0,0,0,.188-.29v-.252a.318.318,0,0,0-.318-.318h-1a.352.352,0,0,0-.352.352v.626A.352.352,0,0,0-618.409,358.49Z" transform="translate(635.941 -346.343)" fill="url(#linear-gradient-5)"/>
        <path id="Path_71494" data-name="Path 71494" d="M-601.839,310.63h-.4a1.068,1.068,0,0,1-1.068-1.068v-5.324a.405.405,0,0,1,.405-.405h8.58a1.608,1.608,0,0,1,1.518,1.078l2.3,6.593c.031.088.06.189.087.3a1.354,1.354,0,0,1-1.759,1.611l-6.292-2.208A10.194,10.194,0,0,0-601.839,310.63Z" transform="translate(606.283 -302.529)" fill="#263238"/>
        <path id="Path_71495" data-name="Path 71495" d="M-601.839,310.63h-.4a1.068,1.068,0,0,1-1.068-1.068v-5.324a.405.405,0,0,1,.405-.405h8.58a1.608,1.608,0,0,1,1.518,1.078l2.3,6.593c.031.088.06.189.087.3a1.354,1.354,0,0,1-1.759,1.611l-6.292-2.208A10.194,10.194,0,0,0-601.839,310.63Z" transform="translate(606.283 -302.529)" fill="#fff" opacity="0.5"/>
        <path id="Path_71496" data-name="Path 71496" d="M-586.643,385.213h5.464a5.777,5.777,0,0,1,5.016,2.912l2.132,3.731h-1.716l-1.709-2.992a4.287,4.287,0,0,0-3.723-2.161h-5.464a.391.391,0,0,1-.391-.391V385.6A.391.391,0,0,1-586.643,385.213Z" transform="translate(587.035 -369.354)" fill="#407bff"/>
        <path id="Path_71497" data-name="Path 71497" d="M-586.643,385.213h5.464a5.777,5.777,0,0,1,5.016,2.912l2.132,3.731h-1.716l-1.709-2.992a4.287,4.287,0,0,0-3.723-2.161h-5.464a.391.391,0,0,1-.391-.391V385.6A.391.391,0,0,1-586.643,385.213Z" transform="translate(587.035 -369.354)" fill="#fff" opacity="0.4"/>
        <g id="Group_15366" data-name="Group 15366" transform="translate(16.159 19.552)">
          <rect id="Rectangle_8503" data-name="Rectangle 8503" width="2.126" height="2.126" rx="1.063" transform="translate(0)" fill="#263238"/>
          <rect id="Rectangle_8504" data-name="Rectangle 8504" width="2.126" height="2.126" rx="1.063" transform="translate(0)" fill="url(#linear-gradient-5)"/>
        </g>
        <g id="Group_15367" data-name="Group 15367" transform="translate(10.763 21.407)">
          <path id="Path_71498" data-name="Path 71498" d="M-616.794,418.072h6.076a.394.394,0,0,0,.394-.394v-1.052a.394.394,0,0,0-.394-.394h-7.142a.265.265,0,0,0-.227.4l.654,1.077A.746.746,0,0,0-616.794,418.072Z" transform="translate(618.125 -416.232)" fill="url(#linear-gradient-5)"/>
          <path id="Path_71499" data-name="Path 71499" d="M-616.794,418.072h6.076a.394.394,0,0,0,.394-.394v-1.052a.394.394,0,0,0-.394-.394h-7.142a.265.265,0,0,0-.227.4l.654,1.077A.746.746,0,0,0-616.794,418.072Z" transform="translate(618.125 -416.232)" opacity="0.6" fill="url(#linear-gradient-5)"/>
        </g>
        <path id="Rectangle_8505" data-name="Rectangle 8505" d="M.34,0h0a.684.684,0,0,1,.684.684V3.04a.684.684,0,0,1-.684.684h0A.34.34,0,0,1,0,3.384V.34A.34.34,0,0,1,.34,0Z" transform="translate(18.11 6.238)" fill="url(#linear-gradient-5)"/>
        <g id="Group_15368" data-name="Group 15368" transform="translate(15.774 11.191)" opacity="0.3">
          <path id="Path_71500" data-name="Path 71500" d="M-603.8,359.25v7.985a.14.14,0,0,1-.279,0V359.25a.14.14,0,0,1,.279,0Z" transform="translate(604.084 -359.115)"/>
        </g>
        <g id="Group_15369" data-name="Group 15369" transform="translate(2.84 8.417)" opacity="0.3">
          <path id="Path_71501" data-name="Path 71501" d="M-531.493,343.737v6.617a.14.14,0,0,1-.279,0v-6.617a.14.14,0,0,1,.279,0Z" transform="translate(531.772 -343.603)"/>
        </g>
        <g id="Group_15370" data-name="Group 15370" transform="translate(6.28 1.303)" opacity="0.2">
          <path id="Path_71502" data-name="Path 71502" d="M-593.01,303.833h.889l3.494,9.566-1.02-.358Z" transform="translate(596.418 -303.833)" fill="#fff"/>
          <path id="Path_71503" data-name="Path 71503" d="M-582.8,303.833h2.707l3.26,8.925-3.1-1.089Z" transform="translate(582.805 -303.833)" fill="#fff"/>
        </g>
      </g>
    </g>
  </g>
</svg>
