<svg xmlns="http://www.w3.org/2000/svg" width="131.984" height="84.915" viewBox="0 0 131.984 84.915">
  <g id="Group_2272" data-name="Group 2272" transform="translate(-231.061 -130.876)">
    <path id="Path_1389" data-name="Path 1389" d="M252.651,180.3a8.737,8.737,0,0,1-.922-.028,1.283,1.283,0,0,1-.116-2.516,5.3,5.3,0,0,1,1.306-.1q35.63-.006,71.261,0c3.6,0,5.222,1.628,5.226,5.237,0,3.871.03,7.742-.021,11.613-.011.874.24,1.082,1.089,1.076,5.147-.039,10.294.018,15.44-.041a5.177,5.177,0,0,1,4.207,1.773c.32.362.709.664,1.016,1.035a5.483,5.483,0,0,0,4.318,2.288,6.091,6.091,0,0,1,4.173,2.3q5.231,5.676,10.438,11.375a7.666,7.666,0,0,1,2.021,5.416c-.025,5.5.02,11-.032,16.5-.01,1.042.166,1.439,1.328,1.414,3.4-.073,3.4-.017,3.4,3.372,0,1.759.006,3.519,0,5.278-.016,3.666-2.343,5.981-6.04,5.993-3.431.012-6.863.032-10.293-.018-.86-.012-1.185.216-1.366,1.1a11.554,11.554,0,0,1-22.638-.058c-.171-.856-.455-1.037-1.252-1.036q-24.084.031-48.167-.006c-.827,0-1.091.262-1.267,1.034a11.551,11.551,0,0,1-22.662-.063c-.2-.924-.58-.965-1.3-.96-2.947.023-5.894.016-8.841.007-1.577,0-1.957-.37-1.958-1.933q-.009-18.475-.02-36.95a1.8,1.8,0,0,1,1.372-2.035,2.054,2.054,0,0,1,1.375,2.271c-.03,6.247,0,12.494-.031,18.74,0,.894.226,1.248,1.176,1.216,1.933-.064,3.873-.072,5.805,0,1,.038,1.266-.281,1.258-1.265-.044-5.587-.023-11.174-.02-16.76,0-1.925.165-2.084,2.134-2.085,5.543,0,11.086-.025,16.628.021,1.022.008,1.354-.248,1.344-1.316-.054-5.5-.025-11-.025-16.5,0-2.165.313-2.47,2.544-2.471,5.455,0,10.91-.019,16.365.018.924.006,1.258-.274,1.192-1.2-.068-.963-.019-1.934-.014-2.9.009-1.8.454-2.256,2.257-2.258q8.974-.007,17.948,0c2.381,0,2.7.326,2.7,2.76q0,19.268,0,38.536,0,2.31,0,4.619c0,.369.031.743.519.754.375.009.872.187,1.054-.277a3.321,3.321,0,0,0,.09-1.172q.005-24.679,0-49.358c0-.264-.01-.528,0-.792a1.444,1.444,0,0,0-1.178-1.525,5.6,5.6,0,0,0-1.7-.144q-18.279-.006-36.557,0Q269.938,180.28,252.651,180.3Zm53.126,53.224c5.14.012,10.28,0,15.419.057.946.011,1.065-.371,1.061-1.159-.027-4.349-.013-8.7-.013-13.049,0-3.461,0-3.434-3.508-3.314-.778.027-.966.3-.944,1.01.04,1.317.052,2.638-.006,3.953-.06,1.368-.887,1.851-2.151,1.318a10.059,10.059,0,0,1-1.3-.644,1.5,1.5,0,0,0-1.592-.035c-3.158,1.513-3.516,1.267-3.516-2.284,0-3.442,0-3.442-3.48-3.252-.877-.247-1.031.2-1.029.964q.032,7.751,0,15.5C304.713,233.414,304.959,233.737,305.777,233.522Zm-23.818-.2c.014-4.606.045-9.212.03-13.818,0-1.125.513-2.668-.236-3.262-.707-.561-2.186-.11-3.32-.186-.788-.053-.948.275-.924.981.046,1.358.046,2.721,0,4.08a1.315,1.315,0,0,1-1.971,1.3,8.617,8.617,0,0,1-1.4-.71,1.594,1.594,0,0,0-1.71-.021c-3.032,1.492-3.4,1.245-3.4-2.116,0-3.7,0-3.7-3.664-3.439-.676-.217-.835.1-.833.723q.018,7.977,0,15.953c0,.66.225.887.854.709l16.368.007C281.924,233.575,281.987,233.5,281.958,233.324Zm19.85.19c.164.038.258-.008.235-.194q.033-6.92.064-13.84c.01-3.546,0-3.524-3.505-3.422-.727.021-1.016.2-.985.97.054,1.36.046,2.726,0,4.087a1.3,1.3,0,0,1-1.963,1.3,9.908,9.908,0,0,1-1.531-.761,1.4,1.4,0,0,0-1.473,0c-3.231,1.513-3.524,1.315-3.524-2.244,0-3.579,0-3.579-3.693-3.258-.549-.161-.8,0-.8.616q.021,8.066,0,16.133c0,.642.281.742.8.609Zm57.546-25.3c-5.574-.021-11.148-.03-16.721-.08-.745-.006-.727.373-.725.9.011,3.117.022,6.235-.007,9.352-.006.667.16.908.874.9,7.9-.041,15.8-.049,23.7-.066.968,0,2.41.529,2.781-.238.482-1-.47-2.113-1.222-3-.057-.067-.116-.132-.175-.2-2.078-2.262-4.186-4.5-6.217-6.8A2.054,2.054,0,0,0,359.354,208.216Zm-53.835-18.6c-1.076-.269-.764.561-.766,1.035-.019,4.6-.012,9.2-.012,13.8,0,2.672,0,5.344,0,8.016,0,.495-.153,1.186.78.875,5.142.026,10.284.024,15.424.1,1.034.015,1.334-.263,1.326-1.309-.047-6.42-.024-12.839-.024-19.259,0-3.446,0-3.423-3.49-3.336-.739.019-1.013.215-.985.972.049,1.317.048,2.639,0,3.957-.051,1.478-.861,1.964-2.19,1.366a9.059,9.059,0,0,1-1.293-.646,1.3,1.3,0,0,0-1.563,0c-3.017,1.827-3.616.713-3.528-2.177C309.317,189.348,309.233,189.345,305.52,189.62Zm50.151,15.84a6.6,6.6,0,0,0,2.617-.067,5.1,5.1,0,0,0-4.72-2.293c-7.743-.014-15.486-.019-23.228-.058-.8,0-.936.337-.935,1.026q.02,19.4,0,38.809c0,.692.118,1.023.925,1.007,2.507-.05,5.016-.031,7.524-.008a1.511,1.511,0,0,0,1.236-.563,11.47,11.47,0,0,1,17.343-.071,1.521,1.521,0,0,0,1.21.638c2.946-.044,5.894-.044,8.841-.059,2.95.163,2.95.163,2.95-2.715v-.791c0-2.878,0-2.878-2.95-2.715-.218-.015-.435-.041-.653-.044-2.049-.029-2.263-.239-2.265-2.251q0-2.56,0-5.12c0-1.814.3-2.1,2.135-2.132.262,0,.522-.031.784-.048,2.949.175,2.949.175,2.949-2.686v-.657c0-2.889,0-2.889-2.947-2.685-.482-.019-.965-.055-1.447-.055q-11.814,0-23.628,0c-1.8,0-2.14-.344-2.141-2.157q0-6.072,0-12.144c0-1.879.232-2.1,2.149-2.11Q348.544,205.48,355.671,205.46Zm-50.688,38.406c6.862,0,13.725-.017,20.588.02.924,0,1.217-.259,1.179-1.181a48.372,48.372,0,0,1,.007-5.012c.077-1.218-.316-1.517-1.52-1.515q-35.039.055-70.078,0c-1.2,0-1.538.294-1.541,1.507s.369,1.586,1.5,1.417a8.485,8.485,0,0,1,1.186-.01c3.279-.023,3.6-.329,3.459,3.457-.036.98.163,1.449,1.271,1.34a22.654,22.654,0,0,1,3.165-.011,1.976,1.976,0,0,0,1.7-.725,11.433,11.433,0,0,1,16.874-.212,2.807,2.807,0,0,0,2.279.942C291.7,243.851,298.34,243.866,304.983,243.866Zm-20.324-39.329c0,2.551.048,5.1-.024,7.652-.028.983.24,1.279,1.236,1.27q7.52-.069,15.041.006c1.047.012,1.223-.362,1.213-1.295-.044-4.309-.02-8.62-.02-12.93,0-3.4,0-3.377-3.415-3.3-.781.019-1.11.22-1.076,1.048.054,1.317.043,2.639,0,3.957-.04,1.3-.833,1.793-2.037,1.3a4.747,4.747,0,0,1-.94-.475,1.936,1.936,0,0,0-2.43-.028,5.075,5.075,0,0,1-1.06.527c-1.139.442-1.931-.043-2.011-1.244-.041-.613-.01-1.231-.01-1.846,0-3.472,0-3.451-3.518-3.3-.737.032-.978.249-.966,1C284.684,199.435,284.659,201.986,284.659,204.537Zm.553,41.972a6.58,6.58,0,0,1,.426,1.421c.061,1.456.785,1.752,2.176,1.747q23.284-.085,46.568,0c1.36,0,1.948-.3,2.267-1.7.287-1.263.129-1.492-1.145-1.488q-24.405.059-48.811.026Zm62.753-4.487a8.951,8.951,0,1,0,8.752,9.142A8.866,8.866,0,0,0,347.965,242.022Zm-82.375,8.959a8.8,8.8,0,0,0,8.926,8.944,8.921,8.921,0,0,0,8.826-9.076,8.876,8.876,0,1,0-17.752.131Zm93.027-4.463c.206.869.4,1.629.561,2.395a.775.775,0,0,0,.877.739c3.735-.025,7.471.032,11.2-.041a2.846,2.846,0,0,0,2.872-2.993c.042-1.845-.02-3.692.027-5.536.019-.752-.321-.887-.951-.847-.567.036-1.179-.107-1.143.816.044,1.1.012,2.2.008,3.3-.006,1.92-.261,2.171-2.233,2.172C366.116,246.52,362.39,246.518,358.617,246.518Zm-9.534-46.325a4.013,4.013,0,0,0-3.869-2.028c-4.829.113-9.663.045-14.495.033-.733,0-1.326-.092-1.331,1.022,0,1.085.451,1.187,1.337,1.182,5.754-.03,11.509-.014,17.263-.021A1.543,1.543,0,0,0,349.082,200.193ZM258.721,246.51c-1.406,0-2.813.021-4.218-.01-.609-.014-.9.17-.847.816a6.913,6.913,0,0,1,0,1.317c-.092.839.3,1.04,1.071,1.023,1.932-.044,3.866-.014,5.8-.014,2.355,0,2.329-.007,2.916-2.3.169-.661.042-.857-.633-.84C261.446,246.533,260.083,246.51,258.721,246.51Zm107.5-13.75c0,2.278,0,2.253,2.277,2.157.659-.028.959-.205.923-.9-.042-.827,0-1.658-.014-2.486,0-.295.056-.732-.318-.759a7.475,7.475,0,0,0-2.587.049c-.573.17-.2,1.013-.278,1.551A2.651,2.651,0,0,0,366.219,232.76Zm-54.29-40.118a2.792,2.792,0,0,1,3.158-.092c.27-2.956.258-2.99-1.036-3.013C311.738,189.5,311.738,189.5,311.929,192.641Zm-.073,26.491c1.006-.493,1.852-.873,2.75-.258.348.238.505.1.59-.326.415-2.075.033-2.509-2.048-2.561-1.036-.026-1.441.29-1.3,1.331A15.613,15.613,0,0,1,311.855,219.132Zm-20.088-20.214c.949-.378,1.8-.748,2.715-.209.21.124.376.01.482-.25a1.738,1.738,0,0,0-1.582-2.6c-1.352-.121-1.846.329-1.625,1.654A9.848,9.848,0,0,1,291.767,198.918Zm-16.85,20.259c-.142-1.207.429-2.448-.31-2.987a2.807,2.807,0,0,0-2.629-.007c-.813.581-.224,1.815-.295,3.056C272.778,218.257,273.764,218.477,274.917,219.177Zm20.071.03c-.1-1.232.444-2.462-.285-3a2.787,2.787,0,0,0-2.612-.01c-.815.577-.178,1.816-.32,2.916A2.479,2.479,0,0,1,294.988,219.206Zm-39.679,24.665h.364c.758-.007,1.549.223,1.526-1.093-.022-1.232-.751-1.018-1.467-1.025a5.305,5.305,0,0,1-.782-.006c-1.128-.182-1.315.428-1.239,1.364C253.82,244.449,254.855,243.6,255.309,243.871Z" transform="translate(-13.744 -46.778)" fill="#050403"/>
    <path id="Path_1390" data-name="Path 1390" d="M255.755,185.118q17.287-.013,34.574-.025,18.278-.006,36.557,0a5.6,5.6,0,0,1,1.7.144,1.444,1.444,0,0,1,1.178,1.525c0,.264,0,.528,0,.792q0,24.679,0,49.358a3.321,3.321,0,0,1-.09,1.172c-.182.464-.679.286-1.054.277-.488-.012-.518-.386-.519-.754q0-2.31,0-4.619,0-19.268,0-38.536c0-2.434-.322-2.76-2.7-2.76q-8.974,0-17.948,0c-1.8,0-2.247.454-2.257,2.258-.005.968-.054,1.94.014,2.9.065.925-.268,1.205-1.192,1.2-5.455-.037-10.91-.019-16.365-.018-2.231,0-2.544.305-2.544,2.471,0,5.5-.029,11,.025,16.5.011,1.068-.322,1.324-1.344,1.316-5.542-.046-11.085-.023-16.628-.021-1.969,0-2.133.161-2.134,2.085,0,5.587-.024,11.174.02,16.76.008.984-.261,1.3-1.258,1.265-1.933-.075-3.872-.067-5.805,0-.95.032-1.18-.322-1.176-1.216.031-6.246,0-12.493.031-18.74a2.054,2.054,0,0,0-1.375-2.271l.006-2.286q5.339-.03,10.678-.063c.978-.007,2.09.073,2.078-1.358-.012-1.467-1.157-1.273-2.115-1.28q-5.338-.042-10.677-.077l.025-4.337c1.8-.019,3.6-.071,5.4-.045.942.014,1.648-.356,1.681-1.267.036-1-.68-1.407-1.681-1.4-1.8.016-3.6-.029-5.4-.048q0-2.713,0-5.427c2.373-.019,4.746-.052,7.119-.051.942,0,1.7-.2,1.7-1.331s-.754-1.326-1.7-1.324c-2.373,0-4.746-.031-7.119-.051q-.008-1.646-.017-3.293c1.537-.023,3.073-.064,4.609-.062.938,0,1.767-.234,1.76-1.3-.006-1.021-.775-1.357-1.737-1.353-1.537.006-3.073-.033-4.61-.054A15.088,15.088,0,0,1,255.755,185.118Z" transform="translate(-16.849 -51.597)" fill="#313d64"/>
    <path id="Path_1391" data-name="Path 1391" d="M246.63,259.013q5.338.037,10.677.077c.958.008,2.1-.186,2.115,1.28.012,1.431-1.1,1.351-2.078,1.358q-5.34.04-10.678.063c-1.048-.026-2.1-.071-3.145-.072-.965,0-1.706-.358-1.683-1.389.021-.954.722-1.288,1.646-1.269C244.532,259.084,245.581,259.032,246.63,259.013Z" transform="translate(-8.047 -99.496)" fill="#030302"/>
    <path id="Path_1392" data-name="Path 1392" d="M241.64,198.382c1.537.02,3.074.059,4.61.053.962,0,1.731.332,1.737,1.353.006,1.068-.822,1.3-1.76,1.3-1.537,0-3.073.039-4.609.062-1.963-.02-3.927-.055-5.89-.052-.9,0-1.616-.286-1.64-1.264-.026-1.049.705-1.385,1.664-1.389C237.714,198.439,239.677,198.405,241.64,198.382Z" transform="translate(-3.025 -60.209)" fill="#030302"/>
    <path id="Path_1393" data-name="Path 1393" d="M243.923,238.858c1.8.019,3.6.064,5.4.048,1-.009,1.717.4,1.681,1.4-.033.91-.739,1.28-1.681,1.267-1.8-.026-3.6.026-5.4.045-1.575-.019-3.15-.051-4.724-.053-.915,0-1.579-.311-1.58-1.321s.674-1.323,1.58-1.328C240.774,238.9,242.348,238.878,243.923,238.858Z" transform="translate(-5.314 -86.437)" fill="#030302"/>
    <path id="Path_1394" data-name="Path 1394" d="M250.977,215.608c2.373.019,4.746.054,7.119.051.944,0,1.7.185,1.7,1.324s-.755,1.332-1.7,1.331c-2.373,0-4.746.032-7.119.051-.395-.021-.791-.027-1.183-.068a1.271,1.271,0,0,1-1.286-1.383,1.245,1.245,0,0,1,1.286-1.244C250.188,215.646,250.583,215.628,250.977,215.608Z" transform="translate(-12.368 -71.371)" fill="#030302"/>
    <path id="Path_1395" data-name="Path 1395" d="M511.482,290.551c-2.947.015-5.894.015-8.841.059a1.521,1.521,0,0,1-1.21-.638,11.47,11.47,0,0,0-17.343.071,1.511,1.511,0,0,1-1.236.563c-2.508-.023-5.017-.042-7.524.008-.807.016-.926-.314-.925-1.007q.023-19.4,0-38.809c0-.689.135-1.03.935-1.026,7.742.038,15.485.043,23.228.058.721.769,1.675,1.33,2.1,2.36q-7.126.023-14.253.047c-1.917.007-2.147.231-2.149,2.11q0,6.072,0,12.144c0,1.813.337,2.156,2.141,2.157q11.814.006,23.628,0c.483,0,.965.036,1.447.055q0,3.014,0,6.027c-.261.017-.522.044-.784.048-1.836.027-2.132.318-2.135,2.132q0,2.56,0,5.12c0,2.013.215,2.222,2.265,2.251.218,0,.435.029.653.044Zm-24.429-11.5v0c.962,0,1.926.019,2.887-.006a1.3,1.3,0,0,0,.069-2.6c-1.922-.063-3.85-.06-5.773,0a1.3,1.3,0,0,0,.061,2.594C485.214,279.07,486.134,279.052,487.052,279.052Z" transform="translate(-158.743 -93.509)" fill="#fbc62e"/>
    <path id="Path_1396" data-name="Path 1396" d="M310.485,351.59c-6.643,0-13.285-.015-19.928.017a2.807,2.807,0,0,1-2.279-.942,11.433,11.433,0,0,0-16.874.212,1.976,1.976,0,0,1-1.7.725,22.663,22.663,0,0,0-3.165.011c-1.107.109-1.306-.36-1.271-1.34.138-3.786-.18-3.479-3.459-3.457a8.483,8.483,0,0,0-1.186.01c-1.132.17-1.5-.217-1.5-1.417s.343-1.509,1.541-1.507q35.039.054,70.078,0c1.2,0,1.6.3,1.52,1.515a48.4,48.4,0,0,0-.007,5.012c.038.922-.256,1.186-1.179,1.181C324.21,351.573,317.347,351.59,310.485,351.59Z" transform="translate(-19.246 -154.502)" fill="#e17400"/>
    <path id="Path_1397" data-name="Path 1397" d="M406.557,211.452c3.713-.275,3.8-.272,3.686,3.4-.087,2.89.512,4,3.528,2.177a1.3,1.3,0,0,1,1.563,0,9.06,9.06,0,0,0,1.293.646c1.329.6,2.139.112,2.19-1.366.046-1.318.046-2.639,0-3.957-.029-.757.246-.954.985-.972,3.491-.087,3.49-.11,3.49,3.336,0,6.42-.024,12.839.024,19.259.008,1.047-.293,1.324-1.326,1.309-5.141-.077-10.283-.075-15.424-.1Q406.561,223.314,406.557,211.452Z" transform="translate(-114.782 -68.61)" fill="#fbd6ac"/>
    <path id="Path_1398" data-name="Path 1398" d="M347.251,238.01c0-2.551.025-5.1-.016-7.652-.012-.746.229-.963.966-1,3.519-.155,3.518-.176,3.518,3.3,0,.616-.031,1.234.01,1.846.08,1.2.872,1.686,2.011,1.244a5.076,5.076,0,0,0,1.06-.527,1.936,1.936,0,0,1,2.43.028,4.747,4.747,0,0,0,.94.475c1.2.489,2,0,2.037-1.3.04-1.318.051-2.64,0-3.957-.034-.828.3-1.029,1.076-1.048,3.416-.081,3.415-.1,3.415,3.3,0,4.31-.025,8.62.02,12.93.01.933-.167,1.306-1.213,1.295q-7.52-.086-15.041-.006c-1,.009-1.263-.288-1.236-1.27C347.3,243.113,347.25,240.561,347.251,238.01Z" transform="translate(-76.336 -80.251)" fill="#b87f46"/>
    <path id="Path_1399" data-name="Path 1399" d="M534.482,275.329c-7.9.017-15.8.025-23.7.066-.714,0-.88-.237-.874-.9.029-3.117.019-6.234.007-9.352,0-.523-.02-.9.725-.9,5.574.05,11.148.059,16.722.08,0,.5.414.741.673,1.087,1.554,2.074,3.734,3.6,5.131,5.8C533.952,272.455,535.3,273.556,534.482,275.329Z" transform="translate(-181.748 -102.886)" fill="#efeffe"/>
    <path id="Path_1400" data-name="Path 1400" d="M349.5,286.762c3.693-.321,3.693-.321,3.693,3.258,0,3.559.293,3.757,3.524,2.244a1.4,1.4,0,0,1,1.473,0,9.9,9.9,0,0,0,1.531.761,1.3,1.3,0,0,0,1.963-1.3c.045-1.361.052-2.727,0-4.087-.031-.77.258-.948.985-.97,3.508-.1,3.516-.124,3.505,3.422q-.021,6.92-.064,13.84l-.235.194-16.367-.009Q349.5,295.441,349.5,286.762Z" transform="translate(-77.811 -117.392)" fill="#e4b07b"/>
    <path id="Path_1401" data-name="Path 1401" d="M308.853,304.03l-16.368-.007q-.009-8.693-.019-17.385c3.664-.263,3.664-.263,3.664,3.439,0,3.362.373,3.608,3.4,2.116a1.594,1.594,0,0,1,1.71.021,8.621,8.621,0,0,0,1.4.71,1.315,1.315,0,0,0,1.971-1.3c.045-1.358.045-2.721,0-4.08-.024-.706.136-1.034.924-.981,1.134.076,2.612-.376,3.32.186.749.594.232,2.137.236,3.262.015,4.606-.016,9.212-.03,13.818Z" transform="translate(-40.853 -117.284)" fill="#fbd6ac"/>
    <path id="Path_1402" data-name="Path 1402" d="M407.212,286.747c3.48-.19,3.48-.19,3.48,3.252,0,3.551.357,3.8,3.516,2.284a1.5,1.5,0,0,1,1.592.035,10.065,10.065,0,0,0,1.3.644c1.263.533,2.091.05,2.151-1.318.058-1.316.047-2.637.006-3.953-.022-.711.167-.984.944-1.01,3.509-.12,3.508-.147,3.508,3.314,0,4.35-.014,8.7.013,13.049,0,.789-.114,1.17-1.061,1.159-5.139-.06-10.279-.046-15.419-.057Q407.225,295.446,407.212,286.747Z" transform="translate(-115.206 -117.401)" fill="#dda267"/>
    <path id="Path_1403" data-name="Path 1403" d="M348.868,373.2h1.482q24.405,0,48.811-.026c1.274,0,1.432.225,1.145,1.488-.32,1.406-.907,1.708-2.267,1.7q-23.284-.079-46.568,0c-1.391.005-2.115-.291-2.176-1.747A6.576,6.576,0,0,0,348.868,373.2Z" transform="translate(-77.401 -173.472)" fill="#7682ba"/>
    <path id="Path_1404" data-name="Path 1404" d="M510.241,360.5a8.951,8.951,0,0,1-.3,17.9,8.951,8.951,0,1,1,.3-17.9Zm6.135,8.909a6.145,6.145,0,0,0-6.336-6.291,6.231,6.231,0,0,0-6.358,6.311,6.47,6.47,0,0,0,6.379,6.379A6.392,6.392,0,0,0,516.376,369.413Z" transform="translate(-176.02 -165.26)" fill="#313d64"/>
    <path id="Path_1405" data-name="Path 1405" d="M293.114,369.462a8.876,8.876,0,1,1,17.752-.131,8.921,8.921,0,0,1-8.826,9.076A8.8,8.8,0,0,1,293.114,369.462Zm15.134.046a6.045,6.045,0,0,0-6.2-6.387,6.424,6.424,0,0,0-6.487,6.232,6.534,6.534,0,0,0,6.329,6.458A6.243,6.243,0,0,0,308.248,369.508Z" transform="translate(-41.269 -165.259)" fill="#313d64"/>
    <path id="Path_1406" data-name="Path 1406" d="M557.39,361.7c3.774,0,7.5,0,11.225,0,1.972,0,2.227-.252,2.233-2.172,0-1.1.035-2.2-.008-3.3-.037-.923.576-.78,1.143-.816.629-.04.969.094.951.847-.047,1.844.015,3.691-.027,5.536a2.846,2.846,0,0,1-2.872,2.993c-3.734.074-7.47.016-11.2.041a.775.775,0,0,1-.877-.739C557.79,363.328,557.6,362.568,557.39,361.7Z" transform="translate(-212.517 -161.959)" fill="#7682ba"/>
    <path id="Path_1407" data-name="Path 1407" d="M494.055,237.945a1.543,1.543,0,0,1-1.094.189c-5.754.007-11.509-.009-17.263.021-.886,0-1.341-.1-1.337-1.182,0-1.113.6-1.024,1.331-1.022,4.832.012,9.666.08,14.495-.033A4.013,4.013,0,0,1,494.055,237.945Z" transform="translate(-158.717 -84.53)" fill="#e17400"/>
    <path id="Path_1408" data-name="Path 1408" d="M264.265,373.232c1.362,0,2.725.024,4.086-.01.675-.017.8.178.633.84-.587,2.295-.561,2.3-2.916,2.3-1.933,0-3.867-.03-5.8.014-.775.018-1.163-.183-1.071-1.023a6.913,6.913,0,0,0,0-1.317c-.054-.647.238-.83.847-.816C261.452,373.254,262.859,373.232,264.265,373.232Z" transform="translate(-19.288 -173.5)" fill="#7682ba"/>
    <path id="Path_1409" data-name="Path 1409" d="M566.61,275.3c.821-1.773-.53-2.875-1.319-4.117-1.4-2.2-3.577-3.727-5.131-5.8-.259-.346-.673-.584-.673-1.087a2.054,2.054,0,0,1,2.291.773c2.031,2.3,4.139,4.54,6.217,6.8.059.064.118.13.175.2.753.882,1.7,2,1.222,3C569.02,275.831,567.578,275.3,566.61,275.3Z" transform="translate(-213.876 -102.859)" fill="#dadaed"/>
    <path id="Path_1410" data-name="Path 1410" d="M405.073,211.549q0,11.862.007,23.724c-.934.312-.778-.38-.78-.875-.01-2.672,0-5.344,0-8.016,0-4.6-.007-9.2.012-13.8C404.309,212.11,404,211.28,405.073,211.549Z" transform="translate(-113.297 -68.707)" fill="#e4b07b"/>
    <path id="Path_1411" data-name="Path 1411" d="M405.311,286.809q.013,8.7.026,17.4c-.818.214-1.063-.108-1.059-.934q.044-7.751,0-15.5C404.28,287.006,404.434,286.562,405.311,286.809Z" transform="translate(-113.305 -117.463)" fill="#b87f46"/>
    <path id="Path_1412" data-name="Path 1412" d="M579.734,354.056v-6.221c2.95-.163,2.95-.163,2.95,2.715v.791C582.684,354.219,582.684,354.219,579.734,354.056Z" transform="translate(-226.996 -157.014)" fill="#f7aa00"/>
    <path id="Path_1413" data-name="Path 1413" d="M579.738,309.45q0-3.014,0-6.027c2.947-.2,2.947-.2,2.947,2.685v.657C582.687,309.625,582.687,309.625,579.738,309.45Z" transform="translate(-226.998 -128.223)" fill="#f7aa00"/>
    <path id="Path_1414" data-name="Path 1414" d="M348.034,286.9q0,8.679.007,17.358c-.522.133-.806.033-.8-.609q.025-8.066,0-16.133C347.237,286.9,347.485,286.735,348.034,286.9Z" transform="translate(-76.344 -117.526)" fill="#dda267"/>
    <path id="Path_1415" data-name="Path 1415" d="M290.928,286.834q.009,8.693.019,17.385c-.63.178-.856-.049-.854-.709q.026-7.977,0-15.953C290.093,286.939,290.251,286.617,290.928,286.834Z" transform="translate(-39.315 -117.48)" fill="#e4b07b"/>
    <path id="Path_1416" data-name="Path 1416" d="M578.9,330.362a2.642,2.642,0,0,1,0-.392c.081-.537-.3-1.381.278-1.551a7.476,7.476,0,0,1,2.587-.049c.374.027.315.465.318.759.01.829-.028,1.659.014,2.486.036.7-.264.875-.923.9C578.9,332.615,578.9,332.639,578.9,330.362Z" transform="translate(-226.429 -144.38)" fill="#313d64"/>
    <path id="Path_1417" data-name="Path 1417" d="M424.624,214.5c-.191-3.145-.191-3.145,2.122-3.1,1.294.023,1.307.057,1.036,3.013A2.792,2.792,0,0,0,424.624,214.5Z" transform="translate(-126.439 -68.637)" fill="#529ce4"/>
    <path id="Path_1418" data-name="Path 1418" d="M424.486,289.69a15.613,15.613,0,0,0-.012-1.814c-.138-1.041.268-1.357,1.3-1.331,2.081.052,2.464.486,2.048,2.561-.085.424-.242.564-.59.326C426.338,288.817,425.492,289.2,424.486,289.69Z" transform="translate(-126.375 -117.335)" fill="#b87f46"/>
    <path id="Path_1419" data-name="Path 1419" d="M367.378,232.4a9.849,9.849,0,0,0-.01-1.4c-.221-1.325.273-1.775,1.625-1.654a1.738,1.738,0,0,1,1.582,2.6c-.106.26-.272.375-.482.25C369.183,231.648,368.327,232.017,367.378,232.4Z" transform="translate(-89.356 -80.255)" fill="#2aca2a"/>
    <path id="Path_1420" data-name="Path 1420" d="M313.412,289.5c-1.153-.7-2.139-.92-3.235.062.071-1.242-.518-2.475.3-3.056a2.807,2.807,0,0,1,2.629.007C313.841,287.054,313.27,288.3,313.412,289.5Z" transform="translate(-52.239 -117.103)" fill="#529ce4"/>
    <path id="Path_1421" data-name="Path 1421" d="M370.526,289.56a2.479,2.479,0,0,0-3.217-.1c.142-1.1-.495-2.339.32-2.916a2.787,2.787,0,0,1,2.612.01C370.97,287.1,370.423,288.328,370.526,289.56Z" transform="translate(-89.283 -117.131)" fill="#fbc62e"/>
    <path id="Path_1422" data-name="Path 1422" d="M260.955,361.789c-.454-.269-1.489.578-1.6-.76-.076-.936.111-1.546,1.239-1.364a5.307,5.307,0,0,0,.782.006c.716.006,1.445-.207,1.467,1.025.024,1.316-.768,1.086-1.526,1.093Z" transform="translate(-19.39 -164.695)" fill="#313d64"/>
    <path id="Path_1423" data-name="Path 1423" d="M545.15,252.243c-.428-1.03-1.382-1.592-2.1-2.36a5.1,5.1,0,0,1,4.72,2.293A6.6,6.6,0,0,1,545.15,252.243Z" transform="translate(-203.224 -93.561)" fill="#e17400"/>
    <path id="Path_1424" data-name="Path 1424" d="M396.014,335.979l.235-.194C396.272,335.972,396.178,336.018,396.014,335.979Z" transform="translate(-107.95 -149.243)" fill="#dda267"/>
    <path id="Path_1425" data-name="Path 1425" d="M339.016,336l.215-.2C339.259,335.97,339.2,336.047,339.016,336Z" transform="translate(-71.017 -149.25)" fill="#e4b07b"/>
    <path id="Path_1426" data-name="Path 1426" d="M502.856,328.067c-.919,0-1.838.018-2.756-.006a1.3,1.3,0,0,1-.061-2.594c1.923-.065,3.85-.068,5.773,0a1.3,1.3,0,0,1-.069,2.6c-.962.025-1.925.006-2.887.006Z" transform="translate(-174.547 -142.524)" fill="#050403"/>
    <path id="Path_1427" data-name="Path 1427" d="M521.194,374.233a6.392,6.392,0,0,1-6.314,6.4,6.47,6.47,0,0,1-6.379-6.379,6.231,6.231,0,0,1,6.358-6.311A6.145,6.145,0,0,1,521.194,374.233Zm-2.622-.039a3.641,3.641,0,0,0-3.686-3.643,3.692,3.692,0,0,0-3.734,3.748,3.77,3.77,0,0,0,3.706,3.677A3.731,3.731,0,0,0,518.573,374.193Z" transform="translate(-180.839 -170.08)" fill="#030302"/>
    <path id="Path_1428" data-name="Path 1428" d="M312.755,374.329a6.243,6.243,0,0,1-6.363,6.3,6.534,6.534,0,0,1-6.329-6.458,6.424,6.424,0,0,1,6.487-6.232A6.045,6.045,0,0,1,312.755,374.329Zm-6.335-3.778a3.73,3.73,0,0,0-3.684,3.712,3.809,3.809,0,0,0,3.719,3.714,3.74,3.74,0,0,0,3.718-3.815A3.648,3.648,0,0,0,306.421,370.551Z" transform="translate(-45.777 -170.08)" fill="#030302"/>
    <path id="Path_1429" data-name="Path 1429" d="M523.452,378.995a3.731,3.731,0,0,1-3.714,3.781,3.77,3.77,0,0,1-3.706-3.677,3.692,3.692,0,0,1,3.734-3.748A3.641,3.641,0,0,1,523.452,378.995Z" transform="translate(-185.718 -174.881)" fill="#fbc62e"/>
    <path id="Path_1430" data-name="Path 1430" d="M311.34,375.353a3.648,3.648,0,0,1,3.753,3.611,3.74,3.74,0,0,1-3.718,3.815,3.809,3.809,0,0,1-3.719-3.714A3.73,3.73,0,0,1,311.34,375.353Z" transform="translate(-50.696 -174.882)" fill="#fbc62e"/>
  </g>
</svg>
