<svg xmlns="http://www.w3.org/2000/svg" xmlns:xlink="http://www.w3.org/1999/xlink" width="33.584" height="42.351" viewBox="0 0 33.584 42.351">
  <defs>
    <linearGradient id="linear-gradient" y1="0.5" x2="1" y2="0.5" gradientUnits="objectBoundingBox">
      <stop offset="0" stop-color="#fff"/>
      <stop offset="0" stop-color="#827cbc"/>
      <stop offset="1" stop-color="#4762af"/>
      <stop offset="1"/>
    </linearGradient>
    <linearGradient id="linear-gradient-2" y1="0.5" x2="1" y2="0.5" gradientUnits="objectBoundingBox">
      <stop offset="0" stop-color="#fff"/>
      <stop offset="0" stop-color="#3b393c"/>
      <stop offset="0.298" stop-color="#4b4b4d"/>
      <stop offset="0.628" stop-color="#59595b"/>
      <stop offset="0.915" stop-color="#95969a"/>
      <stop offset="1" stop-color="#95969a"/>
      <stop offset="1" stop-color="#4762af"/>
      <stop offset="1"/>
    </linearGradient>
  </defs>
  <g id="Group_15819" data-name="Group 15819" transform="translate(-535.695 -254.899)">
    <path id="Path_5193" data-name="Path 5193" d="M565.294,291.5l-20.215-6.647a.674.674,0,0,1,0-1.28l18.268-6.007-18.268-6,.421-1.281,20.215,6.643a.674.674,0,0,1,0,1.28l-18.268,6.007,18.268,6.007Z" transform="translate(-2.909 -5.017)" fill="#989898"/>
    <path id="Path_5194" data-name="Path 5194" d="M545.5,291.5l-.421-1.281,18.268-6.007-18.268-6.007a.674.674,0,0,1,0-1.28l20.215-6.643.42,1.281-18.267,6,18.268,6.007a.674.674,0,0,1,0,1.28Z" transform="translate(-2.909 -5.017)" fill="#cbcbcb"/>
    <g id="Group_4232" data-name="Group 4232" transform="translate(538.849 285.168)">
      <rect id="Rectangle_2415" data-name="Rectangle 2415" width="27.277" height="8.528" rx="1" transform="translate(0 0)" fill="url(#linear-gradient)"/>
      <g id="Group_4229" data-name="Group 4229" transform="translate(1.903 4.3)">
        <g id="Group_4227" data-name="Group 4227">
          <path id="Path_5195" data-name="Path 5195" d="M547.427,306.2a4.233,4.233,0,0,0-4.228,4.228h8.456A4.233,4.233,0,0,0,547.427,306.2Z" transform="translate(-543.199 -306.2)" fill="url(#linear-gradient-2)"/>
        </g>
        <g id="Group_4228" data-name="Group 4228" transform="translate(15.015)">
          <path id="Path_5196" data-name="Path 5196" d="M569.71,306.2a4.233,4.233,0,0,0-4.228,4.228h8.455A4.233,4.233,0,0,0,569.71,306.2Z" transform="translate(-565.482 -306.2)" fill="url(#linear-gradient-2)"/>
        </g>
      </g>
      <g id="Group_4230" data-name="Group 4230" transform="translate(17.592 4.973)">
        <circle id="Ellipse_191" data-name="Ellipse 191" cx="3.554" cy="3.554" r="3.554" transform="translate(0 0)" fill="url(#linear-gradient-2)"/>
        <path id="Path_5197" data-name="Path 5197" d="M570.036,309.222a1.533,1.533,0,1,1-1.532,1.533,1.535,1.535,0,0,1,1.532-1.533Zm0-2.022a3.554,3.554,0,1,0,3.554,3.555,3.555,3.555,0,0,0-3.554-3.555Z" transform="translate(-566.482 -307.2)" fill="#070202"/>
      </g>
      <g id="Group_4231" data-name="Group 4231" transform="translate(2.577 4.973)">
        <path id="Path_5198" data-name="Path 5198" d="M544.2,310.755a3.554,3.554,0,1,1,3.555,3.554A3.556,3.556,0,0,1,544.2,310.755Z" transform="translate(-544.199 -307.2)" fill="url(#linear-gradient-2)"/>
        <path id="Path_5199" data-name="Path 5199" d="M547.753,309.222a1.533,1.533,0,1,1-1.533,1.533,1.535,1.535,0,0,1,1.533-1.533Zm0-2.022a3.554,3.554,0,1,0,3.554,3.555,3.556,3.556,0,0,0-3.554-3.555Z" transform="translate(-544.199 -307.2)" fill="#070101"/>
      </g>
    </g>
    <g id="Group_4238" data-name="Group 4238" transform="translate(535.695 254.899)">
      <path id="Path_5200" data-name="Path 5200" d="M568.942,266.485h-32.91a.337.337,0,0,1-.337-.337V255.236a.337.337,0,0,1,.337-.337h32.91a.337.337,0,0,1,.337.337v10.912A.337.337,0,0,1,568.942,266.485Zm-32.573-.674h32.236V255.573H536.369Z" transform="translate(-535.695 -254.899)" fill="url(#linear-gradient)"/>
      <rect id="Rectangle_2416" data-name="Rectangle 2416" width="32.911" height="5.456" rx="1" transform="translate(0.337 5.793)" fill="url(#linear-gradient)"/>
      <g id="Group_4237" data-name="Group 4237" transform="translate(7.15 0.337)">
        <g id="Group_4233" data-name="Group 4233">
          <rect id="Rectangle_2417" data-name="Rectangle 2417" width="0.674" height="5.456" fill="url(#linear-gradient)"/>
        </g>
        <g id="Group_4234" data-name="Group 4234" transform="translate(6.203)">
          <rect id="Rectangle_2418" data-name="Rectangle 2418" width="0.674" height="5.456" fill="url(#linear-gradient)"/>
        </g>
        <g id="Group_4235" data-name="Group 4235" transform="translate(12.407)">
          <rect id="Rectangle_2419" data-name="Rectangle 2419" width="0.674" height="5.456" fill="url(#linear-gradient)"/>
        </g>
        <g id="Group_4236" data-name="Group 4236" transform="translate(18.61)">
          <rect id="Rectangle_2420" data-name="Rectangle 2420" width="0.674" height="5.456" fill="url(#linear-gradient)"/>
        </g>
      </g>
      <rect id="Rectangle_2421" data-name="Rectangle 2421" width="32.911" height="0.674" transform="translate(0.337 2.729)" fill="url(#linear-gradient)"/>
    </g>
  </g>
</svg>
