<svg id="Group_15811" data-name="Group 15811" xmlns="http://www.w3.org/2000/svg" xmlns:xlink="http://www.w3.org/1999/xlink" width="55.962" height="41" viewBox="0 0 55.962 41">
  <defs>
    <linearGradient id="linear-gradient" x1="-7.291" y1="0.5" x2="-8.512" y2="0.5" gradientUnits="objectBoundingBox">
      <stop offset="0.014"/>
      <stop offset="0.153" stop-color="#1d0a00"/>
      <stop offset="0.37" stop-color="#451900"/>
      <stop offset="0.568" stop-color="#632300"/>
      <stop offset="0.739" stop-color="#742900"/>
      <stop offset="0.864" stop-color="#7b2c00"/>
    </linearGradient>
    <linearGradient id="linear-gradient-2" x1="0.5" y1="1.001" x2="0.5" y2="-0.001" gradientUnits="objectBoundingBox">
      <stop offset="0" stop-color="#827cbc"/>
      <stop offset="0.079" stop-color="#7476b9"/>
      <stop offset="0.241" stop-color="#606db4"/>
      <stop offset="0.424" stop-color="#5266b1"/>
      <stop offset="0.644" stop-color="#4963af"/>
      <stop offset="1" stop-color="#4762af"/>
    </linearGradient>
    <linearGradient id="linear-gradient-3" x1="-18.985" y1="3.638" x2="-20.207" y2="3.638" gradientUnits="objectBoundingBox">
      <stop offset="0.014"/>
      <stop offset="0.118" stop-color="#2e2c24"/>
      <stop offset="0.271" stop-color="#6d6855"/>
      <stop offset="0.418" stop-color="#a19a7e"/>
      <stop offset="0.555" stop-color="#c9c19e"/>
      <stop offset="0.679" stop-color="#e6ddb5"/>
      <stop offset="0.786" stop-color="#f8eec3"/>
      <stop offset="0.864" stop-color="#fff5c8"/>
    </linearGradient>
    <linearGradient id="linear-gradient-4" x1="-27.89" y1="0.5" x2="-29.111" y2="0.5" gradientUnits="objectBoundingBox">
      <stop offset="0.014"/>
      <stop offset="0.118" stop-color="#2e1005"/>
      <stop offset="0.271" stop-color="#6d250c"/>
      <stop offset="0.418" stop-color="#a13712"/>
      <stop offset="0.555" stop-color="#c94517"/>
      <stop offset="0.679" stop-color="#e64f1b"/>
      <stop offset="0.786" stop-color="#f8551d"/>
      <stop offset="0.864" stop-color="#ff581e"/>
    </linearGradient>
    <linearGradient id="linear-gradient-5" x1="1" y1="0.5" x2="0" y2="0.5" gradientUnits="objectBoundingBox">
      <stop offset="0" stop-color="#fff"/>
      <stop offset="1"/>
    </linearGradient>
    <linearGradient id="linear-gradient-6" x1="-1.166" y1="-0.541" x2="-1.165" y2="1.922" xlink:href="#linear-gradient-2"/>
    <linearGradient id="linear-gradient-7" x1="-10.151" y1="0.5" x2="-11.373" y2="0.5" gradientUnits="objectBoundingBox">
      <stop offset="0.055" stop-color="#3b393c"/>
      <stop offset="0.285" stop-color="#4b4b4d"/>
      <stop offset="0.621" stop-color="#59595b"/>
      <stop offset="1" stop-color="#95969a"/>
      <stop offset="1" stop-color="#68686b"/>
      <stop offset="1" stop-color="#1d1d1e"/>
      <stop offset="1"/>
    </linearGradient>
    <linearGradient id="linear-gradient-8" x1="1.011" y1="0.489" x2="-2.327" y2="0.505" xlink:href="#linear-gradient-2"/>
    <linearGradient id="linear-gradient-9" x1="1.011" y1="0.489" x2="-2.327" y2="0.505" xlink:href="#linear-gradient-2"/>
    <radialGradient id="radial-gradient" cx="0.492" cy="0.505" r="0.471" gradientTransform="matrix(-1.063, -0.017, -0.019, 1.054, -0.15, -0.323)" gradientUnits="objectBoundingBox">
      <stop offset="0" stop-color="#fff"/>
      <stop offset="0.024" stop-color="#fdfdfd"/>
      <stop offset="0.033" stop-color="#f6f6f6"/>
      <stop offset="0.039" stop-color="#eaeaea"/>
      <stop offset="0.044" stop-color="#d9d9d9"/>
      <stop offset="0.049" stop-color="#c3c3c3"/>
      <stop offset="0.052" stop-color="#a8a8a8"/>
      <stop offset="0.056" stop-color="#878787"/>
      <stop offset="0.059" stop-color="#626262"/>
      <stop offset="0.062" stop-color="#393939"/>
      <stop offset="0.064" stop-color="#1c1c1c"/>
      <stop offset="0.22" stop-color="#1e1e1e"/>
      <stop offset="0.332" stop-color="#282828"/>
      <stop offset="0.429" stop-color="#373737"/>
      <stop offset="0.494" stop-color="#474747"/>
      <stop offset="0.724" stop-color="#454545"/>
      <stop offset="0.747" stop-color="#444"/>
      <stop offset="0.811" stop-color="#3d3d3d"/>
      <stop offset="0.899" stop-color="#2b2b2b"/>
      <stop offset="0.986" stop-color="#131313"/>
      <stop offset="1"/>
    </radialGradient>
    <radialGradient id="radial-gradient-2" cx="0.483" cy="0.505" r="0.815" gradientTransform="matrix(-1.051, -0.017, -0.019, 1.043, -0.238, -0.453)" gradientUnits="objectBoundingBox">
      <stop offset="0" stop-color="#1c1c1c"/>
      <stop offset="0.209" stop-color="#202020" stop-opacity="0.988"/>
      <stop offset="0.285" stop-color="#313131" stop-opacity="0.949"/>
      <stop offset="0.339" stop-color="#4e4e4e" stop-opacity="0.882"/>
      <stop offset="0.382" stop-color="#787878" stop-opacity="0.784"/>
      <stop offset="0.419" stop-color="#aeaeae" stop-opacity="0.659"/>
      <stop offset="0.452" stop-color="#f0f0f0" stop-opacity="0.506"/>
      <stop offset="0.458" stop-color="#fff" stop-opacity="0.471"/>
      <stop offset="0.496" stop-color="#f7f7f7" stop-opacity="0.49"/>
      <stop offset="0.51" stop-color="#dedede" stop-opacity="0.565"/>
      <stop offset="0.52" stop-color="#b1b1b1" stop-opacity="0.694"/>
      <stop offset="0.528" stop-color="#727272" stop-opacity="0.875"/>
      <stop offset="0.532" stop-color="#474747"/>
      <stop offset="0.728" stop-color="#454545"/>
      <stop offset="0.747" stop-color="#444"/>
      <stop offset="0.811" stop-color="#3d3d3d"/>
      <stop offset="0.899" stop-color="#2b2b2b"/>
      <stop offset="0.986" stop-color="#131313"/>
      <stop offset="1"/>
    </radialGradient>
    <linearGradient id="linear-gradient-10" x1="1" y1="0.5" x2="0" y2="0.5" gradientUnits="objectBoundingBox">
      <stop offset="0.147" stop-color="#756c6c"/>
      <stop offset="0.211" stop-color="#6b6363"/>
      <stop offset="0.751" stop-color="#1e1c1c"/>
      <stop offset="1"/>
    </linearGradient>
    <radialGradient id="radial-gradient-3" cx="0.492" cy="0.505" r="0.464" gradientTransform="matrix(-1.078, -0.017, -0.02, 1.069, -0.935, -0.451)" xlink:href="#radial-gradient"/>
    <radialGradient id="radial-gradient-4" cx="0.483" cy="0.505" r="0.803" gradientTransform="matrix(-1.066, -0.017, -0.019, 1.058, -1.152, -0.636)" xlink:href="#radial-gradient-2"/>
    <linearGradient id="linear-gradient-11" x1="1" y1="0.5" x2="0" y2="0.5" xlink:href="#linear-gradient-7"/>
  </defs>
  <g id="Group_4130" data-name="Group 4130" transform="translate(15.335 4.24)">
    <path id="Path_4984" data-name="Path 4984" d="M624.033,319.733s-.5-3.736,2.056-3.233c1.07.211,1.892,9.937,1.892,9.937l-7.9-.328S622.046,319.9,624.033,319.733Z" transform="translate(-619.488 -312.234)" fill="url(#linear-gradient)"/>
    <g id="Group_4129" data-name="Group 4129" transform="translate(0.355 0.025)">
      <line id="Line_86" data-name="Line 86" x2="2.199" y2="2.309" transform="translate(0.241 10.879)" fill="none" stroke="#545454" stroke-miterlimit="10" stroke-width="1"/>
      <line id="Line_87" data-name="Line 87" x2="3.255" y2="3.541" transform="translate(0.56 9.647)" fill="none" stroke="#545454" stroke-miterlimit="10" stroke-width="1"/>
      <line id="Line_88" data-name="Line 88" x2="4.621" y2="4.598" transform="translate(1.041 8.59)" fill="none" stroke="#545454" stroke-miterlimit="10" stroke-width="1"/>
      <line id="Line_89" data-name="Line 89" x2="6.004" y2="6.285" transform="translate(1.269 6.903)" fill="none" stroke="#545454" stroke-miterlimit="10" stroke-width="1"/>
      <line id="Line_90" data-name="Line 90" x2="7.717" y2="7.724" transform="translate(1.641 5.464)" fill="none" stroke="#545454" stroke-miterlimit="10" stroke-width="1"/>
      <path id="Path_4985" data-name="Path 4985" d="M596.754,310.252l8.673,9.1h2.181l-10.169-10.384.874-1.641,11.38,12.025h2.416l-12.424-12.91h2.664l9.537,10.425-.493-2.967-6.872-7.459h1.95l4.545,5.187-.442-2.661-2.634-2.8" transform="translate(-594.459 -306.164)" fill="none" stroke="#545454" stroke-miterlimit="10" stroke-width="1"/>
      <path id="Path_4986" data-name="Path 4986" d="M604.006,306.845l-3.725,2.526-1.075,2.018,6.506-4.544h2.274l-9.416,6.626-.626,2.423,12.174-9.048h2.351l-14.927,10.9-.241,2.286,15.933-11.751.338,2.036-13.429,9.715,2.346-.279,11.368-7.724.316,1.9-9.315,6.1h2.5l7.115-4.369.25,1.605-4.7,2.485" transform="translate(-597.302 -306.568)" fill="none" stroke="#545454" stroke-miterlimit="10" stroke-width="1"/>
    </g>
    <path id="Path_4987" data-name="Path 4987" d="M596.289,319.316l2.07-8.01.58-1.089,1.559-2.926a1.627,1.627,0,0,1,1.372-.885l8.959-.3a1.712,1.712,0,0,1,1.706,1.484l1.949,11.728Z" transform="translate(-596.289 -306.104)" fill="none" stroke="#707070" stroke-miterlimit="10" stroke-width="3"/>
  </g>
  <rect id="Rectangle_2192" data-name="Rectangle 2192" width="29.496" height="12.879" rx="6.44" transform="translate(8.441 16.766)" fill="url(#linear-gradient-2)"/>
  <g id="Group_4131" data-name="Group 4131" transform="translate(23.393 0)">
    <path id="Path_4988" data-name="Path 4988" d="M611.944,301.718l3.214-.089a.2.2,0,0,1,.2.206l.124,1.055-3.9.108.084-.969A.3.3,0,0,1,611.944,301.718Z" transform="translate(-611.584 -299.214)" fill="url(#linear-gradient-3)"/>
    <path id="Path_4989" data-name="Path 4989" d="M612.938,298.2l.08-1.806s.119-.615,1.146-.686a1.155,1.155,0,0,1,1.272.633l.211,1.8Z" transform="translate(-612.298 -295.705)" fill="url(#linear-gradient-4)"/>
  </g>
  <g id="Group_4132" data-name="Group 4132" transform="translate(0 13.064)">
    <path id="Path_4990" data-name="Path 4990" d="M580.425,345.778l4.726-17.735s6.557-.664,6.841,0a51.538,51.538,0,0,1,.782,5.313s7.036.3,7.605.686,1.208,2.721,1.208,2.721H618.93l1.493,8.024-2.487,3.4-30.633-.583.213,2.805-1.848.7Z" transform="translate(-580.425 -327.748)" fill="#4762af"/>
    <path id="Path_4991" data-name="Path 4991" d="M580.425,345.841l4.726-17.735s5.349-.162,5.633.5a52.619,52.619,0,0,1,.758,5.446s7.818.178,8.387.559.948,2.557.948,2.557l14.8.148a3.67,3.67,0,0,1,3.441,2.787l1.3,4.745-2.487,3.4L587.3,347.67l.213,2.806-1.848.7Z" transform="translate(-580.425 -327.95)" opacity="0.44" fill="url(#linear-gradient-5)" style="mix-blend-mode: multiply;isolation: isolate"/>
    <path id="Path_4992" data-name="Path 4992" d="M581.555,361.566h38.262l.6,3.252-2.488,3.4-30.633-.583.213,2.806-1.848.7-5.242-5.335Z" transform="translate(-580.425 -347.779)" fill="url(#linear-gradient-6)"/>
  </g>
  <g id="Group_4133" data-name="Group 4133" transform="translate(3.656 7.068)">
    <path id="Path_4993" data-name="Path 4993" d="M547.438,349.708l-3,1.248a.245.245,0,0,0-.141.168l-3.025,12.314a.258.258,0,0,0,.057.232l1.7,1.894a.228.228,0,0,0,.143.075l9.666,1.219a.247.247,0,0,0,.214-.4l-3.193-4.362a.252.252,0,0,1-.045-.108l-2.062-12.1A.234.234,0,0,0,547.438,349.708Z" transform="translate(-500.799 -334.748)" fill="url(#linear-gradient-7)"/>
    <path id="Path_4994" data-name="Path 4994" d="M559.686,319.2l.335-2.518a1.211,1.211,0,0,1,.525-.854l3.933-2.6a1.1,1.1,0,0,1,.94-.133l31.727,10.092a1.188,1.188,0,0,1,.8.952l1.288,7.947q.294,1.815.589,3.63l.251,1.55c.084.514.067,1.034.194,1.543a1.112,1.112,0,0,0,.369.668.965.965,0,0,0,.538.138,8.592,8.592,0,0,1,1.814,0,2,2,0,0,1,1.431,1.519,1.971,1.971,0,0,1-.73,2.143,3.6,3.6,0,0,1-1.365.442c-1.352.223-2.772.3-3.873-.721a3.3,3.3,0,0,1-.569-.7,11.29,11.29,0,0,1-.945-3.506q-.483-2.345-.965-4.69-.679-3.3-1.36-6.608a1.173,1.173,0,0,0-.924-.933l-.388-.033-9.144-.78a.645.645,0,0,1-.53-.384l-.837-1.847-22.162-2.956A1.2,1.2,0,0,1,559.686,319.2Z" transform="translate(-559.675 -313.041)" fill="url(#linear-gradient-8)"/>
    <path id="Path_4995" data-name="Path 4995" d="M559.706,319.36a4.331,4.331,0,0,1,.673-2.555,12.282,12.282,0,0,1,2.886-2.1,4.755,4.755,0,0,1,1.992-.793,4.668,4.668,0,0,1,1.713.312l28.954,9.125a2.573,2.573,0,0,1,1.107.562,2.857,2.857,0,0,1,.6,1.557l2.394,13.762a1.406,1.406,0,0,0,.21.617c.287.381.836.33,1.3.281a3.419,3.419,0,0,1,2,.27,1.773,1.773,0,0,1,.171,3.028,3.589,3.589,0,0,1-1.365.442c-1.352.223-2.772.3-3.873-.721a3.3,3.3,0,0,1-.569-.7,11.292,11.292,0,0,1-.945-3.506l-.965-4.691-.9-4.351c-.138-.672-.212-1.388-.4-2.04-.137-.477-.156-.958-.35-1.118a1.279,1.279,0,0,0-.506-.216,32.25,32.25,0,0,0-4.143-.263q-2.42-.172-4.83-.467a1.445,1.445,0,0,1-1.062-.437,8.938,8.938,0,0,1-.621-1.468.4.4,0,0,0-.059-.108.31.31,0,0,0-.131-.083,6.3,6.3,0,0,0-1.333-.187l-7.464-1-9.107-1.215-4.443-.593A1.2,1.2,0,0,1,559.706,319.36Z" transform="translate(-559.687 -313.556)" opacity="0.51" fill="url(#linear-gradient-9)" style="mix-blend-mode: multiply;isolation: isolate"/>
    <path id="Path_4996" data-name="Path 4996" d="M658.825,320.47a1.389,1.389,0,1,1-1.387-1.461A1.425,1.425,0,0,1,658.825,320.47Z" transform="translate(-653.316 -316.576)" fill="#adadad"/>
    <path id="Path_4997" data-name="Path 4997" d="M564.04,381.163a.948.948,0,1,1-.947-1A.973.973,0,0,1,564.04,381.163Z" transform="translate(-520.246 -352.8)" fill="#adadad"/>
  </g>
  <g id="Group_4136" data-name="Group 4136" transform="translate(5.857 22.648)">
    <g id="Group_4134" data-name="Group 4134" transform="translate(17.366)">
      <path id="Path_4998" data-name="Path 4998" d="M586.99,351.924l-.361-.381a.365.365,0,0,0-.394-.1l-1.389.516a.394.394,0,0,0-.246.3l-.058.324a.375.375,0,0,1-.56.272l-.311-.187a.363.363,0,0,0-.4.015l-1.1.782a.41.41,0,0,0-.159.418l.076.362a.394.394,0,0,1-.377.486l-.5-.01a.373.373,0,0,0-.315.166l-.6.88a.419.419,0,0,0-.022.431l.166.307a.4.4,0,0,1-.258.59l-.258.053a.388.388,0,0,0-.3.3l-.312,1.347a.415.415,0,0,0,.1.378l.15.158a.413.413,0,0,1-.07.625l-.091.057a.406.406,0,0,0-.181.374l.114,1.481a.4.4,0,0,0,.269.351l.068.022a.408.408,0,0,1,.207.605l-.177.28a.419.419,0,0,0-.051.327l.3,1.17a.386.386,0,0,0,.32.292l.281.036a.4.4,0,0,1,.314.521l-.093.3a.414.414,0,0,0,.1.415l1.211,1.2a.364.364,0,0,0,.477.037l.039-.029a.376.376,0,0,1,.593.275l.036.28a.4.4,0,0,0,.211.307l1.484.758a.366.366,0,0,0,.448-.093h0a.371.371,0,0,1,.64.134l.04.119a.384.384,0,0,0,.325.265l1.664.155a.374.374,0,0,0,.362-.2l.1-.179a.369.369,0,0,1,.628-.047l.183.246a.367.367,0,0,0,.422.132l1.438-.521a.4.4,0,0,0,.253-.336l.026-.258a.377.377,0,0,1,.563-.306l.234.139a.364.364,0,0,0,.443-.054l1.162-1.129a.415.415,0,0,0,.106-.408l-.088-.313a.391.391,0,0,1,.435-.506l.188.038a.373.373,0,0,0,.4-.2l.79-1.513a.418.418,0,0,0-.016-.413l-.231-.368a.406.406,0,0,1,.226-.609l.4-.1a.393.393,0,0,0,.288-.351l.134-1.546a.4.4,0,0,0-.212-.4l-.308-.158a.411.411,0,0,1-.1-.647l.392-.4a.414.414,0,0,0,.106-.379L596,357.17a.39.39,0,0,0-.285-.3l-.6-.144a.406.406,0,0,1-.222-.626l.239-.343a.417.417,0,0,0-.024-.5l-.888-1.04a.37.37,0,0,0-.339-.128l-.6.1a.391.391,0,0,1-.431-.463l.071-.44a.407.407,0,0,0-.2-.422l-1.335-.734a.363.363,0,0,0-.371.012l-.381.242a.373.373,0,0,1-.557-.221l-.106-.351a.387.387,0,0,0-.3-.273l-1.509-.268a.375.375,0,0,0-.4.218l-.157.338A.369.369,0,0,1,586.99,351.924Z" transform="translate(-579.219 -351.257)" fill="url(#radial-gradient)"/>
      <path id="Path_4999" data-name="Path 4999" d="M588.813,355.454l-.308-.322a.315.315,0,0,0-.337-.08l-1.186.435a.333.333,0,0,0-.21.255l-.05.274a.321.321,0,0,1-.478.23l-.265-.158a.312.312,0,0,0-.341.013l-.942.661a.344.344,0,0,0-.135.353l.065.306a.334.334,0,0,1-.322.411l-.428-.009a.32.32,0,0,0-.269.14l-.513.744a.351.351,0,0,0-.018.364l.141.26a.341.341,0,0,1-.22.5l-.221.044a.329.329,0,0,0-.253.252l-.266,1.137a.347.347,0,0,0,.086.32l.128.133a.347.347,0,0,1-.06.528l-.077.048a.342.342,0,0,0-.155.316l.1,1.251a.335.335,0,0,0,.23.3l.058.018a.343.343,0,0,1,.177.511l-.151.236a.349.349,0,0,0-.043.276l.257.988a.329.329,0,0,0,.273.247l.24.031a.338.338,0,0,1,.269.44l-.08.256a.348.348,0,0,0,.086.351l1.035,1.016a.314.314,0,0,0,.407.031l.033-.024a.321.321,0,0,1,.506.232l.031.237a.337.337,0,0,0,.18.259l1.268.641a.315.315,0,0,0,.382-.079h0a.318.318,0,0,1,.547.113l.034.1a.327.327,0,0,0,.277.225l1.42.131a.32.32,0,0,0,.309-.168l.084-.151a.316.316,0,0,1,.535-.04l.156.208a.316.316,0,0,0,.36.111l1.227-.44a.336.336,0,0,0,.216-.284l.022-.217a.322.322,0,0,1,.481-.258l.2.117a.314.314,0,0,0,.378-.046l.992-.954a.347.347,0,0,0,.091-.344l-.075-.265a.332.332,0,0,1,.371-.427l.161.032a.319.319,0,0,0,.344-.169l.674-1.278a.35.35,0,0,0-.013-.349l-.2-.311a.342.342,0,0,1,.193-.515l.338-.086a.333.333,0,0,0,.246-.3l.115-1.305a.342.342,0,0,0-.181-.335l-.263-.133a.346.346,0,0,1-.084-.547l.335-.336a.347.347,0,0,0,.09-.32l-.315-1.4a.331.331,0,0,0-.244-.253l-.512-.121a.342.342,0,0,1-.19-.529l.2-.29a.348.348,0,0,0-.021-.425l-.758-.879a.316.316,0,0,0-.289-.108l-.514.082a.332.332,0,0,1-.368-.391l.061-.372a.343.343,0,0,0-.17-.357l-1.14-.62a.313.313,0,0,0-.317.01l-.325.2a.32.32,0,0,1-.476-.188l-.091-.3a.329.329,0,0,0-.255-.231l-1.288-.227a.32.32,0,0,0-.345.183l-.134.285A.317.317,0,0,1,588.813,355.454Z" transform="translate(-580.863 -353.41)" opacity="0.06" fill="url(#radial-gradient-2)"/>
      <path id="Path_5000" data-name="Path 5000" d="M593.53,369.318a2.985,2.985,0,1,0,3.034-3.083A3.074,3.074,0,0,0,593.53,369.318Z" transform="translate(-588.059 -360.128)" stroke="#dd8b52" stroke-miterlimit="10" stroke-width="1" fill="url(#linear-gradient-10)"/>
      <path id="Path_5001" data-name="Path 5001" d="M597.771,372a1.253,1.253,0,1,0,1.274-1.294A1.291,1.291,0,0,0,597.771,372Z" transform="translate(-590.57 -362.777)" fill="#020101"/>
    </g>
    <g id="Group_4135" data-name="Group 4135" transform="translate(0 2.775)">
      <path id="Path_5002" data-name="Path 5002" d="M635.929,358.617l-.294-.316a.3.3,0,0,0-.322-.079l-1.135.428a.326.326,0,0,0-.2.25l-.048.268a.306.306,0,0,1-.457.226l-.254-.155a.293.293,0,0,0-.326.013l-.9.649a.341.341,0,0,0-.129.346l.062.3a.326.326,0,0,1-.308.4l-.41-.008a.3.3,0,0,0-.257.138l-.491.729a.351.351,0,0,0-.018.357l.135.254a.336.336,0,0,1-.21.488l-.211.044a.319.319,0,0,0-.242.247l-.255,1.115a.347.347,0,0,0,.083.313l.123.13a.345.345,0,0,1-.058.518l-.074.048a.338.338,0,0,0-.148.31l.093,1.227a.327.327,0,0,0,.22.291l.055.018a.34.34,0,0,1,.169.5l-.145.232a.35.35,0,0,0-.042.27l.246.969a.317.317,0,0,0,.261.242l.23.03a.331.331,0,0,1,.257.431l-.077.251a.347.347,0,0,0,.082.344l.989,1a.294.294,0,0,0,.389.031l.032-.024a.306.306,0,0,1,.484.228l.029.232a.329.329,0,0,0,.172.254l1.212.627a.3.3,0,0,0,.366-.077h0a.3.3,0,0,1,.523.111l.033.1a.314.314,0,0,0,.265.22l1.359.128a.305.305,0,0,0,.3-.165l.08-.148a.3.3,0,0,1,.512-.039l.149.2a.3.3,0,0,0,.345.109l1.174-.433a.328.328,0,0,0,.207-.278l.021-.214a.308.308,0,0,1,.46-.254l.191.115a.3.3,0,0,0,.362-.045l.949-.936a.347.347,0,0,0,.087-.338l-.072-.259a.323.323,0,0,1,.355-.419l.153.031a.3.3,0,0,0,.329-.166l.646-1.253a.351.351,0,0,0-.013-.342l-.188-.3a.338.338,0,0,1,.185-.5l.323-.084a.326.326,0,0,0,.235-.291l.11-1.28a.336.336,0,0,0-.173-.328l-.252-.131a.343.343,0,0,1-.079-.536l.32-.33a.347.347,0,0,0,.087-.314l-.3-1.371a.321.321,0,0,0-.233-.247l-.49-.119a.338.338,0,0,1-.181-.519l.195-.285a.348.348,0,0,0-.02-.417l-.724-.861a.3.3,0,0,0-.277-.106l-.492.08a.321.321,0,0,1-.351-.383l.058-.365a.339.339,0,0,0-.162-.35l-1.09-.607a.293.293,0,0,0-.3.01l-.311.2a.3.3,0,0,1-.455-.183l-.086-.291a.317.317,0,0,0-.244-.226l-1.232-.222a.305.305,0,0,0-.329.181l-.129.28A.3.3,0,0,1,635.929,358.617Z" transform="translate(-629.582 -358.065)" fill="url(#radial-gradient-3)"/>
      <path id="Path_5003" data-name="Path 5003" d="M637.419,361.542l-.252-.267a.255.255,0,0,0-.275-.066l-.969.361a.276.276,0,0,0-.172.211l-.041.227a.262.262,0,0,1-.391.19l-.216-.13a.252.252,0,0,0-.278.011l-.769.548a.287.287,0,0,0-.11.292l.053.254a.276.276,0,0,1-.263.34l-.35-.007a.259.259,0,0,0-.219.116l-.419.616a.292.292,0,0,0-.015.3l.115.215a.283.283,0,0,1-.179.413l-.18.037a.271.271,0,0,0-.207.208l-.217.942a.292.292,0,0,0,.071.265l.1.111a.289.289,0,0,1-.049.437l-.063.04a.284.284,0,0,0-.126.262l.079,1.036a.276.276,0,0,0,.188.245l.047.015a.286.286,0,0,1,.144.424l-.124.2a.293.293,0,0,0-.035.228l.21.819a.27.27,0,0,0,.223.2l.2.025a.28.28,0,0,1,.219.364l-.065.212a.29.29,0,0,0,.07.29l.845.841a.253.253,0,0,0,.332.026l.027-.02a.262.262,0,0,1,.413.192l.024.2a.279.279,0,0,0,.147.215l1.035.53a.255.255,0,0,0,.312-.065h0a.258.258,0,0,1,.447.094l.028.083a.268.268,0,0,0,.226.186l1.16.108a.26.26,0,0,0,.252-.139l.068-.125a.257.257,0,0,1,.437-.033l.128.172a.255.255,0,0,0,.294.092l1-.365a.277.277,0,0,0,.177-.235l.018-.18a.263.263,0,0,1,.393-.214l.164.1a.253.253,0,0,0,.309-.038l.81-.79a.29.29,0,0,0,.074-.285l-.061-.219a.274.274,0,0,1,.3-.354l.131.027a.259.259,0,0,0,.281-.14l.551-1.058a.293.293,0,0,0-.011-.289l-.161-.257a.284.284,0,0,1,.158-.426l.276-.071a.276.276,0,0,0,.2-.246l.094-1.081a.282.282,0,0,0-.148-.277l-.215-.111a.288.288,0,0,1-.068-.453l.274-.279a.29.29,0,0,0,.074-.265l-.257-1.158a.272.272,0,0,0-.2-.209l-.418-.1a.285.285,0,0,1-.155-.438l.166-.24a.293.293,0,0,0-.017-.352l-.619-.728a.255.255,0,0,0-.236-.089l-.42.067a.273.273,0,0,1-.3-.324l.05-.308a.285.285,0,0,0-.139-.3l-.931-.513a.252.252,0,0,0-.259.008l-.265.169a.26.26,0,0,1-.389-.155l-.074-.246a.27.27,0,0,0-.208-.191l-1.052-.188a.26.26,0,0,0-.281.152l-.11.236A.257.257,0,0,1,637.419,361.542Z" transform="translate(-630.924 -359.848)" opacity="0.06" fill="url(#radial-gradient-4)"/>
      <path id="Path_5004" data-name="Path 5004" d="M641.268,373.026a2.439,2.439,0,1,0,2.478-2.554A2.53,2.53,0,0,0,641.268,373.026Z" transform="translate(-636.8 -365.413)" stroke="#dd8b52" stroke-miterlimit="10" stroke-width="1" fill="url(#linear-gradient-11)"/>
      <path id="Path_5005" data-name="Path 5005" d="M644.731,375.247a1.025,1.025,0,1,0,1.041-1.073A1.063,1.063,0,0,0,644.731,375.247Z" transform="translate(-638.851 -367.607)" fill="#020100"/>
    </g>
  </g>
</svg>
