<svg id="Group_15803" data-name="Group 15803" xmlns="http://www.w3.org/2000/svg" xmlns:xlink="http://www.w3.org/1999/xlink" width="145.84" height="100.88" viewBox="0 0 145.84 100.88">
  <defs>
    <clipPath id="clip-path">
      <rect id="Rectangle_115" data-name="Rectangle 115" width="145.84" height="100.88" fill="none"/>
    </clipPath>
    <clipPath id="clip-path-3">
      <rect id="Rectangle_100" data-name="Rectangle 100" width="122.255" height="15.331" fill="none"/>
    </clipPath>
    <clipPath id="clip-path-4">
      <path id="Path_33" data-name="Path 33" d="M187.936,165.453l7.975,16.442,10.4-1.118a3.078,3.078,0,0,0,2.744-3.234l-.686-12.089Z" transform="translate(-187.936 -165.453)" fill="none"/>
    </clipPath>
    <linearGradient id="linear-gradient" x1="-3.483" y1="2.179" x2="-3.465" y2="2.179" gradientUnits="objectBoundingBox">
      <stop offset="0" stop-color="#847dcf"/>
      <stop offset="1" stop-color="#6868f8"/>
    </linearGradient>
    <clipPath id="clip-path-6">
      <path id="Path_43" data-name="Path 43" d="M218.7,83.962l48.429.161-.86-28.929L218.89,35.333Z" transform="translate(-218.696 -35.333)" fill="none"/>
    </clipPath>
    <linearGradient id="linear-gradient-2" x1="-1.776" y1="1.783" x2="-1.767" y2="1.783" xlink:href="#linear-gradient"/>
    <clipPath id="clip-path-8">
      <path id="Path_53" data-name="Path 53" d="M68.664,39.979c-7.382.229-14.2,7.061-17.825,14.679-6.8,14.292-5.526,36.331-4.535,44.306a2.622,2.622,0,0,0,2.274,2.573H83.669L102.7,39.329Z" transform="translate(-45.511 -39.329)" fill="none"/>
    </clipPath>
    <linearGradient id="linear-gradient-3" x1="-0.28" y1="1.373" x2="-0.273" y2="1.373" xlink:href="#linear-gradient"/>
    <clipPath id="clip-path-10">
      <path id="Path_56" data-name="Path 56" d="M160.34,39.344c-5.474.465-12.817,8.7-15.288,15.322-6.423,17.227-3.509,46.88-3.509,46.88l9.233-.139c-.839-13.693,4.685-14.647,4.685-14.647a66.305,66.305,0,0,1,7.577.1,349.848,349.848,0,0,0-.276-39.51c-.116-1.745-1.084-8.006-2.388-8.006l-.035,0" transform="translate(-140.884 -39.342)" fill="none"/>
    </clipPath>
    <linearGradient id="linear-gradient-4" x1="-2.106" y1="1.373" x2="-2.09" y2="1.373" gradientUnits="objectBoundingBox">
      <stop offset="0" stop-color="#816bcf"/>
      <stop offset="0.999" stop-color="#7c4ef8"/>
      <stop offset="1" stop-color="#7c4ef8"/>
    </linearGradient>
    <clipPath id="clip-path-12">
      <path id="Path_63" data-name="Path 63" d="M165.108,158.541c-9.038,1.469-6.575,15.932-6.575,15.932l4.087.181s-.192-7.113,1.281-9.674c2.606-4.53,7.595-2.248,7.595-2.248l2.067-3.637a33.348,33.348,0,0,0-6.248-.712,13.955,13.955,0,0,0-2.207.157" transform="translate(-158.226 -158.384)" fill="none"/>
    </clipPath>
    <linearGradient id="linear-gradient-5" x1="-3.433" y1="2.373" x2="-3.411" y2="2.373" xlink:href="#linear-gradient-4"/>
    <clipPath id="clip-path-14">
      <path id="Path_68" data-name="Path 68" d="M151.236,185.586l-10.348.042c0,.03,0,.716,0,.747v10.863h9.556a1.949,1.949,0,0,0,1.742-2.1l.893-7.448a1.948,1.948,0,0,0-1.739-2.1c-.033,0-.066,0-.1,0" transform="translate(-140.884 -185.583)" fill="none"/>
    </clipPath>
    <linearGradient id="linear-gradient-6" x1="-4.544" y1="2.395" x2="-4.512" y2="2.395" xlink:href="#linear-gradient-4"/>
  </defs>
  <g id="Group_67" data-name="Group 67" clip-path="url(#clip-path)">
    <g id="Group_42" data-name="Group 42">
      <g id="Group_41" data-name="Group 41" clip-path="url(#clip-path)">
        <g id="Group_40" data-name="Group 40" transform="translate(14.822 75.374)" opacity="0.42">
          <g id="Group_39" data-name="Group 39">
            <g id="Group_38" data-name="Group 38" clip-path="url(#clip-path-3)">
              <path id="Path_16" data-name="Path 16" d="M37.943,206.442a.3.3,0,0,0,.057.594l55.635-.321a64.762,64.762,0,0,0,14.251-1.66l51.865-11.979a.259.259,0,0,0-.053-.512l-42.293-.86Z" transform="translate(-37.698 -191.706)" fill="#3d3d3d"/>
            </g>
          </g>
        </g>
        <path id="Path_17" data-name="Path 17" d="M240.657,164.182l.045.731-1.563-.058.033-2.363-62.9-1.1s3.413,8.431,3.859,8.454,58.955-1.361,58.955-1.361l.014-1h1.758l.076,1.232h1.471l.278-4.672Z" transform="translate(-106.967 -97.937)" fill="#140d18"/>
        <path id="Path_18" data-name="Path 18" d="M343.359,169.639v3.41h.861l.152-3.409Z" transform="translate(-208.358 -102.941)" fill="#4e4eb2"/>
        <path id="Path_19" data-name="Path 19" d="M316.2,166.353c-1.82,0-3.3,2.783-3.3,6.216s1.476,6.215,3.3,6.215h3.6V166.353Z" transform="translate(-189.876 -100.947)" fill="#140d18"/>
        <path id="Path_20" data-name="Path 20" d="M328.639,172.569c0,3.433-1.475,6.216-3.3,6.216s-3.3-2.783-3.3-6.216,1.475-6.216,3.3-6.216,3.3,2.783,3.3,6.216" transform="translate(-195.426 -100.947)" fill="#140d18"/>
        <path id="Path_21" data-name="Path 21" d="M330.107,176.37c0,2.072-.891,3.753-1.99,3.753s-1.989-1.68-1.989-3.753.891-3.752,1.989-3.752,1.99,1.68,1.99,3.752" transform="translate(-197.902 -104.748)" fill="#231b29"/>
        <path id="Path_22" data-name="Path 22" d="M330.678,179.435c0,.976-.42,1.767-.937,1.767s-.937-.791-.937-1.767.42-1.767.937-1.767.937.791.937,1.767" transform="translate(-199.525 -107.813)" fill="#454148"/>
        <path id="Path_23" data-name="Path 23" d="M289.741,166.256c-2.176,0-3.94,3.328-3.94,7.432s1.764,7.432,3.94,7.432h4.3V166.256Z" transform="translate(-173.43 -100.888)" fill="#140d18"/>
        <path id="Path_24" data-name="Path 24" d="M304.618,173.688c0,4.1-1.764,7.432-3.94,7.432s-3.94-3.327-3.94-7.432,1.764-7.432,3.94-7.432,3.94,3.328,3.94,7.432" transform="translate(-180.067 -100.888)" fill="#140d18"/>
        <path id="Path_25" data-name="Path 25" d="M306.371,178.234c0,2.478-1.065,4.487-2.379,4.487s-2.379-2.009-2.379-4.487,1.065-4.487,2.379-4.487,2.379,2.009,2.379,4.487" transform="translate(-183.026 -105.433)" fill="#231b29"/>
        <path id="Path_26" data-name="Path 26" d="M307.056,181.9c0,1.167-.5,2.113-1.12,2.113s-1.12-.946-1.12-2.113.5-2.113,1.12-2.113,1.12.946,1.12,2.113" transform="translate(-184.969 -109.097)" fill="#454148"/>
        <path id="Path_27" data-name="Path 27" d="M278.02,170.463v6.631l8.35-1.263v-5.4Z" transform="translate(-168.708 -103.422)" fill="#231b29"/>
        <path id="Path_28" data-name="Path 28" d="M269.383,170.511h-5.6l.718,6.631h4.878Z" transform="translate(-160.072 -103.47)" fill="#231b29"/>
        <path id="Path_29" data-name="Path 29" d="M241.328,164.189c-2.727,0-4.938,4.17-4.938,9.313s2.21,9.313,4.938,9.313h5.389V164.189Z" transform="translate(-143.447 -99.633)" fill="#140d18"/>
        <path id="Path_30" data-name="Path 30" d="M259.971,173.5c0,5.144-2.21,9.313-4.938,9.313s-4.937-4.17-4.937-9.313,2.21-9.313,4.937-9.313,4.938,4.17,4.938,9.313" transform="translate(-151.764 -99.634)" fill="#140d18"/>
        <path id="Path_31" data-name="Path 31" d="M262.167,179.2c0,3.1-1.335,5.622-2.981,5.622s-2.981-2.518-2.981-5.622,1.334-5.622,2.981-5.622,2.981,2.518,2.981,5.622" transform="translate(-155.471 -105.33)" fill="#231b29"/>
        <path id="Path_32" data-name="Path 32" d="M263.024,183.791c0,1.462-.629,2.647-1.4,2.647s-1.4-1.185-1.4-2.647.628-2.648,1.4-2.648,1.4,1.185,1.4,2.648" transform="translate(-157.905 -109.922)" fill="#454148"/>
      </g>
    </g>
    <g id="Group_44" data-name="Group 44" transform="translate(73.892 65.052)">
      <g id="Group_43" data-name="Group 43" clip-path="url(#clip-path-4)">
        <rect id="Rectangle_102" data-name="Rectangle 102" width="21.213" height="16.442" fill="url(#linear-gradient)"/>
      </g>
    </g>
    <g id="Group_46" data-name="Group 46">
      <g id="Group_45" data-name="Group 45" clip-path="url(#clip-path)">
        <path id="Path_34" data-name="Path 34" d="M182.735,165.453h-11.22a28.154,28.154,0,0,1,2.788,16.109l11.644.333a21.576,21.576,0,0,0,.632-5.273c0-4.981-1.579-9.262-3.844-11.169" transform="translate(-104.079 -100.401)" fill="#140d18"/>
        <path id="Path_35" data-name="Path 35" d="M214.152,191.746l.107,2.584,1.949-.137.139-2.448Z" transform="translate(-129.952 -116.356)" fill="#4e4eb2"/>
        <path id="Path_36" data-name="Path 36" d="M213.388,177.337l.3,2.833h2.055l.139-3.012Z" transform="translate(-129.488 -107.503)" fill="#4e4eb2"/>
        <path id="Path_37" data-name="Path 37" d="M208.3,170.445l.361,1.372,11.349-.185V170.37Z" transform="translate(-126.4 -103.384)" fill="#4e4eb2"/>
        <path id="Path_38" data-name="Path 38" d="M226.426,189.665c0,.988-.491,1.789-1.1,1.789s-1.1-.8-1.1-1.789.491-1.789,1.1-1.789,1.1.8,1.1,1.789" transform="translate(-136.07 -114.007)" fill="#4e4eb2"/>
        <path id="Path_39" data-name="Path 39" d="M139.619,19.354,139.8,77.77,97.128,78.1,94.714,21.489Z" transform="translate(-57.474 -11.745)" fill="#e5e5e5"/>
        <path id="Path_40" data-name="Path 40" d="M102.036,30.516l2.074,51.421,37.115-.905V28.727Z" transform="translate(-61.918 -17.432)" fill="#d2cfd3"/>
        <path id="Path_41" data-name="Path 41" d="M135.4,27.18l4.634-.258a.376.376,0,0,1,.372.416l-.076,1.406a.373.373,0,0,1-.355.37H135.55a.37.37,0,0,1-.352-.343l-.133-1.148a.384.384,0,0,1,.334-.442M100.109,28.7l.1.867a.752.752,0,0,0,.761.671l4.016-.115a.754.754,0,0,0,.723-.706l.056-.751a.757.757,0,0,0-.744-.822H100.85a.758.758,0,0,0-.741.856" transform="translate(-60.745 -16.336)" fill="#35358f"/>
        <path id="Path_42" data-name="Path 42" d="M208.926,19.354l54.791,24.414-.532,33.141-54.074.861Z" transform="translate(-126.781 -11.745)" fill="#eaeaea"/>
      </g>
    </g>
    <g id="Group_48" data-name="Group 48" transform="translate(85.986 13.892)">
      <g id="Group_47" data-name="Group 47" clip-path="url(#clip-path-6)">
        <rect id="Rectangle_104" data-name="Rectangle 104" width="48.429" height="48.79" transform="translate(0 0)" fill="url(#linear-gradient-2)"/>
      </g>
    </g>
    <g id="Group_50" data-name="Group 50">
      <g id="Group_49" data-name="Group 49" clip-path="url(#clip-path)">
        <path id="Path_44" data-name="Path 44" d="M237.946,85.467l-.839,0V42.844l.839.352ZM241,44.475l-.838-.352V85.475l.838,0Zm3.051,1.279-.838-.352V85.484l.838,0ZM234.9,41.917l-.838-.352V85.454l.838,0Zm12.2,5.116-.838-.351V85.495l.838,0Zm-18.3-7.673-.838-.352V85.434l.838,0Zm3.051,1.279-.839-.351V85.444l.839,0ZM224.9,85.424l.838,0V38.08l-.838-.351Zm40.5-30.718-.838-.351v31.2l.838,0Zm-3.05-1.279-.839-.351v32.47l.839,0Zm6.1,2.558-.839-.352V85.565l.839,0ZM259.3,52.148l-.838-.352V85.535l.838,0Zm-6.1-2.558-.838-.351V85.515l.838,0Zm-3.051-1.279-.838-.352V85.5l.838,0Zm6.1,2.558-.838-.352V85.525l.838,0Z" transform="translate(-136.477 -22.895)" fill="#4e4eb2"/>
        <path id="Path_45" data-name="Path 45" d="M217.773,34.005l3.332,1.174a.331.331,0,0,1,.234.306v.733a.369.369,0,0,1-.506.307L217.5,35.386a.333.333,0,0,1-.238-.307v-.768a.37.37,0,0,1,.51-.306m44.891,19.429v.41a.211.211,0,0,0,.139.2l1.959.714a.211.211,0,0,0,.282-.175l.047-.421a.212.212,0,0,0-.14-.223l-2.006-.7a.211.211,0,0,0-.281.2M263.8,83.141l.027.287a.217.217,0,0,0,.216.2h1.882a.217.217,0,0,0,.217-.217V83.12a.217.217,0,0,0-.217-.217h-1.909a.217.217,0,0,0-.216.237m-47.55-.485v.768a.312.312,0,0,0,.313.313h2.745a.312.312,0,0,0,.312-.3l.033-.623a.313.313,0,0,0-.3-.329l-2.778-.145a.313.313,0,0,0-.329.312" transform="translate(-131.225 -20.621)" fill="#35358f"/>
        <path id="Path_46" data-name="Path 46" d="M34.409,104.935A41.64,41.64,0,0,1,34.384,114a1.382,1.382,0,0,1-1.29,1.251,18.421,18.421,0,0,1-3.283-.116,1.374,1.374,0,0,1-1.179-1.2,61.57,61.57,0,0,1-.6-9.1,1.383,1.383,0,0,1,1.387-1.353,28.621,28.621,0,0,1,3.811.248,1.379,1.379,0,0,1,1.178,1.2" transform="translate(-17.006 -62.798)" fill="#231230"/>
        <path id="Path_47" data-name="Path 47" d="M40.3,93.429a1.1,1.1,0,0,1,1.066-1.144l.891-.024a.557.557,0,0,1,.508-.329h1.5a.559.559,0,0,1,.559.558v.4a.559.559,0,0,1-.559.558h-1.5a.557.557,0,0,1-.466-.251l-.908.024a.162.162,0,0,0-.114.052.161.161,0,0,0-.043.118L39.4,107.029l2.4,1.056v-.015a.85.85,0,0,1,.85-.85h1.327a.85.85,0,0,1,.85.85V109.4a.85.85,0,0,1-.85.85H42.646a.85.85,0,0,1-.85-.85v-.291L38.49,107.65Z" transform="translate(-23.357 -55.786)" fill="#231230"/>
        <path id="Path_48" data-name="Path 48" d="M69.906,170.37H63.627c-3.178,0-5.753,4.859-5.753,10.852s2.576,10.852,5.753,10.852h6.279c3.177,0,5.753-4.859,5.753-10.852s-2.576-10.852-5.753-10.852" transform="translate(-35.119 -103.384)" fill="#140d18"/>
        <rect id="Rectangle_105" data-name="Rectangle 105" width="46.89" height="4.115" transform="translate(17.894 81.774)" fill="#363694"/>
        <path id="Path_49" data-name="Path 49" d="M160.624,170.37c-3.178,0-5.753,4.859-5.753,10.852s2.576,10.852,5.753,10.852H166.9v-21.7Z" transform="translate(-93.979 -103.384)" fill="#140d18"/>
        <path id="Path_50" data-name="Path 50" d="M182.347,181.221c0,5.994-2.576,10.852-5.753,10.852s-5.753-4.859-5.753-10.852,2.576-10.852,5.753-10.852,5.753,4.859,5.753,10.852" transform="translate(-103.669 -103.384)" fill="#140d18"/>
        <path id="Path_51" data-name="Path 51" d="M184.907,187.859c0,3.618-1.555,6.552-3.473,6.552s-3.473-2.933-3.473-6.552,1.555-6.551,3.473-6.551,3.473,2.933,3.473,6.551" transform="translate(-107.991 -110.022)" fill="#231b29"/>
        <path id="Path_52" data-name="Path 52" d="M185.906,193.208c0,1.7-.732,3.085-1.636,3.085s-1.635-1.381-1.635-3.085.732-3.085,1.635-3.085,1.636,1.382,1.636,3.085" transform="translate(-110.827 -115.371)" fill="#454148"/>
      </g>
    </g>
    <g id="Group_52" data-name="Group 52" transform="translate(17.894 15.463)">
      <g id="Group_51" data-name="Group 51" clip-path="url(#clip-path-8)">
        <rect id="Rectangle_107" data-name="Rectangle 107" width="58.661" height="62.209" transform="translate(-1.468 0)" fill="url(#linear-gradient-3)"/>
      </g>
    </g>
    <g id="Group_54" data-name="Group 54">
      <g id="Group_53" data-name="Group 53" clip-path="url(#clip-path)">
        <path id="Path_54" data-name="Path 54" d="M118.032,40.007l-.24.005a30.371,30.371,0,0,1-3.414,5.341c-2.705,3.354-7.265,7.263-13.825,7.263-.264,0-.532-.006-.8-.019-3.1-.148-4.955-1-5.525-2.529-1.022-2.741,2.246-7.1,4.524-9.692l-.3.006c-2.3,2.631-5.471,6.94-4.419,9.761.6,1.617,2.525,2.515,5.714,2.668.275.013.545.019.813.019,6.643,0,11.257-3.954,13.993-7.347a30.586,30.586,0,0,0,3.484-5.475" transform="translate(-56.932 -24.277)" fill="#4e4eb2"/>
        <path id="Path_55" data-name="Path 55" d="M58.037,79.9h47.308l.131-.426H58.229c-.065.142-.129.283-.192.426" transform="translate(-35.218 -48.225)" fill="#4e4eb2"/>
      </g>
    </g>
    <g id="Group_56" data-name="Group 56" transform="translate(55.393 15.468)">
      <g id="Group_55" data-name="Group 55" clip-path="url(#clip-path-10)">
        <rect id="Rectangle_109" data-name="Rectangle 109" width="25.231" height="62.204" transform="translate(-2.254 0)" fill="url(#linear-gradient-4)"/>
      </g>
    </g>
    <g id="Group_58" data-name="Group 58">
      <g id="Group_57" data-name="Group 57" clip-path="url(#clip-path)">
        <path id="Path_57" data-name="Path 57" d="M150.683,79.9h18.465c-.006-.142-.011-.283-.017-.426h-18.3c-.051.142-.1.283-.152.426" transform="translate(-91.438 -48.225)" fill="#35358f"/>
        <path id="Path_58" data-name="Path 58" d="M59.6,171.995l2.08,6.89H81.766l2.619-6.89Z" transform="translate(-36.168 -104.37)" fill="#0d0d0f"/>
        <path id="Path_59" data-name="Path 59" d="M42.969,144.272l-.935.607A4.193,4.193,0,0,0,40.14,148.4v4.459a4.2,4.2,0,0,0,1.666,3.364l1.008.756a2.787,2.787,0,0,0,1.674.561h34.16l.659-.532a5.891,5.891,0,0,0,2.17-4.583v-7.508l-3.057-1.562Z" transform="translate(-24.358 -86.99)" fill="#6966d4"/>
        <path id="Path_60" data-name="Path 60" d="M73.982,143.167l.594,1.329a.732.732,0,0,0,.668.433H84.3a.733.733,0,0,0,.661-.416l.554-1.16a.732.732,0,0,0-.648-1.048l-10.2-.169a.732.732,0,0,0-.681,1.031" transform="translate(-44.855 -86.251)" fill="#fff4de"/>
        <path id="Path_61" data-name="Path 61" d="M76.117,147.91l-.81,1.053a1.243,1.243,0,0,1-.962.486l-10.558.209a1.245,1.245,0,0,1-.922-.381L61.636,148a1.246,1.246,0,0,0-.912-.381l-4.257.051a1.248,1.248,0,0,0-1.218,1.422,13.133,13.133,0,0,0,1.794,5.257,5.368,5.368,0,0,0,4.564,2.5H75.961a5.38,5.38,0,0,0,4.132-1.914,12.983,12.983,0,0,0,2.808-6.1,1.244,1.244,0,0,0-1.242-1.463l-4.571.054a1.244,1.244,0,0,0-.972.486" transform="translate(-33.52 -89.427)" fill="#35357f"/>
        <path id="Path_62" data-name="Path 62" d="M82.419,146.934a1.8,1.8,0,0,0-1.612-.959l-4.561.054a1.811,1.811,0,0,0-1.415.708l-.8,1.045a.693.693,0,0,1-.538.272l-10.559.209a.71.71,0,0,1-.515-.214l-1.228-1.276a1.829,1.829,0,0,0-1.313-.55l-4.216.05a1.841,1.841,0,0,0-.756.157,1.807,1.807,0,0,0-1.038,1.887,13.58,13.58,0,0,0,1.872,5.473,5.953,5.953,0,0,0,5.03,2.758H75.114a5.909,5.909,0,0,0,4.553-2.111,13.578,13.578,0,0,0,2.919-6.315,1.815,1.815,0,0,0-.167-1.191m-3.593,6.8a4.819,4.819,0,0,1-3.712,1.717H60.762a4.847,4.847,0,0,1-4.1-2.241l-.02-.033a.753.753,0,0,1,.647-1.143H78.611a.755.755,0,0,1,.6,1.207q-.188.251-.389.492m2.683-5.817a13.591,13.591,0,0,1-.566,2.1,1.9,1.9,0,0,1-1.795,1.24h-22.1a1.824,1.824,0,0,1-1.768-1.369,15.13,15.13,0,0,1-.327-1.686.76.76,0,0,1,.094-.508.69.69,0,0,1,.582-.329l4.256-.05a.715.715,0,0,1,.516.219l1.222,1.27a1.776,1.776,0,0,0,1.328.549l10.558-.209a1.785,1.785,0,0,0,1.386-.7l.81-1.053h0a.693.693,0,0,1,.544-.272l4.571-.054a.709.709,0,0,1,.633.381.722.722,0,0,1,.057.467" transform="translate(-32.674 -88.581)" fill="#0d0d0f"/>
      </g>
    </g>
    <g id="Group_60" data-name="Group 60" transform="translate(62.211 62.273)">
      <g id="Group_59" data-name="Group 59" clip-path="url(#clip-path-12)">
        <rect id="Rectangle_111" data-name="Rectangle 111" width="17.493" height="16.27" transform="translate(-2.157 0)" fill="url(#linear-gradient-5)"/>
      </g>
    </g>
    <g id="Group_62" data-name="Group 62">
      <g id="Group_61" data-name="Group 61" clip-path="url(#clip-path)">
        <path id="Path_64" data-name="Path 64" d="M170.314,150.8l.341,1.967a.827.827,0,0,0,.887.683l.688-.059a.828.828,0,0,0,.745-.689l.31-1.87a.828.828,0,0,0-.794-.963l-1.339-.037a.828.828,0,0,0-.838.969" transform="translate(-103.343 -90.92)" fill="#35357f"/>
        <path id="Path_65" data-name="Path 65" d="M182.248,126.886l.195,5.968c.021.643.37,1.149.793,1.149h2.215c.421,0,.769-.5.793-1.14l.223-5.895c.026-.685-.327-1.266-.778-1.279l-2.633-.073c-.46-.013-.83.57-.808,1.269" transform="translate(-110.592 -76.227)" fill="#35357f"/>
        <path id="Path_66" data-name="Path 66" d="M152.741,166.983v.736a.418.418,0,0,0,.418.418h3.007a.417.417,0,0,0,.417-.412l.009-.735a.418.418,0,0,0-.418-.423h-3.016A.417.417,0,0,0,152.741,166.983Z" transform="translate(-92.687 -101.075)" fill="none" stroke="#35357f" stroke-miterlimit="10" stroke-width="1"/>
        <path id="Path_67" data-name="Path 67" d="M154.066,167.769v.344a.2.2,0,0,0,.2.2h1.408a.2.2,0,0,0,.2-.193l0-.345a.2.2,0,0,0-.2-.2h-1.413a.2.2,0,0,0-.2.2" transform="translate(-93.491 -101.688)" fill="#35357f"/>
      </g>
    </g>
    <g id="Group_64" data-name="Group 64" transform="translate(55.393 72.967)">
      <g id="Group_63" data-name="Group 63" clip-path="url(#clip-path-14)">
        <rect id="Rectangle_113" data-name="Rectangle 113" width="12.19" height="11.655" transform="translate(0 0)" fill="url(#linear-gradient-6)"/>
      </g>
    </g>
    <g id="Group_66" data-name="Group 66">
      <g id="Group_65" data-name="Group 65" clip-path="url(#clip-path)">
        <path id="Path_69" data-name="Path 69" d="M150.265,91.856c-1.52,4.217-2.427,14.34-2.131,20.186.033.64.418,1.137.886,1.137h2.061a.8.8,0,0,0,.654-.394l7.48-13.035a1.491,1.491,0,0,0,.233-.822V92.208c0-.68-.407-1.228-.9-1.216l-7.5.183a.918.918,0,0,0-.782.68" transform="translate(-89.857 -55.216)" fill="#c1e3f8"/>
        <path id="Path_70" data-name="Path 70" d="M150.36,112.925H148.3a1.508,1.508,0,0,1-1.352-1.58c-.3-5.83.583-16,2.159-20.369a1.366,1.366,0,0,1,1.21-.989l7.5-.183a1.2,1.2,0,0,1,.868.357,1.849,1.849,0,0,1,.514,1.326v6.719a1.966,1.966,0,0,1-.3,1.067L151.419,112.3l-.017.027a1.262,1.262,0,0,1-1.042.6m7.48-22.187h0l-7.5.183c-.132,0-.275.153-.354.371h0c-1.514,4.2-2.389,14.378-2.1,20,.02.409.237.693.419.693h2.061a.351.351,0,0,0,.258-.175l7.471-13.02.017-.027a1.038,1.038,0,0,0,.155-.563V91.487a.944.944,0,0,0-.232-.657.275.275,0,0,0-.188-.092m-8.3.4h0Z" transform="translate(-89.136 -54.495)" fill="#35357f"/>
        <path id="Path_71" data-name="Path 71" d="M148.092,135.012c-.027,1.355-.015,2.627.042,3.742.033.64.418,1.137.886,1.137h2.062a.8.8,0,0,0,.654-.394l2.573-4.484Z" transform="translate(-89.857 -81.928)" fill="#35357f"/>
        <path id="Path_72" data-name="Path 72" d="M158.011,104.935a41.639,41.639,0,0,0,.024,9.062,1.382,1.382,0,0,0,1.29,1.251,18.419,18.419,0,0,0,3.283-.116,1.373,1.373,0,0,0,1.179-1.2,61.623,61.623,0,0,0,.6-9.1A1.384,1.384,0,0,0,163,103.486a28.623,28.623,0,0,0-3.811.248,1.378,1.378,0,0,0-1.178,1.2" transform="translate(-95.741 -62.798)" fill="#231230"/>
        <path id="Path_73" data-name="Path 73" d="M154.531,93.429a1.1,1.1,0,0,0-1.066-1.144l-.891-.024a.558.558,0,0,0-.508-.329h-1.5a.559.559,0,0,0-.559.558v.4a.559.559,0,0,0,.559.558h1.5a.557.557,0,0,0,.466-.251l.908.024a.163.163,0,0,1,.158.169l-.588,13.641-2.4,1.056v-.015a.85.85,0,0,0-.85-.85h-1.327a.85.85,0,0,0-.85.85V109.4a.85.85,0,0,0,.85.85h1.327a.85.85,0,0,0,.85-.85v-.291l3.306-1.456Z" transform="translate(-89.558 -55.786)" fill="#231230"/>
        <path id="Path_74" data-name="Path 74" d="M74.916,147.69l-.425-.193,5.043-11.09,1.84-14.914.464.057-1.85,14.985ZM53.068,147.5l-5.032-11.066,1.357-14.758-.465-.043-1.368,14.882,5.084,11.179Z" transform="translate(-28.86 -73.725)" fill="#4e4eb2"/>
        <path id="Path_75" data-name="Path 75" d="M124.867,157.909l-2.453,4.8a.866.866,0,0,0,.771,1.26,4.347,4.347,0,0,0,3.682-2.037l1.865-2.973a.991.991,0,0,0-.84-1.518l-2.287,0a.866.866,0,0,0-.737.471" transform="translate(-74.225 -95.536)" fill="#35357f"/>
        <path id="Path_76" data-name="Path 76" d="M46.123,157.909l2.453,4.8a.865.865,0,0,1-.77,1.26,4.347,4.347,0,0,1-3.682-2.037l-1.865-2.973a.991.991,0,0,1,.84-1.518l2.287,0a.866.866,0,0,1,.737.471" transform="translate(-25.55 -95.536)" fill="#35357f"/>
        <path id="Path_77" data-name="Path 77" d="M78.026,197.667H42.716a3.121,3.121,0,0,1-3.121-3.121v-5.136a3.121,3.121,0,0,1,3.121-3.121h35.31a3.121,3.121,0,0,1,3.121,3.121v5.136a3.121,3.121,0,0,1-3.121,3.121" transform="translate(-24.027 -113.045)" fill="#6966d4"/>
        <path id="Path_78" data-name="Path 78" d="M64.319,212.873h19.46l-1-1.614a1.847,1.847,0,0,0-2-.977l-13.42-.177a2.885,2.885,0,0,0-2.572,1.736Z" transform="translate(-39.03 -127.496)" fill="#0d0d0f"/>
        <path id="Path_79" data-name="Path 79" d="M94.068,185.1H46.883l.034.467h3.435l2.7,5.794a2.881,2.881,0,0,0,2.589,1.657l15.93.063h.012a2.881,2.881,0,0,0,2.463-1.4l3.65-6.116H94.068Zm-20.423,6.344a2.411,2.411,0,0,1-2.062,1.171h-.01l-15.929-.063a2.41,2.41,0,0,1-2.167-1.387l-2.61-5.6H77.152Z" transform="translate(-28.45 -112.324)" fill="#4e4eb2"/>
        <path id="Path_80" data-name="Path 80" d="M64.319,191.853h19.46l-1,1.614a2.861,2.861,0,0,1-2.472,1.372l-12.949-.217a2.886,2.886,0,0,1-2.572-1.737Z" transform="translate(-39.03 -116.421)" fill="#0d0d0f"/>
        <path id="Path_81" data-name="Path 81" d="M72.536,184.748l.213,2.2a.976.976,0,0,0,.948.882l8.922.209a.976.976,0,0,0,.992-.865l.273-2.413a.975.975,0,0,0-.969-1.085H73.507a.976.976,0,0,0-.971,1.069" transform="translate(-44.014 -111.46)" fill="#daf0ff"/>
        <path id="Path_82" data-name="Path 82" d="M82.267,187.911h-.029l-8.923-.209a1.221,1.221,0,0,1-1.185-1.1l-.213-2.2a1.22,1.22,0,0,1,1.215-1.337h9.409a1.219,1.219,0,0,1,1.212,1.357l-.273,2.414a1.213,1.213,0,0,1-1.211,1.082M72.4,184.348l.213,2.2a.731.731,0,0,0,.71.66l8.922.208a.724.724,0,0,0,.743-.648l.273-2.414a.731.731,0,0,0-.726-.813H73.13a.731.731,0,0,0-.727.8" transform="translate(-43.636 -111.084)" fill="#0d0d0f"/>
        <path id="Path_83" data-name="Path 83" d="M46.154,106.468l1.606,1.186a1.58,1.58,0,0,0,.939.309H78.373a1.581,1.581,0,0,0,.936-.307l2.138-1.572a1.574,1.574,0,0,0,.641-1.2,77.409,77.409,0,0,1,1.559-11.416,1.579,1.579,0,0,0-1.548-1.9H49.481a1.573,1.573,0,0,0-1.468,1,42.158,42.158,0,0,0-2.5,12.528,1.582,1.582,0,0,0,.639,1.376" transform="translate(-27.618 -55.566)" fill="#c1e3f8"/>
        <path id="Path_84" data-name="Path 84" d="M45.743,119.206c-.1.886-.173,1.773-.228,2.656a1.583,1.583,0,0,0,.639,1.376l1.607,1.186a1.576,1.576,0,0,0,.938.309H78.373a1.578,1.578,0,0,0,.936-.307l2.137-1.572a1.574,1.574,0,0,0,.641-1.2c.033-.8.092-1.622.169-2.446Z" transform="translate(-27.618 -72.337)" fill="#90c5ec"/>
        <path id="Path_85" data-name="Path 85" d="M81.387,91.569H77.1l-6.54,16.393h4.283Z" transform="translate(-42.82 -55.566)" fill="#daf0ff"/>
        <path id="Path_86" data-name="Path 86" d="M97.363,91.569H91.019l-6.54,16.393h6.344Z" transform="translate(-51.264 -55.566)" fill="#daf0ff"/>
        <path id="Path_87" data-name="Path 87" d="M62.9,107.963h2.141l6.541-16.393H69.436Z" transform="translate(-38.166 -55.566)" fill="#daf0ff"/>
        <path id="Path_88" data-name="Path 88" d="M82.964,91.135a2.041,2.041,0,0,0-1.587-.753H48.76a2.053,2.053,0,0,0-1.9,1.292,42.391,42.391,0,0,0-2.529,12.668,2.045,2.045,0,0,0,.828,1.781l1.607,1.186a2.061,2.061,0,0,0,1.215.4H77.651a2.037,2.037,0,0,0,1.213-.4L81,105.74a2.031,2.031,0,0,0,.831-1.559,77.223,77.223,0,0,1,1.55-11.341,2.037,2.037,0,0,0-.418-1.7m-.5,1.516A78.137,78.137,0,0,0,80.9,104.142a1.1,1.1,0,0,1-.451.845l-.109.08-34.554.359-.074-.055h0a1.114,1.114,0,0,1-.45-.971,41.47,41.47,0,0,1,2.467-12.387,1.112,1.112,0,0,1,1.033-.7H81.377a1.111,1.111,0,0,1,1.09,1.335" transform="translate(-26.896 -54.846)" fill="#231230"/>
        <path id="Path_89" data-name="Path 89" d="M50.629,89.544a.643.643,0,0,0-.626.512c-.19.931-.425,2.85.743,3.224,1.555.5,32.681-.013,32.681-.013a3.844,3.844,0,0,0,3.92-3.1.647.647,0,0,0-.629-.8Z" transform="translate(-30.248 -54.229)" fill="#231230"/>
        <path id="Path_90" data-name="Path 90" d="M132.733,92.99h-2.223a.529.529,0,1,1,0-1.057h2.223a.529.529,0,1,1,0,1.057" transform="translate(-78.876 -55.787)" fill="#daf0ff"/>
        <path id="Path_91" data-name="Path 91" d="M53.178,92.99H50.955a.529.529,0,1,1,0-1.057h2.223a.529.529,0,1,1,0,1.057" transform="translate(-30.6 -55.787)" fill="#daf0ff"/>
        <path id="Path_92" data-name="Path 92" d="M64.585,125.458l-1.878-2.473a.377.377,0,0,0-.394-.329l-7.768.4a.379.379,0,0,0-.313.2v0l-4.121.13a.328.328,0,0,0-.23.088c-.1.114.032.254.245.254h4.2a.373.373,0,0,0,.241.089h7.455l1.4,2.011a.313.313,0,0,0,.256.133h.662a.311.311,0,0,0,.248-.5" transform="translate(-30.248 -74.429)" fill="#231230"/>
        <path id="Path_93" data-name="Path 93" d="M106.192,124.369l-1.878-2.473a.378.378,0,0,0-.394-.329l-7.768.4a.379.379,0,0,0-.313.2v0l-4.121.13a.329.329,0,0,0-.23.088c-.1.114.032.254.245.254h4.2a.369.369,0,0,0,.241.089h7.455l1.4,2.011a.313.313,0,0,0,.256.133h.661a.311.311,0,0,0,.248-.5" transform="translate(-55.496 -73.769)" fill="#231230"/>
        <path id="Path_94" data-name="Path 94" d="M43.618,193.721h2.137a1.513,1.513,0,0,0,1.513-1.513v-.97a1.513,1.513,0,0,0-1.513-1.513H43.618a1.513,1.513,0,0,0-1.513,1.513v.97a1.513,1.513,0,0,0,1.513,1.513" transform="translate(-25.55 -115.129)" fill="#90c5ec"/>
        <path id="Path_95" data-name="Path 95" d="M47.593,189.724H44.079a2.842,2.842,0,0,0-.055,1.126,2.487,2.487,0,0,0,.417,1.02,3.325,3.325,0,0,0,2.633,1.307,2.918,2.918,0,0,0,1.338-.287v-2.346a.819.819,0,0,0-.819-.819" transform="translate(-26.695 -115.129)" fill="#daf0ff"/>
        <path id="Path_96" data-name="Path 96" d="M47.211,202.8v1.91c0,.385-.243.689-.523.655-1.649-.2-3.007-.188-4.206-1.368-.381-.375-.28-1.853.19-1.853h4.06c.265,0,.48.294.48.656" transform="translate(-25.637 -122.668)" fill="#90c5ec"/>
        <path id="Path_97" data-name="Path 97" d="M48.563,202.148h-3.3a2.841,2.841,0,0,0,.063.462,4.079,4.079,0,0,0,.854,1.743,4.02,4.02,0,0,0,1.041.871c.412.052.841.092,1.294.147.281.034.523-.27.523-.655V202.8c0-.363-.215-.656-.48-.656" transform="translate(-27.469 -122.668)" fill="#daf0ff"/>
        <path id="Path_98" data-name="Path 98" d="M130.13,193.721h-2.137a1.513,1.513,0,0,1-1.513-1.513v-.97a1.513,1.513,0,0,1,1.513-1.513h2.137a1.513,1.513,0,0,1,1.513,1.513v.97a1.513,1.513,0,0,1-1.513,1.513" transform="translate(-76.751 -115.129)" fill="#90c5ec"/>
        <path id="Path_99" data-name="Path 99" d="M127.3,189.724h3.515a2.849,2.849,0,0,1,.054,1.126,2.481,2.481,0,0,1-.417,1.02,3.325,3.325,0,0,1-2.633,1.307,2.918,2.918,0,0,1-1.338-.287v-2.346a.819.819,0,0,1,.819-.819" transform="translate(-76.751 -115.129)" fill="#daf0ff"/>
        <path id="Path_100" data-name="Path 100" d="M126.847,202.8v1.91c0,.385.243.689.523.655,1.649-.2,3.007-.188,4.206-1.368.381-.375.28-1.853-.189-1.853h-4.06c-.265,0-.48.294-.48.656" transform="translate(-76.974 -122.668)" fill="#90c5ec"/>
        <path id="Path_101" data-name="Path 101" d="M127.326,202.148h3.3a2.843,2.843,0,0,1-.063.462,4.079,4.079,0,0,1-.854,1.743,4.02,4.02,0,0,1-1.041.871c-.412.052-.841.092-1.294.147-.281.034-.523-.27-.523-.655V202.8c0-.363.215-.656.48-.656" transform="translate(-76.973 -122.668)" fill="#daf0ff"/>
      </g>
    </g>
  </g>
</svg>
