<svg xmlns="http://www.w3.org/2000/svg" xmlns:xlink="http://www.w3.org/1999/xlink" width="428" height="209.785" viewBox="0 0 428 209.785">
  <defs>
    <linearGradient id="linear-gradient" x1="1" y1="1" x2="0" gradientUnits="objectBoundingBox">
      <stop offset="0" stop-color="#6269fe"/>
      <stop offset="1" stop-color="#3d065f"/>
    </linearGradient>
    <radialGradient id="radial-gradient" cx="0.5" cy="0.5" r="0.044" gradientTransform="matrix(2.861, 0.294, -10.421, 11.332, -9168.956, -650.711)" gradientUnits="objectBoundingBox">
      <stop offset="0" stop-color="#409aa0"/>
      <stop offset="0.305" stop-color="#3f979d"/>
      <stop offset="0.462" stop-color="#3b9095"/>
      <stop offset="0.585" stop-color="#368388"/>
      <stop offset="0.69" stop-color="#2f7175"/>
      <stop offset="0.784" stop-color="#25595d"/>
      <stop offset="0.87" stop-color="#193c3e"/>
      <stop offset="0.949" stop-color="#0b1a1b"/>
      <stop offset="1"/>
    </radialGradient>
    <radialGradient id="radial-gradient-2" r="0.044" gradientTransform="matrix(-2.986, -0.069, 2.463, -11.826, -68169.266, 4240.494)" xlink:href="#radial-gradient"/>
  </defs>
  <g id="Group_19810" data-name="Group 19810" transform="translate(3345.167 8497.123)">
    <g id="Group_19807" data-name="Group 19807" transform="translate(-2874.167 -421.417)">
      <g id="Group_15612" data-name="Group 15612" transform="translate(-471 -8173.706)">
        <g id="Rectangle_1319" data-name="Rectangle 1319" transform="translate(0 98)" stroke="#707070" stroke-width="1" fill="url(#linear-gradient)">
          <rect width="428" height="209" stroke="none"/>
          <rect x="0.5" y="0.5" width="427" height="208" fill="none"/>
        </g>
      </g>
      <g id="Group_16403" data-name="Group 16403" transform="translate(12261.932 -7262.962)" opacity="0.59">
        <path id="Path_73821" data-name="Path 73821" d="M1059.287,657.139a13.3,13.3,0,0,1-1.541,3.731c-.183-.012.209-1.7.877-3.775a13.286,13.286,0,0,1,1.541-3.731C1060.348,653.376,1059.956,655.066,1059.287,657.139Z" transform="translate(-13419.686 -1278.772)" fill-rule="evenodd" fill="url(#radial-gradient)"/>
        <path id="Path_73841" data-name="Path 73841" d="M1040.151,653.214a13.287,13.287,0,0,1,1.541-3.731c.183.012-.21,1.7-.877,3.775a13.28,13.28,0,0,1-1.541,3.731C1039.09,656.977,1039.482,655.286,1040.151,653.214Z" transform="translate(-13411.249 -1276.999)" fill-rule="evenodd" opacity="0.3" fill="url(#radial-gradient-2)"/>
        <rect id="Rectangle_173" data-name="Rectangle 173" width="30.026" height="95.158" transform="translate(-12358.271 -698.902)" fill="#f5f4f5"/>
        <rect id="Rectangle_174" data-name="Rectangle 174" width="15.013" height="94.896" transform="translate(-12343.258 -698.902)" fill="#ebebeb"/>
        <rect id="Rectangle_175" data-name="Rectangle 175" width="10.603" height="9.342" transform="translate(-12354.841 -708.244)" fill="#f5f4f5"/>
        <rect id="Rectangle_176" data-name="Rectangle 176" width="2.527" height="9.342" transform="translate(-12346.766 -708.244)" fill="#ebebeb"/>
        <path id="Path_338" data-name="Path 338" d="M281.8,92.929v-.545h33.406v.545" transform="translate(-12642.572 -791.831)" fill="#e0e0e0"/>
        <rect id="Rectangle_177" data-name="Rectangle 177" width="2.541" height="5.359" transform="translate(-12352.343 -694.828)" fill="#fbfbfb"/>
        <path id="Path_339" data-name="Path 339" d="M306.688,139.772c0,.057-3.361.1-7.506.1s-7.507-.046-7.507-.1,3.36-.1,7.507-.1S306.688,139.716,306.688,139.772Z" transform="translate(-12649.945 -827.138)" fill="#e0e0e0"/>
        <rect id="Rectangle_178" data-name="Rectangle 178" width="2.542" height="5.359" transform="translate(-12337.2 -694.828)" fill="#e0e0e0"/>
        <path id="Path_340" data-name="Path 340" d="M366.456,139.772c0,.057-3.361.1-7.506.1s-7.507-.046-7.507-.1,3.36-.1,7.507-.1S366.456,139.716,366.456,139.772Z" transform="translate(-12694.571 -827.138)" fill="#e0e0e0"/>
        <rect id="Rectangle_179" data-name="Rectangle 179" width="2.542" height="5.359" transform="translate(-12337.2 -684.188)" fill="#e0e0e0"/>
        <path id="Path_341" data-name="Path 341" d="M366.456,181.769c0,.056-3.361.1-7.506.1s-7.507-.046-7.507-.1,3.36-.1,7.507-.1S366.456,181.713,366.456,181.769Z" transform="translate(-12694.571 -858.495)" fill="#e0e0e0"/>
        <rect id="Rectangle_180" data-name="Rectangle 180" width="2.542" height="5.359" transform="translate(-12337.2 -673.227)" fill="#e0e0e0"/>
        <path id="Path_342" data-name="Path 342" d="M366.456,225.032c0,.057-3.361.1-7.506.1s-7.507-.046-7.507-.1,3.36-.1,7.507-.1S366.456,224.976,366.456,225.032Z" transform="translate(-12694.571 -890.797)" fill="#e0e0e0"/>
        <rect id="Rectangle_181" data-name="Rectangle 181" width="2.542" height="5.359" transform="translate(-12337.2 -662.266)" fill="#e0e0e0"/>
        <path id="Path_343" data-name="Path 343" d="M366.456,268.3c0,.057-3.361.1-7.506.1s-7.507-.046-7.507-.1,3.36-.1,7.507-.1S366.456,268.239,366.456,268.3Z" transform="translate(-12694.571 -923.099)" fill="#e0e0e0"/>
        <rect id="Rectangle_182" data-name="Rectangle 182" width="2.542" height="5.359" transform="translate(-12337.2 -651.619)" fill="#e0e0e0"/>
        <path id="Path_344" data-name="Path 344" d="M366.456,310.321c0,.057-3.361.1-7.506.1s-7.507-.046-7.507-.1,3.36-.1,7.507-.1S366.456,310.266,366.456,310.321Z" transform="translate(-12694.571 -954.478)" fill="#e0e0e0"/>
        <rect id="Rectangle_183" data-name="Rectangle 183" width="2.542" height="5.359" transform="translate(-12337.2 -640.928)" fill="#e0e0e0"/>
        <rect id="Rectangle_184" data-name="Rectangle 184" width="2.542" height="5.359" transform="translate(-12337.2 -630.098)" fill="#e0e0e0"/>
        <path id="Path_345" data-name="Path 345" d="M366.456,352.517c0,.057-3.361.1-7.506.1s-7.507-.046-7.507-.1,3.36-.1,7.507-.1S366.456,352.461,366.456,352.517Z" transform="translate(-12694.571 -985.983)" fill="#e0e0e0"/>
        <rect id="Rectangle_185" data-name="Rectangle 185" width="2.541" height="5.359" transform="translate(-12352.343 -684.025)" fill="#fbfbfb"/>
        <path id="Path_346" data-name="Path 346" d="M306.688,182.41c0,.056-3.361.1-7.506.1s-7.507-.046-7.507-.1,3.36-.1,7.507-.1S306.688,182.354,306.688,182.41Z" transform="translate(-12649.945 -858.973)" fill="#e0e0e0"/>
        <rect id="Rectangle_186" data-name="Rectangle 186" width="2.541" height="5.359" transform="translate(-12352.343 -673.223)" fill="#fbfbfb"/>
        <path id="Path_347" data-name="Path 347" d="M306.688,225.047c0,.057-3.361.1-7.506.1s-7.507-.046-7.507-.1,3.36-.1,7.507-.1S306.688,224.991,306.688,225.047Z" transform="translate(-12649.945 -890.808)" fill="#e0e0e0"/>
        <rect id="Rectangle_187" data-name="Rectangle 187" width="2.541" height="5.359" transform="translate(-12352.343 -662.421)" fill="#fbfbfb"/>
        <path id="Path_348" data-name="Path 348" d="M306.688,267.684c0,.056-3.361.1-7.506.1s-7.507-.046-7.507-.1,3.36-.1,7.507-.1S306.688,267.628,306.688,267.684Z" transform="translate(-12649.945 -922.643)" fill="#e0e0e0"/>
        <rect id="Rectangle_188" data-name="Rectangle 188" width="2.541" height="5.359" transform="translate(-12352.343 -651.619)" fill="#fbfbfb"/>
        <path id="Path_349" data-name="Path 349" d="M306.688,310.321c0,.057-3.361.1-7.506.1s-7.507-.046-7.507-.1,3.36-.1,7.507-.1S306.688,310.266,306.688,310.321Z" transform="translate(-12649.945 -954.478)" fill="#e0e0e0"/>
        <rect id="Rectangle_189" data-name="Rectangle 189" width="2.541" height="5.359" transform="translate(-12352.343 -640.816)" fill="#fbfbfb"/>
        <path id="Path_350" data-name="Path 350" d="M306.688,352.959c0,.056-3.361.1-7.506.1s-7.507-.046-7.507-.1,3.36-.1,7.507-.1S306.688,352.9,306.688,352.959Z" transform="translate(-12649.945 -986.313)" fill="#e0e0e0"/>
        <rect id="Rectangle_190" data-name="Rectangle 190" width="2.541" height="5.359" transform="translate(-12352.343 -630.014)" fill="#fbfbfb"/>
        <rect id="Rectangle_191" data-name="Rectangle 191" width="22.551" height="71.468" transform="translate(-12328.144 -675.212)" fill="#f5f4f5"/>
        <rect id="Rectangle_192" data-name="Rectangle 192" width="11.275" height="71.271" transform="translate(-12316.868 -675.212)" fill="#ebebeb"/>
        <path id="Path_351" data-name="Path 351" d="M145.408,125.936v-.409H170.5v.409" transform="translate(-12475.43 -801.148)" fill="#e0e0e0"/>
        <rect id="Rectangle_195" data-name="Rectangle 195" width="1.909" height="4.025" transform="translate(-12323.69 -672.152)" fill="#fbfbfb"/>
        <path id="Path_352" data-name="Path 352" d="M164.1,161.118c0,.043-2.524.076-5.638.076s-5.638-.034-5.638-.076,2.524-.076,5.638-.076S164.1,161.076,164.1,161.118Z" transform="translate(-12480.97 -827.665)" fill="#e0e0e0"/>
        <rect id="Rectangle_196" data-name="Rectangle 196" width="1.909" height="4.025" transform="translate(-12312.318 -672.152)" fill="#e0e0e0"/>
        <path id="Path_353" data-name="Path 353" d="M208.993,161.118c0,.043-2.524.076-5.638.076s-5.638-.034-5.638-.076,2.524-.076,5.638-.076S208.993,161.076,208.993,161.118Z" transform="translate(-12514.488 -827.665)" fill="#e0e0e0"/>
        <rect id="Rectangle_197" data-name="Rectangle 197" width="1.909" height="4.025" transform="translate(-12312.318 -664.161)" fill="#e0e0e0"/>
        <path id="Path_354" data-name="Path 354" d="M208.993,192.66c0,.042-2.524.076-5.638.076s-5.638-.034-5.638-.076,2.524-.076,5.638-.076S208.993,192.617,208.993,192.66Z" transform="translate(-12514.488 -851.216)" fill="#e0e0e0"/>
        <rect id="Rectangle_198" data-name="Rectangle 198" width="1.909" height="4.025" transform="translate(-12312.318 -655.929)" fill="#e0e0e0"/>
        <path id="Path_355" data-name="Path 355" d="M208.993,225.152c0,.043-2.524.076-5.638.076s-5.638-.034-5.638-.076,2.524-.076,5.638-.076S208.993,225.11,208.993,225.152Z" transform="translate(-12514.488 -875.476)" fill="#e0e0e0"/>
        <rect id="Rectangle_199" data-name="Rectangle 199" width="1.909" height="4.025" transform="translate(-12312.318 -647.697)" fill="#e0e0e0"/>
        <path id="Path_356" data-name="Path 356" d="M208.993,257.645c0,.043-2.524.076-5.638.076s-5.638-.034-5.638-.076,2.524-.076,5.638-.076S208.993,257.6,208.993,257.645Z" transform="translate(-12514.488 -899.737)" fill="#e0e0e0"/>
        <rect id="Rectangle_200" data-name="Rectangle 200" width="1.909" height="4.025" transform="translate(-12312.318 -639.7)" fill="#e0e0e0"/>
        <path id="Path_357" data-name="Path 357" d="M208.993,289.209c0,.042-2.524.076-5.638.076s-5.638-.034-5.638-.076,2.524-.076,5.638-.076S208.993,289.166,208.993,289.209Z" transform="translate(-12514.488 -923.304)" fill="#e0e0e0"/>
        <rect id="Rectangle_201" data-name="Rectangle 201" width="1.909" height="4.025" transform="translate(-12312.318 -631.671)" fill="#e0e0e0"/>
        <rect id="Rectangle_202" data-name="Rectangle 202" width="1.909" height="4.025" transform="translate(-12312.318 -623.537)" fill="#e0e0e0"/>
        <path id="Path_358" data-name="Path 358" d="M208.993,320.9c0,.042-2.524.076-5.638.076s-5.638-.034-5.638-.076,2.524-.076,5.638-.076S208.993,320.857,208.993,320.9Z" transform="translate(-12514.488 -946.966)" fill="#e0e0e0"/>
        <rect id="Rectangle_203" data-name="Rectangle 203" width="1.909" height="4.025" transform="translate(-12323.69 -664.039)" fill="#fbfbfb"/>
        <path id="Path_359" data-name="Path 359" d="M164.1,193.141c0,.043-2.524.076-5.638.076s-5.638-.034-5.638-.076,2.524-.076,5.638-.076S164.1,193.1,164.1,193.141Z" transform="translate(-12480.97 -851.575)" fill="#e0e0e0"/>
        <rect id="Rectangle_204" data-name="Rectangle 204" width="1.909" height="4.025" transform="translate(-12323.69 -655.926)" fill="#fbfbfb"/>
        <path id="Path_360" data-name="Path 360" d="M164.1,225.164c0,.042-2.524.076-5.638.076s-5.638-.034-5.638-.076,2.524-.076,5.638-.076S164.1,225.121,164.1,225.164Z" transform="translate(-12480.97 -875.485)" fill="#e0e0e0"/>
        <rect id="Rectangle_205" data-name="Rectangle 205" width="1.909" height="4.025" transform="translate(-12323.69 -647.813)" fill="#fbfbfb"/>
        <path id="Path_361" data-name="Path 361" d="M164.1,257.186c0,.043-2.524.076-5.638.076s-5.638-.034-5.638-.076,2.524-.076,5.638-.076S164.1,257.144,164.1,257.186Z" transform="translate(-12480.97 -899.394)" fill="#e0e0e0"/>
        <rect id="Rectangle_206" data-name="Rectangle 206" width="1.909" height="4.025" transform="translate(-12323.69 -639.7)" fill="#fbfbfb"/>
        <path id="Path_362" data-name="Path 362" d="M164.1,289.209c0,.042-2.524.076-5.638.076s-5.638-.034-5.638-.076,2.524-.076,5.638-.076S164.1,289.166,164.1,289.209Z" transform="translate(-12480.97 -923.304)" fill="#e0e0e0"/>
        <rect id="Rectangle_207" data-name="Rectangle 207" width="1.909" height="4.025" transform="translate(-12323.69 -631.587)" fill="#fbfbfb"/>
        <path id="Path_363" data-name="Path 363" d="M164.1,321.231c0,.043-2.524.076-5.638.076s-5.638-.034-5.638-.076,2.524-.076,5.638-.076S164.1,321.189,164.1,321.231Z" transform="translate(-12480.97 -947.213)" fill="#e0e0e0"/>
        <rect id="Rectangle_208" data-name="Rectangle 208" width="1.909" height="4.025" transform="translate(-12323.69 -623.474)" fill="#fbfbfb"/>
        <path id="Path_364" data-name="Path 364" d="M121.051,325.9H90.259l-.134-48.665h30.792Z" transform="translate(-12479.006 -929.642)" fill="#ebebeb"/>
        <rect id="Rectangle_209" data-name="Rectangle 209" width="15.396" height="48.665" transform="translate(-12373.484 -652.409)" fill="#e0e0e0"/>
        <rect id="Rectangle_212" data-name="Rectangle 212" width="34.26" height="0.559" transform="translate(-12391.447 -652.968)" fill="#e0e0e0"/>
        <rect id="Rectangle_213" data-name="Rectangle 213" width="2.606" height="5.496" transform="translate(-12382.803 -648.231)" fill="#fff"/>
        <path id="Path_365" data-name="Path 365" d="M105.526,323.623c0,.058-3.447.1-7.7.1s-7.7-.047-7.7-.1,3.446-.1,7.7-.1S105.526,323.564,105.526,323.623Z" transform="translate(-12479.01 -964.201)" fill="#e0e0e0"/>
        <rect id="Rectangle_214" data-name="Rectangle 214" width="2.606" height="5.496" transform="translate(-12367.271 -648.231)" fill="#f5f4f5"/>
        <path id="Path_366" data-name="Path 366" d="M166.82,323.623c0,.058-3.446.1-7.7.1s-7.7-.047-7.7-.1,3.446-.1,7.7-.1S166.82,323.564,166.82,323.623Z" transform="translate(-12524.775 -964.201)" fill="#ebebeb"/>
        <rect id="Rectangle_215" data-name="Rectangle 215" width="2.606" height="5.496" transform="translate(-12367.271 -637.319)" fill="#f5f4f5"/>
        <path id="Path_367" data-name="Path 367" d="M166.82,366.691c0,.058-3.446.1-7.7.1s-7.7-.047-7.7-.1,3.446-.1,7.7-.1S166.82,366.633,166.82,366.691Z" transform="translate(-12524.775 -996.357)" fill="#ebebeb"/>
        <rect id="Rectangle_216" data-name="Rectangle 216" width="2.606" height="5.496" transform="translate(-12367.271 -626.079)" fill="#f5f4f5"/>
        <path id="Path_368" data-name="Path 368" d="M166.82,411.06c0,.058-3.446.1-7.7.1s-7.7-.047-7.7-.1,3.446-.1,7.7-.1S166.82,411,166.82,411.06Z" transform="translate(-12524.775 -1029.486)" fill="#ebebeb"/>
        <rect id="Rectangle_217" data-name="Rectangle 217" width="2.606" height="5.496" transform="translate(-12367.271 -614.838)" fill="#f5f4f5"/>
        <path id="Path_369" data-name="Path 369" d="M166.82,455.428c0,.058-3.446.105-7.7.105s-7.7-.047-7.7-.105,3.446-.1,7.7-.1S166.82,455.37,166.82,455.428Z" transform="translate(-12524.775 -1062.613)" fill="#ebebeb"/>
        <rect id="Rectangle_218" data-name="Rectangle 218" width="2.606" height="5.496" transform="translate(-12382.803 -637.153)" fill="#fff"/>
        <path id="Path_370" data-name="Path 370" d="M105.526,367.349c0,.058-3.447.1-7.7.1s-7.7-.047-7.7-.1,3.446-.1,7.7-.1S105.526,367.291,105.526,367.349Z" transform="translate(-12479.01 -996.849)" fill="#e0e0e0"/>
        <rect id="Rectangle_219" data-name="Rectangle 219" width="2.606" height="5.496" transform="translate(-12382.803 -626.075)" fill="#fff"/>
        <path id="Path_371" data-name="Path 371" d="M105.526,411.075c0,.058-3.447.1-7.7.1s-7.7-.047-7.7-.1,3.446-.1,7.7-.1S105.526,411.017,105.526,411.075Z" transform="translate(-12479.01 -1029.497)" fill="#e0e0e0"/>
        <rect id="Rectangle_220" data-name="Rectangle 220" width="2.606" height="5.496" transform="translate(-12382.803 -614.997)" fill="#fff"/>
        <path id="Path_372" data-name="Path 372" d="M105.526,454.8c0,.058-3.447.1-7.7.1s-7.7-.047-7.7-.1,3.446-.1,7.7-.1S105.526,454.743,105.526,454.8Z" transform="translate(-12479.01 -1062.145)" fill="#e0e0e0"/>
        <rect id="Rectangle_173-2" data-name="Rectangle 173" width="30.026" height="95.158" transform="translate(-12439.342 -698.902)" fill="#f5f4f5"/>
        <rect id="Rectangle_174-2" data-name="Rectangle 174" width="15.013" height="94.896" transform="translate(-12424.33 -698.902)" fill="#ebebeb"/>
        <rect id="Rectangle_177-2" data-name="Rectangle 177" width="2.541" height="5.359" transform="translate(-12433.415 -694.828)" fill="#fbfbfb"/>
        <path id="Path_339-2" data-name="Path 339" d="M306.688,139.772c0,.057-3.361.1-7.506.1s-7.507-.046-7.507-.1,3.36-.1,7.507-.1S306.688,139.716,306.688,139.772Z" transform="translate(-12731.018 -827.138)" fill="#e0e0e0"/>
        <rect id="Rectangle_178-2" data-name="Rectangle 178" width="2.542" height="5.359" transform="translate(-12418.271 -694.828)" fill="#e0e0e0"/>
        <path id="Path_340-2" data-name="Path 340" d="M366.456,139.772c0,.057-3.361.1-7.506.1s-7.507-.046-7.507-.1,3.36-.1,7.507-.1S366.456,139.716,366.456,139.772Z" transform="translate(-12775.644 -827.138)" fill="#e0e0e0"/>
        <rect id="Rectangle_179-2" data-name="Rectangle 179" width="2.542" height="5.359" transform="translate(-12418.271 -684.188)" fill="#e0e0e0"/>
        <path id="Path_341-2" data-name="Path 341" d="M366.456,181.769c0,.056-3.361.1-7.506.1s-7.507-.046-7.507-.1,3.36-.1,7.507-.1S366.456,181.713,366.456,181.769Z" transform="translate(-12775.644 -858.495)" fill="#e0e0e0"/>
        <rect id="Rectangle_180-2" data-name="Rectangle 180" width="2.542" height="5.359" transform="translate(-12418.271 -673.227)" fill="#e0e0e0"/>
        <path id="Path_342-2" data-name="Path 342" d="M366.456,225.032c0,.057-3.361.1-7.506.1s-7.507-.046-7.507-.1,3.36-.1,7.507-.1S366.456,224.976,366.456,225.032Z" transform="translate(-12775.644 -890.797)" fill="#e0e0e0"/>
        <rect id="Rectangle_181-2" data-name="Rectangle 181" width="2.542" height="5.359" transform="translate(-12418.271 -662.266)" fill="#e0e0e0"/>
        <path id="Path_343-2" data-name="Path 343" d="M366.456,268.3c0,.057-3.361.1-7.506.1s-7.507-.046-7.507-.1,3.36-.1,7.507-.1S366.456,268.239,366.456,268.3Z" transform="translate(-12775.644 -923.099)" fill="#e0e0e0"/>
        <rect id="Rectangle_182-2" data-name="Rectangle 182" width="2.542" height="5.359" transform="translate(-12418.271 -651.619)" fill="#e0e0e0"/>
        <path id="Path_344-2" data-name="Path 344" d="M366.456,310.321c0,.057-3.361.1-7.506.1s-7.507-.046-7.507-.1,3.36-.1,7.507-.1S366.456,310.266,366.456,310.321Z" transform="translate(-12775.644 -954.478)" fill="#e0e0e0"/>
        <rect id="Rectangle_183-2" data-name="Rectangle 183" width="2.542" height="5.359" transform="translate(-12418.271 -640.928)" fill="#e0e0e0"/>
        <rect id="Rectangle_184-2" data-name="Rectangle 184" width="2.542" height="5.359" transform="translate(-12418.271 -630.098)" fill="#e0e0e0"/>
        <path id="Path_345-2" data-name="Path 345" d="M366.456,352.517c0,.057-3.361.1-7.506.1s-7.507-.046-7.507-.1,3.36-.1,7.507-.1S366.456,352.461,366.456,352.517Z" transform="translate(-12775.644 -985.983)" fill="#e0e0e0"/>
        <rect id="Rectangle_185-2" data-name="Rectangle 185" width="2.541" height="5.359" transform="translate(-12433.415 -684.025)" fill="#fbfbfb"/>
        <path id="Path_346-2" data-name="Path 346" d="M306.688,182.41c0,.056-3.361.1-7.506.1s-7.507-.046-7.507-.1,3.36-.1,7.507-.1S306.688,182.354,306.688,182.41Z" transform="translate(-12731.018 -858.973)" fill="#e0e0e0"/>
        <rect id="Rectangle_186-2" data-name="Rectangle 186" width="2.541" height="5.359" transform="translate(-12433.415 -673.223)" fill="#fbfbfb"/>
        <path id="Path_347-2" data-name="Path 347" d="M306.688,225.047c0,.057-3.361.1-7.506.1s-7.507-.046-7.507-.1,3.36-.1,7.507-.1S306.688,224.991,306.688,225.047Z" transform="translate(-12731.018 -890.808)" fill="#e0e0e0"/>
        <rect id="Rectangle_187-2" data-name="Rectangle 187" width="2.541" height="5.359" transform="translate(-12433.415 -662.421)" fill="#fbfbfb"/>
        <path id="Path_348-2" data-name="Path 348" d="M306.688,267.684c0,.056-3.361.1-7.506.1s-7.507-.046-7.507-.1,3.36-.1,7.507-.1S306.688,267.628,306.688,267.684Z" transform="translate(-12731.018 -922.643)" fill="#e0e0e0"/>
        <rect id="Rectangle_188-2" data-name="Rectangle 188" width="2.541" height="5.359" transform="translate(-12433.415 -651.619)" fill="#fbfbfb"/>
        <path id="Path_349-2" data-name="Path 349" d="M306.688,310.321c0,.057-3.361.1-7.506.1s-7.507-.046-7.507-.1,3.36-.1,7.507-.1S306.688,310.266,306.688,310.321Z" transform="translate(-12731.018 -954.478)" fill="#e0e0e0"/>
        <rect id="Rectangle_189-2" data-name="Rectangle 189" width="2.541" height="5.359" transform="translate(-12433.415 -640.816)" fill="#fbfbfb"/>
        <path id="Path_350-2" data-name="Path 350" d="M306.688,352.959c0,.056-3.361.1-7.506.1s-7.507-.046-7.507-.1,3.36-.1,7.507-.1S306.688,352.9,306.688,352.959Z" transform="translate(-12731.018 -986.313)" fill="#e0e0e0"/>
        <rect id="Rectangle_190-2" data-name="Rectangle 190" width="2.541" height="5.359" transform="translate(-12433.415 -630.014)" fill="#fbfbfb"/>
        <rect id="Rectangle_191-2" data-name="Rectangle 191" width="22.551" height="71.468" transform="translate(-12409.216 -675.212)" fill="#f5f4f5"/>
        <rect id="Rectangle_192-2" data-name="Rectangle 192" width="11.275" height="71.271" transform="translate(-12397.939 -675.212)" fill="#ebebeb"/>
        <rect id="Rectangle_193" data-name="Rectangle 193" width="7.963" height="7.016" transform="translate(-12406.64 -682.228)" fill="#f5f4f5"/>
        <rect id="Rectangle_194" data-name="Rectangle 194" width="1.898" height="7.016" transform="translate(-12400.575 -682.228)" fill="#ebebeb"/>
        <rect id="Rectangle_195-2" data-name="Rectangle 195" width="1.909" height="4.025" transform="translate(-12404.765 -672.152)" fill="#fbfbfb"/>
        <path id="Path_352-2" data-name="Path 352" d="M164.1,161.118c0,.043-2.524.076-5.638.076s-5.638-.034-5.638-.076,2.524-.076,5.638-.076S164.1,161.076,164.1,161.118Z" transform="translate(-12562.042 -827.665)" fill="#e0e0e0"/>
        <rect id="Rectangle_196-2" data-name="Rectangle 196" width="1.909" height="4.025" transform="translate(-12393.391 -672.152)" fill="#e0e0e0"/>
        <path id="Path_353-2" data-name="Path 353" d="M208.993,161.118c0,.043-2.524.076-5.638.076s-5.638-.034-5.638-.076,2.524-.076,5.638-.076S208.993,161.076,208.993,161.118Z" transform="translate(-12595.56 -827.665)" fill="#e0e0e0"/>
        <rect id="Rectangle_197-2" data-name="Rectangle 197" width="1.909" height="4.025" transform="translate(-12393.391 -664.161)" fill="#e0e0e0"/>
        <path id="Path_354-2" data-name="Path 354" d="M208.993,192.66c0,.042-2.524.076-5.638.076s-5.638-.034-5.638-.076,2.524-.076,5.638-.076S208.993,192.617,208.993,192.66Z" transform="translate(-12595.56 -851.216)" fill="#e0e0e0"/>
        <rect id="Rectangle_198-2" data-name="Rectangle 198" width="1.909" height="4.025" transform="translate(-12393.391 -655.929)" fill="#e0e0e0"/>
        <path id="Path_355-2" data-name="Path 355" d="M208.993,225.152c0,.043-2.524.076-5.638.076s-5.638-.034-5.638-.076,2.524-.076,5.638-.076S208.993,225.11,208.993,225.152Z" transform="translate(-12595.56 -875.476)" fill="#e0e0e0"/>
        <rect id="Rectangle_199-2" data-name="Rectangle 199" width="1.909" height="4.025" transform="translate(-12393.391 -647.697)" fill="#e0e0e0"/>
        <path id="Path_356-2" data-name="Path 356" d="M208.993,257.645c0,.043-2.524.076-5.638.076s-5.638-.034-5.638-.076,2.524-.076,5.638-.076S208.993,257.6,208.993,257.645Z" transform="translate(-12595.56 -899.737)" fill="#e0e0e0"/>
        <rect id="Rectangle_200-2" data-name="Rectangle 200" width="1.909" height="4.025" transform="translate(-12393.391 -639.7)" fill="#e0e0e0"/>
        <path id="Path_357-2" data-name="Path 357" d="M208.993,289.209c0,.042-2.524.076-5.638.076s-5.638-.034-5.638-.076,2.524-.076,5.638-.076S208.993,289.166,208.993,289.209Z" transform="translate(-12595.56 -923.304)" fill="#e0e0e0"/>
        <rect id="Rectangle_201-2" data-name="Rectangle 201" width="1.909" height="4.025" transform="translate(-12393.391 -631.671)" fill="#e0e0e0"/>
        <rect id="Rectangle_202-2" data-name="Rectangle 202" width="1.909" height="4.025" transform="translate(-12393.391 -623.537)" fill="#e0e0e0"/>
        <path id="Path_358-2" data-name="Path 358" d="M208.993,320.9c0,.042-2.524.076-5.638.076s-5.638-.034-5.638-.076,2.524-.076,5.638-.076S208.993,320.857,208.993,320.9Z" transform="translate(-12595.56 -946.966)" fill="#e0e0e0"/>
        <rect id="Rectangle_203-2" data-name="Rectangle 203" width="1.909" height="4.025" transform="translate(-12404.765 -664.039)" fill="#fbfbfb"/>
        <path id="Path_359-2" data-name="Path 359" d="M164.1,193.141c0,.043-2.524.076-5.638.076s-5.638-.034-5.638-.076,2.524-.076,5.638-.076S164.1,193.1,164.1,193.141Z" transform="translate(-12562.042 -851.575)" fill="#e0e0e0"/>
        <rect id="Rectangle_204-2" data-name="Rectangle 204" width="1.909" height="4.025" transform="translate(-12404.765 -655.926)" fill="#fbfbfb"/>
        <path id="Path_360-2" data-name="Path 360" d="M164.1,225.164c0,.042-2.524.076-5.638.076s-5.638-.034-5.638-.076,2.524-.076,5.638-.076S164.1,225.121,164.1,225.164Z" transform="translate(-12562.042 -875.485)" fill="#e0e0e0"/>
        <rect id="Rectangle_205-2" data-name="Rectangle 205" width="1.909" height="4.025" transform="translate(-12404.765 -647.813)" fill="#fbfbfb"/>
        <path id="Path_361-2" data-name="Path 361" d="M164.1,257.186c0,.043-2.524.076-5.638.076s-5.638-.034-5.638-.076,2.524-.076,5.638-.076S164.1,257.144,164.1,257.186Z" transform="translate(-12562.042 -899.394)" fill="#e0e0e0"/>
        <rect id="Rectangle_206-2" data-name="Rectangle 206" width="1.909" height="4.025" transform="translate(-12404.765 -639.7)" fill="#fbfbfb"/>
        <path id="Path_362-2" data-name="Path 362" d="M164.1,289.209c0,.042-2.524.076-5.638.076s-5.638-.034-5.638-.076,2.524-.076,5.638-.076S164.1,289.166,164.1,289.209Z" transform="translate(-12562.042 -923.304)" fill="#e0e0e0"/>
        <rect id="Rectangle_207-2" data-name="Rectangle 207" width="1.909" height="4.025" transform="translate(-12404.765 -631.587)" fill="#fbfbfb"/>
        <path id="Path_363-2" data-name="Path 363" d="M164.1,321.231c0,.043-2.524.076-5.638.076s-5.638-.034-5.638-.076,2.524-.076,5.638-.076S164.1,321.189,164.1,321.231Z" transform="translate(-12562.042 -947.213)" fill="#e0e0e0"/>
        <rect id="Rectangle_208-2" data-name="Rectangle 208" width="1.909" height="4.025" transform="translate(-12404.765 -623.474)" fill="#fbfbfb"/>
        <path id="Path_364-2" data-name="Path 364" d="M121.051,325.9H90.259l-.134-48.665h30.792Z" transform="translate(-12559.078 -929.642)" fill="#ebebeb"/>
        <rect id="Rectangle_209-2" data-name="Rectangle 209" width="15.396" height="48.665" transform="translate(-12453.557 -652.409)" fill="#e0e0e0"/>
        <rect id="Rectangle_212-2" data-name="Rectangle 212" width="34.26" height="0.559" transform="translate(-12472.52 -652.968)" fill="#e0e0e0"/>
        <rect id="Rectangle_214-2" data-name="Rectangle 214" width="2.606" height="5.496" transform="translate(-12447.345 -648.231)" fill="#f5f4f5"/>
        <path id="Path_366-2" data-name="Path 366" d="M166.82,323.623c0,.058-3.446.1-7.7.1s-7.7-.047-7.7-.1,3.446-.1,7.7-.1S166.82,323.564,166.82,323.623Z" transform="translate(-12604.848 -964.201)" fill="#ebebeb"/>
        <rect id="Rectangle_215-2" data-name="Rectangle 215" width="2.606" height="5.496" transform="translate(-12447.345 -637.319)" fill="#f5f4f5"/>
        <path id="Path_367-2" data-name="Path 367" d="M166.82,366.691c0,.058-3.446.1-7.7.1s-7.7-.047-7.7-.1,3.446-.1,7.7-.1S166.82,366.633,166.82,366.691Z" transform="translate(-12604.848 -996.357)" fill="#ebebeb"/>
        <rect id="Rectangle_216-2" data-name="Rectangle 216" width="2.606" height="5.496" transform="translate(-12447.345 -626.079)" fill="#f5f4f5"/>
        <path id="Path_368-2" data-name="Path 368" d="M166.82,411.06c0,.058-3.446.1-7.7.1s-7.7-.047-7.7-.1,3.446-.1,7.7-.1S166.82,411,166.82,411.06Z" transform="translate(-12604.848 -1029.486)" fill="#ebebeb"/>
        <rect id="Rectangle_217-2" data-name="Rectangle 217" width="2.606" height="5.496" transform="translate(-12447.345 -614.838)" fill="#f5f4f5"/>
        <path id="Path_369-2" data-name="Path 369" d="M166.82,455.428c0,.058-3.446.105-7.7.105s-7.7-.047-7.7-.105,3.446-.1,7.7-.1S166.82,455.37,166.82,455.428Z" transform="translate(-12604.848 -1062.613)" fill="#ebebeb"/>
      </g>
      <g id="Group_19790" data-name="Group 19790" transform="translate(589.104 32.971)">
        <g id="Group_16405" data-name="Group 16405" transform="translate(-809.412 -8045.958)" opacity="0.79">
          <path id="Path_74308" data-name="Path 74308" d="M109.516,162.358c25.965-.567,33.614-2.06,33.366-8.224-.392-9.757-12.471-4.759-7.471.383-2.61-4.638,5.928-8.814,6.59.12C142.489,161.209,112.406,162.152,109.516,162.358Z" transform="translate(-109.516 -148.565)" fill="#6a66d1"/>
          <path id="Path_74309" data-name="Path 74309" d="M220.321,197.366c17.859-4.446,23.384-4.881,24.443-.772,1.675,6.5-7.575,5.452-5.182,1.135-.86,3.541,5.806,4.71,4.481-1.3C243.086,192,222.337,196.965,220.321,197.366Z" transform="translate(-195.373 -183.581)" fill="#6a66d1"/>
        </g>
        <g id="Group_16406" data-name="Group 16406" transform="translate(-869.132 -8068.847)" opacity="0.79">
          <path id="Path_74308-2" data-name="Path 74308" d="M109.516,162.358c25.965-.567,33.614-2.06,33.366-8.224-.392-9.757-12.471-4.759-7.471.383-2.61-4.638,5.928-8.814,6.59.12C142.489,161.209,112.406,162.152,109.516,162.358Z" transform="translate(-109.516 -148.565)" fill="#6a66d1"/>
          <path id="Path_74309-2" data-name="Path 74309" d="M220.321,197.366c17.859-4.446,23.384-4.881,24.443-.772,1.675,6.5-7.575,5.452-5.182,1.135-.86,3.541,5.806,4.71,4.481-1.3C243.086,192,222.337,196.965,220.321,197.366Z" transform="translate(-195.373 -183.581)" fill="#6a66d1"/>
        </g>
        <g id="Group_16417" data-name="Group 16417" transform="translate(-662.356 -8083.622)">
          <path id="Path_74392" data-name="Path 74392" d="M-516.389,273.033a3.98,3.98,0,0,1-3.979,3.978,3.964,3.964,0,0,1-2.162-.638,3.973,3.973,0,0,1-1.818-3.341,3.979,3.979,0,0,1,3.979-3.979,3.922,3.922,0,0,1,1.311.223A3.975,3.975,0,0,1-516.389,273.033Z" transform="translate(524.348 -269.053)" fill="#ffe377"/>
          <path id="Path_74393" data-name="Path 74393" d="M-510.133,273.8a3.98,3.98,0,0,1-3.979,3.978,3.965,3.965,0,0,1-2.161-.639c.035.009.071.014.106.02a2.8,2.8,0,0,0,1.5-.363c.113-.051.225-.1.334-.163a.224.224,0,0,0,.113-.111c.045-.133-.129-.226-.262-.23s-.3-.014-.336-.152a3.582,3.582,0,0,0,1.088-.313,1.416,1.416,0,0,0,.737-.872l-.53.037a3.7,3.7,0,0,0,1.3-2.4,3.93,3.93,0,0,0-.575-2.55A3.975,3.975,0,0,1-510.133,273.8Z" transform="translate(518.091 -269.82)" fill="#fbc973" opacity="0.5"/>
        </g>
        <path id="Path_74395" data-name="Path 74395" d="M-401.83,275.6h-24.006l3.7-1.333a1.714,1.714,0,0,1,.95-2.321,1.135,1.135,0,0,1,1.364.475,1.369,1.369,0,0,1,.5-1.056c.335-.225.9-.081.959.318a4.353,4.353,0,0,1,3.316-2.625,3.508,3.508,0,0,1,2.767.309,1.721,1.721,0,0,1,.446,2.477,5.771,5.771,0,0,1,1.824-.426,2.207,2.207,0,0,1,1.7.646,1.393,1.393,0,0,1,.137,1.727,3.666,3.666,0,0,1,2.706-.342,2.469,2.469,0,0,1,1.128.745,2.135,2.135,0,0,1,.446.813Z" transform="translate(-452.55 -8344.581)" fill="#fff" opacity="0.25"/>
        <path id="Path_74396" data-name="Path 74396" d="M-272.165,302.408h-32.341l3.42-.986a.885.885,0,0,1,.029-.133,1.719,1.719,0,0,1,2.065-1.106,2.51,2.51,0,0,1,2.443-1.425c.018,0,.034.007.05.009a2.281,2.281,0,0,1,.95-2.736,1.8,1.8,0,0,1,2.54,1.209c.385-1.578.84-3.271,2.1-4.3a3.874,3.874,0,0,1,4.676-.054,3.875,3.875,0,0,1,1.108,4.544c.851-.934,1.907-1.95,3.163-1.812a2.344,2.344,0,0,1,1.943,1.981c.009.056.013.113.018.169a3.664,3.664,0,0,1,.964-.115,2.065,2.065,0,0,1,1.551.707,1.354,1.354,0,0,1,.065,1.63,2.227,2.227,0,0,1,1.932.423,2.224,2.224,0,0,1,.8,1.7Z" transform="translate(-546.563 -8362.568)" fill="#fff" opacity="0.25"/>
        <path id="Path_74397" data-name="Path 74397" d="M-524.009,340.25h-48.637l7.493-2.7a3.475,3.475,0,0,1,1.925-4.7,2.309,2.309,0,0,1,2.767.964,2.77,2.77,0,0,1,1-2.137c.678-.453,1.828-.167,1.945.639.894-2.855,3.805-4.64,6.719-5.316a7.106,7.106,0,0,1,5.606.621c1.6,1.1,2.254,3.632.9,5.019a11.708,11.708,0,0,1,3.693-.862,4.5,4.5,0,0,1,3.451,1.31,2.819,2.819,0,0,1,.279,3.5,7.433,7.433,0,0,1,5.482-.691,5.008,5.008,0,0,1,2.2,1.412,4.372,4.372,0,0,1,.986,1.743Z" transform="translate(-244.231 -8389.363)" fill="#fff" opacity="0.25"/>
        <path id="Path_74398" data-name="Path 74398" d="M-401.83,275.6h-24.006l3.7-1.333a1.714,1.714,0,0,1,.95-2.321,1.135,1.135,0,0,1,1.364.475,1.369,1.369,0,0,1,.5-1.056c.335-.225.9-.081.959.318a4.353,4.353,0,0,1,3.316-2.625,3.508,3.508,0,0,1,2.767.309,1.721,1.721,0,0,1,.446,2.477,5.771,5.771,0,0,1,1.824-.426,2.207,2.207,0,0,1,1.7.646,1.393,1.393,0,0,1,.137,1.727,3.666,3.666,0,0,1,2.706-.342,2.469,2.469,0,0,1,1.128.745,2.135,2.135,0,0,1,.446.813Z" transform="translate(-357.987 -8344.581)" fill="#fff" opacity="0.25"/>
        <path id="Path_74399" data-name="Path 74399" d="M-272.165,302.408h-32.341l3.42-.986a.885.885,0,0,1,.029-.133,1.719,1.719,0,0,1,2.065-1.106,2.51,2.51,0,0,1,2.443-1.425c.018,0,.034.007.05.009a2.281,2.281,0,0,1,.95-2.736,1.8,1.8,0,0,1,2.54,1.209c.385-1.578.84-3.271,2.1-4.3a3.874,3.874,0,0,1,4.676-.054,3.875,3.875,0,0,1,1.108,4.544c.851-.934,1.907-1.95,3.163-1.812a2.344,2.344,0,0,1,1.943,1.981c.009.056.013.113.018.169a3.664,3.664,0,0,1,.964-.115,2.065,2.065,0,0,1,1.551.707,1.354,1.354,0,0,1,.065,1.63,2.227,2.227,0,0,1,1.932.423,2.224,2.224,0,0,1,.8,1.7Z" transform="translate(-451.999 -8362.568)" fill="#fff" opacity="0.25"/>
        <path id="Path_74400" data-name="Path 74400" d="M-524.009,340.25h-48.637l7.493-2.7a3.475,3.475,0,0,1,1.925-4.7,2.309,2.309,0,0,1,2.767.964,2.77,2.77,0,0,1,1-2.137c.678-.453,1.828-.167,1.945.639.894-2.855,3.805-4.64,6.719-5.316a7.106,7.106,0,0,1,5.606.621c1.6,1.1,2.254,3.632.9,5.019a11.708,11.708,0,0,1,3.693-.862,4.5,4.5,0,0,1,3.451,1.31,2.819,2.819,0,0,1,.279,3.5,7.433,7.433,0,0,1,5.482-.691,5.008,5.008,0,0,1,2.2,1.412,4.372,4.372,0,0,1,.986,1.743Z" transform="translate(-154.171 -8389.363)" fill="#fff" opacity="0.25"/>
        <path id="Path_74401" data-name="Path 74401" d="M-401.83,275.6h-24.006l3.7-1.333a1.714,1.714,0,0,1,.95-2.321,1.135,1.135,0,0,1,1.364.475,1.369,1.369,0,0,1,.5-1.056c.335-.225.9-.081.959.318a4.353,4.353,0,0,1,3.316-2.625,3.508,3.508,0,0,1,2.767.309,1.721,1.721,0,0,1,.446,2.477,5.771,5.771,0,0,1,1.824-.426,2.207,2.207,0,0,1,1.7.646,1.393,1.393,0,0,1,.137,1.727,3.666,3.666,0,0,1,2.706-.342,2.469,2.469,0,0,1,1.128.745,2.135,2.135,0,0,1,.446.813Z" transform="translate(-267.926 -8344.581)" fill="#fff" opacity="0.25"/>
        <path id="Path_74402" data-name="Path 74402" d="M-272.165,302.408h-32.341l3.42-.986a.885.885,0,0,1,.029-.133,1.719,1.719,0,0,1,2.065-1.106,2.51,2.51,0,0,1,2.443-1.425c.018,0,.034.007.05.009a2.281,2.281,0,0,1,.95-2.736,1.8,1.8,0,0,1,2.54,1.209c.385-1.578.84-3.271,2.1-4.3a3.874,3.874,0,0,1,4.676-.054,3.875,3.875,0,0,1,1.108,4.544c.851-.934,1.907-1.95,3.163-1.812a2.344,2.344,0,0,1,1.943,1.981c.009.056.013.113.018.169a3.664,3.664,0,0,1,.964-.115,2.065,2.065,0,0,1,1.551.707,1.354,1.354,0,0,1,.065,1.63,2.227,2.227,0,0,1,1.932.423,2.224,2.224,0,0,1,.8,1.7Z" transform="translate(-361.938 -8362.568)" fill="#fff" opacity="0.25"/>
      </g>
      <g id="Group_16414" data-name="Group 16414" transform="translate(-332.52 -7891.603)">
        <rect id="Rectangle_9234" data-name="Rectangle 9234" width="10.447" height="10.447" transform="translate(5.106 10.447)" fill="#f9d60c"/>
        <rect id="Rectangle_9235" data-name="Rectangle 9235" width="7.745" height="10.447" transform="translate(15.553 10.447)" fill="#271e49"/>
        <line id="Line_149" data-name="Line 149" y1="10.447" x2="7.745" transform="translate(15.553 10.447)" fill="none" stroke="#fff" stroke-miterlimit="10" stroke-width="1"/>
        <line id="Line_150" data-name="Line 150" x2="7.745" y2="10.447" transform="translate(15.553 10.447)" fill="none" stroke="#fff" stroke-miterlimit="10" stroke-width="1"/>
        <rect id="Rectangle_9236" data-name="Rectangle 9236" width="10.447" height="10.447" transform="translate(17.767 10.447)" fill="#f9d60c"/>
        <rect id="Rectangle_9237" data-name="Rectangle 9237" width="7.745" height="10.447" transform="translate(28.214 10.447)" fill="#271e49"/>
        <line id="Line_151" data-name="Line 151" y1="10.447" x2="7.745" transform="translate(28.214 10.447)" fill="none" stroke="#fff" stroke-miterlimit="10" stroke-width="1"/>
        <line id="Line_152" data-name="Line 152" x2="7.745" y2="10.447" transform="translate(28.214 10.447)" fill="none" stroke="#fff" stroke-miterlimit="10" stroke-width="1"/>
        <rect id="Rectangle_9238" data-name="Rectangle 9238" width="10.447" height="10.447" transform="translate(10.329 0)" fill="#f9d60c"/>
        <path id="Path_73004" data-name="Path 73004" d="M95.662,826.753c0,.638-10.419,1.154-23.271,1.154s-23.271-.517-23.271-1.154S59.538,825.6,72.39,825.6,95.662,826.116,95.662,826.753Z" transform="translate(-49.119 -804.986)" fill="#001836"/>
        <rect id="Rectangle_9249" data-name="Rectangle 9249" width="8.585" height="8.404" transform="translate(15.866 13.473) rotate(180)" fill="#c7980a"/>
        <rect id="Rectangle_9250" data-name="Rectangle 9250" width="3.622" height="8.404" transform="translate(7.28 13.473) rotate(180)" fill="#fdca32"/>
        <rect id="Rectangle_9251" data-name="Rectangle 9251" width="2.35" height="0.954" rx="0.477" transform="translate(15.23 12.205) rotate(180)" fill="#6b5800"/>
        <rect id="Rectangle_9252" data-name="Rectangle 9252" width="2.116" height="3.599" transform="translate(12.88 8.668) rotate(180)" fill="#d1d1d1"/>
        <rect id="Rectangle_9253" data-name="Rectangle 9253" width="1.347" height="3.599" transform="translate(5.985 8.668) rotate(180)" fill="#fcf2d2"/>
        <rect id="Rectangle_9254" data-name="Rectangle 9254" width="2.693" height="0.267" transform="translate(8.131 11.357)" fill="#6b5800"/>
        <rect id="Rectangle_9255" data-name="Rectangle 9255" width="1.469" height="0.267" transform="translate(8.131 10.832)" fill="#6b5800"/>
        <rect id="Rectangle_9256" data-name="Rectangle 9256" width="2.693" height="0.267" transform="translate(8.131 11.905)" fill="#6b5800"/>
        <rect id="Rectangle_9262" data-name="Rectangle 9262" width="8.623" height="8.44" transform="translate(4.475 13.479)" fill="#edbd2f"/>
        <rect id="Rectangle_9263" data-name="Rectangle 9263" width="3.637" height="8.44" transform="translate(13.098 13.479)" fill="#c7980a"/>
        <path id="Path_73008" data-name="Path 73008" d="M100.653,821.462l-.6-.865-.6.712.173.022v.726l.848-.007v-.61Z" transform="translate(-89.591 -800.964)" fill="#c7980a"/>
        <path id="Path_73009" data-name="Path 73009" d="M107.229,821.462l-.6-.865-.6.712.173.022v.726l.848-.007v-.61Z" transform="translate(-94.878 -800.964)" fill="#c7980a"/>
        <path id="Path_73010" data-name="Path 73010" d="M84.481,796.125h-4.7a.386.386,0,0,1-.386-.385h0a.386.386,0,0,1,.385-.385h4.7a.386.386,0,0,1,.385.385h0A.386.386,0,0,1,84.481,796.125Z" transform="translate(-73.465 -780.67)" fill="#6b5800"/>
        <rect id="Rectangle_9264" data-name="Rectangle 9264" width="3.363" height="0.334" transform="translate(5.236 20.192)" fill="#8c7300"/>
        <rect id="Rectangle_9265" data-name="Rectangle 9265" width="1.834" height="0.334" transform="translate(5.236 19.537)" fill="#8c7300"/>
        <rect id="Rectangle_9266" data-name="Rectangle 9266" width="3.363" height="0.334" transform="translate(5.236 20.876)" fill="#8c7300"/>
        <rect id="Rectangle_9267" data-name="Rectangle 9267" width="14.594" height="11.528" transform="translate(20.626 9.795)" fill="#edbd2f"/>
        <rect id="Rectangle_9268" data-name="Rectangle 9268" width="4.968" height="11.528" transform="translate(35.22 9.795)" fill="#c7980a"/>
        <rect id="Rectangle_9269" data-name="Rectangle 9269" width="3.695" height="0.367" transform="translate(22.008 19.043)" fill="#8c7300"/>
        <rect id="Rectangle_9270" data-name="Rectangle 9270" width="2.015" height="0.367" transform="translate(22.008 18.324)" fill="#8c7300"/>
        <rect id="Rectangle_9271" data-name="Rectangle 9271" width="3.695" height="0.367" transform="translate(22.008 19.795)" fill="#8c7300"/>
        <rect id="Rectangle_9272" data-name="Rectangle 9272" width="4.069" height="2.723" transform="translate(25.889 9.795)" fill="#fcf2d2"/>
        <path id="Path_73011" data-name="Path 73011" d="M162.3,796.921l-1.161-1.681-1.161,1.383.337.043v1.411l1.648-.013v-1.186Z" transform="translate(-138.248 -780.578)" fill="#c7980a"/>
        <rect id="Rectangle_9273" data-name="Rectangle 9273" width="1.988" height="1.651" rx="0.826" transform="translate(27.631 18.436)" fill="#c7980a"/>
        <rect id="Rectangle_9274" data-name="Rectangle 9274" width="1.988" height="1.651" rx="0.826" transform="translate(29.94 18.436)" fill="#c7980a"/>
        <rect id="Rectangle_9275" data-name="Rectangle 9275" width="1.988" height="1.651" rx="0.826" transform="translate(32.249 18.436)" fill="#c7980a"/>
      </g>
      <g id="Group_16419" data-name="Group 16419" transform="translate(-258.548 -7898.812)">
        <path id="Path_72909" data-name="Path 72909" d="M420.629,372.147l1.322-1.478,1.068,1.145-1.331,1.4Z" transform="translate(-418.962 -347.321)" fill="#fff"/>
        <path id="Path_72910" data-name="Path 72910" d="M426.181,391.457l1.08,2.936a.442.442,0,0,1-.194.512h0l-3.357-3.558,1.411-.96Z" transform="translate(-423.455 -365.56)"/>
        <path id="Path_72911" data-name="Path 72911" d="M426.823,403.2l-.255.232,3.121,3.245a.416.416,0,0,0,.49.081h0Z" transform="translate(-426.568 -377.414)" fill="#fff"/>
        <line id="Line_123" data-name="Line 123" x1="0.395" y1="0.03" transform="translate(2.761 26.91)" fill="none" stroke="#fff" stroke-linecap="round" stroke-linejoin="round" stroke-width="1.906"/>
        <line id="Line_124" data-name="Line 124" x1="0.429" y1="0.032" transform="translate(2.884 27.289)" fill="none" stroke="#fff" stroke-linecap="round" stroke-linejoin="round" stroke-width="1.906"/>
        <line id="Line_125" data-name="Line 125" x1="0.465" y1="0.035" transform="translate(2.985 27.696)" fill="none" stroke="#fff" stroke-linecap="round" stroke-linejoin="round" stroke-width="1.906"/>
        <path id="Path_72912" data-name="Path 72912" d="M352.087,251.871l-2.115-1.962,4.736-5.786.578-4.536,2.2.421.089,5.414Z" transform="translate(-348.22 -226.067)" fill="#41339c"/>
        <path id="Path_72913" data-name="Path 72913" d="M367.58,308.547l.934,3.492,1.176-1.308Z" transform="translate(-361.656 -289.856)"/>
        <path id="Path_72914" data-name="Path 72914" d="M319.187,405.9l-.739-1.84,1.5-.451.669,1.816Z" transform="translate(-308.9 -377.797)" fill="#fff"/>
        <path id="Path_72915" data-name="Path 72915" d="M273.412,427.834l3.111.333a.442.442,0,0,1,.372.4h0L272.218,430l-.236-1.691Z" transform="translate(-261.695 -400.201)"/>
        <path id="Path_72916" data-name="Path 72916" d="M271.983,439.044l.1.331,4.293-1.361a.416.416,0,0,0,.289-.4h0Z" transform="translate(-261.459 -409.245)" fill="#fff"/>
        <line id="Line_126" data-name="Line 126" x1="0.202" y2="0.341" transform="translate(12.64 27.709)" fill="none" stroke="#fff" stroke-linecap="round" stroke-linejoin="round" stroke-width="1.906"/>
        <line id="Line_127" data-name="Line 127" x1="0.219" y2="0.37" transform="translate(13.035 27.738)" fill="none" stroke="#fff" stroke-linecap="round" stroke-linejoin="round" stroke-width="1.906"/>
        <line id="Line_128" data-name="Line 128" x1="0.237" y2="0.402" transform="translate(13.445 27.796)" fill="none" stroke="#fff" stroke-linecap="round" stroke-linejoin="round" stroke-width="1.906"/>
        <path id="Path_72917" data-name="Path 72917" d="M313.589,245.276a5.8,5.8,0,0,0,.862,3.686l1.748,3.326,2.09,6.282,2.819-.788-1.852-6.354a2.79,2.79,0,0,0-.259-.674l-2.348-5.478Z" transform="translate(-309.024 -231.329)" fill="#41339c"/>
        <line id="Line_129" data-name="Line 129" x1="1.203" y1="2.711" transform="translate(8.092 15.309)" fill="none" stroke="#000" stroke-linecap="round" stroke-linejoin="round" stroke-width="0.516"/>
        <path id="Path_72918" data-name="Path 72918" d="M350.946,132.154a7.627,7.627,0,0,0-1.611.481c-.364.184-.34.657-.294,1.062l-.152,6.258,4.7-.043.167-6.165a1.258,1.258,0,0,0-.843-1.266,4.96,4.96,0,0,0-1.117-.4Z" transform="translate(-344.324 -126.623)" fill="#da315c"/>
        <path id="Path_72919" data-name="Path 72919" d="M337.925,138.219a2.7,2.7,0,0,1,1.539,2.2h-1.872Z" transform="translate(-329.182 -132.298)" fill="#da315c"/>
        <path id="Path_72920" data-name="Path 72920" d="M366.2,131.076l-.793-.376-.8.14-.514.128a1.452,1.452,0,0,0,1.34.679C366.372,131.591,366.2,131.076,366.2,131.076Z" transform="translate(-357.919 -125.343)" fill="#e2a485"/>
        <rect id="Rectangle_9219" data-name="Rectangle 9219" width="4.701" height="0.658" transform="translate(4.565 13.289)"/>
        <rect id="Rectangle_9220" data-name="Rectangle 9220" width="1.161" height="0.658" transform="translate(7.26 13.289)" fill="#eaad3a"/>
        <rect id="Rectangle_9221" data-name="Rectangle 9221" width="0.868" height="0.303" transform="translate(5.988 7.675)" fill="#fff"/>
        <path id="Path_72921" data-name="Path 72921" d="M405.07,149.407l-1.562,2.907a.756.756,0,0,1-.865.431h0a.756.756,0,0,1-.532-1.008l1.638-3.523a.869.869,0,0,1,1.078-.514h0S405.278,148.936,405.07,149.407Z" transform="translate(-399.676 -141.028)" fill="#e2a485"/>
        <path id="Path_72922" data-name="Path 72922" d="M397.912,139.436s-.934.284-1.93,2.574l1.886,1.051.939-1.416Z" transform="translate(-392.902 -133.424)" fill="#da315c"/>
        <path id="Path_72923" data-name="Path 72923" d="M399.471,175.074l.18.1.677-1.021" transform="translate(-394.685 -165.538)" fill="none" stroke="#000" stroke-linecap="round" stroke-linejoin="round" stroke-width="0.516"/>
        <path id="Path_72924" data-name="Path 72924" d="M.087,1.021S-.078.6.449.372L1.256.01a.131.131,0,0,1,.176.084h0a.131.131,0,0,1-.045.139L1.032.521,2.184.461a.142.142,0,0,1,.154.15h0a.142.142,0,0,1-.123.131L1.443.833,1.433.872l.812.021a.137.137,0,0,1,.114.176h0a.137.137,0,0,1-.145.094l-.81.022-.016.046.717.1c.192.028.2.128.182.189h0c-.016.056-.176.041-.234.028L1.286,1.49l-.017.042.673.12a.1.1,0,0,1,.041.147h0a.1.1,0,0,1-.115.035l-.784-.111S.126,1.613,0,1.238Z" transform="matrix(0.788, 0.616, -0.616, 0.788, 6.824, 13.212)" fill="#e2a485"/>
        <path id="Path_72925" data-name="Path 72925" d="M0,1.469l4.675-.02L4.643.573.426,0Z" transform="matrix(0.788, 0.616, -0.616, 0.788, 3.31, 10.467)" fill="#e2a485"/>
        <line id="Line_130" data-name="Line 130" x1="0.734" y1="0.1" transform="translate(3.591 10.267)" fill="none" stroke="#bb623f" stroke-linecap="round" stroke-linejoin="round" stroke-width="0.507"/>
        <path id="Path_72926" data-name="Path 72926" d="M352.776,75.174a2.053,2.053,0,0,1-.2,1.265l-.149-1.5Z" transform="translate(-343.632 -73.766)"/>
        <path id="Path_72927" data-name="Path 72927" d="M384.4,101.257l.193.542.03-.609Z" transform="translate(-377.849 -98.044)"/>
        <path id="Path_72928" data-name="Path 72928" d="M351.949,92.117a1.418,1.418,0,0,1,.1-.49c.086-.216.171-.41.414-.329.488.163.11.889-.286.977a.178.178,0,0,1-.227-.158Z" transform="translate(-343.487 -88.877)" fill="#bb623f"/>
        <path id="Path_72929" data-name="Path 72929" d="M367.222,101.183l-.168,2.825,1.487.039-.087-2.379Z" transform="translate(-360.467 -98.038)" fill="#e2a485"/>
        <path id="Path_72930" data-name="Path 72930" d="M368.481,113.256l-.972-1.1.936-.09Z" transform="translate(-360.442 -108.106)" fill="#bb623f"/>
        <path id="Path_72931" data-name="Path 72931" d="M356.572,70.512l-.048,1.744s-.006,1.076-.879,1.116c-1.007.045-1.409-.428-1.345-.95l.056-1.962a.668.668,0,0,1,.717-.624l.818.023A.67.67,0,0,1,356.572,70.512Z" transform="translate(-347.542 -69.041)" fill="#e2a485"/>
        <path id="Path_72932" data-name="Path 72932" d="M368.434,89.95s.3-.022.314.122-.331.139-.331.139-.3.028-.315-.108S368.434,89.95,368.434,89.95Z" transform="translate(-360.753 -87.646)" fill="#fff"/>
        <path id="Path_72933" data-name="Path 72933" d="M369.334,89.7a.183.183,0,1,0,.171-.171A.172.172,0,0,0,369.334,89.7Z" transform="translate(-361.796 -87.262)" fill="#060606"/>
        <path id="Path_72934" data-name="Path 72934" d="M368.434,89.95s.3-.022.314.122-.331.139-.331.139-.3.028-.315-.108S368.434,89.95,368.434,89.95Z" transform="translate(-360.753 -87.646)" fill="#fff"/>
        <path id="Path_72935" data-name="Path 72935" d="M355.744,90.109s-.228-.018-.244.12.253.135.253.135.235.015.246-.113S355.744,90.109,355.744,90.109Z" transform="translate(-347.06 -87.794)" fill="#fff"/>
        <path id="Path_72936" data-name="Path 72936" d="M357.142,89.881A.149.149,0,1,1,357,89.72.149.149,0,0,1,357.142,89.881Z" transform="translate(-348.303 -87.434)" fill="#060606"/>
        <path id="Path_72937" data-name="Path 72937" d="M355.744,90.109s-.228-.018-.244.12.253.135.253.135.235.015.246-.113S355.744,90.109,355.744,90.109Z" transform="translate(-347.06 -87.794)" fill="#fff"/>
        <path id="Path_72938" data-name="Path 72938" d="M367.374,82.366l.595,0a.157.157,0,0,0,.173-.154h0a.157.157,0,0,0-.147-.157l-.6.048a.13.13,0,0,0-.137.119h0A.13.13,0,0,0,367.374,82.366Z" transform="translate(-360.084 -80.348)"/>
        <path id="Path_72939" data-name="Path 72939" d="M353.972,82.646l-.34-.01a.132.132,0,0,1-.145-.148h0a.173.173,0,0,1,.082-.139.129.129,0,0,1,.088-.014l.311.055c.068.018.114.045.115.114h0A.139.139,0,0,1,353.972,82.646Z" transform="translate(-344.994 -80.602)"/>
        <path id="Path_72940" data-name="Path 72940" d="M361.768,95.519l.1.353-.187.073" transform="translate(-353.388 -92.799)" fill="none" stroke="#000" stroke-linecap="round" stroke-linejoin="round" stroke-width="0.531"/>
        <path id="Path_72941" data-name="Path 72941" d="M361.7,104.627a.843.843,0,0,1-.666,0" transform="translate(-353.179 -101.224)" fill="none" stroke="#000" stroke-linecap="round" stroke-linejoin="round" stroke-width="0.531"/>
        <path id="Path_72942" data-name="Path 72942" d="M356.108,66.971v-1.21a.582.582,0,0,1,.27-.5.473.473,0,0,1,.262-.072c.346.01,1.392.574,1.533-.166L357,64.647a.917.917,0,0,0-1.019.061c-.49.442-.714,1.022-.233,2.216Z" transform="translate(-349.234 -64.119)"/>
        <path id="Path_72943" data-name="Path 72943" d="M383.99,92.034a1.419,1.419,0,0,0-.071-.494c-.074-.22-.2-.433-.443-.353-.6.2-.111.882.279.992a.178.178,0,0,0,.235-.146Z" transform="translate(-377.128 -88.776)" fill="#e2a485"/>
        <path id="Path_72944" data-name="Path 72944" d="M385.813,96.56s-.164-.3-.378-.264" transform="translate(-379.117 -93.515)" fill="none" stroke="#000" stroke-linecap="round" stroke-linejoin="round" stroke-width="0.531"/>
        <path id="Rectangle_9225" data-name="Rectangle 9225" d="M1.409,0h.055A1.409,1.409,0,0,1,2.872,1.409H0A1.409,1.409,0,0,1,1.409,0Z" transform="translate(6.271 0)" fill="#da315c"/>
        <path id="Path_72945" data-name="Path 72945" d="M339.75,69.049s3.276-1.106,3.812-.59c.258.248-.941.59-.941.59Z" transform="translate(-333.479 -67.64)" fill="#b3143c"/>
      </g>
      <g id="Group_16404" data-name="Group 16404" transform="translate(-446.193 -7920.108)">
        <ellipse id="Ellipse_580" data-name="Ellipse 580" cx="7.949" cy="8.041" rx="7.949" ry="8.041" transform="matrix(0.702, -0.712, 0.712, 0.702, 87.299, 42.898)" fill="#271e49"/>
        <ellipse id="Ellipse_581" data-name="Ellipse 581" cx="7.949" cy="8.041" rx="7.949" ry="8.041" transform="matrix(0.702, -0.712, 0.712, 0.702, 52.821, 42.898)" fill="#271e49"/>
        <ellipse id="Ellipse_582" data-name="Ellipse 582" cx="7.949" cy="8.041" rx="7.949" ry="8.041" transform="matrix(0.702, -0.712, 0.712, 0.702, 23.526, 42.898)" fill="#271e49"/>
        <ellipse id="Ellipse_583" data-name="Ellipse 583" cx="7.949" cy="8.041" rx="7.949" ry="8.041" transform="matrix(0.702, -0.712, 0.712, 0.702, 70.06, 42.899)" fill="#271e49"/>
        <path id="Path_72987" data-name="Path 72987" d="M334.55,251.46H288.481c-3.465,0-5.308,7.468-6.078,9.322l.288-.016,3.06,0c2.639-.3,1.84-6.036,5.214-6.036h14.7l11.711-.078v.078h14.7c3.374,0,2.575,5.73,5.214,6.036l3.06,0,.288.016C339.857,258.928,338.015,251.46,334.55,251.46Z" transform="translate(-231.559 -218.915)" fill="#f9d60c"/>
        <path id="Path_72988" data-name="Path 72988" d="M187.973,274.9H87.863V263.827H192.852v2.568l-4.879.077Z" transform="translate(-86.509 -228.136)" fill="#271e49"/>
        <path id="Path_72989" data-name="Path 72989" d="M430.659,266.4v-2.568H406.8l1.721,2.568Z" transform="translate(-324.315 -228.137)" fill="#2a59ff"/>
        <ellipse id="Ellipse_584" data-name="Ellipse 584" cx="7.949" cy="8.041" rx="7.949" ry="8.041" transform="matrix(0.702, -0.712, 0.712, 0.702, 63.062, 42.898)" fill="#271e49"/>
        <ellipse id="Ellipse_585" data-name="Ellipse 585" cx="3.92" cy="3.965" rx="3.92" ry="3.965" transform="matrix(0.702, -0.712, 0.712, 0.702, 68.793, 42.887)" fill="#fff"/>
        <ellipse id="Ellipse_586" data-name="Ellipse 586" cx="5.644" cy="5.708" rx="5.644" ry="5.708" transform="matrix(0.702, -0.712, 0.712, 0.702, 66.341, 42.891)" fill="none" stroke="#fff" stroke-miterlimit="10" stroke-width="1"/>
        <ellipse id="Ellipse_587" data-name="Ellipse 587" cx="7.949" cy="8.041" rx="7.949" ry="8.041" transform="matrix(0.702, -0.712, 0.712, 0.702, 28.584, 42.898)" fill="#271e49"/>
        <ellipse id="Ellipse_588" data-name="Ellipse 588" cx="3.92" cy="3.965" rx="3.92" ry="3.965" transform="translate(34.315 42.888) rotate(-45.439)" fill="#fff"/>
        <ellipse id="Ellipse_589" data-name="Ellipse 589" cx="5.644" cy="5.708" rx="5.644" ry="5.708" transform="matrix(0.702, -0.712, 0.712, 0.702, 31.864, 42.892)" fill="none" stroke="#fff" stroke-miterlimit="10" stroke-width="1"/>
        <ellipse id="Ellipse_590" data-name="Ellipse 590" cx="7.949" cy="8.041" rx="7.949" ry="8.041" transform="matrix(0.702, -0.712, 0.712, 0.702, 45.823, 42.899)" fill="#271e49"/>
        <ellipse id="Ellipse_591" data-name="Ellipse 591" cx="3.92" cy="3.965" rx="3.92" ry="3.965" transform="matrix(0.702, -0.712, 0.712, 0.702, 51.554, 42.888)" fill="#fff"/>
        <ellipse id="Ellipse_592" data-name="Ellipse 592" cx="5.644" cy="5.708" rx="5.644" ry="5.708" transform="matrix(0.702, -0.712, 0.712, 0.702, 49.103, 42.892)" fill="none" stroke="#fff" stroke-miterlimit="10" stroke-width="1"/>
        <ellipse id="Ellipse_593" data-name="Ellipse 593" cx="7.949" cy="8.041" rx="7.949" ry="8.041" transform="matrix(0.702, -0.712, 0.712, 0.702, 8.534, 42.898)" fill="#271e49"/>
        <ellipse id="Ellipse_594" data-name="Ellipse 594" cx="3.92" cy="3.965" rx="3.92" ry="3.965" transform="matrix(0.702, -0.712, 0.712, 0.702, 14.266, 42.888)" fill="#fff"/>
        <ellipse id="Ellipse_595" data-name="Ellipse 595" cx="5.644" cy="5.708" rx="5.644" ry="5.708" transform="matrix(0.702, -0.712, 0.712, 0.702, 11.814, 42.892)" fill="none" stroke="#fff" stroke-miterlimit="10" stroke-width="1"/>
        <rect id="Rectangle_9229" data-name="Rectangle 9229" width="20.642" height="24.692" transform="translate(26.105 10.999)" fill="#271e49"/>
        <path id="Path_72990" data-name="Path 72990" d="M109.335,190.861s-10.223.1-11.83.1c-3.374,0-2.575,5.731-5.214,6.035a1.983,1.983,0,0,1-.226.013h-8.6v-9.436c0-1.428,1.578-4.786,3.506-8.378.014-.025.027-.051.041-.076,2.391-4.459,5.308-9.253,6.4-11.138.183-.317.314-.553.384-.688.814-1.609,13.453-1.45,14.717-1.222C109.735,166.289,109.345,189.195,109.335,190.861Z" transform="translate(-83.23 -155.139)" fill="#d3d0f4"/>
        <path id="Path_72991" data-name="Path 72991" d="M86.613,264.854s-.419,2.507-.84,2.507H83.465v-2.507Z" transform="translate(-83.23 -228.902)" fill="#2a59ff"/>
        <path id="Path_72992" data-name="Path 72992" d="M83.465,266.341h2.888c.555,0,1.108-3.563,1.108-3.563h-4" transform="translate(-83.23 -227.354)" fill="none" stroke="#fff" stroke-miterlimit="10" stroke-width="1"/>
        <path id="Path_72993" data-name="Path 72993" d="M179.116,215.23V203.107s2.052-.536,2.711,0V215.23Z" transform="translate(-154.548 -182.686)" fill="#2a59ff"/>
        <path id="Path_72994" data-name="Path 72994" d="M181.207,163.236s-.321-11.376-.273-12.7,1.355-2.068,3.665-2.068l-.044,1.207s-2.229-.115-2.271,1.034.025,12.525.025,12.525Z" transform="translate(-155.9 -142.126)" fill="#2a59ff"/>
        <path id="Path_72995" data-name="Path 72995" d="M181.931,202.882a2.431,2.431,0,0,1,1.124-.089" transform="translate(-156.646 -182.607)" fill="none" stroke="#fff" stroke-miterlimit="10" stroke-width="1"/>
        <path id="Path_72996" data-name="Path 72996" d="M83.011,292.583H93.644c.69,0-.459,6.2-1.034,6.435s-8.833,0-9.374,0C82.921,299.018,83.011,292.583,83.011,292.583Z" transform="translate(-82.882 -249.577)" fill="#2a59ff"/>
        <path id="Path_72997" data-name="Path 72997" d="M106.293,292.583c.69,0-.459,6.2-1.034,6.435" transform="translate(-99.479 -249.577)" fill="none" stroke="#fff" stroke-miterlimit="10" stroke-width="1"/>
        <rect id="Rectangle_9230" data-name="Rectangle 9230" width="2.708" height="1.873" transform="translate(0 45.269)" fill="#f9d60c"/>
        <path id="Path_72998" data-name="Path 72998" d="M128.514,254.637v.1h-14.7c-3.374,0-2.575,5.73-5.214,6.036l-3.06,0-.288.016c.77-1.854,2.613-9.322,6.078-9.322h16.3C128.508,251.459,128.514,252.242,128.514,254.637Z" transform="translate(-99.478 -218.914)" fill="#ff3162"/>
        <path id="Path_72999" data-name="Path 72999" d="M114.359,173.993v8.964s-2.248-.053-4.365-.089c-.779-.01-1.539-.02-2.162-.025-.191,0-.37,0-.529,0a7.963,7.963,0,0,0-4.293,1.463,4.57,4.57,0,0,0-.6.489,4.114,4.114,0,0,1-2.3.413h-.049c-.684,0-1.558-.045-2.666-.076,2.391-4.459,5.308-9.253,6.4-11.138Z" transform="translate(-93.619 -161.155)" fill="#271e49"/>
        <path id="Path_73000" data-name="Path 73000" d="M144.938,173.993v1.125a3.568,3.568,0,0,1-.608.761c-1.4,1.232-3.5,1.459-3.34,4.538a7.617,7.617,0,0,1-.417,2.451c-.778-.012-1.538-.022-2.162-.026a7.422,7.422,0,0,0,.655-2.536c-.02-2.668,2.34-3.564,3.318-4.8a6.615,6.615,0,0,0,.741-1.515Z" transform="translate(-124.198 -161.155)" fill="#fff"/>
        <path id="Path_73001" data-name="Path 73001" d="M116.076,173.991a2.472,2.472,0,0,1-.344.382c-1.406,1.232-3.494,1.459-3.349,4.538a14.049,14.049,0,0,1-1.555,5.392,4.519,4.519,0,0,0-.6.49,4.122,4.122,0,0,1-2.3.412h-.047c1.21-2.151,2.58-4.918,2.572-6.4-.012-2.669,2.34-3.567,3.32-4.8l.007-.01Z" transform="translate(-101.439 -161.154)" fill="#fff"/>
        <line id="Line_131" data-name="Line 131" y2="8.94" transform="translate(19.706 12.838)" fill="none" stroke="#fff" stroke-miterlimit="10" stroke-width="1"/>
        <path id="Path_73002" data-name="Path 73002" d="M99.833,211.372v8.484a5.658,5.658,0,0,1,3.242-2.47c2.3-.689,13.1-.575,13.1-.575v-7.584" transform="translate(-95.434 -187.426)" fill="none" stroke="#fff" stroke-miterlimit="10" stroke-width="1"/>
        <rect id="Rectangle_9231" data-name="Rectangle 9231" width="1.175" height="0.363" transform="translate(18.109 22.796)" fill="#fff"/>
        <rect id="Rectangle_9232" data-name="Rectangle 9232" width="23.071" height="35.691" transform="translate(82.491 0)" fill="#271e49"/>
        <path id="Path_74307" data-name="Path 74307" d="M0,0H50.9V35.691H0Z" transform="translate(31.588 0)" fill="#6a66d1"/>
        <line id="Line_132" data-name="Line 132" y2="32.443" transform="translate(76.821 1.622)" fill="none" stroke="#fff" stroke-miterlimit="10" stroke-width="1"/>
        <line id="Line_133" data-name="Line 133" y2="32.443" transform="translate(72.425 1.622)" fill="none" stroke="#fff" stroke-miterlimit="10" stroke-width="1"/>
        <line id="Line_134" data-name="Line 134" y2="32.443" transform="translate(68.029 1.622)" fill="none" stroke="#fff" stroke-miterlimit="10" stroke-width="1"/>
        <line id="Line_135" data-name="Line 135" y2="32.443" transform="translate(63.633 1.622)" fill="none" stroke="#fff" stroke-miterlimit="10" stroke-width="1"/>
        <line id="Line_136" data-name="Line 136" y2="32.443" transform="translate(59.237 1.622)" fill="none" stroke="#fff" stroke-miterlimit="10" stroke-width="1"/>
        <line id="Line_137" data-name="Line 137" y2="32.443" transform="translate(54.841 1.622)" fill="none" stroke="#fff" stroke-miterlimit="10" stroke-width="1"/>
        <line id="Line_138" data-name="Line 138" y2="32.443" transform="translate(50.446 1.622)" fill="none" stroke="#fff" stroke-miterlimit="10" stroke-width="1"/>
        <line id="Line_139" data-name="Line 139" y2="32.443" transform="translate(46.049 1.622)" fill="none" stroke="#fff" stroke-miterlimit="10" stroke-width="1"/>
        <line id="Line_140" data-name="Line 140" y2="32.443" transform="translate(41.654 1.622)" fill="none" stroke="#fff" stroke-miterlimit="10" stroke-width="1"/>
        <line id="Line_141" data-name="Line 141" y2="32.443" transform="translate(37.258 1.622)" fill="none" stroke="#fff" stroke-miterlimit="10" stroke-width="1"/>
        <line id="Line_142" data-name="Line 142" y2="35.691" transform="translate(34.832 0)" fill="none" stroke="#fff" stroke-miterlimit="10" stroke-width="1"/>
        <line id="Line_143" data-name="Line 143" x1="44.415" transform="translate(34.832 1.622)" fill="none" stroke="#fff" stroke-miterlimit="10" stroke-width="1"/>
        <line id="Line_144" data-name="Line 144" x1="44.415" transform="translate(34.832 34.065)" fill="none" stroke="#fff" stroke-miterlimit="10" stroke-width="1"/>
        <line id="Line_145" data-name="Line 145" y2="35.691" transform="translate(79.247 0)" fill="none" stroke="#fff" stroke-miterlimit="10" stroke-width="1"/>
        <line id="Line_146" data-name="Line 146" x2="23.071" transform="translate(82.491 1.622)" fill="none" stroke="#fff" stroke-miterlimit="10" stroke-width="1"/>
        <line id="Line_147" data-name="Line 147" x2="23.071" transform="translate(82.491 34.065)" fill="none" stroke="#fff" stroke-miterlimit="10" stroke-width="1"/>
        <line id="Line_148" data-name="Line 148" y2="32.443" transform="translate(94.026 1.622)" fill="none" stroke="#fff" stroke-miterlimit="10" stroke-width="1"/>
        <path id="Path_73003" data-name="Path 73003" d="M248.739,251.46H202.671c-3.465,0-5.308,7.468-6.078,9.322l.288-.016,3.06,0c2.639-.3,1.84-6.036,5.214-6.036h14.7l11.711-.078v.078h14.7c3.374,0,2.575,5.73,5.214,6.036l3.06,0,.288.016C254.047,258.928,252.2,251.46,248.739,251.46Z" transform="translate(-167.579 -218.915)" fill="#d3d0f4"/>
      </g>
      <g id="Group_16415" data-name="Group 16415" transform="translate(-291.805 -7914.477)">
        <g id="Group_16413" data-name="Group 16413" transform="translate(11.785 0)">
          <rect id="Rectangle_9239" data-name="Rectangle 9239" width="7.076" height="9.545" transform="translate(0 9.97)" fill="#271e49"/>
          <line id="Line_153" data-name="Line 153" y1="9.545" x2="7.076" transform="translate(0 9.97)" fill="none" stroke="#fff" stroke-miterlimit="10" stroke-width="1"/>
          <line id="Line_154" data-name="Line 154" x2="7.076" y2="9.545" transform="translate(0 9.97)" fill="none" stroke="#fff" stroke-miterlimit="10" stroke-width="1"/>
          <rect id="Rectangle_9241" data-name="Rectangle 9241" width="10.76" height="10.533" transform="translate(0.812 8.472)" fill="#fdca32"/>
          <rect id="Rectangle_9242" data-name="Rectangle 9242" width="4.539" height="10.533" transform="translate(11.573 8.472)" fill="#d7a40b"/>
          <rect id="Rectangle_9243" data-name="Rectangle 9243" width="2.945" height="1.196" transform="translate(1.609 16.219)" fill="#fcf2d2"/>
          <rect id="Rectangle_9244" data-name="Rectangle 9244" width="2.652" height="4.511" transform="translate(4.554 8.472)" fill="#fcf2d2"/>
          <rect id="Rectangle_9245" data-name="Rectangle 9245" width="1.688" height="4.511" transform="translate(13.196 8.472)" fill="#a37c09"/>
          <rect id="Rectangle_9246" data-name="Rectangle 9246" width="3.376" height="0.335" transform="translate(10.507 16.687) rotate(180)" fill="#6b5800"/>
          <rect id="Rectangle_9247" data-name="Rectangle 9247" width="1.841" height="0.335" transform="translate(10.507 16.03) rotate(180)" fill="#6b5800"/>
          <rect id="Rectangle_9248" data-name="Rectangle 9248" width="3.376" height="0.335" transform="translate(10.507 17.374) rotate(180)" fill="#6b5800"/>
          <rect id="Rectangle_9257" data-name="Rectangle 9257" width="8.654" height="8.472" transform="translate(2.489)" fill="#edbd2f"/>
          <rect id="Rectangle_9258" data-name="Rectangle 9258" width="3.651" height="8.472" transform="translate(11.144)" fill="#c7980a"/>
          <path id="Path_73005" data-name="Path 73005" d="M200.438,700.125l-.6-.868-.6.714.174.022v.729l.851-.007V700.1Z" transform="translate(-191.337 -693.08)" fill="#c7980a"/>
          <path id="Path_73006" data-name="Path 73006" d="M207.662,700.125l-.6-.868-.6.714.174.022v.729l.851-.007V700.1Z" transform="translate(-197.268 -693.08)" fill="#c7980a"/>
          <path id="Path_73007" data-name="Path 73007" d="M182.3,672.3h-4.713a.388.388,0,0,1-.387-.387h0a.388.388,0,0,1,.387-.387H182.3a.388.388,0,0,1,.387.387h0A.388.388,0,0,1,182.3,672.3Z" transform="translate(-173.249 -670.315)" fill="#6b5800"/>
          <rect id="Rectangle_9259" data-name="Rectangle 9259" width="3.376" height="0.335" transform="translate(3.254 6.738)" fill="#8c7300"/>
          <rect id="Rectangle_9260" data-name="Rectangle 9260" width="1.841" height="0.335" transform="translate(3.254 6.08)" fill="#8c7300"/>
          <rect id="Rectangle_9261" data-name="Rectangle 9261" width="3.376" height="0.335" transform="translate(3.254 7.425)" fill="#8c7300"/>
        </g>
        <g id="Group_16412" data-name="Group 16412" transform="translate(0 13.714)">
          <path id="Path_74317" data-name="Path 74317" d="M758.379,375.366c1.7.771,5.735,2.433.421,2.271C755.59,377.538,758.379,375.366,758.379,375.366Z" transform="translate(-731.486 -345.835)" fill="#ffa33e"/>
          <path id="Path_74318" data-name="Path 74318" d="M756.489,369c.849.7.812.978.459,1.437-.219.284,1.862.883,2.424.505-.4-.654-1.378-1.922-1.317-2.63Z" transform="translate(-730.857 -340.047)" fill="#ffa33e"/>
          <path id="Path_74319" data-name="Path 74319" d="M756.872,365.541a.912.912,0,0,0-.353-1.279,1.007,1.007,0,0,0-1.338.345.911.911,0,0,0,.351,1.278A1.007,1.007,0,0,0,756.872,365.541Z" transform="translate(-729.675 -336.617)" fill="#ffa33e"/>
          <path id="Path_74320" data-name="Path 74320" d="M752.477,324.328a1.6,1.6,0,0,0-1.328-1.424c-.623-.024-1.037.573-.927,1.335a1.6,1.6,0,0,0,1.329,1.424C752.174,325.688,752.589,325.09,752.477,324.328Z" transform="translate(-725.698 -302.768)" fill="#ffa33e"/>
          <path id="Path_74321" data-name="Path 74321" d="M752.069,338.245c.251-3.082.492-4.453-.641-6.873l1.757.225s-1.146,3.88.55,5.9Z" transform="translate(-726.703 -309.72)" fill="#ffa33e"/>
          <path id="Path_74322" data-name="Path 74322" d="M743.133,287.079c-1.2,3.925-1.795,4.658-.548,7.451l-1.758-.211a5.9,5.9,0,0,0-2.318-6.287Z" transform="translate(-716.097 -273.359)" fill="#ffa33e"/>
          <path id="Path_74323" data-name="Path 74323" d="M656.457,375.815c1.406.793,4.8,2.5-.395,2.421C652.927,378.19,656.457,375.815,656.457,375.815Z" transform="translate(-647.35 -346.204)" fill="#ffa33e"/>
          <path id="Path_74324" data-name="Path 74324" d="M657.326,370.321c.451.709.3,1.012-.2,1.515-.312.312,1.258.872,1.912.447a6.008,6.008,0,0,1-.045-2.754Z" transform="translate(-649.251 -341.044)" fill="#ffa33e"/>
          <path id="Path_74325" data-name="Path 74325" d="M658.311,367.31c.439-.41.515-.95.169-1.2a1.331,1.331,0,0,0-1.492.309c-.439.41-.441.923-.1,1.178A1.211,1.211,0,0,0,658.311,367.31Z" transform="translate(-648.892 -338.132)" fill="#ffa33e"/>
          <path id="Path_74326" data-name="Path 74326" d="M656.767,338.453c1.509-3.245,1.9-4.7,1.757-7.2l1.977.038s-2.677,4.373-1.812,6.432Z" transform="translate(-648.994 -309.625)" fill="#ffa33e"/>
          <path id="Path_74327" data-name="Path 74327" d="M668.632,322.864c.24-.808-.065-1.454-.681-1.442a1.981,1.981,0,0,0-1.55,1.484c-.241.808.065,1.454.682,1.442A1.98,1.98,0,0,0,668.632,322.864Z" transform="translate(-656.835 -301.551)" fill="#ffa33e"/>
          <path id="Path_74328" data-name="Path 74328" d="M675.6,278.628c-.819,4.788-2.093,8.223-4.512,10.377l-.7-1.693c2.28-4.465.1-5.336.357-7.432Z" transform="translate(-660.175 -266.421)" fill="#ffa33e"/>
          <path id="Path_74329" data-name="Path 74329" d="M694.731,376.888c1.671.684,5.71,2.153.355,2.187C691.852,379.095,694.731,376.888,694.731,376.888Z" transform="translate(-679.19 -347.085)" fill="#ffbc50"/>
          <path id="Path_74330" data-name="Path 74330" d="M693.274,371.193c.768.652.7.931.3,1.395-.249.287,1.755.8,2.357.408-.325-.628-1.159-1.838-1.022-2.534Z" transform="translate(-678.963 -341.81)" fill="#ffbc50"/>
          <path id="Path_74331" data-name="Path 74331" d="M693.76,367.872a.823.823,0,0,0-.208-1.243,1.149,1.149,0,0,0-1.4.392.823.823,0,0,0,.241,1.239,1.1,1.1,0,0,0,1.369-.388Z" transform="translate(-677.889 -338.578)" fill="#ffbc50"/>
          <path id="Path_74332" data-name="Path 74332" d="M688.578,341.865c.378-2.988.261-4.325-.761-6.625l2,.032s-1.155,3.918.441,5.811Z" transform="translate(-674.483 -312.895)" fill="#ffbc50"/>
          <path id="Path_74333" data-name="Path 74333" d="M724.511,376.319c1.5.754,5.084,2.378-.163,2.221C721.179,378.446,724.511,376.319,724.511,376.319Z" transform="translate(-703.35 -346.618)" fill="#ffbc50"/>
          <path id="Path_74334" data-name="Path 74334" d="M725.379,370.126c.6.68.555.965.076,1.415-.3.279,1.426.854,2.08.483-.18-.641-.725-1.882-.45-2.575Z" transform="translate(-705.318 -340.979)" fill="#ffbc50"/>
          <path id="Path_74335" data-name="Path 74335" d="M725.7,366.752c.414-.439.44-1,.059-1.252a1.275,1.275,0,0,0-1.478.355c-.413.439-.4.982-.02,1.235A1.21,1.21,0,0,0,725.7,366.752Z" transform="translate(-704.161 -337.639)" fill="#ffbc50"/>
          <path id="Path_74336" data-name="Path 74336" d="M613.361,276.1c1.49,2.077,4.162,2.6,4.783,1C618.368,276.156,615.276,277.371,613.361,276.1Z" transform="translate(-613.361 -264.346)" fill="#ffbc50"/>
          <path id="Path_74337" data-name="Path 74337" d="M689.687,327.509a1.308,1.308,0,0,0-1.194-1.326,1.2,1.2,0,0,0-1.039,1.369,1.307,1.307,0,0,0,1.193,1.325A1.194,1.194,0,0,0,689.687,327.509Z" transform="translate(-674.183 -305.46)" fill="#ffbc50"/>
          <path id="Path_74338" data-name="Path 74338" d="M734.14,326.364c.133-.745-.255-1.37-.866-1.394a1.484,1.484,0,0,0-1.346,1.308c-.132.746.255,1.371.867,1.395A1.482,1.482,0,0,0,734.14,326.364Z" transform="translate(-710.674 -304.464)" fill="#ffbc50"/>
          <path id="Path_74339" data-name="Path 74339" d="M798.784,218.315a2.5,2.5,0,0,1,3.221-.128,6.108,6.108,0,0,1,.333-2.47s-4.454-1.591-5.161-1.09C796.749,214.931,798.784,218.315,798.784,218.315Z" transform="translate(-764.21 -213.802)" fill="#ffbc50"/>
          <path id="Path_74340" data-name="Path 74340" d="M676.869,247.678c-.359,3.111-2.073,5.893-3.562,5.88-2.3-.018-3.88-3.742-3.826-5.461C669.627,243.538,674.867,237.918,676.869,247.678Z" transform="translate(-659.43 -236.595)" fill="#ffbc50"/>
          <path id="Path_74341" data-name="Path 74341" d="M682.051,286.766c.858,4.407.784,7.57-.894,9.556l-1.3-1.556c.725-4.113-1.776-4.91-2.254-6.841Z" transform="translate(-666.098 -273.102)" fill="#ffbc50"/>
          <g id="Group_16409" data-name="Group 16409" transform="translate(11.566 13.664)">
            <path id="Path_74342" data-name="Path 74342" d="M677.943,294.321a6.091,6.091,0,0,0,1,1.658A12.285,12.285,0,0,1,677.943,294.321Z" transform="translate(-677.943 -292.968)" fill="#ffa33e"/>
            <path id="Path_74343" data-name="Path 74343" d="M695.144,303.247a4.355,4.355,0,0,1-.414-1.016.8.8,0,0,0-.287-1.061c-1.065-1.417-.754-3.811-.514-4.99l.009-.01a1.334,1.334,0,0,0,.094-.123c1.466-2,1.5-5.069.682-9.279l-.046.012c.573,4.155.366,7.167-1.179,9.061a1.172,1.172,0,0,1-.1.118l-.008.01a10,10,0,0,0-.343,3.01c0,.028,0,.055,0,.083a3.959,3.959,0,0,0,.6,1.916.8.8,0,0,1,.232,1.075,4.4,4.4,0,0,0,.362,1.036c1.764.831,3.992,2.025-.581,1.819-.086,0-.161-.012-.237-.018a2.658,2.658,0,0,0,1.246.2C699.235,305.064,696.948,303.987,695.144,303.247Z" transform="translate(-690.326 -286.767)" fill="#ffa33e"/>
          </g>
          <path id="Path_74344" data-name="Path 74344" d="M724.169,340c1.231-3.019,1.908-4.362,1.552-6.731l1.674.219s-2.375,3.8-1.333,5.779Z" transform="translate(-704.325 -311.279)" fill="#ffbc50"/>
          <path id="Path_74345" data-name="Path 74345" d="M737.248,289.924c-2.446,3.845-3.2,4.555-2.846,7.289l-1.68-.206s2.27-3.382-.3-6.156Z" transform="translate(-711.099 -275.694)" fill="#ffbc50"/>
          <path id="Path_74346" data-name="Path 74346" d="M685.645,257.1c2.411,1.372,6.444,3.138,9.843,1.158l1.26-7.468-3.618-2.129-4.466,1.22Z" transform="translate(-672.7 -241.82)" fill="#ffbc50"/>
          <path id="Path_74347" data-name="Path 74347" d="M736.39,221.366c5.692-1.951,3.827,7.307,7.2,6.635s-.2-5.67,1.308-8.163c.729-1.2,3,1.913,3.423,2.655.8,1.386-2.48,16-9.922,8.067Z" transform="translate(-714.358 -217.934)" fill="#ffbc50"/>
          <g id="Group_16410" data-name="Group 16410" transform="translate(23.936 3.879)">
            <path id="Path_74348" data-name="Path 74348" d="M757.046,232.806c-.086-.149-.246-.392-.452-.679.446,2.24-2.72,14.931-9.575,8.268l.1.478C754.565,248.8,757.843,234.191,757.046,232.806Z" transform="translate(-747.019 -232.127)" fill="#f4a240"/>
          </g>
          <path id="Path_74349" data-name="Path 74349" d="M815.777,222.166c1.411-2.827-3.347-3.141-3.136-1.54C812.527,222.632,815.22,223.281,815.777,222.166Z" transform="translate(-776.948 -218.015)" fill="#ffbc50"/>
          <path id="Path_74350" data-name="Path 74350" d="M790.149,216.1c.232-.88.655-2.1-.4-2.662-2.789-1.568-5.064-.443-4.293,1.714C785.893,217.963,789.7,217.808,790.149,216.1Z" transform="translate(-754.512 -212.301)" fill="#ffbc50"/>
          <path id="Path_74351" data-name="Path 74351" d="M718.067,240.719c-1.179-1.93-1.549-4.158-.194-4.985s3.408.066,4.587,2,1.035,4.164-.32,4.991S719.246,242.647,718.067,240.719Z" transform="translate(-698.447 -230.955)" fill="#ffbc50"/>
          <path id="Path_74352" data-name="Path 74352" d="M736.109,272.423c.616-1.664.092-3.041-1.284-3.55a3.271,3.271,0,0,0-2.231,6.026C733.97,275.407,735.493,274.087,736.109,272.423Z" transform="translate(-709.916 -258.299)" fill="#ffbc50"/>
          <path id="Path_74353" data-name="Path 74353" d="M817.562,217.684l-2.7-.211,1.028.709,1.7.409Z" transform="translate(-778.777 -216.218)" fill="#ffbc50"/>
          <path id="Path_74354" data-name="Path 74354" d="M825.141,219.554l-1.081-.218.064-.27.989-.419Z" transform="translate(-786.328 -217.182)" fill="#dd9833"/>
          <path id="Path_74355" data-name="Path 74355" d="M827.756,230.152c.006-.152-.266-.286-.608-.3s-.622.1-.627.255.265.285.608.3S827.75,230.3,827.756,230.152Z" transform="translate(-788.347 -226.382)" fill="#ffbc50"/>
          <path id="Path_74356" data-name="Path 74356" d="M829.723,225.481c-.037-.151-.319-.212-.631-.136s-.535.261-.5.412.319.212.631.136S829.76,225.632,829.723,225.481Z" transform="translate(-790.046 -222.654)" fill="#ffbc50"/>
          <path id="Path_74357" data-name="Path 74357" d="M824.612,226.53a1.491,1.491,0,0,1-1.71-.388s.237,1,1.612.708Z" transform="translate(-785.377 -223.335)" fill="#aa5e2b"/>
          <path id="Path_74358" data-name="Path 74358" d="M782.406,211.47c-.563-.484-.362-1.025-.66-1-.268.021-.769,1.174-.619,1.8.262,1.083,1.568,2.4,2.078,1.634C783.793,213.4,783.089,212.287,782.406,211.47Z" transform="translate(-751.06 -210.466)" fill="#ffbc50"/>
          <g id="Group_16411" data-name="Group 16411" transform="translate(4.35 7.386)">
            <path id="Path_74359" data-name="Path 74359" d="M637.654,256.86l.011.213a9.136,9.136,0,0,0,7.34-5.276l-.171-.084A8.925,8.925,0,0,1,637.654,256.86Z" transform="translate(-637.654 -251.712)" fill="#ffbc50"/>
          </g>
          <path id="Path_74360" data-name="Path 74360" d="M798.737,222.584l-.073.009c.067,1.054-.774.746-1.259.159l-.059.008C797.8,223.52,798.975,224.07,798.737,222.584Z" transform="translate(-764.398 -220.414)" fill="#7f6032"/>
          <path id="Path_74361" data-name="Path 74361" d="M685.911,216.768c-1.416.846-1.213,3.45-3.866,3.808-1.69.227-1.341-3.248-3.275-2.7-3.174,1.336-6.444,9.324-1.032,9.789,3.068.263,4.467-1.262,4.757-3.136.458,1.415,1.607,2.15,3.738,2.19C693.47,226.854,689.929,215.78,685.911,216.768Z" transform="translate(-663.836 -215.588)" fill="#ffbc50"/>
          <path id="Path_74362" data-name="Path 74362" d="M695.651,232.981l-.26-.274-2.672,4,.946.236Z" transform="translate(-678.508 -228.724)" fill="#c15934"/>
          <path id="Path_74363" data-name="Path 74363" d="M724.521,232.644l-.226.259,1.507,4.3.749-.625Z" transform="translate(-704.429 -228.672)" fill="#c15934"/>
          <path id="Path_74364" data-name="Path 74364" d="M707.209,382.659c-.593.015.623.792.558.885l.656-.077S707.495,382.652,707.209,382.659Z" transform="translate(-690.269 -351.822)" fill="#ea8b2d"/>
          <path id="Path_74365" data-name="Path 74365" d="M783.573,216.29c-.4-.947-.284-1.846,0-1.756s.356.68.627.885S783.573,216.29,783.573,216.29Z" transform="translate(-752.879 -213.801)" fill="#f4a240"/>
          <path id="Path_74366" data-name="Path 74366" d="M697.387,250.055l-11.765,1.61,1.023,6.282,10.478-.455Z" transform="translate(-672.681 -242.965)" fill="#ea8d32"/>
          <path id="Path_74367" data-name="Path 74367" d="M692.765,246.163,681,247.773l1.024,6.282L692.5,253.6Z" transform="translate(-668.887 -239.77)" fill="#689bad"/>
          <path id="Path_74368" data-name="Path 74368" d="M689.736,254.167l-8.739.176,1.024,6.282,5.39-2.953Z" transform="translate(-668.885 -246.341)" fill="#81bccc"/>
          <path id="Path_74369" data-name="Path 74369" d="M694.949,251.718l.573-5.966,1.177-.289-.224,7.562L686,253.479l-.156-.823Z" transform="translate(-672.863 -239.195)" fill="#4e8593"/>
          <path id="Path_74370" data-name="Path 74370" d="M710.928,266.942l-6.6.394,6.664-.891Z" transform="translate(-688.04 -256.42)" fill="#4e8593"/>
          <path id="Path_74371" data-name="Path 74371" d="M709.008,255.682l-6.6.393,6.664-.891Z" transform="translate(-686.464 -247.176)" fill="#4e8593"/>
          <rect id="Rectangle_9300" data-name="Rectangle 9300" width="0.687" height="3.282" transform="translate(14.065 7.647) rotate(-7.409)" fill="#4e8593"/>
          <rect id="Rectangle_9301" data-name="Rectangle 9301" width="0.687" height="3.282" transform="translate(13.716 7.348) rotate(-7.39)" fill="#96ccc2"/>
          <rect id="Rectangle_9302" data-name="Rectangle 9302" width="0.687" height="3.281" transform="matrix(0.999, -0.036, 0.036, 0.999, 19.836, 6.899)" fill="#4e8593"/>
          <rect id="Rectangle_9303" data-name="Rectangle 9303" width="0.686" height="3.281" transform="translate(19.516 6.569) rotate(-2.073)" fill="#96ccc2"/>
          <path id="Path_74372" data-name="Path 74372" d="M688.5,281.235a.192.192,0,1,0-.186.213A.2.2,0,0,0,688.5,281.235Z" transform="translate(-674.732 -268.419)" fill="#cace78"/>
          <path id="Path_74373" data-name="Path 74373" d="M696.586,280.334a.191.191,0,1,0-.186.214A.2.2,0,0,0,696.586,280.334Z" transform="translate(-681.369 -267.679)" fill="#cace78"/>
          <path id="Path_74374" data-name="Path 74374" d="M705.522,279.523a.192.192,0,1,0-.186.213.2.2,0,0,0,.186-.213Z" transform="translate(-688.704 -267.013)" fill="#cace78"/>
          <path id="Path_74375" data-name="Path 74375" d="M715.313,278.7a.191.191,0,1,0-.186.213A.2.2,0,0,0,715.313,278.7Z" transform="translate(-696.742 -266.336)" fill="#cace78"/>
          <path id="Path_74376" data-name="Path 74376" d="M723.606,277.684a.192.192,0,1,0-.186.213A.2.2,0,0,0,723.606,277.684Z" transform="translate(-703.55 -265.504)" fill="#cace78"/>
          <path id="Path_74377" data-name="Path 74377" d="M732.117,276.879a.192.192,0,1,0-.187.214A.2.2,0,0,0,732.117,276.879Z" transform="translate(-710.536 -264.843)" fill="#cace78"/>
          <path id="Path_74378" data-name="Path 74378" d="M723.879,262.119a.191.191,0,1,0-.186.213A.2.2,0,0,0,723.879,262.119Z" transform="translate(-703.774 -252.727)" fill="#4e8593"/>
          <path id="Path_74379" data-name="Path 74379" d="M693.114,266.119a.191.191,0,1,0-.186.213A.2.2,0,0,0,693.114,266.119Z" transform="translate(-678.518 -256.01)" fill="#4e8593"/>
          <path id="Path_74380" data-name="Path 74380" d="M800.266,247.674a4.048,4.048,0,0,1,.2,2.643s-.181-1.473-.49-1.67Z" transform="translate(-766.559 -241.011)" fill="#f4a240"/>
          <path id="Path_74381" data-name="Path 74381" d="M798.908,254.456a4.052,4.052,0,0,1-.474,2.607s.2-1.47-.05-1.739Z" transform="translate(-765.25 -246.578)" fill="#f4a240"/>
          <path id="Path_74382" data-name="Path 74382" d="M801.4,243.526a4.062,4.062,0,0,1,.672,2.564s-.441-1.417-.78-1.556Z" transform="translate(-767.634 -237.606)" fill="#f4a240"/>
          <path id="Path_74383" data-name="Path 74383" d="M794.992,263.26a4.06,4.06,0,0,1-.732,2.548s.345-1.444.125-1.736Z" transform="translate(-761.864 -253.806)" fill="#f4a240"/>
          <path id="Path_74384" data-name="Path 74384" d="M728.841,316.441a4.087,4.087,0,0,1-.214-1.164.788.788,0,0,0,.042-.918l.005,0c-.723-1.372.2-3.621.832-4.87a1.649,1.649,0,0,0,.9-1.22,1.317,1.317,0,0,0-.23-1.065c-.1-1.611.316-2.529,1.417-4.277l-.182,0c-1.2,1.756-1.659,2.66-1.615,4.3a1.316,1.316,0,0,1,.194,1.073,1.651,1.651,0,0,1-.941,1.187,12.48,12.48,0,0,0-.9,2.01c-.038.136-.08.276-.125.416a3.526,3.526,0,0,0,.024,2.411l-.005,0a.79.79,0,0,1-.073.916,4.092,4.092,0,0,0,.173,1.17c1.551.856,3.455,2.072-.789,1.826a4.359,4.359,0,0,0,.585.053C732.427,318.425,730.444,317.255,728.841,316.441Z" transform="translate(-706.937 -286.368)" fill="#ffa33e"/>
          <path id="Path_74385" data-name="Path 74385" d="M737.059,382.942c-.594.015.623.792.557.885l.655-.077S737.344,382.934,737.059,382.942Z" transform="translate(-714.773 -352.054)" fill="#ea8b2d"/>
          <path id="Path_74386" data-name="Path 74386" d="M731.663,219.578c.558-.912.662-1.866.232-2.129s-1.233.263-1.791,1.176-.662,1.866-.231,2.13S731.105,220.491,731.663,219.578Z" transform="translate(-708.789 -216.143)" fill="#ffd766" opacity="0.6"/>
          <path id="Path_74387" data-name="Path 74387" d="M687.24,229.931c.782-.73,1.137-1.621.792-1.99s-1.257-.076-2.04.654-1.137,1.622-.792,1.991S686.457,230.661,687.24,229.931Z" transform="translate(-672.226 -224.68)" fill="#ffd766" opacity="0.6"/>
        </g>
      </g>
      <g id="Group_19791" data-name="Group 19791" transform="translate(-2 -3)">
        <text id="___" data-name="   " transform="translate(-444 -8046)" fill="#e4e4e4" font-size="12" font-family="Helvetica-Bold, Helvetica" font-weight="700"><tspan x="0" y="13"> </tspan><tspan y="13"> </tspan><tspan y="13"> </tspan><tspan y="13" font-family="SegoeUI-Bold, Segoe UI">   </tspan></text>
        <text id="_" data-name=" " transform="translate(-444 -8023)" fill="#e4e4e4" font-size="12" font-family="Helvetica-Bold, Helvetica" font-weight="700"><tspan x="0" y="13"> </tspan><tspan y="13" font-family="SegoeUI-Bold, Segoe UI"> </tspan></text>
      </g>
    </g>
  </g>
</svg>
