<svg xmlns="http://www.w3.org/2000/svg" width="26.19" height="26.194" viewBox="0 0 26.19 26.194">
  <g id="Group_18558" data-name="Group 18558" transform="translate(-273 -887.806)">
    <g id="Group_18318" data-name="Group 18318" transform="translate(154.952 646.134)">
      <path id="Path_75128" data-name="Path 75128" d="M120.667,306.849l1.157-.723c.516-.322,1.032-.642,1.546-.967a.467.467,0,0,1,.79.428c-.006.406,0,.811,0,1.261l1.019-.635c.562-.351,1.125-.7,1.684-1.055a.467.467,0,0,1,.791.428q0,3.37,0,6.739c0,.395-.151.548-.54.55-.408,0-.816,0-1.225,0a3.167,3.167,0,0,1-.921,2.654c.053.1.159.068.239.094a2.325,2.325,0,0,1,1.564,2.214c.026,1.682.011,3.365.008,5.047a.43.43,0,0,1-.483.467q-3.437,0-6.875,0c-.335,0-.5-.168-.5-.51,0-1.737-.008-3.474,0-5.211a2.157,2.157,0,0,1,1.66-2.074c.039-.011.08-.015.156-.029a3.12,3.12,0,0,1-.919-2.651c-.415,0-.822,0-1.23,0-.39,0-.543-.154-.543-.546q0-5.129,0-10.258c0-.391.153-.543.543-.545q.75,0,1.5,0c.429,0,.574.144.575.569q0,2.224,0,4.447Zm2.619-.6c-.111.066-.187.11-.261.157q-1.212.756-2.423,1.514c-.183.115-.361.219-.58.095s-.23-.325-.229-.543q0-2.223,0-4.446c0-.631,0-.621-.627-.633-.206,0-.252.05-.25.252.009,1.628.005,3.255.005,4.883,0,1.418,0,2.837,0,4.255,0,.177.042.236.222.223a5.649,5.649,0,0,1,.709,0,.333.333,0,0,0,.357-.2,3,3,0,0,1,5-.39,1.239,1.239,0,0,0,1.306.589.085.085,0,0,1,.027,0c.2.04.252-.044.251-.247-.009-1.737-.005-3.473-.005-5.21v-.3l-.283.175c-.823.514-1.645,1.031-2.471,1.541-.4.245-.732.057-.737-.407C123.282,307.137,123.286,306.719,123.286,306.25Zm-.444,16.23q1.432,0,2.863,0c.111,0,.2.02.2-.156-.008-1.491.014-2.982-.016-4.472a1.381,1.381,0,0,0-1.486-1.455c-.136,0-.274.006-.409-.008-.16-.016-.2.031-.178.2.1.61.185,1.221.261,1.833a1.526,1.526,0,0,1,.014.831c-.277.66-.54,1.325-.8,1.991-.084.213-.206.368-.451.365a.461.461,0,0,1-.432-.353c-.266-.674-.537-1.346-.809-2.018a.785.785,0,0,1-.045-.426c.087-.565.175-1.131.247-1.7.031-.239.188-.564.053-.693s-.464-.047-.709-.045a1.3,1.3,0,0,0-1.353,1.358c0,1.509,0,3.018-.006,4.527,0,.2.064.231.244.229C120.97,322.475,121.906,322.48,122.842,322.48Zm-2.112-8.729a2.156,2.156,0,0,0,2.006,1.741,2.19,2.19,0,0,0,2.212-1.586c.027-.106.048-.164-.1-.162a2.986,2.986,0,0,1-1.9-.632.132.132,0,0,0-.19-.006A3.087,3.087,0,0,1,120.73,313.751Zm2.136-2.621a2.207,2.207,0,0,0-2.1,1.527c-.063.2,0,.229.173.221a2.223,2.223,0,0,0,1.472-.618c.358-.338.52-.339.872,0a2.231,2.231,0,0,0,1.5.624c.191.008.2-.051.151-.217A2.2,2.2,0,0,0,122.866,311.13Zm-.017,8.862c.1-.244.158-.434.25-.607a1.441,1.441,0,0,0,.1-.972c-.1-.573-.165-1.151-.248-1.726a.479.479,0,0,0-.105-.326.53.53,0,0,0-.108.343c-.085.584-.174,1.168-.248,1.753a1.105,1.105,0,0,0-.026.588C122.587,319.339,122.7,319.633,122.849,319.992Z" transform="translate(0 -55.488)" fill="#020202"/>
      <path id="Path_75129" data-name="Path 75129" d="M289.3,302.194c-.12-.107-.233-.225-.363-.32-.188-.137-.135-.235.008-.374.438-.423.432-.428.854-.007.276.277.556.55.829.83a.448.448,0,0,1,.006.732c-.369.377-.749.743-1.115,1.122-.107.111-.173.12-.276,0-.142-.165-.4-.3-.425-.474s.267-.309.407-.473l.054-.064c-.067-.073-.154-.035-.227-.035-1.073,0-2.146-.006-3.219,0-.187,0-.261-.02-.26-.242q.012-7.243.007-14.486c0-.408.149-.554.561-.555h3.2c-.181-.175-.311-.309-.45-.432-.1-.088-.117-.146-.011-.257.485-.51.48-.514.97-.024.263.264.53.525.79.792a.441.441,0,0,1,0,.712c-.375.384-.76.757-1.134,1.142-.1.1-.161.107-.256,0-.144-.163-.4-.3-.43-.473s.26-.309.394-.473c.02-.025.043-.049.1-.11-.941,0-1.837,0-2.732,0-.175,0-.128.113-.128.2q0,1.459,0,2.919c0,.918.005,1.837,0,2.755,0,.182.03.247.231.244.861-.013,1.723-.005,2.663-.005-.186-.179-.321-.318-.465-.446-.1-.086-.091-.141,0-.238.484-.521.481-.524.989-.016.257.257.517.512.771.772a.448.448,0,0,1,0,.732c-.37.376-.747.744-1.116,1.121-.091.093-.153.13-.256.01-.147-.172-.415-.314-.441-.5s.271-.309.414-.472c.016-.019.03-.04.049-.064-.076-.061-.159-.029-.235-.03-.8,0-1.6,0-2.4,0-.118,0-.2,0-.2.165q.01,3.11,0,6.22c0,.131.036.168.167.167.881-.006,1.762,0,2.643,0Z" transform="translate(-155.302 -41.813)" fill="#020202"/>
      <path id="Path_75130" data-name="Path 75130" d="M373.387,241.672a3.929,3.929,0,1,1-3.936,3.928A3.936,3.936,0,0,1,373.387,241.672Zm2.168,6.04a3.042,3.042,0,1,0-4.584-3.986,2.953,2.953,0,0,0,.218,3.938c.032-.771.136-1.071.537-1.35.18-.125.188-.2.089-.4a1.714,1.714,0,0,1,.448-2.095,1.738,1.738,0,0,1,2.167-.051,1.694,1.694,0,0,1,.542,2.069c-.117.247-.109.357.122.526A1.384,1.384,0,0,1,375.555,247.712Zm-2.172-.8c-.282,0-.564-.005-.845,0a.431.431,0,0,0-.466.456c-.008.281.007.564-.006.845-.006.129.056.175.156.214a3.041,3.041,0,0,0,2.309,0,.212.212,0,0,0,.162-.237c-.012-.263,0-.527,0-.79a.442.442,0,0,0-.487-.491C373.929,246.907,373.656,246.911,373.383,246.911Zm-.876-1.761a.873.873,0,1,0,.872-.859A.879.879,0,0,0,372.507,245.15Z" transform="translate(-233.07)" fill="#030303"/>
      <path id="Path_75131" data-name="Path 75131" d="M369.451,365.318a3.929,3.929,0,1,1,3.926,3.938A3.935,3.935,0,0,1,369.451,365.318Zm1.733,2.122a1.237,1.237,0,0,0,.012-.142,1.355,1.355,0,0,1,.649-1.345c.108-.066.067-.121.024-.2a1.682,1.682,0,0,1-.233-.774,1.745,1.745,0,0,1,3.025-1.276,1.713,1.713,0,0,1,.254,2c-.067.13-.094.194.062.295a1.253,1.253,0,0,1,.585,1.1c0,.1,0,.2,0,.346a3.049,3.049,0,1,0-4.377-.009Zm3.5.082c0-.118,0-.236,0-.354,0-.373-.158-.528-.531-.53-.536,0-1.072,0-1.608,0a.435.435,0,0,0-.478.472c-.006.272.009.546-.006.818-.007.141.062.188.171.231a2.984,2.984,0,0,0,1.842.139C374.689,368.146,374.689,368.146,374.689,367.522Zm-1.31-1.759a.873.873,0,1,0-.872-.887A.88.88,0,0,0,373.379,365.763Z" transform="translate(-233.07 -110.995)" fill="#030303"/>
      <path id="Path_75132" data-name="Path 75132" d="M373.385,481.123a3.929,3.929,0,1,1-3.934,3.93A3.936,3.936,0,0,1,373.385,481.123Zm2.183,6.044a3.048,3.048,0,1,0-4.464-4.149,2.991,2.991,0,0,0,.072,4.1c.005-.006.015-.012.015-.018a1.432,1.432,0,0,1,.676-1.443c.106-.062.033-.121,0-.179a1.744,1.744,0,0,1,2.775-2.071,1.714,1.714,0,0,1,.285,1.992c-.079.151-.106.229.072.334a1.171,1.171,0,0,1,.479.61A2.5,2.5,0,0,1,375.568,487.167Zm-2.19-.805c-.282,0-.564-.006-.845,0a.431.431,0,0,0-.461.461c-.007.263.008.528-.006.79a.239.239,0,0,0,.185.276,3.005,3.005,0,0,0,2.026.076c.411-.13.411-.13.411-.546,0-.2.005-.4,0-.6a.433.433,0,0,0-.464-.458C373.942,486.356,373.66,486.362,373.378,486.362Zm.874-1.74a.872.872,0,1,0-.893.866A.88.88,0,0,0,374.252,484.622Z" transform="translate(-233.07 -221.99)" fill="#030303"/>
      <path id="Path_75133" data-name="Path 75133" d="M271.17,554.685c0,.409,0,.817,0,1.226,0,.357-.161.519-.513.52q-1.239,0-2.479,0a.443.443,0,0,1-.5-.505q0-1.239,0-2.479a.443.443,0,0,1,.5-.506q1.253-.005,2.506,0a.438.438,0,0,1,.486.491C271.174,553.849,271.17,554.267,271.17,554.685Zm-1.721.874c.227,0,.455-.007.682,0,.128.005.172-.03.169-.164-.008-.473-.007-.945,0-1.418,0-.128-.03-.172-.165-.169-.472.008-.945.007-1.418,0-.128,0-.172.03-.169.165.008.473.007.945,0,1.418,0,.128.03.175.165.169C268.958,555.551,269.2,555.559,269.449,555.559Z" transform="translate(-138.717 -288.568)" fill="#010101"/>
      <path id="Path_75134" data-name="Path 75134" d="M133.623,260.452c-.454,0-.908,0-1.362,0a1.291,1.291,0,0,0-1.327,1.122c-.027.178-.093.2-.236.189a2.608,2.608,0,0,0-.463,0c-.192.023-.2-.07-.187-.22a2.182,2.182,0,0,1,2.066-1.959c1-.023,2,0,3-.01.123,0,.168.024.173.161.03.715.035.715-.68.715Z" transform="translate(-11.12 -16.597)" fill="#020202"/>
      <path id="Path_75135" data-name="Path 75135" d="M214.34,260.481h-.218c-.722,0-.719,0-.658-.737.009-.1.035-.139.14-.138q.736.007,1.472,0c.107,0,.152.033.137.139a.149.149,0,0,0,0,.027c.034.709.034.709-.682.709Z" transform="translate(-88.435 -16.626)"/>
      <path id="Path_75136" data-name="Path 75136" d="M286.435,523.547c0,.632,0,.623-.625.635-.2,0-.268-.04-.253-.249.021-.3.011-.6,0-.9,0-.128.031-.165.164-.17C286.435,522.836,286.435,522.831,286.435,523.547Z" transform="translate(-155.292 -260.678)"/>
      <path id="Path_75137" data-name="Path 75137" d="M134.324,317.286c0,.469,0,.888,0,1.306.005.464.339.652.737.407.826-.509,1.648-1.027,2.471-1.541l.283-.175v.3c0,1.737,0,3.473.005,5.21,0,.2-.046.287-.251.247a.084.084,0,0,0-.027,0,1.239,1.239,0,0,1-1.306-.589,3,3,0,0,0-5,.39.333.333,0,0,1-.357.2,5.643,5.643,0,0,0-.709,0c-.181.013-.223-.047-.222-.223.007-1.418,0-2.837,0-4.255,0-1.628,0-3.255-.005-4.882,0-.2.045-.256.25-.252.627.013.627,0,.627.634q0,2.223,0,4.446c0,.218.013.421.229.543s.4.02.58-.095q1.209-.761,2.423-1.514C134.137,317.4,134.213,317.353,134.324,317.286Z" transform="translate(-11.038 -66.525)" fill="#fdfdfd"/>
      <path id="Path_75138" data-name="Path 75138" d="M144.977,510.872c-.936,0-1.873,0-2.809,0-.18,0-.246-.028-.244-.229.01-1.509,0-3.018.006-4.527a1.3,1.3,0,0,1,1.353-1.358c.244,0,.577-.08.709.045s-.022.455-.053.693c-.073.567-.161,1.133-.247,1.7a.785.785,0,0,0,.045.426c.271.672.543,1.344.809,2.018a.461.461,0,0,0,.432.353c.245,0,.368-.152.451-.365.262-.666.525-1.331.8-1.991a1.526,1.526,0,0,0-.014-.831c-.075-.613-.165-1.224-.261-1.833-.026-.165.018-.212.178-.2.135.014.272,0,.409.008a1.381,1.381,0,0,1,1.486,1.455c.03,1.49.007,2.982.016,4.472,0,.176-.092.157-.2.156Q146.409,510.87,144.977,510.872Z" transform="translate(-22.135 -243.88)" fill="#fdfdfd"/>
      <path id="Path_75139" data-name="Path 75139" d="M154.828,460.51a3.087,3.087,0,0,0,2.028-.645.132.132,0,0,1,.19.006,2.986,2.986,0,0,0,1.9.632c.151,0,.13.056.1.162a2.189,2.189,0,0,1-2.212,1.586A2.156,2.156,0,0,1,154.828,460.51Z" transform="translate(-34.098 -202.248)" fill="#fbfbfb"/>
      <path id="Path_75140" data-name="Path 75140" d="M157.119,433.236a2.2,2.2,0,0,1,2.067,1.532c.051.166.04.224-.151.217a2.231,2.231,0,0,1-1.5-.624c-.352-.335-.514-.334-.872,0a2.222,2.222,0,0,1-1.472.618c-.177.008-.236-.021-.173-.221A2.207,2.207,0,0,1,157.119,433.236Z" transform="translate(-34.253 -177.594)" fill="#fafafa"/>
      <path id="Path_75141" data-name="Path 75141" d="M178.6,508.607c-.144-.359-.261-.653-.381-.946a1.106,1.106,0,0,1,.026-.588c.075-.586.163-1.169.248-1.753a.53.53,0,0,1,.108-.343.479.479,0,0,1,.105.326c.083.575.149,1.153.248,1.726a1.44,1.44,0,0,1-.1.972C178.758,508.173,178.7,508.363,178.6,508.607Z" transform="translate(-55.75 -244.104)" fill="#f6f6f6"/>
      <path id="Path_75142" data-name="Path 75142" d="M386.682,258.838a1.384,1.384,0,0,0-.461-1.344c-.231-.169-.239-.279-.122-.526a1.694,1.694,0,0,0-.542-2.069,1.738,1.738,0,0,0-2.167.051,1.714,1.714,0,0,0-.448,2.095c.1.192.091.271-.089.4-.4.279-.505.579-.537,1.35a2.953,2.953,0,0,1-.218-3.938,3.042,3.042,0,1,1,4.584,3.986Z" transform="translate(-244.197 -11.126)" fill="#fbfbfb"/>
      <path id="Path_75143" data-name="Path 75143" d="M406.628,313.49c.273,0,.545,0,.818,0a.442.442,0,0,1,.487.491c0,.263-.007.527,0,.79a.212.212,0,0,1-.162.237,3.041,3.041,0,0,1-2.309,0c-.1-.04-.161-.086-.156-.214.013-.281,0-.563.006-.845a.431.431,0,0,1,.466-.456C406.065,313.484,406.346,313.49,406.628,313.49Z" transform="translate(-266.315 -66.579)" fill="#fcfcfc"/>
      <path id="Path_75144" data-name="Path 75144" d="M411.359,278.455a.873.873,0,1,1,.872.887A.876.876,0,0,1,411.359,278.455Z" transform="translate(-271.922 -33.304)" fill="#f9f9f9"/>
      <path id="Path_75145" data-name="Path 75145" d="M382.356,378.558a3.05,3.05,0,1,1,4.378.009c0-.143,0-.245,0-.346a1.253,1.253,0,0,0-.585-1.105c-.156-.1-.129-.165-.062-.295a1.713,1.713,0,0,0-.254-2,1.745,1.745,0,0,0-3.025,1.276,1.682,1.682,0,0,0,.233.774c.043.075.085.13-.024.2a1.355,1.355,0,0,0-.649,1.345A1.246,1.246,0,0,1,382.356,378.558Z" transform="translate(-244.242 -122.114)" fill="#fbfbfb"/>
      <path id="Path_75146" data-name="Path 75146" d="M407.928,434.1c0,.624,0,.625-.61.776a2.984,2.984,0,0,1-1.842-.139c-.109-.042-.178-.09-.171-.231.014-.272,0-.545.006-.818a.435.435,0,0,1,.478-.472c.536-.006,1.072,0,1.608,0,.373,0,.526.157.531.53C407.929,433.862,407.928,433.98,407.928,434.1Z" transform="translate(-266.309 -177.572)" fill="#fcfcfc"/>
      <path id="Path_75147" data-name="Path 75147" d="M412.231,399.066a.873.873,0,1,1,.873-.859A.879.879,0,0,1,412.231,399.066Z" transform="translate(-271.922 -144.299)" fill="#f9f9f9"/>
      <path id="Path_75148" data-name="Path 75148" d="M386.692,498.287a2.5,2.5,0,0,0-.089-.82,1.171,1.171,0,0,0-.479-.61c-.179-.1-.151-.183-.072-.334a1.714,1.714,0,0,0-.285-1.992,1.743,1.743,0,0,0-2.775,2.071c.033.057.1.116,0,.179a1.432,1.432,0,0,0-.676,1.443c0,.006-.01.012-.015.018a2.991,2.991,0,0,1-.072-4.1,3.048,3.048,0,1,1,4.464,4.149Z" transform="translate(-244.194 -233.11)" fill="#fbfbfb"/>
      <path id="Path_75149" data-name="Path 75149" d="M406.617,552.94c.282,0,.564-.006.845,0a.433.433,0,0,1,.464.458c.007.2,0,.4,0,.6,0,.415,0,.416-.411.546a3.005,3.005,0,0,1-2.026-.076.24.24,0,0,1-.185-.276c.014-.263,0-.527.006-.79a.431.431,0,0,1,.461-.461C406.054,552.934,406.336,552.94,406.617,552.94Z" transform="translate(-266.309 -288.567)" fill="#fcfcfc"/>
      <path id="Path_75150" data-name="Path 75150" d="M413.1,517.924a.872.872,0,1,1-.852-.879A.88.88,0,0,1,413.1,517.924Z" transform="translate(-271.923 -255.291)" fill="#f9f9f9"/>
      <path id="Path_75151" data-name="Path 75151" d="M280.525,566.64c-.245,0-.491-.008-.736,0-.135.006-.167-.041-.165-.169.007-.473.008-.945,0-1.418,0-.134.041-.166.169-.165q.709.011,1.418,0c.135,0,.167.041.165.169-.007.473-.008.945,0,1.418,0,.134-.041.17-.169.165C280.98,566.633,280.752,566.64,280.525,566.64Z" transform="translate(-149.793 -299.649)" fill="#fefefe"/>
    </g>
  </g>
</svg>
