<svg xmlns="http://www.w3.org/2000/svg" width="24" height="24" viewBox="0 0 24 24">
  <g id="Group_15848" data-name="Group 15848" transform="translate(-988 -988)">
    <path id="Path_72028" data-name="Path 72028" d="M1012,1000.025q0,5.891,0,11.782c0,.158-.029.192-.191.192q-11.8-.008-23.611,0c-.182,0-.2-.054-.2-.209q.006-11.793,0-23.586c0-.167.031-.205.2-.205q11.794.009,23.588,0c.187,0,.21.054.209.22Q1011.993,994.123,1012,1000.025Zm-10.063,10.005c-1.307-2.5-1.2-4.883.8-6.907,2.028-2.054,4.433-2.184,6.971-.865v-.221c0-2.05,0-4.1.005-6.149,0-.206-.042-.266-.26-.266q-10.218.011-20.436,0c-.205,0-.266.041-.266.259q.012,6.219.006,12.438a1.569,1.569,0,0,0,1.714,1.71h11.466Zm-2.7-15.525q5.132,0,10.264,0c.174,0,.218-.039.216-.214-.012-.733,0-1.466-.008-2.2a1.537,1.537,0,0,0-1.226-1.482,4.948,4.948,0,0,0-1.025-.034c-.14,0-.186-.028-.182-.178.012-.412.006-.826,0-1.239a.566.566,0,1,0-1.122-.01c0,.413-.005.826,0,1.239,0,.13-.011.189-.17.188q-3.015-.009-6.032,0c-.137,0-.166-.043-.163-.17.007-.421.005-.842,0-1.263a.564.564,0,1,0-1.121,0c0,.421-.006.842,0,1.262,0,.129-.028.17-.164.17q-3.016-.006-6.033,0c-.128,0-.173-.028-.169-.164.009-.4,0-.8,0-1.193,0-.443-.213-.706-.567-.7s-.555.261-.555.691c0,.4-.009.8,0,1.192,0,.151-.044.184-.183.176-.21-.012-.421,0-.631,0a1.554,1.554,0,0,0-1.622,1.614c0,.694.008,1.388-.006,2.081,0,.2.049.238.241.238Q994.109,994.5,999.229,994.505Zm7.482,8.043a4.49,4.49,0,1,0,4.49,4.484A4.5,4.5,0,0,0,1006.711,1002.548Z" fill="#fefefe"/>
    <path id="Path_72029" data-name="Path 72029" d="M1001.933,1010.03H990.467a1.569,1.569,0,0,1-1.714-1.71q0-6.219-.006-12.438c0-.218.061-.259.266-.259q10.218.008,20.436,0c.218,0,.261.06.26.266-.008,2.049-.005,4.1-.005,6.149v.221c-2.538-1.319-4.943-1.189-6.971.865C1000.735,1005.147,1000.626,1007.528,1001.933,1010.03Zm-8.7-12.532c-.475,0-.95,0-1.425,0a.57.57,0,0,0-.624.622q0,1.437,0,2.873a.57.57,0,0,0,.629.618q1.425,0,2.85,0a.573.573,0,0,0,.635-.634q0-1.425,0-2.85a.573.573,0,0,0-.64-.63C994.184,997.5,993.709,997.5,993.234,997.5Zm8.052,2.053c0-.475,0-.95,0-1.424a.567.567,0,0,0-.618-.628q-1.437,0-2.873,0a.57.57,0,0,0-.623.624q0,1.425,0,2.849a.573.573,0,0,0,.631.64q1.423,0,2.849,0a.574.574,0,0,0,.634-.636C1001.288,1000.5,1001.286,1000.026,1001.286,999.551Zm-8.044,3.933c-.483,0-.966,0-1.448,0a.566.566,0,0,0-.609.614q0,1.437,0,2.873a.57.57,0,0,0,.621.626q1.437,0,2.873,0a.569.569,0,0,0,.62-.627q0-1.425,0-2.849a.574.574,0,0,0-.632-.638C994.192,1003.482,993.717,1003.484,993.242,1003.484Z" fill="#707070"/>
    <path id="Path_72030" data-name="Path 72030" d="M999.229,994.505q-5.121,0-10.241.005c-.192,0-.245-.041-.241-.238.014-.693,0-1.387.006-2.081a1.554,1.554,0,0,1,1.622-1.614c.21,0,.421-.009.631,0,.139.008.187-.025.183-.176-.013-.4-.005-.794,0-1.192,0-.43.208-.688.555-.691s.566.259.567.7c0,.4.006.795,0,1.193,0,.136.041.164.169.164q3.016-.006,6.033,0c.136,0,.166-.041.164-.17-.008-.42-.005-.841,0-1.262a.564.564,0,1,1,1.121,0c0,.421.005.842,0,1.263,0,.127.026.171.163.17q3.016-.006,6.032,0c.159,0,.173-.058.17-.188-.007-.413,0-.826,0-1.239a.566.566,0,1,1,1.122.01c0,.413.008.827,0,1.239,0,.15.042.178.182.178a4.948,4.948,0,0,1,1.025.034,1.537,1.537,0,0,1,1.226,1.482c.01.732,0,1.465.008,2.2,0,.175-.042.215-.216.214Q1004.362,994.5,999.229,994.505Z" fill="#707070"/>
    <path id="Path_72031" data-name="Path 72031" d="M1006.711,1002.548a4.49,4.49,0,1,1-4.49,4.483A4.5,4.5,0,0,1,1006.711,1002.548Zm-.561,3.353c0,.366,0,.733,0,1.1a.564.564,0,0,0,.6.6c.475,0,.951.005,1.426,0a.561.561,0,1,0-.009-1.12c-.249,0-.5-.008-.748,0-.128.006-.154-.04-.152-.157.006-.491.005-.982,0-1.473a.563.563,0,1,0-1.12,0C1006.147,1005.2,1006.15,1005.551,1006.15,1005.9Z" fill="#707070"/>
    <path id="Path_72032" data-name="Path 72032" d="M993.234,997.5c.475,0,.95,0,1.425,0a.573.573,0,0,1,.64.63q0,1.425,0,2.85a.573.573,0,0,1-.635.634q-1.425,0-2.85,0a.57.57,0,0,1-.629-.618q0-1.436,0-2.873a.57.57,0,0,1,.624-.622C992.284,997.5,992.759,997.5,993.234,997.5Zm.944,2.071c0-.265-.006-.53,0-.794,0-.12-.027-.16-.153-.158-.522.008-1.044.007-1.566,0-.119,0-.159.026-.157.153.007.522.006,1.044,0,1.566,0,.118.027.159.153.157.522-.008,1.044-.007,1.566,0,.119,0,.163-.026.158-.153C994.17,1000.084,994.178,999.826,994.178,999.569Z" fill="#fefefe"/>
    <path id="Path_72033" data-name="Path 72033" d="M1001.286,999.551c0,.475,0,.95,0,1.425a.574.574,0,0,1-.634.636q-1.425,0-2.849,0a.573.573,0,0,1-.631-.64q0-1.423,0-2.849a.57.57,0,0,1,.623-.624q1.435,0,2.873,0a.567.567,0,0,1,.618.628C1001.288,998.6,1001.286,999.076,1001.286,999.551Zm-2.057-.931c-.265,0-.53.006-.795,0-.112,0-.145.03-.143.143q.008.793,0,1.589c0,.112.03.144.142.143q.8-.008,1.59,0c.112,0,.144-.03.143-.143-.006-.529-.005-1.059,0-1.589,0-.112-.03-.147-.143-.143C999.759,998.626,999.494,998.62,999.229,998.62Z" fill="#fefefe"/>
    <path id="Path_72034" data-name="Path 72034" d="M993.242,1003.484c.475,0,.95,0,1.425,0a.574.574,0,0,1,.632.638q0,1.425,0,2.849a.569.569,0,0,1-.62.627q-1.437,0-2.873,0a.57.57,0,0,1-.621-.626q0-1.437,0-2.873a.566.566,0,0,1,.609-.614C992.276,1003.481,992.759,1003.484,993.242,1003.484Zm.935,2.057c0-.264-.005-.53,0-.794,0-.112-.03-.145-.143-.144q-.795.009-1.589,0c-.112,0-.145.031-.144.143q.009.8,0,1.59c0,.112.031.144.143.143q.795-.009,1.59,0c.112,0,.146-.03.143-.143C994.172,1006.071,994.177,1005.806,994.177,1005.541Z" fill="#fefefe"/>
    <path id="Path_72035" data-name="Path 72035" d="M1006.15,1005.9c0-.35,0-.7,0-1.052a.563.563,0,1,1,1.12,0c0,.491.005.982,0,1.473,0,.117.024.163.152.157.249-.01.5-.006.748,0a.561.561,0,1,1,.009,1.12c-.475.006-.951.005-1.426,0a.564.564,0,0,1-.6-.6C1006.146,1006.634,1006.15,1006.267,1006.15,1005.9Z" fill="#fdfdfd"/>
    <path id="Path_72036" data-name="Path 72036" d="M994.178,999.569c0,.257-.008.515,0,.771,0,.127-.039.155-.158.153-.522-.006-1.044-.007-1.566,0-.126,0-.154-.039-.153-.157.006-.522.007-1.044,0-1.566,0-.127.038-.155.157-.153.522.006,1.044.007,1.566,0,.126,0,.157.038.153.158C994.172,999.039,994.178,999.3,994.178,999.569Z" fill="#707070"/>
    <path id="Path_72037" data-name="Path 72037" d="M999.229,998.62c.265,0,.53.006.794,0,.113,0,.144.031.143.143-.005.53-.006,1.06,0,1.589,0,.113-.031.144-.143.143q-.8-.008-1.59,0c-.112,0-.144-.031-.142-.143q.008-.795,0-1.589c0-.113.031-.146.143-.143C998.7,998.626,998.964,998.62,999.229,998.62Z" fill="#707070"/>
    <path id="Path_72038" data-name="Path 72038" d="M994.177,1005.541c0,.265-.005.53,0,.795,0,.113-.031.144-.143.143q-.795-.009-1.59,0c-.112,0-.144-.031-.143-.143q.009-.795,0-1.59c0-.112.032-.144.144-.143q.8.009,1.589,0c.113,0,.146.032.143.144C994.172,1005.011,994.177,1005.277,994.177,1005.541Z" fill="#707070"/>
  </g>
</svg>
