<svg id="Layer_1" data-name="Layer 1" xmlns="http://www.w3.org/2000/svg" viewBox="0 0 26.69 26.7"><defs><style>.cls-1{fill:#020202;}.cls-1,.cls-2,.cls-3,.cls-4{stroke:#000;stroke-miterlimit:10;stroke-width:0.5px;}.cls-2{fill:#030303;}.cls-3{fill:#010101;}</style></defs><g id="Group_18318" data-name="Group 18318"><path id="Path_75128" data-name="Path 75128" class="cls-1" d="M34.11,9.59l1.16-.72,1.54-1a.48.48,0,0,1,.67,0,.48.48,0,0,1,.12.44V9.59l1-.64,1.69-1a.46.46,0,0,1,.66,0,.45.45,0,0,1,.13.44v6.74c0,.39-.15.54-.54.55H39.33a3.12,3.12,0,0,1-.92,2.65c.06.1.16.07.24.09a2.35,2.35,0,0,1,1.57,2.22c0,1.68,0,3.36,0,5.05a.42.42,0,0,1-.38.46.17.17,0,0,1-.1,0H32.87a.44.44,0,0,1-.51-.38.62.62,0,0,1,0-.13c0-1.73,0-3.47,0-5.21A2.15,2.15,0,0,1,34,18.3l.15,0a3.12,3.12,0,0,1-.92-2.65H32c-.39,0-.54-.16-.54-.55V4.81c0-.39.15-.54.54-.54h1.5c.43,0,.58.14.58.57V9.59ZM36.73,9l-.26.16L34,10.66a.52.52,0,0,1-.58.1.51.51,0,0,1-.22-.54V5.77c0-.63,0-.62-.63-.63-.21,0-.25.05-.25.25,0,1.63,0,3.26,0,4.88v4.26c0,.18,0,.24.22.22h.71a.33.33,0,0,0,.36-.2,3,3,0,0,1,4.07-1.18,3.08,3.08,0,0,1,.93.79,1.22,1.22,0,0,0,1.3.59h0c.2,0,.25,0,.25-.25,0-1.73,0-3.47,0-5.21V9L40,9.17l-2.47,1.54c-.4.25-.74.06-.74-.41s0-.83,0-1.3Zm-.44,16.23h2.86c.11,0,.2,0,.2-.16,0-1.49,0-3,0-4.47A1.37,1.37,0,0,0,38,19.14h-.19a2.67,2.67,0,0,1-.4,0c-.16,0-.2,0-.18.2.1.61.18,1.22.26,1.84a1.46,1.46,0,0,1,0,.83c-.27.66-.54,1.32-.8,2-.08.21-.2.37-.45.36a.46.46,0,0,1-.43-.35L35,22a.75.75,0,0,1,0-.42c.08-.57.17-1.13.24-1.7,0-.24.19-.57.06-.7s-.47,0-.71,0a1.31,1.31,0,0,0-1.36,1.24V25c0,.2.06.23.24.23.94,0,1.88,0,2.81,0Zm-2.12-8.73a2.17,2.17,0,0,0,4.22.16c0-.11,0-.17-.1-.17a2.92,2.92,0,0,1-1.9-.63.13.13,0,0,0-.18,0h0a3.08,3.08,0,0,1-2,.64Zm2.14-2.62a2.21,2.21,0,0,0-2.1,1.53c-.06.2,0,.23.17.22A2.27,2.27,0,0,0,35.86,15c.35-.34.52-.34.87,0a2.21,2.21,0,0,0,1.5.62c.19,0,.2,0,.15-.21a2.2,2.2,0,0,0-2.07-1.54Zm0,8.86c.1-.24.16-.43.25-.6a1.44,1.44,0,0,0,.1-1c-.1-.57-.16-1.15-.24-1.72a.55.55,0,0,0-.11-.33.6.6,0,0,0-.11.34c-.08.59-.17,1.17-.25,1.76a1.07,1.07,0,0,0,0,.59c.12.29.23.58.38.94Z" transform="translate(-31.24 0.35)"/><path id="Path_75129" data-name="Path 75129" class="cls-1" d="M47.44,18.61c-.12-.11-.23-.22-.36-.32s-.14-.23,0-.37c.44-.43.43-.43.85,0l.83.83a.45.45,0,0,1,.11.62.36.36,0,0,1-.1.11l-1.12,1.12c-.1.11-.17.12-.27,0s-.4-.3-.43-.47.27-.31.41-.47l.05-.07c-.06-.07-.15,0-.22,0-1.08,0-2.15,0-3.22,0-.19,0-.26,0-.26-.24,0-4.83,0-9.66,0-14.49,0-.41.15-.55.56-.56h3.2L47,3.83c-.1-.09-.11-.14,0-.25.49-.51.48-.52,1,0l.79.79a.45.45,0,0,1,.1.62l-.1.1c-.37.38-.76.75-1.13,1.14-.1.1-.16.1-.26,0S47,5.9,47,5.72s.26-.3.4-.47l.1-.11H44.73c-.18,0-.13.11-.13.2V11c0,.18,0,.24.23.24h2.66L47,10.81c-.1-.09-.09-.14,0-.24.48-.52.48-.52,1,0l.77.78a.44.44,0,0,1,.1.62.52.52,0,0,1-.1.11c-.37.37-.75.74-1.12,1.12-.09.09-.15.13-.26,0s-.41-.31-.44-.5.27-.31.42-.47l0-.07c-.08-.06-.16,0-.24,0H44.8c-.12,0-.2,0-.2.17,0,2.07,0,4.15,0,6.22,0,.13,0,.17.17.17h2.64Z" transform="translate(-31.24 0.35)"/><path id="Path_75130" data-name="Path 75130" class="cls-2" d="M53.76-.1a3.93,3.93,0,1,1-3.93,3.93A3.93,3.93,0,0,1,53.76-.1Zm2.17,6A3,3,0,1,0,51.57,1.7a1.78,1.78,0,0,0-.22.26,2.94,2.94,0,0,0,.21,3.93c0-.77.14-1.07.54-1.35.18-.12.19-.2.09-.4A1.71,1.71,0,0,1,52.64,2,1.73,1.73,0,0,1,54.8,2a1.7,1.7,0,0,1,.55,2.07c-.12.25-.11.36.12.53a1.38,1.38,0,0,1,.46,1.35Zm-2.17-.8h-.85a.43.43,0,0,0-.46.4V5.6c0,.28,0,.56,0,.84,0,.13.06.18.16.22a3.08,3.08,0,0,0,2.31,0,.23.23,0,0,0,.16-.24c0-.26,0-.53,0-.79a.45.45,0,0,0-.39-.49h-.92Zm-.88-1.76a.88.88,0,1,0,.89-.86h0A.88.88,0,0,0,52.88,3.38Z" transform="translate(-31.24 0.35)"/><path id="Path_75131" data-name="Path 75131" class="cls-2" d="M49.83,12.55a3.93,3.93,0,1,1,3.92,3.94,3.92,3.92,0,0,1-3.92-3.94Zm1.73,2.12a.61.61,0,0,0,0-.14,1.35,1.35,0,0,1,.65-1.34c.11-.07.07-.12,0-.2a1.65,1.65,0,0,1-.23-.78,1.74,1.74,0,0,1,1.65-1.83,1.76,1.76,0,0,1,1.38.56,1.71,1.71,0,0,1,.25,2c-.07.13-.09.19.06.3a1.24,1.24,0,0,1,.59,1.1v.34a3,3,0,1,0-4.38,0Zm3.5.09V14.4c0-.37-.16-.53-.53-.53H52.92a.44.44,0,0,0-.48.39v.08c0,.28,0,.55,0,.82s.06.19.17.23a3,3,0,0,0,1.84.14c.61-.15.61-.15.61-.77ZM53.75,13a.89.89,0,0,0,.89-.87.88.88,0,0,0-.88-.89.87.87,0,0,0-.88.87.88.88,0,0,0,.25.63A.9.9,0,0,0,53.75,13Z" transform="translate(-31.24 0.35)"/><path id="Path_75132" data-name="Path 75132" class="cls-2" d="M53.76,17.36a3.93,3.93,0,1,1-3.93,3.93,3.93,3.93,0,0,1,3.93-3.93Zm2.18,6.05a3,3,0,0,0-4.36-4.26l-.1.11a3,3,0,0,0,.07,4.1s0,0,0,0a1.43,1.43,0,0,1,.67-1.44c.11-.07,0-.12,0-.18A1.75,1.75,0,0,1,55,19.65a1.71,1.71,0,0,1,.28,2c-.08.15-.1.23.07.33a1.15,1.15,0,0,1,.48.61,2.33,2.33,0,0,1,.09.83Zm-2.19-.8h-.84a.42.42,0,0,0-.46.4v.06c0,.26,0,.53,0,.79a.24.24,0,0,0,.19.27,3,3,0,0,0,2,.08c.41-.13.41-.13.41-.55,0-.2,0-.4,0-.6a.42.42,0,0,0-.4-.45h-.91Zm.88-1.74a.88.88,0,1,0-.9.86.88.88,0,0,0,.9-.86Z" transform="translate(-31.24 0.35)"/><path id="Path_75133" data-name="Path 75133" class="cls-3" d="M45.9,24.35v1.22c0,.36-.16.52-.51.52H42.91a.43.43,0,0,1-.5-.37.28.28,0,0,1,0-.13V23.11a.44.44,0,0,1,.37-.51h2.63a.45.45,0,0,1,.49.39v1.36Zm-1.72.87h.68c.13,0,.17,0,.17-.16,0-.48,0-.95,0-1.42,0-.13,0-.17-.17-.17q-.7,0-1.41,0c-.13,0-.18,0-.17.16v1.42c0,.13,0,.18.16.17Z" transform="translate(-31.24 0.35)"/><path id="Path_75134" data-name="Path 75134" class="cls-1" d="M36,2.08H34.59a1.3,1.3,0,0,0-1.33,1.13c0,.17-.09.2-.24.19a1.77,1.77,0,0,0-.46,0c-.19,0-.2-.07-.19-.22a2.18,2.18,0,0,1,2.07-2c1,0,2,0,3,0,.12,0,.17,0,.17.16,0,.71,0,.71-.68.71Z" transform="translate(-31.24 0.35)"/><path id="Path_75135" data-name="Path 75135" class="cls-4" d="M39.35,2.08h-.22c-.72,0-.72,0-.66-.73,0-.1,0-.14.14-.14h1.48c.1,0,.15,0,.13.14v0c0,.7,0,.7-.68.7Z" transform="translate(-31.24 0.35)"/><path id="Path_75136" data-name="Path 75136" class="cls-4" d="M44.59,21.1c0,.63,0,.62-.63.63-.2,0-.27,0-.25-.25a6.76,6.76,0,0,0,0-.9c0-.12,0-.16.16-.17C44.59,20.39,44.59,20.38,44.59,21.1Z" transform="translate(-31.24 0.35)"/></g></svg>