<svg xmlns="http://www.w3.org/2000/svg" xmlns:xlink="http://www.w3.org/1999/xlink" width="146" height="101" viewBox="0 0 146 101"><defs><linearGradient id="a" x1="-1529.68" y1="1643.96" x2="-1530.47" y2="1644.27" gradientTransform="matrix(4.88, 0, 0, -4.88, 7478.21, 8065.73)" gradientUnits="userSpaceOnUse"><stop offset="0" stop-color="#101317"/><stop offset="1" stop-color="#272b37"/></linearGradient><linearGradient id="b" x1="61.06" y1="72.51" x2="73.13" y2="72.51" gradientUnits="userSpaceOnUse"><stop offset="0.15" stop-color="#6069ff"/><stop offset="1" stop-color="#7f6bf6"/></linearGradient><linearGradient id="c" x1="-1506.47" y1="1635.83" x2="-1504.99" y2="1634.6" gradientTransform="matrix(4.88, 0, 0, -4.88, 7478.21, 8065.73)" gradientUnits="userSpaceOnUse"><stop offset="0" stop-color="#524f50"/><stop offset="1" stop-color="#636668"/></linearGradient><linearGradient id="d" x1="-1516.03" y1="1634.28" x2="-1514.95" y2="1634.61" gradientTransform="matrix(4.88, 0, 0, -4.88, 7478.21, 8065.73)" gradientUnits="userSpaceOnUse"><stop offset="0" stop-color="#62656c"/><stop offset="1" stop-color="#8b8c88"/></linearGradient><linearGradient id="e" x1="-1515.82" y1="1635.15" x2="-1515.45" y2="1635.14" gradientTransform="matrix(4.88, 0, 0, -4.88, 7478.21, 8065.73)" gradientUnits="userSpaceOnUse"><stop offset="0" stop-color="#9c9488"/><stop offset="1" stop-color="#cac3b3"/></linearGradient><linearGradient id="f" x1="-1515.88" y1="1634.23" x2="-1515.46" y2="1634.38" gradientTransform="matrix(4.88, 0, 0, -4.88, 7478.21, 8065.73)" gradientUnits="userSpaceOnUse"><stop offset="0" stop-color="#98999a"/><stop offset="1" stop-color="#c0bdbd"/></linearGradient><linearGradient id="g" x1="6.96" y1="47.81" x2="136.88" y2="47.81" xlink:href="#b"/><linearGradient id="h" x1="-1504.9" y1="1641.14" x2="-1504.86" y2="1641.41" gradientTransform="matrix(4.88, 0, 0, -4.88, 7478.21, 8065.73)" gradientUnits="userSpaceOnUse"><stop offset="0" stop-color="#b5d2d4"/><stop offset="1" stop-color="#d8e0de"/></linearGradient><linearGradient id="i" x1="-1526.38" y1="1642.91" x2="-1529.76" y2="1641.24" gradientTransform="matrix(4.88, 0, 0, -4.88, 7478.21, 8065.73)" gradientUnits="userSpaceOnUse"><stop offset="0" stop-color="#47899d"/><stop offset="1" stop-color="#63b0cd"/></linearGradient><linearGradient id="j" x1="48.52" y1="58.41" x2="63.62" y2="58.41" xlink:href="#b"/><linearGradient id="k" x1="61.33" y1="26.13" x2="136.36" y2="26.13" xlink:href="#b"/><linearGradient id="l" x1="-1519.37" y1="1648.01" x2="-1515.68" y2="1650.93" gradientTransform="matrix(4.88, 0, 0, -4.88, 7478.21, 8065.73)" gradientUnits="userSpaceOnUse"><stop offset="0" stop-color="#19181b"/><stop offset="1" stop-color="#747f93"/></linearGradient><linearGradient id="m" x1="-1521.52" y1="1636.03" x2="-1521.11" y2="1635.92" gradientTransform="matrix(4.88, 0, 0, -4.88, 7478.21, 8065.73)" gradientUnits="userSpaceOnUse"><stop offset="0" stop-color="#889198"/><stop offset="1" stop-color="#a5aeb0"/></linearGradient><linearGradient id="n" x1="-1520.68" y1="1636.19" x2="-1521.41" y2="1636.02" gradientTransform="matrix(4.88, 0, 0, -4.88, 7478.21, 8065.73)" gradientUnits="userSpaceOnUse"><stop offset="0" stop-color="#aab4b8"/><stop offset="1" stop-color="#e2e3e3"/></linearGradient><linearGradient id="o" x1="-1521.29" y1="1636.1" x2="-1520.86" y2="1636.55" gradientTransform="matrix(4.88, 0, 0, -4.88, 7478.21, 8065.73)" gradientUnits="userSpaceOnUse"><stop offset="0" stop-color="#9d9d8e"/><stop offset="1" stop-color="#bebba2"/></linearGradient><linearGradient id="p" x1="-1524.61" y1="1634.24" x2="-1523.96" y2="1636.37" gradientTransform="matrix(4.88, 0, 0, -4.88, 7478.21, 8065.73)" gradientUnits="userSpaceOnUse"><stop offset="0" stop-color="#94acc1"/><stop offset="1" stop-color="#cbe2f2"/></linearGradient><linearGradient id="q" x1="10.17" y1="85.26" x2="60.96" y2="85.26" xlink:href="#b"/></defs><title>bus</title><path d="M22.2,16.3l2.2-5.7c2.9-1,14.5-5.1,25.7-8A45.8,45.8,0,0,1,63.8.9l3.4.3a6.3,6.3,0,0,1,2.2.7c9.4,5.4,11.4,6.8,11.4,6.9s-2.3-.7-3.7-1.5L70.9,4.5a3.4,3.4,0,0,0-1.5-.4,2.5,2.5,0,0,0-1.2.3A6,6,0,0,0,65.5,7c-7.2.5-13.4,1.3-18.1,2C37.2,10.5,33,11.8,30.5,12.7A74.2,74.2,0,0,0,22.2,16.3Z" fill="#c6cac9"/><path d="M12,68.9V67.4c.1.3,0,.6.2.8l.2.2c-.6.6,0,.4-.3.5Z" fill="#8c9dac"/><path d="M26.3,11.5l2.8-.8.2.2v1c-.3.4-2.5.8-3.1,1v-.6h0Z" fill="#f18c1c"/><path d="M29.1,10.7l.2.2v1c-.3.4-2.5.8-3.1,1v-.6h0a6.5,6.5,0,0,0,1.9-.4,1.9,1.9,0,0,0,1-.3A1.3,1.3,0,0,0,29.1,10.7Z" fill="#624b46"/><path d="M57.4,4.3a35.5,35.5,0,0,1,4.7-.6h.4V5c-.4.4-1,.3-1.5.3l-2,.3-1.7.2L57,5.5V5.2Z" fill="#f18c1c"/><path d="M62.1,3.7h.4V5a5.6,5.6,0,0,0-1.8-.1l-2.5.3-.7.2h-.3V5.2L62,4.7Z" fill="#1b1f27"/><path d="M58.2,5.2l2.5-.3a5.6,5.6,0,0,1,1.8.1c-.4.4-1,.3-1.5.3l-2,.3-1.7.2L57,5.5V5.4h.3Z" fill="#424851"/><path d="M4.2,43.9a.8.8,0,0,1-.1-.4,23.4,23.4,0,0,1,.1-5.3c.2-1.6.4-3.2.7-4.8a6,6,0,0,1,.7-2.7,1.3,1.3,0,0,1,1-.4H7c0,.1.1.1.2.2h.1l.4.2H7.6a23.3,23.3,0,0,0-.8,3.8c-.6,2.4-1.2,4.8-1.6,7.3A8.8,8.8,0,0,0,5,43.4l-.2.5H4.7l-.3.3Z" fill="#424851"/><path d="M4.9,41.8c.3.5-.2,1.2.1,1.6l-.2.5H4.7l-.3.3-.2-.3h.3a.4.4,0,0,1,.1-.3Z" fill="#1b1f27"/><path d="M129.9,80.3l7.8-.4c-.1.7.1,2-.5,2.4a5.6,5.6,0,0,1-2.4,1l-3.2,1.1-2.1.7A25.2,25.2,0,0,0,129.9,80.3Z" fill="#4e7696"/><path d="M7.4,30.3h.4a1.2,1.2,0,0,0,.7.5H9c.2.1.3.4.4.7a5.5,5.5,0,0,1-.1,1.8l-.5,2.6c-.3,1.8-.7,3.6-1.1,5.5a9.5,9.5,0,0,1-.5,2.3,1.3,1.3,0,0,1-.6.7,1.6,1.6,0,0,1-1.2.2,2.1,2.1,0,0,1-1-.6l.3-.3h.1l.2-.5a8.8,8.8,0,0,1,.2-1.6c.4-2.5,1-4.9,1.6-7.3a23.3,23.3,0,0,1,.8-3.8h.1l-.4-.2Z" fill="url(#a)"/><path d="M8.8,36.1H8.7a4.9,4.9,0,0,1,.1-1.7c.1-.4.1-.6.5-.8Z" fill="#1b1f27"/><path d="M135.5,48v-.4h.6c0,.3,0,.3.2.4a210.6,210.6,0,0,1,1.1,23.8c-.1,1.6.2,3.2,0,4.8v2.1h-1.2l-6.6.3a10.5,10.5,0,0,1-.1-2.5c0-2.1-.1-4.1-.1-6.2.7.1,6.3.8,6.6.6a16.4,16.4,0,0,0,.2-2.3,25.1,25.1,0,0,0,.1-3.9A118.5,118.5,0,0,0,135.5,48Z" fill="#1e2041"/><path d="M136.5,77.1c0-.4-.1-1.1.1-1.4h.6a1.4,1.4,0,0,1,.3.9v.2Z" fill="#e42821"/><path d="M136.5,77.5a.6.6,0,0,1,.1-.4h.8c.1.4.1.8.2,1.2v.4h-1.2Z" fill="#f18c1c"/><path d="M136.5,77.5a.6.6,0,0,1,.1-.4h.8v.6h-.7C136.6,77.7,136.5,77.6,136.5,77.5Z" fill="#e42821"/><path d="M73.4,61.8v.5c.5-.3.8-.9,1.2-1.2a14.4,14.4,0,0,1,2.5-1.8,36.7,36.7,0,0,1,4.8-2.6,34.3,34.3,0,0,1,16.7-2.8l3.9.6h.7l1.2.4,2.3.6,4.1,1.1,1.7.4a16,16,0,0,1,2.1.5l3.8,1a29.9,29.9,0,0,0,3.2.8,13.6,13.6,0,0,0,1.7.4,11,11,0,0,1,2.6.2,3.8,3.8,0,0,1,1.5.5l.9.2h.1v.2a7.6,7.6,0,0,0,.9.9h.1l1.4,1.3,3,2.7a6.1,6.1,0,0,0,1.4,1,2.5,2.5,0,0,0,1.2.2v1.9a16.4,16.4,0,0,1-.2,2.3c-.3.2-5.9-.5-6.6-.6,0,2.1.1,4.1.1,6.2a10.5,10.5,0,0,0,.1,2.5v1.2a25.2,25.2,0,0,1-.4,4.8h-1.4l-.9.2a4.1,4.1,0,0,1-.2,1.6l9.7.2a13.2,13.2,0,0,1-2.6.5l-5.3,1-6.2,1.1-13,2.2L89.1,95.5l-6,1.1c-1,.1-2.1.4-3.1.4l-1.2.2-1.6.3L66.6,99.1c-4.4.7-8.8,1.6-13.2,1.9-1.8.1-3.5-.1-5.3-.1h-5l-15.6-.9-7.9-.5a73.4,73.4,0,0,1-8.2-.9,7.1,7.1,0,0,1-2.5-.6h2.3l3.5-.5,14.8-1.8,5.7-.7,2.7-.5a8.5,8.5,0,0,1-3-3.5l4,.2,1.5.2,4.4.2c5.1.2,10.1.3,15.2.3h1a13.4,13.4,0,0,0,0-2V85.6c0-5.6-.2-11.1-.1-16.6a9.2,9.2,0,0,1,.1,2.4h.2l.4-.4h0l-.4.2h-.1v-.3h0v-.9h.1v1.4l3.3-3.5h.1l1-.9c0-.2.1-.2.2-.3l.9-.9h0l1.1-1.1,1-1.1h.1l.8-.9h0l.7-.6h0l.5-.5.2-.3.3-.3.4-.4h0c.2-.2.4-.3.5-.5l.3-.4h.1c0-.1.1-.2.2-.3s.2-.2.3-.4l.2-.2h.1a.8.8,0,0,0,.2-.5h0a5.3,5.3,0,0,0,.1-1.8v-.4h.1v2.1a1.9,1.9,0,0,1-.5,1v.2h0c.1.1.1.2.2.4a4.9,4.9,0,0,0-.1,1.2Z" fill="#241530"/><path d="M38.9,91h1.5l4.4.3c5.1.2,10.1.3,15.2.2h1a13.3,13.3,0,0,0,0-2V85.7" fill="#cbb4d6"/><path d="M129.5,85.2h-1.4l-.9.2a4.4,4.4,0,0,1-.2,1.6l9.7.2-2.6.5-5.3.9-6.2,1.2-13,2.1L89.1,95.7l-6,1-3.1.5-1.2.2-1.6.2L66.6,99.2a119.9,119.9,0,0,1-13.2,1.9,46.9,46.9,0,0,1-5.3-.1h-5l-15.6-.9-7.9-.6c-2.8-.2-5.5-.4-8.2-.8a10.2,10.2,0,0,1-2.5-.6l-.6-.3,29.6-3.7a14.9,14.9,0,0,0,5.2.5,16.2,16.2,0,0,0,4.2-1l6.6-1a87.6,87.6,0,0,1,14.2-.5,9.6,9.6,0,0,0,2.7,2.6c3,2.1,8.6,3.7,11.8.9a7.5,7.5,0,0,0,2.2-5.5h3.4c9.1-1.5,18.8-2.8,28.9-3.7l10.1-.7" fill="#d2d2f9"/><path d="M73.3,80.4h2.1L75.2,82H73.3Z" fill="#fff"/><path d="M73.3,85.4a7.4,7.4,0,0,1,.1,2.1h1.5a11.7,11.7,0,0,1-.9,3.2h0l-1.1.2a23.4,23.4,0,0,0,.4-2.6A26.2,26.2,0,0,0,73.3,85.4Z" fill="#3f6071"/><path d="M73.3,82h1.9l-.3,5.4H73.4a7.4,7.4,0,0,0-.1-2.1Z" fill="#688294"/><path d="M61.5,71.4a3.9,3.9,0,0,1,.8-1l1.5-1.6,5.4-5.7,2.2-2.4a20,20,0,0,1,1.9-2.2v1.9a29.8,29.8,0,0,0-3.6,3.5l-4.1,3.9a39.7,39.7,0,0,1-3,2.8A3.9,3.9,0,0,1,61.5,71.4Z" fill="#a9b1b5"/><path d="M49.8,91.6H68.2v.7L46.9,93.8A8,8,0,0,0,49.8,91.6Z" fill="#fff"/><path d="M73.9,90.8a15.2,15.2,0,0,0,.6,2,7.8,7.8,0,0,0,2.7,3.7l.6.2.4.2.6.3a8.2,8.2,0,0,1-6.7-.4,7.8,7.8,0,0,1-3-2.9,5.9,5.9,0,0,0-.7-1.6h-.1v-.7Z" fill="#1b1f27"/><path d="M73.2,60.4v2.3l-12,13.6V72.7a4.1,4.1,0,0,1,0-1.1l.4-.2a3.9,3.9,0,0,0,1-.8,39.7,39.7,0,0,0,3-2.8l4.1-3.9A29.8,29.8,0,0,1,73.2,60.4Z" fill="#201f42"/><path d="M73.1,87.5a18.6,18.6,0,0,1-.4,3.3l-11.5,1V88.2Z" fill="#3f6071"/><path d="M61.1,82.3l12-.3v5.5l-11.9.7Z" fill="#677586"/><path d="M105.3,67.5l8.6,1.1.2,10.5h0v1l-8.4.4a9.7,9.7,0,0,1-.1-1.7c0-1.1,0-2.3-.1-3.4s-.1-4.1-.1-6.2S105.3,68.1,105.3,67.5Z" fill="#2b317f"/><path d="M109.6,74.9a.7.7,0,0,1,.6.2,1.8,1.8,0,0,1,.4,1.3,1.2,1.2,0,0,1-.5,1.1c-.2,0-.4.1-.6-.1a1.4,1.4,0,0,1-.3-.9A1.9,1.9,0,0,1,109.6,74.9Z" fill="#030303"/><path d="M105.7,79.5l8.4-.4v1l-8.4.4Z" fill="#fff"/><path d="M73.3,63.8l15.1,1.7.3,10.2c0,1.2,0,2.3.1,3.4a3.3,3.3,0,0,0,.1,1.4v.7H87.8l-.2-.8-1.1-5.7v.4a2,2,0,0,0-.1.7,3.4,3.4,0,0,1,0-1,7,7,0,0,0-1.1-2.3h0v-.3a2.4,2.4,0,0,0-1.4-1.2h-.6v-.2l-1.5-.2a16.1,16.1,0,0,0-2.2,0A4.8,4.8,0,0,0,77,73.6a25.9,25.9,0,0,0-1.6,6.8H73.3Z" fill="#2b317f"/><path d="M75,67.2c-.1-.2-.2-.3-.2-.5a.8.8,0,0,1,.3-.8h.2l.3,1.3Z" fill="#f18c1c"/><path d="M88.8,80.4a1.9,1.9,0,0,0,.1.8H87.8l-.2-.8Z" fill="#fff"/><path d="M83.2,70.9a2.6,2.6,0,0,1,1.8.9,8.9,8.9,0,0,1,1.5,3.1v.4a2,2,0,0,0-.1.7,3.4,3.4,0,0,1,0-1,7,7,0,0,0-1.1-2.3h0v-.3a2.4,2.4,0,0,0-1.4-1.2h-.6Z" fill="#1b1f27"/><path d="M75.3,65.9l3.3.2v1.2h-.5l-2.5-.2Z" fill="#f1c413"/><path d="M75,67.2h.6l2.5.2a5.7,5.7,0,0,1,.1,1.3L75,68.5Z" fill="#677586"/><path d="M61.1,76.3l12-13.6V82l-12,.3v-6Z" fill="url(#b)"/><path d="M61.1,80.3h12V82l-12,.3Z" fill="#fff"/><path d="M114,68.6l15.5,1.8.2,9.3v.7l-.3,4.7h-1.3l-.9.2a4.1,4.1,0,0,1-.2,1.6,5.9,5.9,0,0,1-.6,1.4.9.9,0,0,1-.7.3,1.8,1.8,0,0,1-1-.4,6.5,6.5,0,0,1-1.1-3.7v-.3a4.5,4.5,0,0,1-.1-1.2v-.6h-.1v-.7a8.8,8.8,0,0,0-.2,1.6,12.3,12.3,0,0,0-.2-1.9v-.9l-.2-.7-.5-3a12.1,12.1,0,0,0-1.1-3.2,1.8,1.8,0,0,0-1.1-.8,2.9,2.9,0,0,0-1.6,1.8,9,9,0,0,0-.8,2.1,11.8,11.8,0,0,0-.4,2V80h-2.9v-.7Z" fill="#2b317f"/><path d="M123.5,80.5c-.2-.1-.2-.2-.2-.4a.6.6,0,0,1,.1-.7h.2C123.6,79.8,123.5,80.2,123.5,80.5Z" fill="#8c9dac"/><path d="M122.4,76.3l.3,1.2a16.2,16.2,0,0,1,.2,3.1l-.2-.7-.5-3v-.5Z" fill="#58828b"/><path d="M120,72.9h.4a2,2,0,0,1,.9.7h.1a3,3,0,0,1,.4,1,8.5,8.5,0,0,1,.6,1.7h-.2v.5a12.1,12.1,0,0,0-1.1-3.2A1.8,1.8,0,0,0,120,72.9Z" fill="#466975"/><path d="M128.5,79.1h1.1v1.3h-1.2A2.8,2.8,0,0,0,128.5,79.1Z" fill="#fff"/><path d="M114.2,79.9c.1-.3,0-.6.2-.8h2.7V80h-2.9Z" fill="#fff"/><path d="M123.7,78.9h-.1a5,5,0,0,1,0-2.1L124,75a3.2,3.2,0,0,1,1.5-2.1,1.1,1.1,0,0,1,.8-.1h.1a3.1,3.1,0,0,1,.9.7,4.3,4.3,0,0,0,.4.7c0,.2.1.3.1.5h.1v.9a7.7,7.7,0,0,1-.7-1.6,2.2,2.2,0,0,0-.9-1h-.4a1.2,1.2,0,0,0-.9.5C124.1,74.9,123.9,77.3,123.7,78.9Z" fill="#b6d1df"/><path d="M123.7,78.9c.2-1.6.4-4,1.5-5.2a1.2,1.2,0,0,1,.9-.5,3.8,3.8,0,0,1,1.5,2.4,22.6,22.6,0,0,1,.8,4.4v.4h1.2l-.3,4.7h-1.3l-.9.2a4.1,4.1,0,0,1-.2,1.6,5.9,5.9,0,0,1-.6,1.4.9.9,0,0,1-.7.3,1.8,1.8,0,0,1-1-.4,6.5,6.5,0,0,1-1.1-3.7v-.3a4.5,4.5,0,0,1-.1-1.2v-.6h-.1v-2c0-.3.1-.7.1-1A1.3,1.3,0,0,1,123.7,78.9Z" fill="url(#c)"/><path d="M126.4,80.8c0-.9-.2-1.9-.2-2.8h.1v-.2h0a14.7,14.7,0,0,1,.5,2.9,15.1,15.1,0,0,1-.1,3v0l-.3-1.5A3.3,3.3,0,0,1,126.4,80.8Z" fill="#fff"/><path d="M126.7,85.3a1.3,1.3,0,0,1-.2.9,1.1,1.1,0,0,1-.9.4,2.9,2.9,0,0,1-.5-1.3H125v.4h-.1a2.8,2.8,0,0,1-.1-.9,6.1,6.1,0,0,1-.1-1.4c.1-.2,0-.6.1-.8h.1a1.3,1.3,0,0,1,.1.6h.2v-.3c-.1-.4,0-.9-.1-1.3a1.9,1.9,0,0,1,0-1.3c.1-.4,0-.9.1-1.3v-.2a1.6,1.6,0,0,1,.3-.9h0c.1-.1.1-.1.1-.2l.4-.2.3.3h-.5c-1,1.4-.5,5.2-.2,6.9a.4.4,0,0,0,.1.3h.3l.4.3c.2-.2.2-.7.3-1a.7.7,0,0,0,.1-.5v-.2h.1Z" fill="#424851"/><path d="M126.8,83.7h.1l-.2,1.6a.4.4,0,0,0-.1.3h0c-.3.2-.5.4-.8.4v-.4h.2l.2-.3-.3-.3h.1l.4.3c.2-.2.2-.7.3-1a.7.7,0,0,0,.1-.5Z" fill="#030303"/><path d="M126,85.1h-.3a.4.4,0,0,1-.1-.3c-.3-1.7-.8-5.5.2-6.9h.2a19.5,19.5,0,0,1,.2,2.3,12.1,12.1,0,0,0,.5,4.3c-.1.3-.1.8-.3,1Z" fill="#fff"/><path d="M123.7,78.9c.2-1.6.4-4,1.5-5.2a1.2,1.2,0,0,1,.9-.5,3.8,3.8,0,0,1,1.5,2.4,22.6,22.6,0,0,1,.8,4.4v.4h1.2l-.3,4.7h-1.3l-.9.2a12.3,12.3,0,0,0,.2-2,20.3,20.3,0,0,0-.2-5.5,6.3,6.3,0,0,0-.8-2.3c-.2-.3-.5-.6-.8-.6a.9.9,0,0,0-.7.1c-.9.7-1.1,4.4-1.3,5.5s0,1.3-.1,1.7h-.1v-2c0-.3.1-.7.1-1A1.3,1.3,0,0,1,123.7,78.9Z" fill="#030303"/><path d="M128.4,80v.4h1.2l-.3,4.7h-1.3a3.2,3.2,0,0,0,.3-1.7C128.5,82.4,128.4,81.3,128.4,80Z" fill="#4e7696"/><path d="M112.5,57a16,16,0,0,1,2.1.5l3.8,1a29.9,29.9,0,0,0,3.2.8,13.6,13.6,0,0,0,1.7.4,11,11,0,0,1,2.6.2,3.8,3.8,0,0,1,1.5.5l.9.2h.1v.2a7.6,7.6,0,0,0,.9.9v.2h-.1v.5a3.8,3.8,0,0,1,.1,1c.1.6,0,1.2.1,1.7s.1,3.5.1,5.3l-23-2.8-6.9-.9a14.5,14.5,0,0,1,1.8-1.7,41,41,0,0,1,7.3-5.9Z" fill="#343366"/><path d="M128.4,60.5v.2a7.6,7.6,0,0,0,.9.9v.2h-.1v.5l-1.8-1.8.9.2Z" fill="#6aaac4"/><path d="M73.4,61.8v.5c.5-.3.8-.9,1.2-1.2a14.4,14.4,0,0,1,2.5-1.8,36.7,36.7,0,0,1,4.8-2.6,34.3,34.3,0,0,1,16.7-2.8l3.9.6h.7l1.2.4,2.3.6,4.1,1.1,1.7.4-3.8,1.9a41,41,0,0,0-7.3,5.9,14.5,14.5,0,0,0-1.8,1.7L73.3,63.4V61.8Z" fill="#343366"/><path d="M88.6,65.5l6.6.8a1.9,1.9,0,0,1,.1.8h0v-.6h.1l4,.5,5.8.7h.1c0,.6.1,1.1.1,1.7s.1,4.2.1,6.2.1,2.3.1,3.4a9.7,9.7,0,0,0,.1,1.7v5.9L109,86l1.9-.2a3.2,3.2,0,0,1-.3.9,10.5,10.5,0,0,0-.7,1.1h-.1l-1.5.3-2.3.5c-3.5.5-7.2.7-10.8,1l-4.3.4c-1,0-2,.2-3,.1s0-1.3.3-1.6a4.7,4.7,0,0,1-.1-1.7c0-1.8-.2-3.6-.3-5.4h1.1V79.5Z" fill="#1b1f27"/><path d="M87.8,81.4h1.1v7.1h-.8a4.7,4.7,0,0,1-.1-1.7C88.1,85,87.9,83.2,87.8,81.4Z" fill="#688294"/><path d="M95.5,81.1l.2,6.5-6.5.7V85.7L89,81.4l3.6-.2Z" fill="#688294"/><path d="M89,81.4l3.6-.2c-.9,1.2-1.8,2.6-2.6,3.8s-.6.9-.8,1v-.3Z" fill="#8c9dac"/><path d="M95.7,79.9l9.8-.4v1l.2,6-9.8,1.1L95.7,81Z" fill="#688294"/><path d="M95.7,79.9l9.8-.4v1l-9.8.5Z" fill="#fff"/><path d="M88.6,65.5l6.6.8a11.3,11.3,0,0,0,.1,2.6V81.1H92.6l-3.6.2V79.5Z" fill="#2b317f"/><path d="M89.5,80.2l.9-1.4,1.2-2.1c1.2-1.8,2.4-3.4,3.7-5.1v9.5H92.6l-3.6.2V80.3Z" fill="#fff"/><path d="M95.4,77.6v2.3h-2A15.5,15.5,0,0,0,95.4,77.6Z" fill="#8c9dac"/><path d="M95.3,67v-.6h.1l4,.5,5.8.7v.8c0,2.5.1,5.1.2,7.6a21.7,21.7,0,0,0,.1,3.6l-9.8.4V71.3C95.3,69.9,95.5,68.4,95.3,67Z" fill="#2b317f"/><path d="M98.4,74.3a.8.8,0,0,1,.7.2,2.6,2.6,0,0,1,.5,1.7,2.5,2.5,0,0,1-.4.9h-.5a.9.9,0,0,1-.5-.3,2.3,2.3,0,0,1-.3-1.6l.3-.7Z" fill="#030303"/><path d="M95.3,67v-.6h.1l4,.5,5.8.7v.8a24.2,24.2,0,0,0-4.4,3.5,14.2,14.2,0,0,0-2.4,2.5l-.2.3a10.7,10.7,0,0,0-1.8,1.9l-.7.7V71.3C95.3,69.9,95.5,68.4,95.3,67Z" fill="#fff"/><path d="M95.3,67v-.6h.1l4,.5a3.2,3.2,0,0,0-1,1,22,22,0,0,0-2,2.3l-.9,1.2C95.3,69.9,95.5,68.4,95.3,67Z" fill="#8c9dac"/><path d="M79.5,70.7a16.1,16.1,0,0,1,2.2,0l1.5.2v.2h.6a2.4,2.4,0,0,1,1.4,1.2v.3h0A7,7,0,0,1,86.3,75a3.4,3.4,0,0,0,0,1,2,2,0,0,1,.1-.7v-.4l1.1,5.7.2.8c.1,1.8.3,3.6.3,5.4a4.7,4.7,0,0,0,.1,1.7c-.3.3-.3,1.2-.3,1.6s2-.1,3-.1l4.3-.4c3.6-.3,7.3-.5,10.8-1l2.3-.5,1.5-.3h.1a10.5,10.5,0,0,1,.7-1.1,3.2,3.2,0,0,0,.3-.9L109,86l-3.2.4V80.5l8.4-.4v-1h.1v.7h2.9V78.8a11.8,11.8,0,0,1,.4-2,9,9,0,0,1,.8-2.1,2.9,2.9,0,0,1,1.6-1.8,1.8,1.8,0,0,1,1.1.8,12.1,12.1,0,0,1,1.1,3.2l.5,3,.2.7v.9a12.3,12.3,0,0,1,.2,1.9,8.8,8.8,0,0,1,.2-1.6v.7h.1v.6a4.5,4.5,0,0,0,.1,1.2v.3a6.5,6.5,0,0,0,1.1,3.7,1.8,1.8,0,0,0,1,.4.9.9,0,0,0,.7-.3,5.9,5.9,0,0,0,.6-1.4l9.7.2a13.2,13.2,0,0,1-2.6.5l-5.3,1-6.2,1.1-13,2.2L89.1,95.5l-6,1.1c-1,.1-2.1.4-3.1.4l-1.2.2-.6-.3-.4-.2-.4-.2a9.8,9.8,0,0,1-3.3-5.7,15.6,15.6,0,0,0,1-3.7c.2-1.7.1-3.5.3-5.2L76,78a6.5,6.5,0,0,1,.4-1.9,11.1,11.1,0,0,1,1.3-3.6,3.5,3.5,0,0,1,2.1-1.7h-.3Z" fill="#030303"/><path d="M121.9,83.5v1.6h-.5A9.4,9.4,0,0,0,121.9,83.5Z" fill="#424851"/><path d="M122.7,79.9l.2.7v.9a12.3,12.3,0,0,1,.2,1.9,8.8,8.8,0,0,1,.2-1.6v.7h0v1.2a4.5,4.5,0,0,1,.1,1.1h-.6a1.3,1.3,0,0,1-.1-.6V82.9A14.8,14.8,0,0,1,122.7,79.9Z" fill="#466975"/><path d="M86.3,76a2,2,0,0,1,.1-.7,26.2,26.2,0,0,1,.9,3.8,47.1,47.1,0,0,1,.5,10.6c-.1.2-.1.1-.3.2a9.7,9.7,0,0,1-.1-1.7l-.3-3.8c-.1-2.5-.4-5-.7-7.5Z" fill="#677586"/><path d="M79.5,70.7a16.1,16.1,0,0,1,2.2,0l1.5.2v.2h.6a2.4,2.4,0,0,1,1.4,1.2v.3h0l-.6-.6a5.9,5.9,0,0,0-2.9-.5c-1.2-.1-2.1-.2-3.1.7l-1,1.2c1.1-.3,2-.9,3.2-.3l.6.5c.2.1.7.5.7.7l.2.4A12.7,12.7,0,0,0,81,73.7h-.1a2.6,2.6,0,0,0-1.7-.3c-1.1.3-1.9,1.8-2.4,2.8L76,78a6.5,6.5,0,0,1,.4-1.9,11.1,11.1,0,0,1,1.3-3.6,3.5,3.5,0,0,1,2.1-1.7h-.3Z" fill="#2b2c30"/><path d="M86.4,76.9c.3,2.5.6,5,.7,7.5l.3,3.8a9.7,9.7,0,0,0,.1,1.7H85.9V85.1c0-2.2,0-4.4.2-6.6a1.7,1.7,0,0,1,.1-.7v-.9Z" fill="#2b2c30"/><path d="M117.6,76.8h.1c.1-.1.1-.2.1-.4s.5-1.1,1-1.3a.9.9,0,0,1,1,0c.7.3,1.1,1.5,1.3,2.3a19.9,19.9,0,0,1,.5,3.4,26.2,26.2,0,0,1,0,2.8,6.1,6.1,0,0,1-.3,1.3,2.1,2.1,0,0,1-1.1,1.5H120a4.1,4.1,0,0,1-1.2-2l-.2-.7h0a1.3,1.3,0,0,0,.1.6,3.7,3.7,0,0,0,.8,1.8,1,1,0,0,0,.5.4.3.3,0,0,0,.4,0c.4-.2.7-.8.9-1.1l.2-.4h.5a16.5,16.5,0,0,1-.4,3.2,2.8,2.8,0,0,1-1.1,1.7,2.6,2.6,0,0,1-1.5.2c-1.1-.5-1.6-2.8-1.8-3.9a4.1,4.1,0,0,0-.1-1.1h0a3.7,3.7,0,0,0,.1-1.5c0-1.2,0-2.4-.1-3.6V78.8A11.8,11.8,0,0,1,117.6,76.8Z" fill="#424851"/><path d="M120.6,79.1h.2a1.9,1.9,0,0,1,.2.7,11.5,11.5,0,0,1,.2,3.7v.3c-.1,0-.1-.1-.2-.2V82.3A17.3,17.3,0,0,0,120.6,79.1Z" fill="#fff"/><path d="M120.9,82.3v1.2c.1.1.1.2.2.2a8.6,8.6,0,0,1-.9,2.7,4.6,4.6,0,0,0,.9-1.5c0-.1.1-.1.2-.2v.2a2.1,2.1,0,0,1-1.1,1.5H120a4.1,4.1,0,0,1-1.2-2l.3-.2c.3.5.4,1.2.9,1.4a1.4,1.4,0,0,0,.6-1.2h.1A15,15,0,0,0,120.9,82.3Z" fill="#8c9197"/><path d="M118.6,83.7a11.6,11.6,0,0,1,.1-4.9h0a2.2,2.2,0,0,1,.5-1.1.9.9,0,0,1,.6-.3h0c.2.1.4.1.4.3v.3h.1v.2a9.4,9.4,0,0,1,.3.9,17.3,17.3,0,0,1,.3,3.2,15,15,0,0,1-.2,2h-.1a1.4,1.4,0,0,1-.6,1.2c-.5-.2-.6-.9-.9-1.4l-.3.2Z" fill="#030303"/><path d="M118.6,83.7a11.6,11.6,0,0,1,.1-4.9h0a2.2,2.2,0,0,1,.5-1.1.9.9,0,0,1,.6-.3h0c-.2.2-.6.4-.6.7a10.9,10.9,0,0,0-.1,6.2l-.3.2Z" fill="#fff"/><path d="M120,79h.3v.2a9.7,9.7,0,0,1,.3,3.8,5.9,5.9,0,0,1-.5,2.3H120l-.4-.4C120.4,83.2,119.7,80.9,120,79Z" fill="#fff"/><path d="M119.4,78.1h0v1h.3v.5h0a2.2,2.2,0,0,1,.2,1.1,16.2,16.2,0,0,1-.2,3.8h-.2v-.2l-.3-1.2A10.2,10.2,0,0,1,119.4,78.1Z" fill="#fff"/><path d="M114.1,79.1h.1v.7h2.9c.1,1.2.1,2.4.1,3.6a3.7,3.7,0,0,1-.1,1.5H117l-2.7.4v0l-3.3.3L109,86l-3.2.4V80.5l8.4-.4v-1Z" fill="#688294"/><path d="M76,78l.8-1.9c.5-1,1.3-2.5,2.4-2.8a2.6,2.6,0,0,1,1.7.3H81a12.7,12.7,0,0,1,1.3,1.1A12.1,12.1,0,0,1,84.5,80a25.7,25.7,0,0,1,.3,6.8A16.8,16.8,0,0,1,82.9,94a6.9,6.9,0,0,1-1.6,2.2l-1.3.7h0l-1.2.2-.6-.3-.4-.2-.4-.2a9.8,9.8,0,0,1-3.3-5.7,15.6,15.6,0,0,0,1-3.7c.2-1.7.1-3.5.3-5.2Z" fill="#424851"/><path d="M80.5,76.8a1.5,1.5,0,0,1,1,.6A4.6,4.6,0,0,1,82.6,79h-.1l-.3-.6h-.1a3.6,3.6,0,0,1,.4.9l.4.9h-.3a1.7,1.7,0,0,0-.4,1.1.8.8,0,0,1-.2.7,4.1,4.1,0,0,1,.4-1.9l-.4-.6V78.3A5.4,5.4,0,0,0,80.5,76.8Z" fill="#030303"/><path d="M79.8,76.7h.7A5.4,5.4,0,0,1,82,78.3v1.5a.8.8,0,0,1-.4-.4v-.3L81,77.5h0L80,77l-.3-.2Z" fill="#8c9197"/><path d="M80,77l1,.4h0l.6,1.6v.3h-.3l-.9-1h0L79.9,77Z" fill="#1b1f27"/><path d="M82.9,89a2.2,2.2,0,0,1,.3-1.4h0v.3c.1-.3.1-.7.2-1a20.5,20.5,0,0,0,0-3.5c-.1-.7-.5-1.3-.4-2a5,5,0,0,1,.5,1.3,3.4,3.4,0,0,0,.1,1,3.7,3.7,0,0,1,.1,1.5,10.3,10.3,0,0,1-1,4.9l-.2.2A2.1,2.1,0,0,0,82.9,89Z" fill="#030303"/><path d="M81.1,92.2l-.7.4a2.6,2.6,0,0,1-1.9-.5,6.8,6.8,0,0,1-2-3.6,10.9,10.9,0,0,1-.5-1.7,22.6,22.6,0,0,1-.1-2.6,11.9,11.9,0,0,1,1-5.3,4.1,4.1,0,0,1,2-2.1h0a1.4,1.4,0,0,1,.9-.1h-.1l.3.2h-.3a1.9,1.9,0,0,0-1,.5c-.1.1-.1.1-.1.3l-.6.7.8.5c.1.1.4.5.6.5s.2.4.1.7-.1.2-.2.3-.2.2-.3.3a.5.5,0,0,1-.2.4L78.5,83v1.4h0a6.5,6.5,0,0,1,.2,2h.3a1.7,1.7,0,0,0,.1.7,1.7,1.7,0,0,1-.1,1h-.1l-1.3,1.1h.1a3,3,0,0,0,1,1.8h.9c.1.2.2.2.4.2h1.2Z" fill="url(#d)"/><path d="M77.1,80.3l1.7,1L78.5,83l-.5-.5H76.6l.3-1.1A4.4,4.4,0,0,0,77.1,80.3Z" fill="url(#e)"/><path d="M77.1,80.3a3.5,3.5,0,0,1,.9-1.7l.8.5c.1.1.4.5.6.5s.2.4.1.7-.1.2-.2.3-.2.2-.3.3a.5.5,0,0,1-.2.4Z" fill="#424851"/><path d="M78.4,84.4h0a6.5,6.5,0,0,1,.2,2h.2a2.9,2.9,0,0,0-2,.7,5.4,5.4,0,0,1-.3-2.5,8.5,8.5,0,0,0,1.6,0C78.3,84.7,78.3,84.6,78.4,84.4Z" fill="url(#f)"/><path d="M76.6,82.4H78l.5.5v1.4c-.1.2-.1.3-.3.4a8.5,8.5,0,0,1-1.6,0v-.2A5.3,5.3,0,0,1,76.6,82.4Z" fill="#2b2c30"/><path d="M76.8,87.3a2.9,2.9,0,0,1,2-.7h.1a1.7,1.7,0,0,0,.1.7,1.7,1.7,0,0,1-.1,1h-.1l-1.3,1.1h-.1A7.9,7.9,0,0,1,76.8,87.3Z" fill="#2b2c30"/><path d="M78.9,86.6a1.7,1.7,0,0,0,.1.7,1.7,1.7,0,0,1-.1,1h-.6a1.3,1.3,0,0,1-.3-1l.4-.5.4-.4Z" fill="#424851"/><path d="M78.6,77.9c0-.2,0-.2.1-.3a1.9,1.9,0,0,1,1-.5h.2l.5,1.3h0l.9,1h.3a.8.8,0,0,0,.4.4l.4.6a4.1,4.1,0,0,0-.4,1.9.8.8,0,0,0,.2-.7,1.7,1.7,0,0,1,.4-1.1h.3a1.6,1.6,0,0,1,.2,1c-.1.7.3,1.3.4,2a20.5,20.5,0,0,1,0,3.5c-.1.3-.1.7-.2,1v-.3h0a2.2,2.2,0,0,0-.3,1.4,2.1,2.1,0,0,1-.3,1.3c-.4.6-.8,1.6-1.5,1.9H79.9c-.2,0-.3,0-.4-.2h-.9a3,3,0,0,1-1-1.8h-.1l1.3-1.1h.1a1.7,1.7,0,0,0,.1-1,1.7,1.7,0,0,1-.1-.7h-.3a6.5,6.5,0,0,0-.2-2h0V83l.3-1.7a.5.5,0,0,0,.2-.4c.1-.1.1-.2.3-.3s.2-.2.2-.3,0-.4-.1-.7-.5-.4-.6-.5l-.8-.5Z" fill="#fff"/><path d="M81.4,90.6l.4-.9.3-1.6a2.1,2.1,0,0,0,0-1.1.6.6,0,0,1-.1-.4,1.8,1.8,0,0,1,.2,1.6v.5a3.8,3.8,0,0,0-.1,1h.1a2.5,2.5,0,0,1-.2.7v.6l-.9.9c.1-.4.1-.7.2-1Z" fill="#030303"/><path d="M79.9,77l.5,1.3h0l.9,1c.1.5.1.9.2,1.3s.1.6.1.8h-.1a.4.4,0,0,1-.1-.3v-.2c-.1-.4,0-1.2-.3-1.5a1.1,1.1,0,0,0-.8,0,.6.6,0,0,1-.1-.4c0-.2-.1-.3-.2-.5s-.1-.3-.2-.4a3.4,3.4,0,0,1-.1-1Z" fill="#8c9197"/><path d="M82.9,89a2.1,2.1,0,0,1-.3,1.3c-.4.6-.8,1.6-1.5,1.9h-.7a6,6,0,0,1,.6-1.9v.5h.3V91c-.1.3-.1.6-.2,1l.9-.9v-.6a2.5,2.5,0,0,0,.2-.7H82l.6-.7h.2Z" fill="#8c9197"/><path d="M82.6,89a4.2,4.2,0,0,1-.6,2.1v-.6a2.5,2.5,0,0,0,.2-.7H82Z" fill="#2b2c30"/><path d="M78.6,77.9c0-.2,0-.2.1-.3a1.9,1.9,0,0,1,1-.5,3.4,3.4,0,0,0,.1,1c.1.1.1.2.2.4s.2.3.2.5a.6.6,0,0,0,.1.4v.2h-.8c-.2,0-.5-.4-.6-.5l-.8-.5Z" fill="#c8c1a8"/><path d="M78.6,77.9c0-.2,0-.2.1-.3a1.9,1.9,0,0,1,1-.5,3.4,3.4,0,0,0,.1,1c.1.1.1.2.2.4Z" fill="#1b1f27"/><path d="M80.5,86a5,5,0,0,1,.1-3.2l.5-.8a2.4,2.4,0,0,1,1.1,1.9h.1a3.7,3.7,0,0,1-.4,2.3l-.6.6c0,.6-.1,1.3-.1,2s0,.8-.2,1.1v.2a6,6,0,0,0-.6,1.9h-.5c-.2,0-.3,0-.4-.2h-.9a3,3,0,0,1-1-1.8h-.1l1.3-1.1h.1a1.7,1.7,0,0,0,.1-1,5,5,0,0,0,.9,2.1H80a3.7,3.7,0,0,1,.1-2.1Z" fill="#424851"/><path d="M79.6,91.8h.2a2.7,2.7,0,0,0,1-1.7H81v.2a6,6,0,0,0-.6,1.9h-.5c-.2,0-.3,0-.4-.2Z" fill="#030303"/><path d="M78.6,91.4a10.5,10.5,0,0,0,.8-1.1c.2-.2.3-.6.6-.7l.4.3a1.9,1.9,0,0,0-.3,1,1.9,1.9,0,0,1-1.2.7h-.3Z" fill="#1b1f27"/><path d="M80.6,86l.6.8c0,.6-.1,1.2-.1,1.8s.1,1.1-.2,1.3h-.5l-.4-.3a.5.5,0,0,0,.3-.5h-.2a5.5,5.5,0,0,1,.1-1.8Z" fill="#fff"/><path d="M80.2,87.3a5.5,5.5,0,0,0-.1,1.8h.2a.5.5,0,0,1-.3.5c-.3.1-.4.5-.6.7a10.5,10.5,0,0,1-.8,1.1,3,3,0,0,1-1-1.8h-.1l1.3-1.1h.1a1.7,1.7,0,0,0,.1-1,5,5,0,0,0,.9,2.1H80a3.7,3.7,0,0,1,.1-2.1Z" fill="#8c9197"/><path d="M81.1,82.5h.3a2.1,2.1,0,0,1,.7,1.2,3.3,3.3,0,0,1-.6,2.6h-.2a3.2,3.2,0,0,1-.8-1.2A3.2,3.2,0,0,1,81.1,82.5Z" fill="#fff"/><path d="M65.5,7a5.7,5.7,0,0,1,2.7-2.6,3.2,3.2,0,0,1,2.7.1l6.2,2.8a12,12,0,0,0,3.7,1.5L81,9l1.7,1,2.4,1.5L97.6,19c8.8,5.2,17.7,10.4,26.5,15.8l6.6,4,3.5,2.2a3.2,3.2,0,0,1,1.2,1.4A24.4,24.4,0,0,1,136,45c.1,1,.3,2.1.4,3.1s-.2-.2-.2-.2,1.1,8.5.6,18.3c-.2,2.2-.4,4-.5,4.8l-1.8-4.2a13.9,13.9,0,0,0-3.6-3.9l-2.1-1.2-5.5-2c-7.7-1.7-12.9-3.1-16.6-4.2a48.9,48.9,0,0,0-8.1-1.6,43.3,43.3,0,0,0-6.9.1,34.1,34.1,0,0,0-9.8,2.7,36.7,36.7,0,0,0-4.8,2.6,14.4,14.4,0,0,0-2.5,1.8c-.4.3-.7.9-1.2,1.2V60.1a4.9,4.9,0,0,1,.1-1.2c-.1-.2-.1-.3-.2-.4h0v-.2a1.9,1.9,0,0,0,.5-1V55.1h-.1v.4a5.3,5.3,0,0,1-.1,1.8h0a.8.8,0,0,1-.2.5h-.1l-.2.2c-.1.2-.1.3-.3.4s-.2.2-.2.3h-.1l-.3.4c-.1.2-.3.3-.5.5h0l-.4.4-.3.3-.2.3-.5.5h0l-.7.6h0l-.8.9h-.1l-1,1.1-1.1,1.1h0l-.9.9c-.1.1-.2.1-.2.3l-1,.9h-.1l-3.3,3.5V69.7h-.1v.9h0V71h.1l.4-.2h0l-.4.4H61a9.2,9.2,0,0,0-.1-2.4c-.1,5.5.1,11,.1,16.6v3.9a13.4,13.4,0,0,1,0,2H60c-5.1,0-10.1-.1-15.2-.3L40.4,91l-1.5-.2-4-.2-11-.4-6.7-.4-2.3-.2-1.5-.5A4.1,4.1,0,0,1,11.6,87a12.9,12.9,0,0,1-.4-1.9c-.2-1.2-.5-2.4-.7-3.7a6.6,6.6,0,0,1-.3-2.4,4.2,4.2,0,0,0,1.5-1.1v-.5c0-1.1.1-2.2.1-3.3a10.3,10.3,0,0,0,.1-1.7V68.9h.1c.3-.1-.3.1.3-.5l-.2-.2c-.2-.2-.1-.5-.2-.8l.3-3.4.2-2.3c0-1.9.3-4,.5-6a141.7,141.7,0,0,1,4.3-25.1l-2.9-1.1a5.6,5.6,0,0,1-2.1-.9,3.6,3.6,0,0,0-1.8.3A3.6,3.6,0,0,0,9,31H8.5a1.2,1.2,0,0,1-.7-.5H7.2c-.1-.1-.2-.1-.2-.2a6.2,6.2,0,0,1,1.6-3.1,6.3,6.3,0,0,1,3.7-1l6.1.7c.3-.7.4-1.6.7-2.3s1.2-3.8,1.9-5.7a8.2,8.2,0,0,1,1.2-2.5c2.6-2,6-2.7,9.1-3.8a1.8,1.8,0,0,0,.6-.9l.4-.6h0L51,6.5l-.2.8a3.1,3.1,0,0,0-.1,1A71,71,0,0,1,63.8,6.9Z" fill="url(#g)"/><path d="M73.7,29.7v-.4h.1l.6.3-.6.5Z" fill="#fff"/><path d="M16.1,64.4h.3v.3l-1,.4C15.6,64.8,15.9,64.6,16.1,64.4Z" fill="#1b1f27"/><path d="M44.4,64.6a7.1,7.1,0,0,1,1.5-1.5h.4c-.2.2-.5.4-.6.6A5.7,5.7,0,0,1,44.4,64.6Z" fill="#1b1f27"/><path d="M43.2,62h.3a6.7,6.7,0,0,1,1.7.8l-.3.2-.6.4a3.4,3.4,0,0,1-.9-.8C43.2,62.4,43.2,62.3,43.2,62Z" fill="#1b1f27"/><path d="M15.1,64.4a2.3,2.3,0,0,1,.7-1,21.4,21.4,0,0,1,3.2-2,26.1,26.1,0,0,1-3,2.7,1.3,1.3,0,0,1-.8.3Z" fill="#1b1f27"/><path d="M28.7,57.3l2-.2c1.8-.2,3.6-.2,5.4-.3h.2a47.5,47.5,0,0,1-5.3.5,8.9,8.9,0,0,1-2.3,0Z" fill="#58828b"/><path d="M127.4,51.2h.2l.2,1.7a5.5,5.5,0,0,1,.2,1.8,5,5,0,0,1,.2,1.7l.3,2.5a12.3,12.3,0,0,1,.2,1.9h-.2Z" fill="#fff"/><path d="M55.9,21.2c.2-.2.2-.2.2-.4l.2-.2c.2.1.1.4.1.6v.9c-.2.2-.3,0-.5,0H54.5a1.8,1.8,0,0,0-.7.5h.1l.9-.3h.1l-.8.2a2.7,2.7,0,0,1-1.3.7h0l-.2.3-.4.4h-.1l.5-.6c.1-.1,0-.3,0-.4a3.6,3.6,0,0,1,1.8-1.2l1.1-.2Z" fill="#1b1f27"/><path d="M35.2,57.7h.7a16.1,16.1,0,0,0,3.5,2.5L42,61.9a9.7,9.7,0,0,1,2.3,2.2Z" fill="#fff"/><path d="M127.2,50.4l5.6,2.1h0c.1.1.1.2.2.2h-.3l-.7-.2h0l.2.2h.3l.6.3h0a4.9,4.9,0,0,1-1.1-.4l-2.5-1a7.7,7.7,0,0,0-1.9-.8h-.2Z" fill="url(#h)"/><path d="M19.5,58.5a2.9,2.9,0,0,1,1.6,0,3.9,3.9,0,0,0,1.5-.2l-2.7,2-1.1.9h-.6a.8.8,0,0,1,.2-.5A2.4,2.4,0,0,1,19,60a6.1,6.1,0,0,1,1.7-1.5Z" fill="#77bed9"/><path d="M7.4,30.3a4.2,4.2,0,0,1,1.9-2.9,11.7,11.7,0,0,1,2.4-.9,1.3,1.3,0,0,1,.1.6h-.4a3.5,3.5,0,0,0-2.3,1.4l-.7.9a1.5,1.5,0,0,1-.4.9H7.4Z" fill="#fff"/><path d="M51.1,24.6a5.4,5.4,0,0,1,1.3-2.2,4.2,4.2,0,0,1,3.5-1.2l-.4.7-1.1.2a3.6,3.6,0,0,0-1.8,1.2h0c-.3.3-.5.8-.8,1.1Z" fill="#fff"/><path d="M22.9,58.4h1.5a1.2,1.2,0,0,1-.5.5c-.7.5-2.8,1.6-3.1,2.3H19.2Z" fill="#77bed9"/><path d="M12.3,26.1l6.1.7a2.5,2.5,0,0,1-.4.9H13.5a6.1,6.1,0,0,1-1.3-.3v-.3h.1Z" fill="#1b1f27"/><path d="M12.4,26.2l2.4.5-1.3.2a6.1,6.1,0,0,1-1.3-.3v-.3Z" fill="#2a344c"/><path d="M34.3,57.8H35l1.2.8A26.8,26.8,0,0,0,39,60.4h-.9a.8.8,0,0,1-.7,0l-1.2-.7-2.9-1.9Z" fill="#568c93"/><path d="M12.5,61.7l.2.3c0,.2-.1.3.2.4l3.6-.2c-.5.4-2,1.3-2.1,1.9H12.3Z" fill="#2d2e82"/><path d="M55.6,22.9l.5.7a10.1,10.1,0,0,0,1.8.9v.7c-.3.3-2.9.4-3.6.5s-.5-.5-.8-.6a.5.5,0,0,0-.4-.3h-.2a3,3,0,0,1,1.2-1.3Z" fill="#77bed9"/><path d="M56.6,22.4a43.4,43.4,0,0,1,7.2,2.4c1.6.7,3.1,1.5,4.7,2.1L71.2,28a5.2,5.2,0,0,1,1.6.6h.5a12.9,12.9,0,0,1-1.9-.4c-1.8-.5-3.7-.9-5.4-1.5l-1.9-.7a2.5,2.5,0,0,0-.9-.4h-.3l-.6-.2-.8-.4h-.2l-1.2-.4a20.9,20.9,0,0,1-3.5-1.3Z" fill="#1b1f27"/><path d="M32.3,11,51,6.5l-.2.8a3.1,3.1,0,0,0-.1,1L31.3,12.5a1.8,1.8,0,0,0,.6-.9l.4-.6Z" fill="#8c9197"/><path d="M58.1,59.9c.2-.2.1-.7.1-1a9.2,9.2,0,0,1,.1-1.6l.3-6.6c.1-1.5.1-3,.2-4.5s.3-4.4.4-6.6.3-4.5.6-6.8a41,41,0,0,1,.6-4.9l.4-2.6h.4c.2.4-.1,1,.1,1.3h0L60.3,37a12.7,12.7,0,0,1-.2,2.8l-.4,5.6v.8l-.3.2a1.9,1.9,0,0,0-.1.8c0,.6-.1,1.3-.1,1.9h-.1a5.3,5.3,0,0,0,.1,1.3c0,.1.1.1.1.2a2.8,2.8,0,0,0,.1,1.3v2.2c-.1,1.1-.1,2.3-.2,3.4A18.5,18.5,0,0,1,59,60v1.3L58.8,63c-.2-.4-.1-.6-.1-1V61c0-.3.1-.8-.1-1.1Z" fill="#2b2c30"/><path d="M58.8,59c.2-1.4,0-2.9.2-4.4V53.5a1.5,1.5,0,0,0,.1.7c-.1,1.1-.1,2.3-.2,3.4A18.5,18.5,0,0,1,59,60v1.3L58.8,63c-.2-.4-.1-.6-.1-1V61A12.7,12.7,0,0,0,58.8,59Z" fill="#030303"/><path d="M59.9,39.2l.2-2.2v.5h0v-.5h.1a12.7,12.7,0,0,1-.2,2.8l-.4,5.6v.8l-.3.2Z" fill="#030303"/><path d="M57.9,24.5l2.7.7-.5,3.4a46.6,46.6,0,0,0-4.5,2.2l-1.6.9-.5.3h-.1c.2-1.2.5-2.3.7-3.5a13.3,13.3,0,0,0,.3-2.1c0-.2-.1-.4-.1-.6s3.3-.2,3.6-.5Z" fill="#3f6071"/><path d="M27.6,56.8a1.2,1.2,0,0,1,1.1.5h-.3v.2a4.2,4.2,0,0,0,1.2.3l3.3-.2a9.1,9.1,0,0,1,1.6,1.1,15.6,15.6,0,0,0,2.8,1.6l-16.5.8c.3-.7,2.4-1.8,3.1-2.3a1.2,1.2,0,0,0,.5-.5h-.3a15,15,0,0,0,2.6-.5v-.4c0-.1.3-.3.3-.4Z" fill="#568c93"/><path d="M58.1,59.9h.5c.2.3.1.8.1,1.1v1.7h-.2a9.7,9.7,0,0,0-1.7.1l-2.9.3c-2.7.3-5.4.6-8.1.7.1-.2.4-.4.6-.6h0l-4-1.8Z" fill="#2d2e82"/><path d="M130.8,41.1l1.4.8c.9.5,2,1,2.4,2a16.9,16.9,0,0,1,.5,2.4l.6,4.7a13.3,13.3,0,0,1,.3,2.8,10.4,10.4,0,0,1-2.4-1.1,15.9,15.9,0,0,0-1.8-.8Z" fill="#241530"/><path d="M56.7,20.3l5.5,1.4h.7l1,.4,1.3.5,2.7,1.1,4.5,1.9,2.5,1.1a25.1,25.1,0,0,1,.4,2.7h0c-.2-.1-.2-.2-.2-.4h-.2l-2-.6a91.7,91.7,0,0,1-9.1-3.8,59.3,59.3,0,0,0-7.1-2.4c0-.3.1-.5.1-.8Z" fill="#2b2c30"/><path d="M56.7,20.3l5.5,1.4h.7l1,.4,1.3.5,2.7,1.1,4.5,1.9h-.1l-2.1-.8a3.8,3.8,0,0,0-1.6-.6l-3.2-.4-5.2-1.4-3.4-1Z" fill="#424851"/><path d="M126,38.3c.9.4,1.7,1,2.6,1.5a13.2,13.2,0,0,1,2,1.2l1.1,10.9-4.5-1.7Z" fill="#241530"/><path d="M120.4,35.1l5.5,3.2,1.2,12.2-5.3-2.1Z" fill="#241530"/><path d="M16.7,64.5h.1a13.3,13.3,0,0,1,1.9-1.4,6.6,6.6,0,0,1,1.7-1.2H22l7.4-.3,7.4-.4H40l.4.4h.1l-.6.4a1.8,1.8,0,0,0,.9.6c.6.4,2.7,1.4,3,1.9l-1.2-.3a12.2,12.2,0,0,0-2.7.1H36.5c-4.8.2-9.7.4-14.5.3H16.7Z" fill="#2d2e82"/><path d="M18.8,32.3h.5a1.3,1.3,0,0,1,.6.9c0,.2,0,.3-.2.4a10.4,10.4,0,0,0-.4,1,60.1,60.1,0,0,0-1.2,7.4c-.3,2-.6,4.1-.8,6.1s-.7,4.8-.9,7.1a36.4,36.4,0,0,0-.5,5.6h2.5a.8.8,0,0,0-.2.5h-.3a2.4,2.4,0,0,0-.9.6l-1.5,1.2-1.1.8c.1-.6,1.6-1.5,2.1-1.9l.6-.5H13.4l3.8-29.1Z" fill="url(#i)"/><path d="M113.6,31.4l6.6,3.6c.2,1.3.3,2.6.4,4l.6,5.4.3,3.1c0,.2.1.6.1.7s-.1.1-.1.2h-.2c-.1-.3-5.6-2.4-6.4-2.7Z" fill="#241530"/><path d="M106.9,42.5l7.8,3.2.8,9.2v.6a5.7,5.7,0,0,1,.1,1.3l-7.9-2.3c0-.5-.1-1-.1-1.5a5.7,5.7,0,0,0-.1-1.3Z" fill="#8282e8"/><path d="M22.4,16.9l2.7-1.6,4.4-1.5a110.9,110.9,0,0,1,11-2.8c-.8,2.1-2.2,4.1-2.7,6.3h-.1l-7.8,1.7a58.7,58.7,0,0,0-8.1,2.6l-1.6.8Z" fill="#4e7696"/><path d="M105.5,26.8l1.1.6,1.8,1.1c1.7.9,3.4,1.8,5,2.8l1.3,14.2a9.6,9.6,0,0,1-1.8-.7l-6-2.5Z" fill="#241530"/><path d="M97.5,38.7l9.2,3.7c.1,2.1.3,4.2.4,6.2s.3,1.9.3,2.7v.3a4.1,4.1,0,0,1,.1,1.1l.2,1.8-9.2-2.7a5,5,0,0,0-.2-1.7Z" fill="#8282e8"/><path d="M115,45.8l6.3,2.5h.2a.1.1,0,0,1,.1.1V49a9.2,9.2,0,0,1,.1,1.6c.1.9.6,6.8.8,7h-.1l-.6-8.9,5.3,2.2c.3,1.7.5,3.4.7,5.2a19.9,19.9,0,0,0,.5,3.4v1.2h-.1l-.9-.2a3.8,3.8,0,0,0-1.5-.5,25,25,0,0,0-2.5-.9l-.8-.2h-.2a5.3,5.3,0,0,1-1.2-.3l-2.5-.7-3-.9V55.7c-.1-.3,0-.6-.1-.8Z" fill="#8282e8"/><path d="M63.6,26.2l1.1.4a252.1,252.1,0,0,0-2.4,31.2,93.7,93.7,0,0,0-.1,10.6h0c.1-.2.1-.1.1-.2a2,2,0,0,0,.6-.7l9.3-10a8.6,8.6,0,0,0,0-1.6c0-1.1.1-2.3.1-3.4V37.6c0-1.8-.2-3.6-.2-5.3a1.2,1.2,0,0,0,.2-.8V29.8a17.3,17.3,0,0,1-3.1-.7l-4.5-.9.2-1.5,8.6,2.5a1.1,1.1,0,0,0,.1.5v.1h0l.2.3a13.3,13.3,0,0,0,0,2c0,.9.1,1.9.1,2.9.1,6.2.1,12.4,0,18.5v2.3c-.1.5,0,1-.1,1.5V55.1h-.1v.4a5.3,5.3,0,0,1-.1,1.8h0a.8.8,0,0,1-.2.5h-.1l-.2.2c-.1.2-.1.3-.3.4s-.2.2-.2.3h-.1l-.3.4c-.1.2-.3.3-.5.5h0l-.4.4-.3.3-.2.3-.5.5h0l-.7.6h0l-.8.9h-.1l-1,1.1-1.1,1.1h0l-.9.9c-.1.1-.2.1-.2.3l-1,.9h-.1l-3.3,3.5V69.7h-.1v.9h0V71h.1l.4-.2h0l-.4.4H61a9.2,9.2,0,0,0-.1-2.4,5.3,5.3,0,0,1,.1-1.3V65.3c0-2.9.1-5.8.2-8.7.3-8.3.6-16.6,1.6-24.8C63.1,29.9,63.3,28.1,63.6,26.2Z" fill="#1b1f27"/><path d="M95.9,21.5l9.5,5.2,1.3,15.6-9.3-3.7Z" fill="#241530"/><path d="M86.1,34l11.1,4.6c.2,2.9.5,5.7.7,8.6a11.4,11.4,0,0,1,.2,2.6,15,15,0,0,0,.2,2c-1.2-.4-10.9-3.2-11.1-3.4s-.1-.1-.2-.2-.1-2.5-.1-3.7C86.7,41,86.4,37.5,86.1,34Z" fill="#8282e8"/><path d="M40.5,11a61.9,61.9,0,0,1,6.2-1.3c3.4-.6,6.7-1.2,10.1-1.5a42.5,42.5,0,0,1,7.9-.5l-2,6.3L37.8,17.3C38.3,15.1,39.7,13.1,40.5,11Z" fill="#201f42"/><path d="M82.3,47l3.3,1,1.3.3v0h0c.1.1.1.2.2.2s9.9,3,11.1,3.4a15,15,0,0,1-.2-2v.3a5,5,0,0,1,.2,1.7l9.2,2.7-.2-1.8a4.1,4.1,0,0,0-.1-1.1v.1a5.7,5.7,0,0,1,.1,1.3c0,.5.1,1,.1,1.5l7.9,2.3a5.7,5.7,0,0,0-.1-1.3v-.6h.1c.1.2,0,.5.1.8v1.1l3,.9,2.5.7a5.3,5.3,0,0,0,1.2.3h.2l.8.2a25,25,0,0,1,2.5.9,11,11,0,0,0-2.6-.2,13.6,13.6,0,0,1-1.7-.4,29.9,29.9,0,0,1-3.2-.8l-3.8-1a16,16,0,0,0-2.1-.5l-1.7-.4-4.1-1.1-2.3-.6-1.2-.4h-.7l-3.9-.6a34.3,34.3,0,0,0-16.7,2.8,36.7,36.7,0,0,0-4.8,2.6,14.4,14.4,0,0,0-2.5,1.8c-.4.3-.7.9-1.2,1.2V60.1a4.9,4.9,0,0,1,.1-1.2v-.3a3.9,3.9,0,0,1,.8-1L75.6,56Z" fill="#201f42"/><path d="M82.3,47l3.3,1,1.3.3v0h0c.1.1.1.2.2.2s9.9,3,11.1,3.4a15,15,0,0,1-.2-2v.3a5,5,0,0,1,.2,1.7l9.2,2.7-.2-1.8a4.1,4.1,0,0,0-.1-1.1v.1a5.7,5.7,0,0,1,.1,1.3c0,.5.1,1,.1,1.5l7.9,2.3a5.7,5.7,0,0,0-.1-1.3v-.6h.1c.1.2,0,.5.1.8v1.1l3,.9,2.5.7a5.3,5.3,0,0,0,1.2.3h.2l.8.2a25,25,0,0,1,2.5.9,11,11,0,0,0-2.6-.2,13.6,13.6,0,0,1-1.7-.4,29.9,29.9,0,0,1-3.2-.8l-3.8-1a16,16,0,0,0-2.1-.5l-1.7-.4-4.1-1.1-2.3-.6-1.2-.4L83.4,49a3.9,3.9,0,0,0-1.4.8,26.5,26.5,0,0,0-2.1,2.6L76,58l-.9,1.3-.4.5a1.9,1.9,0,0,1-1.3.3,4.9,4.9,0,0,1,.1-1.2v-.3a3.9,3.9,0,0,1,.8-1L75.6,56Z" fill="#8c9197"/><path d="M21.8,21.7a58.7,58.7,0,0,1,8.1-2.6l7.8-1.7a4.3,4.3,0,0,1-.4,1.4,23.3,23.3,0,0,1-.7,2.5c-.7,2.6-1.4,5.2-2,7.9h-.1l-15.2,3h-.5l-1.6.4,3-10.2Z" fill="#77bed9"/><path d="M20.2,22.5l1.6-.8c-.4.9-.6,1.9-.9,2.8s-.9,2.8-1.2,4.2-.5,2.4-.9,3.6l-1.6.4Z" fill="#6aaac4"/><path d="M84.4,15.2l1.7.9,4.3,2.4c1.8,1,3.6,1.8,5.3,2.9l1.5,17L86.1,33.8a19,19,0,0,1-.3-2.5c-.1-1.2-.1-2.4-.3-3.6C85.2,23.5,84.7,19.4,84.4,15.2Z" fill="#241530"/><path d="M61.5,25.3l.8.4.6.2.7.3c-.3,1.9-.5,3.7-.8,5.6-1,8.2-1.3,16.5-1.6,24.8-.1,2.9-.2,5.8-.2,8.7v2.4a5.3,5.3,0,0,0-.1,1.3c-.1,5.5.1,11,.1,16.6v3.9a13.4,13.4,0,0,1,0,2c-.6-.3-1-1-1.5-1.3l-1.3-.8-2.2-1h-.1l-.8-.5c-.1,0-.1-.1-.2-.2l-.2-.2h.2v-.2l.9.5,1.3.6a8.3,8.3,0,0,0,1.6.9l-.4-.4a.1.1,0,0,1,.1-.1c0-.1-.3-.2-.3-.5-1.9-2.2-3.9-4.9-6.3-6.6l-.6-.5c-.2,0-.2-.1-.3-.2s-1.2-.9-1.6-1.2a2.7,2.7,0,0,1-.7-.8,17.9,17.9,0,0,0,6-1.3c2.2-1,3.1-2.8,3.9-5.1a6.5,6.5,0,0,0,.4-2l-.2-.2a1.4,1.4,0,0,1,.1-.9V67.6c0-.2.1-.5-.1-.7s.1-.9.2-1.1V63l.2-1.7V60a18.5,18.5,0,0,0,.1-2.4c.1-1.1.1-2.3.2-3.4V52a2.8,2.8,0,0,1-.1-1.3c0-.1-.1-.1-.1-.2a5.3,5.3,0,0,1-.1-1.3h.1c0-.6.1-1.3.1-1.9a1.9,1.9,0,0,1,.1-.8l.3-.2v-.8l.4-5.6a12.7,12.7,0,0,0,.2-2.8l1-10.2Z" fill="url(#j)"/><path d="M59.7,46.2,59.4,52a2.8,2.8,0,0,1-.1-1.3c0-.1-.1-.1-.1-.2a5.3,5.3,0,0,1-.1-1.3h.1c0-.6.1-1.3.1-1.9a1.9,1.9,0,0,1,.1-.8Z" fill="#1b1f27"/><path d="M58.4,72.4a4.1,4.1,0,0,1-.1,1.9c0,3.1.2,6.3.2,9.5.1,1.1,0,2.3.1,3.4a6.8,6.8,0,0,0,.2,2h-.2l-.4-.4a.1.1,0,0,1,.1-.1c0-.1-.3-.2-.3-.5-1.9-2.2-3.9-4.9-6.3-6.6l-.6-.5c-.2,0-.2-.1-.3-.2s-1.2-.9-1.6-1.2a2.7,2.7,0,0,1-.7-.8,17.9,17.9,0,0,0,6-1.3C56.7,76.5,57.6,74.7,58.4,72.4Z" fill="#201f42"/><path d="M37.8,17.3,62.7,14c-.3,1-.5,2-.8,3a31,31,0,0,0-.8,4.2,37.2,37.2,0,0,0-4.8-1.1l-.3.6a3.9,3.9,0,0,0-3.6,1,5.6,5.6,0,0,0-1.9,3.1c-.6.1-1.8.1-2.2.6a2.9,2.9,0,0,0-.2,1.6c-.3.2-.6.1-.9.2l-1.8.2c-1,.2-8.8,1.2-9.2,1.6h0l-1.6.3c.6-2.7,1.3-5.3,2-7.9a23.3,23.3,0,0,0,.7-2.5,4.3,4.3,0,0,0,.4-1.4Z" fill="#6aaac4"/><path d="M74.5,29.5l11.3,4.4a2.8,2.8,0,0,1,.1.9c0,.4.1.9.1,1.3.3,3,.5,5.9.7,8.8.1,1,.1,2,.2,3v.4L85.6,48l-3.3-1-6.7,9-1.2,1.6a3.9,3.9,0,0,0-.8,1v.3c-.1-.2-.1-.3-.2-.4h0v-.2a1.9,1.9,0,0,0,.5-1c.1-.5,0-1,.1-1.5V53.4c.1-6.1.1-12.3,0-18.5,0-1-.1-2-.1-2.9a13.3,13.3,0,0,1,0-2Z" fill="#8282e8"/><path d="M34,51.9l17-1.4,3.6-.2a6.5,6.5,0,0,0,2-.2c.9-.3,1.1-1.5,1.7-2.1v.2l-.6,11.1-3.3.5c-3.4.3-6.9.4-10.3.6l-2.5.2a4.8,4.8,0,0,1-1.2,0h0a.3.3,0,0,0-.1-.2h-.1l-.9-.2a16.1,16.1,0,0,1-3.5-2.5,19.7,19.7,0,0,0,2.4-.3,2.4,2.4,0,0,0,1.2-.3c.2-.1.4-.2.4-.4h-.1a13.8,13.8,0,0,1-3.5.3h-.2c-1.8.1-3.6.1-5.4.3l-2,.2a1.2,1.2,0,0,0-1.1-.5l-.6.3-.4.3-2.5.4a10.9,10.9,0,0,1,1.1-1l-.3-.2h-.2c.2-.2.3-.2.3-.5s2.3-2.3,3.3-3.4,0-.1.1-.2h0l.7-.2h0a3.3,3.3,0,0,0,1,0h0l3.1-.3a.8.8,0,0,0,.1-.4h.1v.3H34Z" fill="#58828b"/><path d="M29.1,52.3h0a3.3,3.3,0,0,0,1,0,3.6,3.6,0,0,1-.6,2,4,4,0,0,1-2.1,1.2l.5-.7C28.3,54,28.8,53.1,29.1,52.3Z" fill="#568c93"/><path d="M27.6,56.8a2.5,2.5,0,0,1,1.2-.1l5-.4h.1a39.8,39.8,0,0,0,4.9,0,3.4,3.4,0,0,1,1,0,1.7,1.7,0,0,1-1,.1l-1.8.2h-.9c-1.8.1-3.6.1-5.4.3l-2,.2A1.2,1.2,0,0,0,27.6,56.8Z" fill="#030303"/><path d="M28.4,52.5l.7-.2c-.3.8-.8,1.7-1.2,2.5l-.5.7-2.2,1.3h0l-.3-.2h-.2c.2-.2.3-.2.3-.5s2.3-2.3,3.3-3.4,0-.1.1-.2Z" fill="#77bed9"/><path d="M58.4,62.7h.2V62c0,.4-.1.6.1,1v2.8c-.1.2,0,1-.2,1.1-3.3.9-6.7,1.8-10.1,2.4a98.9,98.9,0,0,1-26.6,1.3c-3.2-.3-6.7-.7-9.5-2.2l-.2-.2c-.2-.2-.1-.5-.2-.8l.3-3.4H14l.4.4a2.4,2.4,0,0,1,.6.8h.1l.4-.2,1-.4.2-.2H22c4.8.1,9.7-.1,14.5-.3h3.4a12.2,12.2,0,0,1,2.7-.1l1.2.3.2.3h.4a5.7,5.7,0,0,0,1.3-.8c2.7-.1,5.4-.4,8.1-.7l2.9-.3A9.7,9.7,0,0,1,58.4,62.7Z" fill="#201f42"/><path d="M12.5,64H14l.4.4a2.4,2.4,0,0,1,.6.8h0a8.6,8.6,0,0,1-1.7-.3l-.9-.4Z" fill="#3f6071"/><path d="M45.7,63.8c2.7-.1,5.4-.4,8.1-.7l2.9-.3a9.7,9.7,0,0,1,1.7-.1l-2.9.6-8.4,1.1-2,.2c-.2,0-.5.1-.7,0A5.7,5.7,0,0,0,45.7,63.8Z" fill="#3f6071"/><path d="M16.7,64.5H22c4.8.1,9.7-.1,14.5-.3h3.4a12.2,12.2,0,0,1,2.7-.1l1.2.3.2.3H42.7l-2.4.2a182.3,182.3,0,0,1-20.9.5,21,21,0,0,1-4.3-.2l.4-.2,1-.4Z" fill="#3f6071"/><path d="M65.5,7a5.7,5.7,0,0,1,2.7-2.6,3.2,3.2,0,0,1,2.7.1l6.2,2.8a12,12,0,0,0,3.7,1.5L81,9l1.7,1,2.4,1.5L97.6,19c8.8,5.2,17.7,10.4,26.5,15.8l6.6,4,3.5,2.2a3.2,3.2,0,0,1,1.2,1.4A24.4,24.4,0,0,1,136,45c.1,1,.3,2.1.4,3.1s-.2-.1-.2-.4h-.6V48l-.7-4.3-.8-.9c-1-.7-2.2-1.2-3.2-1.8s-3.1-1.8-4.6-2.7a46.4,46.4,0,0,0-4.2-2.5,17.4,17.4,0,0,1-1.9-1,20.1,20.1,0,0,0-2.5-1.4l-4.1-2.3-9.4-5.2c-8.1-4.6-16.3-9-24.5-13.5L74.8,9.8,72.5,8.4,71,7.8a2,2,0,0,0-1.5.3c-2.4,1.5-3.8,10.6-4.3,13.4l-.2.8-1-.2h-.1l-1-.4h-.6l.3-1.9h-.1a11.6,11.6,0,0,0-.4,1.8l-.8-.2.3-1.8a35.8,35.8,0,0,1,.9-3.5,48.4,48.4,0,0,1,1.4-5.1,18.4,18.4,0,0,1,1.5-3.6A.4.4,0,0,0,65.5,7Z" fill="url(#k)"/><path d="M65.7,7.9a6.6,6.6,0,0,1,2-2.4,3.4,3.4,0,0,1,2.4-.6H70c-.5.3-1.1.3-1.5.7s-2.6,3.6-3.1,5.4L62.9,21.7h-.6l.3-1.9a4,4,0,0,0,.3-1.5l.6-2.4A42,42,0,0,1,65.7,7.9Z" fill="#fff"/><path d="M65.5,7a5.7,5.7,0,0,1,2.7-2.6,3.2,3.2,0,0,1,2.7.1l6.2,2.8a12,12,0,0,0,3.7,1.5L81,9c0,.2.1.3,0,.4a58.6,58.6,0,0,1-6.9-2.8L71.5,5.4l-1.4-.5a3.4,3.4,0,0,0-2.4.6,6.6,6.6,0,0,0-2,2.4,42,42,0,0,0-2.2,7.9l-.6,2.4a4,4,0,0,1-.3,1.5h-.1a11.6,11.6,0,0,0-.4,1.8l-.8-.2.3-1.8a35.8,35.8,0,0,1,.9-3.5,48.4,48.4,0,0,1,1.4-5.1,18.4,18.4,0,0,1,1.5-3.6A.4.4,0,0,0,65.5,7Z" fill="url(#l)"/><path d="M64,22.1C64.8,18.6,66,9,68.9,7A3,3,0,0,1,71,6.7h.3a4.2,4.2,0,0,1,1.3.7l2.2,1.2c3.2,1.7,6.3,3.6,9.4,5.3L106,26.3c5.3,2.9,10.5,5.9,15.7,8.9l5,2.9,4.1,2.4c1,.6,2.2,1.1,3.2,1.8a1.6,1.6,0,0,1,.7,1.1v.3l-.8-.9c-1-.7-2.2-1.2-3.2-1.8s-3.1-1.8-4.6-2.7a46.4,46.4,0,0,0-4.2-2.5,17.4,17.4,0,0,1-1.9-1,20.1,20.1,0,0,0-2.5-1.4l-4.1-2.3-9.4-5.2c-8.1-4.6-16.3-9-24.5-13.5L74.8,9.8,72.5,8.4,71,7.8a2,2,0,0,0-1.5.3c-2.4,1.5-3.8,10.6-4.3,13.4l-.2.8Z" fill="#29235c"/><path d="M64.7,28.5l7.4,1.6v2.2c0,1.7.2,3.5.2,5.3V52.4c0,1.1-.1,2.3-.1,3.4a8.6,8.6,0,0,1,0,1.6l-9.3,10a2,2,0,0,1-.6.7Z" fill="#8282e8"/><path d="M65.4,21.6c.5-2.8,1.9-11.8,4.2-13.4A1.6,1.6,0,0,1,71.1,8a6.7,6.7,0,0,1,1.2.6l2,1.1,6.6,3.6a34.7,34.7,0,0,1,3.3,1.8c.2,1.9.3,3.7.5,5.6s.5,5.3.7,8l.3,3.4a4.9,4.9,0,0,1,.1,1.7L75.5,29.6,75,26.5l-9.8-4.1Z" fill="#241530"/><path d="M19.3,32.2l15.2-3a98.7,98.7,0,0,0-2,10.6c-.3,2.3-.6,4.5-.8,6.8v.2A5.3,5.3,0,0,1,30.2,48v.2a11.3,11.3,0,0,1-.3,2.5l-.8,1.6h0l-.7.2h0c-.1.1-.1,0-.1.2S26,55,25,56.2a4.8,4.8,0,0,1-1.1.9,3.8,3.8,0,0,1-1,.3l-1.8.3A15.2,15.2,0,0,0,19,58c0,.2-.1.2,0,.4h1.7A6.1,6.1,0,0,0,19,60a2.4,2.4,0,0,0-.6.8H15.9a36.4,36.4,0,0,1,.5-5.6c.2-2.3.5-4.7.9-7.1s.5-4.1.8-6.1a60.1,60.1,0,0,1,1.2-7.4,10.4,10.4,0,0,1,.4-1c.2-.1.2-.2.2-.4A1.3,1.3,0,0,0,19.3,32.2Z" fill="#aed7da"/><path d="M25.9,52.7l4.3-4.5a11.3,11.3,0,0,1-.3,2.5l-.8,1.6h0l-.7.2h0c-.1.1-.1,0-.1.2S26,55,25,56.2a4.8,4.8,0,0,1-1.1.9,3.8,3.8,0,0,1-1,.3l-1.8.3Z" fill="#6aaac4"/><path d="M19.3,32.2l15.2-3a98.7,98.7,0,0,0-2,10.6c-.3,2.3-.6,4.5-.8,6.8v.2A5.3,5.3,0,0,1,30.2,48l1-11.5a17.6,17.6,0,0,0-3-1l-3.4-.8-5.1-1.2c.2-.1.2-.2.2-.4A1.3,1.3,0,0,0,19.3,32.2Z" fill="#58828b"/><path d="M52.9,24.7h.2a.5.5,0,0,1,.4.3c.3.1.5.4.8.6s.1.4.1.6a13.3,13.3,0,0,1-.3,2.1c-.2,1.2-.5,2.3-.7,3.5h.1l.5-.3,1.6-.9a46.6,46.6,0,0,1,4.5-2.2c-.2,2.1-.5,4.3-.7,6.4l-.6,7.8L58.5,47a4.9,4.9,0,0,1-.1,1.2V48c-.6.6-.8,1.8-1.7,2.1a6.5,6.5,0,0,1-2,.2l-3.6.2L34,51.9h-.6v-.3h-.1a.8.8,0,0,1-.1.4l-3.1.3h0a3.3,3.3,0,0,1-1,0l.8-1.6a11.3,11.3,0,0,0,.3-2.5V48a5.3,5.3,0,0,0,1.4-1.2v-.2c.2-2.3.5-4.5.8-6.8a98.7,98.7,0,0,1,2-10.6h.1l1.6-.3h0c.4-.4,8.2-1.4,9.2-1.6l1.8-.2c.3-.1.6,0,.9-.2s-.1,1-.2,1.5H48a21.2,21.2,0,0,1,.2-2.4h0c.1-.1.1-.3.2-.4s2.1-.7,2.8-.8l1.1-.2Z" fill="#201f42"/><path d="M33.7,51.9h0a2.7,2.7,0,0,0,0-.9c0-.5.1-.9.1-1.4h.3v2.3Z" fill="#466975"/><path d="M30.4,50.2a7.6,7.6,0,0,0-.3,2.1h0a3.3,3.3,0,0,1-1,0l.8-1.6Z" fill="#3f6071"/><path d="M33.8,44.8v-.4h0A.4.4,0,0,1,34,44c.1.1.1.2.1.4a9,9,0,0,0-.3,1.6l-.3,3.2v1.4a1.7,1.7,0,0,1-.1.7h-.1c0-1.4.1-2.7.2-4.1l.3-2Z" fill="#466975"/><path d="M30.2,48a5.3,5.3,0,0,0,1.4-1.2,8.3,8.3,0,0,1-.6,2.1l-.6,1.3-.5.5a11.3,11.3,0,0,0,.3-2.5Z" fill="#677586"/><path d="M52.9,24.7h.2a.5.5,0,0,1,.4.3c.3.1.5.4.8.6s.1.4.1.6a13.3,13.3,0,0,1-.3,2.1c-.2,1.2-.5,2.3-.7,3.5s-.7,3.5-1,5.3-.3,1.6-.6,2.4l-.5.6a5,5,0,0,1-2.7.5h-.7c-.2,0-.3-.1-.4-.3a2.9,2.9,0,0,1,0-1.6L48,28.5a21.2,21.2,0,0,1,.2-2.4h0c.1-.1.1-.3.2-.4s2.1-.7,2.8-.8l1.1-.2Z" fill="#2b2c30"/><path d="M47.6,39h.6a1.3,1.3,0,0,0,.7-.9,21.5,21.5,0,0,0,.5-3.4,41.1,41.1,0,0,1,1.2-6.1,3,3,0,0,1-.1,1.3l-.3,1.9a42.5,42.5,0,0,1-.8,6.1,2.6,2.6,0,0,1-.5,1.2,1.8,1.8,0,0,1-1,.7h-.2a.8.8,0,0,1-.1-.4v-.2Z" fill="#424851"/><path d="M47.7,40.2a3.7,3.7,0,0,0,2.2-.8,1.4,1.4,0,0,0,.8-.7h0a25.3,25.3,0,0,0,.7-3.8c.5-2.6.9-5.2,1.3-7.8a6.8,6.8,0,0,0,.2-1.4c0-.2,0-.6.1-.7h.1a.5.5,0,0,1,.4.3c.3.1.5.4.8.6s.1.4.1.6a13.3,13.3,0,0,1-.3,2.1c-.2,1.2-.5,2.3-.7,3.5s-.7,3.5-1,5.3-.3,1.6-.6,2.4l-.5.6a5,5,0,0,1-2.7.5h-.7c-.2,0-.3-.1-.4-.3a2.9,2.9,0,0,1,0-1.6V39h0C47.6,39.5,47.5,39.9,47.7,40.2Z" fill="#030303"/><path d="M47.7,40.2a3.7,3.7,0,0,0,2.2-.8,1.4,1.4,0,0,0,.8-.7h0a25.3,25.3,0,0,0,.7-3.8c.5-2.6.9-5.2,1.3-7.8a6.8,6.8,0,0,0,.2-1.4c0-.2,0-.6.1-.7h.1a.5.5,0,0,1,.4.3c-.1-.1-.4-.2-.4-.1l-.2,1.2v.4h0c0-.1.1-.2.1-.3v-.3c.1-.3,0-.7.2-.8s0,.3,0,.5v.7c-.2,1.1-.4,2.2-.5,3.3s-.1,1.4-.2,2.1-.6,3.2-1,4.8a23.4,23.4,0,0,1-.4,2.6,1.7,1.7,0,0,1-.6.8,3.4,3.4,0,0,1-2.4.5Z" fill="#1b1f27"/><path d="M51.2,24.8l1.1-.2.4.2h-.6a10,10,0,0,0-1.5,3.7,41.1,41.1,0,0,0-1.2,6.1,21.5,21.5,0,0,1-.5,3.4,1.3,1.3,0,0,1-.7.9h-.6v-.3L48,28.5a21.2,21.2,0,0,1,.2-2.4h0c.1-.1.1-.3.2-.4S50.5,24.9,51.2,24.8Z" fill="#3f6071"/><path d="M12,68a85.3,85.3,0,0,0,12.5,2.5,82.5,82.5,0,0,0,24-1.2c4.2-.8,7.7-1.7,10.1-2.4.2.2.1.5.1.7v1.7a1.4,1.4,0,0,0-.1.9l.2.2a6.5,6.5,0,0,1-.4,2c-.8,2.3-1.7,4.1-3.9,5.1a17.9,17.9,0,0,1-6,1.3L50,80l3.3,2.6A20.2,20.2,0,0,1,58,88.1l.3.5a.9.9,0,0,1,.3.5,8.3,8.3,0,0,1-1.6-.9l-1.3-.6-.9-.5v.2a14.1,14.1,0,0,0,3.3,2.1,5.5,5.5,0,0,1,1.3.8c.5.3.9,1,1.5,1.3H60c-5.1,0-10.1-.1-15.2-.3L40.4,91l-1.5-.2-4-.2-11-.4-6.7-.4-2.3-.2-1.5-.5A4.1,4.1,0,0,1,11.6,87a12.9,12.9,0,0,1-.4-1.9c-.2-1.2-.5-2.4-.7-3.7a6.6,6.6,0,0,1-.3-2.4,1.5,1.5,0,0,0,.8-.5,1.8,1.8,0,0,0,.6-1l.2-5.1Z" fill="#29235c"/><path d="M58.6,70.2l.2.2a6.5,6.5,0,0,1-.4,2c-.8,2.3-1.7,4.1-3.9,5.1a17.9,17.9,0,0,1-6,1.3,2.7,2.7,0,0,0,.7.8c.4.3,1.5.8,1.6,1.2s.1.2.3.2l.6.5c2.4,1.7,4.4,4.4,6.3,6.6,0,.3.3.4.3.5a.1.1,0,0,0-.1.1l.4.4a8.3,8.3,0,0,1-1.6-.9l-1.3-.6-.9-.5v.2h-.2l.2.2c.1.1.1.2.2.2l.8.5h.2a.3.3,0,0,1,.1.2h0l-.3-.2h-.1a1,1,0,0,1-.7-.4l-1-.7-1-.6h-.2v-.4h-.1a2.1,2.1,0,0,0-.4-.7l-.5-.4h-.5a1.9,1.9,0,0,0-1.3,0h0v-.2a1.3,1.3,0,0,1-.7-.6,13.4,13.4,0,0,1-1.8-.7A34.4,34.4,0,0,0,42.4,81h-.6a29,29,0,0,1-5.1.2,115.3,115.3,0,0,1-18.6-.8h-.2a2.9,2.9,0,0,0-1.6-.4c-2-.3-4.1-.5-6.1-1a4.2,4.2,0,0,0,1.5-1.1v-.5c0-1.1.1-2.2.1-3.3a10.3,10.3,0,0,0,.1-1.7v-.2H12c1.8,1.1,4.1,1.6,5.5,3.2l2.1,3.5,21.9.3,1.3-2.8A4,4,0,0,1,44.1,75a23,23,0,0,1,4.3-1.8l6.4-1.9,3.7-1Z" fill="#030303"/><path d="M44.3,78.5a1.2,1.2,0,0,0,1,.3,19.4,19.4,0,0,1-3.4.2l.3-.5v.2h2Z" fill="#6aaac4"/><path d="M16.8,75.5h0l.3.3.4.5c.2.3.2.6.5.8h.1l-.5-.8-.2-.2c0-.1,0-.2-.1-.2h-.1l-.2-.3h0a11.7,11.7,0,0,1,1.7,2.6,4.1,4.1,0,0,0,.5.9h-.4v-.4a6.1,6.1,0,0,1-.7-1A12.2,12.2,0,0,0,16.8,75.5Z" fill="#fff"/><path d="M43.5,76h.1l.2-.2h0v.3a2,2,0,0,0,.2,1.5,4.3,4.3,0,0,0,.4.7h-2v-.2A8.5,8.5,0,0,1,43.5,76Z" fill="#8c9dac"/><path d="M49.2,76h.1c.4.7.7,1.3,1.5,1.5h.8c.6,0,1.1.1,1.5-.4h.2c.1.1.1,0,.1.2h.1v.2h.1a5.3,5.3,0,0,1-1.2.3l-4.2.5.5-.7c.2-.4.2-.8.4-1.2v-.2C49.2,76.3,49.2,76.2,49.2,76Z" fill="url(#m)"/><path d="M49.2,76h.1c.4.7.7,1.3,1.5,1.5h.8c.6,0,1.1.1,1.5-.4h.2c.1.1.1,0,.1.2h.1v.2h.1a5.3,5.3,0,0,1-1.2.3H52a3.7,3.7,0,0,1-1.8-.1,2,2,0,0,1-1-1.2v-.2C49.2,76.3,49.2,76.2,49.2,76Z" fill="url(#n)"/><path d="M11.8,72.4,14,73.5c.9.4,2.5.9,3,1.7h0l.2.3h.1c.1,0,.1.1.1.2l.2.2.5.8H18c-.3-.2-.3-.5-.5-.8l-.4-.5-.3-.3h0l-.4-.2-.5-.2-2.2-.9-.6.6v2a2.7,2.7,0,0,1,0,.9h-.2l-1.2-.4c0-1.1.1-2.2.1-3.3A10.3,10.3,0,0,0,11.8,72.4Z" fill="#b6d1df"/><path d="M13.1,74.8l.6-.6,2.2.9.5.2.4.2A12.2,12.2,0,0,1,18,77.4a6.1,6.1,0,0,0,.7,1v.4l-3.6-.6-2.4-.4H13a2.7,2.7,0,0,0,0-.9v-2Z" fill="#77bed9"/><path d="M14.9,77.4a4.4,4.4,0,0,1-.7-1.9c.1-.1.1-.2.3-.2a2.1,2.1,0,0,0,.4,1.1H15a1.3,1.3,0,0,0,.2.9h-.3Z" fill="#fff"/><path d="M15.2,77.3l.5.2,1.1.3h.1l.8.2h.5v.3a12.5,12.5,0,0,1-1.9-.3h0a2,2,0,0,1-1.3-.6Z" fill="#aed7da"/><path d="M15,76.4a4.3,4.3,0,0,1-.1-.5,1.5,1.5,0,0,1,.8-.4,1.3,1.3,0,0,1,.8.3c-.1.1-.2.1-.2.3h-.6a1.3,1.3,0,0,0-.4.6c0,.2.1.3.3.5h0v.2l-.5-.2A1.3,1.3,0,0,1,15,76.4Z" fill="#58828b"/><path d="M16.5,75.8l.3.4h.1c.1-.3-.4-.4-.5-.8l.4.2A12.2,12.2,0,0,1,18,77.4a.8.8,0,0,0-.8.1l-.2.3h-.2l-1.1-.3v-.2h0c-.2-.2-.3-.3-.3-.5a1.3,1.3,0,0,1,.4-.6h.6C16.3,75.9,16.4,75.9,16.5,75.8Z" fill="#6aaac4"/><path d="M57,71.1l1.5-.4-.3,1.1c-.7,2.1-1.5,4.5-3.6,5.5l-.9.4h-.1v-.2h-.1c0-.2,0-.1-.1-.2h-.2c-.4.5-.9.4-1.5.4h-.8c-.8-.2-1.1-.8-1.5-1.5h-.1c0,.2,0,.3.1.4v.2c-.2.4-.2.8-.4,1.2l-.5.7h-.1a14.3,14.3,0,0,1-2.9.3,1.2,1.2,0,0,1-1-.3,4.3,4.3,0,0,1-.4-.7,2,2,0,0,1-.2-1.5V76h0l-.2.2h-.1a7.8,7.8,0,0,1,3.2-1.8L51,72.8l2.7-.8Z" fill="#fff"/><path d="M48.1,74.6l.7-.4H49v.4l-.3.7C48.7,75.1,48.4,74.9,48.1,74.6Z" fill="#6aaac4"/><path d="M57,71.1l1.5-.4-.3,1.1-.5.2-1,.4-2.1.6h-.1l1-.2,2.3-.8Z" fill="#b6d1df"/><path d="M46.7,74.2,51,72.8V73h-.2v.2h-.2v.2l.2.2-.3.2h-.1c-.1-.2.1-.1-.1-.4h-.1l-.3.4c-.1.1-.1.3-.3.3l-.3.3-.2.2v-.4h-.2l-.7.4h-.6C47.3,74.3,47,74.3,46.7,74.2Z" fill="#c6cac9"/><path d="M45.5,75h.2v.2h.7a2.1,2.1,0,0,0-1.1.4,1.7,1.7,0,0,0-.3,1,1.3,1.3,0,0,0,.7.9h0v.2c.2.3.4.3.8.3h.2c.1.2.1.2.3.2H45.3A1.9,1.9,0,0,1,44,77.1v-.3a2,2,0,0,1,.1-.7C44.3,75.5,44.9,75.3,45.5,75Z" fill="#9c9b93"/><path d="M44.7,76.7c.1.3.1.6.2.9l-.2.2c-.2-.2-.3-.3-.3-.5a1.3,1.3,0,0,0,.3-.5Z" fill="#8c9197"/><path d="M53,73.6c.1,0,.2,0,.4.2V74h.1c.2.3.1.7.3,1v.6c.2-.2.2-.8.2-1.1s-.3-1.1-.2-1.1a1,1,0,0,1,.3.9,4.9,4.9,0,0,1-.1,1.2h0c0,.1-.1.2-.1.3a1.4,1.4,0,0,0-.3.9c0,.2-.1.5-.1.7v-.2h-.1c0-.2,0-.1-.1-.2h-.2c-.4.5-.9.4-1.5.4h.2v-.2H52a2.8,2.8,0,0,0,1.5-1.5h-.4v-.4l-.3-.2-.5-.5h-.1a.8.8,0,0,0-.8-.1h.1c.2,0,.5-.1.7,0h.1c0-.1,0-.2.2-.2l.9.2-1.1-.6h.2A.6.6,0,0,0,53,73.6Z" fill="#c6cac9"/><path d="M53,75.3v-.4h.2l.4.5h0a.9.9,0,0,0-.1.5h-.4Z" fill="#c8c1a8"/><path d="M51.8,77.6h.5a2.6,2.6,0,0,0,1.4-1.1c.1-.2.1-.2.3-.3a1.4,1.4,0,0,0-.3.9c0,.2-.1.5-.1.7v-.2h-.1c0-.2,0-.1-.1-.2h-.2c-.4.5-.9.4-1.5.4Z" fill="#a9b1b5"/><path d="M45.5,75l.7-.2,1.1-.2.7.4a.8.8,0,0,1,.4.4,2.1,2.1,0,0,1,.2,1.9,1.4,1.4,0,0,1-.7,1H47c-.2,0-.2,0-.3-.2h-.2c-.4,0-.6,0-.8-.3v-.2h0a1.3,1.3,0,0,1-.7-.9,1.7,1.7,0,0,1,.3-1,2.1,2.1,0,0,1,1.1-.4h-.7V75Z" fill="#a9b1b5"/><path d="M46.7,75.1h.8v.2h-.3C46.9,75.3,46.9,75.3,46.7,75.1Z" fill="#9c9b93"/><path d="M48,75a.8.8,0,0,1,.4.4,2.1,2.1,0,0,1,.2,1.9,1.4,1.4,0,0,1-.7,1h-.6l.2-.3h-.4a3,3,0,0,0,.6-1.1v-.9h0c0-.2.1-.2.3-.3h.1a1.4,1.4,0,0,1,.2.6.6.6,0,0,0,.1.4c.1-.2,0-.6,0-.8a.5.5,0,0,0-.2-.4Z" fill="#9c9b93"/><path d="M46.5,75.4a1.6,1.6,0,0,1,.8.8,2.1,2.1,0,0,1-.1,1.1h0a1,1,0,0,1-.4.5c-.3.2-.7,0-1-.1h0a1.3,1.3,0,0,1-.7-.9,1.7,1.7,0,0,1,.3-1A2.1,2.1,0,0,1,46.5,75.4Z" fill="#fff"/><path d="M49.2,76a2,2,0,0,1,.4-1.3,1.6,1.6,0,0,1,1.2-.8h.1l1.2-.2h.1l1.1.6-.9-.2c-.2,0-.2.1-.2.2h-.1c-.2-.1-.5,0-.7,0h-.1a.8.8,0,0,1,.8.1h.1l.5.5.3.2v.4h.4A2.8,2.8,0,0,1,52,77.4h-.2v.2h-1c-.8-.2-1.1-.8-1.5-1.5Z" fill="url(#o)"/><path d="M52.7,75.1a1.1,1.1,0,0,1,.2.8,1,1,0,0,1-.5.8,1.4,1.4,0,0,1-1.1.2c-.3,0-.6-.3-.8-.5h0a1.2,1.2,0,0,1-.2-1,1,1,0,0,1,.4-.5h.1l.2-.2a1.6,1.6,0,0,1,1.2-.1Z" fill="#fff"/><path d="M11.7,77.9a4.5,4.5,0,0,1,1.1.3l1.3.3c2.4.4,4.8.8,7.2,1a156.5,156.5,0,0,0,26.5-.6h.7a2.7,2.7,0,0,0,.7.8c.4.3,1.5.8,1.6,1.2s.1.2.3.2l.6.5c2.4,1.7,4.4,4.4,6.3,6.6,0,.3.3.4.3.5a.1.1,0,0,0-.1.1l.4.4a8.3,8.3,0,0,1-1.6-.9l-1.3-.6-.9-.5v.2h-.2l.2.2c.1.1.1.2.2.2l.8.5h.2a.3.3,0,0,1,.1.2h0l-.3-.2h-.1a1,1,0,0,1-.7-.4l-1-.7-1-.6h-.2v-.4h-.1a2.1,2.1,0,0,0-.4-.7l-.5-.4h-.5a1.9,1.9,0,0,0-1.3,0h0v-.2a1.3,1.3,0,0,1-.7-.6,13.4,13.4,0,0,1-1.8-.7A34.4,34.4,0,0,0,42.4,81h-.6a29,29,0,0,1-5.1.2,115.3,115.3,0,0,1-18.6-.8h-.2a2.9,2.9,0,0,0-1.6-.4c-2-.3-4.1-.5-6.1-1A4.2,4.2,0,0,0,11.7,77.9Z" fill="url(#p)"/><path d="M49.3,84.2a5.3,5.3,0,0,0,1.7.4.4.4,0,0,1-.5,0c0,.1,0,.1.1.1l.4.2c.1,0,0-.1.2,0h.4l.2.3h-.5a1.9,1.9,0,0,0-1.3,0h0v-.2A1.3,1.3,0,0,1,49.3,84.2Z" fill="#b6d1df"/><path d="M48.5,78.8a2.7,2.7,0,0,0,.7.8c.4.3,1.5.8,1.6,1.2a14,14,0,0,1-1.6-1l-1.4-.9Z" fill="#b6d1df"/><path d="M10.2,79c2,.5,4.1.7,6.1,1a2.9,2.9,0,0,1,1.6.4h.2a115.3,115.3,0,0,0,18.6.8,29,29,0,0,0,5.1-.2h.6a34.4,34.4,0,0,1,5.1,2.5,13.4,13.4,0,0,0,1.8.7,1.3,1.3,0,0,0,.7.6V85h0a1.9,1.9,0,0,1,1.3,0h.5l.5.4a2.1,2.1,0,0,1,.4.7h.1v.4h.2l1,.6,1,.7a1,1,0,0,0,.7.4h.1l.3.2h0a.3.3,0,0,0-.1-.2H56l2.2,1,1.3.8c.5.3.9,1,1.5,1.3H60c-5.1,0-10.1-.1-15.2-.3L40.4,91l-1.5-.2-4-.2-11-.4-6.7-.4-2.3-.2-1.5-.5A4.1,4.1,0,0,1,11.6,87a12.9,12.9,0,0,1-.4-1.9c-.2-1.2-.5-2.4-.7-3.7A6.6,6.6,0,0,1,10.2,79Z" fill="url(#q)"/><path d="M13.7,85.4c.4.1.4.2.6.5a2.3,2.3,0,0,0,.3,1.1l.2.4h-.2l-.2-.2A2.9,2.9,0,0,1,13.7,85.4Z" fill="#fff"/><path d="M15.1,87.1h.1a1.4,1.4,0,0,0,1.1.1l.6-.3c0,.2-.2.4-.4.6a1.6,1.6,0,0,1-1,.2l-.6-.3h-.1l-.2-.4C14.8,86.9,14.9,87,15.1,87.1Z" fill="#2a344c"/><path d="M49.1,87.6v-.3h.1l.7.6.8.4h.2v.2H50A1.6,1.6,0,0,1,49.1,87.6Z" fill="#688294"/><path d="M13.7,85.4V85c.1-.1.1-.1.1-.2v-.3c.2-.2.4-.2.6-.3a1.3,1.3,0,0,1,1.2.3,1.5,1.5,0,0,0-1.1.6c-.2.2-.2.5-.3.8S14.1,85.5,13.7,85.4Z" fill="#4e7696"/><path d="M14.3,85.9c.1-.3.1-.6.3-.8a1.5,1.5,0,0,1,1.1-.6c.4.2.9.5,1,1v.2h-.4a1.1,1.1,0,0,1,.1.8h-.3A.9.9,0,0,1,16,86l-.5-.5c-.3,0-.4,0-.6.3a1.1,1.1,0,0,0-.1.8l.3.5c-.2-.1-.3-.2-.5-.1A2.3,2.3,0,0,1,14.3,85.9Z" fill="#2a344c"/><path d="M52.7,86.4h.1v.4h.2l1,.6,1,.7a1,1,0,0,0,.7.4h.1l.3.2h0a.3.3,0,0,0-.1-.2H56l2.2,1,1.3.8c.5.3.9,1,1.5,1.3h-.8V91h-.7a15.2,15.2,0,0,0-3.3-1.8l-1.3-.9a1,1,0,0,0-.7-.4l-.4-.3h0l-.2.4-.6.3h.3v.2a2.8,2.8,0,0,1-1.3-.3l.2-.2a1.9,1.9,0,0,0,.5-1.4Z" fill="#8c9dac"/><path d="M17.9,80.4h.2c.7,1.8,3,7.7,4.7,8.4a30.4,30.4,0,0,0,5.2.4h.1l5.2.2h2.3a13.1,13.1,0,0,0,4.4-.3c-.3.4-1.2.4-1.7.5a25.3,25.3,0,0,0-2.7.1H31.4a18.8,18.8,0,0,1-4.1-.2,13.1,13.1,0,0,1-2.8-.1,4.6,4.6,0,0,1-2-.3c-.8-.3-1.4-1.5-1.8-2.2A51.7,51.7,0,0,1,17.9,80.4Z" fill="#fff"/><path d="M50,85.1a1.9,1.9,0,0,1,1.3,0h.5l.5.4a2.1,2.1,0,0,1,.4.7v.3a1.9,1.9,0,0,1-.5,1.4l-.2.2H50.7l-.8-.4-.7-.6a.6.6,0,0,0-.1-.4V87H49c0-.2-.1-.4,0-.6A1.7,1.7,0,0,1,50,85.1Z" fill="#2a344c"/><path d="M50.7,85.6a.9.9,0,0,1,.9.1l.3.5a1.5,1.5,0,0,1,.1.7h.1a1.3,1.3,0,0,1-.3.8.8.8,0,0,1-.8.1h-.2l-.2-.2h-.1a1.5,1.5,0,0,1-.3-1.3C50.4,86,50.4,85.8,50.7,85.6Z" fill="#274a63"/><path d="M50.7,85.6a.9.9,0,0,1,.9.1l.3.5h-.5l-.6-.2Z" fill="#8c9dac"/><path d="M50.6,87.7l.5-.2.5-.2h.2v.5a.8.8,0,0,1-.8.1h-.2Z" fill="#4e7696"/><path d="M18.1,80.4a115.3,115.3,0,0,0,18.6.8,29,29,0,0,0,5.1-.2l-1,4.8a17.7,17.7,0,0,1-.4,2c-.1.5-.1,1-.4,1.3a13.1,13.1,0,0,1-4.4.3H33.3l-5.2-.2H28a30.4,30.4,0,0,1-5.2-.4C21.1,88.1,18.8,82.2,18.1,80.4Z" fill="#201f42"/><path d="M24.4,84.7l9.8.3v3.4h-.7l.7.2h-.1c-.1.1-.1.2-.1.4s0,.1.1.2h-.9l-5.2-.2h-.5l-.3-.4v-.5L24.7,88A17.6,17.6,0,0,1,24.4,84.7Z" fill="#fff"/><path d="M27.3,88.2l6.3.2.7.2h-.1c-.1.1-.1.2-.1.4s0,.1.1.2h-.9l-5.2-.2h-.5l-.3-.4Z" fill="#030303"/><path d="M85.2,90l18.9-2.1,8.9-1.3a4.6,4.6,0,0,0,1.2,3.2c1.7,1.6,4.6,1.2,6.3.2a5.6,5.6,0,0,0,1.9-1.9,2.6,2.6,0,0,0,1.8.9,2.9,2.9,0,0,0,2.3-.9,3.1,3.1,0,0,0,.5-1l10.6.3-5.5.7-5.3,1-6.1,1.1-13,2.2L88.4,95.8l-4.8.9-14,2.1a41.4,41.4,0,0,1,7.6-1.3c2-.2,3.8-.3,5.2-1.6a11.5,11.5,0,0,0,1.5-2A11.1,11.1,0,0,0,85.2,90Z" fill="#d2d2f9"/><path d="M121.5,108.3a.4.4,0,0,0,.1.8l68.2-.4a78.8,78.8,0,0,0,17.4-2.1l28.3-3.9a.3.3,0,0,0,0-.6L172.6,101Z" fill="#d2d2f9"/></svg>