<svg xmlns="http://www.w3.org/2000/svg" xmlns:xlink="http://www.w3.org/1999/xlink" width="49" height="44" viewBox="0 0 49 44">
  <defs>
    <linearGradient id="linear-gradient" y1="0.5" x2="1" y2="0.5" gradientUnits="objectBoundingBox">
      <stop offset="0" stop-color="#827cbc"/>
      <stop offset="1" stop-color="#4762af"/>
    </linearGradient>
  </defs>
  <g id="Group_16297" data-name="Group 16297" transform="translate(-190 -294)">
    <g id="Group_16293" data-name="Group 16293">
      <g id="Group_16285" data-name="Group 16285">
        <g id="Group_16288" data-name="Group 16288">
          <g id="Group_16287" data-name="Group 16287">
            <g id="Group_16289" data-name="Group 16289">
              <g id="Group_16291" data-name="Group 16291">
                <g id="Group_16295" data-name="Group 16295">
                  <ellipse id="Ellipse_212" data-name="Ellipse 212" cx="24.5" cy="22" rx="24.5" ry="22" transform="translate(190 294)" fill="#fff"/>
                </g>
              </g>
            </g>
          </g>
        </g>
      </g>
    </g>
    <g id="Group_16294" data-name="Group 16294">
      <g id="Group_16284" data-name="Group 16284">
        <g id="Group_2605" data-name="Group 2605" transform="translate(-31.87 196.109)">
          <g id="Group_16292" data-name="Group 16292">
            <path id="Path_3040" data-name="Path 3040" d="M229.432,120.129q0-7.208-.006-14.417c0-.211.03-.267.258-.267q16.178.011,32.357,0c.24,0,.275.06.275.282q-.009,16.162,0,32.325c0,.215-.024.286-.271.285q-16.178-.013-32.357,0c-.222,0-.263-.047-.261-.264.012-1.367.006-2.734.006-4.1.049.014.054.055.069.1a1.856,1.856,0,0,0,1.91,1.356q11.856.005,23.712,0a1.868,1.868,0,0,0,1.991-2.015q0-1.955,0-3.909c0-.506,0-.506.494-.421a1.908,1.908,0,0,0,2.418-1.665c.73-4.126,1.424-8.259,2.176-12.381a2.006,2.006,0,0,0-1.593-2.4q-4.834-.857-9.667-1.725-6.8-1.213-13.6-2.427a2.007,2.007,0,0,0-1.739.417,2.384,2.384,0,0,0-.722,1.556c-.458,2.669-.932,5.336-1.388,8.005-.036.21-.11.257-.3.252-.491-.012-.984.022-1.473-.009a1.987,1.987,0,0,0-2.252,1.416C229.459,120.124,229.442,120.125,229.432,120.129Z" fill="#fefefe"/>
            <path id="Path_72017" data-name="Path 72017" d="M229.432,120.129q0-7.208-.006-14.417c0-.211.03-.267.258-.267q16.178.011,32.357,0c.24,0,.275.06.275.282q-.009,16.162,0,32.325c0,.215-.024.286-.271.285q-16.178-.013-32.357,0c-.222,0-.263-.047-.261-.264.012-1.367.006-2.734.006-4.1.049.014.054.055.069.1a1.856,1.856,0,0,0,1.91,1.356q11.856.005,23.712,0a1.868,1.868,0,0,0,1.991-2.015q0-1.955,0-3.909c0-.506,0-.506.494-.421a1.908,1.908,0,0,0,2.418-1.665c.73-4.126,1.424-8.259,2.176-12.381a2.006,2.006,0,0,0-1.593-2.4q-4.834-.857-9.667-1.725-6.8-1.213-13.6-2.427a2.007,2.007,0,0,0-1.739.417,2.384,2.384,0,0,0-.722,1.556c-.458,2.669-.932,5.336-1.388,8.005-.036.21-.11.257-.3.252-.491-.012-.984.022-1.473-.009a1.987,1.987,0,0,0-2.252,1.416C229.459,120.124,229.442,120.125,229.432,120.129Z" fill="#fefefe"/>
          </g>
          <g id="Group_16290" data-name="Group 16290">
            <path id="Path_3041" data-name="Path 3041" d="M229.5,152.136c.01,0,.027,0,.029-.011a1.987,1.987,0,0,1,2.252-1.416c.489.032.982,0,1.473.009.193,0,.267-.042.3-.252.456-2.67.93-5.336,1.388-8.005a2.384,2.384,0,0,1,.722-1.556,2.007,2.007,0,0,1,1.739-.417q6.8,1.218,13.6,2.427,4.833.862,9.667,1.726a2.006,2.006,0,0,1,1.593,2.4c-.753,4.122-1.446,8.255-2.176,12.381a1.909,1.909,0,0,1-2.418,1.665c-.494-.085-.494-.085-.494.421q0,1.955,0,3.909a1.868,1.868,0,0,1-1.991,2.015q-11.856.006-23.712,0a1.856,1.856,0,0,1-1.91-1.356c-.015-.04-.02-.082-.069-.1Zm13.81,14.23h11.758c.8,0,1.044-.245,1.045-1.056q0-6.248,0-12.5c0-.8-.259-1.055-1.051-1.055H231.609c-.778,0-1.048.265-1.048,1.03q0,6.279,0,12.559c0,.755.264,1.016,1.023,1.016Zm1.846-15.652c3.332,0,6.664.024,10-.013a1.957,1.957,0,0,1,2.039,2.04c-.031,2.125-.011,4.25-.006,6.375,0,.264-.123.636.048.768a1.536,1.536,0,0,0,.986.16.759.759,0,0,0,.825-.723q.8-4.568,1.6-9.136c.048-.268,0-.372-.289-.423q-6.016-1.053-12.029-2.131-6.265-1.115-12.528-2.243c-.272-.049-.3.056-.33.25-.272,1.576-.543,3.152-.827,4.726-.048.269-.016.359.3.358C238.343,150.709,241.749,150.714,245.156,150.714Zm16.089-4.045a.89.89,0,0,0-.785-.991c-.44-.082-.882-.151-1.323-.23q-5.287-.946-10.574-1.893-5.681-1.014-11.362-2.022a.887.887,0,0,0-1.152.787c-.1.556-.161,1.121-.294,1.668-.071.293.039.335.269.375,1.2.207,2.393.424,3.589.637l8.4,1.5,9.505,1.692,3.148.561c.1.017.207.088.237-.1C261.018,147.96,261.142,147.267,261.245,146.669Z" transform="translate(-0.068 -32.008)" fill="url(#linear-gradient)"/>
          </g>
          <g id="Group_16286" data-name="Group 16286">
            <path id="Path_3042" data-name="Path 3042" d="M254.655,287.482H242.929c-.758,0-1.023-.261-1.023-1.016q0-6.28,0-12.559c0-.766.27-1.03,1.048-1.03h23.452c.792,0,1.051.26,1.052,1.055q0,6.248,0,12.5c0,.811-.242,1.056-1.045,1.056Zm-7.667-4.864c.63,0,1.26.006,1.89,0a1.3,1.3,0,0,0,1.338-1.331q.014-.753,0-1.505a1.306,1.306,0,0,0-1.349-1.327q-1.89-.014-3.78,0a1.322,1.322,0,0,0-1.346,1.337c-.012.491-.01.982,0,1.473a1.317,1.317,0,0,0,1.359,1.352C245.728,282.622,246.358,282.617,246.988,282.617Zm10.583,2.75c.49,0,.981,0,1.471,0a.529.529,0,0,0,.581-.507.52.52,0,0,0-.575-.544q-1.471-.012-2.941,0a.526.526,0,0,0-.582.538c.009.311.239.511.608.514C256.612,285.37,257.091,285.367,257.571,285.367Zm5.77-1.056c-.469,0-.938,0-1.406,0-.392,0-.631.209-.631.525s.246.528.629.529q1.422,0,2.845,0c.4,0,.621-.195.622-.526s-.216-.523-.62-.528C264.3,284.307,263.82,284.311,263.341,284.311Zm-11.558,1.056c.479,0,.959,0,1.438,0,.38,0,.628-.219.624-.534a.538.538,0,0,0-.6-.519q-1.454-.009-2.909,0a.515.515,0,0,0-.584.531c0,.32.224.517.6.521C250.824,285.371,251.3,285.367,251.783,285.367Zm-5.79,0c.49,0,.98,0,1.47,0a.54.54,0,0,0,.6-.525.531.531,0,0,0-.593-.527q-1.454-.009-2.908,0c-.377,0-.591.2-.591.523s.226.527.618.53C245.056,285.37,245.524,285.367,245.993,285.367Z" transform="translate(-11.414 -153.123)" fill="#fdfdfd"/>
          </g>
          <g id="Group_16283" data-name="Group 16283">
            <path id="Path_3043" data-name="Path 3043" d="M299.981,203.511c-3.407,0-6.813,0-10.22.008-.312,0-.344-.089-.3-.358.283-1.574.555-3.15.827-4.726.034-.194.058-.3.33-.25q6.261,1.137,12.528,2.243,6.013,1.07,12.029,2.131c.291.051.337.155.289.423q-.809,4.566-1.6,9.136a.759.759,0,0,1-.826.723,1.536,1.536,0,0,1-.986-.16c-.17-.133-.047-.5-.048-.768,0-2.125-.025-4.251.006-6.375a1.957,1.957,0,0,0-2.039-2.04C306.645,203.535,303.312,203.511,299.981,203.511Z" transform="translate(-54.893 -84.805)" fill="#fcfcfc"/>
          </g>
          <path id="Path_3044" data-name="Path 3044" d="M327.94,158.065c-.1.6-.226,1.291-.34,1.985-.03.183-.141.113-.237.1l-3.148-.561-9.505-1.692-8.4-1.5c-1.2-.213-2.391-.43-3.589-.637-.23-.04-.341-.082-.269-.375.133-.547.2-1.112.294-1.668a.887.887,0,0,1,1.152-.787q5.681,1.014,11.362,2.022,5.288.943,10.574,1.893c.441.079.883.147,1.323.23A.89.89,0,0,1,327.94,158.065Z" transform="translate(-66.764 -43.404)" fill="#fdfdfd"/>
          <path id="Path_3045" data-name="Path 3045" d="M266.543,342.232c-.63,0-1.26.005-1.89,0a1.317,1.317,0,0,1-1.359-1.352c-.009-.491-.011-.983,0-1.473a1.322,1.322,0,0,1,1.346-1.337q1.89-.016,3.78,0a1.306,1.306,0,0,1,1.349,1.327q.016.752,0,1.505a1.3,1.3,0,0,1-1.338,1.331C267.8,342.237,267.173,342.232,266.543,342.232Zm-.005-3.1c-.607,0-1.215,0-1.823,0-.238,0-.358.084-.354.334q.009.687,0,1.375c0,.252.128.34.357.34q1.822,0,3.645,0c.254,0,.366-.123.363-.375q-.008-.655,0-1.311c0-.253-.1-.367-.365-.364C267.753,339.141,267.145,339.135,266.538,339.135Z" transform="translate(-30.968 -212.737)" fill="url(#linear-gradient)"/>
          <path id="Path_3046" data-name="Path 3046" d="M403.326,407.722c-.48,0-.959,0-1.439,0-.369,0-.6-.2-.608-.514a.526.526,0,0,1,.582-.538q1.471-.011,2.941,0a.52.52,0,0,1,.575.544.529.529,0,0,1-.581.507C404.306,407.727,403.816,407.722,403.326,407.722Z" transform="translate(-157.168 -275.478)" fill="url(#linear-gradient)"/>
          <path id="Path_3047" data-name="Path 3047" d="M470.943,406.678c.479,0,.959,0,1.438,0,.4,0,.622.2.62.528s-.224.525-.622.526q-1.422,0-2.845,0c-.383,0-.629-.213-.629-.529s.239-.521.631-.525C470.006,406.674,470.474,406.678,470.943,406.678Z" transform="translate(-219.016 -275.49)" fill="url(#linear-gradient)"/>
          <path id="Path_3048" data-name="Path 3048" d="M335.725,407.728c-.479,0-.959,0-1.438,0-.372,0-.591-.2-.6-.521a.515.515,0,0,1,.584-.531q1.454-.01,2.909,0a.538.538,0,0,1,.6.519c0,.315-.244.531-.624.534C336.684,407.73,336.2,407.728,335.725,407.728Z" transform="translate(-95.356 -275.483)" fill="url(#linear-gradient)"/>
          <path id="Path_3049" data-name="Path 3049" d="M268.075,407.729c-.469,0-.937,0-1.406,0-.392,0-.619-.2-.618-.53s.215-.52.591-.523q1.454-.009,2.908,0a.531.531,0,0,1,.593.527.54.54,0,0,1-.6.525C269.055,407.733,268.565,407.729,268.075,407.729Z" transform="translate(-33.496 -275.485)" fill="url(#linear-gradient)"/>
          <path id="Path_3050" data-name="Path 3050" d="M278.024,350.61c.607,0,1.215.006,1.822,0,.26,0,.368.11.365.364q-.007.655,0,1.311c0,.253-.109.375-.363.375q-1.822,0-3.645,0c-.229,0-.361-.088-.357-.34q.01-.687,0-1.375c0-.25.117-.337.354-.334C276.809,350.615,277.417,350.61,278.024,350.61Z" transform="translate(-42.455 -224.212)" fill="#fbfbfb"/>
        </g>
      </g>
    </g>
  </g>
</svg>
