<svg xmlns="http://www.w3.org/2000/svg" width="49" height="47" viewBox="0 0 49 47">
  <g id="Group_18405" data-name="Group 18405" transform="translate(-250 -852)">
    <g id="Ellipse_26" data-name="Ellipse 26" transform="translate(250 852)" fill="#fff" stroke="#6069ff" stroke-width="1">
      <ellipse cx="24.5" cy="23.5" rx="24.5" ry="23.5" stroke="none"/>
      <ellipse cx="24.5" cy="23.5" rx="24" ry="23" fill="none"/>
    </g>
    <path id="Path_24" data-name="Path 24" d="M300.326,203.6c-.158.132-.144.335-.2.507a.761.761,0,0,1-.822.624c-.98,0-1.96,0-2.94,0-.073,0-.165-.044-.221.052.014.123.126.122.2.163a1.651,1.651,0,0,1,.953,1.391c.012.141.019.283.019.424q0,5.314,0,10.628c0,.866-.277,1.144-1.138,1.144q-1.771,0-3.543,0c-.768,0-1.07-.3-1.072-1.068,0-1.134-.007-2.267,0-3.4,0-.242-.026-.34-.315-.339q-9.069.016-18.139,0c-.275,0-.325.076-.322.332.015,1.133.008,2.267.006,3.4,0,.77-.3,1.073-1.066,1.074q-1.789,0-3.578,0c-.816,0-1.109-.29-1.109-1.1,0-3.566.005-7.133,0-10.7a1.793,1.793,0,0,1,1.1-1.841c.043-.019.084-.043.076-.113-.059-.1-.164-.046-.247-.046-.945,0-1.889,0-2.834,0-.552,0-.742-.164-.918-.687a3.313,3.313,0,0,1,.042-2.184.708.708,0,0,1,.711-.531q1.612-.007,3.224,0a.706.706,0,0,1,.739.581l.157.507c.193-.526.364-.988.532-1.451s.335-.93.5-1.395c.376-1.04.749-2.081,1.13-3.12a2.575,2.575,0,0,1,2.61-1.833q8.308-.007,16.615,0a2.582,2.582,0,0,1,2.628,1.857c.713,1.956,1.42,3.915,2.139,5.9a1.72,1.72,0,0,0,.187-.526.7.7,0,0,1,.684-.517q1.647-.011,3.295,0a.7.7,0,0,1,.692.555,2.416,2.416,0,0,0,.215.65Zm-18.144,1.186q5.189,0,10.379,0c.281,0,.367-.029.253-.339q-1.2-3.262-2.366-6.538a.355.355,0,0,0-.4-.282q-7.864.01-15.727,0a.355.355,0,0,0-.4.28q-1.169,3.274-2.365,6.539c-.112.305-.034.341.252.34Q276.992,204.776,282.181,204.783Zm-9.4,2.357c-.555,0-1.11-.005-1.665,0a1.341,1.341,0,0,0-1.408,1.287,1.32,1.32,0,0,0,1.346,1.383q1.7.036,3.4,0a1.336,1.336,0,1,0-.045-2.671C273.869,207.135,273.326,207.141,272.783,207.14Zm18.853,0c-.555,0-1.11,0-1.665,0a1.335,1.335,0,0,0-1.414,1.278,1.313,1.313,0,0,0,1.334,1.392q1.717.039,3.436,0a1.315,1.315,0,0,0,1.329-1.364,1.336,1.336,0,0,0-1.39-1.3C292.722,207.134,292.179,207.141,291.636,207.14Z" transform="translate(-7.326 669.516)" fill="#6069ff"/>
  </g>
</svg>
