<svg xmlns="http://www.w3.org/2000/svg" width="286.04" height="110.746" viewBox="0 0 286.04 110.746">
  <g id="Group_16279" data-name="Group 16279" transform="translate(-70.757 -395.718)">
    <ellipse id="Ellipse_79" data-name="Ellipse 79" cx="2.697" cy="2.996" rx="2.697" ry="2.996" transform="translate(313.15 449.741) rotate(158)" fill="#fff"/>
    <circle id="Ellipse_77" data-name="Ellipse 77" cx="3.92" cy="3.92" r="3.92" transform="translate(254.929 404.86) rotate(158)" fill="#ff9300"/>
    <circle id="Ellipse_76" data-name="Ellipse 76" cx="7.5" cy="7.5" r="7.5" transform="translate(113.903 492.78) rotate(158)" fill="#ffeb00"/>
    <rect id="Rectangle_97" data-name="Rectangle 97" width="3.504" height="10.011" transform="translate(337.14 506.464) rotate(-114)" fill="#f82d44"/>
    <ellipse id="Ellipse_80" data-name="Ellipse 80" cx="4.529" cy="4.263" rx="4.529" ry="4.263" transform="translate(356.796 408.507) rotate(158)" fill="#ffeb00"/>
    <path id="Path_2750" data-name="Path 2750" d="M7889.295,3252.436s.986,13.82,5.918,20.162,13.809,5.206,13.809,5.206" transform="translate(-7758 -2814)" fill="none" stroke="#f82d44" stroke-width="1"/>
    <rect id="Rectangle_96" data-name="Rectangle 96" width="3.504" height="10.011" transform="translate(186.5 409.347) rotate(158)" fill="#f82d44"/>
    <path id="Path_2751" data-name="Path 2751" d="M7889.295,3252.436s.986,13.82,5.918,20.162,13.809,5.206,13.809,5.206" transform="translate(3002.994 8515.608) rotate(-131)" fill="none" stroke="#1baf10" stroke-width="1"/>
    <path id="Path_2754" data-name="Path 2754" d="M7897.294,3252.436s-6.05,3.05-7.571,9.392c-.774,3.228,6.937,7.228,7.571,10.76.5,2.812-6.083,5.215-6.083,5.215" transform="translate(-7818.432 -2774.977)" fill="none" stroke="#1caf11" stroke-width="1"/>
    <path id="Path_2755" data-name="Path 2755" d="M7897.294,3252.436s-6.05,3.05-7.571,9.392c-.774,3.228,6.937,7.228,7.571,10.76.5,2.812-6.083,5.215-6.083,5.215" transform="translate(-7614.495 -2792.536)" fill="none" stroke="#ff9300" stroke-width="1"/>
  </g>
</svg>
