<svg xmlns="http://www.w3.org/2000/svg" width="42" height="42" viewBox="0 0 42 42">
  <g id="Group_18566" data-name="Group 18566" transform="translate(-2186.5 -1775)">
    <g id="Group_18449" data-name="Group 18449" transform="translate(1830.5 1483)">
      <circle id="Ellipse_562" data-name="Ellipse 562" cx="21" cy="21" r="21" transform="translate(356 292)" fill="#ffe2e2"/>
      <g id="Group_18439" data-name="Group 18439" transform="translate(367.191 301.147)">
        <path id="Path_13" data-name="Path 13" d="M-496.242-336.359h-11.2l-.245-.083a1.935,1.935,0,0,1-1.4-1.668c-.057-.388-.073-.783-.1-1.175q-.124-1.521-.247-3.041-.116-1.443-.232-2.886-.121-1.487-.244-2.974-.124-1.521-.247-3.041c-.034-.419-.064-.838-.1-1.26h16.829c-.044.506-.088.993-.127,1.481-.093,1.169-.179,2.339-.274,3.508-.123,1.517-.253,3.033-.375,4.55s-.239,3.049-.359,4.574a2.206,2.206,0,0,1-.6,1.438A2.343,2.343,0,0,1-496.242-336.359Zm-6.25-8.754q0,2.62,0,5.24a1.345,1.345,0,0,0,.043.373.629.629,0,0,0,1.034.287.79.79,0,0,0,.224-.625q0-5.262,0-10.524a1.215,1.215,0,0,0-.04-.329.629.629,0,0,0-1.046-.29.783.783,0,0,0-.216.607Q-502.491-347.744-502.492-345.113Zm-1.954,5.426c-.114-1.851-.225-3.622-.332-5.393q-.162-2.69-.317-5.381a.691.691,0,0,0-.429-.66.661.661,0,0,0-.869.729c.025.422.054.845.08,1.267q.095,1.568.188,3.135.1,1.656.2,3.313c.06,1,.113,2,.18,3a.661.661,0,0,0,.68.637A.66.66,0,0,0-504.446-339.687Zm5.209.02a.657.657,0,0,0,.612.628.669.669,0,0,0,.688-.653c.035-.481.06-.963.089-1.445.077-1.319.15-2.638.23-3.957.107-1.771.221-3.541.33-5.311a.678.678,0,0,0-.6-.757.685.685,0,0,0-.692.677c-.008.133-.01.267-.018.4q-.1,1.656-.2,3.311c-.063,1.052-.124,2.1-.188,3.156C-499.071-342.335-499.151-341.054-499.237-339.667Z" transform="translate(511.65 360.065)" fill="#e30a0a"/>
        <path id="Path_14" data-name="Path 14" d="M-530.122-470.214h-.213c-1.205,0-2.41-.007-3.615.006a1.535,1.535,0,0,0-.628.139,1.32,1.32,0,0,0-.7,1.463,1.3,1.3,0,0,0,1.275,1.066c1.241,0,2.483,0,3.724,0q6.577,0,13.155,0a1.718,1.718,0,0,0,.654-.119,1.326,1.326,0,0,0,.755-1.458A1.311,1.311,0,0,0-517-470.213c-1.227-.005-2.454,0-3.681,0h-.255c0-.266.007-.51,0-.753a1.96,1.96,0,0,0-1.873-1.916c-1.8-.019-3.6-.016-5.4,0a1.88,1.88,0,0,0-1.769,1.4A9.2,9.2,0,0,0-530.122-470.214Z" transform="translate(535.312 472.896)" fill="#e30a0a"/>
      </g>
    </g>
  </g>
</svg>
