<svg xmlns="http://www.w3.org/2000/svg" width="323.209" height="198.789" viewBox="0 0 323.209 198.789">
  <g id="Group_18375" data-name="Group 18375" transform="translate(-52.395 -113.384)">
    <g id="Group_16034" data-name="Group 16034" transform="translate(-816.317 -672.55)">
      <path id="Path_72174" data-name="Path 72174" d="M1157.112,984.167s8.443-92.23-78.049-92.23c-93.443,0-38.9-53.784-100.669-69.329-54.519-13.72-89.346,45.684-66.656,83.01,16.331,26.866-50.333,41.755-42.362,79.1Z" transform="translate(0)" fill="#fcecdb"/>
      <g id="Group_16025" data-name="Group 16025" transform="translate(943.37 845.617)">
        <path id="Path_72175" data-name="Path 72175" d="M1512.831,978.324c-.438-.792-5.461-9.168-18.931-2.922,0,0,6.9-2.519,9.477-.225,0,0-6.223-1.293-9.258,1.671s-1.954,10.363-.923,12.454,6.431,7.783,9.011,7.193a7.836,7.836,0,0,0,2.777-1.4,34.989,34.989,0,0,0-.172,4.075c.2,13.519,11.017,21.361,14.9,17.926,2.489-2.2,5.777,2.282,5.777,2.282l16.452-36.665S1520.984,966.711,1512.831,978.324Z" transform="translate(-1464.488 -973.103)" fill="#2c3a64"/>
        <path id="Path_72176" data-name="Path 72176" d="M1626.453,1259.246a37.764,37.764,0,0,1-13.2,5.618c-20.349,4.7-28.147-12.5-31.076-24.3a17.49,17.49,0,0,1,6.894-2.118c1.471-.174,3.017-.289,4.3-.352,2.285-1.75,5.69-8.913,6.443-20.034l.957.257,16.037,4.389s-.735,5.1-1.095,9.916c-.278,3.771-.322,7.374.392,8.255,1.251.272,2,.449,2,.449a.043.043,0,0,0,.008.015A103.26,103.26,0,0,1,1626.453,1259.246Z" transform="translate(-1539.756 -1177.862)" fill="#ffb27d"/>
        <path id="Path_72177" data-name="Path 72177" d="M1711.514,1224.033s-.737,5.094-1.095,9.916c-9.086-.91-13.3-9.56-14.944-14.3Z" transform="translate(-1634.464 -1179.187)" fill="#ed985f"/>
        <path id="Path_72178" data-name="Path 72178" d="M1684.212,1081.114s-20.974,5.156-23.984-7.955-7.744-21.276,5.521-25.122,17.024.557,19.093,4.689S1689.59,1079.434,1684.212,1081.114Z" transform="translate(-1602.203 -1034.504)" fill="#ffb27d"/>
        <path id="Path_72179" data-name="Path 72179" d="M1657.585,1030.774c-4.155-3.2-6.417-1.774-7.524-.273-12.952-3.7-18.231,7.349-18.231,7.349a25.7,25.7,0,0,1-4.814,16.672s4.379,1.494,12.706-2.8a15.423,15.423,0,0,0,6.036-6.581,50.38,50.38,0,0,1-6.095,12.255c9.451-7.3,10.338-22.964,10.406-24.615,1.549.86,4.655,2.789,5.989,5.07,1.812,3.1,3.854,9.867,5.8,9.175C1661.862,1047.024,1663.816,1035.575,1657.585,1030.774Z" transform="translate(-1577.238 -1019.701)" fill="#2c3a64"/>
        <path id="Path_72180" data-name="Path 72180" d="M1559.755,1340.035a41.564,41.564,0,0,0-10.8-3.565,8.981,8.981,0,0,1-8.553,5.324c-6.119-.112-12.172-6.88-12.761-7.554-7.011-.225-12.164,0-12.164,0s-14.765,23.105-12.938,28.455a94.2,94.2,0,0,1,2.891,10.4,106.286,106.286,0,0,1,1.474,35.917c-.338,2.485-.644,3.88-.644,3.88l46.507,1.08s3.853-13.717,6.71-25.419q.129-.528.255-1.048c1.937,3.991,7.431,9.992,9.918,10.463.15.028.846.044,1.85.053,3.723.03,10.928.08,10.928.08C1583.815,1387.068,1565.8,1342.659,1559.755,1340.035Z" transform="translate(-1473.059 -1274.894)" fill="#f99746"/>
        <path id="Path_72181" data-name="Path 72181" d="M1522.434,1606a106.286,106.286,0,0,0-1.474-35.918c.014-.183.021-.28.021-.28s12.723,12.155,14.922,24.864C1537.4,1603.347,1528.243,1605.608,1522.434,1606Z" transform="translate(-1488.585 -1471.89)" fill="#ed7d2b"/>
        <path id="Path_72182" data-name="Path 72182" d="M1393.587,1396.689c-.264-.838-4.485-5.142-6.771-5.669s-9.835,1.209-9.835,1.209h0a196.569,196.569,0,0,1-27.873-5.931c-2.2-.64-4.464-1.34-6.759-2.107l19.053-17.178,16.853-33.76s-14.29-1.127-17.908,1.029c-13.015,7.756-37.128,53.031-36.67,62.406,0,0,6.108.338,17.264.478,8.572.111,20.127.106,34.18-.255a28.807,28.807,0,0,0,3.168-.222Z" transform="translate(-1323.67 -1273.908)" fill="#ffb27d"/>
        <path id="Path_72183" data-name="Path 72183" d="M1361.4,1367.013l-16.805,17.38c1.656.627,3.385,1.521,4.511,1.9a19.442,19.442,0,0,1-8.168,10.869c-11.156-.141-17.264-.479-17.264-.479-.457-9.376,23.656-54.65,36.67-62.406,3.618-2.156,17.908-1.029,17.908-1.029Z" transform="translate(-1323.67 -1273.908)" fill="#f99746"/>
        <path id="Path_72184" data-name="Path 72184" d="M1874.535,1607.995c-1-.009-12.629-.1-12.778-.133-2.487-.471-7.981-6.472-9.918-10.463a37.063,37.063,0,0,1,1.266-5.45,47.369,47.369,0,0,1,3.277-6.664C1863.062,1584.278,1874.552,1601.651,1874.535,1607.995Z" transform="translate(-1765.162 -1484.792)" fill="#ed7d2b"/>
        <path id="Path_72185" data-name="Path 72185" d="M1862.211,1298.611a395.464,395.464,0,0,0-10.864-53.022l-.038,0c-.366-1.412-3.252-12.434-4.459-13.641-1.29-1.29-8.09-3.992-9.263-4.283a1.479,1.479,0,0,0,.513,1.4,11.632,11.632,0,0,0,1.075.771l-1.611.867a1.988,1.988,0,0,0,1.506.4,11.519,11.519,0,0,0,1.51-.375c.334.2.663.4.963.576a5.886,5.886,0,0,1,1.16,1.3c.061.256.28,1.385.417,2.1a3.438,3.438,0,0,1-.6-.662,2.327,2.327,0,0,0-1.993-.894s1.846,2.319,2.021,3.822a5.956,5.956,0,0,0,1.544,3.489h0a8.534,8.534,0,0,1,1.69,2.208,13.169,13.169,0,0,1,.683,3.409h0c.277,3.38,1.225,15.841.965,25.017-.348,12.348-1.518,23.416-.13,30.284a12.726,12.726,0,0,0,1.648,4.439c3.027,4.643,13.666,3.288,13.666,3.288A47.487,47.487,0,0,0,1862.211,1298.611Z" transform="translate(-1753.234 -1185.89)" fill="#ffb27d"/>
        <path id="Path_72186" data-name="Path 72186" d="M1912.171,1670.5s-10.639,1.355-13.666-3.288a12.727,12.727,0,0,1-1.648-4.439,18.73,18.73,0,0,0,14.918-2.754A47.487,47.487,0,0,1,1912.171,1670.5Z" transform="translate(-1802.799 -1547.299)" fill="#f99746"/>
      </g>
      <g id="Group_16032" data-name="Group 16032" transform="translate(1058.301 887.39)">
        <g id="Group_16027" data-name="Group 16027" transform="translate(61.425 54.718)">
          <path id="Path_72187" data-name="Path 72187" d="M2456.863,1582.045s-8.652-10.095-.533-16.506c0,0,5.931-3.59,10.766-3.3,0,0-6.852,11.49-4.635,12.633s6.712-13.354,6.712-13.354,13.5-1.309,17.837.778c0,0-11.537,9.441-9.107,10s14.892-8.7,14.892-8.7,12.561,2.138,11.891,9.8-5,10.028-6.9,9.825-13.03-4.452-13.272-2.893,6.456,6.652,11.146,6.891c0,0-8.856,9.766-14.741,6.948s-6.388-7.286-10.057-8.962-6.8-1.672-5.286.037,8.155,3.37,10.253,7.081,3.98,6.214-2.109,5.3-15.987-5.372-16.422-10.474Z" transform="translate(-2443.914 -1561.114)" fill="#82b378"/>
          <g id="Group_16026" data-name="Group 16026" transform="translate(0 12.43)">
            <path id="Path_72188" data-name="Path 72188" d="M2480.257,1636.92s-34.116-1.315-41.65,8.442a24.675,24.675,0,0,1-6.793,9.534l-.8,2.178s5.912-6.233,8.027-6.61C2439.041,1650.464,2435.733,1638.377,2480.257,1636.92Z" transform="translate(-2425.658 -1636.861)" fill="#82b378"/>
            <path id="Path_72189" data-name="Path 72189" d="M2405.953,1742.351c-.294.323-.734.759-1.359,1.339-.012.01-.021.02-.033.032-.2.19-.4.392-.594.609a20.3,20.3,0,0,0-3.112,5.047c-.17.369-.333.742-.486,1.111h-1.995c.168-.384.344-.754.527-1.111a21.584,21.584,0,0,1,5.627-6.98l0,0C2404.657,1742.319,2407.607,1740.536,2405.953,1742.351Z" transform="translate(-2398.374 -1724.361)" fill="#82b378"/>
          </g>
        </g>
        <g id="Group_16029" data-name="Group 16029" transform="translate(0 27.083)">
          <path id="Path_72190" data-name="Path 72190" d="M2074.542,1428.348s13.764-7.708,7.341-18.169c0,0-5.139-6.423-10.644-8.075,0,0,2.937,15.6,0,15.966s-2.019-17.618-2.019-17.618-14.5-6.974-20.187-6.423c0,0,8.992,15.232,6.056,14.865s-13.03-15.783-13.03-15.783-14.865-2.753-17.251,6.056,1.468,13.214,3.67,13.764,16.333.367,15.966,2.2-9.91,4.771-15.232,3.12c0,0,5.873,14.5,13.58,13.764s10.094-5.506,14.865-5.873,8.258.918,5.873,2.2-10.461.421-14.314,3.7-6.974,5.3.183,6.763,20,.551,22.573-4.955Z" transform="translate(-2024.055 -1392.705)" fill="#a8d29f"/>
          <g id="Group_16028" data-name="Group 16028" transform="translate(7.543 9.216)">
            <path id="Path_72191" data-name="Path 72191" d="M2070.022,1448.868s38.539,12.479,42.944,26.427a29.28,29.28,0,0,0,3.67,13.4v2.753s-4.037-9.36-6.24-10.644C2110.4,1480.8,2119.022,1468.688,2070.022,1448.868Z" transform="translate(-2070.022 -1448.868)" fill="#82b378"/>
            <path id="Path_72192" data-name="Path 72192" d="M2348.115,1698.864c-.047.368-.1.737-.168,1.111h-2c.023-.343.047-.715.065-1.111.181-3.724.143-9.577-1.444-13.6a.459.459,0,0,0-.022-.052c-.135-.339-.281-.666-.439-.975,0-.008-.009-.015-.012-.023-.453-.885-.759-1.541-.953-2.017a0,0,0,0,0,0,0c-1.1-2.7,1.448.481,1.562.624l0,.005A25.766,25.766,0,0,1,2348.115,1698.864Z" transform="translate(-2298.089 -1642.999)" fill="#82b378"/>
          </g>
        </g>
        <g id="Group_16031" data-name="Group 16031" transform="translate(55.142)">
          <path id="Path_72193" data-name="Path 72193" d="M2372.017,1274.647s-18.144-10.16-9.677-23.949c0,0,6.773-8.467,14.031-10.644,0,0-3.871,20.563,0,21.047s2.661-23.224,2.661-23.224,19.111-9.193,26.611-8.467c0,0-11.854,20.079-7.983,19.595s17.176-20.8,17.176-20.8,19.595-3.629,22.74,7.983-1.935,17.418-4.838,18.144-21.53.484-21.046,2.9,13.063,6.29,20.079,4.112c0,0-7.741,19.111-17.9,18.144s-13.305-7.257-19.595-7.741-10.886,1.209-7.741,2.9,13.789.555,18.869,4.874,9.193,6.98-.242,8.915-26.369.726-29.756-6.532Z" transform="translate(-2360.09 -1227.662)" fill="#a8d29f"/>
          <g id="Group_16030" data-name="Group 16030" transform="translate(2.345 12.149)">
            <path id="Path_72194" data-name="Path 72194" d="M2464.739,1301.695s-50.8,16.45-56.608,34.836a38.6,38.6,0,0,1-4.838,17.66v3.629s5.322-12.338,8.225-14.031C2411.518,1343.788,2400.148,1327.822,2464.739,1301.695Z" transform="translate(-2398.549 -1301.695)" fill="#82b378"/>
            <path id="Path_72195" data-name="Path 72195" d="M2379.126,1610.1s-7.834,11.9-3.368,26.379l2.016-.541s-1.957-15.951,2.142-23.974S2379.126,1610.1,2379.126,1610.1Z" transform="translate(-2374.382 -1557.601)" fill="#82b378"/>
          </g>
        </g>
      </g>
      <g id="Group_16033" data-name="Group 16033" transform="translate(893.778 968.687)">
        <path id="Path_72196" data-name="Path 72196" d="M1220.793,1723.081H1037.049a15.588,15.588,0,0,0-15.589,15.588h214.922A15.588,15.588,0,0,0,1220.793,1723.081Z" transform="translate(-1021.46 -1723.081)" fill="#2c3a64"/>
        <path id="Path_72197" data-name="Path 72197" d="M1357.982,1723.081H1174.237a15.588,15.588,0,0,0-15.588,15.588h214.922A15.588,15.588,0,0,0,1357.982,1723.081Z" transform="translate(-1136.137 -1723.081)" fill="#2b478b"/>
      </g>
    </g>
    <g id="Group_16038" data-name="Group 16038" transform="translate(-1996.463 -523.036)">
      <g id="Group_16035" data-name="Group 16035" transform="translate(2156.763 654.637)">
        <path id="Path_72198" data-name="Path 72198" d="M2244.869,683.432a3.048,3.048,0,0,0-2.274-.931,3.192,3.192,0,0,0-2.318.931A3.181,3.181,0,0,0,2240.3,688a3.173,3.173,0,0,0,2.293.955,3.058,3.058,0,0,0,2.274-.931,3.354,3.354,0,0,0,0-4.592Zm5.453-26.293a11,11,0,0,0-7.362-2.5,11.675,11.675,0,0,0-5.364,1.3,9.509,9.509,0,0,0-3.954,3.659,5.639,5.639,0,0,0-.866,2.91,2.642,2.642,0,0,0,.706,1.885,2.353,2.353,0,0,0,1.8.749,2.726,2.726,0,0,0,2.226-1.318l1.818-2.456a5.281,5.281,0,0,1,6.613-.295,3.519,3.519,0,0,1,1.252,2.886,4.221,4.221,0,0,1-1.32,3.319,9.03,9.03,0,0,1-3.272,1.59,5.988,5.988,0,0,0-2.293,1.114,2.311,2.311,0,0,0-.568,1.7v4.546a3.529,3.529,0,0,0,.725,2.272,2.472,2.472,0,0,0,2.047.909,2.527,2.527,0,0,0,2.681-2.091,21.765,21.765,0,0,0,.181-3.727,10.083,10.083,0,0,0,5.888-3.205,9.172,9.172,0,0,0,2.159-6.248A8.822,8.822,0,0,0,2250.322,657.139Z" transform="translate(-2232.776 -654.637)" fill="#f99746"/>
      </g>
      <g id="Group_16036" data-name="Group 16036" transform="translate(2181.96 664.907)">
        <path id="Path_72199" data-name="Path 72199" d="M2343.068,718.467a2.238,2.238,0,0,0-1.278-1.276,2.364,2.364,0,0,0-1.837-.024,2.344,2.344,0,0,0-1.276,3.108,2.33,2.33,0,0,0,1.289,1.3,2.237,2.237,0,0,0,1.805.012,2.466,2.466,0,0,0,1.3-3.116Zm11.138-16.306a8.1,8.1,0,0,0-4.291-3.778,8.575,8.575,0,0,0-4.007-.638,7.012,7.012,0,0,0-3.718,1.366,4.16,4.16,0,0,0-1.409,1.73,1.946,1.946,0,0,0-.055,1.479,1.732,1.732,0,0,0,1.008,1.015,2,2,0,0,0,1.883-.263l1.929-1.153a3.884,3.884,0,0,1,4.571,1.67,2.585,2.585,0,0,1,.034,2.313,3.106,3.106,0,0,1-1.835,1.878,6.614,6.614,0,0,1-2.67.155,4.445,4.445,0,0,0-1.874.106,1.7,1.7,0,0,0-.865,1l-1.286,3.087a2.583,2.583,0,0,0-.15,1.748,1.808,1.808,0,0,0,1.131,1.194,1.86,1.86,0,0,0,2.412-.66,16.187,16.187,0,0,0,1.177-2.478,7.413,7.413,0,0,0,4.9-.51,6.736,6.736,0,0,0,3.234-3.63A6.5,6.5,0,0,0,2354.207,702.162Z" transform="translate(-2338.475 -697.719)" fill="#f99746"/>
      </g>
      <g id="Group_16037" data-name="Group 16037" transform="translate(2132.971 671.962)">
        <path id="Path_72200" data-name="Path 72200" d="M2151.83,746a2.324,2.324,0,0,0-1.562-.928,2.247,2.247,0,0,0-1.74.479,2.352,2.352,0,0,0-.93,1.586,2.338,2.338,0,0,0,2.066,2.647,2.333,2.333,0,0,0,1.764-.476,2.239,2.239,0,0,0,.9-1.564A2.326,2.326,0,0,0,2151.83,746Zm-5.26-16a6.484,6.484,0,0,0-4.943-2.683,8.091,8.091,0,0,0-5.409,1.854,8.576,8.576,0,0,0-2.538,3.164,7,7,0,0,0-.657,3.906,4.17,4.17,0,0,0,.8,2.081,1.949,1.949,0,0,0,1.257.781,1.736,1.736,0,0,0,1.383-.37,2.014,2.014,0,0,0,.7-1.769l-.043-2.245a3.876,3.876,0,0,1,3.715-3.142,2.584,2.584,0,0,1,2.023,1.117,3.108,3.108,0,0,1,.725,2.524,6.634,6.634,0,0,1-1.189,2.4,4.416,4.416,0,0,0-.836,1.68,1.7,1.7,0,0,0,.435,1.247l2.042,2.647a2.6,2.6,0,0,0,1.446,1,1.81,1.81,0,0,0,1.6-.392,1.859,1.859,0,0,0,.621-2.422,15.993,15.993,0,0,0-1.568-2.25,7.424,7.424,0,0,0,1.987-4.51A6.747,6.747,0,0,0,2146.57,730.006Z" transform="translate(-2132.971 -727.315)" fill="#f99746"/>
      </g>
    </g>
    <g id="Group_16039" data-name="Group 16039" transform="translate(-49.601 -161.377) rotate(9)">
      <path id="Path_72201" data-name="Path 72201" d="M329.963,836.1c.244-1.048.213-2.355,1-3.17a7.861,7.861,0,0,1,2.99-1.433,21.035,21.035,0,0,0,6.848-3.821c3.728-3.373,4.8-8.554,1.56-12.664a12.2,12.2,0,0,0-5.157-3.739h0a18.811,18.811,0,0,0-2.989-.137c-.112,0-.225.008-.337.012a29.541,29.541,0,0,0-4.377.489l-.21.04a8.578,8.578,0,0,1-1.479.193h-.049q-.108,0-.216-.005l-.056,0a9.582,9.582,0,0,1-1.193-.171l-.252-.048q-.528-.1-1.059-.177a30.6,30.6,0,0,0-3.552-.325l-.186,0a18.131,18.131,0,0,0-3.186.166q-.179.027-.356.059a10.886,10.886,0,0,0-1.951.534,8.972,8.972,0,0,0-1.211.571,7.88,7.88,0,0,0-3.1,3.1c-.038.07-.077.14-.112.212a10.322,10.322,0,0,0-.938,4.217,36.536,36.536,0,0,0,.135,3.948c.3,4.3.586,8.86,2.832,12.363.117.182.239.358.365.532l.035.047q.166.227.341.443l.079.1q.156.189.318.369l.1.114q.158.171.322.336c.026.026.051.054.077.08l.037.035c.057.056.116.11.174.165s.114.107.172.159c.078.07.156.139.235.208l.045.04.04.033q.172.146.347.285l.1.082q.162.126.327.246l.13.094q.157.111.316.217l.147.1c.1.068.21.134.315.2l.154.094c.109.065.22.129.331.191l.143.081c.126.069.253.136.38.2l.1.051q.492.248,1,.46C323.6,841.6,328.934,840.528,329.963,836.1Z" transform="translate(0 -568.302)" fill="#f8911d"/>
      <path id="Path_72202" data-name="Path 72202" d="M691.426,731.22c0-.25-.006-.5-.017-.747a10.2,10.2,0,0,0-.982-4.218,7.4,7.4,0,0,0-1.554-2.049,8.648,8.648,0,0,0-2.786-1.729c-.307-.118-.618-.219-.932-.307l-.014,0q-.145-.04-.292-.076l-.033-.008c-.094-.023-.189-.045-.284-.065l-.043-.009c-.094-.02-.188-.039-.282-.057l-.045-.008q-.144-.027-.288-.05l-.034-.005-.1-.015v-2.53H680.2v2.374c.112,0,.225-.009.337-.012a18.82,18.82,0,0,1,2.983.136l.056.021a12.174,12.174,0,0,1,5.108,3.719c3.238,4.11,2.168,9.29-1.56,12.664a21.035,21.035,0,0,1-6.848,3.821,7.861,7.861,0,0,0-2.99,1.433c-.791.815-.76,2.122-1,3.17-1.03,4.43-6.36,5.5-10.466,5.165h0l0,0c.163.069.326.135.489.2.2.075.393.147.59.216l.16.055q.223.076.446.148l.169.054c.194.06.388.119.583.174l.079.021q.254.071.51.135l.2.049q.207.05.415.1l.192.042c.192.041.384.079.576.114l.131.023q.233.041.467.078l.208.031q.212.031.425.057l.182.023q.293.034.587.06l.13.01q.24.019.48.033l.187.01q.237.012.475.018l.133,0q.306.006.612,0l.094,0q.264,0,.528-.014l.141-.006c.189-.008.378-.019.568-.033l.043,0q.325-.024.65-.058l.033,0q.3-.032.607-.074l.038,0,.031,0q.686-.1,1.368-.235l.125-.026q.679-.144,1.352-.332l.032-.008a7.363,7.363,0,0,0,2.5-2.958,13.247,13.247,0,0,0,.872-3.107,2.725,2.725,0,0,1,1.7-2.221,14.722,14.722,0,0,0,4.9-3.088,11.017,11.017,0,0,0,.9-1.1c0-.017,0-.035.008-.052.021-.135.04-.271.06-.407.017-.119.034-.238.05-.357s.029-.227.043-.34q.026-.207.05-.414.019-.164.036-.329.022-.2.042-.4.018-.185.036-.37.015-.158.029-.316c.014-.162.029-.323.042-.485l.006-.079c.056-.683.1-1.366.154-2.041C691.352,733.5,691.432,732.353,691.426,731.22Z" transform="translate(-346.32 -478.872)" fill="#f07700"/>
      <path id="Path_72203" data-name="Path 72203" d="M1223.233,1534.321a14.723,14.723,0,0,1-4.9,3.088,2.724,2.724,0,0,0-1.7,2.221,13.247,13.247,0,0,1-.872,3.107,7.362,7.362,0,0,1-2.5,2.958l.054-.016c.131-.037.261-.076.391-.115l.21-.065.271-.088.272-.091.218-.077c.1-.035.2-.07.3-.107.122-.045.244-.093.365-.141l.13-.05a14.5,14.5,0,0,0,4.291-2.611,11.777,11.777,0,0,0,2.038-2.362q.219-.337.415-.687l.025-.046c.055-.1.109-.2.162-.3.017-.032.033-.066.049-.1.043-.084.085-.169.126-.254.021-.044.042-.089.062-.134.035-.074.069-.148.1-.223.024-.054.047-.109.071-.163s.057-.131.084-.2.05-.125.075-.187.047-.118.07-.178.052-.139.077-.208c.02-.054.04-.107.059-.161q.04-.113.078-.226l.049-.147q.039-.12.077-.241l.042-.137c.025-.084.05-.168.074-.253.012-.043.025-.086.037-.129q.037-.131.071-.262c.011-.041.022-.083.032-.124q.034-.133.067-.267l.031-.126q.031-.131.061-.264.015-.068.03-.137.027-.126.054-.252.016-.08.032-.16c.015-.076.03-.151.044-.227s.025-.134.037-.2c.007-.038.014-.076.021-.114,0-.015,0-.03.007-.045.035-.2.069-.4.1-.6A11.047,11.047,0,0,1,1223.233,1534.321Z" transform="translate(-879.734 -1271.884)" fill="#e06800"/>
      <path id="Path_72204" data-name="Path 72204" d="M399.711,880.122a2.857,2.857,0,0,0-1.827-1.8,5.333,5.333,0,0,0-2.63-.139,9.282,9.282,0,0,0-.983.215,9.547,9.547,0,0,0-6.929,10.65,4.273,4.273,0,0,0,.687,1.9,2.054,2.054,0,0,0,1.737.9,2.133,2.133,0,0,0,1.514-.955,5.773,5.773,0,0,0,.73-1.69,11.745,11.745,0,0,1,1.4-3.452A7.026,7.026,0,0,1,396,883.645C397.45,882.892,400.4,882.5,399.711,880.122Z" transform="translate(-74.884 -633.546)" fill="#fff"/>
      <path id="Path_72205" data-name="Path 72205" d="M897.841,1227.771a.8.8,0,0,0-.009-.088l-.833-5.226.016-.016.055-.055q.045-.047.088-.1c.016-.019.033-.038.049-.058.03-.037.058-.075.086-.114.012-.017.025-.034.036-.051.038-.057.074-.115.106-.175l.011-.022q.042-.08.079-.164c.009-.021.017-.043.026-.064.017-.043.034-.087.048-.131.008-.025.015-.05.023-.075q.019-.065.034-.131c.006-.026.012-.051.016-.077.009-.047.016-.1.022-.144,0-.023.007-.045.009-.069.007-.072.011-.144.011-.218h0a2.3,2.3,0,0,0-.451-1.363q-.052-.071-.109-.137a2.284,2.284,0,0,0-1.546-.786c-.062,0-.124-.008-.187-.008s-.144,0-.214.011l-.065.008c-.049.006-.1.013-.146.022l-.07.014c-.049.011-.1.023-.144.037l-.058.016c-.065.021-.129.044-.191.07l-.027.013c-.053.023-.105.048-.156.075l-.059.033c-.04.023-.08.047-.118.072l-.058.039-.036.024h.006a2.295,2.295,0,0,1,2.883,2.217,2.2,2.2,0,0,1-.885,1.84l.611,3.836a.775.775,0,0,1-.765.9H893v.023c0,.014,0,.028,0,.042s0,.029,0,.043,0,.028,0,.042,0,.028.005.042,0,.027.007.041.006.027.009.04.007.026.011.039.009.026.014.039.009.025.015.037.012.025.018.037l.018.035.022.035.021.033.025.033.024.03.029.03.027.027.032.027.029.024.036.025.031.021.039.021.033.017.043.017.034.013.047.013.033.009.054.009.03,0a.811.811,0,0,0,.081,0h3.3a.775.775,0,0,0,.773-.728A.756.756,0,0,0,897.841,1227.771Z" transform="translate(-567.676 -965.231)" fill="#d14708"/>
      <path id="Path_72206" data-name="Path 72206" d="M599.654,237.022a6.334,6.334,0,0,1,12.629,0v3.448h3.543v-3.448c0-5.049-4.422-9.156-9.857-9.156s-9.857,4.107-9.857,9.156v3.448h3.543Z" transform="translate(-278.402)" fill="#f8911d"/>
      <path id="Path_72207" data-name="Path 72207" d="M599.654,721.7v-2.362h-3.543v2.588q.178-.032.356-.059A18.119,18.119,0,0,1,599.654,721.7Z" transform="translate(-278.402 -478.872)" fill="#f07700"/>
      <path id="Path_72208" data-name="Path 72208" d="M896.261,1236.525a2.2,2.2,0,0,0,.885-1.84,2.294,2.294,0,0,0-2.294-2.294,2.344,2.344,0,0,0-.595.078,2.291,2.291,0,0,0-.236,3.52l-.833,5.227c0,.014,0,.027,0,.041h2.924a.774.774,0,0,0,.765-.9Z" transform="translate(-567.856 -978.764)" fill="#e24f02"/>
    </g>
  </g>
</svg>
