<svg xmlns="http://www.w3.org/2000/svg" xmlns:xlink="http://www.w3.org/1999/xlink" width="52.02" height="73.34" viewBox="0 0 52.02 73.34">
  <defs>
    <linearGradient id="linear-gradient" x1="0.01" y1="0.508" x2="0.955" y2="0.495" gradientUnits="objectBoundingBox">
      <stop offset="0" stop-color="#ad7df7" stop-opacity="0.333"/>
      <stop offset="1" stop-color="#855dbd"/>
    </linearGradient>
    <clipPath id="clip-path">
      <path id="Path_2268" data-name="Path 2268" d="M178.372,284.474c-.31.064-.678,3.469-.705,5.206-.03,1.869.194,9.185.194,9.185l-2.069,11.785h2.749s3.283-8.857,3.876-12.078c.348-1.891.863-9.351.863-9.351l1.622,9.286,1.251,12.142h2.591s.623-8.916.579-12.415a89.838,89.838,0,0,0-1.669-11.735c-1.078-2.934-.811-3.535-1.7-4.578" transform="translate(-175.792 -281.922)" fill="none"/>
    </clipPath>
    <clipPath id="clip-path-2">
      <path id="Path_2309" data-name="Path 2309" d="M225.43,186.982c-.046-.295-.245-.509-.444-.477s-.323.3-.277.59.245.509.444.477S225.476,187.277,225.43,186.982Z" transform="translate(-224.699 -186.502)" fill="none"/>
    </clipPath>
  </defs>
  <g id="Group_16287" data-name="Group 16287" transform="translate(-196.205 -340.899)">
    <g id="Group_16284" data-name="Group 16284">
      <g id="Group_2167" data-name="Group 2167" transform="matrix(-0.017, 1, -1, -0.017, 81.515, 887.889)">
        <g id="Group_16282" data-name="Group 16282">
          <path id="Path_2350" data-name="Path 2350" d="M144.232,548.64c6.64-15.746,32.937,4.655,17.988,14.667s-8.1,22.042-18.089,24.759-31.537-28.48-17.043-37.61C136.519,544.514,137.592,564.386,144.232,548.64Z" transform="translate(-651.194 -697.428)" fill="url(#linear-gradient)"/>
        </g>
      </g>
    </g>
    <g id="Group_16283" data-name="Group 16283">
      <g id="Group_16281" data-name="Group 16281">
        <g id="Group_2166" data-name="Group 2166" transform="translate(118.664 371.899)">
          <g id="Group_2100" data-name="Group 2100" transform="translate(84.311 -22.317)">
            <g id="Group_2090" data-name="Group 2090" transform="translate(7.225 0)">
              <path id="Path_2152" data-name="Path 2152" d="M252.347,82.833a1.8,1.8,0,0,0-1.1-.347H228.394a2.8,2.8,0,0,0-2.608,2.158l-9.407,45.029a1.819,1.819,0,0,0,.312,1.524,11.683,11.683,0,0,0,1.706,1.23,1.82,1.82,0,0,0,1.043.307h22.854a2.8,2.8,0,0,0,2.608-2.158l9.407-45.029a1.762,1.762,0,0,0-.529-1.749C253.526,83.58,252.546,82.983,252.347,82.833Z" transform="translate(-216.332 -82.486)" fill="#6269fe"/>
              <path id="Path_2153" data-name="Path 2153" d="M240.939,131.83H218.086a1.7,1.7,0,0,1-1.707-2.158l9.407-45.029a2.8,2.8,0,0,1,2.608-2.158h22.854a1.7,1.7,0,0,1,1.707,2.158l-9.407,45.029A2.8,2.8,0,0,1,240.939,131.83Z" transform="translate(-216.332 -82.486)" fill="#6269fe"/>
              <path id="Path_2154" data-name="Path 2154" d="M231.478,104.464a.733.733,0,0,0-.683.565l-9.119,43.651a.445.445,0,0,0,.447.565H246.19a.733.733,0,0,0,.683-.565l9.119-43.651a.445.445,0,0,0-.447-.565Z" transform="translate(-220.782 -100.828)" fill="#fef6de"/>
              <path id="Path_2155" data-name="Path 2155" d="M299.207,104.464H275.14a.733.733,0,0,0-.683.565l-.477,2.283h25.2l.477-2.283A.445.445,0,0,0,299.207,104.464Z" transform="translate(-264.443 -100.828)" fill="#74bdcb"/>
              <path id="Path_2156" data-name="Path 2156" d="M353.362,91.763a.753.753,0,0,1-.7.581.457.457,0,0,1-.459-.581.753.753,0,0,1,.7-.58A.457.457,0,0,1,353.362,91.763Z" transform="translate(-329.714 -89.744)" fill="#154b69"/>
              <g id="Group_2088" data-name="Group 2088" transform="translate(10.608 4.479)">
                <path id="Path_2157" data-name="Path 2157" d="M416.4,109.563h1.161l-.694,1.161H416.6Z" transform="translate(-393.907 -109.563)" fill="#fff"/>
                <path id="Path_2158" data-name="Path 2158" d="M387.989,109.563h.581l-.243,1.161h-.581Z" transform="translate(-369.997 -109.563)" fill="#fff"/>
                <path id="Path_2159" data-name="Path 2159" d="M393.642,109.563h3.147l-.243,1.161H393.4Z" transform="translate(-374.716 -109.563)" fill="#fff"/>
                <path id="Path_2160" data-name="Path 2160" d="M297.792,109.563h1.161l-.243,1.161h-1.161Z" transform="translate(-294.721 -109.563)" fill="#fff"/>
                <path id="Path_2161" data-name="Path 2161" d="M280.7,109.563h.581l-.243,1.161h-.581Z" transform="translate(-280.454 -109.563)" fill="#fff"/>
                <path id="Path_2162" data-name="Path 2162" d="M286.35,109.563h1.478l-.243,1.161h-1.478Z" transform="translate(-285.172 -109.563)" fill="#fff"/>
              </g>
              <g id="Group_2089" data-name="Group 2089" transform="translate(6.322 44.685)">
                <path id="Path_2163" data-name="Path 2163" d="M256.506,355.009H254.55l.408-1.953h1.956Zm-1.812-.117h1.716l.359-1.719h-1.716Z" transform="translate(-254.55 -352.982)" fill="#0b4568"/>
                <path id="Path_2164" data-name="Path 2164" d="M334.07,354.634h-2.027l1.437-2.027Zm-1.8-.117h1.644l-.478-1.644Z" transform="translate(-319.224 -352.607)" fill="#0b4568"/>
                <path id="Path_2165" data-name="Path 2165" d="M295.313,355.019a.8.8,0,0,1-.636-.285.832.832,0,0,1-.151-.709,1.26,1.26,0,0,1,1.173-.969.8.8,0,0,1,.636.285.831.831,0,0,1,.151.708h0A1.26,1.26,0,0,1,295.313,355.019Zm.386-1.846a1.137,1.137,0,0,0-1.058.876.716.716,0,0,0,.128.61.683.683,0,0,0,.545.242,1.138,1.138,0,0,0,1.058-.876.715.715,0,0,0-.128-.61A.683.683,0,0,0,295.7,353.173Z" transform="translate(-287.895 -352.982)" fill="#0b4568"/>
              </g>
              <path id="Path_2166" data-name="Path 2166" d="M291.16,147.557a.713.713,0,0,0-.714-.9H289.1a1.175,1.175,0,0,0-1.091.9l-.772,3.693a.713.713,0,0,0,.714.9H289.3a1.175,1.175,0,0,0,1.091-.9Z" transform="translate(-275.492 -136.039)" fill="#ffe5a0"/>
              <path id="Path_2167" data-name="Path 2167" d="M331.627,152.153a1.175,1.175,0,0,0,1.091-.9l.772-3.693a.713.713,0,0,0-.714-.9H331.43a1.175,1.175,0,0,0-1.091.9l-.772,3.693a.713.713,0,0,0,.714.9Z" transform="translate(-310.818 -136.039)" fill="#ffe5a0"/>
              <path id="Path_2168" data-name="Path 2168" d="M310.463,152.153a1.175,1.175,0,0,0,1.091-.9l.772-3.693a.713.713,0,0,0-.714-.9h-1.346a1.175,1.175,0,0,0-1.091.9l-.772,3.693a.713.713,0,0,0,.714.9Z" transform="translate(-293.156 -136.039)" fill="#ffe5a0"/>
              <path id="Path_2169" data-name="Path 2169" d="M282.916,184.647a.713.713,0,0,0-.714-.9h-1.346a1.175,1.175,0,0,0-1.091.9l-.87,4.164a.713.713,0,0,0,.714.9h1.346a1.175,1.175,0,0,0,1.091-.9Z" transform="translate(-268.529 -166.993)" fill="#74bdcb"/>
              <path id="Path_2170" data-name="Path 2170" d="M266.163,264.839a.713.713,0,0,0-.714-.9H264.1a1.175,1.175,0,0,0-1.091.9l-.87,4.164a.713.713,0,0,0,.714.9H264.2a1.175,1.175,0,0,0,1.091-.9Z" transform="translate(-254.547 -233.919)" fill="#ffe5a0"/>
              <path id="Path_2171" data-name="Path 2171" d="M255.713,304.035a1.175,1.175,0,0,0-1.091.9l-.872,4.176a.713.713,0,0,0,.714.9h1.346a1.175,1.175,0,0,0,1.091-.9l.872-4.176a.713.713,0,0,0-.714-.9Z" transform="translate(-247.544 -267.385)" fill="#ffe5a0"/>
              <path id="Path_2172" data-name="Path 2172" d="M276.878,304.035a1.175,1.175,0,0,0-1.091.9l-.872,4.176a.713.713,0,0,0,.714.9h1.346a1.175,1.175,0,0,0,1.091-.9l.872-4.176a.713.713,0,0,0-.714-.9Z" transform="translate(-265.207 -267.385)" fill="#ffe5a0"/>
              <path id="Path_2173" data-name="Path 2173" d="M352.792,152.153a1.175,1.175,0,0,0,1.091-.9l.772-3.693a.713.713,0,0,0-.714-.9h-1.346a1.175,1.175,0,0,0-1.091.9l-.772,3.693a.713.713,0,0,0,.714.9Z" transform="translate(-328.482 -136.039)" fill="#ffe5a0"/>
              <path id="Path_2174" data-name="Path 2174" d="M274.539,224.743a.713.713,0,0,0-.714-.9h-1.346a1.175,1.175,0,0,0-1.091.9l-.87,4.164a.713.713,0,0,0,.714.9h1.346a1.175,1.175,0,0,0,1.091-.9Z" transform="translate(-261.538 -200.456)" fill="#ffe5a0"/>
              <path id="Path_2175" data-name="Path 2175" d="M285.267,263.936a1.175,1.175,0,0,0-1.091.9l-.87,4.164a.713.713,0,0,0,.714.9h1.346a1.175,1.175,0,0,0,1.091-.9l.87-4.164a.713.713,0,0,0-.714-.9Z" transform="translate(-272.21 -233.919)" fill="#ffe5a0"/>
              <path id="Path_2176" data-name="Path 2176" d="M304.08,184.647a.713.713,0,0,0-.714-.9H302.02a1.175,1.175,0,0,0-1.091.9l-.87,4.164a.713.713,0,0,0,.714.9h1.346a1.175,1.175,0,0,0,1.091-.9Z" transform="translate(-286.192 -166.993)" fill="#ffe5a0"/>
              <path id="Path_2177" data-name="Path 2177" d="M323.284,189.714a1.175,1.175,0,0,0,1.091-.9l.87-4.164a.713.713,0,0,0-.714-.9h-1.346a1.175,1.175,0,0,0-1.091.9l-.87,4.164a.713.713,0,0,0,.714.9Z" transform="translate(-303.856 -166.993)" fill="#ffe5a0"/>
              <path id="Path_2178" data-name="Path 2178" d="M295.7,224.743a.713.713,0,0,0-.714-.9h-1.346a1.175,1.175,0,0,0-1.091.9l-.87,4.164a.713.713,0,0,0,.714.9h1.346a1.175,1.175,0,0,0,1.091-.9Z" transform="translate(-279.201 -200.456)" fill="#ffe5a0"/>
              <path id="Path_2179" data-name="Path 2179" d="M312.848,228.907a.713.713,0,0,0,.714.9h1.346a1.175,1.175,0,0,0,1.091-.9l.87-4.164a.713.713,0,0,0-.714-.9h-1.346a1.175,1.175,0,0,0-1.091.9Z" transform="translate(-296.865 -200.456)" fill="#ffe5a0"/>
              <path id="Path_2180" data-name="Path 2180" d="M298.043,304.035a1.175,1.175,0,0,0-1.091.9l-.872,4.176a.713.713,0,0,0,.714.9h1.346a1.175,1.175,0,0,0,1.091-.9l.872-4.176a.713.713,0,0,0-.714-.9Z" transform="translate(-282.87 -267.385)" fill="#ffe5a0"/>
              <path id="Path_2181" data-name="Path 2181" d="M342.389,188.811a.713.713,0,0,0,.714.9h1.346a1.175,1.175,0,0,0,1.091-.9l.87-4.164a.713.713,0,0,0-.714-.9H344.35a1.175,1.175,0,0,0-1.091.9Z" transform="translate(-321.519 -166.993)" fill="#ffe5a0"/>
              <path id="Path_2182" data-name="Path 2182" d="M334.012,228.907a.713.713,0,0,0,.714.9h1.346a1.175,1.175,0,0,0,1.091-.9l.87-4.164a.713.713,0,0,0-.714-.9h-1.346a1.175,1.175,0,0,0-1.091.9Z" transform="translate(-314.528 -200.456)" fill="#ffe5a0"/>
              <path id="Path_2183" data-name="Path 2183" d="M325.636,269a.713.713,0,0,0,.714.9H327.7a1.175,1.175,0,0,0,1.091-.9l.87-4.164a.713.713,0,0,0-.714-.9H327.6a1.175,1.175,0,0,0-1.091.9Z" transform="translate(-307.538 -233.919)" fill="#ffe5a0"/>
              <path id="Path_2184" data-name="Path 2184" d="M306.432,263.936a1.175,1.175,0,0,0-1.091.9l-.87,4.164a.713.713,0,0,0,.714.9h1.346a1.175,1.175,0,0,0,1.091-.9l.87-4.164a.713.713,0,0,0-.714-.9Z" transform="translate(-289.874 -233.919)" fill="#ffe5a0"/>
              <path id="Path_2185" data-name="Path 2185" d="M234.882,304.938a.713.713,0,0,0-.714-.9H232.5a1.175,1.175,0,0,0-1.091.9l-.872,4.176a.713.713,0,0,0,.714.9h1.666a1.175,1.175,0,0,0,1.091-.9Z" transform="translate(-228.172 -267.385)" fill="#ffe5a0"/>
              <path id="Path_2186" data-name="Path 2186" d="M243.272,264.839a.713.713,0,0,0-.714-.9h-1.666a1.175,1.175,0,0,0-1.091.9L238.93,269a.713.713,0,0,0,.714.9h1.667a1.175,1.175,0,0,0,1.091-.9Z" transform="translate(-235.175 -233.919)" fill="#ffe5a0"/>
              <path id="Path_2187" data-name="Path 2187" d="M319.207,304.035a1.175,1.175,0,0,0-1.091.9l-.872,4.176a.713.713,0,0,0,.714.9H319.3a1.175,1.175,0,0,0,1.091-.9l.872-4.176a.713.713,0,0,0-.714-.9Z" transform="translate(-300.534 -267.385)" fill="#ffe5a0"/>
              <path id="Path_2188" data-name="Path 2188" d="M359.673,309.114a.713.713,0,0,0,.714.9h1.644a1.175,1.175,0,0,0,1.091-.9l.872-4.176a.713.713,0,0,0-.714-.9h-1.644a1.175,1.175,0,0,0-1.091.9Z" transform="translate(-335.944 -267.385)" fill="#ffe5a0"/>
              <path id="Path_2189" data-name="Path 2189" d="M260.025,184.647a.713.713,0,0,0-.714-.9h-1.666a1.175,1.175,0,0,0-1.091.9l-.87,4.164a.713.713,0,0,0,.714.9h1.667a1.175,1.175,0,0,0,1.091-.9Z" transform="translate(-249.157 -166.993)" fill="#ffe5a0"/>
              <path id="Path_2190" data-name="Path 2190" d="M376.442,228.907a.713.713,0,0,0,.714.9H378.8a1.175,1.175,0,0,0,1.091-.9l.87-4.164a.713.713,0,0,0-.714-.9H378.4a1.175,1.175,0,0,0-1.091.9Z" transform="translate(-349.939 -200.456)" fill="#ffe5a0"/>
              <path id="Path_2191" data-name="Path 2191" d="M386.779,183.744a1.175,1.175,0,0,0-1.091.9l-.87,4.164a.713.713,0,0,0,.714.9h1.644a1.175,1.175,0,0,0,1.091-.9l.87-4.164a.713.713,0,0,0-.714-.9Z" transform="translate(-356.929 -166.993)" fill="#ffe5a0"/>
              <path id="Path_2192" data-name="Path 2192" d="M368.065,269a.713.713,0,0,0,.714.9h1.644a1.175,1.175,0,0,0,1.091-.9l.87-4.164a.713.713,0,0,0-.714-.9h-1.644a1.175,1.175,0,0,0-1.091.9Z" transform="translate(-342.948 -233.919)" fill="#ffe5a0"/>
              <path id="Path_2193" data-name="Path 2193" d="M251.649,224.743a.713.713,0,0,0-.714-.9h-1.667a1.175,1.175,0,0,0-1.091.9l-.87,4.164a.713.713,0,0,0,.714.9h1.666a1.175,1.175,0,0,0,1.091-.9Z" transform="translate(-242.166 -200.456)" fill="#ffe5a0"/>
              <path id="Path_2194" data-name="Path 2194" d="M355.177,228.907a.713.713,0,0,0,.714.9h1.346a1.175,1.175,0,0,0,1.091-.9l.87-4.164a.713.713,0,0,0-.714-.9h-1.346a1.175,1.175,0,0,0-1.091.9Z" transform="translate(-332.192 -200.456)" fill="#ffe5a0"/>
              <path id="Path_2195" data-name="Path 2195" d="M363.553,188.811a.713.713,0,0,0,.714.9h1.346a1.175,1.175,0,0,0,1.091-.9l.87-4.164a.713.713,0,0,0-.714-.9h-1.346a1.175,1.175,0,0,0-1.091.9Z" transform="translate(-339.182 -166.993)" fill="#ffe5a0"/>
              <path id="Path_2196" data-name="Path 2196" d="M268.269,147.557a.713.713,0,0,0-.714-.9h-1.667a1.175,1.175,0,0,0-1.091.9l-.772,3.693a.713.713,0,0,0,.714.9h1.667a1.175,1.175,0,0,0,1.091-.9Z" transform="translate(-256.12 -136.039)" fill="#ffe5a0"/>
              <path id="Path_2197" data-name="Path 2197" d="M338.408,309.114a.713.713,0,0,0,.714.9h1.346a1.175,1.175,0,0,0,1.091-.9l.872-4.176a.713.713,0,0,0-.714-.9h-1.346a1.175,1.175,0,0,0-1.091.9Z" transform="translate(-318.197 -267.385)" fill="#74bdcb"/>
              <path id="Path_2198" data-name="Path 2198" d="M346.8,269a.713.713,0,0,0,.714.9h1.346a1.175,1.175,0,0,0,1.091-.9l.87-4.164a.713.713,0,0,0-.714-.9h-1.346a1.175,1.175,0,0,0-1.091.9Z" transform="translate(-325.201 -233.919)" fill="#ffe5a0"/>
              <path id="Path_2199" data-name="Path 2199" d="M373.76,146.654a1.175,1.175,0,0,0-1.091.9l-.772,3.693a.713.713,0,0,0,.714.9h1.346a1.175,1.175,0,0,0,1.091-.9l.772-3.693a.713.713,0,0,0-.714-.9Z" transform="translate(-346.146 -136.039)" fill="#ffe5a0"/>
              <path id="Path_2200" data-name="Path 2200" d="M393.162,151.25a.713.713,0,0,0,.714.9h1.644a1.175,1.175,0,0,0,1.091-.9l.772-3.693a.713.713,0,0,0-.714-.9h-1.644a1.175,1.175,0,0,0-1.091.9Z" transform="translate(-363.893 -136.039)" fill="#ffe5a0"/>
              <path id="Path_2201" data-name="Path 2201" d="M294.982,149.527a.114.114,0,0,0-.114-.144h-.215a.188.188,0,0,0-.175.144l-.123.591a.114.114,0,0,0,.114.144h.215a.188.188,0,0,0,.175-.144Z" transform="translate(-281.445 -138.316)" fill="#1c648c"/>
              <path id="Path_2202" data-name="Path 2202" d="M337.013,150.263a.188.188,0,0,0,.175-.144l.123-.591a.114.114,0,0,0-.114-.144h-.215a.188.188,0,0,0-.175.144l-.123.591a.114.114,0,0,0,.114.144Z" transform="translate(-316.771 -138.316)" fill="#1c648c"/>
              <path id="Path_2203" data-name="Path 2203" d="M315.849,150.263a.188.188,0,0,0,.175-.144l.123-.591a.114.114,0,0,0-.114-.144h-.215a.188.188,0,0,0-.175.144l-.123.591a.114.114,0,0,0,.114.144Z" transform="translate(-299.108 -138.316)" fill="#1c648c"/>
              <path id="Path_2204" data-name="Path 2204" d="M287.154,186.617a.114.114,0,0,0-.114-.144h-.215a.188.188,0,0,0-.175.144l-.139.666a.114.114,0,0,0,.114.144h.215a.188.188,0,0,0,.175-.144Z" transform="translate(-274.898 -169.271)" fill="#1c648c"/>
              <path id="Path_2205" data-name="Path 2205" d="M270.4,266.808a.114.114,0,0,0-.114-.144h-.215a.188.188,0,0,0-.175.144l-.139.666a.114.114,0,0,0,.114.144h.215a.188.188,0,0,0,.175-.144Z" transform="translate(-260.917 -236.196)" fill="#1c648c"/>
              <path id="Path_2206" data-name="Path 2206" d="M261.692,306.764a.188.188,0,0,0-.175.144l-.139.668a.114.114,0,0,0,.114.144h.215a.188.188,0,0,0,.175-.144l.14-.668a.114.114,0,0,0-.114-.144Z" transform="translate(-253.924 -269.662)" fill="#1c648c"/>
              <path id="Path_2207" data-name="Path 2207" d="M282.857,306.764a.188.188,0,0,0-.175.144l-.14.668a.114.114,0,0,0,.114.144h.215a.188.188,0,0,0,.175-.144l.14-.668a.114.114,0,0,0-.114-.144Z" transform="translate(-271.587 -269.662)" fill="#1c648c"/>
              <path id="Path_2208" data-name="Path 2208" d="M358.178,150.263a.188.188,0,0,0,.175-.144l.123-.591a.114.114,0,0,0-.114-.144h-.215a.188.188,0,0,0-.175.144l-.123.591a.114.114,0,0,0,.114.144Z" transform="translate(-334.435 -138.316)" fill="#1c648c"/>
              <path id="Path_2209" data-name="Path 2209" d="M278.777,226.712a.114.114,0,0,0-.114-.144h-.215a.188.188,0,0,0-.175.144l-.139.666a.114.114,0,0,0,.114.144h.215a.188.188,0,0,0,.175-.144Z" transform="translate(-267.908 -202.733)" fill="#1c648c"/>
              <path id="Path_2210" data-name="Path 2210" d="M291.236,266.664a.188.188,0,0,0-.175.144l-.139.666a.114.114,0,0,0,.114.144h.215a.188.188,0,0,0,.175-.144l.139-.666a.114.114,0,0,0-.114-.144Z" transform="translate(-278.58 -236.196)" fill="#1c648c"/>
              <path id="Path_2211" data-name="Path 2211" d="M308.318,186.617a.114.114,0,0,0-.114-.144h-.215a.188.188,0,0,0-.175.144l-.139.666a.114.114,0,0,0,.114.144H308a.188.188,0,0,0,.175-.144Z" transform="translate(-292.562 -169.271)" fill="#1c648c"/>
              <path id="Path_2212" data-name="Path 2212" d="M329.17,187.428a.188.188,0,0,0,.175-.144l.139-.666a.114.114,0,0,0-.114-.144h-.215a.188.188,0,0,0-.174.144l-.139.666a.114.114,0,0,0,.114.144Z" transform="translate(-310.226 -169.271)" fill="#1c648c"/>
              <path id="Path_2213" data-name="Path 2213" d="M299.942,226.712a.114.114,0,0,0-.114-.144h-.215a.188.188,0,0,0-.175.144l-.139.666a.114.114,0,0,0,.114.144h.215a.188.188,0,0,0,.175-.144Z" transform="translate(-285.571 -202.733)" fill="#1c648c"/>
              <path id="Path_2214" data-name="Path 2214" d="M320.463,227.379a.114.114,0,0,0,.114.144h.215a.188.188,0,0,0,.175-.144l.139-.666a.114.114,0,0,0-.114-.144h-.215a.188.188,0,0,0-.175.144Z" transform="translate(-303.235 -202.733)" fill="#1c648c"/>
              <path id="Path_2215" data-name="Path 2215" d="M304.021,306.764a.188.188,0,0,0-.174.144l-.14.668a.114.114,0,0,0,.114.144h.215a.188.188,0,0,0,.175-.144l.139-.668a.114.114,0,0,0-.114-.144Z" transform="translate(-289.25 -269.662)" fill="#1c648c"/>
              <path id="Path_2216" data-name="Path 2216" d="M350,187.284a.114.114,0,0,0,.114.144h.215a.188.188,0,0,0,.175-.144l.139-.666a.114.114,0,0,0-.114-.144h-.215a.188.188,0,0,0-.175.144Z" transform="translate(-327.889 -169.271)" fill="#1c648c"/>
              <path id="Path_2217" data-name="Path 2217" d="M341.628,227.379a.114.114,0,0,0,.114.144h.215a.188.188,0,0,0,.175-.144l.139-.666a.114.114,0,0,0-.114-.144h-.215a.188.188,0,0,0-.175.144Z" transform="translate(-320.898 -202.733)" fill="#1c648c"/>
              <path id="Path_2218" data-name="Path 2218" d="M333.251,267.475a.114.114,0,0,0,.114.144h.215a.188.188,0,0,0,.175-.144l.139-.666a.114.114,0,0,0-.114-.144h-.215a.188.188,0,0,0-.174.144Z" transform="translate(-313.907 -236.196)" fill="#1c648c"/>
              <path id="Path_2219" data-name="Path 2219" d="M312.4,266.664a.188.188,0,0,0-.175.144l-.139.666a.114.114,0,0,0,.114.144h.215a.188.188,0,0,0,.174-.144l.139-.666a.114.114,0,0,0-.114-.144Z" transform="translate(-296.244 -236.196)" fill="#1c648c"/>
              <path id="Path_2220" data-name="Path 2220" d="M238.861,306.908a.114.114,0,0,0-.114-.144h-.267a.188.188,0,0,0-.175.144l-.14.668a.114.114,0,0,0,.114.144h.267a.188.188,0,0,0,.175-.144Z" transform="translate(-234.552 -269.662)" fill="#1c648c"/>
              <path id="Path_2221" data-name="Path 2221" d="M247.241,266.808a.114.114,0,0,0-.114-.144h-.267a.188.188,0,0,0-.175.144l-.139.666a.114.114,0,0,0,.114.144h.267a.188.188,0,0,0,.175-.144Z" transform="translate(-241.545 -236.196)" fill="#1c648c"/>
              <path id="Path_2222" data-name="Path 2222" d="M325.186,306.764a.188.188,0,0,0-.175.144l-.139.668a.114.114,0,0,0,.114.144h.215a.188.188,0,0,0,.175-.144l.14-.668a.114.114,0,0,0-.114-.144Z" transform="translate(-306.914 -269.662)" fill="#1c648c"/>
              <path id="Path_2223" data-name="Path 2223" d="M367.3,307.577a.114.114,0,0,0,.114.144h.263a.188.188,0,0,0,.175-.144l.139-.668a.114.114,0,0,0-.114-.144h-.263a.188.188,0,0,0-.175.144Z" transform="translate(-342.324 -269.662)" fill="#1c648c"/>
              <path id="Path_2224" data-name="Path 2224" d="M263.994,186.617a.114.114,0,0,0-.114-.144h-.267a.188.188,0,0,0-.175.144l-.139.666a.114.114,0,0,0,.114.144h.267a.188.188,0,0,0,.175-.144Z" transform="translate(-255.527 -169.271)" fill="#1c648c"/>
              <path id="Path_2225" data-name="Path 2225" d="M384.057,227.379a.114.114,0,0,0,.114.144h.263a.188.188,0,0,0,.175-.144l.139-.666a.114.114,0,0,0-.114-.144h-.263a.188.188,0,0,0-.175.144Z" transform="translate(-356.309 -202.733)" fill="#1c648c"/>
              <path id="Path_2226" data-name="Path 2226" d="M392.748,186.473a.188.188,0,0,0-.175.144l-.139.666a.114.114,0,0,0,.114.144h.263a.188.188,0,0,0,.175-.144l.139-.666a.114.114,0,0,0-.114-.144Z" transform="translate(-363.299 -169.271)" fill="#1c648c"/>
              <path id="Path_2227" data-name="Path 2227" d="M375.681,267.475a.114.114,0,0,0,.114.144h.263a.188.188,0,0,0,.174-.144l.139-.666a.114.114,0,0,0-.114-.144H376a.188.188,0,0,0-.175.144Z" transform="translate(-349.318 -236.196)" fill="#1c648c"/>
              <path id="Path_2228" data-name="Path 2228" d="M255.617,226.712a.114.114,0,0,0-.114-.144h-.267a.188.188,0,0,0-.175.144l-.139.666a.114.114,0,0,0,.114.144h.267a.188.188,0,0,0,.175-.144Z" transform="translate(-248.536 -202.733)" fill="#1c648c"/>
              <path id="Path_2229" data-name="Path 2229" d="M362.792,227.379a.114.114,0,0,0,.114.144h.215a.188.188,0,0,0,.175-.144l.139-.666a.114.114,0,0,0-.114-.144h-.215a.188.188,0,0,0-.175.144Z" transform="translate(-338.561 -202.733)" fill="#1c648c"/>
              <path id="Path_2230" data-name="Path 2230" d="M371.169,187.284a.114.114,0,0,0,.114.144h.215a.188.188,0,0,0,.175-.144l.139-.666a.114.114,0,0,0-.114-.144h-.215a.188.188,0,0,0-.175.144Z" transform="translate(-345.552 -169.271)" fill="#1c648c"/>
              <path id="Path_2231" data-name="Path 2231" d="M271.821,149.527a.114.114,0,0,0-.114-.144h-.267a.188.188,0,0,0-.175.144l-.123.591a.114.114,0,0,0,.114.144h.267a.188.188,0,0,0,.174-.144Z" transform="translate(-262.073 -138.316)" fill="#1c648c"/>
              <path id="Path_2232" data-name="Path 2232" d="M346.036,307.577a.114.114,0,0,0,.114.144h.215a.188.188,0,0,0,.175-.144l.14-.668a.114.114,0,0,0-.114-.144h-.215a.188.188,0,0,0-.175.144Z" transform="translate(-324.577 -269.662)" fill="#1c648c"/>
              <path id="Path_2233" data-name="Path 2233" d="M354.416,267.475a.114.114,0,0,0,.114.144h.215a.188.188,0,0,0,.175-.144l.139-.666a.114.114,0,0,0-.114-.144h-.215a.188.188,0,0,0-.175.144Z" transform="translate(-331.571 -236.196)" fill="#1c648c"/>
              <path id="Path_2234" data-name="Path 2234" d="M379.311,149.383a.188.188,0,0,0-.175.144l-.123.591a.114.114,0,0,0,.114.144h.215a.188.188,0,0,0,.175-.144l.123-.591a.114.114,0,0,0-.114-.144Z" transform="translate(-352.099 -138.316)" fill="#1c648c"/>
              <path id="Path_2235" data-name="Path 2235" d="M400.277,150.118a.114.114,0,0,0,.114.144h.263a.188.188,0,0,0,.175-.144l.123-.591a.114.114,0,0,0-.114-.144h-.263a.188.188,0,0,0-.175.144Z" transform="translate(-369.845 -138.316)" fill="#1c648c"/>
              <path id="Path_2236" data-name="Path 2236" d="M277.415,138.935h-2.751l.09-.43H277.5Z" transform="translate(-265.014 -129.238)" fill="#fff"/>
              <path id="Path_2237" data-name="Path 2237" d="M298.316,138.935h-2.751l.09-.43h2.751Z" transform="translate(-282.458 -129.238)" fill="#fff"/>
              <path id="Path_2238" data-name="Path 2238" d="M319.217,138.935h-2.751l.09-.43h2.751Z" transform="translate(-299.901 -129.238)" fill="#fff"/>
              <path id="Path_2239" data-name="Path 2239" d="M340.118,138.935h-2.751l.09-.43h2.751Z" transform="translate(-317.345 -129.238)" fill="#fff"/>
              <path id="Path_2240" data-name="Path 2240" d="M361.019,138.935h-2.751l.09-.43h2.751Z" transform="translate(-334.788 -129.238)" fill="#fff"/>
              <path id="Path_2241" data-name="Path 2241" d="M381.92,138.935H379.17l.09-.43h2.751Z" transform="translate(-352.232 -129.238)" fill="#fff"/>
              <path id="Path_2242" data-name="Path 2242" d="M402.821,138.935h-2.751l.09-.43h2.751Z" transform="translate(-369.675 -129.238)" fill="#fff"/>
              <path id="Path_2243" data-name="Path 2243" d="M322.2,201.558H308.373a.734.734,0,0,1-.735-.929h0a1.209,1.209,0,0,1,1.123-.929h13.831a.734.734,0,0,1,.735.929h0A1.209,1.209,0,0,1,322.2,201.558Z" transform="translate(-292.517 -180.31)" fill="#ff6867"/>
              <path id="Path_2244" data-name="Path 2244" d="M347.341,161.434h-9.317a.734.734,0,0,1-.735-.929h0a1.209,1.209,0,0,1,1.123-.929h9.317a.734.734,0,0,1,.735.929h0A1.209,1.209,0,0,1,347.341,161.434Z" transform="translate(-317.263 -146.823)" fill="#e49ac1"/>
              <path id="Path_2245" data-name="Path 2245" d="M252.711,321.086h-9.317a.734.734,0,0,1-.735-.929h0a1.209,1.209,0,0,1,1.123-.929H253.1a.734.734,0,0,1,.735.929h0A1.209,1.209,0,0,1,252.711,321.086Z" transform="translate(-238.287 -280.065)" fill="#90bce9"/>
              <path id="Path_2246" data-name="Path 2246" d="M298.218,239.387h0a.794.794,0,0,1-.8-1h0a1.308,1.308,0,0,1,1.215-1h0a.794.794,0,0,1,.795,1h0A1.308,1.308,0,0,1,298.218,239.387Z" transform="translate(-283.99 -211.754)" fill="#90bce9"/>
              <path id="Path_2247" data-name="Path 2247" d="M319.383,239.387h0a.794.794,0,0,1-.795-1h0a1.308,1.308,0,0,1,1.215-1h0a.794.794,0,0,1,.8,1h0A1.308,1.308,0,0,1,319.383,239.387Z" transform="translate(-301.654 -211.754)" fill="#74bdcb"/>
              <path id="Path_2248" data-name="Path 2248" d="M354.537,279.281h0a.794.794,0,0,1-.795-1h0a1.308,1.308,0,0,1,1.215-1h0a.794.794,0,0,1,.795,1h0A1.308,1.308,0,0,1,354.537,279.281Z" transform="translate(-330.992 -245.048)" fill="#90bce9"/>
              <path id="Path_2249" data-name="Path 2249" d="M375.7,279.281h0a.794.794,0,0,1-.8-1h0a1.308,1.308,0,0,1,1.215-1h0a.794.794,0,0,1,.795,1h0A1.308,1.308,0,0,1,375.7,279.281Z" transform="translate(-348.655 -245.048)" fill="#74bdcb"/>
              <path id="Path_2250" data-name="Path 2250" d="M340.548,239.387h0a.794.794,0,0,1-.795-1h0a1.308,1.308,0,0,1,1.215-1h0a.794.794,0,0,1,.795,1h0A1.308,1.308,0,0,1,340.548,239.387Z" transform="translate(-319.317 -211.754)" fill="#d83e7d"/>
              <path id="Path_2251" data-name="Path 2251" d="M427.811,142.212h0a.3.3,0,0,1-.288-.4l.543-2.561a.5.5,0,0,1,.455-.4h0a.3.3,0,0,1,.288.4l-.542,2.561A.5.5,0,0,1,427.811,142.212Z" transform="translate(-392.579 -129.533)" fill="#1c648c"/>
              <path id="Path_2252" data-name="Path 2252" d="M415.743,174.9h0a.3.3,0,0,1-.288-.4l1.562-7.375a.5.5,0,0,1,.455-.4h0a.3.3,0,0,1,.288.4L416.2,174.5A.5.5,0,0,1,415.743,174.9Z" transform="translate(-382.507 -152.793)" fill="#6260fe"/>
            </g>
            <path id="Path_2253" data-name="Path 2253" d="M178.372,284.474c-.31.064-.678,3.469-.705,5.206-.03,1.869.194,9.185.194,9.185l-2.069,11.785h2.749s3.283-8.857,3.876-12.078c.348-1.891.863-9.351.863-9.351l1.622,9.286,1.251,12.142h2.591s.623-8.916.579-12.415a89.838,89.838,0,0,0-1.669-11.735c-1.078-2.934-.811-3.535-1.7-4.578" transform="translate(-175.273 -248.93)" fill="#6269fe"/>
            <g id="Group_2093" data-name="Group 2093" transform="translate(0.519 32.992)" opacity="0.3">
              <g id="Group_2092" data-name="Group 2092" clip-path="url(#clip-path)">
                <g id="Group_2091" data-name="Group 2091" transform="translate(0.475 2.431)">
                  <path id="Path_2254" data-name="Path 2254" d="M178.665,430.418a2.258,2.258,0,0,0,.63-.23,1.676,1.676,0,0,0,.516-.415,1.269,1.269,0,0,0,.274-.594.726.726,0,0,0,.021-.164l.01-.167a.98.98,0,0,1,.067-.341,1.16,1.16,0,0,1,.448-.517,2.363,2.363,0,0,1,.62-.283,4.8,4.8,0,0,1,1.338-.192,5.443,5.443,0,0,0-1.322.241,2.5,2.5,0,0,0-.6.284,1.1,1.1,0,0,0-.421.491.913.913,0,0,0-.065.317l-.012.17a.759.759,0,0,1-.023.17,1.271,1.271,0,0,1-.294.615A1.962,1.962,0,0,1,178.665,430.418Z" transform="translate(-178.665 -405.861)" fill="#fff"/>
                  <path id="Path_2255" data-name="Path 2255" d="M180.98,411.383a6.822,6.822,0,0,1,.8-1.219,2.7,2.7,0,0,1,.539-.5,1.082,1.082,0,0,1,.339-.158.584.584,0,0,1,.19-.018,1.784,1.784,0,0,1,.185.031,1.513,1.513,0,0,0,.7-.06,5.445,5.445,0,0,0,.676-.262,10.6,10.6,0,0,0,1.267-.718,8.618,8.618,0,0,1-1.245.764,4.774,4.774,0,0,1-.681.274,1.57,1.57,0,0,1-.735.067,1.609,1.609,0,0,0-.174-.031.512.512,0,0,0-.171.015,1.019,1.019,0,0,0-.32.146,2.862,2.862,0,0,0-.533.484,6.333,6.333,0,0,0-.447.573C181.235,410.969,181.1,411.172,180.98,411.383Z" transform="translate(-180.597 -389.974)" fill="#fff"/>
                  <path id="Path_2256" data-name="Path 2256" d="M185.63,391.309a1.387,1.387,0,0,0,1.188.432,1.578,1.578,0,0,0,.606-.226,4.92,4.92,0,0,0,.528-.394,6.313,6.313,0,0,1,1.136-.693,5.32,5.32,0,0,1,1.259-.423,6.167,6.167,0,0,0-1.236.469,6.632,6.632,0,0,0-1.118.7c-.087.068-.17.137-.261.2a2.106,2.106,0,0,1-.277.19,1.548,1.548,0,0,1-.631.225A1.367,1.367,0,0,1,185.63,391.309Z" transform="translate(-184.478 -374.555)" fill="#fff"/>
                  <path id="Path_2257" data-name="Path 2257" d="M187.622,372.025a4.517,4.517,0,0,1,1.3.016,2.925,2.925,0,0,1,1.214.473,1.092,1.092,0,0,0,.6.173,1.914,1.914,0,0,0,.63-.1,3.413,3.413,0,0,0,.6-.25,4.338,4.338,0,0,0,.554-.338,3.8,3.8,0,0,1-1.134.637,1.842,1.842,0,0,1-.647.112,1.154,1.154,0,0,1-.634-.177,2.944,2.944,0,0,0-1.187-.479A5.124,5.124,0,0,0,187.622,372.025Z" transform="translate(-186.14 -359.517)" fill="#fff"/>
                  <path id="Path_2258" data-name="Path 2258" d="M185.63,342.626a11.02,11.02,0,0,1,1.466-.452,10.654,10.654,0,0,1,1.518-.23,13.046,13.046,0,0,1,3.063.158c.506.079,1.008.177,1.514.236a4.472,4.472,0,0,0,.761.031,1.922,1.922,0,0,0,.733-.172,3.114,3.114,0,0,0,.618-.442q.295-.245.579-.5.573-.509,1.108-1.06-.523.561-1.086,1.084-.283.26-.576.507a3.14,3.14,0,0,1-.623.452,1.966,1.966,0,0,1-.749.182,4.534,4.534,0,0,1-.77-.026c-.51-.056-1.013-.15-1.518-.226a12.978,12.978,0,0,0-3.049-.18A11.256,11.256,0,0,0,185.63,342.626Z" transform="translate(-184.478 -332.984)" fill="#fff"/>
                  <path id="Path_2259" data-name="Path 2259" d="M185.63,328.864a7.994,7.994,0,0,1,2.825-.376c.119.01.238.027.357.041l.352.073c.114.039.23.069.342.114s.221.1.326.15a1.279,1.279,0,0,0,.685.078,3.294,3.294,0,0,0,.686-.17,19.235,19.235,0,0,0,2.559-1.256c.42-.226.842-.449,1.282-.636a4.172,4.172,0,0,1,.681-.222,1.2,1.2,0,0,1,.705.022,1.194,1.194,0,0,0-.7-.005,4.166,4.166,0,0,0-.672.236c-.436.191-.856.416-1.273.645a19.21,19.21,0,0,1-2.559,1.28,3.34,3.34,0,0,1-.7.168,1.337,1.337,0,0,1-.715-.088l-.322-.152c-.109-.045-.223-.076-.335-.115l-.347-.075c-.118-.014-.235-.032-.353-.043a6.769,6.769,0,0,0-1.422.05A9.385,9.385,0,0,0,185.63,328.864Z" transform="translate(-184.478 -321.655)" fill="#fff"/>
                  <path id="Path_2260" data-name="Path 2260" d="M183.4,314.835a4.219,4.219,0,0,0,1.408.864,3.064,3.064,0,0,0,.806.176,2.469,2.469,0,0,0,.818-.081,2.615,2.615,0,0,0,.747-.343c.228-.153.44-.335.662-.5a9.39,9.39,0,0,1,1.4-.9,5.721,5.721,0,0,1,3.24-.628l.415.049c.138.016.273.052.41.077a8.007,8.007,0,0,1,.808.206c.267.078.524.186.786.278.256.108.51.222.764.332a10.212,10.212,0,0,0-3.187-.9,5.669,5.669,0,0,0-3.206.643,9.344,9.344,0,0,0-1.4.888c-.222.166-.433.346-.668.5a2.66,2.66,0,0,1-.763.344,2.5,2.5,0,0,1-.832.077,3.049,3.049,0,0,1-.815-.184A4.232,4.232,0,0,1,183.4,314.835Z" transform="translate(-182.618 -310.617)" fill="#fff"/>
                  <path id="Path_2261" data-name="Path 2261" d="M184.476,298.772a12.34,12.34,0,0,0,1.438.175,9.55,9.55,0,0,0,1.446,0,4.651,4.651,0,0,0,1.4-.31,2.223,2.223,0,0,0,.608-.374,5.046,5.046,0,0,1,.584-.437,8.394,8.394,0,0,1,2.687-1.082,5.562,5.562,0,0,1,1.446-.123,2.421,2.421,0,0,1,1.355.465,2.407,2.407,0,0,0-1.357-.432,5.549,5.549,0,0,0-1.435.134,8.349,8.349,0,0,0-2.661,1.094,5.006,5.006,0,0,0-.58.426,2.275,2.275,0,0,1-.626.379,4.692,4.692,0,0,1-1.421.3A10.786,10.786,0,0,1,184.476,298.772Z" transform="translate(-183.515 -296.615)" fill="#fff"/>
                  <path id="Path_2262" data-name="Path 2262" d="M225.141,360.6a3.827,3.827,0,0,1,1.257-.765,1.661,1.661,0,0,1,.737-.1.951.951,0,0,1,.185.035.711.711,0,0,1,.178.064,1.821,1.821,0,0,0,.336.134,1.574,1.574,0,0,0,.715-.014,3.764,3.764,0,0,0,.691-.236,6.205,6.205,0,0,0,.652-.337,7.157,7.157,0,0,0,.618-.4,6.46,6.46,0,0,1-1.249.784,3.453,3.453,0,0,1-.7.248,1.632,1.632,0,0,1-.745.02.932.932,0,0,1-.179-.062c-.058-.03-.113-.055-.167-.079a.662.662,0,0,0-.167-.062.9.9,0,0,0-.176-.035,1.681,1.681,0,0,0-.714.086,3.365,3.365,0,0,0-.666.3A4.415,4.415,0,0,0,225.141,360.6Z" transform="translate(-217.453 -348.67)" fill="#fff"/>
                  <path id="Path_2263" data-name="Path 2263" d="M225.141,372.5a3.152,3.152,0,0,1,.613-.813,2.092,2.092,0,0,1,.884-.506,2,2,0,0,1,1.02.016l.241.091.121.046.113.062c.15.083.3.166.444.253a2.464,2.464,0,0,0,.946.324,2.348,2.348,0,0,0,.5,0,2.458,2.458,0,0,0,.489-.12,3.087,3.087,0,0,0,.873-.5,3.971,3.971,0,0,0,.709-.726,3.5,3.5,0,0,1-1.567,1.272,2.522,2.522,0,0,1-.5.128,2.4,2.4,0,0,1-.515.01,2.517,2.517,0,0,1-.973-.321c-.147-.092-.293-.173-.439-.256l-.11-.062-.117-.046-.235-.092a1.956,1.956,0,0,0-.993-.027,2.065,2.065,0,0,0-.873.487A3.127,3.127,0,0,0,225.141,372.5Z" transform="translate(-217.453 -358.377)" fill="#fff"/>
                  <path id="Path_2264" data-name="Path 2264" d="M228.818,394.248a3.5,3.5,0,0,1,1.442-.753,1.781,1.781,0,0,1,.823,0l.2.068c.064.026.123.065.184.1l.178.1a.824.824,0,0,0,.18.084,3,3,0,0,0,1.6.045,7.856,7.856,0,0,0,1.553-.49,6.923,6.923,0,0,1-1.542.541,4.107,4.107,0,0,1-.816.1,2.192,2.192,0,0,1-.814-.129.878.878,0,0,1-.188-.089l-.18-.1c-.059-.031-.114-.069-.176-.095l-.188-.067a1.794,1.794,0,0,0-.8-.01,2.984,2.984,0,0,0-.762.271A4.112,4.112,0,0,0,228.818,394.248Z" transform="translate(-220.521 -377.388)" fill="#fff"/>
                  <path id="Path_2265" data-name="Path 2265" d="M228.818,409.434a4.916,4.916,0,0,1,1.48-.668,2.554,2.554,0,0,1,.814-.081,1.044,1.044,0,0,1,.2.024,1.2,1.2,0,0,1,.2.047l.383.134a3.672,3.672,0,0,0,1.6.012,9.236,9.236,0,0,0,1.565-.424,7.952,7.952,0,0,1-1.555.475,3.651,3.651,0,0,1-1.626,0l-.383-.137a1.125,1.125,0,0,0-.194-.046,1,1,0,0,0-.2-.025,2.652,2.652,0,0,0-.8.07A5.35,5.35,0,0,0,228.818,409.434Z" transform="translate(-220.521 -389.974)" fill="#fff"/>
                  <path id="Path_2266" data-name="Path 2266" d="M228.818,429.873a5.552,5.552,0,0,1,1.681-.688,3.432,3.432,0,0,1,1.811.054,5.8,5.8,0,0,0,1.8.138c.3-.015.6-.05.9-.093s.6-.1.893-.167a9.456,9.456,0,0,1-1.793.311,6.7,6.7,0,0,1-.913.01,4.468,4.468,0,0,1-.9-.134,3.424,3.424,0,0,0-1.784-.069A6,6,0,0,0,228.818,429.873Z" transform="translate(-220.521 -407.175)" fill="#fff"/>
                  <path id="Path_2267" data-name="Path 2267" d="M229.955,441.391a12.36,12.36,0,0,1,1.476-.611,11.741,11.741,0,0,1,1.544-.418,7.216,7.216,0,0,1,1.594-.138,3.61,3.61,0,0,1,1.545.371,3.23,3.23,0,0,0-.757-.239,4.187,4.187,0,0,0-.789-.08,7.5,7.5,0,0,0-1.58.152,12.623,12.623,0,0,0-1.54.4A15.935,15.935,0,0,0,229.955,441.391Z" transform="translate(-221.47 -416.464)" fill="#fff"/>
                </g>
              </g>
            </g>
            <g id="Group_2094" data-name="Group 2094" transform="translate(5 21.604)">
              <path id="Path_2269" data-name="Path 2269" d="M207.292,220.844l.511-7.243-.061-.049c-1.514-1.2-3.05.059-3.661,1.893-2.5,7.519.109,7.675,1.027,8.225l6.176,2.069c.281-.645.582-1.281.906-1.873Z" transform="translate(-203.001 -213.08)" fill="#e49ac1"/>
              <path id="Path_2270" data-name="Path 2270" d="M203.96,227.38c-.165.55-.332,1.1-.474,1.655s-.279,1.113-.374,1.678a10.675,10.675,0,0,0-.18,1.706,5.249,5.249,0,0,0,.048.856,3.323,3.323,0,0,0,.21.831,4.137,4.137,0,0,1-.311-1.687,10.152,10.152,0,0,1,.166-1.717c.1-.566.234-1.127.391-1.68S203.772,227.922,203.96,227.38Z" transform="translate(-202.88 -225.014)" fill="#1a2e35"/>
              <path id="Path_2271" data-name="Path 2271" d="M229.149,233.175l-.386-.227a.01.01,0,0,1,0-.009c.044-.9.1-1.791.167-2.685l.1-1.341c.036-.447.076-.893.119-1.34-.021.448-.043.9-.07,1.343l-.086,1.342c-.063.894-.13,1.789-.212,2.682l0-.009Z" transform="translate(-224.477 -225.175)" fill="#1a2e35"/>
              <path id="Path_2272" data-name="Path 2272" d="M256.045,279.631l-2.187-1.35c-.324.593-.625,1.229-.906,1.873l1.354.511Z" transform="translate(-244.669 -267.495)" fill="#c1a08b"/>
              <path id="Path_2273" data-name="Path 2273" d="M260.909,286.035c.077.4.975,1.273,1.126,1.207s-.05-.45-.05-.45.345.479.557.39-.035-.65-.035-.65.3.594.473.451-.072-.795-.072-.795.374.489.509.381-.03-.748-.713-1.748" transform="translate(-251.309 -272.954)" fill="#c1a08b"/>
              <path id="Path_2274" data-name="Path 2274" d="M262.8,282.241s1.185.687,1.25.3a2.121,2.121,0,0,0-2.436-.856" transform="translate(-251.898 -270.268)" fill="#c1a08b"/>
              <path id="Path_2275" data-name="Path 2275" d="M249.023,275.747c-.185.306-.37.61-.53.926a4.928,4.928,0,0,0-.4.985,2.43,2.43,0,0,1,.126-.522,4.641,4.641,0,0,1,.216-.493A5.192,5.192,0,0,1,249.023,275.747Z" transform="translate(-240.613 -265.38)" fill="#1a2e35"/>
            </g>
            <ellipse id="Ellipse_113" data-name="Ellipse 113" cx="1.258" cy="1.11" rx="1.258" ry="1.11" transform="translate(7.376 15.422)" fill="#404771"/>
            <path id="Path_2276" data-name="Path 2276" d="M237.724,461.906l-.072,1.365h1.927A2.262,2.262,0,0,0,237.724,461.906Z" transform="translate(-226.9 -399.14)" fill="#ffe5a0"/>
            <path id="Path_2277" data-name="Path 2277" d="M247.563,457.993h2.057a3.076,3.076,0,0,0-2.229-1.369,6.059,6.059,0,0,1-.806-1.042H245.1A6.24,6.24,0,0,0,247.563,457.993Z" transform="translate(-233.115 -393.861)" fill="#ffe5a0"/>
            <path id="Path_2278" data-name="Path 2278" d="M239.245,455.581H238.14l-.055,1.046a2.262,2.262,0,0,1,1.856,1.365h1.769A6.24,6.24,0,0,1,239.245,455.581Z" transform="translate(-227.261 -393.861)" fill="#ffd461"/>
            <rect id="Rectangle_1181" data-name="Rectangle 1181" width="5.786" height="0.526" transform="translate(10.719 64.132)" fill="#fff"/>
            <path id="Path_2279" data-name="Path 2279" d="M265.339,464.984c-.064.134-.137.258-.2.39a2.93,2.93,0,0,0-.167.4.947.947,0,0,1,.107-.43A1.334,1.334,0,0,1,265.339,464.984Z" transform="translate(-249.701 -401.709)" fill="#1a2e35"/>
            <path id="Path_2280" data-name="Path 2280" d="M173.19,460.887l-.336,1.534h1.923A2.871,2.871,0,0,0,173.19,460.887Z" transform="translate(-172.821 -398.289)" fill="#ffe5a0"/>
            <path id="Path_2281" data-name="Path 2281" d="M186.987,457.993h1.863a2.376,2.376,0,0,0-2.1-1.206,11.767,11.767,0,0,1-.422-1.206h-1.2A4.491,4.491,0,0,0,186.987,457.993Z" transform="translate(-183.063 -393.861)" fill="#ffe5a0"/>
            <path id="Path_2282" data-name="Path 2282" d="M176.581,455.581h-1.5l-.192.878a2.871,2.871,0,0,1,1.586,1.534h1.968A4.491,4.491,0,0,1,176.581,455.581Z" transform="translate(-174.518 -393.861)" fill="#ffd461"/>
            <rect id="Rectangle_1182" data-name="Rectangle 1182" width="5.786" height="0.526" transform="translate(0 64.132)" fill="#fff"/>
            <path id="Path_2283" data-name="Path 2283" d="M200.542,464.969c-.064.134-.137.259-.2.391a2.931,2.931,0,0,0-.167.4.952.952,0,0,1,.107-.432A1.346,1.346,0,0,1,200.542,464.969Z" transform="translate(-195.623 -401.696)" fill="#1a2e35"/>
            <path id="Path_2284" data-name="Path 2284" d="M197.507,224.608l-1.336-5.465a3.6,3.6,0,0,1-.2-2.544,4.242,4.242,0,0,0,.069-3.562,9.807,9.807,0,0,1-.437-1.241c-.458-1.846-.654-2.694-2.536-2.969-.087-.013-.172-.022-.255-.028,0,0-.383-.012-.7,0-2.218.072-4.531,1.787-4.253,3.934l1.5,6.827-.849,2.284a22.017,22.017,0,0,0-.891,3.06A12.087,12.087,0,0,0,197.507,224.608Z" transform="translate(-185.146 -187.897)" fill="#fef6de"/>
            <path id="Path_2285" data-name="Path 2285" d="M222.492,216.4a4.138,4.138,0,0,0-.024-3.306,9.807,9.807,0,0,1-.437-1.241c-.458-1.846-.654-2.694-2.536-2.969-.069-.01-.135-.016-.2-.022C220.625,209.916,221.938,212.074,222.492,216.4Z" transform="translate(-211.579 -187.959)" fill="#e49ac1"/>
            <path id="Path_2286" data-name="Path 2286" d="M189.276,225.691c1.562.287,4.79.713,6.808-.188-.41-6.107.046-11.472-5.038-13.21a3.442,3.442,0,0,0-2.1,3.359l1.5,6.827-.849,2.284C189.481,225.07,189.376,225.38,189.276,225.691Z" transform="translate(-186.228 -190.819)" fill="#e49ac1"/>
            <path id="Path_2287" data-name="Path 2287" d="M221.055,321.521c.269-.174.55-.325.83-.478s.566-.294.861-.419c-.269.174-.55.325-.83.478S221.35,321.4,221.055,321.521Z" transform="translate(-213.048 -281.23)" fill="#1a2e35"/>
            <path id="Path_2288" data-name="Path 2288" d="M176.269,452.46q.36-.027.719-.044l.72-.026.72-.01q.36,0,.721.008-.36.028-.719.044l-.72.026-.72.01Q176.63,452.47,176.269,452.46Z" transform="translate(-175.671 -391.189)" fill="#1a2e35"/>
            <path id="Path_2289" data-name="Path 2289" d="M238.3,452.461c.22-.018.441-.032.661-.042l.661-.024.662-.009c.221,0,.441,0,.662.009q-.33.027-.661.042l-.661.024-.662.009Q238.632,452.471,238.3,452.461Z" transform="translate(-227.441 -391.194)" fill="#1a2e35"/>
            <g id="Group_2095" data-name="Group 2095" transform="translate(3.065 19.307)">
              <path id="Path_2290" data-name="Path 2290" d="M198.9,215.974l-6.755-2.661-.065.043c-1.6,1.083-.86,2.927.707,4.06,6.421,4.645,7.354,2.2,8.153,1.49l3.828-5.27c-.531-.461-1.047-.939-1.515-1.426Z" transform="translate(-191.18 -210.056)" fill="#e49ac1"/>
              <path id="Path_2291" data-name="Path 2291" d="M200.861,243.684c.475.323.949.646,1.437.949s.978.6,1.488.861a10.7,10.7,0,0,0,1.573.684,5.256,5.256,0,0,0,.831.211,3.326,3.326,0,0,0,.856.049,4.136,4.136,0,0,1-1.7-.21,10.116,10.116,0,0,1-1.588-.674,17.244,17.244,0,0,1-1.485-.877C201.787,244.365,201.322,244.027,200.861,243.684Z" transform="translate(-199.26 -236.324)" fill="#1a2e35"/>
              <path id="Path_2292" data-name="Path 2292" d="M212.9,224.726l-.332.3a.011.011,0,0,1-.01,0c-.841-.311-1.677-.636-2.511-.965l-1.248-.5c-.416-.168-.829-.341-1.243-.516.421.154.842.31,1.26.47l1.255.485c.834.329,1.667.661,2.494,1.007l-.01,0Z" transform="translate(-204.849 -219.101)" fill="#1a2e35"/>
              <path id="Path_2293" data-name="Path 2293" d="M266.072,202.044l-1.944,1.682c.468.487.984.965,1.515,1.426l.894-1.138Z" transform="translate(-252.06 -201.573)" fill="#c1a08b"/>
              <path id="Path_2294" data-name="Path 2294" d="M274.99,201.821c.553-.087,1.023-.419,1.005-.582a.253.253,0,0,0-.146-.212.284.284,0,0,0,.181-.3c-.021-.229-.332-.213-.332-.213s.411-.153.325-.358a.39.39,0,0,0-.345-.2s.892-.141.829-.406-.977-.154-2.135.2" transform="translate(-260.61 -199.371)" fill="#c1a08b"/>
              <path id="Path_2295" data-name="Path 2295" d="M280.459,205.79c.083-.025.161-.033.236-.059s.148-.055.235-.068a.523.523,0,0,1-.216.133A.434.434,0,0,1,280.459,205.79Z" transform="translate(-265.69 -204.593)" fill="#1a2e35"/>
              <path id="Path_2296" data-name="Path 2296" d="M281.655,208.915a.528.528,0,0,0,.2,0,.434.434,0,0,0,.17-.108.219.219,0,0,1-.152.172A.235.235,0,0,1,281.655,208.915Z" transform="translate(-266.688 -207.213)" fill="#1a2e35"/>
              <path id="Path_2297" data-name="Path 2297" d="M270,200.07s1.1-.567.762-.759c-.756-.431-1.8.4-1.525,1.473" transform="translate(-256.29 -199.195)" fill="#c1a08b"/>
              <path id="Path_2298" data-name="Path 2298" d="M280.5,202.638a.7.7,0,0,1,.185-.067.693.693,0,0,1,.2-.015.469.469,0,0,1-.182.08A.475.475,0,0,1,280.5,202.638Z" transform="translate(-265.725 -201.997)" fill="#1a2e35"/>
              <path id="Path_2299" data-name="Path 2299" d="M275.161,200.083a1.377,1.377,0,0,1,.431-.146,2.069,2.069,0,0,1,.453-.035c-.146.046-.294.069-.441.1l-.221.039C275.309,200.054,275.236,200.067,275.161,200.083Z" transform="translate(-261.268 -199.783)" fill="#1a2e35"/>
              <path id="Path_2300" data-name="Path 2300" d="M260.3,215.937c.236.268.471.535.725.784a4.911,4.911,0,0,0,.819.678,2.417,2.417,0,0,1-.461-.277,4.629,4.629,0,0,1-.405-.354A5.181,5.181,0,0,1,260.3,215.937Z" transform="translate(-248.865 -213.167)" fill="#1a2e35"/>
            </g>
            <path id="Path_2301" data-name="Path 2301" d="M174.452,462.87a6.6,6.6,0,0,1,.4.552,6.514,6.514,0,0,1,.348.589,6.516,6.516,0,0,1-.4-.552A6.615,6.615,0,0,1,174.452,462.87Z" transform="translate(-174.155 -399.944)" fill="#1a2e35"/>
            <path id="Path_2302" data-name="Path 2302" d="M238.3,463.384a5.9,5.9,0,0,1,.375.526,5.835,5.835,0,0,1,.318.562,5.759,5.759,0,0,1-.375-.526A5.864,5.864,0,0,1,238.3,463.384Z" transform="translate(-227.441 -400.373)" fill="#1a2e35"/>
            <path id="Path_2303" data-name="Path 2303" d="M205.1,202.622l.679-1.868,2.086.693-.085,1.859S206.683,204.16,205.1,202.622Z" transform="translate(-199.729 -181.189)" fill="#c1a08b"/>
            <path id="Path_2304" data-name="Path 2304" d="M230.438,192.593c.324-.212.494.375.064.773" transform="translate(-220.879 -174.341)" fill="#c1a08b"/>
            <path id="Path_2305" data-name="Path 2305" d="M211.122,178.244a1.388,1.388,0,0,1-1.2,1.564l-.806.11a1.387,1.387,0,0,1-1.579-1.184l-.372-2.722a1.41,1.41,0,0,1,1.2-1.59l.806-.11a1.41,1.41,0,0,1,1.583,1.21Z" transform="translate(-201.441 -159.111)" fill="#c1a08b"/>
            <path id="Path_2306" data-name="Path 2306" d="M216.215,193.317" transform="translate(-209.009 -174.983)" fill="none" stroke="#1a2e35" stroke-linecap="round" stroke-linejoin="round" stroke-width="0.405"/>
            <g id="Group_2097" data-name="Group 2097" transform="translate(8.61 17.207)">
              <g id="Group_2096" data-name="Group 2096" clip-path="url(#clip-path-2)">
                <path id="Path_2307" data-name="Path 2307" d="M225.43,186.982c-.046-.295-.245-.509-.444-.477s-.323.3-.277.59.245.509.444.477S225.476,187.277,225.43,186.982Z" transform="translate(-224.699 -186.502)" fill="#fff"/>
                <path id="Path_2308" data-name="Path 2308" d="M227.127,187.747c-.046-.295-.245-.509-.444-.477s-.323.3-.277.59.245.509.444.477S227.173,188.042,227.127,187.747Z" transform="translate(-226.115 -187.14)" fill="#1a2e36"/>
              </g>
            </g>
            <path id="Path_2310" data-name="Path 2310" d="M203.97,175.731s-.336,2.584-1.361,2.529-2.1-4.091.737-5.012C204.428,173.324,203.97,175.731,203.97,175.731Z" transform="translate(-196.749 -158.233)" fill="#404771"/>
            <path id="Path_2311" data-name="Path 2311" d="M189.892,172.989c.448-.113.6-.4,1-.431a1.067,1.067,0,0,1,.614.15,2.107,2.107,0,0,0-.711-1.324,2.318,2.318,0,0,0-2.681-.015c-1.228.183-2.644.588-2.825,2.15-.077.669-1.529,2.116-1.1,3.757s-2.422,5.519.7,6.374c.151-3.384,1.1-3.735,1.812-3.949a2.144,2.144,0,0,1,1.047.052,1.183,1.183,0,0,0,1.469-.972l0-.018c.136-1.074-.358-1.7-.489-2.526C188.617,175.535,190.069,175.42,189.892,172.989Z" transform="translate(-181.623 -156.316)" fill="#404771"/>
            <path id="Path_2312" data-name="Path 2312" d="M224.444,184.352a.645.645,0,0,1,.2-.133.412.412,0,0,1,.24-.035c-.039.016-.073.032-.108.049l-.106.048A1.154,1.154,0,0,1,224.444,184.352Z" transform="translate(-215.877 -167.355)" fill="#1a2e35"/>
            <path id="Path_2313" data-name="Path 2313" d="M216.574,206.293a.562.562,0,0,1-.251.007,1.209,1.209,0,0,1-.241-.071,1.514,1.514,0,0,1-.421-.265c.152.067.3.144.447.2a1.738,1.738,0,0,0,.227.083A.979.979,0,0,0,216.574,206.293Z" transform="translate(-208.547 -185.537)" fill="#1a2e35"/>
            <path id="Path_2314" data-name="Path 2314" d="M213.762,176.705a.931.931,0,0,0,.657.156,1.455,1.455,0,0,0,.625-.272,4.846,4.846,0,0,1,.617-.341.751.751,0,0,1,.351-.067.433.433,0,0,1,.3.181.416.416,0,0,0-.3-.148.719.719,0,0,0-.328.082,5.735,5.735,0,0,0-.6.351,1.445,1.445,0,0,1-.655.267A.883.883,0,0,1,213.762,176.705Z" transform="translate(-206.962 -160.679)" fill="#1a2e35"/>
            <path id="Path_2315" data-name="Path 2315" d="M211.11,174.152a.956.956,0,0,0,.529.177.675.675,0,0,0,.488-.225,1.6,1.6,0,0,1,.475-.338.572.572,0,0,1,.294-.028,1.339,1.339,0,0,1,.277.086.814.814,0,0,0-.552-.011,1.684,1.684,0,0,0-.448.339.713.713,0,0,1-.535.228A.862.862,0,0,1,211.11,174.152Z" transform="translate(-204.749 -158.636)" fill="#1a2e35"/>
            <path id="Path_2316" data-name="Path 2316" d="M212.488,181.319a.35.35,0,0,0-.051.254.726.726,0,0,0,.085.247,3.536,3.536,0,0,0,.31.437.9.9,0,0,1,.2.51,1.471,1.471,0,0,1-.092.537,1.939,1.939,0,0,0,.041-.533.883.883,0,0,0-.206-.474,2.988,2.988,0,0,1-.3-.454.76.76,0,0,1-.072-.267A.349.349,0,0,1,212.488,181.319Z" transform="translate(-205.829 -164.969)" fill="#1a2e35"/>
            <path id="Path_2317" data-name="Path 2317" d="M208.58,179.853c-.018.21-.048.416-.055.623a2.239,2.239,0,0,0,0,.309.96.96,0,0,0,.058.3.666.666,0,0,1-.109-.3,1.664,1.664,0,0,1-.013-.318A2.3,2.3,0,0,1,208.58,179.853Z" transform="translate(-202.534 -163.746)" fill="#1a2e35"/>
            <path id="Path_2318" data-name="Path 2318" d="M211.11,185.837a.762.762,0,0,1,.144.626.6.6,0,0,1-.084.2,1.585,1.585,0,0,0,.033-.21.964.964,0,0,0,0-.207A1.7,1.7,0,0,0,211.11,185.837Z" transform="translate(-204.749 -168.74)" fill="#1a2e35"/>
            <path id="Path_2319" data-name="Path 2319" d="M205.623,181.319a5.766,5.766,0,0,0-.036.594,3.927,3.927,0,0,0,.033.59,2.663,2.663,0,0,0,.133.573,1.847,1.847,0,0,0,.292.512,1.485,1.485,0,0,1-.34-.492,2.432,2.432,0,0,1-.152-.583,3.394,3.394,0,0,1-.018-.6A3.2,3.2,0,0,1,205.623,181.319Z" transform="translate(-200.092 -164.969)" fill="#1a2e35"/>
            <path id="Path_2320" data-name="Path 2320" d="M203.248,189.135c0,.182,0,.363.019.542a3.507,3.507,0,0,0,.077.533,1.821,1.821,0,0,0,.175.5,1.06,1.06,0,0,0,.351.4.924.924,0,0,1-.4-.373,1.712,1.712,0,0,1-.2-.515,2.984,2.984,0,0,1-.063-.545A3.063,3.063,0,0,1,203.248,189.135Z" transform="translate(-198.159 -171.492)" fill="#1a2e35"/>
            <path id="Path_2321" data-name="Path 2321" d="M200.136,184.729q-.1.253-.168.511a3.888,3.888,0,0,0-.116.521,1.9,1.9,0,0,0,.081,1.049,1.263,1.263,0,0,1-.166-.515,2.2,2.2,0,0,1,.019-.544A3.268,3.268,0,0,1,200.136,184.729Z" transform="translate(-195.274 -167.815)" fill="#1a2e35"/>
            <path id="Path_2322" data-name="Path 2322" d="M196.166,186.692a3.771,3.771,0,0,0-.326.763,1.15,1.15,0,0,0-.054.4.653.653,0,0,0,.138.378.577.577,0,0,1-.189-.374,1.1,1.1,0,0,1,.041-.425,2.179,2.179,0,0,1,.391-.745Z" transform="translate(-191.911 -169.454)" fill="#1a2e35"/>
            <path id="Path_2323" data-name="Path 2323" d="M218.419,174.624a3.99,3.99,0,0,1,.762-.418,2.749,2.749,0,0,1,.418-.13.735.735,0,0,1,.434.017.882.882,0,0,0-.422.034,3.525,3.525,0,0,0-.4.142C218.94,174.374,218.682,174.5,218.419,174.624Z" transform="translate(-210.848 -158.904)" fill="#1a2e35"/>
            <path id="Path_2324" data-name="Path 2324" d="M237.505,265.374q.169.586.327,1.175l.31,1.179.295,1.183q.145.592.277,1.188-.169-.586-.327-1.175l-.31-1.179-.295-1.183Q237.638,265.969,237.505,265.374Z" transform="translate(-226.777 -235.119)" fill="#1a2e35"/>
            <g id="Group_2099" data-name="Group 2099" transform="translate(12.259 6.898)">
              <path id="Path_2325" data-name="Path 2325" d="M261.613,133.357H248.082a1.306,1.306,0,0,1-1.3-1.607l1.04-5.958a1.984,1.984,0,0,1,1.858-1.607h13.531a1.305,1.305,0,0,1,1.3,1.607l-1.04,5.958A1.985,1.985,0,0,1,261.613,133.357Z" transform="translate(-246.761 -124.186)" fill="#6269fe"/>
              <path id="Path_2326" data-name="Path 2326" d="M288.435,170.894l-1.116-2.305,1.788-1.546,1.248,1.546Z" transform="translate(-280.61 -159.952)" fill="#d83e7d"/>
              <g id="Group_2098" data-name="Group 2098" transform="translate(2.112 1.835)">
                <text id="_3:45PM" data-name="3:45PM" transform="translate(0.565 0.991) rotate(9.757)" fill="#fff" font-size="1" font-family="SegoeUI, Segoe UI"><tspan x="0" y="0">3:45PM</tspan></text>
                <path id="Path_2327" data-name="Path 2327" d="M323.505,137.024c-.168.965-2.371,3.754-2.371,3.754s-1.229-2.789-1.06-3.754a2.151,2.151,0,0,1,2.021-1.748A1.416,1.416,0,0,1,323.505,137.024Z" transform="translate(-310.045 -135.276)" fill="#fff"/>
                <path id="Path_2328" data-name="Path 2328" d="M327.329,141.858a.972.972,0,0,1-.913.789.64.64,0,0,1-.637-.789.972.972,0,0,1,.913-.789A.64.64,0,0,1,327.329,141.858Z" transform="translate(-314.809 -140.111)" fill="#d83e7d"/>
                <path id="Path_2329" data-name="Path 2329" d="M270.368,155.051H261.46l.084-.48h8.908Z" transform="translate(-261.14 -151.379)" fill="#fff"/>
                <path id="Path_2330" data-name="Path 2330" d="M269.4,160.583h-8.908l.084-.48h8.908Z" transform="translate(-260.334 -155.996)" fill="#fff"/>
                <path id="Path_2331" data-name="Path 2331" d="M268.437,166.115h-8.908l.084-.48h8.908Z" transform="translate(-259.528 -160.613)" fill="#fff"/>
              </g>
            </g>
            <path id="Path_2332" data-name="Path 2332" d="M271.094,287.671a.446.446,0,0,1-.12.37.394.394,0,0,1-.177.1.442.442,0,0,1-.2.006.6.6,0,0,0,.326-.153A.685.685,0,0,0,271.094,287.671Z" transform="translate(-254.398 -253.728)" fill="#1a2e35"/>
            <path id="Path_2333" data-name="Path 2333" d="M267.73,292.148a1.88,1.88,0,0,1-.479.556,1.634,1.634,0,0,1-.32.187,1.021,1.021,0,0,1-.36.077,1.628,1.628,0,0,0,.339-.123,1.971,1.971,0,0,0,.3-.194A3.645,3.645,0,0,0,267.73,292.148Z" transform="translate(-251.035 -257.464)" fill="#1a2e35"/>
            <path id="Path_2334" data-name="Path 2334" d="M210.521,192.034c-.252.035-.5-.245-.551-.623s.111-.713.363-.748a.444.444,0,0,1,.412.238" transform="translate(-203.79 -172.765)" fill="#c1a08b"/>
            <path id="Path_2335" data-name="Path 2335" d="M226.938,199.2a.868.868,0,0,0,.316.132.98.98,0,0,0,.343,0,.475.475,0,0,1-.17.067.524.524,0,0,1-.186,0A.47.47,0,0,1,226.938,199.2Z" transform="translate(-217.958 -179.888)" fill="#1a2e35"/>
            <path id="Path_2336" data-name="Path 2336" d="M218.419,214.831c.118-.042.234-.085.347-.133a1.466,1.466,0,0,0,.319-.174.328.328,0,0,0,.111-.126.166.166,0,0,0-.015-.152.911.911,0,0,0-.27-.241.7.7,0,0,1,.313.213.211.211,0,0,1,.029.2.383.383,0,0,1-.127.156,1.3,1.3,0,0,1-.341.168A1.942,1.942,0,0,1,218.419,214.831Z" transform="translate(-210.848 -192.249)" fill="#1a2e35"/>
            <path id="Path_2337" data-name="Path 2337" d="M224.251,186.638c-.272,0-.531-.292-.592-.685a.972.972,0,0,1,.066-.557.436.436,0,0,1,.762-.119,1.036,1.036,0,0,1,.167,1.067.472.472,0,0,1-.345.29A.39.39,0,0,1,224.251,186.638Zm-.121-1.443a.3.3,0,0,0-.045,0,.382.382,0,0,0-.275.238.875.875,0,0,0-.059.5c.058.37.3.642.544.6a.381.381,0,0,0,.275-.237.878.878,0,0,0,.059-.5h0a.877.877,0,0,0-.209-.461A.4.4,0,0,0,224.13,185.195Z" transform="translate(-215.21 -168.126)" fill="#d83e7d"/>
            <rect id="Rectangle_1183" data-name="Rectangle 1183" width="0.959" height="0.094" transform="translate(7.558 18.029) rotate(-15.376)" fill="#d83e7d"/>
            <path id="Path_2338" data-name="Path 2338" d="M188.1,301.5c.4.114.8.207,1.2.282s.811.142,1.22.194a15.974,15.974,0,0,0,2.464.105,12.615,12.615,0,0,0,2.446-.3l.6-.145c.2-.059.391-.128.587-.19l.294-.094.285-.119.57-.24a10.5,10.5,0,0,1-2.326.832,12.635,12.635,0,0,1-2.454.319,16.028,16.028,0,0,1-2.472-.128A13.969,13.969,0,0,1,188.1,301.5Z" transform="translate(-185.543 -264.846)" fill="#1a2e35"/>
            <path id="Path_2339" data-name="Path 2339" d="M193.008,285.849a1.547,1.547,0,0,0,.392.072c.133.014.266.023.4.031.267.018.534.029.8.035.534.013,1.069.012,1.6-.012s1.067-.062,1.6-.132c.265-.035.528-.081.789-.138a5.417,5.417,0,0,0,.771-.218,6.731,6.731,0,0,1-1.552.407,15.137,15.137,0,0,1-1.6.148c-.536.018-1.072.02-1.608,0-.268-.012-.535-.029-.8-.054-.133-.014-.266-.028-.4-.048A1.549,1.549,0,0,1,193.008,285.849Z" transform="translate(-189.641 -251.906)" fill="#1a2e35"/>
            <path id="Path_2340" data-name="Path 2340" d="M221.055,250a3.388,3.388,0,0,1,.49-.443,4.093,4.093,0,0,1,1.833-.731c.11-.015.221-.018.331-.028.055,0,.111-.01.166-.01l.166,0c.111,0,.222,0,.332.013l.329.044c.055.008.11.014.164.024l.161.039.322.078c.211.066.416.147.624.219-.211-.062-.42-.133-.632-.187l-.322-.068-.161-.034c-.054-.009-.109-.013-.163-.02l-.326-.038c-.109-.009-.219-.006-.328-.01l-.164,0c-.055,0-.109.008-.163.012-.109.01-.218.014-.326.03a4.292,4.292,0,0,0-1.252.369A3.8,3.8,0,0,0,221.055,250Z" transform="translate(-213.048 -221.277)" fill="#1a2e35"/>
            <path id="Path_2341" data-name="Path 2341" d="M192.218,198.983a3.33,3.33,0,0,1,.681,1.569,1.258,1.258,0,0,1-.192.841,1.218,1.218,0,0,1-.306.314c-.12.086-.247.154-.37.226a6.2,6.2,0,0,0-1.363,1.028,2.261,2.261,0,0,0-.475.7,1.3,1.3,0,0,0-.063.837,1.319,1.319,0,0,1,.033-.849,2.288,2.288,0,0,1,.467-.726A6.052,6.052,0,0,1,192,201.876c.125-.072.252-.139.366-.22a1.161,1.161,0,0,0,.293-.3,1.231,1.231,0,0,0,.191-.8,2.628,2.628,0,0,0-.218-.821A4.208,4.208,0,0,0,192.218,198.983Z" transform="translate(-187.194 -179.711)" fill="#1a2e35"/>
            <path id="Path_2342" data-name="Path 2342" d="M190.056,204a2.182,2.182,0,0,1-.056,1.044,1.569,1.569,0,0,1-.627.839c-.15.1-.3.175-.44.282a2.4,2.4,0,0,0-.379.351,2.055,2.055,0,0,0-.289.429,1.625,1.625,0,0,0-.167.492,1.812,1.812,0,0,1,.416-.954,2.17,2.17,0,0,1,.381-.367c.137-.11.3-.193.439-.289a1.543,1.543,0,0,0,.616-.8,2.1,2.1,0,0,0,.108-.506A2.263,2.263,0,0,0,190.056,204Z" transform="translate(-185.543 -183.897)" fill="#1a2e35"/>
            <path id="Path_2343" data-name="Path 2343" d="M193.008,198.983a4.993,4.993,0,0,1,.278,1.184,2.651,2.651,0,0,1-.007.612.778.778,0,0,1-.271.536.838.838,0,0,0,.22-.542,2.915,2.915,0,0,0-.009-.6c-.017-.2-.05-.4-.087-.6S193.053,199.181,193.008,198.983Z" transform="translate(-189.641 -179.711)" fill="#1a2e35"/>
            <path id="Path_2344" data-name="Path 2344" d="M208.1,206.706c.029.115.069.227.1.343a2.955,2.955,0,0,1,.062.353,1.847,1.847,0,0,1-.057.717,1.3,1.3,0,0,1-.4.6,1.364,1.364,0,0,1-.144.11l-.157.088a3.181,3.181,0,0,1-.334.128,1.987,1.987,0,0,0,.6-.364,1.29,1.29,0,0,0,.37-.579,1.9,1.9,0,0,0,.069-.693A5.374,5.374,0,0,0,208.1,206.706Z" transform="translate(-201.463 -186.157)" fill="#1a2e35"/>
          </g>
          <g id="Group_2104" data-name="Group 2104" transform="translate(77.541 -31)">
            <g id="Group_2101" data-name="Group 2101" transform="translate(0 0)">
              <rect id="Rectangle_1184" data-name="Rectangle 1184" width="3.374" height="5.664" transform="translate(0 13.233)" fill="#fff"/>
              <path id="Path_2345" data-name="Path 2345" d="M167.415,65.12h0a1.687,1.687,0,0,0-1.687,1.687v.773H169.1v-.773A1.687,1.687,0,0,0,167.415,65.12Z" transform="translate(-165.728 -54.347)" fill="#6269fe"/>
              <rect id="Rectangle_1185" data-name="Rectangle 1185" width="0.165" height="10.773" transform="translate(1.604)" fill="#74bdcb"/>
              <path id="Path_2346" data-name="Path 2346" d="M165.728,77.324c.562-.019,1.125-.021,1.687-.023s1.125,0,1.687.023c-.562.02-1.125.021-1.687.023S166.29,77.344,165.728,77.324Z" transform="translate(-165.728 -64.513)" fill="#002e5c"/>
            </g>
            <g id="Group_2102" data-name="Group 2102" transform="translate(10.825 0)">
              <rect id="Rectangle_1186" data-name="Rectangle 1186" width="3.374" height="5.664" transform="translate(0 9.015)" fill="#fff"/>
              <path id="Path_2347" data-name="Path 2347" d="M232.852,39.625h0a1.687,1.687,0,0,0-1.687,1.687v.773h3.374v-.773A1.687,1.687,0,0,0,232.852,39.625Z" transform="translate(-231.165 -33.07)" fill="#6269fe"/>
              <rect id="Rectangle_1187" data-name="Rectangle 1187" width="0.165" height="6.555" transform="translate(1.604)" fill="#74bdcb"/>
              <path id="Path_2348" data-name="Path 2348" d="M231.165,51.829c.562-.019,1.125-.021,1.687-.023s1.125,0,1.687.023c-.562.019-1.125.021-1.687.023S231.727,51.849,231.165,51.829Z" transform="translate(-231.165 -43.236)" fill="#002e5c"/>
            </g>
            <g id="Group_2103" data-name="Group 2103" transform="translate(5.413 0)">
              <rect id="Rectangle_1188" data-name="Rectangle 1188" width="3.374" height="5.664" transform="translate(0 19.559)" fill="#fff"/>
              <path id="Rectangle_1189" data-name="Rectangle 1189" d="M1.687,0h0A1.687,1.687,0,0,1,3.374,1.687V2.46a0,0,0,0,1,0,0H0a0,0,0,0,1,0,0V1.687A1.687,1.687,0,0,1,1.687,0Z" transform="translate(0 17.099)" fill="#6269fe"/>
              <rect id="Rectangle_1190" data-name="Rectangle 1190" width="0.165" height="17.099" transform="translate(1.604)" fill="#74bdcb"/>
              <path id="Path_2349" data-name="Path 2349" d="M198.447,115.567c.562-.019,1.125-.021,1.687-.023s1.125,0,1.687.023c-.562.019-1.125.021-1.687.023S199.009,115.587,198.447,115.567Z" transform="translate(-198.447 -96.43)" fill="#002e5c"/>
            </g>
          </g>
        </g>
      </g>
    </g>
  </g>
</svg>
