<svg xmlns="http://www.w3.org/2000/svg" width="31.955" height="32.001" viewBox="0 0 31.955 32.001">
  <g id="Group_16011" data-name="Group 16011" transform="translate(-446.379 -1101.045)">
    <path id="Path_72113" data-name="Path 72113" d="M463.548,1133.046h-2.5c-.035-.1-.121-.059-.186-.066a16.007,16.007,0,0,1-.836-31.766,4.951,4.951,0,0,0,1.084-.169h2.5c.015.071.072.058.121.062a14.314,14.314,0,0,1,1.726.241,15.978,15.978,0,0,1,12.707,13.363,4.774,4.774,0,0,0,.17,1.085v2.563c-.084.025-.059.1-.064.155a15.552,15.552,0,0,1-2.608,7.384,15.768,15.768,0,0,1-10.938,6.974A6.76,6.76,0,0,0,463.548,1133.046Zm-14.923-16.024a13.737,13.737,0,1,0,13.752-13.739A13.755,13.755,0,0,0,448.625,1117.023Z" fill="#707070"/>
    <path id="Path_72118" data-name="Path 72118" d="M535.627,1159.305a5.741,5.741,0,0,1,2.477.523,3.248,3.248,0,0,1,1.522,4.688,6.786,6.786,0,0,1-1.776,2.028c-.186.151-.37.3-.545.466a2.258,2.258,0,0,0-.735,1.632c-.008.208,0,.417-.011.625a.749.749,0,0,1-.57.762,1.316,1.316,0,0,1-.21.056c-1.169.2-1.586-.141-1.61-1.319a3.913,3.913,0,0,1,1.552-3.375c.345-.266.685-.542,1.009-.834a2.068,2.068,0,0,0,.667-1.068,1.305,1.305,0,0,0-.7-1.543,2.384,2.384,0,0,0-3.064.744c-.454.653-.879.794-1.5.5a1.209,1.209,0,0,1-.594-1.538,3.12,3.12,0,0,1,1.9-1.94A5.278,5.278,0,0,1,535.627,1159.305Z" transform="translate(-73.45 -50.289)" fill="#707070"/>
    <path id="Path_72119" data-name="Path 72119" d="M551.316,1250.661a1.6,1.6,0,1,1-3.2.039,1.6,1.6,0,1,1,3.2-.039Z" transform="translate(-87.814 -127.76)" fill="#707070"/>
  </g>
</svg>
