<svg xmlns="http://www.w3.org/2000/svg" xmlns:xlink="http://www.w3.org/1999/xlink" width="407" height="317" viewBox="0 0 407 317">
  <defs>
    <linearGradient id="linear-gradient" x1="0.5" x2="0.5" y2="1" gradientUnits="objectBoundingBox">
      <stop offset="0" stop-color="#ffe4e1"/>
      <stop offset="1" stop-color="#bbabdb"/>
    </linearGradient>
  </defs>
  <g id="Group_16020" data-name="Group 16020" transform="translate(-15 -18)">
    <ellipse id="Ellipse_167" data-name="Ellipse 167" cx="151.5" cy="139.5" rx="151.5" ry="139.5" transform="translate(63 33)" fill="url(#linear-gradient)"/>
    <ellipse id="Ellipse_165" data-name="Ellipse 165" cx="28" cy="28.5" rx="28" ry="28.5" transform="translate(366 278)" fill="#d5c1dd"/>
    <g id="Group_2442" data-name="Group 2442" transform="translate(24.831 29.925)">
      <g id="Group_2399" data-name="Group 2399" transform="translate(205.199 63.026)">
        <g id="Group_2392" data-name="Group 2392" transform="translate(17.795 6.072)">
          <g id="Group_2389" data-name="Group 2389">
            <g id="Group_2385" data-name="Group 2385">
              <path id="Path_3054" data-name="Path 3054" d="M482.824,96.153s-.805,12.654-4.141,18.176-16.336,22.318,2.186,31.291,42.679-2.416,42.564-14.61-7.938-15.76-7.823-28.415-8.053-20.477-14.955-14.725S482.824,96.153,482.824,96.153Z" transform="translate(-471.136 -85.949)" fill="#6f96bd"/>
              <path id="Path_3055" data-name="Path 3055" d="M515.609,102.595c.115-12.654-8.053-20.477-14.955-14.725a32.906,32.906,0,0,1-5.926,3.837,37.434,37.434,0,0,1,3.212,11.054c1.069,7.511,1.025,17.231-4.426,23.185a7.566,7.566,0,0,1-8.832,1.565c-3.577-1.669-5.891-5.465-6.875-9.172-.171-.643-.314-1.284-.445-1.924-4.395,6.87-13.075,21.171,3.506,29.2,18.521,8.973,42.679-2.416,42.564-14.61S515.494,115.249,515.609,102.595Z" transform="translate(-471.135 -85.949)" fill="#5180af"/>
            </g>
            <g id="Group_2388" data-name="Group 2388" transform="translate(11.081 0.115)">
              <path id="Path_3056" data-name="Path 3056" d="M533.377,159.571s1.111,9.616-.207,12.29,11.976,1.18,11.976,1.18l-.268-9.922Z" transform="translate(-522.402 -133.826)" fill="#ff8b7b"/>
              <g id="Group_2387" data-name="Group 2387">
                <g id="Group_2386" data-name="Group 2386" transform="translate(3.22 5.431)">
                  <path id="Path_3057" data-name="Path 3057" d="M520.373,116.076s-3.142-13.811,10.535-14.328c15.814-.6,16.911,28.395,5.816,28.326C523.445,129.992,520.373,116.076,520.373,116.076Z" transform="translate(-517.177 -101.739)" fill="#ffac9d"/>
                  <path id="Path_3058" data-name="Path 3058" d="M516.9,143.3s-3.7-4.666-4.965,1.042S524.033,153.2,516.9,143.3Z" transform="translate(-511.85 -127.534)" fill="#ffac9d"/>
                </g>
                <path id="Path_3059" data-name="Path 3059" d="M522.352,87.176s4.5,12.558-9.953,24.671c0,0,.407-2.952-1.447-4.377s-4.081-1.772-4.965,1.042c0,0-6.137-4.543-1.686-15.133S522.352,87.176,522.352,87.176Z" transform="translate(-502.682 -86.276)" fill="#6f96bd"/>
              </g>
            </g>
          </g>
          <g id="Group_2391" data-name="Group 2391" transform="translate(15.562 13.471)">
            <path id="Path_3060" data-name="Path 3060" d="M571.9,139.763a7.1,7.1,0,0,0,.561,1.024,5.639,5.639,0,0,0,.72.865,5.2,5.2,0,0,0,1.868,1.164l.416.147-.3.3a6.518,6.518,0,0,1-1.094.863,5.541,5.541,0,0,1-1.249.589c.354-.294.7-.582,1.025-.884a12.916,12.916,0,0,0,.927-.94l.113.443A4.252,4.252,0,0,1,572.808,142a3.891,3.891,0,0,1-.642-1.053A3.436,3.436,0,0,1,571.9,139.763Z" transform="translate(-552.068 -134.332)" fill="#d85944"/>
            <path id="Path_3061" data-name="Path 3061" d="M572.662,127.062a2.762,2.762,0,0,1,.5-1.818,2.254,2.254,0,0,1,.8-.7,2.154,2.154,0,0,1,1.1-.235,2.579,2.579,0,0,1,1.022.278,3.407,3.407,0,0,1,.8.554,4.09,4.09,0,0,1,1.047,1.519c-.574-.253-1.071-.541-1.561-.772a3.763,3.763,0,0,0-1.369-.428,1.7,1.7,0,0,0-1.177.4A7.714,7.714,0,0,0,572.662,127.062Z" transform="translate(-552.556 -124.301)" fill="#241b28"/>
            <path id="Path_3062" data-name="Path 3062" d="M550.862,128.86a13.449,13.449,0,0,0-1.884-.9,4.556,4.556,0,0,0-1.809-.314,4.024,4.024,0,0,0-1.732.53,16.175,16.175,0,0,0-1.737,1.163,4.256,4.256,0,0,1,1.206-1.9,3.54,3.54,0,0,1,2.2-.947,3.779,3.779,0,0,1,2.288.664A4.1,4.1,0,0,1,550.862,128.86Z" transform="translate(-533.773 -125.721)" fill="#241b28"/>
            <g id="Group_2390" data-name="Group 2390" transform="translate(13.967 12.132)">
              <path id="Path_3063" data-name="Path 3063" d="M555.205,159.93l9.409-1.091S562.61,166.151,555.205,159.93Z" transform="translate(-555.205 -158.839)" fill="#fc6a5a"/>
              <path id="Path_3064" data-name="Path 3064" d="M557.725,160.294a7.9,7.9,0,0,1,2.245.126,6.22,6.22,0,0,1,2.533,1.425,5.824,5.824,0,0,0,2.112-3l-9.409,1.091c.336.282.66.536.974.764A3.005,3.005,0,0,1,557.725,160.294Z" transform="translate(-555.205 -158.839)" fill="#9b2626"/>
            </g>
            <path id="Path_3065" data-name="Path 3065" d="M550.533,138.191c0,.894-.289,1.618-.647,1.618s-.647-.724-.647-1.618.29-1.617.647-1.617S550.533,137.3,550.533,138.191Z" transform="translate(-537.367 -132.263)" fill="#241b28"/>
            <path id="Path_3066" data-name="Path 3066" d="M576.406,136.226c0,.894-.29,1.618-.647,1.618s-.647-.724-.647-1.618.29-1.618.647-1.618S576.406,135.333,576.406,136.226Z" transform="translate(-554.152 -130.988)" fill="#241b28"/>
            <path id="Path_3067" data-name="Path 3067" d="M519.525,151.767a1.983,1.983,0,0,1-.872-.327,1.04,1.04,0,0,1-.323-.39.668.668,0,0,1-.071-.258l-.011-.136c0-.044.012-.086.019-.13a1.633,1.633,0,0,1,.166-.486,3.213,3.213,0,0,1,.279-.4,5.659,5.659,0,0,1,.669-.675l-.078.285a9.594,9.594,0,0,0-.975-1.73,3.728,3.728,0,0,0-.642-.695,1.145,1.145,0,0,0-.756-.282,1.307,1.307,0,0,0-.746.38,1.141,1.141,0,0,0-.384.767,3.169,3.169,0,0,0,.648,1.839,3.5,3.5,0,0,1-.668-.807,2.2,2.2,0,0,1-.337-1.04,1.486,1.486,0,0,1,.408-1.079,1.162,1.162,0,0,1,.209-.2,1.778,1.778,0,0,1,.234-.175,1.4,1.4,0,0,1,.583-.211,1.586,1.586,0,0,1,1.15.36,3.707,3.707,0,0,1,.763.8,7.96,7.96,0,0,1,.98,1.889l.062.169-.14.116a7.188,7.188,0,0,0-.66.566,3.705,3.705,0,0,0-.274.319,1.305,1.305,0,0,0-.174.352.689.689,0,0,0,.193.706A2.2,2.2,0,0,0,519.525,151.767Z" transform="translate(-515.441 -138.38)" fill="#d85944"/>
          </g>
        </g>
        <g id="Group_2393" data-name="Group 2393" transform="translate(22.985 72.351)">
          <path id="Path_3068" data-name="Path 3068" d="M522.428,279.414l1.136,6.816s10.679,4.317,13.632,22.947-2.045,44.627-2.045,44.627H486.53s-3.862-40.31,7.725-72.346l-.681-6.816Z" transform="translate(-485.912 -274.643)" fill="#ffa65b"/>
          <path id="Path_3069" data-name="Path 3069" d="M486.151,331.354l42.567-.591-1.636-42.329a14.232,14.232,0,0,0-3.363-2.2l-1.136-6.816-28.855-4.771.681,6.816C488.379,298.134,486.534,317.047,486.151,331.354Z" transform="translate(-486.067 -274.643)" fill="#f2853b"/>
        </g>
        <g id="Group_2398" data-name="Group 2398" transform="translate(0 0)">
          <g id="Group_2394" data-name="Group 2394" transform="translate(83.008)">
            <path id="Path_3070" data-name="Path 3070" d="M662.277,86.617l8.54,2.6c.439-13.843-.348-27.746-1.2-13.077,0,0-.849-16.555-1.937-.407,0,0-1.449-14.53-2.324-.231,0,0-.693-13.121-2.364,4.577C662.755,82.544,662.516,84.711,662.277,86.617Z" transform="translate(-660.352 -68.662)" fill="#ffac9d"/>
            <path id="Path_3071" data-name="Path 3071" d="M660.451,93.509s-8.79-9.212.891-1.852S660.451,93.509,660.451,93.509Z" transform="translate(-656.795 -81.73)" fill="#ffac9d"/>
          </g>
          <g id="Group_2397" data-name="Group 2397" transform="translate(0 14.563)">
            <g id="Group_2396" data-name="Group 2396" transform="translate(24.784)">
              <path id="Path_3072" data-name="Path 3072" d="M560.238,110.98l-9.707-.856-1.713,22.556L531.971,140.1c-5.139-2.57-12.563-.286-12.563-.286l.857-3.426-15.7-2.57c-.286,7.709-3.712,4.568-9.708,4.854s-3.141,21.128-3.141,21.128c4.283,22.841,39.973,16.846,40.258,7.709a52.949,52.949,0,0,0-.9-10.7c10.322-4.889,28.357-13.9,29.17-17.562C561.38,134.108,560.238,110.98,560.238,110.98Z" transform="translate(-491.034 -110.124)" fill="#352c38"/>
              <g id="Group_2395" data-name="Group 2395" transform="translate(0)">
                <path id="Path_3073" data-name="Path 3073" d="M635.217,110.98l-9.707-.856L623.8,132.68l-14.433,6.36a84.645,84.645,0,0,1-2.755,17.5c10.4-4.943,27.81-13.7,28.609-17.3C636.359,134.108,635.217,110.98,635.217,110.98Z" transform="translate(-566.013 -110.124)" fill="#211823"/>
                <path id="Path_3074" data-name="Path 3074" d="M495.905,203.909c-1.005-1.277-1.965-2.6-3.045-3.816-.264-.3-.53-.594-.8-.883-2.078,5.718-.342,18.389-.342,18.389,4.283,22.841,39.973,16.846,40.258,7.709.024-.777.019-1.557,0-2.335C524.07,226.156,499.929,223.727,495.905,203.909Z" transform="translate(-491.034 -167.919)" fill="#211823"/>
              </g>
            </g>
            <path id="Path_3075" data-name="Path 3075" d="M462.615,193.076a27.865,27.865,0,0,0-9.16-5.987c-11.108-4.35-31.909,10.233-31.909,10.233l-1.072,11.366,32.811-10.937Z" transform="translate(-420.473 -159.529)" fill="#352c38"/>
          </g>
        </g>
      </g>
      <g id="Group_2421" data-name="Group 2421" transform="translate(88.7 68.767)">
        <g id="Group_2402" data-name="Group 2402" transform="translate(7.328 66.959)">
          <g id="Group_2401" data-name="Group 2401" transform="translate(0 0)">
            <path id="Path_3076" data-name="Path 3076" d="M120.912,275.639l2.221,11.827a43.669,43.669,0,0,0-13.467,31.317,273.64,273.64,0,0,0,2.374,35.843l20.938-.158,1.866-34.139,20.59-11.509s-3.016-14.077-8.379-21.115S120.912,275.639,120.912,275.639Z" transform="translate(-109.666 -275.639)" fill="#6f96bd"/>
            <g id="Group_2400" data-name="Group 2400" transform="translate(8.135)">
              <path id="Path_3077" data-name="Path 3077" d="M132.827,293.61c2.5.418,5.478.929,7.837,1.371l-1.091,37.355q4.822.054,9.643.151l.653-12.16,20.59-11.509s-3.016-14.077-8.379-21.115-26.142-12.066-26.142-12.066l2.221,11.827A36.668,36.668,0,0,0,132.827,293.61Z" transform="translate(-132.827 -275.638)" fill="#5180af"/>
              <path id="Path_3078" data-name="Path 3078" d="M168.57,324.3l-1.975,4.52s5.216,21.678,11.65,45.15h18.143s.486-47.578-11.061-64.082C174.97,295.087,168.57,324.3,168.57,324.3Z" transform="translate(-154.734 -295.144)" fill="#5180af"/>
            </g>
          </g>
          <path id="Path_3079" data-name="Path 3079" d="M118.914,388.162c-.077-.718-.168-1.576-.266-2.548l.318-.032c.1.971.189,1.828.266,2.546Zm-.518-5.1c-.077-.806-.157-1.659-.237-2.549l.318-.029c.08.889.16,1.741.237,2.547Zm-.46-5.1c-.07-.831-.139-1.683-.207-2.551l.319-.025c.067.867.137,1.719.207,2.549Zm-.4-5.1c-.059-.845-.117-1.7-.17-2.554l.319-.02c.054.855.111,1.707.17,2.551Zm-.318-5.109c-.045-.856-.086-1.711-.122-2.557l.319-.014c.035.845.076,1.7.122,2.554Zm-.213-5.116c-.025-.871-.042-1.726-.051-2.561l.319,0c.009.833.027,1.687.051,2.556Zm.268-5.118-.319,0c.011-.911.035-1.772.071-2.56l.319.014C117.31,355.756,117.287,356.614,117.275,357.521Zm.25-5.089-.318-.032q.022-.219.046-.43c.079-.694.185-1.405.314-2.113l.314.058c-.128.7-.232,1.4-.311,2.092Q117.547,352.216,117.525,352.432Zm.905-5-.309-.08c.21-.812.454-1.64.725-2.462l.3.1C118.881,345.8,118.639,346.626,118.431,347.431Zm1.589-4.835-.3-.118c.31-.78.651-1.574,1.013-2.357l.29.133C120.667,341.032,120.328,341.82,120.02,342.6Zm2.135-4.627-.282-.149c.4-.752.816-1.505,1.249-2.241l.275.163C122.966,336.472,122.548,337.221,122.154,337.969Zm2.594-4.389-.267-.176c.878-1.327,1.485-2.093,1.491-2.1l.25.2C126.217,331.508,125.619,332.265,124.748,333.58Z" transform="translate(-114.395 -311.75)" fill="#4a72a3"/>
        </g>
        <g id="Group_2409" data-name="Group 2409" transform="translate(11.186 9.427)">
          <g id="Group_2405" data-name="Group 2405" transform="translate(0 0.718)">
            <path id="Path_3080" data-name="Path 3080" d="M129.182,145.339l-.32,1.27a24.715,24.715,0,0,1-3.188-.44,37.651,37.651,0,0,1-.836-6.556s.024,3.184.347,6.45a18.513,18.513,0,0,1-3.432-1.092s-3.855-20.047,2.836-26.846,19.274-3.372,19.274-3.372l-5.6,30.669a23.857,23.857,0,0,1-9.078,1.209Z" transform="translate(-120.648 -113.89)" fill="#76413b"/>
            <g id="Group_2404" data-name="Group 2404" transform="translate(2.909 4.265)">
              <g id="Group_2403" data-name="Group 2403" transform="translate(0 17.854)">
                <path id="Path_3081" data-name="Path 3081" d="M141.129,177.365s2.333,13.924-.884,13.763-13.6-1-10.862,4.143,27.664,6.755,29.755-4.021c0,0-6.621,1.43-7.908-.5s.379-13.889.379-13.889Z" transform="translate(-128.929 -176.86)" fill="#ffac9d"/>
                <path id="Path_3082" data-name="Path 3082" d="M163.812,190.464a86.407,86.407,0,0,0,9.465-3.036,94.032,94.032,0,0,1,.865-10.568l-10.48.505S165.4,187.714,163.812,190.464Z" transform="translate(-151.462 -176.86)" fill="#ff8b7b"/>
              </g>
              <path id="Path_3083" data-name="Path 3083" d="M159.056,138.323s.835-13.144-13.46-12.249c-16.02,1-12.363,30.611-.9,28.742C158.41,152.58,159.056,138.323,159.056,138.323Z" transform="translate(-132.747 -126.031)" fill="#ffac9d"/>
            </g>
          </g>
          <g id="Group_2406" data-name="Group 2406" transform="translate(5.29 14.123)">
            <path id="Path_3084" data-name="Path 3084" d="M146.643,164.718a3.588,3.588,0,0,1-.1,1.262,4.075,4.075,0,0,1-.505,1.189,4.45,4.45,0,0,1-1.946,1.7l.05-.476a13.53,13.53,0,0,0,1.1.832c.384.263.784.509,1.2.759a5.794,5.794,0,0,1-1.382-.42,6.827,6.827,0,0,1-1.264-.727l-.358-.26.407-.216a5.436,5.436,0,0,0,1.757-1.49,5.894,5.894,0,0,0,.613-1A7.389,7.389,0,0,0,146.643,164.718Z" transform="translate(-140.725 -160.27)" fill="#d85944"/>
            <path id="Path_3085" data-name="Path 3085" d="M141.226,155.381a8.057,8.057,0,0,0-1.386-1.072,1.776,1.776,0,0,0-1.28-.237,3.95,3.95,0,0,0-1.353.652c-.472.314-.942.688-1.5,1.037a4.282,4.282,0,0,1,.853-1.732,3.571,3.571,0,0,1,.746-.7,2.7,2.7,0,0,1,1.015-.443,2.256,2.256,0,0,1,1.176.076,2.353,2.353,0,0,1,.935.608A2.89,2.89,0,0,1,141.226,155.381Z" transform="translate(-135.708 -152.567)" fill="#241b28"/>
            <path id="Path_3086" data-name="Path 3086" d="M159.986,155.089a4.293,4.293,0,0,1,1.26-1.984,3.953,3.953,0,0,1,2.268-1.036,3.705,3.705,0,0,1,2.424.645,4.452,4.452,0,0,1,1.537,1.781,16.912,16.912,0,0,0-1.975-.94,4.215,4.215,0,0,0-1.874-.286,4.77,4.77,0,0,0-1.825.6A14.132,14.132,0,0,0,159.986,155.089Z" transform="translate(-151.458 -152.053)" fill="#241b28"/>
            <path id="Path_3087" data-name="Path 3087" d="M144.007,165.362a15.336,15.336,0,0,0-.465-1.518c-.19-.47-.482-.845-.856-.843a.571.571,0,0,0-.488.185,1.878,1.878,0,0,0-.37.582,14.324,14.324,0,0,0-.492,1.509,4.1,4.1,0,0,1,.046-1.66,2.007,2.007,0,0,1,.4-.821,1.149,1.149,0,0,1,.946-.4,1.259,1.259,0,0,1,.892.477,2.078,2.078,0,0,1,.372.825A4.2,4.2,0,0,1,144.007,165.362Z" transform="translate(-139.318 -158.762)" fill="#241b28"/>
            <path id="Path_3088" data-name="Path 3088" d="M170.567,165.432a11.243,11.243,0,0,0-.5-1.426,1.684,1.684,0,0,0-.372-.531.615.615,0,0,0-.483-.168.658.658,0,0,0-.477.208,1.761,1.761,0,0,0-.353.553c-.19.438-.311.937-.472,1.439a3.941,3.941,0,0,1,.026-1.588,1.9,1.9,0,0,1,.378-.788,1.226,1.226,0,0,1,.874-.426,1.179,1.179,0,0,1,.906.363,1.841,1.841,0,0,1,.413.776A3.616,3.616,0,0,1,170.567,165.432Z" transform="translate(-156.558 -158.961)" fill="#241b28"/>
            <path id="Path_3089" data-name="Path 3089" d="M156.242,184.778l-9.908.3S149.521,192.346,156.242,184.778Z" transform="translate(-142.602 -173.283)" fill="#fff"/>
          </g>
          <g id="Group_2408" data-name="Group 2408" transform="translate(15.757)">
            <path id="Path_3090" data-name="Path 3090" d="M165.53,117.589c.2-7.645,10.452-6.97,15.023-2.005s5.788,22.044,5.788,22.044a12.021,12.021,0,0,1-2.458,2.841,47.053,47.053,0,0,0-.816-7.447,34.961,34.961,0,0,1,.389,7.8,20.258,20.258,0,0,1-4.039,2.463l-.258-2.6c-.053-.672-.11-1.115-.11-1.115l.11,1.115a26.5,26.5,0,0,1,.085,2.685,29.976,29.976,0,0,1-6.62,2.134c2.135-6.424.715-15.3.715-15.3A13.129,13.129,0,0,1,165.53,117.589Z" transform="translate(-165.507 -111.845)" fill="#965450"/>
            <g id="Group_2407" data-name="Group 2407" transform="translate(10.959 18.219)">
              <path id="Path_3091" data-name="Path 3091" d="M196.933,168.25c.021-.671.014-1.342.036-2.013.006-.182.013-.365.022-.548.034-.07.067-.139.1-.21,0,0,2.323-4.1,4.012.207,1.094,2.793-2.747,5.5-4.4,4.713A14.3,14.3,0,0,0,196.933,168.25Z" transform="translate(-196.706 -163.714)" fill="#ffac9d"/>
              <path id="Path_3092" data-name="Path 3092" d="M198.913,172.189a1.851,1.851,0,0,0,.546-.471.569.569,0,0,0,.064-.6,1.06,1.06,0,0,0-.185-.262,2.951,2.951,0,0,0-.261-.223,5.89,5.89,0,0,0-.6-.372l-.128-.076.029-.144a6.485,6.485,0,0,1,.551-1.647,3.019,3.019,0,0,1,.513-.745,1.293,1.293,0,0,1,.881-.436,1.141,1.141,0,0,1,.5.1,1.739,1.739,0,0,1,.4.247,1.212,1.212,0,0,1,.465.818,1.75,1.75,0,0,1-.143.88,2.842,2.842,0,0,1-.433.736,2.553,2.553,0,0,0,.29-1.564.931.931,0,0,0-.406-.57,1.065,1.065,0,0,0-.649-.213c-.424.038-.767.5-1,.964a7.813,7.813,0,0,0-.567,1.518l-.1-.22a4.588,4.588,0,0,1,.625.46,2.563,2.563,0,0,1,.276.289,1.331,1.331,0,0,1,.2.371.751.751,0,0,1-.2.783A1.581,1.581,0,0,1,198.913,172.189Z" transform="translate(-197.77 -165.987)" fill="#d85944"/>
            </g>
          </g>
        </g>
        <g id="Group_2420" data-name="Group 2420" transform="translate(0 0)">
          <g id="Group_2412" data-name="Group 2412" transform="translate(40.517)">
            <g id="Group_2411" data-name="Group 2411" transform="translate(2.004)">
              <g id="Group_2410" data-name="Group 2410">
                <path id="Path_3093" data-name="Path 3093" d="M228.49,92.085s-5.8-16.048-2.03.181c0,0-5.787-13.874-2.358.47,0,0-4.62-12.713-.954,5.216s2.412,20.909,2.412,20.909-8.9,5.727-15.7,11.32c1.953,3.417,3.843,6.869,5.762,10.305,8.31-4.781,20.2-12.331,21.294-16.963C238.617,116.337,222.842,68.752,228.49,92.085Z" transform="translate(-209.86 -85.006)" fill="#ffac9d"/>
                <path id="Path_3094" data-name="Path 3094" d="M241.654,115.359s-11.419-6.434.322-2.091S241.654,115.359,241.654,115.359Z" transform="translate(-227.255 -102.364)" fill="#ffac9d"/>
              </g>
              <path id="Path_3095" data-name="Path 3095" d="M215.622,214.165c2.848-1.639,6.114-3.6,9.224-5.661q-.258-.456-.527-.906a35.146,35.146,0,0,0-7.555-9.023c-2.272,1.642-4.7,3.471-6.9,5.285C211.813,207.276,213.7,210.729,215.622,214.165Z" transform="translate(-209.86 -158.684)" fill="#ff8b7b"/>
            </g>
            <path id="Path_3096" data-name="Path 3096" d="M204.154,205.458s1.031-2.389,5.856-5.445a23.735,23.735,0,0,1,8.364,14.583l-7.881,3.163-6.273-11.58" transform="translate(-204.154 -159.617)" fill="#ffa65b"/>
          </g>
          <g id="Group_2415" data-name="Group 2415" transform="translate(11.609 44.78)">
            <g id="Group_2413" data-name="Group 2413">
              <path id="Path_3097" data-name="Path 3097" d="M155.492,212.989c-1.5-.2-3.5.449-4.73.566a8.493,8.493,0,0,1-2.9,4.4,9.367,9.367,0,0,1-7.671,1.706,16.5,16.5,0,0,1-10.347-6.838c-3.286-.6-7.455-.79-7.925,3.127-.684,5.7,4.247,31.192,4.978,33.578,16.887,5.79,28.613.486,30.427.043l2.029-20.819S160.748,213.705,155.492,212.989Z" transform="translate(-121.853 -212.494)" fill="#ffa65b"/>
            </g>
            <g id="Group_2414" data-name="Group 2414" transform="translate(0.14 7.685)">
              <path id="Path_3098" data-name="Path 3098" d="M142.716,244.962c-5.7-1.181-11.119-2.969-15.811-6.5a49.5,49.5,0,0,1-4.654-4.087,270.661,270.661,0,0,0,4.9,29.349c16.887,5.79,28.613.486,30.427.043l4.051-19.348A38.932,38.932,0,0,1,142.716,244.962Z" transform="translate(-122.251 -234.373)" fill="#f2853b"/>
            </g>
          </g>
          <g id="Group_2419" data-name="Group 2419" transform="translate(0 44.341)">
            <g id="Group_2418" data-name="Group 2418" transform="translate(0 4.28)">
              <g id="Group_2416" data-name="Group 2416">
                <path id="Path_3099" data-name="Path 3099" d="M99.148,247.157s7.753-14.19,7.478-18.778-6.481-4.951-6.481-4.951S87.555,244.292,88.9,250.184C89.29,251.874,99.148,247.157,99.148,247.157Z" transform="translate(-88.802 -223.428)" fill="#ffac9d"/>
              </g>
              <g id="Group_2417" data-name="Group 2417" transform="translate(4.931)">
                <path id="Path_3100" data-name="Path 3100" d="M102.971,235.284c.1.082.534.381.533.389.06.038.118.078.179.115.486.29.979.569,1.491.811a23.784,23.784,0,0,0,2.949,1.174c.573.183,1.149.358,1.731.507l.279.073.135.029q.351.077.7.147.72.14,1.444.259c1.787-3.941,3.445-8.245,3.316-10.41-.275-4.588-6.481-4.951-6.481-4.951s-3.352,5.555-6.411,11.741C102.885,235.206,102.926,235.247,102.971,235.284Z" transform="translate(-102.841 -223.428)" fill="#ff8b7b"/>
              </g>
            </g>
            <path id="Path_3101" data-name="Path 3101" d="M107.5,211.815c3.338-.959,7.5-1.022,7.611,2.314,1.459,4.914-1.953,16.461-1.953,16.461-7.407-.239-15.371-5.313-15.371-5.313C99.941,219.14,104.252,213.3,107.5,211.815Z" transform="translate(-94.63 -211.244)" fill="#ffa65b"/>
          </g>
        </g>
      </g>
      <g id="Group_2437" data-name="Group 2437" transform="translate(160.553 59.975)">
        <g id="Group_2422" data-name="Group 2422" transform="translate(2.827 93.473)">
          <path id="Path_3102" data-name="Path 3102" d="M306.243,342.495l-4.825,44.7h15.119l5.147-35.045h3.538l2.9,35.045h14.8l2.252-61.1Z" transform="translate(-301.418 -326.089)" fill="#352c38"/>
          <path id="Path_3103" data-name="Path 3103" d="M324.772,363.4l1.654-11.26h3.538l.93,11.26h17.639l1.375-37.316-38.923,16.406-2.257,20.91Z" transform="translate(-306.16 -326.089)" fill="#241e26"/>
        </g>
        <g id="Group_2436" data-name="Group 2436" transform="translate(0)">
          <g id="Group_2431" data-name="Group 2431">
            <g id="Group_2427" data-name="Group 2427" transform="translate(0 29.573)">
              <g id="Group_2423" data-name="Group 2423" transform="translate(4.727)">
                <path id="Path_3104" data-name="Path 3104" d="M338.659,144.169s-1.784,16.06-.714,16.952,14.181-2,17.393,8.171-44.338,6.461-48.085,1.287,18.379-9.1,18.379-9.1l1.071-11.242Z" transform="translate(-306.826 -144.169)" fill="#965450"/>
                <path id="Path_3105" data-name="Path 3105" d="M367.092,158.347a21.367,21.367,0,0,0,5.613-5.444c.312-4.326.8-8.735.8-8.735l-11.956,6.067-1.01,10.6A16.252,16.252,0,0,0,367.092,158.347Z" transform="translate(-341.674 -144.169)" fill="#76413b"/>
              </g>
              <g id="Group_2426" data-name="Group 2426" transform="translate(0 16.06)">
                <g id="Group_2424" data-name="Group 2424">
                  <path id="Path_3106" data-name="Path 3106" d="M293.368,212.733s.694-15.526,6.939-17.846a103.311,103.311,0,0,1,11.777-3.569,8.769,8.769,0,0,0,8.208,5.531c6.424.178,10.885-6.959,10.885-6.959s12.309.312,16.056,6.557,3.758,16.494,3.758,16.494Z" transform="translate(-293.368 -189.891)" fill="#6f96bd"/>
                </g>
                <g id="Group_2425" data-name="Group 2425" transform="translate(0 12.166)">
                  <path id="Path_3107" data-name="Path 3107" d="M294.2,228.558a51.27,51.27,0,0,0-.832,6.645l57.624.209a47.228,47.228,0,0,0-1.481-10.885C345.789,225,300.386,228.605,294.2,228.558Z" transform="translate(-293.368 -224.527)" fill="#5180af"/>
                </g>
              </g>
            </g>
            <g id="Group_2430" data-name="Group 2430" transform="translate(11.321)">
              <g id="Group_2429" data-name="Group 2429" transform="translate(4.534 10.61)">
                <g id="Group_2428" data-name="Group 2428">
                  <path id="Path_3108" data-name="Path 3108" d="M348.974,90.519s-10.08-3.609-10.454,12.818c-.328,14.445,5.227,18.543,9.956,18.045,7.945-.836,11.325-10.2,11.822-14.809C361.258,97.7,356.69,90.643,348.974,90.519Z" transform="translate(-338.506 -90.182)" fill="#965450"/>
                </g>
              </g>
              <path id="Path_3109" data-name="Path 3109" d="M330.937,93.294s.858,3.217,1.608,3.431-.858-4.289.751-4.611,9.972-2.037,11.151-.215-.75,4.4,2.359,4.289,4.4-4.932,3.646-15.977c0,0-4.182-.858-3.967-6.433,0,0-16.191,5.79-19.944-1.93s4.718-9.865,7.72-4.825c0,0-3.753-4.182-1.179-5.9s4.182,4.825,4.182,4.825-1.823-5.04,1.608-5.9,3.86,5.576,3.86,5.576-.858-4.289.965-4.5.965,4.611.965,4.611,2.681-5.147,7.72-2.144.322,8.685.322,8.685,1.394-7.935,7.828-2.574-4.611,12.867-4.611,12.867-3.324-1.394-3.539,2.573.429,20.051-7.4,19.623c0,0-.536,1.823-4.611,2.144s-6.112-3.324-6.112-3.324.322,1.287-3.217-.536S330.937,93.294,330.937,93.294Z" transform="translate(-325.599 -59.975)" fill="#211823"/>
            </g>
          </g>
          <g id="Group_2435" data-name="Group 2435" transform="translate(15.993 18.447)">
            <g id="Group_2432" data-name="Group 2432">
              <path id="Path_3110" data-name="Path 3110" d="M353.9,123.39a22.682,22.682,0,0,1,0,2.313c-.033.769-.095,1.535-.172,2.3s-.177,1.526-.3,2.283-.26,1.514-.422,2.265l-.306-.334c1-.017,2.011-.008,3.023.074-.99.225-1.985.377-2.982.5l-.339.043.033-.377c.034-.382.083-.761.127-1.141s.093-.759.144-1.138c.1-.758.212-1.514.325-2.269s.246-1.51.387-2.263S353.719,124.142,353.9,123.39Z" transform="translate(-347.662 -119.562)" fill="#632323"/>
              <path id="Path_3111" data-name="Path 3111" d="M370.823,117.247a16.078,16.078,0,0,0-1.881-1.135,5.606,5.606,0,0,0-1.858-.584,4.632,4.632,0,0,0-1.9.214,16.117,16.117,0,0,0-2.017.851,4.327,4.327,0,0,1,1.6-1.744,3.871,3.871,0,0,1,2.45-.567,4.246,4.246,0,0,1,2.272,1.015A4.353,4.353,0,0,1,370.823,117.247Z" transform="translate(-354.645 -113.64)" fill="#211823"/>
              <path id="Path_3112" data-name="Path 3112" d="M344.874,115.477c-.536-.409-1.014-.79-1.5-1.1a3.746,3.746,0,0,0-1.413-.61,2.585,2.585,0,0,0-1.433.207,15.5,15.5,0,0,0-1.63.854,3.392,3.392,0,0,1,1.114-1.692,2.7,2.7,0,0,1,2.153-.6,3.146,3.146,0,0,1,1.87,1.12A3.672,3.672,0,0,1,344.874,115.477Z" transform="translate(-338.9 -112.493)" fill="#211823"/>
            </g>
            <g id="Group_2433" data-name="Group 2433" transform="translate(19.405 3.824)">
              <path id="Path_3113" data-name="Path 3113" d="M395.9,129.851s.373-7.965,4.107-6.222-.612,11.918-4.729,8.338C392.413,129.478,395.9,129.851,395.9,129.851Z" transform="translate(-394.147 -123.38)" fill="#965450"/>
              <path id="Path_3114" data-name="Path 3114" d="M402.575,134.7a5.611,5.611,0,0,0,.58-.672,1.624,1.624,0,0,0,.338-.724c.024-.229-.1-.359-.327-.466a2.528,2.528,0,0,0-.77-.2l-.248-.033-.006-.271a11.164,11.164,0,0,1,.179-2.389,5.3,5.3,0,0,1,.352-1.188,3.164,3.164,0,0,1,.33-.577,1.5,1.5,0,0,1,.573-.477,1.256,1.256,0,0,1,.777-.083l.178.047.158.069a1.337,1.337,0,0,1,.3.162,1.545,1.545,0,0,1,.69,1.163,2.8,2.8,0,0,1-.189,1.227,4.4,4.4,0,0,1-.555,1.05,6.869,6.869,0,0,0,.283-1.12,2.838,2.838,0,0,0-.009-1.078,1.039,1.039,0,0,0-.542-.721,1.133,1.133,0,0,0-.219-.09l-.111-.042-.1-.019a.57.57,0,0,0-.357.061,1.449,1.449,0,0,0-.533.719,6.733,6.733,0,0,0-.306,1.044,16.064,16.064,0,0,0-.281,2.243l-.254-.3a3.022,3.022,0,0,1,.921.354,1.065,1.065,0,0,1,.393.408.809.809,0,0,1,.058.585,1.793,1.793,0,0,1-.555.8A3.894,3.894,0,0,1,402.575,134.7Z" transform="translate(-399.331 -126.116)" fill="#632323"/>
            </g>
            <g id="Group_2434" data-name="Group 2434" transform="translate(3.238 4.038)">
              <path id="Path_3115" data-name="Path 3115" d="M376.057,126.526c.016.9.281,1.63.592,1.624s.549-.742.532-1.645-.281-1.63-.591-1.624S376.041,125.623,376.057,126.526Z" transform="translate(-366.244 -124.568)" fill="#211823"/>
              <path id="Path_3116" data-name="Path 3116" d="M348.121,125.634c.017.9.281,1.63.592,1.625s.549-.742.532-1.645-.281-1.63-.591-1.625S348.1,124.731,348.121,125.634Z" transform="translate(-348.12 -123.989)" fill="#211823"/>
            </g>
            <path id="Path_3117" data-name="Path 3117" d="M350.261,155.187l9.328-.965S355.944,159.047,350.261,155.187Z" transform="translate(-346.27 -139.565)" fill="#fff"/>
          </g>
        </g>
        <path id="Path_3118" data-name="Path 3118" d="M334.781,193.627s-.438-3.163-1.3-3.178-1.435,1-1.435,1-1.763-1.368-2.477-.328c0,0-2.269-.895-2.557,1.16s1.345,8.679,1.251.767c0,0,1.736,9.431,1.7-.1,0,0,3.358,10.818,2.667-.369C332.633,192.581,336.481,199.7,334.781,193.627Z" transform="translate(-315.173 -144.62)" fill="#ffac9d"/>
      </g>
      <g id="Group_2441" data-name="Group 2441" transform="translate(88.644 122.188)">
        <g id="Group_2438" data-name="Group 2438" transform="translate(10.566 2.915)">
          <rect id="Rectangle_2556" data-name="Rectangle 2556" width="168.76" height="89.435" fill="#fff"/>
          <text id="JOIN_US_" data-name="JOIN US!" transform="translate(8.738 39.32)" fill="#352c38" font-size="21" font-family="SegoeUI, Segoe UI"><tspan x="37.678" y="23">JOIN US!</tspan></text>
        </g>
        <g id="Group_2440" data-name="Group 2440" transform="translate(0 0)">
          <g id="Group_2439" data-name="Group 2439" transform="translate(58.091)">
            <path id="Path_3119" data-name="Path 3119" d="M481.458,243.032s0-4.668-1.172-4.863-2.149,1.167-2.149,1.167-2.149-2.334-3.321-.973c0,0-2.93-1.75-3.712,1.167s.2,12.838,1.563,1.361c0,0,.586,14,2.344.195,0,0,2.54,16.339,3.712,0C478.723,241.087,482.63,252.174,481.458,243.032Z" transform="translate(-394.676 -237.58)" fill="#965450"/>
            <path id="Path_3120" data-name="Path 3120" d="M254.227,242.284s0-4.668,1.064-4.863,1.95,1.167,1.95,1.167,1.951-2.334,3.015-.973c0,0,2.66-1.75,3.37,1.167s-.177,12.838-1.419,1.361c0,0-.532,14-2.128.195,0,0-2.305,16.339-3.369,0C256.71,240.339,253.163,251.426,254.227,242.284Z" transform="translate(-254.028 -237.095)" fill="#965450"/>
          </g>
          <path id="Path_3121" data-name="Path 3121" d="M114.164,265.1S88.644,268,88.644,275.717s14.9.429,24.984-5.576c0,0,14.476,10.186,3.538.643,0,0,11.795,8.042,1.072-1.716,0,0,11.259,6.969.858-1.394,0,0,10.723,5.147-.429-2.144C118.667,265.53,117.6,264.244,114.164,265.1Z" transform="translate(-88.644 -255.073)" fill="#ffac9d"/>
        </g>
      </g>
    </g>
    <ellipse id="Ellipse_168" data-name="Ellipse 168" cx="28" cy="28.5" rx="28" ry="28.5" transform="translate(15 18)" fill="#d5c1dd"/>
  </g>
</svg>
