<svg xmlns="http://www.w3.org/2000/svg" xmlns:xlink="http://www.w3.org/1999/xlink" width="183" height="183" viewBox="0 0 183 183">
  <defs>
    <clipPath id="clip-path">
      <rect id="Rectangle_18" data-name="Rectangle 18" width="183" height="183" transform="translate(0 0)" fill="none"/>
    </clipPath>
  </defs>
  <g id="Group_26" data-name="Group 26" transform="translate(-793.65 -918.423)">
    <g id="Group_25" data-name="Group 25" transform="translate(793.65 918.423)" clip-path="url(#clip-path)">
      <path id="Path_17" data-name="Path 17" d="M822.865,1095.992l5.63-3.032s-.039-82.987-.137-87.256a97.59,97.59,0,0,1,.145-13.031,64.625,64.625,0,0,1,2.677-15.753,57.747,57.747,0,0,1,5.107-11.533,40.165,40.165,0,0,1,5.438-7.742c5.43-5.707,12.854-7.566,17.986-8.174q-4.662-1.047-9.368-2.144-3.139-.729-6.247-1.47a46.173,46.173,0,0,1,15.555-10.1A71.747,71.747,0,0,0,845.1,940.57a36.376,36.376,0,0,0-8.573,5.226,28.357,28.357,0,0,0-7.991,10.773,273.609,273.609,0,0,0-8.4,28.423c-3.368,14.193-3.775,55.578-3.656,111" transform="translate(-771.762 -901.143)" fill="#0d0dff"/>
      <path id="Path_18" data-name="Path 18" d="M891.031,942.869l-29.851,90.285v56h29.851Z" transform="translate(-728.853 -894.307)" fill="#fff"/>
      <path id="Path_19" data-name="Path 19" d="M851.695,953.27c5.661-4.472,8.457-6.265,28.464-13.09,14.918-5.089,28.891-9.257,36.743-11.77-28.253.255-48.508.89-53.668,1.72L853.2,931.753h0a65.1,65.1,0,0,0-9.774,2.965s-10.919,4.262-19.276,11.324c-20.914,17.675-19.932,55.68-19.864,57.526v99.463h30.288v-96.023C833.3,971.3,845.448,958.2,851.695,953.27Z" transform="translate(-783.47 -908.183)" fill="#fff"/>
      <g id="Group_24" data-name="Group 24" transform="translate(75.665 14.043)">
        <path id="Path_20" data-name="Path 20" d="M925.011,925.253l-92.747,29.814a85.384,85.384,0,0,1,9.118,1.209,83.014,83.014,0,0,1,13.435,3.678,75.149,75.149,0,0,1,19.734,11.1Z" transform="translate(-832.264 -925.253)" fill="#fff"/>
        <path id="Path_21" data-name="Path 21" d="M856.469,977.174a46.945,46.945,0,0,1,5.273,12.371c1.294,4.909,1.286,9.743,1.429,19.372.053,3.613.018,6.255,0,7.909-.068,5.915.47,28.723.47,28.723l38.144-120.294Z" transform="translate(-809.038 -925.254)" fill="#fff"/>
      </g>
      <path id="Path_22" data-name="Path 22" d="M852.117,968.61c.707.541,1.534,1.088,2.291,1.771.893.806,1.685,1.6,2.381,2.359l49.173-47.487S868.906,954.778,852.117,968.61Z" transform="translate(-737.549 -911.211)" fill="#0d0dff"/>
      <path id="Path_23" data-name="Path 23" d="M868.456,952.139c-41.5,38.3-35.366,100.528-2.008,130.832,25.909,23.538,69.463,26.483,104.651,4.454" transform="translate(-749.791 -885.412)" fill="none" stroke="#fff" stroke-miterlimit="10" stroke-width="1" stroke-dasharray="5"/>
    </g>
  </g>
</svg>
