<svg xmlns="http://www.w3.org/2000/svg" width="40" height="39" viewBox="0 0 40 39">
  <g id="Group_2138" data-name="Group 2138" transform="translate(-805 -301.177)">
    <g id="Ellipse_60" data-name="Ellipse 60" transform="translate(805 301.177)" fill="#fff" stroke="#fff" stroke-width="1">
      <ellipse cx="20" cy="19.5" rx="20" ry="19.5" stroke="none"/>
      <ellipse cx="20" cy="19.5" rx="19.5" ry="19" fill="none"/>
    </g>
    <g id="Group_818" data-name="Group 818" transform="translate(810.333 309.877)">
      <path id="Path_1270" data-name="Path 1270" d="M281.007,174.83a1.243,1.243,0,0,1-1.33.7c-.7-.029-1.4,0-2.1-.013a.339.339,0,0,0-.394.275,3.815,3.815,0,0,1-6.242,1.5,3.625,3.625,0,0,1-.984-1.559.249.249,0,0,0-.284-.213c-1.749.007-3.5.009-5.246,0-.216,0-.254.111-.308.263a3.792,3.792,0,0,1-3.494,2.565,3.686,3.686,0,0,1-3.576-2.251.788.788,0,0,0-.94-.579c-.571.035-1.145.014-1.718.006a.945.945,0,0,1-.941-.592.916.916,0,0,1,.18-1.018,1.045,1.045,0,0,1,.833-.311c.7,0,1.4-.006,2.1,0a.264.264,0,0,0,.306-.221,3.815,3.815,0,0,1,7.292.024.229.229,0,0,0,.265.2q2.623-.006,5.246,0c.158,0,.211-.054.26-.2a3.815,3.815,0,0,1,7.293-.011c.051.152.105.222.281.216.454-.015.909-.012,1.363,0,.175,0,.239-.035.237-.226q-.012-2.267,0-4.534a.529.529,0,0,0-.14-.343c-.364-.467-.734-.93-1.087-1.4a.483.483,0,0,0-.439-.218c-2.312.008-4.623,0-6.935,0-.846,0-1.189-.34-1.189-1.179,0-2.035-.006-4.07.006-6.105,0-.285-.048-.376-.361-.375q-7.187.018-14.374.008a1.879,1.879,0,0,1-.5-.04.937.937,0,0,1-.706-1,.922.922,0,0,1,.827-.862,3.429,3.429,0,0,1,.384-.016H270c.9,0,1.225.329,1.225,1.235,0,.68,0,.68.69.68,1.047,0,2.095.019,3.141-.007a1.189,1.189,0,0,1,1.215.744c.835,1.7,1.7,3.377,2.54,5.072a12.865,12.865,0,0,0,1.25,1.755,9.251,9.251,0,0,1,.948,1.337Zm-4.373-9.861c-.636-1.267-1.251-2.488-1.86-3.711a.217.217,0,0,0-.236-.122q-1.555,0-3.111,0c-.14,0-.21.014-.209.186.008,1.155.006,2.311,0,3.466,0,.143.043.185.185.185C273.131,164.967,274.858,164.968,276.634,164.968Zm-14.223,9.6a1.907,1.907,0,1,0-1.961,1.864A1.9,1.9,0,0,0,262.411,174.571Zm11.167,1.866a1.905,1.905,0,1,0-1.912-1.891A1.923,1.923,0,0,0,273.579,176.436Z" transform="translate(-250.654 -157.314)" fill="#807be5"/>
      <path id="Path_1271" data-name="Path 1271" d="M216.8,261.534a1.221,1.221,0,0,1,1.287-.716c2.568.019,5.137.007,7.705.009a.968.968,0,0,1,1.039.7.937.937,0,0,1-.78,1.2,3.216,3.216,0,0,1-.384.015c-2.509,0-5.019-.012-7.528.01a1.285,1.285,0,0,1-1.34-.682Z" transform="translate(-216.8 -253.148)" fill="#807be5"/>
      <path id="Path_1272" data-name="Path 1272" d="M242.989,212.2c-1.342,0-2.684,0-4.026,0a.951.951,0,0,1-.974-1.178.925.925,0,0,1,.834-.72c.078-.007.158-.008.237-.008q3.937,0,7.875,0a.97.97,0,0,1,1.079.792.954.954,0,0,1-1,1.114C245.673,212.2,244.331,212.2,242.989,212.2Z" transform="translate(-236.393 -206.364)" fill="#807be5"/>
      <path id="Path_1273" data-name="Path 1273" d="M241.086,313.7c-.73,0-1.46.01-2.19,0a.953.953,0,0,1-.305-1.855.956.956,0,0,1,.29-.048c1.48,0,2.96-.015,4.439.005a.933.933,0,0,1,.87,1.268.975.975,0,0,1-.973.633c-.71,0-1.421,0-2.131,0Z" transform="translate(-236.373 -300.341)" fill="#807be5"/>
    </g>
  </g>
</svg>
