<svg xmlns="http://www.w3.org/2000/svg" xmlns:xlink="http://www.w3.org/1999/xlink" width="92" height="42" viewBox="0 0 92 42">
  <defs>
    <linearGradient id="linear-gradient" y1="0.5" x2="1" y2="0.5" gradientUnits="objectBoundingBox">
      <stop offset="0.15" stop-color="#6069ff"/>
      <stop offset="1" stop-color="#7f6bf6"/>
    </linearGradient>
    <linearGradient id="linear-gradient-3" y1="0.5" x2="1" y2="0.5" gradientUnits="objectBoundingBox">
      <stop offset="0.15" stop-color="#6069ff"/>
      <stop offset="1" stop-color="#8b7dff"/>
    </linearGradient>
  </defs>
  <g id="Group_18406" data-name="Group 18406" transform="translate(-61 -187)">
    <g id="Rectangle_48" data-name="Rectangle 48" transform="translate(61 187)" fill="#fff" stroke="#6069ff" stroke-width="1">
      <rect width="92" height="42" rx="18" stroke="none"/>
      <rect x="0.5" y="0.5" width="91" height="41" rx="17.5" fill="none"/>
    </g>
    <g id="Group_15810" data-name="Group 15810" transform="translate(47.203 176.663)">
      <path id="Path_72017" data-name="Path 72017" d="M48.831,51.575l.506-.273s0-7.461-.012-7.845a7.226,7.226,0,0,1,.579-3.381,3.444,3.444,0,0,1,1.2-1.333,3.352,3.352,0,0,1,1.5-.5,8.669,8.669,0,0,0-1.131-.186c-.3-.03-.588-.041-.849-.041.133-.078.276-.155.43-.23a7.72,7.72,0,0,1,1.024-.454,3.866,3.866,0,0,0-1.134.377,3.152,3.152,0,0,0-.759.515,5.973,5.973,0,0,0-.844.815c-.755,1.578-.909,5.444-1.084,12.536" transform="translate(-16.004 -14.194)" fill="#0d0dff"/>
      <path id="Path_72018" data-name="Path 72018" d="M117.409,31.989l-1.448,4.882-1.236,4.153v5.84h2.684Z" transform="translate(-74.595 -9.483)" fill="url(#linear-gradient)"/>
      <path id="Path_72019" data-name="Path 72019" d="M34.367,27.22c.4-.32.788-.479,3.233-1.231,1.343-.413,2.489-.754,3.363-1.01a47,47,0,0,0-5.559.16l-.9.146a5.857,5.857,0,0,0-.879.267,7.058,7.058,0,0,0-1.733,1.018C30.01,28.16,30.1,31.577,30.1,31.743v8.943h2.723V32.052C32.694,28.81,33.87,27.62,34.367,27.22Z" transform="translate(0 -3.305)" fill="url(#linear-gradient)"/>
      <g id="Group_15808" data-name="Group 15808" transform="translate(34.853 21.231)">
        <path id="Path_72020" data-name="Path 72020" d="M78.361,21.231l-.873.285-1.1.345-2.192.69-2.2.664-1.8.534a4.936,4.936,0,0,1,.82.02,5.293,5.293,0,0,1,1.22.291A5.818,5.818,0,0,1,74,25.1l1.5-1.43Z" transform="translate(-70.195 -21.231)" fill="#0d0dff"/>
        <path id="Path_72021" data-name="Path 72021" d="M107.653,25.774a4.217,4.217,0,0,1,.474,1.112,7.352,7.352,0,0,1,.128,1.742c0,.325,0,.562,0,.711-.006.532-.012,1.3-.01,2.276l2.025-6.71,1.11-3.674q-.966,1.182-1.935,2.363Q108.55,24.685,107.653,25.774Z" transform="translate(-103.214 -21.231)" fill="#0d0dff"/>
      </g>
      <path id="Path_72022" data-name="Path 72022" d="M100.885,24.962c.064.049.13.1.2.165s.151.144.214.212l4.116-4.108Z" transform="translate(-62.395)" fill="url(#linear-gradient-3)"/>
      <path id="Path_72023" data-name="Path 72023" d="M84.9,60.305a8.114,8.114,0,0,0-.181,11.763c2.33,2.116,6.246,2.381,9.409.4" transform="translate(-45.999 -34.443)" fill="none" stroke="#0d0dff" stroke-miterlimit="10" stroke-width="1" stroke-dasharray="5"/>
      <path id="Path_72024" data-name="Path 72024" d="M142.914,79.223a2.587,2.587,0,0,1,.546-1.647,3.508,3.508,0,0,1,1.5-1.076,5.991,5.991,0,0,1,2.223-.381,10.188,10.188,0,0,1,1.418.105,6.485,6.485,0,0,1,1.322.316v-.724a2.339,2.339,0,0,0-.69-1.786,2.735,2.735,0,0,0-1.954-.652,4.291,4.291,0,0,0-1.581.3,8.761,8.761,0,0,0-1.6.853l-.613-1.188a8.143,8.143,0,0,1,1.954-1.006A6.219,6.219,0,0,1,147.474,72a4.219,4.219,0,0,1,3.027,1.054,3.852,3.852,0,0,1,1.111,2.935v4.2a.665.665,0,0,0,.125.446.574.574,0,0,0,.412.161v1.3q-.249.038-.431.057c-.121.012-.22.019-.3.019a1.145,1.145,0,0,1-.891-.326,1.205,1.205,0,0,1-.335-.69l-.038-.632a4.264,4.264,0,0,1-1.705,1.3,5.192,5.192,0,0,1-2.089.46,3.8,3.8,0,0,1-1.782-.409,3.126,3.126,0,0,1-1.226-1.1A2.837,2.837,0,0,1,142.914,79.223Zm6.515.7a2.51,2.51,0,0,0,.364-.541,1.112,1.112,0,0,0,.134-.465V77.685a7.278,7.278,0,0,0-1.245-.351,6.911,6.911,0,0,0-1.284-.123,3.841,3.841,0,0,0-2.079.5,1.553,1.553,0,0,0-.8,1.375,1.81,1.81,0,0,0,.259.92,1.978,1.978,0,0,0,.766.731,2.535,2.535,0,0,0,1.255.284,3.66,3.66,0,0,0,1.495-.313A3.231,3.231,0,0,0,149.429,79.924Z" transform="translate(-99.443 -44.752)" fill="url(#linear-gradient)"/>
      <path id="Path_72025" data-name="Path 72025" d="M243.154,84.074V71.865h-.047v-.02h-1.494V73.7a4.325,4.325,0,0,0-.726-.852,4.55,4.55,0,0,0-.788-.6,4.055,4.055,0,0,0-2.126-.575,4.254,4.254,0,0,0-1.858.412,4.805,4.805,0,0,0-1.5,1.121,5.259,5.259,0,0,0-1.006,1.647,5.46,5.46,0,0,0-.364,1.992,5.969,5.969,0,0,0,.326,1.973,5.294,5.294,0,0,0,.919,1.657,4.449,4.449,0,0,0,1.418,1.14,3.939,3.939,0,0,0,1.82.421,4.007,4.007,0,0,0,2.331-.7,4.918,4.918,0,0,0,1.366-1.416v4.645a1.292,1.292,0,0,0,.393.948,1.27,1.27,0,0,0,.929.393,7.241,7.241,0,0,0,.9-.057V84.393A.485.485,0,0,1,243.154,84.074Zm-3.516-3.813a2.922,2.922,0,0,1-1.293.284,3.017,3.017,0,0,1-1.724-.5,3.534,3.534,0,0,1-1.178-1.337,3.908,3.908,0,0,1-.431-1.821,3.855,3.855,0,0,1,.249-1.365,4,4,0,0,1,.7-1.195,3.419,3.419,0,0,1,1.063-.844,2.952,2.952,0,0,1,1.36-.313,2.863,2.863,0,0,1,1.006.189c.081.03.161.064.239.1a3.975,3.975,0,0,1,.654.4,3.285,3.285,0,0,1,.737.776,2.534,2.534,0,0,1,.4.929v2.874a5.087,5.087,0,0,1-1.264,1.514A3.569,3.569,0,0,1,239.638,80.261Z" transform="translate(-179.066 -44.464)" fill="url(#linear-gradient)"/>
      <path id="Path_72026" data-name="Path 72026" d="M340.168,39.176h1.686V50.629q0,.828.23,1.02a.836.836,0,0,0,.556.193,3.324,3.324,0,0,0,.767-.086,4.843,4.843,0,0,0,.613-.182l.268,1.38a5.488,5.488,0,0,1-1,.287,5.242,5.242,0,0,1-1.015.115,1.944,1.944,0,0,1-2.108-2.117Z" transform="translate(-273.322 -15.818)" fill="url(#linear-gradient)"/>
      <g id="Group_15809" data-name="Group 15809" transform="translate(72.051 27.247)">
        <path id="Path_72027" data-name="Path 72027" d="M389.184,82.289a5.061,5.061,0,0,1-2.06-.409,4.952,4.952,0,0,1-1.609-1.122,5.115,5.115,0,0,1-1.054-1.645,5.264,5.264,0,0,1-.374-1.978,5.153,5.153,0,0,1,.651-2.568A5,5,0,0,1,389.2,72a4.8,4.8,0,0,1,2.635.714,5,5,0,0,1,1.744,1.865,5.144,5.144,0,0,1,.623,2.484q0,.191-.009.371a2.114,2.114,0,0,1-.029.276h-8.3a3.721,3.721,0,0,0,.546,1.714,3.419,3.419,0,0,0,1.217,1.175,3.2,3.2,0,0,0,1.61.426,3.472,3.472,0,0,0,1.734-.46,2.459,2.459,0,0,0,1.121-1.207l1.456.4a3.858,3.858,0,0,1-.968,1.3,4.716,4.716,0,0,1-1.514.9A5.352,5.352,0,0,1,389.184,82.289Zm-3.372-5.748h6.821a3.606,3.606,0,0,0-.556-1.7,3.446,3.446,0,0,0-1.226-1.155,3.327,3.327,0,0,0-1.648-.417,3.288,3.288,0,0,0-1.629.417,3.365,3.365,0,0,0-1.217,1.155A3.66,3.66,0,0,0,385.811,76.54Z" transform="translate(-384.087 -71.999)" fill="url(#linear-gradient)"/>
        <path id="Path_72028" data-name="Path 72028" d="M484.74,82.289a5.061,5.061,0,0,1-2.06-.409,4.954,4.954,0,0,1-1.61-1.122,5.114,5.114,0,0,1-1.054-1.645,5.265,5.265,0,0,1-.374-1.978,5.153,5.153,0,0,1,.652-2.568A5,5,0,0,1,484.759,72a4.8,4.8,0,0,1,2.635.714,5,5,0,0,1,1.744,1.865,5.144,5.144,0,0,1,.623,2.484c0,.127,0,.251-.01.371a2.1,2.1,0,0,1-.029.276h-8.3a3.723,3.723,0,0,0,.546,1.714,3.42,3.42,0,0,0,1.217,1.175,3.194,3.194,0,0,0,1.609.426,3.472,3.472,0,0,0,1.734-.46,2.459,2.459,0,0,0,1.121-1.207l1.456.4a3.858,3.858,0,0,1-.968,1.3,4.717,4.717,0,0,1-1.514.9A5.352,5.352,0,0,1,484.74,82.289Zm-3.372-5.748h6.821a3.6,3.6,0,0,0-.556-1.7,3.444,3.444,0,0,0-1.226-1.155,3.327,3.327,0,0,0-1.648-.417,3.288,3.288,0,0,0-1.629.417,3.365,3.365,0,0,0-1.217,1.155A3.659,3.659,0,0,0,481.367,76.54Z" transform="translate(-468.319 -71.999)" fill="url(#linear-gradient)"/>
      </g>
    </g>
  </g>
</svg>
