<svg xmlns="http://www.w3.org/2000/svg" width="204.497" height="176.189" viewBox="0 0 204.497 176.189">
  <g id="Group_15877" data-name="Group 15877" transform="translate(-83.727 -249.3)">
    <g id="Group_15871" data-name="Group 15871" transform="translate(113.214 264.888)">
      <path id="Path_72141" data-name="Path 72141" d="M73.575,0A73.575,73.575,0,1,1,0,73.575,73.575,73.575,0,0,1,73.575,0Z" fill="#807be5"/>
      <path id="Path_72140" data-name="Path 72140" d="M309.321,843.35a73.328,73.328,0,0,1-140.421,0Z" transform="translate(-165.536 -748.649)" fill="#373bbe"/>
    </g>
    <g id="Group_15870" data-name="Group 15870" transform="translate(142.813 303.073)">
      <path id="Path_72136" data-name="Path 72136" d="M891.633,928.327v2.246a2.26,2.26,0,0,0-.169.43l-3.4,19.387c-1.406,7.993-2.885,15.974-4.2,23.982a7.254,7.254,0,0,1-7.6,6.208c-24.565-.074-49.131-.036-73.7-.037-.374,0-.75.02-1.122-.013a6.126,6.126,0,0,1-4.219-2.131c-1.524-1.731-1.515-3.806-1.4-5.915a.857.857,0,0,0,.134-.24q1.517-8.587,3.025-17.174c1.57-8.94,3.108-17.885,4.721-26.818a6.566,6.566,0,0,1,6.758-5.546q35.634-.025,71.267,0c1.06,0,2.12.016,3.18-.008a6.448,6.448,0,0,1,3.225.8,7.1,7.1,0,0,1,3.5,4.829Z" transform="translate(-795.769 -901.157)" fill="#786af8"/>
      <path id="Path_72138" data-name="Path 72138" d="M795.773,902.185c-.008-.343-.021-.685-.021-1.028,0-21.64.034-43.279-.038-64.919a5.1,5.1,0,0,1,5.4-5.381c7.95.106,15.9.056,23.853.024a6.95,6.95,0,0,1,6.428,3.571c1.222,2.026,2.542,3.995,3.749,6.03a7.078,7.078,0,0,0,6.584,3.653c11.1-.022,22.2,0,33.3-.019a6.341,6.341,0,0,1,5.232,2.177,5.73,5.73,0,0,1,1.4,3.678c.013.811.013,1.621.019,2.432H810.412a6.566,6.566,0,0,0-6.759,5.546c-1.613,8.932-3.151,17.878-4.721,26.818q-1.508,8.588-3.025,17.174a.855.855,0,0,1-.134.244Z" transform="translate(-795.713 -830.856)" fill="#393cbe"/>
    </g>
    <path id="Path_72048" data-name="Path 72048" d="M1196.32,946.328c-13.558-.625-22.113-9.533-22.072-22.979q.008-2.523.008-5.045c8.862,3.816,13.375,11.773,18.187,19.361A24.037,24.037,0,0,1,1196.32,946.328Z" transform="translate(-942.61 -637.229)" fill="#f9db93"/>
    <g id="Group_15858" data-name="Group 15858" transform="translate(97.222 295.087)">
      <g id="Group_15857" data-name="Group 15857">
        <path id="Path_72114" data-name="Path 72114" d="M342.188,90.772c-.194-.406-.241-.66.51-1.018s3.9-1.809,5.269-3.459a28,28,0,0,1,6.858-5.685,6.929,6.929,0,0,1,2.881-1.153A41.426,41.426,0,0,1,362.86,83.8c.209.4-1.1.084-2.547.846s-7.242,7.476-10.018,9.041-3.593,1.825-3.88,1.648S342.761,91.974,342.188,90.772Z" transform="translate(-342.066 -79.457)" fill="#5e9659"/>
        <path id="Path_72115" data-name="Path 72115" d="M350.336,98.026a27.356,27.356,0,0,1-3.841-4.145c.038-.021.085-.046.144-.074l.106-.05c.989-.469,4-1.9,5.413-3.6a27.009,27.009,0,0,1,6.66-5.517,8.129,8.129,0,0,1,2.361-1.038c.628.421,2.749,2.2,3.924,3.256a5.7,5.7,0,0,0-1.511.533,25.493,25.493,0,0,0-3.851,3.515c-2.088,2.09-4.686,4.69-6.185,5.535a16.651,16.651,0,0,1-3.22,1.585Z" transform="translate(-345.689 -82.845)" fill="#abd6a7"/>
        <path id="Path_72116" data-name="Path 72116" d="M369.226,137.722a.976.976,0,0,1,.835-.415.7.7,0,0,1,.2.034.807.807,0,0,1,.446.915.723.723,0,0,1-.8.487.8.8,0,0,1-.245-.085C369.135,138.377,369.1,138.035,369.226,137.722Z" transform="translate(-364.232 -126.781)" fill="#5e9659"/>
        <path id="Path_72117" data-name="Path 72117" d="M344.731,137.722a.976.976,0,0,1,.835-.415.7.7,0,0,1,.2.034.807.807,0,0,1,.446.915.723.723,0,0,1-.8.487.8.8,0,0,1-.245-.085C344.64,138.377,344.6,138.035,344.731,137.722Z" transform="translate(-344.194 -126.781)" fill="#5e9659"/>
        <path id="Path_72118" data-name="Path 72118" d="M364.018,157.587a.976.976,0,0,1,.836-.415.706.706,0,0,1,.2.034.807.807,0,0,1,.446.915.723.723,0,0,1-.8.487.8.8,0,0,1-.245-.085C363.927,158.242,363.887,157.9,364.018,157.587Z" transform="translate(-359.972 -143.031)" fill="#5e9659"/>
        <path id="Path_72119" data-name="Path 72119" d="M422.458,81.6a.976.976,0,0,1,.835-.415.708.708,0,0,1,.2.034.807.807,0,0,1,.446.915.723.723,0,0,1-.8.487.8.8,0,0,1-.245-.085C422.367,82.252,422.327,81.909,422.458,81.6Z" transform="translate(-407.778 -80.868)" fill="#5e9659"/>
        <path id="Path_72120" data-name="Path 72120" d="M442.873,97.041a.977.977,0,0,1,.836-.415.708.708,0,0,1,.2.034.807.807,0,0,1,.446.915.723.723,0,0,1-.8.487.8.8,0,0,1-.245-.085C442.782,97.7,442.742,97.354,442.873,97.041Z" transform="translate(-424.478 -93.502)" fill="#5e9659"/>
        <path id="Path_72121" data-name="Path 72121" d="M418.777,97.735a.977.977,0,0,1,.836-.415.714.714,0,0,1,.2.034.807.807,0,0,1,.446.915.723.723,0,0,1-.8.487.8.8,0,0,1-.245-.085C418.686,98.389,418.646,98.047,418.777,97.735Z" transform="translate(-404.766 -94.069)" fill="#5e9659"/>
        <path id="Path_72122" data-name="Path 72122" d="M385.471,109a2.977,2.977,0,0,1,2.548-1.265,2.15,2.15,0,0,1,.6.1,2.46,2.46,0,0,1,1.36,2.791,2.205,2.205,0,0,1-2.428,1.486,2.448,2.448,0,0,1-.748-.26C385.192,111,385.07,109.957,385.471,109Z" transform="translate(-377.415 -102.592)" fill="#5e9659"/>
        <g id="Group_15856" data-name="Group 15856" transform="translate(9.118 5.942)">
          <path id="Path_72123" data-name="Path 72123" d="M394.076,112.635a.083.083,0,0,1-.021.108l-.213.169-.219.172a.086.086,0,0,1-.1,0,.145.145,0,0,0-.153-.01.493.493,0,0,0-.242.241q-.055.121.021.177.048.037.2-.03.087-.04.246-.134t.246-.134q.428-.2.616-.039.216.18.027.608a.086.086,0,0,0,.011.089q.076.091.153.179l.13.139a.1.1,0,0,1,0,.146l-.135.133a.172.172,0,0,1-.253-.013l-.129-.157a.083.083,0,0,0-.122-.007q-.029.029-.057.054a.085.085,0,0,0-.007.117l.066.08h0c.025.027.051.053.077.079a.084.084,0,0,1,0,.119l-.123.121a.2.2,0,0,1-.3-.016l-.133-.162a.083.083,0,0,0-.1-.023,1.713,1.713,0,0,1-.315.1.083.083,0,0,1-.1-.082q0-.152.014-.387a.085.085,0,0,1,.074-.079.958.958,0,0,0,.265-.077.867.867,0,0,0,.138-.078,1.427,1.427,0,0,0,.208-.166q.132-.129.089-.181t-.224.025a3.088,3.088,0,0,0-.327.185,3.092,3.092,0,0,1-.331.187q-.385.176-.53.007-.169-.192.007-.676a.084.084,0,0,0-.014-.083l-.32-.379a.084.084,0,0,1,0-.112l.239-.251a.083.083,0,0,1,.127.008l.158.212a.084.084,0,0,0,.133,0l.03-.038a.084.084,0,0,0,0-.1l-.166-.2a.084.084,0,0,1,.007-.113l.2-.192a.167.167,0,0,1,.253.027l.1.14a.082.082,0,0,0,.1.032.551.551,0,0,1,.358-.031.506.506,0,0,1,.254.182,1.147,1.147,0,0,1,.087.119Z" transform="translate(-392.175 -112.113)" fill="#abd6a7"/>
        </g>
      </g>
    </g>
    <g id="Group_15872" data-name="Group 15872" transform="translate(267.408 346.14)">
      <g id="Group_15857-2" data-name="Group 15857">
        <path id="Path_72114-2" data-name="Path 72114" d="M342.188,90.772c-.194-.406-.241-.66.51-1.018s3.9-1.809,5.269-3.459a28,28,0,0,1,6.858-5.685,6.929,6.929,0,0,1,2.881-1.153A41.426,41.426,0,0,1,362.86,83.8c.209.4-1.1.084-2.547.846s-7.242,7.476-10.018,9.041-3.593,1.825-3.88,1.648S342.761,91.974,342.188,90.772Z" transform="translate(-342.066 -79.457)" fill="#5e9659"/>
        <path id="Path_72115-2" data-name="Path 72115" d="M350.336,98.026a27.356,27.356,0,0,1-3.841-4.145c.038-.021.085-.046.144-.074l.106-.05c.989-.469,4-1.9,5.413-3.6a27.009,27.009,0,0,1,6.66-5.517,8.129,8.129,0,0,1,2.361-1.038c.628.421,2.749,2.2,3.924,3.256a5.7,5.7,0,0,0-1.511.533,25.493,25.493,0,0,0-3.851,3.515c-2.088,2.09-4.686,4.69-6.185,5.535a16.651,16.651,0,0,1-3.22,1.585Z" transform="translate(-345.689 -82.845)" fill="#abd6a7"/>
        <path id="Path_72116-2" data-name="Path 72116" d="M369.226,137.722a.976.976,0,0,1,.835-.415.7.7,0,0,1,.2.034.807.807,0,0,1,.446.915.723.723,0,0,1-.8.487.8.8,0,0,1-.245-.085C369.135,138.377,369.1,138.035,369.226,137.722Z" transform="translate(-364.232 -126.781)" fill="#5e9659"/>
        <path id="Path_72117-2" data-name="Path 72117" d="M344.731,137.722a.976.976,0,0,1,.835-.415.7.7,0,0,1,.2.034.807.807,0,0,1,.446.915.723.723,0,0,1-.8.487.8.8,0,0,1-.245-.085C344.64,138.377,344.6,138.035,344.731,137.722Z" transform="translate(-344.194 -126.781)" fill="#5e9659"/>
        <path id="Path_72118-2" data-name="Path 72118" d="M364.018,157.587a.976.976,0,0,1,.836-.415.706.706,0,0,1,.2.034.807.807,0,0,1,.446.915.723.723,0,0,1-.8.487.8.8,0,0,1-.245-.085C363.927,158.242,363.887,157.9,364.018,157.587Z" transform="translate(-359.972 -143.031)" fill="#5e9659"/>
        <path id="Path_72119-2" data-name="Path 72119" d="M422.458,81.6a.976.976,0,0,1,.835-.415.708.708,0,0,1,.2.034.807.807,0,0,1,.446.915.723.723,0,0,1-.8.487.8.8,0,0,1-.245-.085C422.367,82.252,422.327,81.909,422.458,81.6Z" transform="translate(-407.778 -80.868)" fill="#5e9659"/>
        <path id="Path_72120-2" data-name="Path 72120" d="M442.873,97.041a.977.977,0,0,1,.836-.415.708.708,0,0,1,.2.034.807.807,0,0,1,.446.915.723.723,0,0,1-.8.487.8.8,0,0,1-.245-.085C442.782,97.7,442.742,97.354,442.873,97.041Z" transform="translate(-424.478 -93.502)" fill="#5e9659"/>
        <path id="Path_72121-2" data-name="Path 72121" d="M418.777,97.735a.977.977,0,0,1,.836-.415.714.714,0,0,1,.2.034.807.807,0,0,1,.446.915.723.723,0,0,1-.8.487.8.8,0,0,1-.245-.085C418.686,98.389,418.646,98.047,418.777,97.735Z" transform="translate(-404.766 -94.069)" fill="#5e9659"/>
        <path id="Path_72122-2" data-name="Path 72122" d="M385.471,109a2.977,2.977,0,0,1,2.548-1.265,2.15,2.15,0,0,1,.6.1,2.46,2.46,0,0,1,1.36,2.791,2.205,2.205,0,0,1-2.428,1.486,2.448,2.448,0,0,1-.748-.26C385.192,111,385.07,109.957,385.471,109Z" transform="translate(-377.415 -102.592)" fill="#5e9659"/>
        <g id="Group_15856-2" data-name="Group 15856" transform="translate(9.118 5.942)">
          <path id="Path_72123-2" data-name="Path 72123" d="M394.076,112.635a.083.083,0,0,1-.021.108l-.213.169-.219.172a.086.086,0,0,1-.1,0,.145.145,0,0,0-.153-.01.493.493,0,0,0-.242.241q-.055.121.021.177.048.037.2-.03.087-.04.246-.134t.246-.134q.428-.2.616-.039.216.18.027.608a.086.086,0,0,0,.011.089q.076.091.153.179l.13.139a.1.1,0,0,1,0,.146l-.135.133a.172.172,0,0,1-.253-.013l-.129-.157a.083.083,0,0,0-.122-.007q-.029.029-.057.054a.085.085,0,0,0-.007.117l.066.08h0c.025.027.051.053.077.079a.084.084,0,0,1,0,.119l-.123.121a.2.2,0,0,1-.3-.016l-.133-.162a.083.083,0,0,0-.1-.023,1.713,1.713,0,0,1-.315.1.083.083,0,0,1-.1-.082q0-.152.014-.387a.085.085,0,0,1,.074-.079.958.958,0,0,0,.265-.077.867.867,0,0,0,.138-.078,1.427,1.427,0,0,0,.208-.166q.132-.129.089-.181t-.224.025a3.088,3.088,0,0,0-.327.185,3.092,3.092,0,0,1-.331.187q-.385.176-.53.007-.169-.192.007-.676a.084.084,0,0,0-.014-.083l-.32-.379a.084.084,0,0,1,0-.112l.239-.251a.083.083,0,0,1,.127.008l.158.212a.084.084,0,0,0,.133,0l.03-.038a.084.084,0,0,0,0-.1l-.166-.2a.084.084,0,0,1,.007-.113l.2-.192a.167.167,0,0,1,.253.027l.1.14a.082.082,0,0,0,.1.032.551.551,0,0,1,.358-.031.506.506,0,0,1,.254.182,1.147,1.147,0,0,1,.087.119Z" transform="translate(-392.175 -112.113)" fill="#abd6a7"/>
        </g>
      </g>
    </g>
    <path id="Path_72064" data-name="Path 72064" d="M1108.31,1069.72c-3.662-3.515-5.692-3.26-7.595.1-1.416,2.5-4.219,2.866-5.782.414-3.319-5.2-6.156-3.778-9.3-.07-.276.326-.847.4-2.154.979,1.059-4.02,3.472-5.617,6.415-6.655,2.493-.878,4.244.378,5.47,2.373,1.76,2.861,2.828,2.221,4.63-.2C1102.88,1062.8,1106.08,1063.54,1108.31,1069.72Z" transform="translate(-903.684 -705.984)" fill="#e7f1dd"/>
    <path id="Path_72065" data-name="Path 72065" d="M1131.09,1032.87c-.173,2.556-1.276,4.083-3.63,4.241-2.438.163-3.772-1.35-3.851-3.606a3.5,3.5,0,0,1,3.549-3.96C1129.61,1029.4,1130.69,1030.91,1131.09,1032.87Z" transform="translate(-925.939 -686.751)" fill="#ecf4e5"/>
    <path id="Path_72066" data-name="Path 72066" d="M1089.58,1037.2c-2.819-.093-4.077-1.376-4.1-3.764-.024-2.091.957-3.621,3.133-3.792a3.532,3.532,0,0,1,4.069,3.465C1092.92,1035.53,1091.33,1036.65,1089.58,1037.2Z" transform="translate(-904.786 -686.803)" fill="#f1f7ec"/>
    <path id="Path_72055" data-name="Path 72055" d="M1118.35,1188.79h17.444q.01.512.021,1.024h-17.452Q1118.35,1189.3,1118.35,1188.79Z" transform="translate(-940.081 -764.325)" fill="#8ebf5e"/>
    <path id="Path_72049" data-name="Path 72049" d="M1252.22,1024.95c-2.168-.273-3.752-1.465-3.885-3.739-.153-2.615,1.463-4.033,4.017-4.011a3.48,3.48,0,0,1,3.694,3.843C1256.03,1023.36,1254.63,1024.67,1252.22,1024.95Z" transform="translate(-988.64 -631.551)" fill="#f4813c"/>
    <path id="Path_72145" data-name="Path 72145" d="M1252.22,1024.95c-2.168-.273-3.752-1.465-3.885-3.739-.153-2.615,1.463-4.033,4.017-4.011a3.48,3.48,0,0,1,3.694,3.843C1256.03,1023.36,1254.63,1024.67,1252.22,1024.95Z" transform="translate(-1069.259 -767.892)" fill="#f4813c"/>
    <path id="Path_72051" data-name="Path 72051" d="M916.313,962.527c-2.171,0-4.341.031-6.511-.011-.778-.015-1.832.162-1.971-.972-.131-1.081.795-1.4,1.627-1.413q7.26-.083,14.52-.04c.842,0,1.777.29,1.732,1.339-.048,1.131-1.077,1.075-1.885,1.083C921.321,962.541,918.817,962.525,916.313,962.527Z" transform="translate(-824.092 -621.637)" fill="#8c8788"/>
    <g id="Group_15874" data-name="Group 15874" transform="translate(181.962 406.132)">
      <path id="Path_72143" data-name="Path 72143" d="M1112.9,1163.44c-.036-2.571.965-4.426,3.621-5.027,2.48-.561,3.994.743,5.07,2.787.186,1.44.259,2.825-1.592,3.277.133-1.56.094-3.07-1.692-3.725a2.313,2.313,0,0,0-2.706.715c-1.3,1.53-.332,2.769.588,3.995C1114.08,1166.44,1113.8,1164.43,1112.9,1163.44Z" transform="translate(-1112.902 -1158.281)" fill="#f6a874"/>
      <path id="Path_72144" data-name="Path 72144" d="M1118.77,1168.33c-.92-1.226-1.885-2.465-.588-4a2.313,2.313,0,0,1,2.706-.715c1.787.655,1.826,2.165,1.693,3.725C1122.13,1170.84,1120,1167.82,1118.77,1168.33Z" transform="translate(-1115.483 -1161.146)" fill="#faf2ce"/>
    </g>
    <g id="Group_15875" data-name="Group 15875" transform="translate(104.432 367.662)">
      <path id="Path_72143-2" data-name="Path 72143" d="M1112.9,1163.44c-.036-2.571.965-4.426,3.621-5.027,2.48-.561,3.994.743,5.07,2.787.186,1.44.259,2.825-1.592,3.277.133-1.56.094-3.07-1.692-3.725a2.313,2.313,0,0,0-2.706.715c-1.3,1.53-.332,2.769.588,3.995C1114.08,1166.44,1113.8,1164.43,1112.9,1163.44Z" transform="translate(-1112.902 -1158.281)" fill="#f6a874"/>
      <path id="Path_72144-2" data-name="Path 72144" d="M1118.77,1168.33c-.92-1.226-1.885-2.465-.588-4a2.313,2.313,0,0,1,2.706-.715c1.787.655,1.826,2.165,1.693,3.725C1122.13,1170.84,1120,1167.82,1118.77,1168.33Z" transform="translate(-1115.483 -1161.146)" fill="#faf2ce"/>
    </g>
    <g id="Group_15876" data-name="Group 15876" transform="translate(263.548 287.175)">
      <path id="Path_72143-3" data-name="Path 72143" d="M1112.9,1163.44c-.036-2.571.965-4.426,3.621-5.027,2.48-.561,3.994.743,5.07,2.787.186,1.44.259,2.825-1.592,3.277.133-1.56.094-3.07-1.692-3.725a2.313,2.313,0,0,0-2.706.715c-1.3,1.53-.332,2.769.588,3.995C1114.08,1166.44,1113.8,1164.43,1112.9,1163.44Z" transform="translate(-1112.902 -1158.281)" fill="#f6a874"/>
      <path id="Path_72144-3" data-name="Path 72144" d="M1118.77,1168.33c-.92-1.226-1.885-2.465-.588-4a2.313,2.313,0,0,1,2.706-.715c1.787.655,1.826,2.165,1.693,3.725C1122.13,1170.84,1120,1167.82,1118.77,1168.33Z" transform="translate(-1115.483 -1161.146)" fill="#faf2ce"/>
    </g>
  </g>
</svg>
