<svg id="Group_764" data-name="Group 764" xmlns="http://www.w3.org/2000/svg" width="50.258" height="50.255" viewBox="0 0 50.258 50.255">
  <path id="Path_1280" data-name="Path 1280" d="M70.286,299.3c.676-.838,1.215-1.77,1.8-2.666q7.865-11.966,15.709-23.946a1.362,1.362,0,0,1,1.285-.694q6.355.033,12.71,0a1.287,1.287,0,0,1,1.207.653q8.613,13.148,17.244,26.284c.469.714.4,1.067-.293,1.545H70.973a1.064,1.064,0,0,1-.687-.687Zm41.813-.494c-.123-.244-.2-.4-.283-.561q-4.351-8.317-8.7-16.634-1.978-3.778-3.958-7.555c-.1-.183-.151-.389-.44-.382-.719.017-1.439.007-2.159,0-.163,0-.319.024-.283.23.117.671-.308.653-.759.621a2.511,2.511,0,0,0-.49,0c-.372.047-.517-.109-.462-.472.046-.3-.085-.4-.384-.386-.637.02-1.276.024-1.913,0a.569.569,0,0,0-.6.377q-6.356,12.164-12.725,24.322c-.065.124-.177.239-.138.434h1.9c4.449,0,8.9-.005,13.347.009.406,0,.545-.1.517-.514-.035-.521-.008-1.046-.008-1.57,0-1.31,0-1.3,1.315-1.277.294.005.4.083.4.387-.018.8.018,1.6-.016,2.4-.019.441.1.573.561.571,4.923-.018,9.847-.011,14.77-.011Zm-39.417,0c.928,0,1.744,0,2.56,0,.522,0,1.149.154,1.535-.081s.535-.864.777-1.326q5.4-10.306,10.8-20.615c.528-1.008,1.052-2.019,1.594-3.059a.887.887,0,0,0-1.1.407q-7.532,11.531-15.1,23.038C73.409,297.684,73.075,298.2,72.682,298.806Zm28.21-25.093c.1.207.184.381.273.551q6.053,11.568,12.108,23.135c.242.462.392,1.091.777,1.326s1.013.077,1.535.081c.823.005,1.646,0,2.539,0-.12-.2-.187-.33-.266-.449q-7.956-12.131-15.9-24.269C101.669,273.648,101.352,273.648,100.892,273.713Z" transform="translate(-70.286 -250.223)" fill="#616afe"/>
  <path id="Path_1281" data-name="Path 1281" d="M70.286,484.389a1.064,1.064,0,0,0,.687.687C70.286,485.076,70.286,485.076,70.286,484.389Z" transform="translate(-70.286 -434.821)" fill="#ecedfe"/>
  <path id="Path_1282" data-name="Path 1282" d="M212.321,105.637a7.545,7.545,0,0,1,7.56,7.532,8.592,8.592,0,0,1-1.1,3.679,43.826,43.826,0,0,1-4.972,7.564c-.262.335-.519.675-.8.991a.815.815,0,0,1-1.349-.01,45.8,45.8,0,0,1-6.171-9.4C203.175,111.01,207.191,105.6,212.321,105.637Zm-.035,1.673a4.124,4.124,0,0,0-.918.09c-3.547.561-5.871,4.47-4.443,7.678a42.3,42.3,0,0,0,5.229,8.259c.174.229.264.138.4-.035a42.136,42.136,0,0,0,4.94-7.639,5.616,5.616,0,0,0-5.206-8.353Z" transform="translate(-187.214 -105.637)" fill="#626bfe"/>
  <path id="Path_1283" data-name="Path 1283" d="M255.712,401.868c0-.586.011-1.173,0-1.759-.007-.269.073-.364.356-.375,1.36-.053,1.36-.061,1.36,1.273,0,.847-.01,1.694.005,2.541,0,.288-.073.393-.381.4-1.336.031-1.336.042-1.335-1.3Z" transform="translate(-231.441 -361.231)" fill="#6870fe"/>
  <path id="Path_1284" data-name="Path 1284" d="M255.706,356.89c0-.441.008-.882,0-1.322-.006-.231.081-.322.315-.314.359.013.719.016,1.077,0,.271-.013.328.115.326.353-.009.881-.012,1.763,0,2.644,0,.279-.088.378-.366.361a7.116,7.116,0,0,0-.979,0c-.318.024-.388-.117-.377-.4C255.719,357.772,255.706,357.331,255.706,356.89Z" transform="translate(-231.435 -322.585)" fill="#6871fe"/>
  <path id="Path_1285" data-name="Path 1285" d="M255.739,323.869v-.049c0-1.284.157-1.408,1.475-1.2.2.03.239.121.239.288,0,.652,0,1.3,0,1.956,0,.2-.057.317-.277.3a.322.322,0,0,0-.049,0C255.739,325.248,255.739,325.248,255.739,323.869Z" transform="translate(-231.469 -294.151)" fill="#6972fe"/>
  <path id="Path_1286" data-name="Path 1286" d="M256.62,297.622c.837,0,.837,0,.837.856,0,.82,0,.82-.825.82-.886,0-.886,0-.886-.906C255.746,297.622,255.746,297.622,256.62,297.622Z" transform="translate(-231.475 -272.497)" fill="#6870fe"/>
  <path id="Path_1287" data-name="Path 1287" d="M240.081,137.89a3.308,3.308,0,0,1-3.331-3.37,3.342,3.342,0,1,1,6.684.07A3.309,3.309,0,0,1,240.081,137.89Zm.009-1.674a1.643,1.643,0,0,0,1.67-1.672,1.669,1.669,0,0,0-3.338,0A1.641,1.641,0,0,0,240.09,136.215Z" transform="translate(-214.964 -127.855)" fill="#626bfe"/>
</svg>
