<svg xmlns="http://www.w3.org/2000/svg" xmlns:xlink="http://www.w3.org/1999/xlink" viewBox="0 0 146 101"><defs><linearGradient id="a" x1="7.96" y1="36.25" x2="50.51" y2="36.25" gradientUnits="userSpaceOnUse"><stop offset="0.15" stop-color="#6069ff"/><stop offset="1" stop-color="#7f6bf6"/></linearGradient><clipPath id="b"><polygon points="28.37 85.73 28.37 87.13 11.76 87.13 11.76 60.15 28.37 60.15 28.37 85.73" fill="none"/></clipPath><linearGradient id="c" x1="77" y1="52.13" x2="82.36" y2="52.13" xlink:href="#a"/><linearGradient id="d" x1="83.93" y1="49.8" x2="106.65" y2="49.8" xlink:href="#a"/><linearGradient id="e" x1="84.35" y1="53.45" x2="99.59" y2="53.45" xlink:href="#a"/><linearGradient id="f" x1="77" y1="62.55" x2="82.36" y2="62.55" xlink:href="#a"/><linearGradient id="g" x1="83.93" y1="60.22" x2="106.65" y2="60.22" xlink:href="#a"/><linearGradient id="h" x1="84.35" y1="63.87" x2="99.59" y2="63.87" xlink:href="#a"/><linearGradient id="i" x1="77" y1="72.98" x2="82.36" y2="72.98" xlink:href="#a"/><linearGradient id="j" x1="83.93" y1="70.65" x2="106.65" y2="70.65" xlink:href="#a"/><linearGradient id="k" x1="84.35" y1="74.3" x2="99.59" y2="74.3" xlink:href="#a"/><linearGradient id="l" x1="110.73" y1="70.73" x2="103.59" y2="89.01" gradientUnits="userSpaceOnUse"><stop offset="0" stop-color="#232450"/><stop offset="1" stop-color="#2b307a"/></linearGradient></defs><title>Others</title><rect x="109.93" y="82.04" width="7.66" height="10.58" fill="#52509d"/><path d="M109.93,82V92.62h7.66V82Zm7.31,10.23h-7V82.39h7Z" fill="#312767"/><rect x="89.11" y="82.04" width="20.81" height="10.58" fill="#312767"/><rect x="90.58" y="82.04" width="0.37" height="10.58" fill="#52509d"/><rect x="92.52" y="82.04" width="0.37" height="10.58" fill="#52509d"/><rect x="94.47" y="82.04" width="0.37" height="10.58" fill="#52509d"/><rect x="96.42" y="82.04" width="0.37" height="10.58" fill="#52509d"/><rect x="98.36" y="82.04" width="0.37" height="10.58" fill="#52509d"/><rect x="100.31" y="82.04" width="0.37" height="10.58" fill="#52509d"/><rect x="102.26" y="82.04" width="0.37" height="10.58" fill="#52509d"/><rect x="104.21" y="82.04" width="0.37" height="10.58" fill="#52509d"/><rect x="106.15" y="82.04" width="0.37" height="10.58" fill="#52509d"/><rect x="108.1" y="82.04" width="0.37" height="10.58" fill="#52509d"/><rect x="113.46" y="80.53" width="0.6" height="7.27" transform="translate(197.93 -29.59) rotate(90)" fill="#312767"/><rect x="113.46" y="83.69" width="0.6" height="7.27" transform="translate(201.09 -26.43) rotate(90)" fill="#312767"/><rect x="113.46" y="86.86" width="0.6" height="7.27" transform="translate(204.25 -23.27) rotate(90)" fill="#312767"/><rect x="111.63" y="82.04" width="0.37" height="10.58" fill="#bbb4da"/><rect x="113.57" y="82.04" width="0.37" height="10.58" fill="#bbb4da"/><rect x="115.52" y="82.04" width="0.37" height="10.58" fill="#bbb4da"/><path d="M11.86,38.68S7.52,40.21,8,43.48s24.53,4.38,28.48,3.84,12-1.07,13.76-4.09c1-1.71-.76-3.27-2.47-4.3A5.72,5.72,0,0,1,45,34.76a11.63,11.63,0,0,0-1.4-4.44c-1-1.6-3.29-1.21-5.06-.59a4.27,4.27,0,0,1-4.24-.86c-2.65-2.37-7.49-5.72-11-2.45A25.28,25.28,0,0,0,18.64,32a5.39,5.39,0,0,1-3.21,2.41C14.35,34.75,13,35.8,11.86,38.68Z" fill="url(#a)"/><path d="M45.19,40.81S43.2,35,41,33.61s-4.5,1.92-4.5,1.92-1.86-3-7.61-5.81-8.74,6-8.74,6c-3.76-.2-4.64,4.28-4.64,4.28-.36-.58-2.19-1-3.75-1.33-.54.21-4.24,1.74-3.8,4.77.48,3.27,24.53,4.38,28.48,3.84s12-1.07,13.76-4.09a2,2,0,0,0-.1-2.22A11.6,11.6,0,0,0,45.19,40.81Z" fill="#bbbbf9"/><path d="M23.93,88.54c0-2.12,1.15-3.87,2.61-4.08l2.26,0v8.2l-2.26,0C25.08,92.4,23.93,90.66,23.93,88.54Z" fill="#211b3f"/><ellipse cx="28.8" cy="88.54" rx="2.91" ry="4.1" fill="#312767"/><rect x="12.9" y="86.79" width="14.92" height="2.67" fill="#52509d"/><path d="M81.05,82.63a1.57,1.57,0,0,0-1.56-1.57h0a1.57,1.57,0,0,0-1.56,1.57v.66h3.12Z" fill="#52509d"/><path d="M77.93,83.29v.83a1.56,1.56,0,0,0,1.56,1.56h0a1.56,1.56,0,0,0,1.56-1.56v-.83Z" fill="#312767"/><path d="M41.38,83.13a4,4,0,0,0-4,4h8A4,4,0,0,0,41.38,83.13Z" fill="#ad273d"/><path d="M52.68,88.54c0-2.12,1.14-3.87,2.61-4.08l2.26,0v8.2l-2.26,0C53.82,92.4,52.68,90.66,52.68,88.54Z" fill="#211b3f"/><ellipse cx="57.55" cy="88.54" rx="2.91" ry="4.1" fill="#312767"/><path d="M66.72,87.13s5.31-1.29,8.82-.57c.3.06.21-3.52.44-3.53,2.54-.06,1.47-2.63-1.93-2.91-3.72-.31-4.54-.05-4.54-.05l-2.32,1.29S64.71,85.33,66.72,87.13Z" fill="#e59b9b"/><path d="M67.76,88.54c0-2.12,1.14-3.87,2.61-4.08l2.26,0v8.2l-2.26,0C68.9,92.4,67.76,90.66,67.76,88.54Z" fill="#312767"/><ellipse cx="72.63" cy="88.54" rx="2.91" ry="4.1" fill="#52509d"/><ellipse cx="72.63" cy="88.54" rx="1.46" ry="2.33" fill="#fff"/><path d="M72.63,86.21a1,1,0,0,1,.34.06,2.37,2.37,0,0,0-1.13,2.27A2.35,2.35,0,0,0,73,90.8a.83.83,0,0,1-.34.07c-.81,0-1.47-1-1.47-2.33S71.82,86.21,72.63,86.21Z" fill="#fbe4e5"/><path d="M36.84,88.54c0-2.12,1.15-3.87,2.61-4.08l2.26,0v8.2l-2.26,0C38,92.4,36.84,90.66,36.84,88.54Z" fill="#312767"/><ellipse cx="41.71" cy="88.54" rx="2.91" ry="4.1" fill="#52509d"/><ellipse cx="41.71" cy="88.54" rx="1.46" ry="2.33" fill="#fff"/><path d="M41.71,86.21a1,1,0,0,1,.34.06,2.37,2.37,0,0,0-1.13,2.27,2.35,2.35,0,0,0,1.13,2.26.8.8,0,0,1-.34.07c-.81,0-1.46-1-1.46-2.33S40.9,86.21,41.71,86.21Z" fill="#fbe4e5"/><path d="M72.47,68.84a2.29,2.29,0,0,0-1.3-.77c-1.41-.28-13.66-.56-14.11,1a26.7,26.7,0,0,0-.71,5c-.1,3-.2,13.15-.2,13.15H66.72s.11-4.9,4.7-4.9c2.86,0,3.81,4.33,3.81,4.33h2.48a1.68,1.68,0,0,0,1.68-1.68V79.27a3.92,3.92,0,0,0-2.46-3.64l-.51-.21Z" fill="#bdbdf4"/><path d="M73.33,70.8l1.28,2.32a1.6,1.6,0,0,1-.44,2.09,1.35,1.35,0,0,1-.72.21H69.87a1.49,1.49,0,0,1-1.41-1.67A18.42,18.42,0,0,1,69,70.42a1.42,1.42,0,0,1,1.34-1.07h1a1.51,1.51,0,0,1,1.45.68A4.52,4.52,0,0,1,73.33,70.8Z" fill="#312767"/><path d="M70.71,69.75a1.57,1.57,0,0,0-1.18.44A8.4,8.4,0,0,0,69,74.26C69.27,74.93,72.08,69.72,70.71,69.75Z" fill="#52509d"/><polygon points="28.37 85.73 28.37 87.13 11.76 87.13 11.76 60.15 28.37 60.15 28.37 85.73" fill="#6d6dc6"/><rect x="11.76" y="60.15" width="17.48" height="10.31" fill="#dbc7f9"/><rect x="11.76" y="63.54" width="17.48" height="0.7" fill="#dcafd1"/><rect x="11.76" y="65.31" width="17.48" height="0.7" fill="#dcafd1"/><rect x="11.76" y="67.07" width="17.48" height="0.7" fill="#dcafd1"/><rect x="11.76" y="68.83" width="17.48" height="0.7" fill="#dcafd1"/><polygon points="13.98 62.49 29.24 62.49 29.24 60.15 11.76 60.15 11.76 70.46 13.98 70.46 13.98 62.49" fill="#43245e"/><path d="M28.37,61V86.27H12.63V61H28.37m.87-.87H11.76v27H29.24v-27Z" fill="#875ebc"/><path d="M29.19,60.15v27h8.19a4,4,0,0,1,8,0h20v-27Z" fill="#9090fc"/><rect x="33.26" y="61.33" width="0.58" height="21.8" fill="#875ebc"/><rect x="37.79" y="61.33" width="0.58" height="21.8" fill="#875ebc"/><rect x="42.32" y="61.33" width="0.58" height="21.8" fill="#875ebc"/><rect x="46.86" y="61.33" width="0.58" height="21.8" fill="#875ebc"/><rect x="51.39" y="61.33" width="0.58" height="21.8" fill="#875ebc"/><rect x="55.93" y="61.33" width="0.58" height="21.8" fill="#875ebc"/><rect x="60.46" y="61.33" width="0.58" height="21.8" fill="#875ebc"/><rect x="18.27" y="80.58" width="6.46" height="5.68" fill="#f18e4c"/><rect x="16.26" y="80.58" width="6.46" height="5.68" fill="#f7ad3f"/><rect x="19.06" y="80.58" width="0.85" height="5.68" fill="#f18e4c"/><rect x="16.89" y="81.41" width="1.37" height="0.89" fill="#ffd042"/><g clip-path="url(#b)"><rect x="26.14" y="80.58" width="6.46" height="5.68" fill="#f18e4c"/><rect x="24.13" y="80.58" width="6.46" height="5.68" fill="#736eb0"/><rect x="26.94" y="80.58" width="0.85" height="5.68" fill="#9691c6"/><rect x="24.77" y="81.41" width="1.37" height="0.89" fill="#9691c6"/><rect x="23.59" y="74.9" width="8.12" height="5.68" fill="#312767"/><rect x="21.07" y="74.9" width="8.12" height="5.68" fill="#52509d"/><rect x="24.59" y="74.9" width="1.07" height="5.68" fill="#736eb0"/><rect x="21.87" y="75.73" width="1.73" height="0.89" fill="#736eb0"/></g><path d="M22.91,92.24H144.69a17.42,17.42,0,0,1,13.08,5.87h0a1.59,1.59,0,0,1-1.24,2.64H4.86a1.26,1.26,0,0,1-.79-2.26h0A31.43,31.43,0,0,1,22.91,92.24Z" fill="#d2d2f9"/><path d="M112.49,35,95.76,28V19.38a.18.18,0,0,0-.18-.18.18.18,0,0,0-.19.18V28L74.07,35a.19.19,0,0,0-.12.24.2.2,0,0,0,.18.12h.06l19-6.28L81.25,35a.19.19,0,0,0-.08.25.18.18,0,0,0,.25.08l14.14-7,10.66,7a.17.17,0,0,0,.1,0,.18.18,0,0,0,.15-.08.18.18,0,0,0,0-.26l-9.08-6,15,6.32h.07a.18.18,0,0,0,.17-.11A.18.18,0,0,0,112.49,35Z" fill="#312767"/><rect x="102.12" y="35.19" width="10.3" height="14.23" fill="#b67fb3"/><path d="M102.12,35.19V49.42h10.3V35.19ZM112,49h-9.36V35.66H112Z" fill="#41245d"/><rect x="74.13" y="35.19" width="27.99" height="14.23" fill="#612580"/><rect x="76.1" y="35.19" width="0.49" height="14.23" fill="#b67fb3"/><rect x="78.71" y="35.19" width="0.49" height="14.23" fill="#b67fb3"/><rect x="81.33" y="35.19" width="0.49" height="14.23" fill="#b67fb3"/><rect x="83.95" y="35.19" width="0.49" height="14.23" fill="#b67fb3"/><rect x="86.57" y="35.19" width="0.49" height="14.23" fill="#b67fb3"/><rect x="89.19" y="35.19" width="0.49" height="14.23" fill="#b67fb3"/><rect x="91.81" y="35.19" width="0.49" height="14.23" fill="#b67fb3"/><rect x="94.43" y="35.19" width="0.49" height="14.23" fill="#b67fb3"/><rect x="97.04" y="35.19" width="0.49" height="14.23" fill="#b67fb3"/><rect x="99.66" y="35.19" width="0.49" height="14.23" fill="#b67fb3"/><rect x="106.87" y="33.16" width="0.8" height="9.78" transform="translate(145.32 -69.22) rotate(90)" fill="#41245d"/><rect x="106.87" y="37.42" width="0.8" height="9.78" transform="translate(149.58 -64.97) rotate(90)" fill="#41245d"/><rect x="106.87" y="41.67" width="0.8" height="9.78" transform="translate(153.83 -60.72) rotate(90)" fill="#41245d"/><rect x="104.41" y="35.19" width="0.49" height="14.23" fill="#241530"/><rect x="107.03" y="35.19" width="0.49" height="14.23" fill="#241530"/><rect x="109.64" y="35.19" width="0.49" height="14.23" fill="#241530"/><polygon points="146.51 57.5 147.26 58.83 150.63 71.83 150.88 76.32 149.03 76.32 148.91 72.15 144.19 57.5 146.51 57.5" fill="#312767"/><path d="M130.39,90.65v4.11a1.08,1.08,0,0,0,1.08,1.08h25.45A1.08,1.08,0,0,0,158,94.76V90.65a1.08,1.08,0,0,0-.15-.55l-7-11.95h0l-.08-.1,0,0-.06-.07,0,0a1.59,1.59,0,0,0-.21-.15l0,0-.08,0h0l0,0h-.09l-.13,0H138.31l-.12,0h-.1l0,0h0l-.09,0,0,0a1.49,1.49,0,0,0-.2.15l0,0a.46.46,0,0,0-.07.07l0,0a.61.61,0,0,0-.07.1h0l-7,11.95A1.08,1.08,0,0,0,130.39,90.65Zm18-10.88L144.2,91.56,140,79.77Zm7.43,13.92H145.73l4.44-12.46,5.67,9.71Zm-23.29-2.75,5.67-9.71,4.45,12.46H132.55Z" fill="#211b3f"/><path d="M134.74,59.43h7.53v5.09H140l-1.08,9.87a4.22,4.22,0,0,1-1.42,2.7h0a4.16,4.16,0,0,1-5.42,0h0a4.16,4.16,0,0,1-1.41-2.7l-1.09-9.87h-2.32V59.43Z" fill="#b67fb3"/><path d="M142.27,59.43h-6a2.93,2.93,0,0,1,1,1.66,23.84,23.84,0,0,1-.31,3s.88.66.77,2.86-1.64,3.57-2.14,5.88a30.94,30.94,0,0,0-.94,5.27,4.16,4.16,0,0,0,2.76-1h0a4.22,4.22,0,0,0,1.42-2.7L140,64.52h2.32Z" fill="#563e7b"/><ellipse cx="134.74" cy="59.43" rx="10.51" ry="1.92" fill="#b67fb3"/><polygon points="142.49 49.48 145.4 48.71 114.81 3.25 113.67 4.01 142.49 49.48" fill="#513950"/><polygon points="125.03 51.54 122.24 51.54 122.24 48.32 118.69 48.32 118.69 53.58 123.39 56.15 125.79 56.15 125.03 51.54" fill="#312767"/><rect x="127.21" y="42.38" width="3.59" height="4.29" transform="translate(258 89.05) rotate(180)" fill="#b67fb3"/><rect x="127.21" y="34.77" width="3.59" height="2.97" transform="translate(258 72.5) rotate(180)" fill="#b67fb3"/><polygon points="137.88 57.5 138.63 58.83 143.63 72.37 144.41 76.32 142.56 76.32 141.9 72.69 135.56 57.5 137.88 57.5" fill="#312767"/><rect x="128.44" y="35.07" width="4.04" height="16.47" transform="translate(260.93 86.62) rotate(180)" fill="#513950"/><rect x="129.8" y="51.54" width="3.35" height="1.68" transform="translate(262.94 104.76) rotate(180)" fill="#736eb0"/><rect x="124.11" y="51.54" width="3.35" height="1.68" transform="translate(251.57 104.76) rotate(180)" fill="#736eb0"/><rect x="140.31" y="38.27" width="3.87" height="2.81" transform="translate(54.07 158.13) rotate(-68.92)" fill="#513950"/><polygon points="142.03 39.09 141.86 39.53 141.69 39.97 133.4 37.95 125.03 34.16 125.86 32.01 134.53 35.02 142.03 39.09" fill="#513950"/><polygon points="124.11 48.32 110.32 6.75 108.62 7.29 120.13 48.32 124.11 48.32" fill="#312767"/><path d="M94.26,22.06A1.89,1.89,0,0,0,97.18,22h0a1.73,1.73,0,0,0,.37-1.11l0-1.25L115.69,3.25A.72.72,0,0,0,115.22,2l-12-.32a1.42,1.42,0,0,0-1.37.9L95.69,17.86l-1.41,1.69A1.94,1.94,0,0,0,94.26,22.06ZM113.62,3l-4.14,3.73L104.75,3ZM97.71,17.34,103,3.63l5.28,4.16Z" fill="#312767"/><rect x="116.18" y="76.32" width="34.7" height="3.55" fill="#211b3f"/><path d="M108.43,90.65v4.11a1.08,1.08,0,0,0,1.08,1.08H135A1.08,1.08,0,0,0,136,94.76V90.65a1.08,1.08,0,0,0-.15-.55l-7-11.95h0l-.08-.1,0,0-.06-.07,0,0a1.59,1.59,0,0,0-.21-.15l0,0-.08,0h0l0,0h-.09l-.13,0H116.35l-.12,0h-.1l0,0h0l-.09,0,0,0a1.49,1.49,0,0,0-.2.15l0,0a.46.46,0,0,0-.07.07l0,0a.61.61,0,0,0-.07.1h0l-7,11.95A1.08,1.08,0,0,0,108.43,90.65Zm18-10.88-4.21,11.79L118,79.77Zm7.43,13.92H123.77l4.44-12.46,5.67,9.71Zm-23.29-2.75,5.67-9.71,4.45,12.46H110.59Z" fill="#211b3f"/><polygon points="122.71 57.5 121.95 58.83 116.97 72.37 116.18 76.32 118.03 76.32 118.69 72.69 125.03 57.5 122.71 57.5" fill="#312767"/><rect x="121.95" y="48.32" width="27.03" height="10.51" transform="translate(270.94 107.15) rotate(180)" fill="#241530"/><rect x="121.95" y="48.32" width="14.31" height="10.51" transform="translate(258.22 107.15) rotate(180)" fill="#9090fc"/><path d="M37.16,80.36c.44.33,1.8.46,2.1-.39.23-.63-.3-.88-.89-.9S36.75,80.06,37.16,80.36Z" fill="#211b3f"/><rect x="34.17" y="73.86" width="5.73" height="5.57" transform="translate(-5.97 3.18) rotate(-4.55)" fill="#f18e4c"/><rect x="32.39" y="74.01" width="5.73" height="5.57" transform="translate(-5.98 3.04) rotate(-4.55)" fill="#f7ad3f"/><rect x="34.88" y="74.01" width="0.76" height="5.57" transform="translate(-5.98 3.04) rotate(-4.55)" fill="#f18e4c"/><rect x="32.84" y="74.95" width="1.22" height="0.88" transform="translate(-5.88 2.89) rotate(-4.55)" fill="#d6e6ea"/><path d="M35.62,78.8c-.75-1.16-.16-2.93-.92-3.37-2.21-1.29-5.23.58-4.6,1.82.83,1.63,2,5.11,2,5.11S36.91,80.74,35.62,78.8Z" fill="#312767"/><path d="M35.62,78.8c-.56-.93-.16-2.93-.92-3.37A3.24,3.24,0,0,0,33.17,75a7,7,0,0,0,.15,2.51c.29.71,1,2.8,1.8,3.24C35.75,80.18,36.51,80.25,35.62,78.8Z" fill="#312767"/><path d="M31.31,74a.62.62,0,0,1,.26,0c.15.06.44.68.27.89s-.95-.17-1-.38S31.31,74,31.31,74Z" fill="#312767"/><path d="M31.44,74.36l.74.74c.06.12-.11.6-.37.54-.08,0-.27-.06-.29-.2l-.17-.72Z" fill="#eb6165"/><path d="M31.52,75.41l-.08-.32.23-.3A1.29,1.29,0,0,1,31.52,75.41Z" fill="#312767"/><path d="M31.24,74.25l.41.36a.33.33,0,0,1,0,.47,1,1,0,0,1-.34.22c-.14.07-.28,0-.38-.18a2.09,2.09,0,0,1-.22-.59C30.66,74.24,31,74,31.24,74.25Z" fill="#eb6165"/><path d="M31.14,74.75a1,1,0,0,1-.25.17S31,75,31,75,31.18,74.89,31.14,74.75Z" fill="#fff"/><path d="M31.18,75.16c.12-.11.36,0,.49-.32a.39.39,0,0,0,0-.24h0a.33.33,0,0,1,0,.47,1,1,0,0,1-.34.22.23.23,0,0,1-.25,0S31.14,75.2,31.18,75.16Z" fill="#ad273d"/><path d="M31.37,74.4a.41.41,0,0,0-.05-.09c0-.06-.07-.15,0-.16s.32.3.2.4S31.4,74.48,31.37,74.4Z" fill="#eb6165"/><path d="M30.47,74.23s0,0,0-.08-.1-.45.2-.58a.74.74,0,0,1,.89.12c.13.22.07.3.07.3a2.42,2.42,0,0,1-.67.38C30.67,74.45,30.5,74.39,30.47,74.23Z" fill="#52509d"/><path d="M30.48,74.26s-.35.35-.1.41c.51.12,1-.53,1-.53S30.65,74.47,30.48,74.26Z" fill="#312767"/><path d="M36.16,87.64c-.08-.19,1.08-6.53-.06-7.93a3.41,3.41,0,0,1-2-1.91A4.47,4.47,0,0,1,33.7,75a3.84,3.84,0,0,0-.76-.08c0,.83,0,2.32-.64,2.49s-.8-1.2-1.18-2a2.23,2.23,0,0,0-.66.47s0,.06,0,.09a9.14,9.14,0,0,1,.61,3.36,9.29,9.29,0,0,1,.55,1.94c.19,1.57-.22,5.9-.13,6.33C31.7,88.87,33,93,33.34,93c1.44,0,.87-3.44.12-5.38a21.34,21.34,0,0,1,.49-3.3c.17,1,.24,3.38.27,3.54.24,1.18,1.7,5.14,2,5.14C37.67,93,36.91,89.58,36.16,87.64Z" fill="#52509d"/><path d="M36.22,93c1.45,0,.69-3.39-.06-5.33-.08-.19,1.08-6.53-.06-7.93a2,2,0,0,1-.85-.46A9,9,0,0,1,36.17,82c0,1.1-.26,1.14-.56,2.76a12.53,12.53,0,0,0,0,4.94,1.38,1.38,0,0,1-.37,1.4A5.83,5.83,0,0,0,36.22,93Z" fill="#312767"/><path d="M34.39,75.27a2.32,2.32,0,0,1,1.38.91c.63.82,2.58,2.2,2.86,3.19a1,1,0,0,1-1.59,1C33.21,77.34,34.39,75.27,34.39,75.27Z" fill="#312767"/><path d="M36.84,93.05a5,5,0,0,1-.12-.63.54.54,0,0,0-.42-.36c-.12,0-.68-.12-.76,0s.43.68.32.85-1,.44-1,.8a4.44,4.44,0,0,0,2.12,0C37.13,93.59,37,93.26,36.84,93.05Z" fill="#f7ad3f"/><path d="M33.46,87.59a21.34,21.34,0,0,1,.49-3.3,3.11,3.11,0,0,0-1,1.61c-.31,1.1-.4,1.63,0,2.36s.85,1.77.64,2.28c-.1.24-.58.44-1.07.57A5.38,5.38,0,0,0,33.34,93C34.78,93,34.21,89.53,33.46,87.59Z" fill="#312767"/><path d="M34,93.05a4.9,4.9,0,0,1-.11-.63.57.57,0,0,0-.43-.36c-.12,0-.68-.12-.75,0s.42.68.31.85-1,.44-1,.8a4.44,4.44,0,0,0,2.12,0C34.27,93.59,34.13,93.26,34,93.05Z" fill="#f7ad3f"/><path d="M31.77,78.52,33.61,78s.4,1.16-.25,1.58S31.84,79.3,31.77,78.52Z" fill="#736eb0"/><path d="M106.08,35.88s10.71,1.17,12.08-.64c0,0-1.09-3.27-4.35-3.05S106.08,35.88,106.08,35.88Z" fill="#612580"/><path d="M71.27,39.56C72.21,50.05,74.17,72.23,75,83a4.86,4.86,0,0,0,4.53,4.47c8.59.55,27.93,1.62,35.35.62h0a5,5,0,0,1-2.76-4.47l.4-48.49a2.49,2.49,0,0,1,3.32-2.35,4.11,4.11,0,0,1,2.3,2.42c-.7-2.05-1.8-3.54-4.35-3.05,0,0-25,.25-37.07,1A5.86,5.86,0,0,0,71.27,39.56Z" fill="#e2e8f6"/><path d="M77,50.46l.39,3.76a1.39,1.39,0,0,0,1.33,1.24l2.19.09a1.4,1.4,0,0,0,1.45-1.39V50.1a1.39,1.39,0,0,0-1.51-1.38l-2.58.21A1.39,1.39,0,0,0,77,50.46Z" fill="url(#c)"/><path d="M84.69,49.3l21.14-.68a.79.79,0,0,1,.82.79h0a.78.78,0,0,1-.76.78L84.76,51a.79.79,0,0,1-.81-.69v-.1A.79.79,0,0,1,84.69,49.3Z" fill="url(#d)"/><path d="M84.46,54.25h0a.35.35,0,0,0,.3.17l14.51-.32a.32.32,0,0,0,.32-.33v-1a.32.32,0,0,0-.34-.33L85.14,53A.83.83,0,0,0,84.46,54.25Z" fill="url(#e)"/><path d="M77,60.88l.39,3.76a1.4,1.4,0,0,0,1.33,1.25l2.19.08a1.39,1.39,0,0,0,1.45-1.39v-4a1.39,1.39,0,0,0-1.51-1.39l-2.58.21A1.4,1.4,0,0,0,77,60.88Z" fill="url(#f)"/><path d="M84.69,59.73,105.83,59a.8.8,0,0,1,.82.79h0a.79.79,0,0,1-.76.79l-21.13.78a.78.78,0,0,1-.81-.68v-.1A.78.78,0,0,1,84.69,59.73Z" fill="url(#g)"/><path d="M84.46,64.68h0a.37.37,0,0,0,.3.16l14.51-.31a.34.34,0,0,0,.32-.34v-.95a.33.33,0,0,0-.34-.34l-14.11.53A.83.83,0,0,0,84.46,64.68Z" opacity="0.78" fill="url(#h)"/><path d="M77,71.31l.39,3.76a1.4,1.4,0,0,0,1.33,1.24l2.19.09A1.4,1.4,0,0,0,82.36,75V71a1.39,1.39,0,0,0-1.51-1.38l-2.58.21A1.39,1.39,0,0,0,77,71.31Z" fill="url(#i)"/><path d="M84.69,70.15l21.14-.68a.79.79,0,0,1,.82.79h0a.78.78,0,0,1-.76.78l-21.13.79a.79.79,0,0,1-.81-.69V71A.79.79,0,0,1,84.69,70.15Z" fill="url(#j)"/><path d="M84.46,75.1h0a.35.35,0,0,0,.3.17L99.27,75a.32.32,0,0,0,.32-.33v-1a.34.34,0,0,0-.34-.34l-14.11.53A.83.83,0,0,0,84.46,75.1Z" fill="url(#k)"/><path d="M103.93,85.7a.77.77,0,0,1-.51-.24,3.36,3.36,0,0,1-.85-2.36l-.9,1-.17-.15c.36-.38.71-.76,1.06-1.15a24.89,24.89,0,0,1,.16-3.56,7.08,7.08,0,0,1,.52-2.18,1.72,1.72,0,0,1,.55-.73.85.85,0,0,1,.94-.06,1.18,1.18,0,0,1,.41.83,6.23,6.23,0,0,1-1,3.88,12.58,12.58,0,0,1-1.4,1.9,3.35,3.35,0,0,0,.79,2.44.51.51,0,0,0,.36.18c.18,0,.33-.18.45-.35a10,10,0,0,0,1.26-2.51,2.59,2.59,0,0,1,.22-.78l.21.07c-.06.26-.13.51-.21.76a2.43,2.43,0,0,0,0,.76c0,.13.14.57.46.63s.49-.14.77-.56l1.14-1.73-.14.62c0,.22-.14.74.17.87s.36,0,.57-.16a1.12,1.12,0,0,1,.68-.21l.12,0,0,.12c0,.06-.11.65.2.72.14,0,.25-.07.43-.23a1.14,1.14,0,0,1,.47-.31l0,.23a.9.9,0,0,0-.37.25.71.71,0,0,1-.63.28c-.35-.08-.43-.47-.4-.85a1.47,1.47,0,0,0-.42.18.89.89,0,0,1-.77.17.66.66,0,0,1-.36-.65l-.53.81c-.21.32-.55.74-1,.65a.92.92,0,0,1-.64-.81,1.06,1.06,0,0,1,0-.19,9.48,9.48,0,0,1-1.07,2,.87.87,0,0,1-.62.45Zm.4-9.35a.8.8,0,0,0-.41.13,1.59,1.59,0,0,0-.48.65,7.12,7.12,0,0,0-.49,2.11,25.49,25.49,0,0,0-.17,3.27A13.21,13.21,0,0,0,104,80.84a6.06,6.06,0,0,0,.91-3.74.85.85,0,0,0-.31-.67A.45.45,0,0,0,104.33,76.35Z" fill="url(#l)"/><path d="M105.48,44.61l-26.71.79A1.76,1.76,0,0,1,77,43.73l-.1-2a1.77,1.77,0,0,1,1.71-1.85l26.85-.71A1.76,1.76,0,0,1,107.23,41l0,1.92A1.75,1.75,0,0,1,105.48,44.61Z" fill="#fff" opacity="0.78"/><path d="M65.54,76.91s2.08,2.59,1.29,4S65,79.59,64.7,79,65.54,76.91,65.54,76.91Z" fill="#312767"/><path d="M67.19,77.74c.33.86,1,3.67-.6,3.65-1.37,0-.44-3.67-.11-4C66.63,77.26,67,77.25,67.19,77.74Z" fill="#52509d"/><path d="M61.47,81.57a2.53,2.53,0,0,0-.06-1.13c-.25-1.26-.8-3-.56-3.37a2.23,2.23,0,0,1,1.24-.87,2.66,2.66,0,0,1,.68-.1h0a4.65,4.65,0,0,1,1.59.29h0l.53.2h0c.23.1.45.21.65.32a5.78,5.78,0,0,1,0,1.75l0,.27-.21,2s.32,2.19.33,2.43c.23,5,.2,8.17-1,8.87a.59.59,0,0,1-.73,0c-.69-.6-.46-2.71-.37-3.62,0-.36.24-1.33.24-1.33a33,33,0,0,0-.34-3.85c-.33,0-.54,2.34-.82,4.13-.37,2.33-.35,4.06-1.38,4.7a1.71,1.71,0,0,1-.84,0,.11.11,0,0,1-.08,0C60.05,91.79,60.5,84.74,61.47,81.57Z" fill="#52509d"/><path d="M62.23,82.52c.16.49-.52,1.32-.54,2.26s.46.71,0,2.62c-.37,1.58,0,3.88-.52,4.92a2,2,0,0,1-.77,0,.11.11,0,0,1-.08,0c-.27-.46.16-7.34,1.11-10.56A1.94,1.94,0,0,1,62.23,82.52Z" fill="#312767"/><path d="M64.57,83.22a6.22,6.22,0,0,1,.83-1.39c.06.36.11.77.15,1.08A1.41,1.41,0,0,1,64.57,83.22Z" fill="#312767"/><path d="M61.42,81.77l0-.2a2.53,2.53,0,0,0-.06-1.13c-.25-1.26-.8-3-.56-3.37a2.23,2.23,0,0,1,1.24-.87,1.36,1.36,0,0,1,.29-.06c0,.22,0,.55,0,1,.16,2-.27,4-.81,4.54A.29.29,0,0,1,61.42,81.77Z" fill="#312767"/><path d="M63,75s-.1.83.27.85.46-.9.28-1S63,75,63,75Z" fill="#312767"/><path d="M63.27,75.31l-.18,1.06c0,.14.47.38.68.21a5.9,5.9,0,0,0,0-1Z" fill="#eb6165"/><path d="M63.75,75.57c0,.09,0,.33,0,.55a.56.56,0,0,1-.29-.12.67.67,0,0,1-.23-.41Z" fill="#312767"/><path d="M63.35,75l-.11.55a.34.34,0,0,0,.29.38,1,1,0,0,0,.41,0c.15,0,.22-.19.19-.39a1.91,1.91,0,0,0-.19-.61C63.81,74.64,63.45,74.65,63.35,75Z" fill="#eb6165"/><path d="M63.74,75.41s.28-.09.31,0,0,0-.07.07A.3.3,0,0,1,63.74,75.41Z" fill="#fff"/><path d="M64,75.71c-.17,0-.27.25-.6,0a.44.44,0,0,1-.13-.2h0a.34.34,0,0,0,.29.38,1,1,0,0,0,.41,0,.24.24,0,0,0,.18-.18S64,75.71,64,75.71Z" fill="#ad273d"/><polygon points="63.25 74.99 62.91 75.23 62.96 75.39 63.38 75.04 63.25 74.99" fill="#e8e7e7"/><path d="M63.4,75a1,1,0,0,1,.06.28c0,.08-.13.06-.17,0S63.29,75,63.4,75Z" fill="#312767"/><path d="M63.35,75.25a.26.26,0,0,1-.05-.09c0-.06-.08-.14-.15,0s.06.43.22.39S63.41,75.32,63.35,75.25Z" fill="#eb6165"/><path d="M64,74.57a.3.3,0,0,1,0-.08.52.52,0,0,0-.51-.3s-.1-.07-.15-.07c-.23,0-.25.15-.32.18s-.23.19-.2.46.09.3.09.3a2.71,2.71,0,0,0,.81-.09C64,74.88,64.1,74.72,64,74.57Z" fill="#f7ad3f"/><path d="M62.81,74.76c0-.27,0-.36.2-.46l0,0a.48.48,0,0,1,.24.11,1.55,1.55,0,0,1,.29.46s0,.11-.12.18a3.47,3.47,0,0,1-.55,0S62.83,75,62.81,74.76Z" fill="#f18e4c"/><path d="M64,74.67s.2.24-.05.34a.83.83,0,0,1-.79,0S63.92,74.93,64,74.67Z" fill="#fbcb80"/><path d="M64.14,84.37A5.71,5.71,0,0,1,64.29,87c-.16.81-.39,3.22,0,3.66a1.6,1.6,0,0,0,1.14.23,2.09,2.09,0,0,1-.78,1.35.59.59,0,0,1-.73,0c-.69-.6-.46-2.71-.37-3.62,0-.36.24-1.33.24-1.33a33,33,0,0,0-.34-3.85S63.88,83.53,64.14,84.37Z" fill="#312767"/><path d="M63.88,92.63S64,92.09,64,92a.51.51,0,0,1,.39-.33c.11,0,.63-.11.7,0s-.39.63-.29.79.93.4.93.74a4.16,4.16,0,0,1-2,0C63.62,93.13,63.74,92.82,63.88,92.63Z" fill="#f7ad3f"/><path d="M60.31,92.63s.09-.54.11-.59a.53.53,0,0,1,.39-.33c.11,0,.63-.11.7,0s-.39.63-.29.79.93.4.93.74a4.16,4.16,0,0,1-2,0C60.05,93.13,60.17,92.82,60.31,92.63Z" fill="#f7ad3f"/><path d="M61.33,81.61c0-.1.05-.65.08-1.17.27,0,.46-.57.58-.88a8.29,8.29,0,0,0,.17-3.38,1.77,1.77,0,0,1,.78-.08A15.35,15.35,0,0,0,64.33,78a4.52,4.52,0,0,0-.25-1.72,2,2,0,0,1,.67.21,9.33,9.33,0,0,1,.84,1.43c0,.57-.12,1.31-.15,1.91a8.27,8.27,0,0,0,.35,2c0,.34-.62,1.21-1.22,1.34,0,0-.34-1.75-.39-1.74s-.17,1.85-.32,1.87A3.05,3.05,0,0,1,62.39,83C61.66,82.7,61.27,82.26,61.33,81.61Z" fill="#f18e4c"/><path d="M65.79,81.88a8.27,8.27,0,0,1-.35-2c0-.6.13-1.34.15-1.91a9.33,9.33,0,0,0-.84-1.43.67.67,0,0,1-.18-.08,10.1,10.1,0,0,1,.3,1.77c0,.82.07,3.49.08,4.85C65.42,82.75,65.83,82.15,65.79,81.88Z" fill="#e95835"/><path d="M65.09,80.86a14.7,14.7,0,0,0-2,.24,10.07,10.07,0,0,1-1.69.05h0v-.09h0v-.21h0v-.12c.19,0,.42,0,.66,0a6.1,6.1,0,0,0,1.14-.14c-.1-.73-.62-3.74-.81-4.41a1.22,1.22,0,0,1,.34,0,10.29,10.29,0,0,1,.72,2.25c.06.68.15,1.68.19,2.11.34-.06.65-.13.88-.15h.2A21.47,21.47,0,0,0,64.53,77a2.16,2.16,0,0,0-.25-.64.82.82,0,0,1,.3.11,3.42,3.42,0,0,1,.35,1c.1.48.19,2.21.21,2.84a1,1,0,0,0,.31,0h0a.49.49,0,0,0,0,.12v0s0,.07,0,.1v0s0,.07,0,.1v0s0,.06,0,.08A1.63,1.63,0,0,1,65.09,80.86Z" fill="#f7ad3f"/><path d="M61.7,76.35s-2.7.89-3.64,2S57,80.4,57.9,81.2s2.72,1.83,3.25,1.18S60,80.75,59.43,80.25s0-1,.85-1.34C62.61,78.11,61.7,76.35,61.7,76.35Z" fill="#52509d"/><path d="M57.9,81.2c-.94-.8-.8-1.75.16-2.87a7.62,7.62,0,0,1,2.48-1.54.56.56,0,0,1-.28.76c-.63.25-.95.16-1.51.93a2.09,2.09,0,0,0-.53,1.72c.14.2,1,.45,1.57,1.12.34.39,1,.33,1.32.46a.49.49,0,0,1,0,.6C60.62,83,58.84,82,57.9,81.2Z" fill="#312767"/><path d="M61.15,82.14s.29-.24.45-.19.44.34.38.35-.35-.18-.35-.18a1.67,1.67,0,0,1,.28.44c0,.12-.16.17-.25.15s-.55,0-.67-.17S61.15,82.14,61.15,82.14Z" fill="#eb6165"/><path d="M67.15,77.39a.42.42,0,0,1-.36.27c-.31.06-.33-.23-.24-.35S67.15,77.39,67.15,77.39Z" fill="#eb6165"/><path d="M67.09,75.7h-.52a.21.21,0,0,0-.2.17l-.28,1.37a.21.21,0,0,0,.2.24h.5a.2.2,0,0,0,.2-.17l.3-1.36A.2.2,0,0,0,67.09,75.7Z" fill="#211b3f"/><polygon points="66.49 76.2 67.01 76.2 67.06 75.92 66.55 75.92 66.49 76.2" fill="#eb6165"/><path d="M66.82,76.53h.09a0,0,0,0,0,0,0l0-.07a.07.07,0,0,0-.06-.07h-.09a.05.05,0,0,0,0,0v.07A.05.05,0,0,0,66.82,76.53Z" fill="#f7ad3f"/><path d="M66.54,76.53h.08a.06.06,0,0,0,.06,0v-.07a.06.06,0,0,0,0-.07h-.09a.06.06,0,0,0-.06,0v.07A.06.06,0,0,0,66.54,76.53Z" fill="#f7ad3f"/><path d="M66.78,76.78h.09a.05.05,0,0,0,0,0v-.07a.05.05,0,0,0-.05-.07h-.09a0,0,0,0,0-.05,0l0,.07S66.74,76.78,66.78,76.78Z" fill="#f7ad3f"/><path d="M66.49,76.78h.09a0,0,0,0,0,0,0l0-.07s0-.07-.06-.07H66.5a.05.05,0,0,0,0,0v.07A.05.05,0,0,0,66.49,76.78Z" fill="#f7ad3f"/><path d="M67.16,75.75c0-.25,0-.51.09-.76l.06-.37a2,2,0,0,1,.11-.35h0a0,0,0,0,0,0,0,0,0,0,0,0,0,0,1.46,1.46,0,0,0-.16.36c0,.12-.07.24-.1.37s-.11.5-.15.75a.1.1,0,1,0,.2,0Z" fill="#211b3f"/><path d="M67.14,77.42s.13-.29.08-.41-.17-.3-.29-.27.12.28.12.31-.19-.26-.27-.16,0,.3,0,.36,0-.13-.07,0,0,.32.13.34A.26.26,0,0,0,67.14,77.42Z" fill="#eb6165"/><path d="M77.4,80.82c.69-.27,3.5.49,3.88.12.59-.58,1-3.61,1.78-3.32s.44,4.12-1.29,4.84a9.15,9.15,0,0,1-4,.16C76.84,82.33,76.92,81,77.4,80.82Z" fill="#211b3f"/><path d="M82.82,77.85a1,1,0,0,1,.06-.63.43.43,0,0,0,.06-.22c0-.14.15,0,.14.14s0,.17.06.09,0-.58.12-.41a.75.75,0,0,1-.08,1C83.07,77.9,82.86,78,82.82,77.85Z" fill="#eb6165"/><path d="M79.06,85.48a26.78,26.78,0,0,1-3.41.61c0,.12-.57.29-.62.43-1,3.33-.73,11.57-.73,11.57a1.91,1.91,0,0,0,1.1,0,.66.66,0,0,0,.48-.5c.39-1.73,1.24-8.89,1.39-9.46l.43,9.57a.54.54,0,0,0,.45.47,5,5,0,0,0,.82,0,.29.29,0,0,0,.23-.24C79.36,96.77,80.2,90.43,79.06,85.48Z" fill="#312767"/><path d="M74.93,80.05a.58.58,0,0,0,.37.44c.17.05.25-.54.1-.67S74.93,80.05,74.93,80.05Z" fill="#211b3f"/><path d="M73.92,82.43c.26-1.05.79-1.81,3.08-1.88a1.45,1.45,0,0,1,1.56,1.32c.21,3.12,1.16,4.94,0,5.36-1.73.62-3.73.16-3.69-.06C75.14,85.29,73.59,83.75,73.92,82.43Z" fill="#312767"/><path d="M79.08,85.55a3.89,3.89,0,0,0-.44,1.64c0,1.09.61,2.09.33,3.42s.18,3.32,0,4.33a5,5,0,0,1-1.29,2l0,.76a.54.54,0,0,0,.45.47,5,5,0,0,0,.82,0,.29.29,0,0,0,.23-.24C79.36,96.77,80.19,90.5,79.08,85.55Z" fill="#211b3f"/><path d="M75.2,80.2l.09.77c0,.1.69.13.79-.07s0-.14-.12-.22l-.5-.43Z" fill="#eb6165"/><path d="M78.39,81.45v1.28a6.19,6.19,0,0,0,.63,0A3.94,3.94,0,0,0,78.39,81.45Z" fill="#312767"/><path d="M75.56,80.33l-.28.07a.52.52,0,0,0,.3.23.46.46,0,0,0,.31,0Z" fill="#312767"/><path d="M75.24,79.88l0,.45a.27.27,0,0,0,.3.23.68.68,0,0,0,.31-.11c.11,0,.13-.18.07-.33a1.69,1.69,0,0,0-.27-.43C75.51,79.51,75.24,79.59,75.24,79.88Z" fill="#eb6165"/><path d="M78.56,81.85A18.34,18.34,0,0,0,77,80.55h0c-.29,0-.55,0-.79.06a7.93,7.93,0,0,1,.69,1.58,15,15,0,0,1-1.82-1.28,1.94,1.94,0,0,0-.49.3c.4.85,1.33,3,.88,3.62a2.46,2.46,0,0,1-.8.58,4,4,0,0,1,.19,1.76c0,.22,1.61.94,3.31.37a14.38,14.38,0,0,1,0-1.88s.48.93.78,1.5A1.94,1.94,0,0,0,79.33,86c0-.43-.34-.94-.42-1.44-.12-.83-.27-1.57-.35-2.7Z" fill="#f18e4c"/><path d="M79.33,86c0-.43-.34-.94-.42-1.44-.12-.83-.27-1.57-.35-2.7v0A18.34,18.34,0,0,0,77,80.55h0l-.5,0a3.14,3.14,0,0,0,.3.54,43.71,43.71,0,0,1,1.31,4.62.13.13,0,0,1,0-.08s.48.93.78,1.5A1.94,1.94,0,0,0,79.33,86Z" fill="#e95835"/><path d="M75.28,80.06s0,0,.1,0,.1,0,.24-.11a.43.43,0,0,1,.21-.1c0,.07.14.14.17.21s0,.35-.08.4a.79.79,0,0,1-.35.09.31.31,0,0,1-.31-.27v-.24S75.27,80.06,75.28,80.06Z" fill="#312767"/><path d="M78.82,84l-.17.06a1.1,1.1,0,0,1-.29.12c-.23-.67-.46-1.34-.7-2a5,5,0,0,0-.92-1.61l-.32,0a9.29,9.29,0,0,1,1.51,3.7,5.36,5.36,0,0,0-1,.47c-.28-.7-.54-1.41-.85-2.1A9.08,9.08,0,0,0,75,81a2.68,2.68,0,0,0-.28.18c.43.74,1.55,3.18,1.84,3.84a6.11,6.11,0,0,1-.94.42l-.82.34a3.89,3.89,0,0,1,.09.47,17.24,17.24,0,0,0,1.78-.67,17.8,17.8,0,0,1,1.85-.8,4.2,4.2,0,0,0,.43-.17Q78.86,84.3,78.82,84Z" fill="#f7ad3f"/><path d="M78.91,84.57q0-.27-.09-.57l-.17.06a1.1,1.1,0,0,1-.29.12c-.23-.67-.46-1.34-.7-2a5,5,0,0,0-.92-1.61H76.5a2.9,2.9,0,0,0,.2.38l.1.15h0l0,0a12.65,12.65,0,0,1,1.1,3.13l-.18.06c0,.21.1.42.15.61l.58-.22A4.2,4.2,0,0,0,78.91,84.57Z" fill="#f18e4c"/><path d="M75.26,80.33v0a.58.58,0,0,1,.17,0,.65.65,0,0,0,.39.08c.06,0,.06-.07.13-.09s.06-.06.08-.1c0,.12,0,.25-.11.29a.79.79,0,0,1-.35.09A.31.31,0,0,1,75.26,80.33Z" fill="#211b3f"/><path d="M75.61,80.1a.75.75,0,0,0,.2-.13s.06.07,0,.13S75.7,80.17,75.61,80.1Z" fill="#fff"/><path d="M75.28,79.71a.54.54,0,0,0,0,.26c0,.07.06.1,0,.13s-.12,0-.15-.08S75.1,79.72,75.28,79.71Z" fill="#211b3f"/><path d="M75.28,80.09l0-.06s-.09-.1-.13,0,.11.34.23.28S75.33,80.14,75.28,80.09Z" fill="#eb6165"/><path d="M74.61,81.71c1.89-1,3.25,1.67,6.9-3.52,1-1.39,1,1.21-.2,3-1.85,2.73-5.35,2.46-6.5,2.11S74.2,81.94,74.61,81.71Z" fill="#312767"/><path d="M75.12,80l-.1.28s0,.05,0,.06l.06.06.12-.43Z" fill="#e8e7e7"/><path d="M75.58,79.42l0,0a.39.39,0,0,0-.43-.06s-.09,0-.12,0-.13.17-.17.21-.1.19,0,.37.14.18.14.18a2.08,2.08,0,0,0,.53-.29C75.64,79.64,75.67,79.5,75.58,79.42Z" fill="#f7ad3f"/><path d="M74.8,79.89c-.09-.18-.1-.25,0-.37s0,0,0,0a.34.34,0,0,1,.2,0,1.34,1.34,0,0,1,.33.24.37.37,0,0,1,0,.15,2.27,2.27,0,0,1-.38.18S74.89,80.06,74.8,79.89Z" fill="#f18e4c"/><path d="M75.61,79.48s.2.11.06.25a.63.63,0,0,1-.53.25S75.61,79.69,75.61,79.48Z" fill="#fbcb80"/><path d="M76.35,89.55A20.7,20.7,0,0,1,76,92.71c-.25.72-.83.31-.64,1.53s-.3,2-1.11,2c0,1.15,0,1.9,0,1.9a1.91,1.91,0,0,0,1.1,0,.66.66,0,0,0,.48-.5c.39-1.73,1.24-8.89,1.39-9.46A2.37,2.37,0,0,0,76.35,89.55Z" fill="#211b3f"/><path d="M75.09,98.3c0-.06.11-.52.1-.56a.5.5,0,0,0-.37-.32c-.11,0-.45-.09-.51,0s0,.58-.08.73-.88.39-.88.7a3.86,3.86,0,0,0,1.86,0C75.34,98.77,75.23,98.47,75.09,98.3Z" fill="#f7ad3f"/><path d="M78.28,98.3a4.15,4.15,0,0,0,.1-.56.5.5,0,0,1,.37-.32c.11,0,.6-.1.67,0s-.37.6-.28.75.89.39.89.7a3.86,3.86,0,0,1-1.86,0C78,98.77,78.15,98.47,78.28,98.3Z" fill="#f7ad3f"/><path d="M81.71,78c-.14.36-.19,1-.3,1.22a6.27,6.27,0,0,1-.74,1.74,4.49,4.49,0,0,1-2,1.44,11.51,11.51,0,0,1-2.31.42c-1.1,0-.6,0-1.62-.22a3.19,3.19,0,0,0-.6-.09c0,.31.12.64.68.81,1.15.35,4.65.62,6.5-2.11C82.42,79.53,82.48,77.17,81.71,78Z" fill="#211b3f"/><path d="M81.73,78.16a.91.91,0,0,1,0-.63.46.46,0,0,0,.07-.22c0-.14.14,0,.13.14s0,.17.06.09,0-.57.12-.41a.74.74,0,0,1-.08,1C82,78.21,81.76,78.31,81.73,78.16Z" fill="#eb6165"/><path d="M93.91,76.23s-2.72-.29-3.35-.89-1-3.5-1.6-3.23-.62,3,.49,4.4,4,1.13,4,1.13Z" fill="#ad273d"/><path d="M95,80.67c-.22-.18-.69-.09-1.16.06a2.13,2.13,0,0,0-1.42,1.56c-.16.72-.35,1.67-.47,2.48a8.25,8.25,0,0,0-.11,1.07c0,1.44.31,6.18,1.06,6.5s1.15-.83,1.19-1A10.35,10.35,0,0,0,93.65,87,4.49,4.49,0,0,1,94,85.26C94.13,84.88,96,81.49,95,80.67Z" fill="#736eb0"/><path d="M95.26,81.89c-.31-.54-.79-1.3-.79-1.3A23.33,23.33,0,0,1,93.4,84a8,8,0,0,0-.21,3.91A42.32,42.32,0,0,1,93,92.38c.74.18,1-.88,1.06-1.08A10.35,10.35,0,0,0,93.65,87,4.49,4.49,0,0,1,94,85.26,14.13,14.13,0,0,0,95.26,81.89Z" fill="#52509d"/><path d="M93.41,77.64l.5-1.41a16.68,16.68,0,0,1-2.35-.43,3,3,0,0,0-.46,1.63A8.8,8.8,0,0,0,93.41,77.64Z" fill="#312767"/><path d="M96.31,81.51c-.59-.22-2,.64-2,.64a45.93,45.93,0,0,0,.26,5.35c.27,1.42,1.25,4.8,2,4.87s1-.82.92-1a15.17,15.17,0,0,0-1.1-4.07C96.11,86.74,97.53,82,96.31,81.51Z" fill="#736eb0"/><path d="M97.49,91.34a15.17,15.17,0,0,0-1.1-4.07c-.28-.53,1.14-5.29-.08-5.76a1.82,1.82,0,0,0-1.11.18,7.5,7.5,0,0,0,0,2.13c.25,1.87.88,3.5.64,4.38s.28,2.25.49,3.28a3.7,3.7,0,0,0,.28.89C97.48,92.42,97.52,91.55,97.49,91.34Z" fill="#52509d"/><path d="M92.66,81.57a7.7,7.7,0,0,0,.4-1.89c0-1.44-.35-3.13.66-3.41s3.58.15,3.36,1.73a14.71,14.71,0,0,0-.28,1.7c0,.51,0,1.62,0,1.75,0,.61-.75,1-1.36,1C93.92,82.47,92.55,82.18,92.66,81.57Z" fill="#52509d"/><path d="M95.83,76.43a18.87,18.87,0,0,0,0,2.12,4.32,4.32,0,0,0,.4,1.69,1.3,1.3,0,0,0,.57.49c0-.36,0-.77,0-1a14.71,14.71,0,0,1,.28-1.7C97.19,77.2,96.59,76.69,95.83,76.43Z" fill="#312767"/><path d="M92.53,81.58a5.75,5.75,0,0,0,.53-1.9c0-.27,0-.55,0-.83A14.7,14.7,0,0,1,94,76.22l.16,0h.34s-.46,1.16.13,1.28,1-1.13,1-1.13a2.81,2.81,0,0,1,.48.17,11,11,0,0,0,0,2.25A2,2,0,0,0,96.8,80c0,.55,0,1.31,0,1.42,0,.61-.45,1.16-1.23,1.43a5,5,0,0,1-1.7.1c-.23,0-.06-1.26-.25-1.31s-.44,1.15-.54,1.11A.87.87,0,0,1,92.53,81.58Z" fill="#f18e4c"/><path d="M96.84,81.45c0-.11,0-.87,0-1.42a2,2,0,0,1-.8-1.27,11,11,0,0,1,0-2.25l-.3-.11a9.07,9.07,0,0,1-.14,1.22c-.15.78-.69,3.09-.76,3.63a15.15,15.15,0,0,0,0,1.75,2.93,2.93,0,0,0,.74-.12C96.39,82.61,96.88,82.06,96.84,81.45Z" fill="#e95835"/><path d="M96.82,81.06c0-.1,0-.21,0-.33a9.89,9.89,0,0,0-1.59-.53c.16-.83.58-3.13.69-3.75l-.29-.09c-.1.55-.53,2.91-.69,3.77a12.1,12.1,0,0,0-1.52-.26,17.68,17.68,0,0,1,1-3.68h-.32a16.83,16.83,0,0,0-.93,3.63h-.07a1.53,1.53,0,0,1,0,.3A12.53,12.53,0,0,1,96.82,81.06Z" fill="#f7ad3f"/><path d="M95.61,77.62c-.11.56-.41,1.91-.61,2.83a9.5,9.5,0,0,1,1.82.61V81h0v-.16h0v-.09h0a9.89,9.89,0,0,0-1.59-.53c.16-.83.58-3.13.69-3.75h0l-.06,0h0l-.06,0h0A9.07,9.07,0,0,1,95.61,77.62Z" fill="#f18e4c"/><path d="M93.05,79.49c0,.06,0,.13,0,.19a2.6,2.6,0,0,1-.06.56,1.9,1.9,0,0,0,1.48-.4C94.8,79.47,93.82,79.45,93.05,79.49Z" fill="#312767"/><path d="M96.82,77.22c-.18-.36-1.37,0-2.25.71s-1.17.75-1.44.17c-.17-.36-.89-2.79-1.45-2.63s-1,4,1.8,4.51C95.11,80.26,97.28,78.16,96.82,77.22Z" fill="#eb6165"/><path d="M92.16,75.83a1.88,1.88,0,0,0-.52-.76c-.28-.17-.44-.1-.41,0a3.52,3.52,0,0,0,.55.83C92,76.15,92.16,75.83,92.16,75.83Z" fill="#eb6165"/><path d="M96.52,78.41c-.58.14-1.51.67-1.76.71-.42.08-1,.48-1.42.54s-.69-.37-.82-.84a3.17,3.17,0,0,0-.8-1.26c-.37-.39-.07-1-.1-1.41s-.09-.35-.15-.38c-.35.93-.39,3.8,2,4.21A3.56,3.56,0,0,0,96.52,78.41Z" fill="#ad273d"/><path d="M96.82,77.22c-.18-.36-1.37,0-2.25.71a4.23,4.23,0,0,1-.58.42,1.66,1.66,0,0,0,1.14,1.43C96.27,79.19,97.13,77.86,96.82,77.22Z" fill="#52509d"/><path d="M96.82,77.22a.28.28,0,0,0-.13-.11,2.13,2.13,0,0,0-.52.68A4.28,4.28,0,0,1,94.76,79l-.43.19a2.11,2.11,0,0,0,.8.57C96.27,79.19,97.13,77.86,96.82,77.22Z" fill="#312767"/><path d="M93.74,92.41a3.17,3.17,0,0,1-.16-.56.52.52,0,0,0-.42-.29c-.12,0-.63,0-.69,0s.33.54.25.71-.76.52-.73.85a4.1,4.1,0,0,0,1.92-.2C94.05,92.88,93.9,92.58,93.74,92.41Z" fill="#f7ad3f"/><path d="M97.31,92.51a4.41,4.41,0,0,1-.1-.58.55.55,0,0,0-.39-.33c-.11,0-.62-.11-.69,0s.27.58.17.73-.8.44-.8.77a4,4,0,0,0,1.93,0C97.57,93,97.45,92.69,97.31,92.51Z" fill="#f7ad3f"/><path d="M95.63,75.37s0,.66-.26.66-.32-.74-.17-.78S95.63,75.37,95.63,75.37Z" fill="#312767"/><path d="M95.43,75.71l-.05.77c0,.1-.68.16-.79,0s0-.15.11-.23l.48-.46Z" fill="#eb6165"/><path d="M95.08,75.86l.28,0a.51.51,0,0,1-.28.24.47.47,0,0,1-.31,0Z" fill="#312767"/><path d="M95.33,75.39l.06.44a.27.27,0,0,1-.24.29.81.81,0,0,1-.33-.05c-.12,0-.16-.16-.13-.32a1.85,1.85,0,0,1,.18-.47C95,75.08,95.27,75.1,95.33,75.39Z" fill="#eb6165"/><path d="M95,75.68s-.21-.08-.24,0,0,0,0,0A.19.19,0,0,0,95,75.68Z" fill="#fff"/><path d="M94.81,75.91c.14,0,.2.22.47.07a.36.36,0,0,0,.11-.16h0a.27.27,0,0,1-.24.29.81.81,0,0,1-.33-.05.2.2,0,0,1-.13-.15S94.77,75.91,94.81,75.91Z" fill="#ad273d"/><polygon points="95.41 75.38 95.67 75.58 95.63 75.7 95.31 75.41 95.41 75.38" fill="#e8e7e7"/><path d="M95.3,75.34a.66.66,0,0,0-.06.22c0,.06.09,0,.14,0A.12.12,0,0,0,95.3,75.34Z" fill="#312767"/><path d="M95.32,75.58l.05-.07s.07-.11.12,0-.07.34-.2.29S95.28,75.63,95.32,75.58Z" fill="#eb6165"/><path d="M94.82,75l0-.06a.4.4,0,0,1,.41-.22s.08,0,.13,0,.19.13.24.16.17.16.14.37-.09.23-.09.23a2.23,2.23,0,0,1-.64-.11C94.84,75.25,94.76,75.12,94.82,75Z" fill="#f7ad3f"/><path d="M95.78,75.22c0-.21,0-.29-.14-.37s0,0,0,0a.43.43,0,0,0-.2.07,1.28,1.28,0,0,0-.25.35s0,.09.08.15a3.55,3.55,0,0,0,.44,0S95.75,75.43,95.78,75.22Z" fill="#f18e4c"/><path d="M94.82,75.09s-.17.18,0,.27a.66.66,0,0,0,.63.07S94.89,75.3,94.82,75.09Z" fill="#fbcb80"/><path d="M89.07,72.53c.14,0,.2-.26.33-.45s.3-.2.14-.24-.24.08-.29.1,0-.08-.06-.15,0-.54-.22-.48-.28.7-.25.87S89,72.54,89.07,72.53Z" fill="#ad273d"/><text transform="translate(78.76 45.11) rotate(-2.51)" font-size="5.54" fill="#7474c4" font-family="Impact, Impact" letter-spacing="0.15em">Contract</text></svg>