<svg xmlns="http://www.w3.org/2000/svg" xmlns:xlink="http://www.w3.org/1999/xlink" width="367.015" height="262.143" viewBox="0 0 367.015 262.143">
  <defs>
    <clipPath id="clip-path">
      <path id="Path_2083" data-name="Path 2083" d="M172.786,45.5a75.641,75.641,0,0,0-15.69,2.764,31.512,31.512,0,0,0-10.238,4.919c-4.935,3.779-6.884,8.579-5.931,14.37a26.872,26.872,0,0,0,3.88,9.658,70.123,70.123,0,0,0,12.224,14.31c.366.342.723.69,1.254,1.2-.5.095-.746.162-1,.187A83.624,83.624,0,0,0,136.8,97.517c-12.73,4.67-23.008,12.086-30.434,22.627a61.072,61.072,0,0,0-10.878,31.646,79.7,79.7,0,0,0,1.055,19.528,106.1,106.1,0,0,0,7.667,24.688,140.727,140.727,0,0,0,22.154,34.46,167.534,167.534,0,0,0,19.269,19c4.54,3.818,9.087,7.733,14.219,10.792,101.856,60.716,220.8,30.787,257.22-7.193,13.64-14.226,18.955-31.359,17.241-50.186a79.363,79.363,0,0,0-6.414-24.225,121.229,121.229,0,0,0-18.081-29,195.069,195.069,0,0,0-35.347-32.891A292.576,292.576,0,0,0,315.094,83.3c-6.709-2.851-13.567-5.42-20.4-8.018-7.609-2.891-15.205-5.829-22.924-8.462C246.434,57.5,216.18,44.849,184.84,44.85a109.829,109.829,0,0,0-12.054.652" transform="translate(-95.301 -44.85)" fill="none"/>
    </clipPath>
    <clipPath id="clip-path-2">
      <path id="Path_2106" data-name="Path 2106" d="M350.086,248.115c-1.3.757-2.756,1.737-4.26,1.656a11.966,11.966,0,0,1-3.106-.922c-1.023-.388-2.065-.8-3.019-1.127-4.065-1.4-8.072-2.858-11.437-2.781a7.572,7.572,0,0,0-4.47,1.565,4.484,4.484,0,0,0-1.067,5.031,7.749,7.749,0,0,0,2.788,3.442c2.8,2.072,6.417,3.483,9.838,5.228a26.987,26.987,0,0,0,5.128,2.342,12.177,12.177,0,0,0,4.574.11,23.967,23.967,0,0,0,4.084-.947c4.272-1.229,14.412-8.089,18.829-13.215-2.088-2.679-3.962-5.44-6.352-8C357.7,242.787,354.067,245.8,350.086,248.115Z" transform="translate(-322.389 -240.492)" fill="none" clip-rule="evenodd"/>
    </clipPath>
    <clipPath id="clip-path-3">
      <path id="Path_2109" data-name="Path 2109" d="M316.892,381.625a16.175,16.175,0,0,1,7.386,4.364,9.71,9.71,0,0,1,1.775,2.122c-.212-.079-.521-.055-.744-.122-1.659,3.4-3.493,6.431-5.038,9.941a37.305,37.305,0,0,0-1.89,5.637c-.512,1.941-.875,4-1.489,6.061a37.343,37.343,0,0,1-2.232,5.273c-1.623,3.417-2.456,7.5-3.779,11.274-.659,1.881-1.2,3.823-1.718,5.759h-4.179a94.115,94.115,0,0,0,3.778-10.426c.485-1.893.74-3.93,1.2-5.94.442-1.924.948-3.858,1.259-5.819a27.967,27.967,0,0,1,1.488-5.638,24.24,24.24,0,0,0,1.6-5.454c.439-3.244.417-6.321.572-9.82.025-.553.09-1.112.116-1.7a10.488,10.488,0,0,1,.057-1.7,9.146,9.146,0,0,1,.859-1.818C316.246,382.966,316.538,382.242,316.892,381.625Z" transform="translate(-304.984 -381.625)" fill="#995a2b" clip-rule="evenodd"/>
    </clipPath>
    <clipPath id="clip-path-4">
      <path id="Path_2111" data-name="Path 2111" d="M290.178,432.2H286a50.1,50.1,0,0,0-1.031-5.879,19.207,19.207,0,0,0-2-4.788c-.8-1.271-1.858-2.587-2.863-3.879a10.958,10.958,0,0,1-2.461-4.3,17.407,17.407,0,0,1,.344-4.547,28.052,28.052,0,0,0-.459-8.608,15.247,15.247,0,0,1-.572-4.788,13.139,13.139,0,0,1,.973-3.456c.857-2.11,1.672-3.908,2.52-6.243.355-.978.79-2.5,1.374-2.97.826-.667,2.7-.435,4.123-.363,1.682.084,3.486.183,5.438.183.661,0,2.325-.146,2.634.181.579.614-.168,2.087-.344,2.849-.12.524-.129,1.046-.228,1.516a20.181,20.181,0,0,1-3.722,8.3,28.757,28.757,0,0,1-3.436,3.395,12.121,12.121,0,0,0-3.149,3.636c-.68,1.574-.377,4.122-.286,6.183.094,2.134-.107,4.551.458,6.3a24.535,24.535,0,0,0,1.832,3.456,35.219,35.219,0,0,1,1.659,3.637c1,2.585,1.463,5.668,2.463,8.122A7.251,7.251,0,0,1,290.178,432.2Z" transform="translate(-276.908 -382.279)" fill="none" clip-rule="evenodd"/>
    </clipPath>
    <clipPath id="clip-path-5">
      <path id="Path_2118" data-name="Path 2118" d="M327.909,294.284a54.577,54.577,0,0,1,4.122,10.122,31.677,31.677,0,0,1,1.146,12.729,20.43,20.43,0,0,1-4.122,10.061,21.405,21.405,0,0,1-6.7,5.577,5.617,5.617,0,0,0-1.088.607,6.172,6.172,0,0,0-.572,1.091,26.863,26.863,0,0,1-5.039,6.3,25.693,25.693,0,0,1-7.442,5.455c.212,4.4-.051,8.859.63,12.669.685,3.838,2.016,7.008,2.4,10.729.225,2.155.195,4.191.516,6.121.307,1.852.768,3.6,1.144,5.395.394,1.882.636,3.764,1.031,5.576.383,1.757.951,3.4,1.375,5.152-1.222.142-2.691.02-4.009.061-.69-4.248-.836-8.513-1.946-12.305-.533-1.82-1.251-3.54-1.718-5.334-.249-.958-.437-1.863-.744-2.788-.293-.881-.611-1.769-.86-2.668-.572-2.071-.781-4.082-1.144-6a21.784,21.784,0,0,0-1.775-5.273c-1.519-3.251-3.031-6.23-4.58-9.456-2.905.173-5.838.208-8.76.424a76.775,76.775,0,0,1-8.589.425c-5.705-.209-12.659,1.425-16.259-1.637-1.962,3.977-4.124,7.613-7.616,10.184a15.735,15.735,0,0,1-6.126,2.606c-2.339.494-5.272.5-6.87,1.819-1.547,1.279-1.987,4.164-2.576,6.425a16.766,16.766,0,0,1-2.863,6.061c-1.308,1.659-2.789,3.121-3.319,5.576a19.661,19.661,0,0,0-.4,4.122,16.165,16.165,0,0,0,.344,4.182,6.715,6.715,0,0,0,1.087,1.637,4.244,4.244,0,0,1,.688,2c-1.375-.04-2.9.079-4.18-.061a66.439,66.439,0,0,1-.916-11.334,7.877,7.877,0,0,1,1.259-4.789c1.542-2.273,3.732-4.3,4.465-7.516.724-3.172.323-7.811.458-11.638.1-2.724.249-5.691,2.176-6.667a11.411,11.411,0,0,1,3.722-.606,6.5,6.5,0,0,0,3.263-1.091,37.741,37.741,0,0,0-.057-8.971,54.117,54.117,0,0,1-.229-9.032,22.436,22.436,0,0,1,5.668-13.032,36.991,36.991,0,0,1,4.695-4.546,39.645,39.645,0,0,0,4.867-4.365c2.745-3.191,5.065-7.249,8.13-10.425a28.134,28.134,0,0,1,5.038-4.182,14.224,14.224,0,0,1,6.584-2.546,11.748,11.748,0,0,1,7.1,2,32.7,32.7,0,0,1,5.038,4.181c3.1,2.928,6.224,5.983,9.5,8.972a45.32,45.32,0,0,0,5.1,4.121,16.4,16.4,0,0,0,2.92,1.637c1.089.451,2.919,1.036,4.009.727,1.624-.461,2.253-3.114,2.4-5.273a46.762,46.762,0,0,0-.228-7.4c-.109-1.173-.277-2.349-.458-3.455a26.558,26.558,0,0,0-.63-3.212c-.577-1.919-1.892-3.59-1.718-5.94a10.136,10.136,0,0,1-5.725-3.394c-.406-.534-1.066-1.254-.745-2.122.092-.017.149-.135.286-.121a16.941,16.941,0,0,1,3.494,1.211c.793.314,1.615.676,2.461,1.031.485.2.831.534,1.088.243a2.072,2.072,0,0,1,1.031-.788,12.623,12.623,0,0,1,2.576-.3c4.379-.27,8.857-.425,13.455-.607a11.954,11.954,0,0,1,4.981.667c1.284.645,2.021,2.033,2.92,3.455.556.876,1.794,2.279,1.6,3.455-.222,1.369-1.863,1.657-3.608,1.516-1.98-.163-3.547-1.283-5.324-.607C331.627,291.938,330.521,293.948,327.909,294.284Z" transform="translate(-232.178 -281.857)" fill="none" clip-rule="evenodd"/>
    </clipPath>
    <clipPath id="clip-path-6">
      <path id="Path_2133" data-name="Path 2133" d="M302.293,238.795c.6-.068.885.911,1.562,1.3.649.366,2.376.277,2.674.948.773,1.739,1.024,4.537,1.088,7.335.184,8.165-.434,16.625-.859,24.246-.222,3.987-.572,7.8-1.145,11.516-.919,5.961-3.394,10.369-6.126,14.548-2.136,3.266-4.482,6.47-6.927,9.576-2.422,3.076-5.059,5.927-7.616,8.79-2.519,2.821-5.282,5.559-8.129,8.3a77.874,77.874,0,0,1-6.412,5.879c-.968.748-1.8,1.474-2.748,1.273-1.3-.275-1.548-2.645-1.775-4.486-.6-4.883-1.453-8.876-1.946-13.88a10.359,10.359,0,0,1,.057-3.334,5.836,5.836,0,0,1,.973-1.758c.343-.481,1.009-1.1,1.088-1.637a7.728,7.728,0,0,0-.114-1.273c-.088-1.271-.16-2.67-.229-3.94-.121-2.19-.326-4.741.4-6.3a18.314,18.314,0,0,1,2-3.03c2.013-2.775,4.328-5.884,6.527-8.426,2.3-2.655,4.714-5.2,6.985-7.941a26.589,26.589,0,0,0,2.119-2.849,15.432,15.432,0,0,0,.916-2.91c.766-2.509,1.459-5.16,2.289-7.7,1.659-5.066,3.331-9.827,5.382-14.486,1.327-3.012,2.7-6.082,5.267-7.881A10.415,10.415,0,0,1,302.293,238.795Z" transform="translate(-263.828 -238.791)" fill="none" clip-rule="evenodd"/>
    </clipPath>
    <clipPath id="clip-path-7">
      <path id="Path_2141" data-name="Path 2141" d="M335.562,265.263c-1.251-.951-2.779-1.961-3.32-3.456a12.827,12.827,0,0,1-.4-3.394c-.052-1.152-.091-2.331-.173-3.394-.34-4.52-.741-8.944-2.06-12.244a7.215,7.215,0,0,0-3.322-3.7,4.549,4.549,0,0,0-5.209,1.031,8.13,8.13,0,0,0-2.118,4.121c-.816,3.566-.667,7.66-.917,11.7a29.023,29.023,0,0,0-.114,5.94,13.129,13.129,0,0,0,1.775,4.486,25.614,25.614,0,0,0,2.577,3.576c2.922,3.642,13.592,10.668,20.268,12.85,1.684-3.128,3.531-6.08,4.982-9.456C343.742,270.463,339.4,268.175,335.562,265.263Z" transform="translate(-317.803 -238.637)" fill="none" clip-rule="evenodd"/>
    </clipPath>
  </defs>
  <g id="Group_1987" data-name="Group 1987" transform="translate(-48.607 -24.492)">
    <path id="Path_2073" data-name="Path 2073" d="M158.286,92.842c-.532-.508-.889-.857-1.255-1.2a70.141,70.141,0,0,1-12.223-14.311,26.825,26.825,0,0,1-3.88-9.657c-.954-5.791,1-10.592,5.93-14.371A31.5,31.5,0,0,1,157.1,48.386a75.675,75.675,0,0,1,15.69-2.764,122.159,122.159,0,0,1,16.409-.339c21.476.327,54.789,10.161,82.573,21.661,7.72,2.634,15.315,5.572,22.925,8.462,6.836,2.6,13.692,5.167,20.4,8.018a292.606,292.606,0,0,1,59.379,33.459,195.031,195.031,0,0,1,35.348,32.891,121.285,121.285,0,0,1,18.08,29A79.362,79.362,0,0,1,434.317,203c1.715,18.827-3.989,35.6-17.241,50.186-2.241,2.469-164.345,7.692-251.14,7.692-1.546,0-3.093.021-4.636-.043a2.87,2.87,0,0,1-1.443-.455c-4.893-3.429-9.678-6.975-14.219-10.792a167.387,167.387,0,0,1-19.269-19,140.74,140.74,0,0,1-22.155-34.459,106.167,106.167,0,0,1-7.666-24.689,79.7,79.7,0,0,1-1.055-19.528,61.084,61.084,0,0,1,10.878-31.646c7.427-10.541,17.7-17.957,30.433-22.627a83.67,83.67,0,0,1,20.483-4.607c.253-.025.5-.093,1-.187" transform="translate(-19.006 -8.405)" fill="#807be5"/>
    <g id="Group_1938" data-name="Group 1938" transform="translate(48.607 24.492)">
      <path id="Path_2074" data-name="Path 2074" d="M389.947,70.88a46.389,46.389,0,1,0,46.388-46.388A46.389,46.389,0,0,0,389.947,70.88" transform="translate(-187.54 -24.492)" fill="#efa954" fill-rule="evenodd"/>
      <g id="Group_1919" data-name="Group 1919" transform="translate(0 0.001)">
        <path id="Path_2075" data-name="Path 2075" d="M109.777,233.4c-.7.648-2.072.432-3.462.432-17.126,0-34.025.107-51.422.107-1.589,0-6.424.219-6.283-1.293.085-.909,3.4-.935,4.617-1.293,2.337-.686,4.356-2.584,7.052-2.8a13.051,13.051,0,0,1,4.1.538c.987.248,2.746,1.044,3.72.862,1.262-.237,1.182-2.285,1.922-3.34a5.568,5.568,0,0,1,5.258-1.723c2.856.457,5.928,2.251,9.105,3.447A46.152,46.152,0,0,0,89,229.953a17.445,17.445,0,0,0,5.642.754c1.856-.175,3.376-1.332,5.258-1.4a13.588,13.588,0,0,1,5.77,1.508c.817.339,1.681.712,2.437,1.077.653.315,1.812.632,1.667,1.507" transform="translate(-48.607 -106.025)" fill="#fff" fill-rule="evenodd"/>
        <path id="Path_2076" data-name="Path 2076" d="M267.361,95.394a7.537,7.537,0,0,1-1.994.186c-3.362.091-7.032.031-10.3.092-1.115.021-2.246.088-3.324.093-10.142.052-20.853.28-30.69.28-1.744,0-3.568.286-5.207.186-.854-.052-3.459-.579-3.545-1.3-.2-1.677,4.4-1.051,5.207-1.676.315-.942-1.02-1.414-.664-2.233.326-.751,2.486-.768,3.656-.652,2.922.291,4.969,1.038,7.533,1.49,1.254.221,2.983.583,3.768-.093-.133-1.223-1.4-1.922-2.326-2.514-2.01-1.28-4.084-2.113-6.315-3.537-.9-.574-2.182-1.586-2.106-2.607.114-1.528,3.073-2.087,5.318-2.233a30.768,30.768,0,0,1,5.206.372,56.388,56.388,0,0,1,13.075,2.979,40.516,40.516,0,0,1,10.3,5.4c.938.7,2.021,1.788,3.1,2.048,2.355.566,3-.635,5.207-.651,2.914-.022,4.909,2.2,4.1,4.375" transform="translate(-115.23 -47.431)" fill="#fff" fill-rule="evenodd"/>
        <path id="Path_2077" data-name="Path 2077" d="M462.274,109.346A46.39,46.39,0,1,0,397.8,96.715Z" transform="translate(-187.539 -24.493)" fill="#efa954" fill-rule="evenodd"/>
        <path id="Path_2078" data-name="Path 2078" d="M460.762,216.391c-.248-1.809,2.3-3.3,4.219-3.449a10.875,10.875,0,0,0,2.729-.237c1.876-.654,2.626-3.078,4.456-3.85,1.369-.578,2.945-.064,4.272.6a11.14,11.14,0,0,0,4.121,1.6c1.289.082,2.689-.4,3.817.234.841.47,1.281,1.438,2.056,2.01a4.909,4.909,0,0,0,2.688.729,7.561,7.561,0,0,1,2.77.452,2.188,2.188,0,0,1,1.388,2.223Z" transform="translate(-216.356 -99.43)" fill="#fff"/>
        <path id="Path_2079" data-name="Path 2079" d="M524.5,89.82c-.688.776-2,.549-2.881.569-7.973.187-16.669,0-24.925,0-25.645,0-51.934.143-77.992.143a38.768,38.768,0,0,1-6.443-.143c.111-2.286,3.835-3.086,6.271-3.418a67.7,67.7,0,0,1,9.835-.427c6.531.131,13.649,1.491,19.328,1,4.54-.4,6.753-3.759,11.36-4.131a16.812,16.812,0,0,1,5.425.712c1.391.349,3.652,1.376,4.916,1.14,1.727-.323,1.411-2.8,2.543-4.415,1.057-1.506,3.757-2.788,6.955-2.279a28.166,28.166,0,0,1,6.273,2.136c3.8,1.606,7.387,3.391,11.867,4.558a22.621,22.621,0,0,0,7.461,1c2.5-.236,4.324-1.756,6.949-1.851,2.96-.109,5.388,1.063,7.63,1.994,1.094.454,2.194.927,3.221,1.424.837.4,2.41.841,2.205,1.994" transform="translate(-196.623 -46.457)" fill="#fff" fill-rule="evenodd"/>
      </g>
      <g id="Group_1924" data-name="Group 1924" transform="translate(27.689 12.072)">
        <g id="Group_1923" data-name="Group 1923" clip-path="url(#clip-path)">
          <g id="Group_1922" data-name="Group 1922" transform="translate(-22.6 47.28)">
            <g id="Group_1920" data-name="Group 1920">
              <path id="Path_2080" data-name="Path 2080" d="M373.057,159.691V161.1c-97.678.321-217.856.567-315.869.754v-3.487c8.208-2.259,28.59-.768,37.091-.188,3.028.206,6.382.424,9.073-.189a8.577,8.577,0,0,0,3.4-1.7c1.315-1.091,1.977-2.606,3.062-3.581,1.45-1.3,4.234-1.995,7.145-1.6,3.178.429,6.466,2.551,9.98,2.168,2.126-.232,3.07-1.455,4.65-1.979,6.057-2.011,13.669.324,18.6,2.167,2.595.971,5.212,2.1,8.165,2.923,6.008,1.676,12.684,2.052,20.414,2.356s15.421.777,20.755-1.6c2.474-1.1,4.571-2.929,4.877-5.655a12.879,12.879,0,0,0-.794-5.09,39.791,39.791,0,0,1-1.134-4.807,9.5,9.5,0,0,1,2.836-8.86c2.127-1.982,5.429-3.4,10.094-3.111a19.84,19.84,0,0,1,5.33,1.321c1.753.629,3.487,1.521,5.444,1.131,2.588-.517,2.464-3.409,3.515-5a5.414,5.414,0,0,1,3.4-2.262,12.554,12.554,0,0,1,7.826,1.131c2.568,1.2,4.359,2.976,6.465,4.618a47.341,47.341,0,0,0,6.691,4.524,98.047,98.047,0,0,0,16.219,6.6,106.563,106.563,0,0,0,19.054,4.242c3.327.435,7.485.83,10.32,1.509a39.692,39.692,0,0,1,4.424,1.319c1.319.473,3.561,1.426,3.515,2.167-.08,1.334-4.163,1.364-3.969,3.111.066.6,1.378,1.264,2.268,1.507,3.734,1.024,7.689-.354,10.433-1.037a47.688,47.688,0,0,1,6.694-1.32,22.646,22.646,0,0,1,7.6.378c2.5.7,5.223,3.318,8.279,3.865a28.793,28.793,0,0,0,6.125.093c6.725-.265,23.232.873,28.017,2.169" transform="translate(-57.188 -124.583)" fill="#fff" fill-rule="evenodd"/>
            </g>
            <g id="Group_1921" data-name="Group 1921" transform="translate(33.753 65.318)">
              <path id="Path_2081" data-name="Path 2081" d="M444.36,361.717H114.11V332.985c3.368-1.3,6.689-2.374,10.155-3.385,3.493-1.02,7.051-1.991,10.65-2.89,14.373-3.59,29.478-6.555,42.354-11.724a127.545,127.545,0,0,0,17.916-9.164c8.644-5.143,16.159-10.975,26.337-14.2,10.3-3.265,22.541-4.54,35.42-5.2,4.22-.217,8.48-.511,12.715-.826a101.672,101.672,0,0,0,12.136-1.4,52.683,52.683,0,0,0,19.32-7.678c5.41-3.573,9.851-8.027,14.283-12.8,4.361-4.694,8.741-9.688,13.706-13.375a70.5,70.5,0,0,1,17.668-9.412,95.076,95.076,0,0,1,21.962-5.036,221.825,221.825,0,0,1,25.925-1.156c17.655,0,33.3,2.32,49.454,4.541h.165C444.469,279.923,444.3,320.933,444.36,361.717Z" transform="translate(-114.11 -234.736)" fill="#efa954" fill-rule="evenodd"/>
              <path id="Path_2082" data-name="Path 2082" d="M444.36,419.263H114.11V379.792c6.184-2.847,13.519-4.09,21.219-4.871,7.792-.792,16-1.61,24.191-1.982,16.686-.757,33.567-1.211,48.3-3.963,7.44-1.391,14.316-3.151,19.567-6.523,7.786-5,13.756-13.013,26.75-12.467a94.057,94.057,0,0,1,11.559,1.486c7.49,1.278,14.522,3.267,22.127,4.046,17.018,1.743,33.7-.7,44.914-6.192,5.8-2.837,10.385-6.98,14.861-11.228,4.45-4.223,8.543-8.847,13.21-12.962,14.107-12.44,31.5-20.5,56.8-21.631a209.589,209.589,0,0,1,26.586.66c.018.065.069.1.165.083Z" transform="translate(-114.11 -262.658)" fill="#ffecca" fill-rule="evenodd"/>
            </g>
          </g>
        </g>
      </g>
      <g id="Group_1937" data-name="Group 1937" transform="translate(287.677 67.212)">
        <g id="Group_1926" data-name="Group 1926" transform="translate(56.322 43.157)">
          <path id="Path_2084" data-name="Path 2084" d="M645.681,245.15H628.739V210.619l16.942,8.658Z" transform="translate(-628.732 -210.619)" fill="#dd8e37"/>
          <g id="Group_1925" data-name="Group 1925" transform="translate(0 7.986)">
            <rect id="Rectangle_1114" data-name="Rectangle 1114" width="3.756" height="24.833" transform="translate(15.021)" fill="#ffecca"/>
            <rect id="Rectangle_1115" data-name="Rectangle 1115" width="3.755" height="24.833" transform="translate(7.51)" fill="#ffecca"/>
            <rect id="Rectangle_1116" data-name="Rectangle 1116" width="3.755" height="24.833" fill="#ffecca"/>
            <rect id="Rectangle_1117" data-name="Rectangle 1117" width="18.776" height="18.927" transform="translate(0 15.302)" fill="#ffecca"/>
          </g>
        </g>
        <g id="Group_1929" data-name="Group 1929" transform="translate(0 35.763)">
          <g id="Group_1928" data-name="Group 1928">
            <path id="Path_2085" data-name="Path 2085" d="M536.838,206.808v25.873H553.78V198.149" transform="translate(-535.005 -198.149)" fill="#dd8e37"/>
            <g id="Group_1927" data-name="Group 1927" transform="translate(0 8.133)">
              <rect id="Rectangle_1118" data-name="Rectangle 1118" width="3.755" height="24.832" transform="translate(15.021)" fill="#ffecca"/>
              <rect id="Rectangle_1119" data-name="Rectangle 1119" width="3.755" height="24.832" transform="translate(7.511)" fill="#ffecca"/>
              <rect id="Rectangle_1120" data-name="Rectangle 1120" width="3.755" height="24.832" fill="#ffecca"/>
              <rect id="Rectangle_1121" data-name="Rectangle 1121" width="18.776" height="26.175" transform="translate(0 15.302)" fill="#ffecca"/>
            </g>
          </g>
        </g>
        <g id="Group_1932" data-name="Group 1932" transform="translate(37.552 15.302)">
          <g id="Group_1930" data-name="Group 1930">
            <rect id="Rectangle_1122" data-name="Rectangle 1122" width="18.776" height="35.841" fill="#dd8e37"/>
            <path id="Path_2086" data-name="Path 2086" d="M610.448,187.894c.083-.966.6-3.424,1.388-3.424s1.3,2.458,1.39,3.424c.222,2.536,0,10.218,0,10.218h-2.778C610.235,190.6,610.215,190.6,610.448,187.894Z" transform="translate(-602.45 -172.12)" fill="#ffecca" fill-rule="evenodd"/>
          </g>
          <g id="Group_1931" data-name="Group 1931" transform="translate(0 35.841)">
            <rect id="Rectangle_1123" data-name="Rectangle 1123" width="18.776" height="34.229" fill="#ffecca"/>
          </g>
        </g>
        <g id="Group_1936" data-name="Group 1936" transform="translate(18.776)">
          <g id="Group_1934" data-name="Group 1934">
            <g id="Group_1933" data-name="Group 1933">
              <rect id="Rectangle_1124" data-name="Rectangle 1124" width="3.755" height="24.834" transform="translate(15.021)" fill="#ffecca"/>
              <rect id="Rectangle_1125" data-name="Rectangle 1125" width="3.756" height="24.834" transform="translate(7.511)" fill="#ffecca"/>
              <rect id="Rectangle_1126" data-name="Rectangle 1126" width="3.756" height="24.834" fill="#ffecca"/>
              <rect id="Rectangle_1127" data-name="Rectangle 1127" width="18.777" height="35.841" transform="translate(0 15.302)" fill="#ffecca"/>
            </g>
            <path id="Path_2087" data-name="Path 2087" d="M578.832,187.894c.083-.966.6-3.424,1.389-3.424s1.3,2.458,1.389,3.424c.222,2.536,0,10.218,0,10.218h-2.778S578.614,190.431,578.832,187.894Z" transform="translate(-570.833 -156.818)" fill="#dd8e37" fill-rule="evenodd"/>
          </g>
          <g id="Group_1935" data-name="Group 1935" transform="translate(0 51.144)">
            <rect id="Rectangle_1128" data-name="Rectangle 1128" width="18.777" height="34.229" fill="#dd8e37"/>
            <path id="Path_2088" data-name="Path 2088" d="M578.832,243.737c.083-.964.6-3.423,1.389-3.423s1.3,2.46,1.389,3.423c.222,2.539,0,10.219,0,10.219h-2.778S578.614,246.276,578.832,243.737Z" transform="translate(-570.833 -230.691)" fill="#ffecca" fill-rule="evenodd"/>
          </g>
        </g>
      </g>
    </g>
    <g id="Group_1943" data-name="Group 1943" transform="translate(275.757 91.351)">
      <g id="Group_1939" data-name="Group 1939">
        <path id="Path_2089" data-name="Path 2089" d="M402.955,155.659H385.919a5.245,5.245,0,0,0-5.245,5.245V175.73a5.245,5.245,0,0,0,5.245,5.245h6.738l1.78,4.681,1.78-4.681h6.737a5.245,5.245,0,0,0,5.245-5.245V160.9A5.246,5.246,0,0,0,402.955,155.659Z" transform="translate(-380.674 -155.659)" fill="#407bff"/>
        <path id="Path_2090" data-name="Path 2090" d="M402.955,155.659H385.919a5.245,5.245,0,0,0-5.245,5.245V175.73a5.245,5.245,0,0,0,5.245,5.245h6.738l1.78,4.681,1.78-4.681h6.737a5.245,5.245,0,0,0,5.245-5.245V160.9A5.246,5.246,0,0,0,402.955,155.659Z" transform="translate(-380.674 -155.659)" fill="#fff" opacity="0.7"/>
      </g>
      <g id="Group_1942" data-name="Group 1942" transform="translate(1.806 0.638)">
        <g id="Group_1940" data-name="Group 1940" style="isolation: isolate">
          <circle id="Ellipse_93" data-name="Ellipse 93" cx="8.455" cy="8.455" r="8.455" transform="translate(0 11.957) rotate(-45)" fill="#407bff"/>
        </g>
        <g id="Group_1941" data-name="Group 1941" transform="translate(6.975 8.18)">
          <path id="Path_2091" data-name="Path 2091" d="M399.577,178.082a.777.777,0,0,1-.592-.274l-3.317-3.909a.777.777,0,0,1,1.185-1.005l2.725,3.21,4.5-5.3a.777.777,0,1,1,1.185,1.005l-5.093,6A.777.777,0,0,1,399.577,178.082Z" transform="translate(-395.483 -170.529)" fill="#fff"/>
        </g>
      </g>
    </g>
    <g id="Group_1986" data-name="Group 1986" transform="translate(184.145 121.349)">
      <g id="Group_1944" data-name="Group 1944" transform="translate(93.478 1.939)">
        <path id="Path_2092" data-name="Path 2092" d="M390.48,230.272H400.8a.908.908,0,0,0,.783-.916l1.436-17.339c.034-.506-.26-.916-.657-.916H392.041a.908.908,0,0,0-.782.916l-1.437,17.339C389.788,229.863,390.082,230.272,390.48,230.272Z" transform="translate(-389.819 -211.102)" fill="#263238"/>
        <path id="Path_2093" data-name="Path 2093" d="M390.48,230.272H400.8a.908.908,0,0,0,.783-.916l1.436-17.339c.034-.506-.26-.916-.657-.916H392.041a.908.908,0,0,0-.782.916l-1.437,17.339C389.788,229.863,390.082,230.272,390.48,230.272Z" transform="translate(-389.819 -211.102)" fill="#fff" opacity="0.6"/>
        <path id="Path_2094" data-name="Path 2094" d="M391.207,230.272h9.886a.908.908,0,0,0,.783-.916l1.436-17.339c.034-.506-.26-.916-.657-.916h-9.887a.908.908,0,0,0-.782.916l-1.437,17.339C390.515,229.863,390.809,230.272,391.207,230.272Z" transform="translate(-390.115 -211.102)" fill="#fff" opacity="0.2"/>
        <path id="Path_2095" data-name="Path 2095" d="M400.971,224.876c.616,0,1.072.634,1.018,1.418a1.406,1.406,0,0,1-1.211,1.418c-.616,0-1.072-.635-1.018-1.418A1.406,1.406,0,0,0,400.971,224.876Z" transform="translate(-393.863 -216.708)" fill="#263238"/>
        <path id="Path_2096" data-name="Path 2096" d="M397.506,212.479h5.449a.734.734,0,0,0,.639-.521l.327-.856h-7.194l.21.856A.616.616,0,0,0,397.506,212.479Z" transform="translate(-392.631 -211.102)" opacity="0.3"/>
      </g>
      <g id="Group_1985" data-name="Group 1985" transform="translate(0 0)">
        <g id="Group_1984" data-name="Group 1984">
          <g id="Group_1949" data-name="Group 1949" transform="translate(53.493 18.374)">
            <g id="Group_1945" data-name="Group 1945" transform="translate(41.035)">
              <path id="Path_2097" data-name="Path 2097" d="M395.159,239.8c-.037-.253-.112-.648.141-.826.423-.3.98.384,1.217.675.081-.115-.109-.617.122-.776.452-.314,1.149.716,1.332,1.1-.072-.2-.226-.466-.074-.685.477-.271.813.174,1.079.46a3.913,3.913,0,0,1,.986,3.827c-.674,1.841-2.25,2.469-3.716,2.888a27.606,27.606,0,0,1-4.654.716,18.559,18.559,0,0,0,.218-2.38,16.221,16.221,0,0,0-.081-2.245,17.554,17.554,0,0,0,2.518-.154c.05-.3-1.33-2.872-.346-3.458.423-.254,1.032.508,1.259.857" transform="translate(-391.59 -238.818)" fill="#dbab77" fill-rule="evenodd"/>
              <path id="Path_2098" data-name="Path 2098" d="M391.728,245.127a7.232,7.232,0,0,1,.7,3.823.956.956,0,0,1-.84.8,19.045,19.045,0,0,0,.138-4.625" transform="translate(-391.59 -241.386)" fill="#e2a379" fill-rule="evenodd"/>
              <path id="Path_2099" data-name="Path 2099" d="M394.225,248.9c.811-.223,1.121-.284,1.8-.471,1.56-.428,3.907-1.479,4.738-3.162a2.838,2.838,0,0,0,.288-1.922,2.81,2.81,0,0,1-.178,2.512,4.491,4.491,0,0,1-2.385,2.069,15.174,15.174,0,0,1-4.264.974" transform="translate(-392.662 -240.66)" fill="#ba8652" fill-rule="evenodd"/>
              <path id="Path_2100" data-name="Path 2100" d="M395.1,239.18c-.229.346.19,1.727.356,2.281a9.9,9.9,0,0,1,.472,2.069,15.231,15.231,0,0,1-.652-1.781c-.24-.744-.773-2.144-.177-2.57" transform="translate(-392.906 -238.965)" fill="#ba8652" fill-rule="evenodd"/>
              <path id="Path_2101" data-name="Path 2101" d="M402.176,239.618c.474,1.142,1.159,2.185.941,3.647a8.274,8.274,0,0,0-.687-2.564c-.151-.35-.471-.886-.254-1.083" transform="translate(-395.869 -239.144)" fill="#ba8652" fill-rule="evenodd"/>
              <path id="Path_2102" data-name="Path 2102" d="M397.739,239.038a1.275,1.275,0,0,0,.014.48c.314,1.312.957,2.173,1.18,3.417-.2-.327-.424-.848-.678-1.406-.225-.5-.521-1.042-.66-1.456-.106-.317-.277-.766.144-1.035" transform="translate(-393.983 -238.907)" fill="#ba8652" fill-rule="evenodd"/>
              <path id="Path_2103" data-name="Path 2103" d="M399.973,238.915a.443.443,0,0,0,.02.391,16.026,16.026,0,0,1,1.173,3.459c-.286-.685-.652-1.565-1.015-2.412-.2-.47-.609-1.069-.178-1.439" transform="translate(-394.925 -238.857)" fill="#ba8652" fill-rule="evenodd"/>
            </g>
            <g id="Group_1948" data-name="Group 1948" transform="translate(0 0.993)">
              <path id="Path_2104" data-name="Path 2104" d="M350.086,248.115c-1.3.757-2.756,1.737-4.26,1.656a11.966,11.966,0,0,1-3.106-.922c-1.023-.388-2.065-.8-3.019-1.127-4.065-1.4-8.072-2.858-11.437-2.781a7.572,7.572,0,0,0-4.47,1.565,4.484,4.484,0,0,0-1.067,5.031,7.749,7.749,0,0,0,2.788,3.442c2.8,2.072,6.417,3.483,9.838,5.228a26.987,26.987,0,0,0,5.128,2.342,12.177,12.177,0,0,0,4.574.11,23.967,23.967,0,0,0,4.084-.947c4.272-1.229,14.412-8.089,18.829-13.215-2.088-2.679-3.962-5.44-6.352-8C357.7,242.787,354.067,245.8,350.086,248.115Z" transform="translate(-322.389 -240.492)" fill="#edf0f7" fill-rule="evenodd"/>
              <g id="Group_1947" data-name="Group 1947">
                <g id="Group_1946" data-name="Group 1946" clip-path="url(#clip-path-2)">
                  <path id="Path_2105" data-name="Path 2105" d="M387.276,243.087a13.523,13.523,0,0,0-1.879.455,3.323,3.323,0,0,1-1.949.181c-.173-.5.283-.889.57-1.2a18.265,18.265,0,0,1,2.881-2.676c.129-.219-.107-.3.036-.528a11.326,11.326,0,0,1,1.868,2.078,59.693,59.693,0,0,1,4.9,6.411c.126.2.3-.055.423.184-.237.505-.871.6-1.319.755-.487.17-.948.365-1.413.535a5.954,5.954,0,0,1-2.991.576c-.312-.628.35-1.1.752-1.485.44-.42.919-.827,1.292-1.132a6.5,6.5,0,0,0-1.507.314c-.425.1-1.444.371-1.737-.028-.493-.672,1.093-1.791,1.375-2.362-.952.028-2,.71-3.234.41-.234-.531.266-1,.636-1.354.394-.382.9-.727,1.194-1.053C387.208,243.129,387.255,243.139,387.276,243.087Z" transform="translate(-347.226 -240.014)" fill="#ccd9ed" fill-rule="evenodd"/>
                </g>
              </g>
            </g>
          </g>
          <g id="Group_1983" data-name="Group 1983">
            <g id="Group_1967" data-name="Group 1967" transform="translate(0 43.048)">
              <g id="Group_1964" data-name="Group 1964" transform="translate(0 0.848)">
                <g id="Group_1957" data-name="Group 1957" transform="translate(26.524 59.16)">
                  <g id="Group_1956" data-name="Group 1956">
                    <g id="Group_1952" data-name="Group 1952" transform="translate(16.649)">
                      <path id="Path_2107" data-name="Path 2107" d="M316.892,381.625a16.175,16.175,0,0,1,7.386,4.364,9.71,9.71,0,0,1,1.775,2.122c-.212-.079-.521-.055-.744-.122-1.659,3.4-3.493,6.431-5.038,9.941a37.305,37.305,0,0,0-1.89,5.637c-.512,1.941-.875,4-1.489,6.061a37.343,37.343,0,0,1-2.232,5.273c-1.623,3.417-2.456,7.5-3.779,11.274-.659,1.881-1.2,3.823-1.718,5.759h-4.179a94.115,94.115,0,0,0,3.778-10.426c.485-1.893.74-3.93,1.2-5.94.442-1.924.948-3.858,1.259-5.819a27.967,27.967,0,0,1,1.488-5.638,24.24,24.24,0,0,0,1.6-5.454c.439-3.244.417-6.321.572-9.82.025-.553.09-1.112.116-1.7a10.488,10.488,0,0,1,.057-1.7,9.146,9.146,0,0,1,.859-1.818C316.246,382.966,316.538,382.242,316.892,381.625Z" transform="translate(-304.984 -381.625)" fill="#cc955e" fill-rule="evenodd"/>
                      <g id="Group_1951" data-name="Group 1951">
                        <path id="Path_2108" data-name="Path 2108" d="M316.892,381.625a16.175,16.175,0,0,1,7.386,4.364,9.71,9.71,0,0,1,1.775,2.122c-.212-.079-.521-.055-.744-.122-1.659,3.4-3.493,6.431-5.038,9.941a37.305,37.305,0,0,0-1.89,5.637c-.512,1.941-.875,4-1.489,6.061a37.343,37.343,0,0,1-2.232,5.273c-1.623,3.417-2.456,7.5-3.779,11.274-.659,1.881-1.2,3.823-1.718,5.759h-4.179a94.115,94.115,0,0,0,3.778-10.426c.485-1.893.74-3.93,1.2-5.94.442-1.924.948-3.858,1.259-5.819a27.967,27.967,0,0,1,1.488-5.638,24.24,24.24,0,0,0,1.6-5.454c.439-3.244.417-6.321.572-9.82.025-.553.09-1.112.116-1.7a10.488,10.488,0,0,1,.057-1.7,9.146,9.146,0,0,1,.859-1.818C316.246,382.966,316.538,382.242,316.892,381.625Z" transform="translate(-304.984 -381.625)" fill="#995a2b" fill-rule="evenodd"/>
                        <g id="Group_1950" data-name="Group 1950" clip-path="url(#clip-path-3)">
                          <rect id="Rectangle_1129" data-name="Rectangle 1129" width="87.524" height="7.955" transform="translate(-44.187 45.861)" fill="#82461d"/>
                        </g>
                      </g>
                    </g>
                    <g id="Group_1955" data-name="Group 1955" transform="translate(0 0.388)">
                      <path id="Path_2110" data-name="Path 2110" d="M290.178,432.2H286a50.1,50.1,0,0,0-1.031-5.879,19.207,19.207,0,0,0-2-4.788c-.8-1.271-1.858-2.587-2.863-3.879a10.958,10.958,0,0,1-2.461-4.3,17.407,17.407,0,0,1,.344-4.547,28.052,28.052,0,0,0-.459-8.608,15.247,15.247,0,0,1-.572-4.788,13.139,13.139,0,0,1,.973-3.456c.857-2.11,1.672-3.908,2.52-6.243.355-.978.79-2.5,1.374-2.97.826-.667,2.7-.435,4.123-.363,1.682.084,3.486.183,5.438.183.661,0,2.325-.146,2.634.181.579.614-.168,2.087-.344,2.849-.12.524-.129,1.046-.228,1.516a20.181,20.181,0,0,1-3.722,8.3,28.757,28.757,0,0,1-3.436,3.395,12.121,12.121,0,0,0-3.149,3.636c-.68,1.574-.377,4.122-.286,6.183.094,2.134-.107,4.551.458,6.3a24.535,24.535,0,0,0,1.832,3.456,35.219,35.219,0,0,1,1.659,3.637c1,2.585,1.463,5.668,2.463,8.122A7.251,7.251,0,0,1,290.178,432.2Z" transform="translate(-276.908 -382.279)" fill="#995a2b" fill-rule="evenodd"/>
                      <g id="Group_1954" data-name="Group 1954">
                        <g id="Group_1953" data-name="Group 1953" clip-path="url(#clip-path-4)">
                          <rect id="Rectangle_1130" data-name="Rectangle 1130" width="87.524" height="7.955" transform="translate(-27.538 45.473)" fill="#82461d"/>
                        </g>
                      </g>
                    </g>
                  </g>
                </g>
                <g id="Group_1963" data-name="Group 1963">
                  <path id="Path_2112" data-name="Path 2112" d="M327.909,294.284a54.577,54.577,0,0,1,4.122,10.122,31.677,31.677,0,0,1,1.146,12.729,20.43,20.43,0,0,1-4.122,10.061,21.405,21.405,0,0,1-6.7,5.577,5.617,5.617,0,0,0-1.088.607,6.172,6.172,0,0,0-.572,1.091,26.863,26.863,0,0,1-5.039,6.3,25.693,25.693,0,0,1-7.442,5.455c.212,4.4-.051,8.859.63,12.669.685,3.838,2.016,7.008,2.4,10.729.225,2.155.195,4.191.516,6.121.307,1.852.768,3.6,1.144,5.395.394,1.882.636,3.764,1.031,5.576.383,1.757.951,3.4,1.375,5.152-1.222.142-2.691.02-4.009.061-.69-4.248-.836-8.513-1.946-12.305-.533-1.82-1.251-3.54-1.718-5.334-.249-.958-.437-1.863-.744-2.788-.293-.881-.611-1.769-.86-2.668-.572-2.071-.781-4.082-1.144-6a21.784,21.784,0,0,0-1.775-5.273c-1.519-3.251-3.031-6.23-4.58-9.456-2.905.173-5.838.208-8.76.424a76.775,76.775,0,0,1-8.589.425c-5.705-.209-12.659,1.425-16.259-1.637-1.962,3.977-4.124,7.613-7.616,10.184a15.735,15.735,0,0,1-6.126,2.606c-2.339.494-5.272.5-6.87,1.819-1.547,1.279-1.987,4.164-2.576,6.425a16.766,16.766,0,0,1-2.863,6.061c-1.308,1.659-2.789,3.121-3.319,5.576a19.661,19.661,0,0,0-.4,4.122,16.165,16.165,0,0,0,.344,4.182,6.715,6.715,0,0,0,1.087,1.637,4.244,4.244,0,0,1,.688,2c-1.375-.04-2.9.079-4.18-.061a66.439,66.439,0,0,1-.916-11.334,7.877,7.877,0,0,1,1.259-4.789c1.542-2.273,3.732-4.3,4.465-7.516.724-3.172.323-7.811.458-11.638.1-2.724.249-5.691,2.176-6.667a11.411,11.411,0,0,1,3.722-.606,6.5,6.5,0,0,0,3.263-1.091,37.741,37.741,0,0,0-.057-8.971,54.117,54.117,0,0,1-.229-9.032,22.436,22.436,0,0,1,5.668-13.032,36.991,36.991,0,0,1,4.695-4.546,39.645,39.645,0,0,0,4.867-4.365c2.745-3.191,5.065-7.249,8.13-10.425a28.134,28.134,0,0,1,5.038-4.182,14.224,14.224,0,0,1,6.584-2.546,11.748,11.748,0,0,1,7.1,2,32.7,32.7,0,0,1,5.038,4.181c3.1,2.928,6.224,5.983,9.5,8.972a45.32,45.32,0,0,0,5.1,4.121,16.4,16.4,0,0,0,2.92,1.637c1.089.451,2.919,1.036,4.009.727,1.624-.461,2.253-3.114,2.4-5.273a46.762,46.762,0,0,0-.228-7.4c-.109-1.173-.277-2.349-.458-3.455a26.558,26.558,0,0,0-.63-3.212c-.577-1.919-1.892-3.59-1.718-5.94a10.136,10.136,0,0,1-5.725-3.394c-.406-.534-1.066-1.254-.745-2.122.092-.017.149-.135.286-.121a16.941,16.941,0,0,1,3.494,1.211c.793.314,1.615.676,2.461,1.031.485.2.831.534,1.088.243a2.072,2.072,0,0,1,1.031-.788,12.623,12.623,0,0,1,2.576-.3c4.379-.27,8.857-.425,13.455-.607a11.954,11.954,0,0,1,4.981.667c1.284.645,2.021,2.033,2.92,3.455.556.876,1.794,2.279,1.6,3.455-.222,1.369-1.863,1.657-3.608,1.516-1.98-.163-3.547-1.283-5.324-.607C331.627,291.938,330.521,293.948,327.909,294.284Z" transform="translate(-232.178 -281.857)" fill="#bc854d" fill-rule="evenodd"/>
                  <g id="Group_1962" data-name="Group 1962">
                    <g id="Group_1961" data-name="Group 1961" clip-path="url(#clip-path-5)">
                      <g id="Group_1959" data-name="Group 1959" transform="translate(39.225 8.016)">
                        <g id="Group_1958" data-name="Group 1958">
                          <path id="Path_2113" data-name="Path 2113" d="M342.476,382.331c.4-.057.3.03.515.667a46.183,46.183,0,0,0,2.348,5.213c.981,2.065,1.89,3.964,2.862,5.758a20.523,20.523,0,0,1,2.463,6.243,35.966,35.966,0,0,1,.4,4,44.3,44.3,0,0,0,2.461,10.608,63.932,63.932,0,0,1,2,6.668c.473,2.39.75,4.939,1.26,7.515.21,1.06.54,2.25.859,3.516.252,1,.974,2.873.687,3.394-.343.62-1.478.36-2.118.183-2.324-.646-2.458-1.323-3.093-3.88-.779-3.146-1.437-6.533-2.117-9.638-1-4.575-2.128-8.2-3.378-12.244-1.318-4.262-2.394-7.92-3.606-12-.566-1.9-1.2-4-1.89-5.94-.313-.882-.681-1.858-.973-2.91a10.383,10.383,0,0,1-.744-3.273,4.824,4.824,0,0,1,.744-2.121C341.553,383.414,341.943,382.405,342.476,382.331Z" transform="translate(-315.457 -330.762)" fill="#995a2b" fill-rule="evenodd"/>
                          <path id="Path_2114" data-name="Path 2114" d="M327.262,395.005c-.13-.411-.263-.822-.411-1.227-.02-.051-.036-.092-.051-.132-.033-.078-.065-.157-.1-.234a15.937,15.937,0,0,0-1.2-2.284l-.084-.082-.031-.017a4.512,4.512,0,0,1-1.549-1.539c-1.863.371-3.74.553-5.641.792-4.322.544-19.43,2.491-19.863,2.725.084.6,1.03.343,1.6.427-.078.4-.015.623.229.727-.031-.013.1-.117.115-.12a1.822,1.822,0,0,1,.63.061c2.087.256,3.841.817,5.725,1.09,2.35.343,4.76.6,6.927.849a59.761,59.761,0,0,0,13.944-.227C327.424,395.542,327.347,395.273,327.262,395.005Z" transform="translate(-298.328 -333.682)" fill="#995a2b" fill-rule="evenodd"/>
                          <path id="Path_2115" data-name="Path 2115" d="M396.881,295.785c-.18-.467-.778-.447-1.146-.363a16.292,16.292,0,0,1-6.641.486,9.918,9.918,0,0,0-3.607-.364c-1.592.275-2.782,1.206-4.237,1.879a19.441,19.441,0,0,1-2.175.909c-.82.263-2.021.295-2.233.849-.333.87.563,2.084.917,2.788,1.341,2.681,2.533,5.256,3.663,7.818a15.286,15.286,0,0,1,1.6,6.122,22.253,22.253,0,0,1-3.264,12.123,19.581,19.581,0,0,1-3.436,4.182c-1.266,1.245-2.566,2.466-3.893,3.7-2.633,2.445-4.427,5.86-7.122,8.282-5.289,4.75-5.467,6.54-5.017,7.539.766,1.7,1.136,1.439,1.607,3.268a27.01,27.01,0,0,0,2.973-1.571c1.618-.992,3.207-2.029,4.81-3.031,1.631-1.02,3.258-2.068,4.752-3.151a36.267,36.267,0,0,0,10.993-12.791,29.157,29.157,0,0,0,3.606-12.486,44.819,44.819,0,0,0-3.149-17.093,11.161,11.161,0,0,1-.972-2.971,15.568,15.568,0,0,0,4.236.062,10.922,10.922,0,0,0,3.207-1.454,15.023,15.023,0,0,0,2.863-1.758C395.719,298.333,397.293,296.862,396.881,295.785Z" transform="translate(-323.486 -295.375)" fill="#995a2b" fill-rule="evenodd"/>
                        </g>
                      </g>
                      <g id="Group_1960" data-name="Group 1960" transform="translate(27.738 8.045)">
                        <path id="Path_2116" data-name="Path 2116" d="M323.59,307.565a8.1,8.1,0,0,1,.686-3.031c.278.213.218.684.229,1.031a21.635,21.635,0,0,0-.057,3.455,3.762,3.762,0,0,0-.343,1.636c-.381,4.086-1,8.173-1.6,12.062-1.389,8.985-3.036,17.894-8.016,22.973A9.053,9.053,0,0,1,309.5,348.3a52.626,52.626,0,0,1-6.87.545,42.357,42.357,0,0,1-7.158-.06,12.367,12.367,0,0,1-5.552-2c-3-2.046-4.305-5.879-5.554-9.82a116.131,116.131,0,0,1-2.977-12.546c-.705-3.581-1.7-7.357-2.233-11.4a5.59,5.59,0,0,1-.172-1.637c.07-.177.039-.337.343-.182a48.6,48.6,0,0,1,9.046-10.3A21.716,21.716,0,0,1,302,295.442a18.969,18.969,0,0,1,7.214,1.213,24.934,24.934,0,0,1,5.611,2.788C318.329,301.813,320.827,304.85,323.59,307.565Z" transform="translate(-278.955 -295.425)" fill="#82461d" fill-rule="evenodd"/>
                        <path id="Path_2117" data-name="Path 2117" d="M367.468,332.318c.971,6.57,2.9,12.278,6.527,16.124a18.013,18.013,0,0,0,4.236,3.152c.039.272-.255.391-.4.546-1.092,1.156-2.33,2.482-3.435,3.7a24.265,24.265,0,0,1-7.614-9.819,32.577,32.577,0,0,1-2.633-10.668,24.167,24.167,0,0,1-.115-4.243v-.181C365.176,331.391,366.3,331.877,367.468,332.318Z" transform="translate(-313.559 -309.874)" fill="#82461d" fill-rule="evenodd"/>
                      </g>
                      <rect id="Rectangle_1131" data-name="Rectangle 1131" width="87.524" height="7.955" transform="translate(-1.015 105.021)" fill="#82461d"/>
                    </g>
                  </g>
                </g>
              </g>
              <g id="Group_1966" data-name="Group 1966" transform="translate(80.957)">
                <path id="Path_2119" data-name="Path 2119" d="M384.966,290.234a6.229,6.229,0,0,1-2.256-.591.515.515,0,0,1-.268-.655.469.469,0,0,1,.62-.283c1.921.8,2.285.432,2.3.417.111-.125.022-.533-.057-.716a.517.517,0,0,1,.236-.669.466.466,0,0,1,.633.25,1.86,1.86,0,0,1-.12,1.83A1.379,1.379,0,0,1,384.966,290.234Z" transform="translate(-374.282 -283.384)" fill="#82461d"/>
                <g id="Group_1965" data-name="Group 1965">
                  <path id="Path_2120" data-name="Path 2120" d="M390.28,288.49c-4.153,1.227-8.216,2.643-13.283,3.09-.669.06-1.561.136-2.461.243-.538.063-2.067.376-2.061-.425,0-.708,1.565-.605,2.061-.667,5.606-.694,11.039-1.584,15.516-3.395a42,42,0,0,1-.173-5.7c.058-.54.269-1.221.8-1.212.912.014.795,1.356.859,2.424.124,2.059.322,4.09.516,6,.1.957.3,2.494-.4,2.607C390.549,291.636,390.521,289.362,390.28,288.49Z" transform="translate(-370.239 -280.428)" fill="#82461d" fill-rule="evenodd"/>
                  <path id="Path_2121" data-name="Path 2121" d="M388.817,300.323a4.506,4.506,0,0,1-.457-.025,8.627,8.627,0,0,0-.115,1.051,100.919,100.919,0,0,1-1.775,12.972c-.951,4.469-2.4,9.012-5.439,11.214a3.865,3.865,0,0,1-1.2.667,4.158,4.158,0,0,1-2.633-.243,9.717,9.717,0,0,1-3.55-3.7c-2.939-4.745-3.757-10.684-4.523-17.579-.46.3-.384.992-.4,1.455-.021.613-.021,1.306,0,1.879a39.783,39.783,0,0,0,1.6,9.577c1.025,3.445,3.091,7.313,5.669,9.032a5.321,5.321,0,0,0,4.065.787c2.142-.593,3.629-2.581,4.753-4.606,2.406-4.338,3.169-9.247,3.95-15.094.14-1.048.346-2.581.515-4.243.035-.349.165-1.321.228-2.182a3.992,3.992,0,0,0-.03-1.022A4.38,4.38,0,0,1,388.817,300.323Z" transform="translate(-368.704 -288.503)" fill="#82461d" fill-rule="evenodd"/>
                  <path id="Path_2122" data-name="Path 2122" d="M401.7,299.641a1.657,1.657,0,1,1,1.562-1.654A1.613,1.613,0,0,1,401.7,299.641Zm0-2.3a.645.645,0,1,0,.608.643A.628.628,0,0,0,401.7,297.343Z" transform="translate(-381.499 -286.902)" fill="#82461d"/>
                </g>
              </g>
            </g>
            <g id="Group_1982" data-name="Group 1982" transform="translate(18.767)">
              <g id="Group_1969" data-name="Group 1969" transform="translate(20.33 88.96)">
                <g id="Group_1968" data-name="Group 1968" transform="translate(1.649)">
                  <path id="Path_2123" data-name="Path 2123" d="M305.406,357.854s-3.529,4.734-4.512,5.723c.585,1.3,3.438,4.051,5.1,3.128a1.121,1.121,0,0,1-.242-1.092c.276-1.215,2.079-2.642,4.02-5.054Z" transform="translate(-300.894 -357.854)" fill="#905299" fill-rule="evenodd"/>
                </g>
                <path id="Path_2124" data-name="Path 2124" d="M301.746,363.24c1.613.856,3.205,1.718,4.686,2.617.18.062-.066.272-.084.4a4.662,4.662,0,0,0,1.258,3.253c1.146,1.373,2.884,2.471,1.887,4.487-.182.109-.476-.141-.719-.272-3.535-1.889-7.115-3.959-10.661-5.863a15.486,15.486,0,0,1,1.721-2.389c.578-.741,1.146-1.443,1.763-2.143A.133.133,0,0,1,301.746,363.24Z" transform="translate(-298.113 -360.046)" fill="#805be7" fill-rule="evenodd"/>
              </g>
              <g id="Group_1970" data-name="Group 1970" transform="translate(33.601 1.915)">
                <path id="Path_2125" data-name="Path 2125" d="M339.321,223.3c-.044-.01-.049.021-.05.056-.9,1.783-1.713,3.793-2.623,5.607a9.983,9.983,0,0,1-.943,1.664q-1.474,18.37-2.622,37.085c.05.173.275-.165.367-.279,1.424-1.772,2.587-3.538,4.09-5.441.248-.312.544-.634.787-.943a4.375,4.375,0,0,0,.734-1,8.354,8.354,0,0,0,.157-1.666c.092-1.154.129-2.129.263-3.275a7.208,7.208,0,0,1,.261-1.5,4.266,4.266,0,0,1,1-1.166c.288-.307.874-.812.943-1.222a7.22,7.22,0,0,0-.261-1.887c-.626-3.729-1.144-7.32-1.681-11.214a7.729,7.729,0,0,1-.155-1.944c.079-.588.652-1.3.734-1.832a11.519,11.519,0,0,0-.209-2.776C339.824,229.051,339.515,225.776,339.321,223.3Z" transform="translate(-325.616 -216.042)" fill="#807be5" fill-rule="evenodd"/>
                <path id="Path_2126" data-name="Path 2126" d="M324.024,229.812c-1.052.329-2.516.036-3.532.4,2.68,6.49,5.595,13.686,8.342,20.1a150.228,150.228,0,0,0,2.652-16.264l-.906-3.853c.088-1.5.189-2.981.157-4.608,2.982.457,3.28-2.811,3.459-5.551.188-2.827.238-6.462-1.1-7.716-.85-.8-2.361-1.034-3.828-1.222a6.086,6.086,0,0,0-3.934.834c-1.749,1.445-1.918,4.988-1.1,7.383.1.29.288.607.419.888a4.243,4.243,0,0,1,.419.889,5.537,5.537,0,0,1-.157,1.109C324.6,224.782,324.318,227.216,324.024,229.812Z" transform="translate(-320.492 -211.061)" fill="#dbab77" fill-rule="evenodd"/>
              </g>
              <path id="Path_2127" data-name="Path 2127" d="M320.428,242.358c.129.023.028.3.065.422a6.678,6.678,0,0,1,1.714-.276c.71.061.319,1.672.9,1.948,1.75.823,4.031,5.736,4.46,10.194.863,8.973.865,18.887,1.741,27.732a55.818,55.818,0,0,0,1.082,6.223c.579,2.687,1.313,5.1,1.178,8.4a27.671,27.671,0,0,1-1.427,6.878,100.183,100.183,0,0,1-8.441,18.665c-6.41-1.379-14.966-5.493-18.384-8.551,2.375-4.854,5.98-9.5,7.845-14.9.919-2.658,2.035-5.153,3.015-7.759a53.366,53.366,0,0,0,2.375-8.351,77.674,77.674,0,0,0,1.149-9.661c.691-9.967,1.151-20.444,2.457-29.936-.081-.348-.134.168-.342.068a.456.456,0,0,1,.334-.492c-.153-.186.061-.38.106-.548-.012-.052.021-.058.056-.062C320.364,242.321,320.415,242.284,320.428,242.358Z" transform="translate(-279.902 -221.867)" fill="#807be5" fill-rule="evenodd"/>
              <g id="Group_1980" data-name="Group 1980" transform="translate(0 18.267)">
                <g id="Group_1974" data-name="Group 1974" transform="translate(0 0.09)">
                  <path id="Path_2128" data-name="Path 2128" d="M302.293,238.794c.6-.068,1.6.643,2.279,1.026.649.367,1.66.547,1.957,1.217.773,1.739,1.024,4.537,1.088,7.335.184,8.165-.434,16.625-.859,24.246-.222,3.987-.572,7.8-1.145,11.516-.919,5.961-3.394,10.369-6.126,14.548-2.136,3.266-4.482,6.47-6.927,9.576-2.422,3.076-5.059,5.927-7.616,8.79-2.519,2.821-5.282,5.559-8.129,8.3a77.884,77.884,0,0,1-6.412,5.879c-.968.748-1.8,1.474-2.748,1.273-1.3-.275-1.548-2.645-1.775-4.486-.6-4.883-1.453-8.876-1.946-13.88a10.359,10.359,0,0,1,.057-3.334,5.836,5.836,0,0,1,.973-1.758c.343-.481,1.009-1.1,1.088-1.637a7.728,7.728,0,0,0-.114-1.273c-.088-1.271-.16-2.67-.229-3.94-.121-2.19-.326-4.741.4-6.3a18.315,18.315,0,0,1,2-3.03c2.013-2.775,4.328-5.884,6.527-8.426,2.3-2.655,4.714-5.2,6.985-7.941a26.589,26.589,0,0,0,2.119-2.849,15.433,15.433,0,0,0,.916-2.91c.766-2.509,1.459-5.159,2.289-7.7,1.659-5.066,3.331-9.827,5.382-14.486,1.327-3.012,2.7-6.082,5.267-7.881A10.415,10.415,0,0,1,302.293,238.794Z" transform="translate(-263.828 -238.789)" fill="#edf0f7" fill-rule="evenodd"/>
                  <g id="Group_1973" data-name="Group 1973" transform="translate(0 0.001)">
                    <g id="Group_1972" data-name="Group 1972" clip-path="url(#clip-path-6)">
                      <g id="Group_1971" data-name="Group 1971" transform="translate(1.854 -1.335)">
                        <path id="Path_2129" data-name="Path 2129" d="M285.474,318.63c-4.41,5.284-9.317,10.541-13.8,16-1.306,1.592-2.574,3.172-3.893,4.789-.148.181-.256.566-.572.546.065-.594-.362-1.258-.229-1.94.062-.319.685-.907,1.088-1.334C273.732,330.7,279.737,324.321,285.474,318.63Z" transform="translate(-266.955 -269.952)" fill="#ccd9ed" fill-rule="evenodd"/>
                        <path id="Path_2130" data-name="Path 2130" d="M297,320.675a18.392,18.392,0,0,1-1.832,2.607,173.412,173.412,0,0,1-14.657,17.033A122.4,122.4,0,0,1,297,320.675Z" transform="translate(-272.474 -270.785)" fill="#ccd9ed" fill-rule="evenodd"/>
                        <path id="Path_2131" data-name="Path 2131" d="M288.417,318.8c-.878.949-1.672,1.987-2.576,2.909-2.683,2.735-5.438,5.379-8.474,7.941a21.334,21.334,0,0,1-4.694,3.454c-.528.243-1.462.608-2.062.122-.09-.33.237-.064.229-.182a19.891,19.891,0,0,1,.229-4.242c.094-.772.143-2.369.687-2.486.618-.133.945.889,1.146,1.334.3.669.481,1.162.687,1.758a26.48,26.48,0,0,0,.344-3.092c.068-.836.045-2.527.686-2.667.523-.114.914.581,1.146.909.345.489.534.869.8,1.273.04-.849-.125-2.056-.173-3.152-.035-.822-.144-1.8.287-2.3.8.1,1.265.831,1.66,1.395.418.6.745,1.28,1.2,1.818-.04-1.342-.2-2.9-.173-4.485.008-.474-.062-1,.288-1.273.734,0,.973.726,1.259,1.213.3.513.605,1.05.916,1.516a8.942,8.942,0,0,0-.057-1.334c-.056-1.3-.252-3.659.458-3.819.683-.155,1.32.886,1.66,1.272.523.6.884,1.06,1.317,1.577-.165-.919-.215-1.7-.4-2.789-.117-.687-.6-2.211,0-2.546.677-.375,1.63.75,2,1.09.643.585,1.092,1.032,1.66,1.516-.15-1.044-.356-2-.515-3.213-.107-.812-.5-2.862.23-3.091.553-.176,1.6.729,1.889.969a8.708,8.708,0,0,0,1.546,1.273c-.128-.914-.424-1.669-.629-2.667-.181-.877-.553-2.755.343-2.909.688-.118,1.452.538,2,.91.66.442,1.147.925,1.66,1.212-.159-.693-.349-1.546-.515-2.425-.208-1.1-.565-2.409-.057-3.152.964-.243,1.552.485,2.119.91.605.454,1.2.927,1.831,1.334-.25-1.038-.583-2.027-.916-3.031a6.3,6.3,0,0,1-.63-3.031c1.332-.457,2.552.742,3.778,1.031-.452-1.522-1.676-2.549-1.545-4.485.639-.459,1.391.031,2,.3.656.292,1.29.626,1.89.849a25.893,25.893,0,0,0-1.775-3.455c-.186-.368-.5-.777-.343-1.274.607-.375,1.354-.071,1.947.122.616.2,1.2.47,1.774.607-.479-1.456-2.24-2.4-2.176-4.425.653-.345,1.332.086,1.889.363.587.292,1.18.611,1.718.849a15.613,15.613,0,0,0-1.03-1.879c-.331-.589-.948-1.476-.8-2.183.244-1.185,2.324-.474,3.493-.727a8.119,8.119,0,0,0-1.088-1.455c-.363-.423-.982-.728-1.031-1.455.52-.58,1.906-.244,2.806-.424-.014-.322-.4-.544-.687-.849-.249-.264-.542-.546-.8-.849-.451-.524-1.262-1.427-1.2-2.061.094-1,1.664-.809,2.862-.849a14.187,14.187,0,0,0-1.774-1.393c-.417-.355-1.523-1.221-1.431-1.758.13-.776,2.253-.636,3.32-.668a4.739,4.739,0,0,0-1.2-1.029c-.354-.279-1.2-.808-1.088-1.273.162-.67,2.1-.2,2.748-.425-.365-.323-.94-.783-1.546-1.212-.476-.337-1.492-.78-1.431-1.393.092-.926,2.536-.707,3.493-.849,0-.274-.458-.4-.744-.607s-.573-.4-.859-.6c-.538-.4-1.187-.851-1.318-1.456.32-.74,1.717-.49,2.692-.605a6.084,6.084,0,0,0-1.488-1.031c-.365-.228-1.32-.725-1.317-1.152.007-.926,2.576-.708,3.263-1.029a2.21,2.21,0,0,0-.744-.607c-.441-.292-2.212-1.1-2.233-1.758-.02-.6.8-.789,1.317-.97.656-.228,1.138-.349,1.66-.544-.86-.707-2.211-.892-2.634-2.061.48-.564,1.623-.425,2.52-.546a7,7,0,0,0-1.373-1.031c-.4-.278-1.271-.754-1.261-1.213.012-.544.835-.6,1.375-.727a11.343,11.343,0,0,1,1.718-.3c-.032-.334-.433-.5-.688-.667-.28-.186-.573-.4-.859-.607-.57-.4-1.338-.653-1.6-1.332.4-.457,1.129-.46,1.775-.607s1.348-.278,1.947-.425a14.182,14.182,0,0,0-1.889-1.029c-.548-.287-1.591-.695-1.6-1.273-.022-1.031,2.272-.866,2.978-1.213-.867-.509-2.087-.693-3.15-1.212-.251-.123-.75-.411-.744-.666.021-.784,2.325-.6,2.748-1.092-.623-.234-1.361-.35-2.118-.606-.543-.182-1.613-.49-1.547-1.151.053-.521,1.362-.827,1.89-.97.862-.234,1.547-.357,2.289-.546-.017-.1.054-.1.058-.182.049-.011.053.024.056.061,1.084.37,2.144,1.825,2.806,2.97a12.677,12.677,0,0,1,1.26,4.546c.639,4.6,1.351,8.454,1.144,13.456a82.136,82.136,0,0,1-3.32,20.245c-.429,1.427-.895,2.885-1.374,4.364C308.4,287.83,297.19,309.307,288.417,318.8Z" transform="translate(-268.437 -236.54)" fill="#ccd9ed" fill-rule="evenodd"/>
                        <path id="Path_2132" data-name="Path 2132" d="M316.758,300.479c-1.949,4.934-1.932,8.513-5.352,14.616a130.808,130.808,0,0,1-8.241,12.06c-.024.058.369-3.642,0,.054a51.392,51.392,0,0,0,8.839-11,25.923,25.923,0,0,0,3.208-7C315.912,306.608,316.778,300.513,316.758,300.479Z" transform="translate(-281.691 -262.564)" fill="#ccd9ed" fill-rule="evenodd"/>
                      </g>
                    </g>
                  </g>
                </g>
                <g id="Group_1979" data-name="Group 1979" transform="translate(32.006)">
                  <g id="Group_1975" data-name="Group 1975" transform="translate(24.554 37.134)">
                    <path id="Path_2134" data-name="Path 2134" d="M370.059,305.743c.243.779,1.759,2.658,1.243,3.171-.56.557-1.753-1.51-2.224-1.916.358.83,1.384,2.322,1.12,2.686-.3.41-1.021-.224-1.458-.685-.467-.493-.8-1.091-1.069-1.362.243.64.971,1.817.492,2.177s-1.233-1-1.628-1.453a11.649,11.649,0,0,0-1.556-1.66,3.076,3.076,0,0,0-1.488-.211,6.17,6.17,0,0,1-4.278-1.6l3.423-3.083a5.062,5.062,0,0,0,2.5-.17,4.881,4.881,0,0,1,2.188-.322,9.241,9.241,0,0,1,3.618,3.231c.4.578,1.443,2.228,1.127,2.587-.537.608-1.571-.99-2.009-1.388" transform="translate(-359.212 -301.261)" fill="#dbab77" fill-rule="evenodd"/>
                    <path id="Path_2135" data-name="Path 2135" d="M377.02,311.133c-.082,1.2-1.375-.332-1.887-.956-.806-.982-1.586-2.142-2.135-2.716,1.064.431,2.294,2.818,3.326,3.529a.723.723,0,0,0,.7.143" transform="translate(-364.823 -303.784)" fill="#ba8652" fill-rule="evenodd"/>
                    <path id="Path_2136" data-name="Path 2136" d="M378.214,308.115c.043.328-.1.377-.206.433-.406.219-1.3-.835-1.7-1.324-.805-.982-1.566-2.209-2.115-2.783,1.064.431,2.293,2.818,3.326,3.529a.723.723,0,0,0,.7.144" transform="translate(-365.309 -302.556)" fill="#ba8652" fill-rule="evenodd"/>
                    <path id="Path_2137" data-name="Path 2137" d="M368.228,310.126c-.323.471-1.194-.521-1.664-1.037-.269-.295-.531-.632-.8-.965a5.867,5.867,0,0,0-.8-.964c-.448-.324-1.634-.149-2.223-.25a6.689,6.689,0,0,1-3.531-1.648c1.1-1.06,2.151-2.053,3.423-3.082a3.476,3.476,0,0,1-1.222,1.882,4.621,4.621,0,0,1-1.5.885,11.46,11.46,0,0,0,3.772,1.69c.673.171,1.13.089,1.664.676.844.928,2.247,2.926,2.874,2.812" transform="translate(-359.212 -301.635)" fill="#ba8652" fill-rule="evenodd"/>
                    <path id="Path_2138" data-name="Path 2138" d="M374.783,312.142c.41,1.121-.561.679-.88.44-1.16-.866-1.743-2.609-3.308-3.917a1.457,1.457,0,0,1,.749.475c.685.646,1.608,1.991,2.295,2.744.315.345.715.677,1.144.258" transform="translate(-363.845 -304.274)" fill="#ba8652" fill-rule="evenodd"/>
                  </g>
                  <g id="Group_1978" data-name="Group 1978">
                    <path id="Path_2139" data-name="Path 2139" d="M335.562,265.263c-1.251-.951-2.779-1.961-3.32-3.456a12.827,12.827,0,0,1-.4-3.394c-.052-1.152-.091-2.331-.173-3.394-.34-4.52-.756-8.937-2.06-12.244a7.257,7.257,0,0,0-3.322-3.7,4.549,4.549,0,0,0-5.209,1.031,8.13,8.13,0,0,0-2.118,4.121c-.816,3.566-.667,7.66-.917,11.7a29.023,29.023,0,0,0-.114,5.94,13.129,13.129,0,0,0,1.775,4.486,25.614,25.614,0,0,0,2.577,3.576c2.922,3.642,13.592,10.668,20.268,12.85,1.684-3.128,3.531-6.08,4.982-9.456C343.742,270.463,339.4,268.175,335.562,265.263Z" transform="translate(-317.803 -238.637)" fill="#fff" fill-rule="evenodd"/>
                    <g id="Group_1977" data-name="Group 1977">
                      <g id="Group_1976" data-name="Group 1976" clip-path="url(#clip-path-7)">
                        <path id="Path_2140" data-name="Path 2140" d="M359.5,298.111a14.449,14.449,0,0,0-1.2-1.636,3.556,3.556,0,0,1-.974-1.819c.406-.374.961-.09,1.374.06a18.829,18.829,0,0,1,3.722,1.7c.261.034.242-.228.515-.182a11.975,11.975,0,0,1-1.2,2.668,62.689,62.689,0,0,1-4.065,7.394c-.139.2.174.27,0,.485-.578-.022-.927-.6-1.259-.971-.362-.4-.735-.77-1.089-1.151a6.364,6.364,0,0,1-1.774-2.667c.467-.56,1.187-.112,1.717.121.579.253,1.162.552,1.6.789a6.928,6.928,0,0,0-.916-1.334c-.266-.372-.945-1.249-.687-1.7.436-.755,2.148.325,2.806.363-.417-.912-1.5-1.649-1.718-2.969.407-.447,1.053-.152,1.545.06.525.225,1.058.573,1.489.727C359.432,298.061,359.443,298.111,359.5,298.111Z" transform="translate(-332.351 -261.363)" fill="#ccd9ed" fill-rule="evenodd"/>
                      </g>
                    </g>
                  </g>
                </g>
              </g>
              <path id="Path_2142" data-name="Path 2142" d="M341.923,220.532c.349-.176,2.221,3.171,2.227,3.576,0,.511-1.52,1.179-1.688,1.018-.471-.461-1.065-4.33-.54-4.593" transform="translate(-295.531 -212.998)" fill="#ba8652" fill-rule="evenodd"/>
              <g id="Group_1981" data-name="Group 1981" transform="translate(30.085)">
                <path id="Path_2143" data-name="Path 2143" d="M314.564,261.743c.849.008,4.247-3.99,4.793-5.433a13.814,13.814,0,0,0,.578-2.609c.421-2.737.751-5.755,1.1-8.493.768-.934,2.043-1.184,2.517-2.443a9.9,9.9,0,0,0,.314-2.664c.121-2.692.279-6.121.42-8.55a6.868,6.868,0,0,0,1.94-.111,31.154,31.154,0,0,0,.21-3.553c.12-3.031.118-6.144.209-9.215a11.47,11.47,0,0,1,.053-1.776c.072-.317.468-.591.839-.944.761-.723,1.058-.964,1.835-1.72.266-.259.666-.763.944-.833.409-.1,1.1.19,1.467.056a5.151,5.151,0,0,0-3.355-4.83,8.658,8.658,0,0,0-2.989-.777c-3.4-.23-5.235,2.309-4.982,6.051a8.258,8.258,0,0,0,.211,1.165,7.63,7.63,0,0,1,.261,1.111,11.963,11.963,0,0,1-.261,2.109c-.276,1.978-.588,4.218-.892,6.051a11.674,11.674,0,0,1-.995,3.663c-.519.963-2.958,1.015-3.368,2.149C315.079,231.068,315.013,254.837,314.564,261.743Z" transform="translate(-314.564 -207.832)" fill="#807be5" fill-rule="evenodd"/>
                <path id="Path_2144" data-name="Path 2144" d="M323.8,212.787c.073,1.163.367,3.331.367,3.331l11.378-1.055-.142-3.276S327.347,212.2,323.8,212.787Z" transform="translate(-318.322 -209.442)" fill="#ffecca" fill-rule="evenodd"/>
                <path id="Path_2145" data-name="Path 2145" d="M328.662,231.493c.028.219.46,7.4-.263,7.8-.5.277-3.628,2.966-3.628,2.966s1.487-1.8,3.128-4.022C328.184,237.851,328.417,229.641,328.662,231.493Z" transform="translate(-318.718 -217.352)" fill="#807be5" fill-rule="evenodd"/>
                <path id="Path_2146" data-name="Path 2146" d="M324.383,252.442c.028.22.459,7.4-.263,7.8-.5.277-3.628,2.967-3.628,2.967s1.487-1.8,3.129-4.022C323.905,258.8,324.137,250.59,324.383,252.442Z" transform="translate(-316.977 -225.878)" fill="#807be5" fill-rule="evenodd"/>
              </g>
            </g>
          </g>
        </g>
      </g>
    </g>
  </g>
</svg>
