<svg xmlns="http://www.w3.org/2000/svg" xmlns:xlink="http://www.w3.org/1999/xlink" width="156" height="151" viewBox="0 0 156 151">
  <defs>
    <clipPath id="clip-path">
      <rect id="Rectangle_110" data-name="Rectangle 110" width="73.607" height="106.465" fill="none"/>
    </clipPath>
  </defs>
  <g id="Group_16281" data-name="Group 16281" transform="translate(-136 -122)">
    <circle id="Ellipse_75" data-name="Ellipse 75" cx="70.5" cy="70.5" r="70.5" transform="translate(145 132)" fill="rgba(128,123,229,0.09)"/>
    <g id="Group_2156" data-name="Group 2156">
      <circle id="Ellipse_76" data-name="Ellipse 76" cx="5.5" cy="5.5" r="5.5" transform="translate(155 192)" fill="#ffeb00"/>
      <circle id="Ellipse_77" data-name="Ellipse 77" cx="6" cy="6" r="6" transform="translate(280 152)" fill="#ff9300"/>
      <g id="Group_798" data-name="Group 798" transform="translate(35 36)">
        <circle id="Ellipse_78" data-name="Ellipse 78" cx="7.5" cy="7.5" r="7.5" transform="translate(179 86)" fill="#00b1ff"/>
        <ellipse id="Ellipse_79" data-name="Ellipse 79" cx="3" cy="3.5" rx="3" ry="3.5" transform="translate(184 90)" fill="#fff"/>
      </g>
      <g id="Group_797" data-name="Group 797" transform="translate(196.384 5.431)">
        <rect id="Rectangle_96" data-name="Rectangle 96" width="2.848" height="8.137" transform="translate(84.076 211)" fill="#f82d44"/>
        <rect id="Rectangle_97" data-name="Rectangle 97" width="2.848" height="8.137" transform="matrix(0.035, 0.999, -0.999, 0.035, 89.517, 213.504)" fill="#f82d44"/>
      </g>
      <g id="Group_799" data-name="Group 799" transform="translate(89.168 -74.5)">
        <rect id="Rectangle_96-2" data-name="Rectangle 96" width="3.85" height="11" transform="translate(85.023 211)" fill="#f82d44"/>
        <rect id="Rectangle_97-2" data-name="Rectangle 97" width="3.85" height="11" transform="matrix(0.035, 0.999, -0.999, 0.035, 92.378, 214.384)" fill="#f82d44"/>
      </g>
      <circle id="Ellipse_80" data-name="Ellipse 80" cx="5.5" cy="5.5" r="5.5" transform="translate(245 258)" fill="#ffeb00"/>
      <circle id="Ellipse_81" data-name="Ellipse 81" cx="6" cy="6" r="6" transform="translate(136 231)" fill="#ff9300"/>
    </g>
    <g id="Group_825" data-name="Group 825" transform="translate(-89.34 61.107)">
      <g id="Group_821" data-name="Group 821" transform="translate(271.571 86.393)">
        <g id="Group_820" data-name="Group 820" transform="translate(0)" clip-path="url(#clip-path)">
          <g id="Group_819" data-name="Group 819" transform="translate(-5.896 13.187)">
            <path id="Path_1357" data-name="Path 1357" d="M538.427,469.79s-6,12.005-12.1,20.293c-2.425,3.3-4.866,6.007-6.949,7.137a16.606,16.606,0,0,0-5.193,4.727,37.924,37.924,0,0,0-5.406,11.1l-15.588-23.583s.532-23.052,2.4-26.908c2.728-5.619,4.046-16.973,5.094-19.233.777-1.677,3-10.338,3.21-10.975a2.116,2.116,0,0,1,1.791-.694,2.792,2.792,0,0,1,2.407,2.273,25.9,25.9,0,0,1-.317,13.053c.588,5.94-1.18,10.349.06,11.517.046.043.132.023.253-.055,2.149-1.38,15.486-20.825,17.129-21.244C526.958,436.753,538.427,469.79,538.427,469.79Z" transform="translate(-473.331 -423.081)" fill="#efa26f"/>
            <path id="Path_1358" data-name="Path 1358" d="M218.15,1490.06s-.212,10.48-.82,24.594H178.011c8.988-19.166,16.8-35.3,16.8-35.3S217.2,1480.041,218.15,1490.06Z" transform="translate(-178.011 -1404.764)" fill="#f99746"/>
            <path id="Path_1359" data-name="Path 1359" d="M1196.332,307.778l-4.827,7.077-4.737,6.945a1.084,1.084,0,0,1-.985.435c-1.137-.108-2.543-1.747-3.639-2.655l-.111-.091a3.419,3.419,0,0,1-.454-4.8l7.24-8.752h0l2.147-2.6a3.419,3.419,0,0,1,4.8-.454l.111.091A3.42,3.42,0,0,1,1196.332,307.778Z" transform="translate(-1117.608 -301.7)" fill="#ffb27d"/>
            <path id="Path_1360" data-name="Path 1360" d="M1265.595,371.783l-4.737,6.945a1.084,1.084,0,0,1-.985.435l3.036-16.3C1262.916,362.955,1263.432,370.268,1265.595,371.783Z" transform="translate(-1191.698 -358.628)" fill="#efa26f"/>
            <path id="Path_1361" data-name="Path 1361" d="M733.406,1337.316c-2.425,3.3-4.866,6.007-6.949,7.137a16.606,16.606,0,0,0-5.193,4.727c-1.643-.766-3.516-1.664-5.346-2.554a3.049,3.049,0,0,1-.131-5.421l.063-.035c2.046-1.171,4.142-5.3,4.142-5.3Z" transform="translate(-680.407 -1270.314)" fill="#d38254"/>
            <path id="Path_1362" data-name="Path 1362" d="M642.6,448.356l-1.263,5.1a2.679,2.679,0,0,0,1.813.1C643.863,453.205,644.442,448.631,642.6,448.356Z" transform="translate(-612.144 -438.733)" fill="#ffc197"/>
            <g id="Group_815" data-name="Group 815" transform="translate(34.766)">
              <rect id="Rectangle_108" data-name="Rectangle 108" width="36.873" height="69.411" rx="6" fill="#2b478b"/>
              <g id="Group_814" data-name="Group 814" transform="translate(1.828 1.72)">
                <path id="Path_1363" data-name="Path 1363" d="M791.934,326.549v58.313a3.594,3.594,0,0,1-3.57,3.6H762.286a3.594,3.594,0,0,1-3.57-3.6V326.549a3.594,3.594,0,0,1,3.57-3.6h26.078A3.594,3.594,0,0,1,791.934,326.549Z" transform="translate(-758.716 -322.952)" fill="#c0d8fb"/>
                <path id="Path_1364" data-name="Path 1364" d="M788.364,322.952l-25.755,65.506h-.323a3.594,3.594,0,0,1-3.57-3.6V326.549a3.594,3.594,0,0,1,3.57-3.6Z" transform="translate(-758.716 -322.952)" fill="#cbe1fd"/>
              </g>
              <path id="Rectangle_109" data-name="Rectangle 109" d="M1.741,0H12.386a1.741,1.741,0,0,1,1.741,1.741v0a1.741,1.741,0,0,1-1.741,1.741H1.741A1.741,1.741,0,0,1,0,1.741v0A1.741,1.741,0,0,1,1.741,0Z" transform="translate(11.373 0.407)" fill="#2b478b"/>
            </g>
            <g id="Group_816" data-name="Group 816" transform="translate(66.223 26.238)">
              <path id="Path_1365" data-name="Path 1365" d="M1239,718.581l-.72.273-4.841,1.84a3.1,3.1,0,0,1-.343.109,3.307,3.307,0,0,1-3.909-2.02l-.071-.186a3.307,3.307,0,0,1,1.911-4.253l4.513-1.715.328-.125.72-.274a3.306,3.306,0,0,1,4.253,1.911l.071.186A3.307,3.307,0,0,1,1239,718.581Z" transform="translate(-1228.897 -712.017)" fill="#ffb27d"/>
              <path id="Path_1366" data-name="Path 1366" d="M1254.583,758.779a19.3,19.3,0,0,1-3.053.962,1.288,1.288,0,0,1-1.009-.505,2.983,2.983,0,0,1-.609-1.1,3.471,3.471,0,0,1-.165-.7,2.953,2.953,0,0,1,.026-.833.832.832,0,0,1,.462-.595l0,0a19.1,19.1,0,0,1,2.936-1.151,1.276,1.276,0,0,1,1.582.707l.1.278.519,1.423A1.219,1.219,0,0,1,1254.583,758.779Z" transform="translate(-1248.416 -752.104)" fill="#ffd3b6"/>
              <path id="Path_1367" data-name="Path 1367" d="M1261.95,770.617a19.3,19.3,0,0,1-3.053.962,1.289,1.289,0,0,1-1.01-.505c-.041-.095-.078-.195-.113-.3a3.491,3.491,0,0,1-.165-.7,2.953,2.953,0,0,1,.026-.834.832.832,0,0,1,.462-.595l0,0a19.1,19.1,0,0,1,2.936-1.151,1.392,1.392,0,0,1,1.188.188l.519,1.423A1.219,1.219,0,0,1,1261.95,770.617Z" transform="translate(-1255.784 -763.942)" fill="#ffc197"/>
            </g>
            <g id="Group_817" data-name="Group 817" transform="translate(67.578 34.985)">
              <path id="Path_1368" data-name="Path 1368" d="M1256.942,855.449l-3.733,1.016a2.144,2.144,0,0,1-2.624-1.5l-.115-.423a2.144,2.144,0,0,1,1.5-2.624l3.733-1.016a2.144,2.144,0,0,1,2.624,1.5l.115.422A2.144,2.144,0,0,1,1256.942,855.449Z" transform="translate(-1250.395 -850.827)" fill="#ffb27d"/>
              <path id="Path_1369" data-name="Path 1369" d="M1264.739,874.81a16.857,16.857,0,0,1-2.575.542,1.258,1.258,0,0,1-1.018-.808,2.822,2.822,0,0,1-.274-1.075,2.135,2.135,0,0,1,.083-.639.662.662,0,0,1,.422-.427l0,0a16.684,16.684,0,0,1,2.493-.7,1.056,1.056,0,0,1,1.246.645l.1.336.288,1.01A.947.947,0,0,1,1264.739,874.81Z" transform="translate(-1260.211 -870.371)" fill="#ffd3b6"/>
              <path id="Path_1370" data-name="Path 1370" d="M1267.7,883.15a16.864,16.864,0,0,1-2.575.542,1.259,1.259,0,0,1-1.019-.808,2.377,2.377,0,0,1-.075-.515,2.141,2.141,0,0,1,.083-.639.664.664,0,0,1,.422-.427l0,0a16.589,16.589,0,0,1,2.493-.695,1.127,1.127,0,0,1,1.143.42l.288,1.009A.947.947,0,0,1,1267.7,883.15Z" transform="translate(-1263.171 -878.711)" fill="#ffc197"/>
            </g>
            <path id="Path_1371" data-name="Path 1371" d="M383.885,1449s7.683,7.359,12.863,10.2l3.922-2.781v4.1s7.713,1.364,10.145,0v-11.19l-21.663-10.86Z" transform="translate(-370.912 -1366.454)" fill="#ed7d2b"/>
            <path id="Path_1372" data-name="Path 1372" d="M348.543,1335.865s-4.879,7.3-9.729,15.1c0,0,10.22,7.031,15.761,9.093l7.268-8.323-1.037,10.02s6.432,2.345,9.416,1.732c0,0-.188-9.09-.186-15.045C370.034,1348.445,352.353,1343.489,348.543,1335.865Z" transform="translate(-328.681 -1270.314)" fill="#f3f8ff"/>
            <path id="Path_1373" data-name="Path 1373" d="M512.242,1612a1.21,1.21,0,1,1,1.2,1.221A1.21,1.21,0,0,1,512.242,1612Z" transform="translate(-491.18 -1527.925)" fill="#f99746"/>
            <g id="Group_818" data-name="Group 818" transform="translate(65.859 17.414)">
              <path id="Path_1374" data-name="Path 1374" d="M1233.457,580.224l-.081.028-4.894,1.256a4.046,4.046,0,0,1-4.945-2.587l-.291-1.012a3.752,3.752,0,0,1,2.627-4.524l1.616-.415,3.278-.841a4.045,4.045,0,0,1,4.945,2.587l.291,1.012A3.744,3.744,0,0,1,1233.457,580.224Z" transform="translate(-1223.112 -571.991)" fill="#ffb27d"/>
              <path id="Path_1375" data-name="Path 1375" d="M1283.414,607.2l-2.377,1.072-.015,0a2.532,2.532,0,0,1-.288.059c-.04.006-.08.011-.12.015a.331.331,0,0,1-.05,0,.378.378,0,0,1-.328-.535,2.364,2.364,0,0,0,.135-1.612l-.057-.207a.017.017,0,0,0,0-.006l-.184-.675a2.531,2.531,0,0,0-.862-1.314c-.049-.04-.1-.077-.151-.112a.683.683,0,0,1,.2-1.216l.015,0,2.609-.395a1.242,1.242,0,0,1,1.442.966l.21.769.446,1.64C1284.212,606.3,1284.059,607.026,1283.414,607.2Z" transform="translate(-1275.312 -600.334)" fill="#ffd3b6"/>
              <path id="Path_1376" data-name="Path 1376" d="M1289.992,622.988l-2.377,1.072-.015,0c-.056.011-.23.04-.458.075a.378.378,0,0,1-.328-.534,2.365,2.365,0,0,0,.135-1.612l-.057-.207a.017.017,0,0,0,0-.006l-.184-.675a2.531,2.531,0,0,0-.862-1.314.663.663,0,0,1,.374-.266l.015,0,2.609-.395a1.187,1.187,0,0,1,1.327.673l.446,1.64C1290.79,622.083,1290.637,622.813,1289.992,622.988Z" transform="translate(-1281.89 -616.12)" fill="#ffc197"/>
            </g>
            <path id="Path_1377" data-name="Path 1377" d="M682.314,702.071s-1.068-9.32-2.053-11.137-1.819-5.457-.3-8.161S682,674.864,682,674.864c.588,5.94-1.18,10.349.06,11.517.046.043.132.023.253-.055Z" transform="translate(-647.548 -650.967)" fill="#d38254"/>
          </g>
        </g>
      </g>
      <g id="Group_823" data-name="Group 823" transform="translate(306.892 138.869)">
        <rect id="Rectangle_111" data-name="Rectangle 111" width="10.713" height="5.748" transform="translate(0 8.339)" fill="#dfebfd" opacity="0.5"/>
        <g id="Group_822" data-name="Group 822" transform="translate(0)">
          <rect id="Rectangle_112" data-name="Rectangle 112" width="10.713" height="5.748" fill="#dfebfd" opacity="0.5"/>
          <rect id="Rectangle_113" data-name="Rectangle 113" width="10.713" height="5.748" transform="translate(13.654)" fill="#dfebfd" opacity="0.5"/>
          <rect id="Rectangle_114" data-name="Rectangle 114" width="10.713" height="5.748" transform="translate(13.654 8.339)" fill="#dfebfd" opacity="0.5"/>
          <rect id="Rectangle_115" data-name="Rectangle 115" width="10.713" height="5.748" transform="translate(13.654 15.922)" fill="#dfebfd" opacity="0.5"/>
          <rect id="Rectangle_116" data-name="Rectangle 116" width="10.713" height="5.748" transform="translate(0 16.678)" fill="#dfebfd" opacity="0.5"/>
        </g>
      </g>
    </g>
    <g id="Group_802" data-name="Group 802" transform="translate(-853.159 -96.153)">
      <path id="Path_1288" data-name="Path 1288" d="M1113.738,223.161c4.6,0,9.2-.022,13.8.006a11.748,11.748,0,0,1,11.02,8.086,11.876,11.876,0,0,1,.6,3.7c0,5.47.006,10.941,0,16.411a11.8,11.8,0,0,1-10.288,11.713,14.409,14.409,0,0,1-1.853.107q-7.566.012-15.132,0a1.3,1.3,0,0,0-1.021.413q-4.955,5-9.935,9.967c-.088.088-.176.174-.263.262a.843.843,0,0,1-1.006.253.891.891,0,0,1-.533-.9q0-1.992,0-3.983c0-1.823-.021-3.647.014-5.47.009-.494-.127-.666-.616-.717a11.02,11.02,0,0,1-5.888-2.454,11.269,11.269,0,0,1-4.431-8.914c-.072-5.611-.045-11.224,0-16.836a11.82,11.82,0,0,1,10.036-11.514,13.386,13.386,0,0,1,2.01-.132Q1106.995,223.168,1113.738,223.161Zm-8.576,22.542a2.534,2.534,0,0,0,2.557-2.556,2.548,2.548,0,1,0-5.1.039A2.531,2.531,0,0,0,1105.162,245.7Zm8.476,0a2.536,2.536,0,0,0,2.575-2.537,2.547,2.547,0,1,0-5.094,0A2.531,2.531,0,0,0,1113.638,245.7Zm8.534,0a2.534,2.534,0,0,0,2.54-2.573,2.549,2.549,0,1,0-5.1.073A2.531,2.531,0,0,0,1122.172,245.7Z" transform="translate(0)" fill="#6069fe"/>
      <path id="Path_1289" data-name="Path 1289" d="M1268.088,382.35" transform="translate(-154.45 -136.648)" fill="#fcfcfe"/>
      <path id="Path_1290" data-name="Path 1290" d="M1268.461,346.378" transform="translate(-154.77 -105.771)" fill="#fcfcfe"/>
    </g>
  </g>
</svg>
