<svg xmlns="http://www.w3.org/2000/svg" width="25.437" height="25.425" viewBox="0 0 25.437 25.425">
  <g id="Group_18315" data-name="Group 18315" transform="translate(-110.74 -233.817)">
    <path id="Path_75109" data-name="Path 75109" d="M133.048,259.242H112.633c-.02-.075-.094-.064-.142-.076a2.383,2.383,0,0,1-1.751-2.408c.014-4.511.006-9.023.006-13.534a2.616,2.616,0,0,1,.083-.737,2.289,2.289,0,0,1,2.311-1.734c.571-.007,1.142,0,1.713,0a.693.693,0,0,0,.373-.1q1.421-.833,2.845-1.661,4.11-2.393,8.22-4.787a2.332,2.332,0,0,1,2.2-.2,2.449,2.449,0,0,1,1.166,1.1q1.561,2.731,3.12,5.463a.421.421,0,0,0,.343.235,2.1,2.1,0,0,1,1.065.491,2.324,2.324,0,0,1,.838,1.88c0,1.076,0,2.152,0,3.228a.292.292,0,0,0,.194.317,1.663,1.663,0,0,1,.908,1.116c.012.043-.013.1.054.123v4.073c-.08.053-.061.147-.087.221a1.623,1.623,0,0,1-.85.986.337.337,0,0,0-.218.375c.007,1.059.005,2.117,0,3.176a2.374,2.374,0,0,1-.957,2A3.526,3.526,0,0,1,133.048,259.242ZM122.892,241.9h-9.683a1.181,1.181,0,0,0-1.311,1.3q0,6.79,0,13.581a1.185,1.185,0,0,0,1.312,1.3h19.341a1.176,1.176,0,0,0,1.309-1.3c0-1.026-.007-2.053.007-3.079,0-.217-.066-.25-.263-.251-1.183,0-2.368.059-3.549-.026a3.462,3.462,0,0,1,.379-6.908q1.614-.01,3.228,0c.163,0,.2-.042.2-.2-.007-1.051,0-2.1-.006-3.153a1.673,1.673,0,0,0-.043-.417,1.154,1.154,0,0,0-1.216-.851Zm9.385,10.382v.016h1.985c.555,0,.761-.206.762-.76q0-1.551,0-3.1c0-.547-.216-.762-.765-.762-1.232,0-2.465,0-3.7,0a3.014,3.014,0,0,0-.878.125,2.3,2.3,0,0,0,.51,4.475C130.887,252.313,131.583,252.286,132.278,252.286Zm-14.836-11.535c.705,0,1.4,0,2.1,0a.445.445,0,0,0,.228-.086q4.312-2.51,8.626-5.016c.17-.1.15-.165.043-.288a1.154,1.154,0,0,0-1.528-.181q-4.666,2.714-9.329,5.432C117.535,240.643,117.457,240.65,117.442,240.751Zm4.568,0c.693,0,1.364,0,2.034,0a.529.529,0,0,0,.282-.069q2.621-1.529,5.246-3.051c.127-.074.13-.132.058-.246a6,6,0,0,1-.355-.624c-.087-.183-.162-.2-.345-.1q-3.365,1.975-6.739,3.933C122.131,240.634,122.051,240.648,122.009,240.751Zm4.586-.012a.37.37,0,0,0,.065.012c1.561,0,3.123,0,4.684,0,.194,0,.183-.056.1-.191-.351-.606-.7-1.212-1.042-1.825-.088-.158-.149-.182-.313-.085-1.113.66-2.234,1.306-3.351,1.959C126.692,240.644,126.617,240.652,126.6,240.739Z" fill="#090202"/>
    <path id="Path_75117" data-name="Path 75117" d="M384.42,457.481a1.151,1.151,0,1,1,1.169-1.133A1.164,1.164,0,0,1,384.42,457.481Z" transform="translate(-254.036 -206.334)" fill="#090202"/>
  </g>
</svg>
