<svg xmlns="http://www.w3.org/2000/svg" width="32.995" height="26.422" viewBox="0 0 32.995 26.422">
  <g id="Group_16012" data-name="Group 16012" transform="translate(-392.302 -1074.191)">
    <path id="Path_72122" data-name="Path 72122" d="M407.492,1100.612q-6.309,0-12.618,0a2.423,2.423,0,0,1-2.483-1.8,3.075,3.075,0,0,1-.088-.823q0-8.616,0-17.232a2.41,2.41,0,0,1,2.6-2.616h13.664a2.407,2.407,0,0,1,.324.008.655.655,0,0,1,0,1.3,3.147,3.147,0,0,1-.4.008H394.968c-.947,0-1.334.387-1.335,1.331,0,.337.017.676-.006,1.011-.017.257.071.318.32.317,1.778-.011,3.557-.006,5.336-.006h9.193c.12,0,.241,0,.36,0a.636.636,0,0,1,.605.6.655.655,0,0,1-.545.7,2.513,2.513,0,0,1-.4.011q-7.246,0-14.493-.009c-.326,0-.383.088-.383.394q.016,7.063.007,14.125c0,.974.373,1.344,1.353,1.344h24.948c1.016,0,1.389-.374,1.389-1.392q0-3.36,0-6.719c0-.1.067-.236-.051-.293-.089-.043-.17.063-.25.111-.844.505-1.691,1.006-2.529,1.522a.806.806,0,0,1-.937,0c-1.062-.654-2.145-1.274-3.2-1.935a7.2,7.2,0,0,1-3.581-6.358c-.029-2.191-.007-4.383-.005-6.575a.728.728,0,0,1,.578-.839q3.151-1.265,6.3-2.531a.921.921,0,0,1,.73-.012q3.183,1.282,6.369,2.555a.732.732,0,0,1,.533.729c-.019,2.444.085,4.891-.047,7.332a6.886,6.886,0,0,1-2.346,4.8.7.7,0,0,0-.252.584c.008,2.565.005,5.13.005,7.695a2.437,2.437,0,0,1-2.671,2.659Zm16.45-19.11h.005c0-1.1,0-2.191,0-3.286a.355.355,0,0,0-.254-.4q-2.74-1.083-5.469-2.19a.5.5,0,0,0-.408,0q-2.746,1.111-5.5,2.206a.305.305,0,0,0-.232.338c.008,2.094-.027,4.189.018,6.282a5.677,5.677,0,0,0,2.692,4.83c.99.654,2.028,1.233,3.04,1.853a.293.293,0,0,0,.355.01c1.033-.633,2.1-1.217,3.1-1.894a5.741,5.741,0,0,0,2.642-4.789C423.969,1083.477,423.942,1082.49,423.942,1081.5Z" fill="#707070"/>
    <path id="Path_72123" data-name="Path 72123" d="M436.7,1293.456c.828,0,1.655,0,2.482,0,.484,0,.786.253.791.645s-.311.672-.808.673q-2.5,0-5,0c-.474,0-.781-.261-.79-.654s.295-.661.771-.664C435,1293.453,435.847,1293.456,436.7,1293.456Z" transform="translate(-37.113 -198.131)" fill="#707070"/>
    <path id="Path_72125" data-name="Path 72125" d="M625.571,1140.949a.816.816,0,0,1,.54.268c.337.343.69.671,1.014,1.026.165.181.255.16.416-.005.891-.91,1.8-1.809,2.7-2.71a1.11,1.11,0,0,1,.334-.269.654.654,0,0,1,.764,1.03c-.232.26-.487.5-.733.745q-1.337,1.341-2.675,2.68c-.442.442-.747.44-1.193,0q-.8-.8-1.6-1.608a.634.634,0,0,1-.153-.759A.668.668,0,0,1,625.571,1140.949Z" transform="translate(-210.19 -58.736)" fill="#707070"/>
  </g>
</svg>
