<svg xmlns="http://www.w3.org/2000/svg" width="215.311" height="191.389" viewBox="0 0 215.311 191.389">
  <g id="Group_15827" data-name="Group 15827" transform="translate(-75.86 -99.306)">
    <g id="Background_Complete" data-name="Background Complete" transform="translate(75.86 114.625)">
      <g id="Group_15788" data-name="Group 15788">
        <g id="Group_15780" data-name="Group 15780" transform="translate(0 29.644)">
          <rect id="Rectangle_8647" data-name="Rectangle 8647" width="85.611" height="125.517" transform="translate(14.77)" fill="#f0f0f0"/>
          <g id="Group_15776" data-name="Group 15776" transform="translate(17.796 3.951)">
            <rect id="Rectangle_8648" data-name="Rectangle 8648" width="79.559" height="23.182" fill="#e0e0e0"/>
            <rect id="Rectangle_8649" data-name="Rectangle 8649" width="4.519" height="19.429" transform="translate(0 3.753)" fill="#ebebeb"/>
            <rect id="Rectangle_8650" data-name="Rectangle 8650" width="4.519" height="19.429" transform="translate(21.853 3.753)" fill="#ebebeb"/>
            <rect id="Rectangle_8651" data-name="Rectangle 8651" width="4.52" height="19.429" transform="translate(46.728 4.035) rotate(-9.779)" fill="#ebebeb"/>
            <rect id="Rectangle_8652" data-name="Rectangle 8652" width="4.519" height="16.868" transform="translate(5.6 6.313)" fill="#ebebeb"/>
            <rect id="Rectangle_8653" data-name="Rectangle 8653" width="4.519" height="16.868" transform="translate(15.988 6.313)" fill="#ebebeb"/>
            <rect id="Rectangle_8654" data-name="Rectangle 8654" width="4.519" height="16.868" transform="translate(42.208 6.313)" fill="#ebebeb"/>
            <rect id="Rectangle_8655" data-name="Rectangle 8655" width="4.519" height="16.868" transform="translate(27.897 6.715) rotate(-12.528)" fill="#ebebeb"/>
            <rect id="Rectangle_8656" data-name="Rectangle 8656" width="2.26" height="20.393" transform="translate(11.768 2.788)" fill="#ebebeb"/>
            <rect id="Rectangle_8657" data-name="Rectangle 8657" width="2.26" height="20.393" transform="translate(38.649 2.788)" fill="#ebebeb"/>
          </g>
          <g id="Group_15777" data-name="Group 15777" transform="translate(17.796 30.803)">
            <rect id="Rectangle_8658" data-name="Rectangle 8658" width="79.559" height="23.182" transform="translate(79.559 23.182) rotate(180)" fill="#e0e0e0"/>
            <rect id="Rectangle_8659" data-name="Rectangle 8659" width="4.519" height="19.429" transform="translate(79.559 23.182) rotate(180)" fill="#ebebeb"/>
            <rect id="Rectangle_8660" data-name="Rectangle 8660" width="4.519" height="19.429" transform="translate(57.705 23.182) rotate(180)" fill="#ebebeb"/>
            <rect id="Rectangle_8661" data-name="Rectangle 8661" width="4.519" height="19.429" transform="matrix(-0.985, -0.17, 0.17, -0.985, 29.531, 23.182)" fill="#ebebeb"/>
            <rect id="Rectangle_8662" data-name="Rectangle 8662" width="4.52" height="16.868" transform="translate(73.959 23.182) rotate(180)" fill="#ebebeb"/>
            <rect id="Rectangle_8663" data-name="Rectangle 8663" width="4.52" height="16.868" transform="translate(63.571 23.182) rotate(180)" fill="#ebebeb"/>
            <rect id="Rectangle_8664" data-name="Rectangle 8664" width="4.519" height="16.868" transform="translate(37.35 23.182) rotate(180)" fill="#ebebeb"/>
            <rect id="Rectangle_8665" data-name="Rectangle 8665" width="4.519" height="16.868" transform="matrix(-0.976, -0.217, 0.217, -0.976, 48.003, 23.182)" fill="#ebebeb"/>
            <rect id="Rectangle_8666" data-name="Rectangle 8666" width="2.26" height="20.393" transform="translate(67.791 23.182) rotate(180)" fill="#ebebeb"/>
            <rect id="Rectangle_8667" data-name="Rectangle 8667" width="2.26" height="20.393" transform="translate(40.909 23.182) rotate(180)" fill="#ebebeb"/>
            <rect id="Rectangle_8668" data-name="Rectangle 8668" width="4.519" height="19.429" transform="translate(0 3.753)" fill="#ebebeb"/>
            <rect id="Rectangle_8669" data-name="Rectangle 8669" width="4.519" height="16.868" transform="translate(5.6 6.313)" fill="#ebebeb"/>
            <rect id="Rectangle_8670" data-name="Rectangle 8670" width="4.519" height="16.868" transform="translate(15.988 6.313)" fill="#ebebeb"/>
            <rect id="Rectangle_8671" data-name="Rectangle 8671" width="2.26" height="20.393" transform="translate(11.768 2.788)" fill="#ebebeb"/>
          </g>
          <g id="Group_15779" data-name="Group 15779" transform="translate(17.508 57.656)">
            <rect id="Rectangle_8672" data-name="Rectangle 8672" width="79.559" height="23.182" transform="translate(0.287)" fill="#e0e0e0"/>
            <g id="Group_15778" data-name="Group 15778" transform="translate(0 2.788)">
              <rect id="Rectangle_8673" data-name="Rectangle 8673" width="4.519" height="19.429" transform="translate(45.951 0.965)" fill="#ebebeb"/>
              <rect id="Rectangle_8674" data-name="Rectangle 8674" width="4.52" height="19.429" transform="translate(70.826 1.247) rotate(-9.779)" fill="#ebebeb"/>
              <rect id="Rectangle_8675" data-name="Rectangle 8675" width="4.519" height="16.868" transform="translate(29.698 3.525)" fill="#ebebeb"/>
              <rect id="Rectangle_8676" data-name="Rectangle 8676" width="4.519" height="16.868" transform="translate(40.086 3.525)" fill="#ebebeb"/>
              <rect id="Rectangle_8677" data-name="Rectangle 8677" width="4.519" height="16.868" transform="translate(66.306 3.525)" fill="#ebebeb"/>
              <rect id="Rectangle_8678" data-name="Rectangle 8678" width="4.519" height="16.869" transform="translate(51.995 3.927) rotate(-12.527)" fill="#ebebeb"/>
              <rect id="Rectangle_8679" data-name="Rectangle 8679" width="2.26" height="20.393" transform="translate(35.866)" fill="#ebebeb"/>
              <rect id="Rectangle_8680" data-name="Rectangle 8680" width="2.26" height="20.393" transform="translate(62.747)" fill="#ebebeb"/>
              <rect id="Rectangle_8681" data-name="Rectangle 8681" width="4.519" height="19.429" transform="translate(18.831 1.247) rotate(-9.779)" fill="#ebebeb"/>
              <rect id="Rectangle_8682" data-name="Rectangle 8682" width="4.519" height="16.868" transform="translate(14.311 3.525)" fill="#ebebeb"/>
              <rect id="Rectangle_8683" data-name="Rectangle 8683" width="4.519" height="16.869" transform="translate(0 3.927) rotate(-12.527)" fill="#ebebeb"/>
              <rect id="Rectangle_8684" data-name="Rectangle 8684" width="2.26" height="20.393" transform="translate(10.752)" fill="#ebebeb"/>
            </g>
          </g>
          <rect id="Rectangle_8685" data-name="Rectangle 8685" width="14.77" height="125.846" transform="translate(14.77 125.846) rotate(180)" fill="#e0e0e0"/>
        </g>
        <g id="Group_15782" data-name="Group 15782" transform="translate(108.644 94.359)">
          <path id="Path_71884" data-name="Path 71884" d="M317.174,339.053H304.626l6.6-53.728a4.791,4.791,0,0,1,4.623-4.118H370.6l-8.027,57.846Z" transform="translate(-275.334 -281.207)" fill="#f5f5f5"/>
          <path id="Path_71885" data-name="Path 71885" d="M391.443,339.053h12.549l6.6-53.728a3.566,3.566,0,0,0-3.613-4.118h-4.312a4.791,4.791,0,0,0-4.623,4.118Z" transform="translate(-309.804 -281.207)" fill="#f0f0f0"/>
          <g id="Group_15781" data-name="Group 15781" transform="translate(73.361 18.078)">
            <path id="Path_71886" data-name="Path 71886" d="M381.369,350.894l2.274-25.987a2.477,2.477,0,0,1,2.154-2.241l.935-.119a3.323,3.323,0,0,0,2.89-3.006l.414-4.739a3.322,3.322,0,0,0-3.31-3.612H407.7a3.323,3.323,0,0,1,3.31,3.612l-.414,4.739a3.323,3.323,0,0,1-2.89,3.006l-.935.119a2.477,2.477,0,0,0-2.154,2.241l-2.273,25.987a3.668,3.668,0,0,1-3.654,3.348H377.715A3.667,3.667,0,0,0,381.369,350.894Z" transform="translate(-377.715 -311.189)" fill="#e6e6e6"/>
          </g>
          <path id="Path_71887" data-name="Path 71887" d="M282.878,318.4a7.9,7.9,0,0,0-7.87-7.212h18.257a7.9,7.9,0,0,1,7.871,7.212l1.8,20.6H284.681Z" transform="translate(-263.574 -293.111)" fill="#e6e6e6"/>
          <path id="Path_71888" data-name="Path 71888" d="M259.369,311.189h8.11a7.9,7.9,0,0,1,7.87,7.212l1.8,20.6h43.483l1.8-20.6a7.9,7.9,0,0,1,7.87-7.212h8.11a3.322,3.322,0,0,1,3.31,3.612l-.414,4.739a3.323,3.323,0,0,1-2.89,3.006l-.935.119a2.477,2.477,0,0,0-2.154,2.241l-2.273,25.987a3.668,3.668,0,0,1-3.655,3.348H268.379a3.668,3.668,0,0,1-3.654-3.348l-2.274-25.987a2.476,2.476,0,0,0-2.154-2.241l-.935-.119a3.323,3.323,0,0,1-2.889-3.006l-.415-4.739A3.323,3.323,0,0,1,259.369,311.189Z" transform="translate(-256.046 -293.111)" fill="#f0f0f0"/>
        </g>
        <g id="Group_15786" data-name="Group 15786" transform="translate(9.748)">
          <path id="Path_71889" data-name="Path 71889" d="M98.136,148.086s-.668-4.4,2.544-7.226,2.929-4.5,2.012-4.722-1.765,2.6-3.176,3.381c0,0-.045-4.023,1.389-5.506s2.186-5.3.822-5.368-1.506,2.268-1.788,3.924a13.927,13.927,0,0,1-1.8,3.986s-.3-3.6-1.223-5.082,1.544-4.871.591-6.353S94.857,126.46,95,129.636s2.259,6.564,1.765,9.882c0,0-.935-2.329-1.773-2.541s-1.686-1.753-2.25-2.323-1.27,1.405,0,3.241,4.517,6.745,4.024,10.713Z" transform="translate(-92.027 -124.713)" fill="#e6e6e6"/>
          <path id="Path_71890" data-name="Path 71890" d="M100.9,160.155l1.052,6.6a3.356,3.356,0,0,1-3.314,3.884H97.52a3.356,3.356,0,0,1-3.314-3.884l1.052-6.6Z" transform="translate(-92.875 -138.785)" fill="#e6e6e6"/>
          <rect id="Rectangle_8686" data-name="Rectangle 8686" width="3.275" height="14.08" transform="translate(74.441 30.558) rotate(180)" fill="#ebebeb"/>
          <rect id="Rectangle_8687" data-name="Rectangle 8687" width="3.275" height="14.08" transform="translate(58.605 30.558) rotate(180)" fill="#ebebeb"/>
          <rect id="Rectangle_8688" data-name="Rectangle 8688" width="3.275" height="14.08" transform="translate(38.187 30.558) rotate(-170.221)" fill="#ebebeb"/>
          <rect id="Rectangle_8689" data-name="Rectangle 8689" width="3.275" height="12.224" transform="translate(70.383 30.558) rotate(180)" fill="#ebebeb"/>
          <rect id="Rectangle_8690" data-name="Rectangle 8690" width="3.275" height="12.224" transform="translate(62.855 30.558) rotate(180)" fill="#ebebeb"/>
          <rect id="Rectangle_8691" data-name="Rectangle 8691" width="3.275" height="12.224" transform="translate(43.854 30.558) rotate(180)" fill="#ebebeb"/>
          <rect id="Rectangle_8692" data-name="Rectangle 8692" width="3.275" height="12.224" transform="translate(51.573 30.558) rotate(-167.473)" fill="#ebebeb"/>
          <rect id="Rectangle_8693" data-name="Rectangle 8693" width="1.638" height="14.779" transform="translate(65.913 30.558) rotate(180)" fill="#ebebeb"/>
          <rect id="Rectangle_8694" data-name="Rectangle 8694" width="1.638" height="14.779" transform="translate(46.433 30.558) rotate(180)" fill="#ebebeb"/>
          <g id="Group_15783" data-name="Group 15783" transform="translate(17.155 19.383)">
            <rect id="Rectangle_8695" data-name="Rectangle 8695" width="15.958" height="11.018" fill="#ebebeb"/>
          </g>
          <g id="Group_15784" data-name="Group 15784" transform="translate(74.484 23.895)">
            <rect id="Rectangle_8696" data-name="Rectangle 8696" width="13.369" height="8.225" fill="#ebebeb"/>
          </g>
          <g id="Group_15785" data-name="Group 15785" transform="translate(78.043 16.665)">
            <rect id="Rectangle_8697" data-name="Rectangle 8697" width="6.685" height="8.225" fill="#ebebeb"/>
          </g>
        </g>
        <g id="Group_15787" data-name="Group 15787" transform="translate(143.097 5.782)">
          <rect id="Rectangle_8698" data-name="Rectangle 8698" width="15.9" height="66.256" transform="translate(47.186)" fill="#e0e0e0"/>
          <rect id="Rectangle_8699" data-name="Rectangle 8699" width="59.462" height="66.431" transform="translate(61.38 66.431) rotate(180)" fill="#e0e0e0"/>
          <rect id="Rectangle_8700" data-name="Rectangle 8700" width="61.695" height="66.431" transform="translate(61.695 66.431) rotate(180)" fill="#f0f0f0"/>
          <rect id="Rectangle_8701" data-name="Rectangle 8701" width="56.524" height="61.259" transform="translate(59.159 63.378) rotate(180)" fill="#fff"/>
          <rect id="Rectangle_8702" data-name="Rectangle 8702" width="1.049" height="61.259" transform="translate(3.684 63.378) rotate(180)" fill="#e0e0e0"/>
          <rect id="Rectangle_8703" data-name="Rectangle 8703" width="1.652" height="55.798" transform="translate(3.507 47.823) rotate(-90)" fill="#e0e0e0"/>
          <rect id="Rectangle_8704" data-name="Rectangle 8704" width="57.41" height="2.773" transform="translate(60.045 46.171) rotate(180)" fill="#f0f0f0"/>
        </g>
      </g>
    </g>
    <g id="Interface" transform="translate(111.953 131.575)">
      <g id="Group_15800" data-name="Group 15800">
        <rect id="Rectangle_8705" data-name="Rectangle 8705" width="116.703" height="135.848" rx="7.316" fill="#407bff"/>
        <rect id="Rectangle_8706" data-name="Rectangle 8706" width="116.703" height="135.848" rx="7.316" fill="#fff" opacity="0.6" style="isolation: isolate"/>
        <g id="Group_15790" data-name="Group 15790" transform="translate(18.907 62.299)">
          <rect id="Rectangle_8707" data-name="Rectangle 8707" width="78.889" height="13.508" fill="#fff"/>
          <g id="Group_15789" data-name="Group 15789" transform="translate(4.317 4.319)" opacity="0.4">
            <path id="Path_71891" data-name="Path 71891" d="M176.974,267.212v.354h-2.737V263.7h2.654v.354h-2.245v1.377h2v.349h-2v1.437Z" transform="translate(-174.237 -263.463)" fill="#263238"/>
            <path id="Path_71892" data-name="Path 71892" d="M179.694,267.346h1.449v.342h-1.449Z" transform="translate(-176.404 -264.912)" fill="#263238"/>
            <path id="Path_71893" data-name="Path 71893" d="M188.355,266.5v1.686h-.393v-1.648c0-.614-.31-.929-.835-.929a.935.935,0,0,0-.973,1.05v1.526h-.393v-1.648c0-.614-.31-.929-.841-.929a.937.937,0,0,0-.973,1.05v1.526h-.393v-2.909h.376v.531a1.177,1.177,0,0,1,1.067-.553,1.045,1.045,0,0,1,1.034.613,1.268,1.268,0,0,1,1.15-.613A1.1,1.1,0,0,1,188.355,266.5Z" transform="translate(-177.937 -264.082)" fill="#263238"/>
            <path id="Path_71894" data-name="Path 71894" d="M195.32,266.383v1.8h-.376v-.453a1.092,1.092,0,0,1-1,.481c-.658,0-1.062-.343-1.062-.846,0-.448.288-.824,1.123-.824h.923v-.177c0-.5-.282-.769-.824-.769a1.479,1.479,0,0,0-.968.343l-.177-.294a1.849,1.849,0,0,1,1.184-.392A1.033,1.033,0,0,1,195.32,266.383Zm-.393.929v-.476h-.912c-.564,0-.746.221-.746.52,0,.338.271.547.736.547A.93.93,0,0,0,194.928,267.312Z" transform="translate(-181.64 -264.082)" fill="#263238"/>
            <path id="Path_71895" data-name="Path 71895" d="M198.55,263.587a.284.284,0,0,1,.287-.277.279.279,0,1,1,0,.558A.284.284,0,0,1,198.55,263.587Zm.088.918h.393v2.909h-.393Z" transform="translate(-183.89 -263.31)" fill="#263238"/>
            <path id="Path_71896" data-name="Path 71896" d="M201.163,263.31h.393v4.1h-.393Z" transform="translate(-184.928 -263.31)" fill="#263238"/>
          </g>
        </g>
        <g id="Group_15792" data-name="Group 15792" transform="translate(18.907 80.752)">
          <rect id="Rectangle_8708" data-name="Rectangle 8708" width="78.889" height="13.508" fill="#fff"/>
          <g id="Group_15791" data-name="Group 15791" transform="translate(4.317 4.339)" opacity="0.4">
            <path id="Path_71897" data-name="Path 71897" d="M177.267,295.659c0,.824-.6,1.322-1.582,1.322h-1.039V298.2h-.409v-3.87h1.449C176.671,294.333,177.267,294.83,177.267,295.659Zm-.409,0c0-.619-.409-.973-1.183-.973h-1.029v1.935h1.029C176.449,296.622,176.858,296.268,176.858,295.659Z" transform="translate(-174.237 -294.1)" fill="#263238"/>
            <path id="Path_71898" data-name="Path 71898" d="M182.582,297.02v1.8h-.376v-.453a1.092,1.092,0,0,1-1,.481c-.658,0-1.061-.343-1.061-.846,0-.448.288-.824,1.122-.824h.924V297c0-.5-.282-.768-.824-.768a1.488,1.488,0,0,0-.968.342l-.177-.292a1.845,1.845,0,0,1,1.183-.393A1.034,1.034,0,0,1,182.582,297.02Zm-.393.929v-.475h-.913c-.564,0-.746.221-.746.519,0,.337.271.547.735.547A.931.931,0,0,0,182.19,297.949Z" transform="translate(-176.582 -294.719)" fill="#263238"/>
            <path id="Path_71899" data-name="Path 71899" d="M185.289,298.491l.177-.309a1.76,1.76,0,0,0,1.034.326c.553,0,.78-.188.78-.476,0-.757-1.885-.16-1.885-1.31,0-.476.409-.83,1.15-.83a1.965,1.965,0,0,1,1.028.271l-.171.315a1.492,1.492,0,0,0-.857-.248c-.526,0-.758.2-.758.481,0,.785,1.885.193,1.885,1.31,0,.5-.442.83-1.2.83A1.944,1.944,0,0,1,185.289,298.491Z" transform="translate(-178.625 -294.719)" fill="#263238"/>
            <path id="Path_71900" data-name="Path 71900" d="M189.773,298.491l.177-.309a1.761,1.761,0,0,0,1.034.326c.554,0,.78-.188.78-.476,0-.757-1.886-.16-1.886-1.31,0-.476.409-.83,1.15-.83a1.963,1.963,0,0,1,1.028.271l-.171.315a1.492,1.492,0,0,0-.857-.248c-.526,0-.757.2-.757.481,0,.785,1.885.193,1.885,1.31,0,.5-.443.83-1.2.83A1.944,1.944,0,0,1,189.773,298.491Z" transform="translate(-180.405 -294.719)" fill="#263238"/>
            <path id="Path_71901" data-name="Path 71901" d="M198.773,295.929l-1.1,2.908h-.37l-.918-2.383-.918,2.383h-.37L194,295.929h.376l.913,2.471.935-2.471h.337l.929,2.471.923-2.471Z" transform="translate(-182.084 -294.734)" fill="#263238"/>
            <path id="Path_71902" data-name="Path 71902" d="M202.273,297.368a1.479,1.479,0,1,1,1.482,1.482A1.43,1.43,0,0,1,202.273,297.368Zm2.561,0a1.082,1.082,0,1,0-1.079,1.134A1.061,1.061,0,0,0,204.834,297.368Z" transform="translate(-185.369 -294.719)" fill="#263238"/>
            <path id="Path_71903" data-name="Path 71903" d="M209.975,295.892v.381c-.033,0-.066,0-.094,0a.94.94,0,0,0-.979,1.072v1.482h-.393v-2.908h.376v.569A1.1,1.1,0,0,1,209.975,295.892Z" transform="translate(-187.845 -294.719)" fill="#263238"/>
            <path id="Path_71904" data-name="Path 71904" d="M214.53,293.947v4.1h-.376v-.575a1.26,1.26,0,0,1-1.123.6,1.479,1.479,0,0,1,0-2.958,1.27,1.27,0,0,1,1.106.575v-1.748Zm-.387,2.649a1.082,1.082,0,1,0-1.079,1.134A1.064,1.064,0,0,0,214.143,296.6Z" transform="translate(-189.065 -293.947)" fill="#263238"/>
          </g>
        </g>
        <rect id="Rectangle_8709" data-name="Rectangle 8709" width="78.889" height="13.508" transform="translate(18.907 108.037)" opacity="0.2"/>
        <g id="Group_15793" data-name="Group 15793" transform="translate(36.273 99.847)" opacity="0.5">
          <path id="Path_71905" data-name="Path 71905" d="M197.7,320.591H196.41l-.277.617h-.254l1.057-2.312h.241l1.057,2.312h-.258Zm-.089-.2-.555-1.242-.555,1.242Z" transform="translate(-195.878 -318.609)"/>
          <path id="Path_71906" data-name="Path 71906" d="M200.34,318.667h.235v2.45h-.235Z" transform="translate(-197.65 -318.518)"/>
          <path id="Path_71907" data-name="Path 71907" d="M202.69,319.828v.228c-.02,0-.04,0-.056,0a.562.562,0,0,0-.585.642v.885h-.234v-1.737h.224v.34A.655.655,0,0,1,202.69,319.828Z" transform="translate(-198.235 -318.979)"/>
          <path id="Path_71908" data-name="Path 71908" d="M205.339,320.783h-1.453a.643.643,0,0,0,.684.6.686.686,0,0,0,.532-.228l.132.152a.919.919,0,0,1-1.582-.6.837.837,0,0,1,.849-.882.828.828,0,0,1,.842.882C205.342,320.729,205.339,320.756,205.339,320.783Zm-1.453-.175h1.232a.617.617,0,0,0-1.232,0Z" transform="translate(-198.964 -318.979)"/>
          <path id="Path_71909" data-name="Path 71909" d="M208.386,320.5v1.077h-.225v-.271a.652.652,0,0,1-.6.288c-.393,0-.634-.2-.634-.505,0-.268.171-.493.67-.493h.552v-.1c0-.3-.169-.459-.493-.459a.881.881,0,0,0-.578.2l-.106-.175a1.107,1.107,0,0,1,.707-.235A.617.617,0,0,1,208.386,320.5Zm-.235.555v-.284h-.545c-.337,0-.446.132-.446.311,0,.2.162.327.44.327A.556.556,0,0,0,208.151,321.057Z" transform="translate(-200.266 -318.979)"/>
          <path id="Path_71910" data-name="Path 71910" d="M211.885,318.667v2.45h-.224v-.343a.753.753,0,0,1-.671.36.884.884,0,0,1,0-1.767.759.759,0,0,1,.66.343v-1.043Zm-.231,1.582a.646.646,0,1,0-.644.677A.635.635,0,0,0,211.654,320.249Z" transform="translate(-201.534 -318.518)"/>
          <path id="Path_71911" data-name="Path 71911" d="M215.322,319.85l-.869,1.945c-.145.341-.33.449-.578.449a.594.594,0,0,1-.423-.158l.109-.175a.434.434,0,0,0,.317.131c.155,0,.261-.072.36-.291l.076-.168-.776-1.734h.244l.654,1.477.654-1.477Z" transform="translate(-202.856 -318.988)"/>
          <path id="Path_71912" data-name="Path 71912" d="M219.755,320.5v1.077h-.225v-.271a.652.652,0,0,1-.6.288c-.393,0-.634-.2-.634-.505,0-.268.172-.493.67-.493h.552v-.1c0-.3-.169-.459-.493-.459a.881.881,0,0,0-.578.2l-.106-.175a1.107,1.107,0,0,1,.707-.235A.617.617,0,0,1,219.755,320.5Zm-.235.555v-.284h-.545c-.337,0-.446.132-.446.311,0,.2.162.327.44.327A.556.556,0,0,0,219.52,321.057Z" transform="translate(-204.78 -318.979)"/>
          <path id="Path_71913" data-name="Path 71913" d="M226.076,320.571v1.008h-.235v-.984c0-.367-.185-.555-.5-.555a.558.558,0,0,0-.581.628v.911h-.235v-.984c0-.367-.185-.555-.5-.555a.56.56,0,0,0-.582.628v.911h-.235v-1.737h.225v.317a.7.7,0,0,1,.637-.33.625.625,0,0,1,.618.367.756.756,0,0,1,.687-.367A.655.655,0,0,1,226.076,320.571Z" transform="translate(-206.73 -318.979)"/>
          <path id="Path_71914" data-name="Path 71914" d="M230.434,320.783h-1.453a.643.643,0,0,0,.684.6.684.684,0,0,0,.531-.228l.133.152a.919.919,0,0,1-1.582-.6.837.837,0,0,1,.848-.882.828.828,0,0,1,.842.882C230.437,320.729,230.434,320.756,230.434,320.783Zm-1.453-.175h1.232a.617.617,0,0,0-1.232,0Z" transform="translate(-208.928 -318.979)"/>
          <path id="Path_71915" data-name="Path 71915" d="M235.214,320.571v1.008h-.235v-.984c0-.367-.185-.555-.5-.555a.559.559,0,0,0-.582.628v.911h-.234v-.984c0-.367-.185-.555-.5-.555a.56.56,0,0,0-.581.628v.911h-.235v-1.737h.225v.317a.7.7,0,0,1,.637-.33.624.624,0,0,1,.617.367.757.757,0,0,1,.687-.367A.656.656,0,0,1,235.214,320.571Z" transform="translate(-210.358 -318.979)"/>
          <path id="Path_71916" data-name="Path 71916" d="M239.924,320.249a.843.843,0,0,1-.865.885.752.752,0,0,1-.67-.36v.343h-.225v-2.45h.235v1.043a.76.76,0,0,1,.661-.343A.841.841,0,0,1,239.924,320.249Zm-.235,0a.648.648,0,1,0-.648.677A.638.638,0,0,0,239.689,320.249Z" transform="translate(-212.667 -318.518)"/>
          <path id="Path_71917" data-name="Path 71917" d="M243.277,320.783h-1.453a.642.642,0,0,0,.683.6.684.684,0,0,0,.532-.228l.132.152a.919.919,0,0,1-1.582-.6.837.837,0,0,1,.849-.882.828.828,0,0,1,.842.882C243.28,320.729,243.277,320.756,243.277,320.783Zm-1.453-.175h1.231a.617.617,0,0,0-1.231,0Z" transform="translate(-214.027 -318.979)"/>
          <path id="Path_71918" data-name="Path 71918" d="M246.065,319.828v.228c-.02,0-.04,0-.056,0a.562.562,0,0,0-.585.642v.885h-.235v-1.737h.225v.34A.655.655,0,0,1,246.065,319.828Z" transform="translate(-215.457 -318.979)"/>
          <path id="Path_71919" data-name="Path 71919" d="M248.282,319.475c0-.238-.195-.4-.532-.4a.768.768,0,0,0-.631.268l-.175-.132a1.008,1.008,0,0,1,.822-.344c.462,0,.76.221.76.575,0,.565-.6.592-.6,1.064h-.244C247.678,319.957,248.282,319.908,248.282,319.475Zm-.654,1.565a.173.173,0,0,1,.347,0,.173.173,0,0,1-.347,0Z" transform="translate(-216.154 -318.596)"/>
          <path id="Path_71920" data-name="Path 71920" d="M251.872,318.9h.535v1.876h1.159v.435h-1.694Z" transform="translate(-218.11 -318.609)"/>
          <path id="Path_71921" data-name="Path 71921" d="M254.882,320.655a.978.978,0,1,1,.977.915A.915.915,0,0,1,254.882,320.655Zm1.43,0a.455.455,0,1,0-.453.492A.449.449,0,0,0,256.312,320.655Z" transform="translate(-219.305 -318.944)"/>
          <path id="Path_71922" data-name="Path 71922" d="M260.438,319.767v1.48a.87.87,0,0,1-1,.965,1.468,1.468,0,0,1-.872-.244l.205-.37a1.061,1.061,0,0,0,.628.2c.364,0,.522-.165.522-.485v-.076a.729.729,0,0,1-.561.221.859.859,0,1,1,0-1.718.714.714,0,0,1,.588.254v-.228Zm-.509.833a.468.468,0,1,0-.465.436A.432.432,0,0,0,259.929,320.6Z" transform="translate(-220.731 -318.944)"/>
          <path id="Path_71923" data-name="Path 71923" d="M263.976,318.708a.3.3,0,0,1,.32-.288.289.289,0,0,1,.321.278.322.322,0,0,1-.641.01Zm.063.535h.516v1.777h-.516Z" transform="translate(-222.916 -318.42)"/>
          <path id="Path_71924" data-name="Path 71924" d="M267.547,320.526v1.017h-.516v-.938c0-.288-.132-.42-.36-.42-.248,0-.426.152-.426.479v.879h-.515v-1.777h.492v.209a.778.778,0,0,1,.588-.235A.7.7,0,0,1,267.547,320.526Z" transform="translate(-223.612 -318.944)"/>
        </g>
        <rect id="Rectangle_8710" data-name="Rectangle 8710" width="78.889" height="13.508" transform="translate(18.907 107.21)" fill="#6269fe"/>
        <g id="Group_15794" data-name="Group 15794" transform="translate(45.074 111.062)">
          <path id="Path_71925" data-name="Path 71925" d="M213.566,342.269l-1-1.421c-.093.007-.192.013-.291.013h-1.143v1.408h-.66v-4.624h1.8c1.2,0,1.929.607,1.929,1.611a1.46,1.46,0,0,1-1.018,1.46l1.1,1.553Zm-.02-3.013c0-.66-.443-1.036-1.288-1.036h-1.123V340.3h1.123C213.1,340.3,213.546,339.917,213.546,339.256Z" transform="translate(-210.475 -337.268)" fill="#fff"/>
          <path id="Path_71926" data-name="Path 71926" d="M221.229,341.447h-2.841a1.186,1.186,0,0,0,1.269,1.024,1.309,1.309,0,0,0,1.011-.423l.35.409a1.908,1.908,0,0,1-3.264-1.222,1.715,1.715,0,0,1,1.758-1.784,1.688,1.688,0,0,1,1.73,1.8C221.242,341.308,221.235,341.387,221.229,341.447Zm-2.841-.456h2.246a1.13,1.13,0,0,0-2.246,0Z" transform="translate(-213.365 -337.986)" fill="#fff"/>
          <path id="Path_71927" data-name="Path 71927" d="M228.137,339.485v3.025a1.591,1.591,0,0,1-1.817,1.8,2.59,2.59,0,0,1-1.671-.522l.3-.489a2.136,2.136,0,0,0,1.348.456c.825,0,1.2-.383,1.2-1.176V342.3a1.6,1.6,0,0,1-1.262.541,1.7,1.7,0,1,1,0-3.389,1.6,1.6,0,0,1,1.3.575v-.541Zm-.622,1.658a1.207,1.207,0,1,0-1.2,1.143A1.117,1.117,0,0,0,227.516,341.143Z" transform="translate(-216.029 -337.986)" fill="#fff"/>
          <path id="Path_71928" data-name="Path 71928" d="M232.379,337.436a.418.418,0,0,1,.429-.416.41.41,0,0,1,.429.4.43.43,0,0,1-.859.013Zm.112,1.083h.634v3.5h-.634Z" transform="translate(-219.172 -337.02)" fill="#fff"/>
          <path id="Path_71929" data-name="Path 71929" d="M234.891,342.616l.264-.5a2.246,2.246,0,0,0,1.228.364c.588,0,.833-.178.833-.476,0-.786-2.213-.105-2.213-1.5,0-.628.561-1.05,1.46-1.05a2.544,2.544,0,0,1,1.275.317l-.271.5a1.83,1.83,0,0,0-1.011-.277c-.555,0-.826.2-.826.482,0,.826,2.22.152,2.22,1.513,0,.634-.582,1.037-1.513,1.037A2.528,2.528,0,0,1,234.891,342.616Z" transform="translate(-220.169 -337.986)" fill="#fff"/>
          <path id="Path_71930" data-name="Path 71930" d="M242.754,342.3a1.194,1.194,0,0,1-.766.244,1,1,0,0,1-1.109-1.1v-1.922h-.595V339h.595v-.766h.634V339h1v.522h-1v1.9a.516.516,0,0,0,.548.588.8.8,0,0,0,.5-.165Z" transform="translate(-222.31 -337.503)" fill="#fff"/>
          <path id="Path_71931" data-name="Path 71931" d="M248.4,341.447h-2.841a1.186,1.186,0,0,0,1.269,1.024,1.309,1.309,0,0,0,1.011-.423l.35.409a1.908,1.908,0,0,1-3.264-1.222,1.715,1.715,0,0,1,1.758-1.784,1.688,1.688,0,0,1,1.73,1.8C248.409,341.308,248.4,341.387,248.4,341.447Zm-2.841-.456H247.8a1.13,1.13,0,0,0-2.246,0Z" transform="translate(-224.152 -337.986)" fill="#fff"/>
          <path id="Path_71932" data-name="Path 71932" d="M254.05,339.452v.614a1.112,1.112,0,0,0-.145-.007,1.044,1.044,0,0,0-1.1,1.182v1.744h-.634v-3.5h.608v.588A1.336,1.336,0,0,1,254.05,339.452Z" transform="translate(-227.029 -337.986)" fill="#fff"/>
        </g>
        <g id="Group_15795" data-name="Group 15795" transform="translate(44.542 10.048)" opacity="0.6">
          <path id="Path_71933" data-name="Path 71933" d="M209.593,174.618l.268-.564a2.605,2.605,0,0,0,1.671.586c.875,0,1.251-.34,1.251-.781,0-1.237-3.066-.455-3.066-2.336,0-.781.608-1.446,1.938-1.446a2.977,2.977,0,0,1,1.627.448l-.239.579a2.612,2.612,0,0,0-1.389-.412c-.86,0-1.229.362-1.229.8,0,1.237,3.066.463,3.066,2.321,0,.774-.622,1.439-1.96,1.439A3,3,0,0,1,209.593,174.618Z" transform="translate(-209.593 -169.722)" fill="#263238"/>
          <path id="Path_71934" data-name="Path 71934" d="M217.441,169.945a.457.457,0,0,1,.47-.456.452.452,0,1,1-.47.456Zm.123,1.185h.694v3.833h-.694Z" transform="translate(-212.709 -169.489)" fill="#263238"/>
          <path id="Path_71935" data-name="Path 71935" d="M224.426,172.187V175.5a1.742,1.742,0,0,1-1.989,1.967,2.835,2.835,0,0,1-1.829-.572l.332-.535a2.34,2.34,0,0,0,1.475.5c.9,0,1.316-.419,1.316-1.287v-.3a1.752,1.752,0,0,1-1.381.593,1.857,1.857,0,1,1,0-3.71,1.749,1.749,0,0,1,1.418.63v-.593Zm-.68,1.815a1.322,1.322,0,1,0-1.316,1.251A1.223,1.223,0,0,0,223.746,174Z" transform="translate(-213.886 -170.546)" fill="#263238"/>
          <path id="Path_71936" data-name="Path 71936" d="M232.91,173.815v2.206h-.694v-2.126c0-.753-.376-1.121-1.034-1.121a1.138,1.138,0,0,0-1.215,1.272v1.975h-.694v-3.833h.665v.579a1.642,1.642,0,0,1,1.381-.615A1.485,1.485,0,0,1,232.91,173.815Z" transform="translate(-217.407 -170.546)" fill="#263238"/>
          <path id="Path_71937" data-name="Path 71937" d="M244.221,172.211v3.833h-.658v-.579a1.559,1.559,0,0,1-1.3.622,1.507,1.507,0,0,1-1.649-1.671v-2.206h.695v2.126c0,.752.376,1.128,1.034,1.128a1.128,1.128,0,0,0,1.186-1.272v-1.982Z" transform="translate(-221.909 -170.57)" fill="#263238"/>
          <path id="Path_71938" data-name="Path 71938" d="M252.766,174.1a1.862,1.862,0,0,1-1.939,1.96,1.636,1.636,0,0,1-1.337-.622v1.982H248.8v-5.236h.666v.608a1.632,1.632,0,0,1,1.366-.644A1.861,1.861,0,0,1,252.766,174.1Zm-.7,0a1.292,1.292,0,1,0-1.294,1.352A1.267,1.267,0,0,0,252.065,174.1Z" transform="translate(-225.158 -170.546)" fill="#263238"/>
        </g>
        <g id="Group_15797" data-name="Group 15797" transform="translate(18.907 43.847)">
          <rect id="Rectangle_8711" data-name="Rectangle 8711" width="78.889" height="13.508" fill="#fff"/>
          <g id="Group_15796" data-name="Group 15796" transform="translate(4.317 4.552)" opacity="0.4">
            <path id="Path_71939" data-name="Path 71939" d="M174.237,233.093h.409v3.516h2.167v.354h-2.576Z" transform="translate(-174.237 -233.093)" fill="#263238"/>
            <path id="Path_71940" data-name="Path 71940" d="M181.554,235.779v1.8h-.376v-.453a1.092,1.092,0,0,1-1,.481c-.658,0-1.062-.343-1.062-.847,0-.447.288-.824,1.122-.824h.924v-.177c0-.5-.282-.769-.824-.769a1.48,1.48,0,0,0-.968.343l-.177-.293a1.846,1.846,0,0,1,1.184-.393A1.033,1.033,0,0,1,181.554,235.779Zm-.393.93v-.476h-.912c-.564,0-.746.222-.746.52,0,.336.271.547.735.547A.932.932,0,0,0,181.162,236.709Z" transform="translate(-176.174 -233.712)" fill="#263238"/>
            <path id="Path_71941" data-name="Path 71941" d="M184.261,237.25l.177-.31a1.757,1.757,0,0,0,1.034.326c.553,0,.78-.188.78-.476,0-.757-1.886-.16-1.886-1.31,0-.476.409-.83,1.15-.83a1.97,1.97,0,0,1,1.028.271l-.171.315a1.488,1.488,0,0,0-.857-.249c-.526,0-.758.2-.758.481,0,.784,1.885.194,1.885,1.311,0,.5-.442.829-1.2.829A1.945,1.945,0,0,1,184.261,237.25Z" transform="translate(-178.217 -233.712)" fill="#263238"/>
            <path id="Path_71942" data-name="Path 71942" d="M190.649,237a.936.936,0,0,1-.614.2.771.771,0,0,1-.852-.847V234.6h-.52v-.331h.52v-.636h.393v.636h.885v.331h-.885v1.737a.466.466,0,0,0,.5.531.649.649,0,0,0,.431-.149Z" transform="translate(-179.965 -233.308)" fill="#263238"/>
            <path id="Path_71943" data-name="Path 71943" d="M198.913,233.093v3.87h-.337l-2.488-3.141v3.141h-.409v-3.87h.337l2.494,3.141v-3.141Z" transform="translate(-182.75 -233.093)" fill="#263238"/>
            <path id="Path_71944" data-name="Path 71944" d="M205.032,235.779v1.8h-.376v-.453a1.092,1.092,0,0,1-1,.481c-.658,0-1.061-.343-1.061-.847,0-.447.288-.824,1.123-.824h.923v-.177c0-.5-.282-.769-.824-.769a1.48,1.48,0,0,0-.968.343l-.177-.293a1.846,1.846,0,0,1,1.184-.393A1.033,1.033,0,0,1,205.032,235.779Zm-.393.93v-.476h-.912c-.564,0-.746.222-.746.52,0,.336.271.547.736.547A.931.931,0,0,0,204.64,236.709Z" transform="translate(-185.496 -233.712)" fill="#263238"/>
            <path id="Path_71945" data-name="Path 71945" d="M213.208,235.9v1.686h-.393v-1.648c0-.614-.309-.929-.835-.929a.935.935,0,0,0-.973,1.05v1.527h-.393v-1.648c0-.614-.309-.929-.841-.929a.937.937,0,0,0-.973,1.05v1.527h-.393v-2.908h.376v.53a1.177,1.177,0,0,1,1.067-.553,1.045,1.045,0,0,1,1.034.614,1.266,1.266,0,0,1,1.15-.614A1.1,1.1,0,0,1,213.208,235.9Z" transform="translate(-187.804 -233.712)" fill="#263238"/>
            <path id="Path_71946" data-name="Path 71946" d="M220.5,236.249h-2.433a1.077,1.077,0,0,0,1.145,1.012,1.144,1.144,0,0,0,.89-.381l.221.254a1.538,1.538,0,0,1-2.649-1.006,1.4,1.4,0,0,1,1.421-1.477,1.387,1.387,0,0,1,1.41,1.477C220.5,236.161,220.5,236.2,220.5,236.249Zm-2.433-.294h2.063a1.033,1.033,0,0,0-2.063,0Z" transform="translate(-191.482 -233.712)" fill="#263238"/>
          </g>
        </g>
        <g id="Group_15799" data-name="Group 15799" transform="translate(18.907 25.395)">
          <rect id="Rectangle_8712" data-name="Rectangle 8712" width="78.889" height="13.508" fill="#fff"/>
          <g id="Group_15798" data-name="Group 15798" transform="translate(4.317 4.319)" opacity="0.4">
            <path id="Path_71947" data-name="Path 71947" d="M174.646,202.843v1.521h2v.354h-2v1.642h-.409v-3.871h2.654v.354Z" transform="translate(-174.237 -202.257)" fill="#263238"/>
            <path id="Path_71948" data-name="Path 71948" d="M179.666,202.381a.283.283,0,0,1,.288-.277.279.279,0,0,1,.288.271.288.288,0,0,1-.575.005Zm.089.918h.393v2.909h-.393Z" transform="translate(-176.393 -202.104)" fill="#263238"/>
            <path id="Path_71949" data-name="Path 71949" d="M183.745,204.048v.382c-.033,0-.066-.005-.094-.005a.941.941,0,0,0-.979,1.073v1.482h-.393V204.07h.376v.57A1.1,1.1,0,0,1,183.745,204.048Z" transform="translate(-177.43 -202.876)" fill="#263238"/>
            <path id="Path_71950" data-name="Path 71950" d="M185.252,206.647l.177-.309a1.756,1.756,0,0,0,1.034.326c.553,0,.78-.188.78-.476,0-.757-1.885-.16-1.885-1.31,0-.476.409-.83,1.15-.83a1.97,1.97,0,0,1,1.028.271l-.171.315a1.492,1.492,0,0,0-.857-.248c-.526,0-.758.2-.758.481,0,.785,1.885.194,1.885,1.31,0,.5-.442.83-1.2.83A1.939,1.939,0,0,1,185.252,206.647Z" transform="translate(-178.61 -202.876)" fill="#263238"/>
            <path id="Path_71951" data-name="Path 71951" d="M191.639,206.4a.933.933,0,0,1-.614.205.771.771,0,0,1-.851-.847V204h-.52v-.332h.52v-.636h.392v.636h.885V204h-.885v1.737a.466.466,0,0,0,.5.531.649.649,0,0,0,.431-.149Z" transform="translate(-180.358 -202.472)" fill="#263238"/>
            <path id="Path_71952" data-name="Path 71952" d="M199.9,202.489v3.871h-.337l-2.488-3.141v3.141h-.409v-3.871h.338l2.494,3.141v-3.141Z" transform="translate(-183.143 -202.257)" fill="#263238"/>
            <path id="Path_71953" data-name="Path 71953" d="M206.023,205.176v1.8h-.376v-.453a1.093,1.093,0,0,1-1,.481c-.658,0-1.062-.343-1.062-.847,0-.447.288-.824,1.123-.824h.923v-.177c0-.5-.282-.769-.824-.769a1.482,1.482,0,0,0-.968.342l-.177-.293a1.848,1.848,0,0,1,1.183-.393A1.034,1.034,0,0,1,206.023,205.176Zm-.393.929v-.476h-.912c-.564,0-.746.221-.746.52,0,.337.271.547.735.547A.93.93,0,0,0,205.63,206.105Z" transform="translate(-185.889 -202.876)" fill="#263238"/>
            <path id="Path_71954" data-name="Path 71954" d="M214.2,205.293v1.686h-.392v-1.648c0-.614-.31-.929-.835-.929a.935.935,0,0,0-.973,1.05v1.527H211.6v-1.648c0-.614-.31-.929-.841-.929a.937.937,0,0,0-.973,1.05v1.527H209.4V204.07h.376v.531a1.177,1.177,0,0,1,1.067-.553,1.046,1.046,0,0,1,1.034.614,1.267,1.267,0,0,1,1.15-.614A1.1,1.1,0,0,1,214.2,205.293Z" transform="translate(-188.197 -202.876)" fill="#263238"/>
            <path id="Path_71955" data-name="Path 71955" d="M221.487,205.646h-2.433a1.076,1.076,0,0,0,1.144,1.012,1.147,1.147,0,0,0,.891-.382l.221.254a1.537,1.537,0,0,1-2.648-1.006,1.4,1.4,0,0,1,1.421-1.477,1.386,1.386,0,0,1,1.41,1.477C221.493,205.558,221.487,205.6,221.487,205.646Zm-2.433-.294h2.062a1.033,1.033,0,0,0-2.062,0Z" transform="translate(-191.876 -202.876)" fill="#263238"/>
          </g>
        </g>
      </g>
    </g>
    <g id="Plant" transform="translate(82.97 231.643)">
      <g id="Group_15810" data-name="Group 15810" transform="translate(0)">
        <g id="Group_15801" data-name="Group 15801" transform="translate(5.092 5.17)">
          <path id="Path_71956" data-name="Path 71956" d="M128.871,344.576s-3.992-3.328-7.414,0-4.083,23.944-4.083,23.944" transform="translate(-104.545 -333.609)" fill="none" stroke="#407bff" stroke-miterlimit="10" stroke-width="0.945"/>
          <path id="Path_71957" data-name="Path 71957" d="M112.62,369.236s2.353-24.194-6.506-34.362" transform="translate(-100.074 -330.344)" fill="none" stroke="#407bff" stroke-miterlimit="10" stroke-width="0.945"/>
          <path id="Path_71958" data-name="Path 71958" d="M118.153,365.473s-1.812-27.543,4.832-33.654" transform="translate(-104.765 -329.131)" fill="none" stroke="#407bff" stroke-miterlimit="10" stroke-width="0.945"/>
          <path id="Path_71959" data-name="Path 71959" d="M108.643,373.431s-.154-18.2-5.092-21.03-7.454,6.4-7.454,6.4" transform="translate(-96.097 -337.089)" fill="none" stroke="#407bff" stroke-miterlimit="10" stroke-width="0.945"/>
          <path id="Path_71960" data-name="Path 71960" d="M120.092,373.977s-.806-13.972,3.02-18.966,7.852,2.139,7.852,2.139" transform="translate(-105.596 -337.635)" fill="none" stroke="#407bff" stroke-miterlimit="10" stroke-width="0.945"/>
          <path id="Path_71961" data-name="Path 71961" d="M116.861,365.575s2.474-32.677-1.62-38.214" transform="translate(-103.698 -327.361)" fill="none" stroke="#407bff" stroke-miterlimit="10" stroke-width="0.945"/>
        </g>
        <g id="Group_15802" data-name="Group 15802" transform="translate(0 21.137)">
          <path id="Path_71962" data-name="Path 71962" d="M95.97,355.839s2.462.907,1.73,3.05-8.517,5.669-8.517,5.669-3.26-2.988-.266-7.849S95.9,354.306,95.97,355.839Z" transform="translate(-87.652 -353.842)" fill="#6269fe"/>
          <path id="Path_71963" data-name="Path 71963" d="M95.97,355.839s2.462.907,1.73,3.05-8.517,5.669-8.517,5.669-3.26-2.988-.266-7.849S95.9,354.306,95.97,355.839Z" transform="translate(-87.652 -353.842)" opacity="0.2" style="isolation: isolate"/>
        </g>
        <g id="Group_15803" data-name="Group 15803" transform="translate(16.247 18.068)">
          <path id="Path_71964" data-name="Path 71964" d="M117.371,349.739s-2.622-.11-2.771,2.15,5.679,8.51,5.679,8.51,4.159-1.5,3.266-7.141S118.023,348.35,117.371,349.739Z" transform="translate(-114.597 -348.753)" fill="#6269fe"/>
          <path id="Path_71965" data-name="Path 71965" d="M117.98,349.739s-2.622-.11-2.771,2.15,5.679,8.51,5.679,8.51,4.159-1.5,3.266-7.141S118.631,348.35,117.98,349.739Z" transform="translate(-114.839 -348.753)" opacity="0.2" style="isolation: isolate"/>
        </g>
        <g id="Group_15804" data-name="Group 15804" transform="translate(19.625 5.17)">
          <path id="Path_71966" data-name="Path 71966" d="M121.815,330.431s-1.748-.188-1.607-1.252,6.794-3.8,10.72.626c0,0-2.514,4.318-6.147,4.374S121.815,330.431,121.815,330.431Z" transform="translate(-120.2 -327.361)" fill="#6269fe"/>
          <path id="Path_71967" data-name="Path 71967" d="M121.815,330.431s-1.748-.188-1.607-1.252,6.795-3.8,10.72.626c0,0-2.514,4.318-6.147,4.374S121.815,330.431,121.815,330.431Z" transform="translate(-120.2 -327.361)" opacity="0.2" style="isolation: isolate"/>
        </g>
        <g id="Group_15805" data-name="Group 15805" transform="translate(10.579)">
          <path id="Path_71968" data-name="Path 71968" d="M112.6,324.441s1.582.765,2.026-.213-3.754-6.822-9.429-5.138c0,0-.151,4.994,2.9,6.964S112.6,324.441,112.6,324.441Z" transform="translate(-105.197 -318.787)" fill="#6269fe"/>
          <path id="Path_71969" data-name="Path 71969" d="M112.6,324.441s1.582.765,2.026-.213-3.754-6.822-9.429-5.138c0,0-.151,4.994,2.9,6.964S112.6,324.441,112.6,324.441Z" transform="translate(-105.197 -318.787)" opacity="0.2" style="isolation: isolate"/>
        </g>
        <g id="Group_15806" data-name="Group 15806" transform="translate(25.44 20.656)">
          <path id="Path_71970" data-name="Path 71970" d="M130.662,354.661s-1.206-.974.1-1.449,7.689-.341,7.756,5.987c0,0-7.439,1.237-8.361-1.174S130.662,354.661,130.662,354.661Z" transform="translate(-129.844 -353.044)" fill="#6269fe"/>
          <path id="Path_71971" data-name="Path 71971" d="M130.662,354.661s-1.206-.974.1-1.449,7.689-.341,7.756,5.987c0,0-7.439,1.237-8.361-1.174S130.662,354.661,130.662,354.661Z" transform="translate(-129.844 -353.044)" opacity="0.2" style="isolation: isolate"/>
        </g>
        <g id="Group_15807" data-name="Group 15807" transform="translate(3.236 6.464)">
          <path id="Path_71972" data-name="Path 71972" d="M100.871,331.124s1.207-.974-.1-1.449-7.689-.34-7.756,5.987c0,0,7.44,1.236,8.361-1.174S100.871,331.124,100.871,331.124Z" transform="translate(-93.019 -329.508)" fill="#6269fe"/>
          <path id="Path_71973" data-name="Path 71973" d="M100.871,331.124s1.207-.974-.1-1.449-7.689-.34-7.756,5.987c0,0,7.44,1.236,8.361-1.174S100.871,331.124,100.871,331.124Z" transform="translate(-93.019 -329.508)" opacity="0.2" style="isolation: isolate"/>
        </g>
        <g id="Group_15808" data-name="Group 15808" transform="translate(11.713 12.247)">
          <path id="Path_71974" data-name="Path 71974" d="M110.447,340.1s.106-1.184-.85-.719-4.286,4.056-.835,7.465c0,0,4.646-3.441,3.809-5.233S110.447,340.1,110.447,340.1Z" transform="translate(-107.14 -339.167)" fill="#6269fe"/>
          <path id="Path_71975" data-name="Path 71975" d="M110.293,339.926s.106-1.184-.85-.719-4.286,4.056-.834,7.465c0,0,4.646-3.441,3.809-5.233S110.293,339.926,110.293,339.926Z" transform="translate(-107.078 -339.099)" opacity="0.2" style="isolation: isolate"/>
        </g>
        <g id="Group_15809" data-name="Group 15809" transform="translate(26.313 13.796)">
          <path id="Path_71976" data-name="Path 71976" d="M132.316,342.737s-.721-.945.335-1.062,5.789,1.146,4.687,5.871c0,0-5.765-.434-6.013-2.4S132.316,342.737,132.316,342.737Z" transform="translate(-131.292 -341.667)" fill="#6269fe"/>
          <path id="Path_71977" data-name="Path 71977" d="M132.316,342.737s-.721-.945.335-1.062,5.789,1.146,4.687,5.871c0,0-5.765-.434-6.013-2.4S132.316,342.737,132.316,342.737Z" transform="translate(-131.292 -341.667)" opacity="0.2" style="isolation: isolate"/>
        </g>
        <path id="Path_71978" data-name="Path 71978" d="M100.529,404.787h18.64l2.478-18.126h-23.6Z" transform="translate(-91.781 -345.736)" fill="#263238"/>
        <path id="Path_71979" data-name="Path 71979" d="M100.529,404.787h18.64l2.478-18.126h-23.6Z" transform="translate(-91.781 -345.736)" fill="#fff" opacity="0.2" style="isolation: isolate"/>
        <path id="Path_71980" data-name="Path 71980" d="M122.291,384.224v1.722a2.086,2.086,0,0,1-2.087,2.087H95.876a2.086,2.086,0,0,1-2.087-2.087v-1.722Z" transform="translate(-90.088 -344.768)" fill="#263238"/>
      </g>
    </g>
    <g id="Speech_bubble" data-name="Speech bubble" transform="translate(247.815 99.306)">
      <g id="Group_15815" data-name="Group 15815">
        <g id="Group_15811" data-name="Group 15811">
          <path id="Path_71981" data-name="Path 71981" d="M383.7,99.306H366.381a5.334,5.334,0,0,0-5.334,5.334v15.075a5.333,5.333,0,0,0,5.334,5.334h5.057l-1.223,4.76,4.81-4.76H383.7a5.333,5.333,0,0,0,5.334-5.334V104.64A5.334,5.334,0,0,0,383.7,99.306Z" transform="translate(-361.047 -99.306)" fill="#407bff"/>
          <path id="Path_71982" data-name="Path 71982" d="M383.7,99.306H366.381a5.334,5.334,0,0,0-5.334,5.334v15.075a5.333,5.333,0,0,0,5.334,5.334h5.057l-1.223,4.76,4.81-4.76H383.7a5.333,5.333,0,0,0,5.334-5.334V104.64A5.334,5.334,0,0,0,383.7,99.306Z" transform="translate(-361.047 -99.306)" fill="#fff" opacity="0.7"/>
        </g>
        <g id="Group_15814" data-name="Group 15814" transform="translate(1.836 0.648)">
          <g id="Group_15812" data-name="Group 15812">
            <circle id="Ellipse_551" data-name="Ellipse 551" cx="8.597" cy="8.597" r="8.597" transform="translate(0 12.158) rotate(-45)" fill="#6269fe"/>
          </g>
          <g id="Group_15813" data-name="Group 15813" transform="translate(7.093 8.318)">
            <path id="Path_71983" data-name="Path 71983" d="M380.019,121.857a.791.791,0,0,1-.6-.279l-3.373-3.975a.79.79,0,0,1,1.2-1.022l2.771,3.264,4.576-5.39a.79.79,0,1,1,1.2,1.022l-5.178,6.1A.79.79,0,0,1,380.019,121.857Z" transform="translate(-375.856 -114.176)" fill="#fff"/>
          </g>
        </g>
      </g>
    </g>
    <g id="Character" transform="translate(205.897 128.447)">
      <g id="Group_15826" data-name="Group 15826" transform="translate(0 0)">
        <g id="Group_15816" data-name="Group 15816" transform="translate(32.889 31.66)">
          <path id="Path_71984" data-name="Path 71984" d="M374.756,232.35s-10.5-1.322-26.4,3.038c0,0-2.56-28.422-2.255-32.326s24.554-2.761,24.554-2.761.626,11.375,2.186,18.238S375.555,231.03,374.756,232.35Z" transform="translate(-346.071 -200.145)" fill="#407bff"/>
          <path id="Path_71985" data-name="Path 71985" d="M374.756,232.35s-10.5-1.322-26.4,3.038c0,0-2.56-28.422-2.255-32.326s24.554-2.761,24.554-2.761.626,11.375,2.186,18.238S375.555,231.03,374.756,232.35Z" transform="translate(-346.071 -200.145)" opacity="0.2"/>
        </g>
        <path id="Path_71986" data-name="Path 71986" d="M337.128,402.887l4.281,1.212,1.019-6.663.549-3.563-4.281-1.212-.729,4.775Z" transform="translate(-309.632 -244.922)" fill="#e4897b"/>
        <path id="Path_71987" data-name="Path 71987" d="M377.948,403.388l4.414.585.042-6.385.03-3.967-4.42-.579-.03,4.546Z" transform="translate(-325.839 -245.073)" fill="#e4897b"/>
        <path id="Path_71988" data-name="Path 71988" d="M378.038,393.041l-.03,4.546h4.42l.03-3.967Z" transform="translate(-325.863 -245.073)" opacity="0.2"/>
        <path id="Path_71989" data-name="Path 71989" d="M338.518,397.436h4.462l.549-3.563-4.281-1.212Z" transform="translate(-310.183 -244.922)" opacity="0.2"/>
        <g id="Group_15817" data-name="Group 15817" transform="translate(0 35.629)">
          <path id="Path_71990" data-name="Path 71990" d="M302.81,207.983l-4.25-1.256.776,4.853s3.86.892,4.235-1.115Z" transform="translate(-294.318 -206.727)" fill="#e4897b"/>
          <path id="Path_71991" data-name="Path 71991" d="M291.525,207.854l2.084,3.946,2.934-.22-.776-4.853Z" transform="translate(-291.525 -206.727)" fill="#e4897b"/>
        </g>
        <path id="Path_71992" data-name="Path 71992" d="M310.326,209.838l-6.979-1.563-.634,3.39,6.336,1.545Z" transform="translate(-295.967 -171.713)" fill="#e4897b"/>
        <path id="Path_71993" data-name="Path 71993" d="M333.034,200.8s-.151.181-.41.488c-.88,1.031-3.033,3.521-5.24,5.668-1.809,1.749-3.642,3.274-4.836,3.582-3.419.88-15.846-2.78-15.846-2.78l1.284-5.041s11.577,1.538,12.475,1.538c.681,0,7.724-10.2,9.43-11.04Z" transform="translate(-297.551 -165.733)" fill="#6269fe"/>
        <path id="Path_71994" data-name="Path 71994" d="M346.243,204.174c-.88,1.031-3.033,3.521-5.24,5.668a17.7,17.7,0,0,1,3.449-8.827,3.182,3.182,0,0,1,.543-.531Z" transform="translate(-311.17 -168.619)" opacity="0.2"/>
        <g id="Group_15818" data-name="Group 15818" transform="translate(17.506 155.951)">
          <path id="Path_71995" data-name="Path 71995" d="M330.6,408.427l4.862-.131a.392.392,0,0,1,.39.292l1.021,3.915a.64.64,0,0,1-.613.806c-1.755.017-4.292-.016-6.5.043-2.577.07-4.216-.057-7.239.025-1.828.049-2.4-1.776-1.642-1.964,3.456-.852,5.714-.683,8.657-2.611A2.05,2.05,0,0,1,330.6,408.427Z" transform="translate(-320.559 -407.08)" fill="#263238"/>
          <path id="Path_71996" data-name="Path 71996" d="M334.737,408.954l-.014,0c-.712.162-1.982.371-2.485-.046a.594.594,0,0,1-.216-.506.331.331,0,0,1,.164-.284c.532-.319,2.352.541,2.558.639a.107.107,0,0,1,.06.107A.1.1,0,0,1,334.737,408.954Zm-2.4-.669a.217.217,0,0,0-.038.018.124.124,0,0,0-.062.114.387.387,0,0,0,.139.334,2.871,2.871,0,0,0,1.993.068A4.412,4.412,0,0,0,332.333,408.285Z" transform="translate(-325.11 -406.983)" fill="#407bff"/>
          <path id="Path_71997" data-name="Path 71997" d="M335.431,408.25a.1.1,0,0,1-.078,0c-.546-.225-1.645-1.155-1.582-1.658.015-.119.093-.267.382-.3a.779.779,0,0,1,.591.165,3.014,3.014,0,0,1,.753,1.688.1.1,0,0,1-.04.1A.127.127,0,0,1,335.431,408.25Zm-1.355-1.73c-.086.033-.092.08-.095.1-.038.3.713,1.035,1.273,1.349a2.487,2.487,0,0,0-.637-1.351.566.566,0,0,0-.435-.122A.492.492,0,0,0,334.075,406.52Z" transform="translate(-325.804 -406.28)" fill="#407bff"/>
        </g>
        <g id="Group_15819" data-name="Group 15819" transform="translate(42.243 155.951)">
          <path id="Path_71998" data-name="Path 71998" d="M371.627,408.427l4.862-.131a.392.392,0,0,1,.39.292L377.9,412.5a.639.639,0,0,1-.612.806c-1.755.017-4.292-.016-6.5.043-2.578.07-4.216-.057-7.239.025-1.828.049-2.4-1.776-1.642-1.964,3.456-.852,5.714-.683,8.657-2.611A2.05,2.05,0,0,1,371.627,408.427Z" transform="translate(-361.584 -407.08)" fill="#263238"/>
          <path id="Path_71999" data-name="Path 71999" d="M375.762,408.954l-.013,0c-.712.162-1.982.371-2.485-.046a.594.594,0,0,1-.216-.506.329.329,0,0,1,.164-.284c.532-.319,2.352.541,2.558.639a.108.108,0,0,1,.06.107A.1.1,0,0,1,375.762,408.954Zm-2.4-.669a.217.217,0,0,0-.038.018.122.122,0,0,0-.062.114.385.385,0,0,0,.139.334,2.871,2.871,0,0,0,1.993.068A4.414,4.414,0,0,0,373.359,408.285Z" transform="translate(-366.135 -406.983)" fill="#407bff"/>
          <path id="Path_72000" data-name="Path 72000" d="M376.456,408.25a.1.1,0,0,1-.078,0c-.546-.225-1.644-1.155-1.581-1.658.015-.119.093-.267.382-.3a.78.78,0,0,1,.591.165,3.014,3.014,0,0,1,.753,1.688.1.1,0,0,1-.04.1A.117.117,0,0,1,376.456,408.25Zm-1.355-1.73c-.086.033-.092.08-.095.1-.038.3.713,1.035,1.273,1.349a2.487,2.487,0,0,0-.637-1.351.566.566,0,0,0-.435-.122A.483.483,0,0,0,375.1,406.52Z" transform="translate(-366.829 -406.28)" fill="#407bff"/>
        </g>
        <path id="Path_72001" data-name="Path 72001" d="M371.157,249.257c2.338,10.139-1.674,89.88-1.674,89.88h-7.755l-3.316-66.455L346.2,339.137l-8.288-.6c5.418-51.479,10.207-82.213,10.207-82.213l-.011-3.884Z" transform="translate(-309.942 -187.984)" fill="#263238"/>
        <path id="Path_72002" data-name="Path 72002" d="M337.908,338.535l8.291.6,9.611-52.312,2.6-14.139,3.316,66.452h7.754s4.016-79.741,1.676-89.877L348.1,252.439l.012,3.883S343.329,287.054,337.908,338.535Z" transform="translate(-309.941 -187.986)" fill="#fff" opacity="0.4"/>
        <g id="Group_15820" data-name="Group 15820" transform="translate(32.341 23.637)">
          <path id="Path_72003" data-name="Path 72003" d="M369.859,186.93a97.178,97.178,0,0,0,.369,14.532c.321,3.374.771,6.564,1.247,9.443,1.115,6.747,2.381,11.8,2.562,13.57-3.378.467-16.109,2.224-23.05,3.179-8.406-23.5-5.24-37.181-5.24-37.181a45.226,45.226,0,0,1,5.287-1.809c.379-.106.768-.2,1.163-.292a85.8,85.8,0,0,1,9.8-1.352c.623-.055,1.257-.1,1.875-.125C367.021,186.752,369.859,186.93,369.859,186.93Z" transform="translate(-345.163 -186.839)" fill="#263238"/>
        </g>
        <g id="Group_15821" data-name="Group 15821" transform="translate(40.059 13.153)">
          <path id="Path_72004" data-name="Path 72004" d="M362.6,169.45c.169,3.228.513,9.28,3.194,10.815a7.074,7.074,0,0,1-5.283,3.5,2.214,2.214,0,0,1-2.55-2.45c1.58-1.181,1.2-3.176,0-5.426Z" transform="translate(-357.963 -169.45)" fill="#e4897b"/>
          <path id="Path_72005" data-name="Path 72005" d="M360.714,173.809l-2.747,3.811a10.214,10.214,0,0,1,.724,1.629c1.27-.507,2.719-2.385,2.513-3.793A4.762,4.762,0,0,0,360.714,173.809Z" transform="translate(-357.965 -171.181)" opacity="0.2"/>
        </g>
        <g id="Group_15822" data-name="Group 15822" transform="translate(31.391)">
          <path id="Path_72006" data-name="Path 72006" d="M346.014,158.16c-.526,1.673-.238,5.111,2.1,3.993S346.919,155.284,346.014,158.16Z" transform="translate(-344.462 -151.499)" fill="#263238"/>
          <path id="Path_72007" data-name="Path 72007" d="M358.2,158.707c.257,4.3.627,6.807-1.269,9.242-2.853,3.661-8.377,2.3-9.919-1.854-1.387-3.735-1.574-10.141,2.411-12.309A5.944,5.944,0,0,1,358.2,158.707Z" transform="translate(-344.59 -149.785)" fill="#e4897b"/>
          <path id="Path_72008" data-name="Path 72008" d="M361.158,155.38v-4.806s5.114-.38,4.887,2.238c2.833,1.4,1.493,5.812-2.311,7.973-2.086-1.669-1.847-5.689-1.847-5.689C361.662,155.2,361.415,155.29,361.158,155.38Z" transform="translate(-350.563 -148.795)" fill="#263238"/>
          <path id="Path_72009" data-name="Path 72009" d="M366.97,166.476a4.047,4.047,0,0,1-1.721,2.6c-1.2.787-2.244-.181-2.287-1.541-.039-1.223.538-3.108,1.92-3.35A1.86,1.86,0,0,1,366.97,166.476Z" transform="translate(-351.279 -154.195)" fill="#e4897b"/>
          <path id="Path_72010" data-name="Path 72010" d="M355.078,165.234c.042.348-.108.651-.336.676s-.447-.236-.489-.584.108-.651.336-.676S355.036,164.886,355.078,165.234Z" transform="translate(-347.819 -154.391)" fill="#263238"/>
          <path id="Path_72011" data-name="Path 72011" d="M348.54,165.964c.043.348-.108.651-.336.676s-.447-.236-.49-.584.109-.651.336-.676S348.5,165.616,348.54,165.964Z" transform="translate(-345.223 -154.681)" fill="#263238"/>
          <path id="Path_72012" data-name="Path 72012" d="M350.317,166.4a12.079,12.079,0,0,1-1.345,3.059,2.08,2.08,0,0,0,1.692.095Z" transform="translate(-345.725 -155.088)" fill="#de5753"/>
          <path id="Path_72013" data-name="Path 72013" d="M354.772,172.5a3.389,3.389,0,0,1-.45.081.1.1,0,0,1-.115-.091.1.1,0,0,1,.09-.113,2.748,2.748,0,0,0,2.121-1.329.1.1,0,0,1,.185.093A2.855,2.855,0,0,1,354.772,172.5Z" transform="translate(-347.803 -156.91)" fill="#263238"/>
          <path id="Path_72014" data-name="Path 72014" d="M356.173,162.62a.207.207,0,0,1-.2-.058,1.66,1.66,0,0,0-1.4-.535.209.209,0,0,1-.242-.165.2.2,0,0,1,.163-.239,2.064,2.064,0,0,1,1.77.657.205.205,0,0,1,0,.291A.2.2,0,0,1,356.173,162.62Z" transform="translate(-347.853 -153.183)" fill="#263238"/>
          <path id="Path_72015" data-name="Path 72015" d="M345.829,163.375a.208.208,0,0,1-.247-.268,2.028,2.028,0,0,1,1.331-1.314.209.209,0,0,1,.251.151.2.2,0,0,1-.148.248,1.582,1.582,0,0,0-1.044,1.052A.2.2,0,0,1,345.829,163.375Z" transform="translate(-344.374 -153.255)" fill="#263238"/>
          <path id="Path_72016" data-name="Path 72016" d="M356.452,156.006a11.847,11.847,0,0,1-4.391-2.848s-2.736.716-3.3,1.829a1.36,1.36,0,0,1-.238-1.829s-2.048.432-2.454,1.829a1.712,1.712,0,0,1-.962-1.829,2.309,2.309,0,0,0-1.2,1.829s-2.265-4.711,5.205-6.062a5.517,5.517,0,0,0-1.75-.3s5.211-2.1,9.345-.177S360.09,154.072,356.452,156.006Z" transform="translate(-343.587 -147.637)" fill="#263238"/>
        </g>
        <g id="Group_15823" data-name="Group 15823" transform="translate(49.265 21.556)">
          <path id="Path_72017" data-name="Path 72017" d="M388.411,228.322l-7.229.965s-2.985-20.856-4.3-27.591V187.309l3.781-.995,2.912.995a70.525,70.525,0,0,1,1.851,8.8c.356,2.255.675,4.667.959,7.109.392,3.328.718,6.717.995,9.888.434,5.119.724,9.653.88,12.415C388.363,227.285,388.411,228.322,388.411,228.322Z" transform="translate(-374.681 -184.549)" fill="#6269fe"/>
          <path id="Path_72018" data-name="Path 72018" d="M375.434,200.531s.6-10.147,3.781-15.381c0,0-.08-1.5-.716-1.737s-3.065,1.193-3.065,1.193-1.515-1.034-1.849-.557S372.448,187.753,375.434,200.531Z" transform="translate(-373.231 -183.386)" fill="#407bff"/>
          <path id="Path_72019" data-name="Path 72019" d="M375.434,200.531s.6-10.147,3.781-15.381c0,0-.08-1.5-.716-1.737s-3.065,1.193-3.065,1.193-1.515-1.034-1.849-.557S372.448,187.753,375.434,200.531Z" transform="translate(-373.231 -183.386)" fill="#fff" opacity="0.7"/>
        </g>
        <g id="Group_15824" data-name="Group 15824" transform="translate(32.133 24.315)">
          <path id="Path_72020" data-name="Path 72020" d="M347.7,232.527l.826.6s-1.194-6.725-.711-23.729c.024-.82.054-1.61.084-2.364.615-14.387,2.846-17,2.991-17.16l-2.086.711-3.781,1.3C343.907,204.161,347.7,232.527,347.7,232.527Z" transform="translate(-344.817 -188.721)" fill="#6269fe"/>
          <path id="Path_72021" data-name="Path 72021" d="M349.1,203.8s-2.088-9.861-1.467-13.26,2.847-1.889,2.847-1.889,2.046-1.65,2.653.169C353.132,188.818,350.324,190.8,349.1,203.8Z" transform="translate(-345.889 -187.963)" fill="#6269fe"/>
          <path id="Path_72022" data-name="Path 72022" d="M349.1,203.8s-2.088-9.861-1.467-13.26,2.847-1.889,2.847-1.889,2.046-1.65,2.653.169C353.132,188.818,350.324,190.8,349.1,203.8Z" transform="translate(-345.889 -187.963)" fill="#6269fe" opacity="0.7"/>
        </g>
        <path id="Path_72023" data-name="Path 72023" d="M390.34,209.673c-3.087-1.73-3.5-6.247-3.5-6.247.187-.072,1.333-.464,2.538-.862C389.737,204.819,390.057,207.231,390.34,209.673Z" transform="translate(-329.37 -169.445)" opacity="0.2"/>
        <path id="Path_72024" data-name="Path 72024" d="M367.365,297.323l2.6-14.139-.5-7.483S365.9,288.677,367.365,297.323Z" transform="translate(-321.497 -198.484)" opacity="0.2"/>
        <path id="Path_72025" data-name="Path 72025" d="M393.124,243.169c-1.941-.133-3.624-.259-3.624-.259l-.368-7.893a2.805,2.805,0,0,1,2.033-.374,22.2,22.2,0,0,0,1.079-3.889C392.678,235.873,392.967,240.407,393.124,243.169Z" transform="translate(-330.279 -180.638)" opacity="0.2"/>
        <g id="Group_15825" data-name="Group 15825" transform="translate(56.256 24.24)">
          <path id="Path_72026" data-name="Path 72026" d="M394.363,230.741l-3.781,6.071,2.99,1.719,3.552-5.47Z" transform="translate(-387.111 -204.872)" fill="#e4897b"/>
          <path id="Path_72027" data-name="Path 72027" d="M386.578,187.838c2.546.28,13.359,15.123,13.836,19.6s-6.352,12.2-6.352,12.2l-4.564-2.685s4.634-7.121,4.873-9.021-8.47-9.692-8.47-9.692a17.622,17.622,0,0,1-1.071-5.583A5.992,5.992,0,0,1,386.578,187.838Z" transform="translate(-384.825 -187.838)" fill="#6269fe"/>
          <path id="Path_72028" data-name="Path 72028" d="M388.214,237.826s3.892.835,5.456,3.28c0,0-1.624,5.095-2.787,5.65a13.557,13.557,0,0,1-4.049.555S386.648,241.643,388.214,237.826Z" transform="translate(-385.62 -207.685)" fill="#6269fe"/>
        </g>
      </g>
    </g>
  </g>
</svg>
