<svg xmlns="http://www.w3.org/2000/svg" width="26.69" height="26.781" viewBox="0 0 26.69 26.781">
  <path id="Path_72120" data-name="Path 72120" d="M334.243,988.278h14.964a2.251,2.251,0,0,1,.414.339q2.173,2.188,4.354,4.368a.931.931,0,0,1,.291.718c-.007,1.393,0,2.787,0,4.181,0,.09.008.179.012.269l.068.037a1.641,1.641,0,0,1,.152-.207q1.36-1.357,2.724-2.709c.356-.354.569-.351.928.007.512.511,1.025,1.02,1.532,1.536a12.727,12.727,0,0,1,.907.938.6.6,0,0,1-.23.667q-2.944,2.936-5.885,5.874a.667.667,0,0,0-.211.525q.009,4.784,0,9.569c0,.521-.15.669-.666.669H334.584c-.5,0-.651-.152-.651-.656q0-12.732,0-25.464A.7.7,0,0,1,334.243,988.278Zm14.362,18.806,2.083-.684-1.344-1.337c-.062-.062-.1-.088-.14.027-.208.653-.422,1.3-.634,1.956-.01.012-.032.03-.029.034C348.558,1007.111,348.582,1007.1,348.6,1007.084Zm-.44,1.121.009.046h.994c.375,0,.75-.006,1.125.006a.454.454,0,0,1,.063.9,1.468,1.468,0,0,1-.285.023q-5.99,0-11.981,0a1.3,1.3,0,0,1-.336-.034.455.455,0,0,1,.036-.883,1.555,1.555,0,0,1,.313-.014h9.405c-.417-.523.091-.933.081-1.4H338.1a1.351,1.351,0,0,1-.312-.016.457.457,0,0,1-.024-.888,1.192,1.192,0,0,1,.363-.03q4.787,0,9.575,0a.276.276,0,0,0,.323-.234c.155-.516.34-1.022.5-1.535a1.267,1.267,0,0,1,.323-.526q2.168-2.16,4.331-4.324a.464.464,0,0,0,.158-.36q-.009-2.393,0-4.786c0-.183-.046-.231-.229-.23-1.282.008-2.564,0-3.845,0-.457,0-.587-.13-.587-.592,0-1.29-.006-2.58,0-3.87,0-.21-.059-.255-.26-.255q-6.658.009-13.315,0c-.2,0-.24.05-.24.243q.008,12.213,0,24.425c0,.212.063.25.259.25q8.973-.008,17.946,0c.218,0,.27-.054.269-.271-.008-2.711,0-5.422-.007-8.133,0-.072.035-.154-.019-.209-.433.421-.867.835-1.292,1.259a1.27,1.27,0,0,1-.523.328c-.439.139-.876.284-1.313.429Q349.174,1007.867,348.164,1008.206Zm7.448-9.99c-.046.044-.084.079-.121.116q-2.824,2.816-5.65,5.63c-.111.11-.125.168,0,.284.415.4.814.813,1.226,1.215.159.155.3.437.489.424.166-.011.318-.269.472-.422q2.624-2.627,5.245-5.258c.07-.07.229-.121.069-.278-.549-.535-1.087-1.082-1.63-1.624C355.679,998.272,355.647,998.246,355.613,998.216Zm2.079-2.064c-.038.031-.065.051-.089.074-.413.412-.825.826-1.241,1.235-.077.076-.061.117.008.185q.817.809,1.626,1.627c.079.08.125.086.207,0,.4-.405.795-.807,1.2-1.2.1-.094.08-.145,0-.228-.533-.527-1.062-1.058-1.592-1.587C357.773,996.223,357.735,996.19,357.692,996.151Zm-8.077-6.169c-.032.034-.01.1-.01.154,0,.88.006,1.759-.007,2.639,0,.2.071.22.239.218.862-.008,1.725,0,2.587-.005.072,0,.153.033.195-.007Z" transform="translate(-333.93 -988.278)" fill="#707070"/>
</svg>
