<svg xmlns="http://www.w3.org/2000/svg" width="288.304" height="257.846" viewBox="0 0 288.304 257.846">
  <g id="Group_15889" data-name="Group 15889" transform="translate(-319.656 -50.869)">
    <g id="Group_15879" data-name="Group 15879" transform="translate(319.656 52.869)" opacity="0.57">
      <path id="Path_72146" data-name="Path 72146" d="M581.627,320.628a121.993,121.993,0,0,0,20.464-28.82c10.59-20.778,14.6-46.163,9.159-69.046-3.194-13.431-10.469-26.349-21.655-34.625-10.422-7.709-24.413-12.135-29.665-25.183-3.491-8.672-1.564-18.528-3.036-27.764-3.431-21.546-25.04-35.695-44.7-41.1-14.488-3.983-29.624-4.388-44.549-3.943-14,.416-27.636-.075-41.6,2.137-12,1.9-24.672,5.691-32.136,15.328-5.154,6.656-7.1,15.184-10.416,22.931-6,14.012-16.775,14.889-27.924,22.947-18.1,13.082-21.145,42.065-12.537,61.323,4.081,9.129,10.938,15.048,12.232,25.342,3.18,25.33,1.85,49.908,17.391,71.59a85.725,85.725,0,0,0,7.334,8.881Z" transform="translate(-325.369 -64.782)" fill="#6269fe"/>
      <circle id="Ellipse_503" data-name="Ellipse 503" cx="12.55" cy="12.55" r="12.55" transform="translate(247.411 89.341) rotate(-68.026)" fill="#6269fe"/>
      <path id="Path_72147" data-name="Path 72147" d="M551.143,53.744a8.686,8.686,0,1,1-8.686,8.687A8.691,8.691,0,0,1,551.143,53.744Z" transform="translate(-387.476 -53.744)" fill="#6269fe" fill-rule="evenodd"/>
      <path id="Path_72148" data-name="Path 72148" d="M328.343,301.716a8.686,8.686,0,1,1-8.687,8.687A8.691,8.691,0,0,1,328.343,301.716Z" transform="translate(-319.656 -129.226)" fill="#6269fe" fill-rule="evenodd"/>
    </g>
    <g id="Group_15881" data-name="Group 15881" transform="translate(415.045 153.61)">
      <path id="Path_72149" data-name="Path 72149" d="M627.093,362.062c1.654,5.679,3.08,12.26-.272,17.134-4.037,5.87-13.3,5.8-19.121,1.692s-8.972-10.952-11.666-17.547c-4.539-11.112-8.539-22.554-10.117-34.454-.924-6.959-.12-15.595,6.2-18.653,9.715-4.7,18,2.794,21.146,11.013,5.138,13.425,9.81,27.01,13.833,40.814" transform="translate(-495.997 -232.117)" fill="#ff787f"/>
      <path id="Path_72150" data-name="Path 72150" d="M458.553,362.062c-1.655,5.679-3.08,12.26.271,17.134,4.037,5.87,13.3,5.8,19.122,1.692s8.971-10.952,11.665-17.547c4.54-11.112,8.539-22.554,10.117-34.454.924-6.959.12-15.595-6.2-18.653-9.716-4.7-18,2.794-21.146,11.013-5.137,13.425-9.81,27.01-13.832,40.814" transform="translate(-456.787 -232.117)" fill="#ff787f"/>
      <path id="Path_72151" data-name="Path 72151" d="M470.232,291.513a25.564,25.564,0,0,1,24.089-20.546l51.777-1.989a20.359,20.359,0,0,1,18.512,10.342c7.443,13.2,19.048,33.775,19.048,33.775l-28.778,18.931c-.307.118,1.43,6.788,1.591,7.426q.929,3.7,1.683,7.439c1,4.948,1.776,9.976,2.647,14.962.485,2.776.958,8.1,1.42,10.876.207,1.244-42.924,0-42.924,0H487.863l-4.748-14.5,1.924-33.52-20.868-3.589S467.656,304.44,470.232,291.513Z" transform="translate(-459.035 -219.997)" fill="#6269fe" fill-rule="evenodd"/>
      <path id="Path_72152" data-name="Path 72152" d="M558.659,385.659c17.219-1.117,34.007-5.888,51.256-1.352,8.726,2.295,13.971,9.578,7.958,17.783-3.358,4.582-8.792,3.726-14.087,3.816l-45.127-1.128Z" transform="translate(-487.797 -254.522)" fill="#ff787f"/>
      <path id="Path_72153" data-name="Path 72153" d="M519.113,404.326l-17.485,2.993a2.46,2.46,0,0,1-2.854-2.1c-.01-.08-.022-.159-.031-.238a2.143,2.143,0,0,1,1.548-2.35c4.654-1.3,19.355-5.119,19.355-5.119Z" transform="translate(-469.553 -259.127)" fill="#ff787f" fill-rule="evenodd"/>
      <path id="Path_72154" data-name="Path 72154" d="M524.624,398.056,507.2,401.9a2.165,2.165,0,0,1-2.538-1.487c-.008-.026-.016-.052-.024-.079a2.1,2.1,0,0,1,1.313-2.587l15.191-5.333Z" transform="translate(-471.326 -257.575)" fill="#ff787f" fill-rule="evenodd"/>
      <path id="Path_72155" data-name="Path 72155" d="M523.441,394.616l-9.8,2.315a1.973,1.973,0,0,1-2.365-1.428l-.031-.118a1.775,1.775,0,0,1,1.117-2.113l8.783-3.168Z" transform="translate(-473.348 -256.872)" fill="#ff787f" fill-rule="evenodd"/>
      <path id="Path_72156" data-name="Path 72156" d="M548.567,406.211s-11.02-.3-13.262-.358a8.025,8.025,0,0,1-1-.091,15.025,15.025,0,0,1-8.572-4.148l-.228-12.427,23.062-2.1Z" transform="translate(-477.705 -255.955)" fill="#ff787f" fill-rule="evenodd"/>
      <path id="Path_72157" data-name="Path 72157" d="M535.667,402.084l-5.836,2.811a3.18,3.18,0,0,0-1.782,3.2c.016.144.031.288.047.429a2.009,2.009,0,0,0,2,1.795h6.283a7.383,7.383,0,0,0,5.215-2.156l4.734-4.72Z" transform="translate(-478.474 -260.518)" fill="#ff787f" fill-rule="evenodd"/>
      <path id="Path_72158" data-name="Path 72158" d="M524.237,410.459l-16.218.017a2.48,2.48,0,0,1-2.482-2.517c0-.088,0-.176,0-.263a2.1,2.1,0,0,1,1.663-2.021l14.579-3.091Z" transform="translate(-471.626 -260.671)" fill="#ff787f" fill-rule="evenodd"/>
      <path id="Path_72159" data-name="Path 72159" d="M500.977,402.633c4.654-1.3,19.355-5.119,19.355-5.119" transform="translate(-470.239 -259.127)" fill="none" stroke="#281e62" stroke-linejoin="round" stroke-width="1"/>
      <path id="Path_72160" data-name="Path 72160" d="M506.251,409.738a2.481,2.481,0,0,1-.714-1.779c0-.088,0-.176,0-.263a2.1,2.1,0,0,1,1.663-2.021l14.579-3.091" transform="translate(-471.626 -260.671)" fill="none" stroke="#281e62" stroke-linejoin="round" stroke-width="1"/>
      <line id="Line_197" data-name="Line 197" y1="5.333" x2="15.19" transform="translate(34.626 134.838)" fill="none" stroke="#281e62" stroke-linejoin="round" stroke-width="1"/>
      <path id="Path_72161" data-name="Path 72161" d="M557.945,267.4a17.626,17.626,0,0,1-13.9,11.068c-.467.061-.938.1-1.407.12" transform="translate(-482.919 -219.523)" fill="none" stroke="#281e62" stroke-miterlimit="10" stroke-width="1"/>
      <path id="Path_72162" data-name="Path 72162" d="M536.128,280.318a17.162,17.162,0,0,1-14.873-7.246" transform="translate(-476.411 -221.248)" fill="none" stroke="#281e62" stroke-miterlimit="10" stroke-width="1"/>
      <g id="Group_15880" data-name="Group 15880" transform="translate(27.614)">
        <path id="Path_72163" data-name="Path 72163" d="M514.832,213.553c-1.148.76-8.859,2.692-9.012,4.039,0,0,2.537,9.558-.061,11.342-7.025,4.822-9.273,14.277-9.273,14.277s18.529,13.374,67.788-.668c0,0,.59-5.687-8.368-9.816a13.942,13.942,0,0,1-6.267-5.367,10.17,10.17,0,0,1-1.578-4.338c-.824-4.686-14.245-22.02-33.228-9.468" transform="translate(-496.485 -201.767)" fill="#281e62"/>
        <path id="Path_72164" data-name="Path 72164" d="M527.168,265.129c-.459-3.854-.841-8.207-1.3-12.062,7.05-1.072,13.763-2.069,20.812-3.138.544,3.817,1.314,8.194,1.857,12.011-1.615,3.864-5.476,6.406-9.592,7.171a13.678,13.678,0,0,1-11.777-3.982" transform="translate(-505.429 -214.203)" fill="#ff787f"/>
        <path id="Path_72165" data-name="Path 72165" d="M526.619,212.255c10.543-.17,19.213,6.747,19.352,15.435s-8.307,15.872-18.849,16.043-19.213-6.747-19.352-15.435,8.307-15.876,18.849-16.043" transform="translate(-499.92 -202.734)" fill="#ff787f" fill-rule="evenodd"/>
        <path id="Path_72166" data-name="Path 72166" d="M529.74,198.591a20.223,20.223,0,0,0-5.632.533c-4.547,1.083-12.711,4.1-14.11,11.913-.465,2.06-.143,2.751-.143,2.751s15.247.535,24.261-3.274c1.3,4.917,2.5,7.959,7.922,12.746l1.463-3.234a36.782,36.782,0,0,1,8.776,2.056c.036.165.029-22.418-22.538-23.491" transform="translate(-500.522 -198.569)" fill="#281e62"/>
        <path id="Path_72167" data-name="Path 72167" d="M539.626,255.344a22.03,22.03,0,0,1-3.961,1.171,23.451,23.451,0,0,1-8.81.028,21.833,21.833,0,0,1-4.517-1.38" transform="translate(-504.355 -215.796)" fill="none" stroke="#281e62" stroke-linejoin="round" stroke-width="1"/>
        <path id="Path_72168" data-name="Path 72168" d="M527.281,239.264h-.022" transform="translate(-505.852 -210.957)" fill="#281e62"/>
        <path id="Path_72169" data-name="Path 72169" d="M525.818,235.365c-.486-.053-1.034-.087-1.565-.12-.551-.035-1.121-.071-1.628-.128a.114.114,0,0,1-.1-.113c.006-2.823.454-5.814,3.661-8.549" transform="translate(-504.411 -207.058)" fill="none" stroke="#281e62" stroke-linejoin="round" stroke-width="1"/>
        <path id="Path_72170" data-name="Path 72170" d="M527.272,242.111a3.232,3.232,0,0,0,3.317,1.016,2.972,2.972,0,0,0,2.015-2.691" transform="translate(-505.856 -211.313)" fill="none" stroke="#281e62" stroke-linejoin="round" stroke-width="1"/>
        <path id="Path_72171" data-name="Path 72171" d="M537.17,233.933a3.2,3.2,0,0,0-1.9-2.579,2.059,2.059,0,0,0-2.4,1.26" transform="translate(-507.561 -208.526)" fill="none" stroke="#281e62" stroke-linejoin="round" stroke-width="1"/>
        <path id="Path_72172" data-name="Path 72172" d="M518.277,228.99a3.2,3.2,0,0,0-1.9-2.579,2.058,2.058,0,0,0-2.4,1.26" transform="translate(-501.81 -207.021)" fill="none" stroke="#281e62" stroke-linejoin="round" stroke-width="1"/>
        <path id="Path_72173" data-name="Path 72173" d="M518.791,223a3.375,3.375,0,0,0-3.421-1.423,3.84,3.84,0,0,0-2.951,2.531" transform="translate(-501.335 -205.556)" fill="none" stroke="#281e62" stroke-linejoin="round" stroke-width="1"/>
        <path id="Path_72174" data-name="Path 72174" d="M535.155,224.027a3.373,3.373,0,0,1,3.518,1.16,3.841,3.841,0,0,1,.578,3.845" transform="translate(-508.256 -206.279)" fill="none" stroke="#281e62" stroke-linejoin="round" stroke-width="1"/>
        <path id="Path_72175" data-name="Path 72175" d="M557.94,229.965a5.258,5.258,0,1,1-1.343,9.761Z" transform="translate(-514.783 -208.091)" fill="#ff787f"/>
        <path id="Path_72176" data-name="Path 72176" d="M557.479,254.843a6.1,6.1,0,1,0-6.1-6.1,6.109,6.109,0,0,0,6.1,6.1m0-11.48a5.377,5.377,0,1,1-5.377,5.378,5.383,5.383,0,0,1,5.377-5.378" transform="translate(-513.194 -211.983)" fill="#ffce71"/>
        <line id="Line_198" data-name="Line 198" x2="2.925" y2="0.553" transform="translate(44.905 26.551)" fill="none" stroke="#281e62" stroke-miterlimit="10" stroke-width="1"/>
        <path id="Path_72177" data-name="Path 72177" d="M561.761,232.948a2.89,2.89,0,0,1,2.254,2.868,3.21,3.21,0,0,1-2.963,2.678h-.008" transform="translate(-516.136 -209.034)" fill="none" stroke="#281e62" stroke-miterlimit="10" stroke-width="1"/>
        <path id="Path_72178" data-name="Path 72178" d="M527.128,230.162a5.252,5.252,0,1,0,5.667-5.218,5.454,5.454,0,0,0-5.667,5.218" transform="translate(-505.807 -206.593)" fill="#100707"/>
        <path id="Path_72179" data-name="Path 72179" d="M509.567,227.694c-.246,3.11,1.557,5.79,4.029,5.985s4.674-2.165,4.921-5.276-1.557-5.79-4.029-5.986-4.674,2.167-4.921,5.278" transform="translate(-500.46 -205.825)" fill="#100707"/>
        <path id="Path_72180" data-name="Path 72180" d="M520.836,229.285a3.2,3.2,0,0,1,1.9-.426,5.259,5.259,0,0,1,3.806,1.386" transform="translate(-503.897 -207.789)" fill="none" stroke="#8054f6" stroke-linejoin="round" stroke-width="0.75"/>
        <line id="Line_199" data-name="Line 199" x2="13.41" y2="1.25" transform="translate(29.338 23.077)" fill="none" stroke="#8054f6" stroke-linejoin="round" stroke-width="0.75"/>
      </g>
    </g>
    <g id="Group_15882" data-name="Group 15882" transform="translate(382.669 254.272)">
      <path id="Path_72181" data-name="Path 72181" d="M422.856,414.327h79.781a1.893,1.893,0,0,0,1.893-1.893v-.646a1.894,1.894,0,0,0-1.893-1.893H422.856a1.893,1.893,0,0,0-1.893,1.893v.646a1.892,1.892,0,0,0,1.893,1.893" transform="translate(-413.506 -363.558)" fill="#fff"/>
      <path id="Path_72182" data-name="Path 72182" d="M417.4,394.05h69.388l-7.248-47.867a3.381,3.381,0,0,0-3.3-2.9H413.449a3.247,3.247,0,0,0-3.166,3.794Z" transform="translate(-410.243 -343.281)" fill="#fff"/>
      <circle id="Ellipse_504" data-name="Ellipse 504" cx="3.988" cy="3.988" r="3.988" transform="translate(30.293 17.98)" fill="#8054f6"/>
    </g>
    <g id="Group_15883" data-name="Group 15883" transform="translate(545.993 220.846)">
      <rect id="Rectangle_8649" data-name="Rectangle 8649" width="45.903" height="3.969" transform="matrix(0.259, -0.966, 0.966, 0.259, 37.941, 79.315)" fill="#281e62"/>
      <rect id="Rectangle_8650" data-name="Rectangle 8650" width="3.825" height="44.242" transform="matrix(0.615, -0.788, 0.788, 0.615, 15.438, 7.371)" fill="#281e62"/>
      <path id="Path_72183" data-name="Path 72183" d="M659.181,331.044a4.76,4.76,0,1,0,4.76-4.76,4.759,4.759,0,0,0-4.76,4.76" transform="translate(-649.344 -304.681)" fill="#fff"/>
      <path id="Path_72184" data-name="Path 72184" d="M659.181,308.473h10.155v-9.767a3.478,3.478,0,0,0-3.478-3.478h-3.2a3.478,3.478,0,0,0-3.478,3.478Z" transform="translate(-649.344 -295.228)" fill="#7166f1"/>
      <path id="Path_72185" data-name="Path 72185" d="M660.008,296.228l14.653,22.219a1.9,1.9,0,0,1-1.582,2.938H646.937a1.9,1.9,0,0,1-1.583-2.938l14.654-22.219" transform="translate(-645.039 -295.532)" fill="#7166f1"/>
      <path id="Path_72186" data-name="Path 72186" d="M710.477,341.009a5.3,5.3,0,1,0,5.3-5.3,5.3,5.3,0,0,0-5.3,5.3" transform="translate(-664.958 -307.551)" fill="#ffce71"/>
      <path id="Path_72187" data-name="Path 72187" d="M714.929,342.364a2.2,2.2,0,1,0,2.2-2.2,2.2,2.2,0,0,0-2.2,2.2" transform="translate(-666.313 -308.906)" fill="#7166f1"/>
      <path id="Path_72188" data-name="Path 72188" d="M672.3,407.84v3.8h31.372v-3.8a1.391,1.391,0,0,0-1.391-1.391h-28.59A1.391,1.391,0,0,0,672.3,407.84Z" transform="translate(-653.336 -329.083)" fill="#7166f1"/>
    </g>
    <g id="Group_15884" data-name="Group 15884" transform="translate(409.32 66.47)">
      <path id="Path_72189" data-name="Path 72189" d="M483.076,73.3a34.518,34.518,0,1,1-34.519,34.519A34.535,34.535,0,0,1,483.076,73.3Z" transform="translate(-448.557 -73.297)" fill="#8054f6" fill-rule="evenodd"/>
      <path id="Path_72190" data-name="Path 72190" d="M524.96,97.772l-7.742.327,8.069-8.069Z" transform="translate(-469.457 -78.391)" fill="#281e62" fill-rule="evenodd"/>
      <path id="Path_72191" data-name="Path 72191" d="M512.214,111.678A24.954,24.954,0,1,1,504.9,94.034" transform="translate(-452.743 -77.384)" fill="none" stroke="#281e62" stroke-miterlimit="10" stroke-width="1" fill-rule="evenodd"/>
    </g>
    <g id="Group_15885" data-name="Group 15885" transform="translate(508.619 50.869)">
      <path id="Path_72192" data-name="Path 72192" d="M613.614,50.869a22.3,22.3,0,1,1-22.305,22.305A22.315,22.315,0,0,1,613.614,50.869Z" transform="translate(-591.309 -50.869)" fill="#281e62" fill-rule="evenodd"/>
      <path id="Path_72193" data-name="Path 72193" d="M616.392,60a15.956,15.956,0,1,1-15.956,15.956A15.963,15.963,0,0,1,616.392,60Z" transform="translate(-594.087 -53.647)" fill="#8054f6" fill-rule="evenodd"/>
      <path id="Path_72194" data-name="Path 72194" d="M617.769,64.519a12.81,12.81,0,1,1-12.81,12.81A12.815,12.815,0,0,1,617.769,64.519Z" transform="translate(-595.464 -55.024)" fill="#fdf3ea" fill-rule="evenodd"/>
      <path id="Path_72195" data-name="Path 72195" d="M622.614,80.435a1.738,1.738,0,1,1-1.738,1.739A1.739,1.739,0,0,1,622.614,80.435Z" transform="translate(-600.309 -59.869)" fill="#8054f6" fill-rule="evenodd"/>
      <path id="Path_72196" data-name="Path 72196" d="M622.348,78.475h1.429v-9.5a.7.7,0,0,0-.7-.7h-.038a.7.7,0,0,0-.7.7Z" transform="translate(-600.757 -56.17)" fill="#8054f6" fill-rule="evenodd"/>
      <path id="Path_72197" data-name="Path 72197" d="M629.71,86.683l.019-.033a.7.7,0,0,0-.255-.95L623.062,82l-.714,1.237,6.412,3.7A.7.7,0,0,0,629.71,86.683Z" transform="translate(-600.757 -60.344)" fill="#8054f6" fill-rule="evenodd"/>
    </g>
    <g id="Group_15886" data-name="Group 15886" transform="translate(498.102 113.994)">
      <rect id="Rectangle_8651" data-name="Rectangle 8651" width="95.625" height="43.026" rx="5" fill="#ff787f"/>
      <line id="Line_200" data-name="Line 200" x2="68.984" transform="translate(13.32 19.606)" fill="none" stroke="#fdf3ea" stroke-linejoin="round" stroke-width="1"/>
      <line id="Line_201" data-name="Line 201" x2="68.984" transform="translate(13.32 26.378)" fill="none" stroke="#fdf3ea" stroke-linejoin="round" stroke-width="1"/>
      <line id="Line_202" data-name="Line 202" x2="68.984" transform="translate(13.32 33.152)" fill="none" stroke="#fdf3ea" stroke-linejoin="round" stroke-width="1"/>
      <path id="Path_72198" data-name="Path 72198" d="M594.426,203.472l-6.943,11.946,24.967-11.946Z" transform="translate(-579.627 -160.446)" fill="#ff787f" fill-rule="evenodd"/>
    </g>
    <g id="Group_15887" data-name="Group 15887" transform="translate(351.575 271.894)">
      <path id="Path_72199" data-name="Path 72199" d="M380.189,406.528h4.642a8.562,8.562,0,0,0,8.563-8.562v-5.856H371.627v5.856a8.562,8.562,0,0,0,8.562,8.562" transform="translate(-367.395 -375.767)" fill="#7166f1"/>
      <path id="Path_72200" data-name="Path 72200" d="M371.412,392.833h-2.567a3.3,3.3,0,0,0-3.3,3.3v1.126a3.3,3.3,0,0,0,3.3,3.3h2.567" transform="translate(-365.543 -375.987)" fill="none" stroke="#7166f1" stroke-linejoin="round" stroke-width="1"/>
      <path id="Path_72201" data-name="Path 72201" d="M379.929,412.743h9.881V410.09h-9.881v2.653" transform="translate(-369.922 -381.24)" fill="#7166f1"/>
      <path id="Path_72202" data-name="Path 72202" d="M382.042,380.509l-1.873-1.459a2.859,2.859,0,0,1,.179-4.64h0a2.433,2.433,0,0,0,.558-3.548l-1.795-2.245" transform="translate(-369.659 -368.615)" fill="none" stroke="#ffce71" stroke-linejoin="round" stroke-width="1"/>
      <path id="Path_72203" data-name="Path 72203" d="M391.034,380.509l-1.874-1.459a2.859,2.859,0,0,1,.179-4.64h0a2.433,2.433,0,0,0,.558-3.548l-1.795-2.245" transform="translate(-372.396 -368.615)" fill="none" stroke="#ffce71" stroke-linejoin="round" stroke-width="1"/>
    </g>
    <g id="Group_15888" data-name="Group 15888" transform="translate(349.817 131.155)">
      <path id="Path_72204" data-name="Path 72204" d="M392.388,202.852a29.373,29.373,0,1,1-29.372,29.46A29.282,29.282,0,0,1,392.388,202.852Z" transform="translate(-363.016 -177.418)" fill="#ff787f" fill-rule="evenodd"/>
      <path id="Path_72205" data-name="Path 72205" d="M396.973,226.027a10.783,10.783,0,1,1-10.782,10.815A10.75,10.75,0,0,1,396.973,226.027Zm2.737-7.92a18.9,18.9,0,0,0-5.472.015l-.891,3.054a16.105,16.105,0,0,0-4.872,2.032l-2.786-1.518a18.964,18.964,0,0,0-3.87,3.881l1.528,2.782a16.062,16.062,0,0,0-2.018,4.878l-3.051.9a18.928,18.928,0,0,0,0,5.472l3.051.882a15.988,15.988,0,0,0,2.018,4.866l-1.528,2.791a18.814,18.814,0,0,0,3.87,3.857l2.786-1.535a15.985,15.985,0,0,0,4.872,2l.891,3.048a18.926,18.926,0,0,0,5.472-.017l.89-3.052a16.142,16.142,0,0,0,4.873-2.033l2.786,1.518a18.976,18.976,0,0,0,3.869-3.881l-1.527-2.781a16.1,16.1,0,0,0,2.018-4.879l3.049-.9a18.826,18.826,0,0,0,0-5.471l-3.049-.882a15.979,15.979,0,0,0-2.018-4.866l1.527-2.791a18.8,18.8,0,0,0-3.869-3.858l-2.786,1.535a16.021,16.021,0,0,0-4.873-2Z" transform="translate(-367.601 -182.003)" fill="#fdf3ea" fill-rule="evenodd"/>
      <path id="Path_72206" data-name="Path 72206" d="M412.838,172.774a3.947,3.947,0,1,1-3.946,3.959A3.936,3.936,0,0,1,412.838,172.774Zm1.511-6.381a10.418,10.418,0,0,0-3.021.008l-.493,1.686a8.927,8.927,0,0,0-2.691,1.122l-1.539-.838a10.494,10.494,0,0,0-2.135,2.142l.843,1.536a8.9,8.9,0,0,0-1.115,2.694l-1.684.5a10.422,10.422,0,0,0,0,3.021l1.684.487a8.839,8.839,0,0,0,1.115,2.688l-.843,1.54a10.367,10.367,0,0,0,2.135,2.131l1.539-.848a8.857,8.857,0,0,0,2.691,1.107l.493,1.683a10.492,10.492,0,0,0,3.021-.009l.492-1.686a8.87,8.87,0,0,0,2.691-1.123l1.539.839a10.48,10.48,0,0,0,2.136-2.142l-.843-1.536a8.883,8.883,0,0,0,1.114-2.695l1.685-.5a10.469,10.469,0,0,0,0-3.022l-1.685-.487a8.826,8.826,0,0,0-1.114-2.687l.843-1.541a10.4,10.4,0,0,0-2.136-2.13l-1.539.847a8.848,8.848,0,0,0-2.691-1.106Z" transform="translate(-375.006 -166.288)" fill="#ff787f" fill-rule="evenodd"/>
      <path id="Path_72207" data-name="Path 72207" d="M378.515,185.7a1.6,1.6,0,1,1-1.6,1.6A1.591,1.591,0,0,1,378.515,185.7Zm.87-4.347a6,6,0,0,0-1.739.006l-.282.97a5.128,5.128,0,0,0-1.549.646l-.885-.482a6,6,0,0,0-1.229,1.233l.485.885a5.106,5.106,0,0,0-.641,1.55l-.97.286a6.022,6.022,0,0,0,0,1.739l.97.28a5.076,5.076,0,0,0,.641,1.547l-.485.887a5.971,5.971,0,0,0,1.229,1.226l.885-.488a5.108,5.108,0,0,0,1.549.637l.282.968a6,6,0,0,0,1.739-.006l.283-.97a5.1,5.1,0,0,0,1.548-.646l.886.482a6.039,6.039,0,0,0,1.23-1.233l-.486-.885a5.122,5.122,0,0,0,.641-1.55l.969-.287a6.015,6.015,0,0,0,0-1.738l-.969-.28a5.092,5.092,0,0,0-.641-1.547l.486-.887a5.974,5.974,0,0,0-1.23-1.226l-.886.488a5.051,5.051,0,0,0-1.548-.637Z" transform="translate(-365.906 -170.854)" fill="#ff787f" fill-rule="evenodd"/>
    </g>
    <text id="_24_7" data-name="24/7" transform="translate(424.311 104.777)" fill="#fdf3ea" font-size="15" font-family="SegoeUI, Segoe UI"><tspan x="0" y="0" letter-spacing="-0.004em">2</tspan><tspan y="0">4/7</tspan></text>
  </g>
</svg>
