<svg xmlns="http://www.w3.org/2000/svg" xmlns:xlink="http://www.w3.org/1999/xlink" width="154.141" height="99.038" viewBox="0 0 154.141 99.038">
  <defs>
    <clipPath id="clip-path">
      <path id="Path_72282" data-name="Path 72282" d="M427.413,413.243a18.673,18.673,0,0,1-.957,2.31,3.822,3.822,0,0,0-.978.465.484.484,0,0,0-.2.617c.43.976,1.554,3.437,2.1,3.786.683.437,2.511.712,2.494.35s-1.358-1.152-1.358-1.152l-.957-3.478,1.4-2.353-1.458-.571" transform="translate(-425.232 -413.218)" fill="#feceac"/>
    </clipPath>
    <clipPath id="clip-path-2">
      <path id="Path_72286" data-name="Path 72286" d="M499.26,398.6c.007.123,1.853,2.243,1.853,2.243a4.955,4.955,0,0,1,1.214.735c.137.239-3.7,4.527-3.779,4.223s1.447-3.97,1.382-4.028-1.891-1.809-1.891-1.809Z" transform="translate(-498.039 -398.602)" fill="#feceac"/>
    </clipPath>
    <clipPath id="clip-path-3">
      <path id="Path_72293" data-name="Path 72293" d="M447.212,297.766l-9.093-11.673c1.512-4.292,2.937-8.24,3.711-10.137,2.167-5.313-.7-8.6-.7-8.6s-5.136.356-6.562.19c-1.76-.205-1.477,17.566-1.477,17.566l-3.985,16.707,3.286.839s1.935-5.692,4.106-11.933c2.324,2.72,8.407,9.347,8.407,9.347Z" transform="translate(-429.107 -267.358)" fill="#2d6c8c"/>
    </clipPath>
    <clipPath id="clip-path-4">
      <path id="Path_72296" data-name="Path 72296" d="M435.468,147.824c1.043,2.176.734,4.494-.69,5.177s-3.425-.528-4.468-2.7-.734-4.494.69-5.177S434.425,145.648,435.468,147.824Z" transform="translate(-429.692 -144.93)" fill="#feceac"/>
    </clipPath>
    <clipPath id="clip-path-5">
      <path id="Path_72319" data-name="Path 72319" d="M349.2,412.661c.037.138,2.641,2.093,2.641,2.093a5.741,5.741,0,0,1,1.552.54c.213.238-3.1,6.021-3.259,5.7s.679-4.846.592-4.9-2.578-1.592-2.578-1.592Z" transform="translate(-348.147 -412.661)" fill="#a56f6f"/>
    </clipPath>
    <clipPath id="clip-path-6">
      <path id="Path_72323" data-name="Path 72323" d="M272.926,430.74c-.011.142,1.791,2.854,1.791,2.854s1.162.731,1.284,1.026-4.928,4.643-4.972,4.282,2.257-4.341,2.191-4.418-1.9-2.361-1.9-2.361Z" transform="translate(-271.028 -430.74)" fill="#a56f6f"/>
    </clipPath>
    <clipPath id="clip-path-7">
      <path id="Path_72352" data-name="Path 72352" d="M595.563,283.152s6.163,4.01,3.49,9.431a58.672,58.672,0,0,1-6.906,10.4s3.861,1.262,4.455,13.737c0,0,.631.854.445,1.263s-1.075.321-1.188,1.337-1.856.854-1.633.594a5.377,5.377,0,0,0,1.819-3.082l-6.46-13.849s.817-9.133,2.9-13.032A52.722,52.722,0,0,0,595.563,283.152Z" transform="translate(-589.585 -283.152)" fill="#a56f6f"/>
    </clipPath>
    <clipPath id="clip-path-8">
      <path id="Path_72355" data-name="Path 72355" d="M521.171,282.208s1.718,7.149-3.95,9.247a58.651,58.651,0,0,1-12.162,2.8s1.936,3.572-6.21,13.038c0,0-.129,1.054-.544,1.223s-1-.506-1.782.154-1.935-.656-1.595-.692a5.375,5.375,0,0,0,3.44-.987l4.831-14.5s6.873-6.07,11.063-7.472A52.713,52.713,0,0,0,521.171,282.208Z" transform="translate(-494.867 -282.208)" fill="#a56f6f"/>
    </clipPath>
    <clipPath id="clip-path-9">
      <path id="Path_72366" data-name="Path 72366" d="M602.929,230.813s-.594-4.641,4.567-9.913l-.056-2.45-8.187-2.618s-1.2,3.491-2.116,4.455c-1,1.058-.724,3.731,1.225,3.119l1.671,6.627Z" transform="translate(-596.57 -215.832)" fill="#995042"/>
    </clipPath>
  </defs>
  <g id="Group_15983" data-name="Group 15983" transform="translate(-32.624 -39.905)">
    <g id="Group_15905" data-name="Group 15905" transform="translate(167.173 51.106)">
      <g id="Group_15904" data-name="Group 15904" transform="translate(0 14.998)" opacity="0.55">
        <path id="Path_72236" data-name="Path 72236" d="M616.383,187.377l-.123-.139c.035-.031,3.461-3.231-1.741-10.914a17.009,17.009,0,0,1-3.032-11.147,13.946,13.946,0,0,1,2.6-7.241,5.628,5.628,0,0,0,1.1-5.261l.173-.066a5.825,5.825,0,0,1-1.132,5.445c-1.675,2.071-5.19,9.852.438,18.166,1.525,2.252,3.261,5.56,2.872,8.526A4.344,4.344,0,0,1,616.383,187.377Z" transform="translate(-611.425 -152.609)" fill="#3a3a3a"/>
      </g>
      <path id="Path_72237" data-name="Path 72237" d="M616.6,103.122s-1.216.876-.457.983,1.762.749,1.7.194-.136-1.294-.136-1.294,4.7-3.3,4.854-8.926-5.579-8.572-8.546-3.024S616.6,103.122,616.6,103.122Z" transform="translate(-612.746 -88.09)" fill="#fdc14c"/>
    </g>
    <g id="Group_15907" data-name="Group 15907" transform="translate(130.711 39.905)">
      <g id="Group_15906" data-name="Group 15906" transform="translate(0 17.987)" opacity="0.55">
        <path id="Path_72238" data-name="Path 72238" d="M460.518,158.974l-.148-.167c.042-.038,4.15-3.874-2.088-13.089a20.4,20.4,0,0,1-3.636-13.368,16.727,16.727,0,0,1,3.122-8.683,6.749,6.749,0,0,0,1.323-6.309l.208-.08a6.985,6.985,0,0,1-1.358,6.529c-2.009,2.483-6.225,11.815.525,21.786,1.828,2.7,3.91,6.667,3.444,10.226A5.207,5.207,0,0,1,460.518,158.974Z" transform="translate(-454.572 -117.279)" fill="#3a3a3a"/>
      </g>
      <path id="Path_72239" data-name="Path 72239" d="M460.779,57.931s-1.458,1.051-.548,1.179,2.113.9,2.042.233l-.164-1.552s5.636-3.958,5.821-10.7-6.69-10.28-10.248-3.627S460.779,57.931,460.779,57.931Z" transform="translate(-456.156 -39.905)" fill="#5d344f"/>
    </g>
    <g id="Group_15909" data-name="Group 15909" transform="translate(94.599 56.1)">
      <g id="Group_15908" data-name="Group 15908" transform="translate(4.373 17.987)" opacity="0.55">
        <path id="Path_72240" data-name="Path 72240" d="M319.5,228.644l.148-.167c-.042-.038-4.15-3.874,2.088-13.089a20.4,20.4,0,0,0,3.636-13.368,16.726,16.726,0,0,0-3.122-8.683,6.749,6.749,0,0,1-1.323-6.309l-.208-.08a6.985,6.985,0,0,0,1.358,6.53c2.009,2.483,6.224,11.815-.525,21.785-1.829,2.7-3.91,6.668-3.444,10.226A5.211,5.211,0,0,0,319.5,228.644Z" transform="translate(-318.039 -186.948)" fill="#3a3a3a"/>
      </g>
      <path id="Path_72241" data-name="Path 72241" d="M306.381,127.6s1.459,1.051.548,1.179-2.113.9-2.043.233l.164-1.552s-5.636-3.958-5.821-10.7,6.69-10.28,10.248-3.627S306.381,127.6,306.381,127.6Z" transform="translate(-299.226 -109.574)" fill="#fc5673"/>
    </g>
    <g id="Group_15911" data-name="Group 15911" transform="translate(49.776 52.967)">
      <g id="Group_15910" data-name="Group 15910" transform="translate(0 18.065)" opacity="0.55">
        <path id="Path_72242" data-name="Path 72242" d="M107.246,214.681l.174-.139c-.035-.044-3.427-4.526,4.293-12.539a20.4,20.4,0,0,0,5.866-12.55,16.723,16.723,0,0,0-1.593-9.089,6.749,6.749,0,0,1-.225-6.443l-.192-.114a6.986,6.986,0,0,0,.222,6.666c1.555,2.79,4.114,12.7-4.24,21.375-2.263,2.349-4.992,5.9-5.14,9.487A5.209,5.209,0,0,0,107.246,214.681Z" transform="translate(-106.407 -173.807)" fill="#3a3a3a"/>
      </g>
      <path id="Path_72243" data-name="Path 72243" d="M128.67,114.217s1.258,1.285.339,1.255-2.235.524-2.052-.12l.427-1.5s-4.877-4.863-3.907-11.541,8.349-8.986,10.717-1.823S128.67,114.217,128.67,114.217Z" transform="translate(-119.41 -96.094)" fill="#2d6c8c"/>
    </g>
    <g id="Group_15912" data-name="Group 15912" transform="translate(80.351 56.758)">
      <path id="Path_72244" data-name="Path 72244" d="M238.183,113.088l3,.789a.349.349,0,0,0,.185-.673l-3-.789a.349.349,0,0,0-.185.673Z" transform="translate(-237.936 -112.402)" fill="#2d6c8c"/>
    </g>
    <g id="Group_15913" data-name="Group 15913" transform="translate(114.528 59.833)">
      <path id="Path_72245" data-name="Path 72245" d="M385.376,128.167a6.072,6.072,0,0,0,2.752-2.035c.273-.356-.332-.7-.6-.352a5.229,5.229,0,0,1-2.335,1.715c-.417.155-.237.829.186.672Z" transform="translate(-384.954 -125.633)" fill="#2d6c8c"/>
    </g>
    <g id="Group_15914" data-name="Group 15914" transform="translate(116.11 103.774)">
      <path id="Path_72246" data-name="Path 72246" d="M391.876,315.24a4.052,4.052,0,0,0,2.351,1.011c.447.042.444-.656,0-.7a3.248,3.248,0,0,1-1.858-.807c-.336-.3-.831.2-.493.493Z" transform="translate(-391.763 -314.656)" fill="#2d6c8c"/>
    </g>
    <g id="Group_15915" data-name="Group 15915" transform="translate(74.986 107.935)">
      <path id="Path_72247" data-name="Path 72247" d="M215.033,333.2l1.589.776c.4.2.756-.405.352-.6l-1.589-.776c-.4-.2-.756.4-.352.6Z" transform="translate(-214.855 -332.555)" fill="#2d6c8c"/>
    </g>
    <g id="Group_15916" data-name="Group 15916" transform="translate(155.865 92.813)">
      <path id="Path_72248" data-name="Path 72248" d="M563.431,268.96l.7-.929a.351.351,0,0,0-.125-.477.357.357,0,0,0-.477.125l-.7.929a.351.351,0,0,0,.125.477.358.358,0,0,0,.477-.125Z" transform="translate(-562.777 -267.506)" fill="#2d6c8c"/>
    </g>
    <g id="Group_15917" data-name="Group 15917" transform="translate(160.111 57.221)">
      <path id="Path_72249" data-name="Path 72249" d="M581.13,115l.951,1.145c.287.346.778-.15.493-.493l-.951-1.145c-.287-.346-.778.15-.493.493Z" transform="translate(-581.045 -114.395)" fill="#2d6c8c"/>
    </g>
    <g id="Group_15918" data-name="Group 15918" transform="translate(110.554 78.874)">
      <path id="Path_72250" data-name="Path 72250" d="M368.033,208.193l.93.7a.351.351,0,0,0,.477-.125.357.357,0,0,0-.125-.477l-.93-.7a.351.351,0,0,0-.477.125.357.357,0,0,0,.125.477Z" transform="translate(-367.86 -207.539)" fill="#2d6c8c"/>
    </g>
    <g id="Group_15919" data-name="Group 15919" transform="translate(141.937 90.964)">
      <path id="Path_72251" data-name="Path 72251" d="M503.035,260.2l.7.465a.349.349,0,0,0,.352-.6l-.7-.465a.349.349,0,0,0-.352.6Z" transform="translate(-502.863 -259.55)" fill="#2d6c8c"/>
    </g>
    <g id="Group_15920" data-name="Group 15920" transform="translate(41.041 104.412)">
      <path id="Path_72252" data-name="Path 72252" d="M69.435,319.2l1.351-1.211c.335-.3-.159-.792-.493-.493L68.942,318.7c-.335.3.16.792.493.493Z" transform="translate(-68.83 -317.399)" fill="#2d6c8c"/>
    </g>
    <g id="Group_15921" data-name="Group 15921" transform="translate(44.308 72.364)">
      <path id="Path_72253" data-name="Path 72253" d="M83.052,180.19l1.162.7a.349.349,0,0,0,.352-.6l-1.162-.7a.349.349,0,0,0-.352.6Z" transform="translate(-82.886 -179.536)" fill="#2d6c8c"/>
    </g>
    <g id="Group_15922" data-name="Group 15922" transform="translate(71.5 65.392)">
      <path id="Path_72254" data-name="Path 72254" d="M200.039,150.188l1.394.7c.4.2.754-.4.352-.6l-1.394-.7c-.4-.2-.754.4-.352.6Z" transform="translate(-199.862 -149.546)" fill="#2d6c8c"/>
    </g>
    <g id="Group_15923" data-name="Group 15923" transform="translate(69.42 93.29)">
      <path id="Path_72255" data-name="Path 72255" d="M191.248,270.252a.349.349,0,0,0,0-.7.349.349,0,0,0,0,.7Z" transform="translate(-190.911 -269.555)" fill="#fc5673"/>
    </g>
    <g id="Group_15924" data-name="Group 15924" transform="translate(111.031 112.325)">
      <path id="Path_72256" data-name="Path 72256" d="M370.248,352.4a3.607,3.607,0,0,0,1.483-.262c.41-.167.231-.842-.185-.673a3.114,3.114,0,0,1-1.3.237c-.449-.014-.448.683,0,.7Z" transform="translate(-369.911 -351.441)" fill="#fc5673"/>
    </g>
    <g id="Group_15925" data-name="Group 15925" transform="translate(50.124 119.082)">
      <path id="Path_72257" data-name="Path 72257" d="M108.009,381.1a3.267,3.267,0,0,0,1.527.836c.437.1.623-.57.185-.672a2.571,2.571,0,0,1-1.22-.657c-.324-.311-.817.181-.493.493Z" transform="translate(-107.903 -380.508)" fill="#fc5673"/>
    </g>
    <g id="Group_15926" data-name="Group 15926" transform="translate(81.035 64.234)">
      <path id="Path_72258" data-name="Path 72258" d="M240.922,145.088l.232.465a.349.349,0,0,0,.6-.352l-.232-.465a.349.349,0,0,0-.6.352Z" transform="translate(-240.879 -144.565)" fill="#fc5673"/>
    </g>
    <g id="Group_15927" data-name="Group 15927" transform="translate(146.343 98.652)">
      <path id="Path_72259" data-name="Path 72259" d="M522.351,293.955l1.627-.7c.411-.176.057-.777-.352-.6l-1.627.7c-.411.176-.057.777.352.6Z" transform="translate(-521.816 -292.624)" fill="#fc5673"/>
    </g>
    <g id="Group_15928" data-name="Group 15928" transform="translate(122.136 60.786)">
      <path id="Path_72260" data-name="Path 72260" d="M417.792,130.324l.713.681c.325.31.819-.182.493-.493l-.713-.681c-.325-.31-.818.182-.493.493Z" transform="translate(-417.686 -129.733)" fill="#fc5673"/>
    </g>
    <g id="Group_15929" data-name="Group 15929" transform="translate(159.836 65.406)">
      <path id="Path_72261" data-name="Path 72261" d="M579.86,149.943v1.395a.349.349,0,0,0,.7,0v-1.395a.349.349,0,0,0-.7,0Z" transform="translate(-579.86 -149.606)" fill="#fc5673"/>
    </g>
    <g id="Group_15930" data-name="Group 15930" transform="translate(151.465 89.571)">
      <path id="Path_72262" data-name="Path 72262" d="M543.865,254l.232.7a.357.357,0,0,0,.429.243.352.352,0,0,0,.243-.429l-.232-.7a.356.356,0,0,0-.429-.243.352.352,0,0,0-.243.429Z" transform="translate(-543.85 -253.556)" fill="#fc5673"/>
    </g>
    <g id="Group_15931" data-name="Group 15931" transform="translate(178.672 116.526)">
      <path id="Path_72263" data-name="Path 72263" d="M661.06,370.164l.7.461a.349.349,0,0,0,.352-.6l-.7-.461a.349.349,0,0,0-.352.6Z" transform="translate(-660.888 -369.513)" fill="#fc5673"/>
    </g>
    <g id="Group_15932" data-name="Group 15932" transform="translate(183.084 93.294)">
      <path id="Path_72264" data-name="Path 72264" d="M680.392,270.451l.465-.232a.349.349,0,0,0-.352-.6l-.465.232a.349.349,0,1,0,.352.6Z" transform="translate(-679.87 -269.574)" fill="#fc5673"/>
    </g>
    <g id="Group_15933" data-name="Group 15933" transform="translate(82.64 75.427)">
      <path id="Path_72265" data-name="Path 72265" d="M247.949,193.367a14.116,14.116,0,0,1,2.344,1.691c.334.3.829-.194.493-.493a15.013,15.013,0,0,0-2.485-1.8.349.349,0,0,0-.352.6Z" transform="translate(-247.779 -192.715)" fill="#fdc14c"/>
    </g>
    <g id="Group_15934" data-name="Group 15934" transform="translate(96.618 48.87)">
      <path id="Path_72266" data-name="Path 72266" d="M308.083,79.126l.929.7a.351.351,0,0,0,.477-.125.357.357,0,0,0-.125-.477l-.929-.7a.351.351,0,0,0-.477.125.357.357,0,0,0,.125.477Z" transform="translate(-307.911 -78.472)" fill="#fdc14c"/>
    </g>
    <g id="Group_15935" data-name="Group 15935" transform="translate(66.852 53.767)">
      <path id="Path_72267" data-name="Path 72267" d="M180.044,100.181a7.2,7.2,0,0,0,2.959.776c.449.02.448-.678,0-.7a6.341,6.341,0,0,1-2.607-.681c-.4-.2-.753.4-.352.6Z" transform="translate(-179.867 -99.538)" fill="#fdc14c"/>
    </g>
    <g id="Group_15936" data-name="Group 15936" transform="translate(46.638 59.815)">
      <path id="Path_72268" data-name="Path 72268" d="M93.248,126.252h.7a.349.349,0,0,0,0-.7h-.7a.349.349,0,0,0,0,.7Z" transform="translate(-92.911 -125.555)" fill="#fdc14c"/>
    </g>
    <g id="Group_15937" data-name="Group 15937" transform="translate(111.252 97.947)">
      <path id="Path_72269" data-name="Path 72269" d="M370.875,290.021l.232.93a.349.349,0,0,0,.672-.186l-.232-.93a.349.349,0,0,0-.672.186Z" transform="translate(-370.863 -289.588)" fill="#fdc14c"/>
    </g>
    <g id="Group_15938" data-name="Group 15938" transform="translate(113.328 115.157)">
      <path id="Path_72270" data-name="Path 72270" d="M379.913,364.2l1.395,1.162c.343.285.839-.205.493-.493l-1.395-1.162c-.343-.285-.838.205-.493.493Z" transform="translate(-379.796 -363.624)" fill="#fdc14c"/>
    </g>
    <g id="Group_15939" data-name="Group 15939" transform="translate(146.355 63.072)">
      <path id="Path_72271" data-name="Path 72271" d="M521.968,140.158l.232.232a.349.349,0,0,0,.493-.493l-.233-.232a.349.349,0,0,0-.493.493Z" transform="translate(-521.868 -139.565)" fill="#fdc14c"/>
    </g>
    <g id="Group_15940" data-name="Group 15940" transform="translate(123.341 53.541)">
      <path id="Path_72272" data-name="Path 72272" d="M422.968,99.158l.465.465a.349.349,0,0,0,.493-.493l-.465-.465a.349.349,0,0,0-.493.493Z" transform="translate(-422.868 -98.565)" fill="#fdc14c"/>
    </g>
    <g id="Group_15941" data-name="Group 15941" transform="translate(141.716 48.657)">
      <path id="Path_72273" data-name="Path 72273" d="M502.248,78.252a.349.349,0,0,0,0-.7.349.349,0,0,0,0,.7Z" transform="translate(-501.911 -77.555)" fill="#fdc14c"/>
    </g>
    <g id="Group_15942" data-name="Group 15942" transform="translate(156.818 48.429)">
      <path id="Path_72274" data-name="Path 72274" d="M567.12,76.827l-.232,1.162c-.088.438.584.626.672.186l.232-1.162c.088-.438-.584-.626-.672-.186Z" transform="translate(-566.88 -76.576)" fill="#fdc14c"/>
    </g>
    <g id="Group_15943" data-name="Group 15943" transform="translate(152.868 70.266)">
      <path id="Path_72275" data-name="Path 72275" d="M550.06,171.164l.7.461a.349.349,0,0,0,.352-.6l-.7-.461a.349.349,0,0,0-.352.6Z" transform="translate(-549.888 -170.514)" fill="#fdc14c"/>
    </g>
    <g id="Group_15944" data-name="Group 15944" transform="translate(138.677 67.261)">
      <path id="Path_72276" data-name="Path 72276" d="M489.018,158.229l.93.465c.4.2.754-.4.352-.6l-.93-.465c-.4-.2-.754.4-.352.6Z" transform="translate(-488.841 -157.587)" fill="#fdc14c"/>
    </g>
    <g id="Group_15945" data-name="Group 15945" transform="translate(179.109 107.965)">
      <path id="Path_72277" data-name="Path 72277" d="M664.709,332.836l-1.873,2.547c-.266.362.339.71.6.352l1.873-2.547c.266-.362-.339-.71-.6-.352Z" transform="translate(-662.77 -332.686)" fill="#fdc14c"/>
    </g>
    <g id="Group_15946" data-name="Group 15946" transform="translate(159.603 115.606)">
      <path id="Path_72278" data-name="Path 72278" d="M578.96,366.148l.7.7a.349.349,0,0,0,.493-.493l-.7-.7a.349.349,0,0,0-.493.493Z" transform="translate(-578.858 -365.553)" fill="#fdc14c"/>
    </g>
    <g id="Group_15955" data-name="Group 15955" transform="translate(113.879 64.319)">
      <g id="Group_15948" data-name="Group 15948" transform="translate(10.012 62.367)">
        <path id="Path_72279" data-name="Path 72279" d="M427.413,413.243a18.673,18.673,0,0,1-.957,2.31,3.822,3.822,0,0,0-.978.465.484.484,0,0,0-.2.617c.43.976,1.554,3.437,2.1,3.786.683.437,2.511.712,2.494.35s-1.358-1.152-1.358-1.152l-.957-3.478,1.4-2.353-1.458-.571" transform="translate(-425.232 -413.218)" fill="#feceac"/>
        <g id="Group_15947" data-name="Group 15947" clip-path="url(#clip-path)">
          <path id="Path_72280" data-name="Path 72280" d="M422.474,416.323s1.636,1.16,2.319,1.6,2.393,5.8,2.393,5.8l-4.457.15-2.71-3.5Z" transform="translate(-421.232 -415.601)" fill="#f4eae9"/>
          <path id="Path_72281" data-name="Path 72281" d="M420.813,415.495c-.041.472,1.005,1.81,2.784,2.835s2.712,5.338,2.712,5.338l-5.2-.178-2.1-3.316Z" transform="translate(-420.455 -414.966)" fill="#563219"/>
        </g>
      </g>
      <g id="Group_15950" data-name="Group 15950" transform="translate(26.936 58.969)">
        <path id="Path_72283" data-name="Path 72283" d="M499.26,398.6c.007.123,1.853,2.243,1.853,2.243a4.955,4.955,0,0,1,1.214.735c.137.239-3.7,4.527-3.779,4.223s1.447-3.97,1.382-4.028-1.891-1.809-1.891-1.809Z" transform="translate(-498.039 -398.602)" fill="#feceac"/>
        <g id="Group_15949" data-name="Group 15949" clip-path="url(#clip-path-2)">
          <path id="Path_72284" data-name="Path 72284" d="M497.5,402.618a19.356,19.356,0,0,1-1.823,1.645c-.595.4-1.2,5.006-1.2,5.006l1.508,1.583,4.74-5.82-.284-1.775Z" transform="translate(-495.305 -401.684)" fill="#f4eae9"/>
          <path id="Path_72285" data-name="Path 72285" d="M500.9,406.119s-.126,1.057-1.888,1.587-1.218,4.76-1.218,4.76l5.184-4.486Z" transform="translate(-497.787 -404.372)" fill="#563219"/>
        </g>
      </g>
      <path id="Path_72287" data-name="Path 72287" d="M395.041,189.476s-6.821-1.175-12.473,2.63a.928.928,0,0,0-.326,1.138c.751,1.74,3.078,4.365,6.256,6.219a16.539,16.539,0,0,0-3.207-5.611c-.1-.109.6.367.746.379,1.75.144,7.108-.206,9.8-2.666" transform="translate(-382.165 -178.989)" fill="#feceac"/>
      <path id="Path_72288" data-name="Path 72288" d="M478.409,185.621s6.578-2.778,12.934-.7a1.191,1.191,0,0,1,.8,1.322c-.33,2.014-1.474,6.579-5.2,8.472a17.651,17.651,0,0,1,3.1-7.865s-7.627,3.019-11.441,1.033" transform="translate(-456.036 -175.033)" fill="#feceac"/>
      <path id="Path_72289" data-name="Path 72289" d="M435.2,187.989a21.725,21.725,0,0,0,.936,9.171c1.373,3.369,3.244,6.863,2.995,8.922,0,0,4.94,1.245,6.562-.19,0,0,1.86-14.6-1.01-18.527C444.686,187.366,438.447,186.929,435.2,187.989Z" transform="translate(-422.76 -177.433)" fill="#feceac"/>
      <g id="Group_15952" data-name="Group 15952" transform="translate(10.912 28.46)">
        <path id="Path_72290" data-name="Path 72290" d="M447.212,297.766l-9.093-11.673c1.512-4.292,2.937-8.24,3.711-10.137,2.167-5.313-.7-8.6-.7-8.6s-5.136.356-6.562.19c-1.76-.205-1.477,17.566-1.477,17.566l-3.985,16.707,3.286.839s1.935-5.692,4.106-11.933c2.324,2.72,8.407,9.347,8.407,9.347Z" transform="translate(-429.107 -267.358)" fill="#2d6c8c"/>
        <g id="Group_15951" data-name="Group 15951" clip-path="url(#clip-path-3)">
          <path id="Path_72291" data-name="Path 72291" d="M461.352,355.228l-.45-2.729,1.621-4.633,2.484-.027,8.5,11.361-3.337,3.5-5.561-3.655Z" transform="translate(-453.511 -329.13)" fill="#8d4063" opacity="0.31" style="mix-blend-mode: multiply;isolation: isolate"/>
          <path id="Path_72292" data-name="Path 72292" d="M436.764,303.633l2.182-3.178,3.459-13.109s-3.1,6.038-4.529,2.622S436.764,303.633,436.764,303.633Z" transform="translate(-434.961 -282.7)" fill="#8d4063" opacity="0.31" style="mix-blend-mode: multiply;isolation: isolate"/>
        </g>
      </g>
      <g id="Group_15954" data-name="Group 15954" transform="translate(11.048)">
        <path id="Path_72294" data-name="Path 72294" d="M435.468,147.824c1.043,2.176.734,4.494-.69,5.177s-3.425-.528-4.468-2.7-.734-4.494.69-5.177S434.425,145.648,435.468,147.824Z" transform="translate(-429.692 -144.93)" fill="#feceac"/>
        <g id="Group_15953" data-name="Group 15953" clip-path="url(#clip-path-4)">
          <path id="Path_72295" data-name="Path 72295" d="M428.547,144.281c.053-.106.715-.371,1.642.08s.954-1.483,1.827-1.245,1.96.98,2.092,1.8.583.291.477-.583-3.1-3.151-3.1-3.151l-2.3.556Z" transform="translate(-428.813 -142.054)" fill="#da6354"/>
        </g>
      </g>
      <path id="Path_72297" data-name="Path 72297" d="M447.322,162.942c.593,1.78,1.829,5.648,3.5,5.879,2.86.4-6.435.953-6.435.953s2.463-1.668.874-3.893S447.322,162.942,447.322,162.942Z" transform="translate(-429.919 -158.755)" fill="#feceac"/>
      <path id="Path_72298" data-name="Path 72298" d="M415.25,208.406l-.089-.008A.108.108,0,0,0,415.25,208.406Z" transform="translate(-407.491 -193.644)" fill="#83b3ad"/>
      <path id="Path_72299" data-name="Path 72299" d="M455.486,156c0,.6-.267,1.092-.6,1.092s-.6-.489-.6-1.092.267-1.092.6-1.092S455.486,155.4,455.486,156Z" transform="translate(-437.527 -152.591)" fill="#feceac"/>
      <path id="Path_72300" data-name="Path 72300" d="M433.743,164a.819.819,0,0,1,.045-.375.543.543,0,0,1,.247-.3.514.514,0,0,1,.386-.025,1.155,1.155,0,0,1,.172.075c.052.036.1.071.15.11-.06-.014-.117-.033-.173-.051s-.114-.027-.169-.035a.511.511,0,0,0-.308.042.542.542,0,0,0-.216.23A1.791,1.791,0,0,0,433.743,164Z" transform="translate(-421.749 -159.012)" fill="#383838"/>
      <path id="Path_72301" data-name="Path 72301" d="M441.7,159.72a.813.813,0,0,1,.044-.374.543.543,0,0,1,.247-.3.514.514,0,0,1,.386-.025,1.163,1.163,0,0,1,.172.075c.052.036.1.071.15.11-.06-.014-.117-.033-.173-.051s-.113-.027-.169-.035a.512.512,0,0,0-.308.042.545.545,0,0,0-.216.23A1.8,1.8,0,0,0,441.7,159.72Z" transform="translate(-427.857 -155.723)" fill="#383838"/>
      <path id="Path_72302" data-name="Path 72302" d="M441.463,164.277s-.662.132-.768-.186a5.8,5.8,0,0,1,0-1.377" transform="translate(-427.053 -158.581)" fill="none" stroke="#915036" stroke-miterlimit="10" stroke-width="0.684"/>
      <path id="Path_72303" data-name="Path 72303" d="M406.343,229.008a1.224,1.224,0,0,1,.424-1.483c.741-.556,1.456.689,1.218.953s-.238,1.3-.636,1.112A10.731,10.731,0,0,1,406.343,229.008Z" transform="translate(-400.646 -208.216)" fill="#feceac"/>
      <path id="Path_72304" data-name="Path 72304" d="M507.191,222.719a1.224,1.224,0,0,1,1.272.873c.292.88-1.116,1.162-1.291.852s-1.155-.638-.853-.956A10.743,10.743,0,0,1,507.191,222.719Z" transform="translate(-477.413 -204.623)" fill="#feceac"/>
      <path id="Path_72305" data-name="Path 72305" d="M418.8,182.4s3.656,3.249,6.217-.3c0,0,3.7-1.7,6.4-1.561,0,0-.142,4.838.712,5.265,0,0-2.846.427-3.273,1s-.854,12.949.142,15.937c0,0-4.553-1.281-6.546,0s-4.553,0-4.553,0a13.98,13.98,0,0,0-.711-8.822c-1.992-4.553-1.708-6.83-1.708-6.83l-3.273.569s-.427-4.411-.854-5.123S417.567,181.559,418.8,182.4Z" transform="translate(-404.559 -172.252)" fill="#d17270"/>
      <path id="Path_72306" data-name="Path 72306" d="M439.167,157.381s1.788,2.828,1.646,3.255-2.7,3.7-3.7,3.415a4.551,4.551,0,0,1-2.134-1.565,16.889,16.889,0,0,1-.468-1.761s2.27.1,2.934-.848S439.167,157.381,439.167,157.381Z" transform="translate(-422.342 -154.487)" fill="#da6354"/>
      <path id="Path_72307" data-name="Path 72307" d="M440.833,169.931a1.809,1.809,0,0,0,2.009-1.232S443.732,172.125,440.833,169.931Z" transform="translate(-427.195 -163.173)" fill="#fff"/>
    </g>
    <g id="Group_15965" data-name="Group 15965" transform="translate(74.192 69.079)">
      <g id="Group_15964" data-name="Group 15964">
        <g id="Group_15957" data-name="Group 15957" transform="translate(0 9.134)">
          <g id="Group_15956" data-name="Group 15956" transform="translate(2.592 2.965)">
            <rect id="Rectangle_8656" data-name="Rectangle 8656" width="0.127" height="6.225" transform="translate(0 0.005) rotate(-2.337)" fill="#38383a"/>
          </g>
          <path id="Path_72308" data-name="Path 72308" d="M213.532,206.948c-.116-.281-.815-1.688-.815-1.688l1.28,1.688.349-2.251v2.251l.815-1.125-.349,1.547,2.211.422h-2.211l1.047,2.11-1.629-2.11-.116,2.11-.233-2.251-1.513,2.251,1.047-2.251-1.978-.563Z" transform="translate(-211.438 -204.697)" fill="#ebc061"/>
        </g>
        <g id="Group_15959" data-name="Group 15959" transform="translate(39.511 12.09)">
          <g id="Group_15958" data-name="Group 15958" transform="translate(0.394 2.715)">
            <rect id="Rectangle_8657" data-name="Rectangle 8657" width="6.225" height="0.127" transform="translate(0 5.914) rotate(-71.79)" fill="#38383a"/>
          </g>
          <path id="Path_72309" data-name="Path 72309" d="M383.532,219.277c-.01-.3-.17-1.866-.17-1.866l.606,2.03,1.117-1.985-.79,2.107,1.158-.768-.87,1.326,1.922,1.171-2.07-.776.24,2.343-.785-2.548-.85,1.935.572-2.189-2.206,1.577,1.77-1.74-1.655-1.221Z" transform="translate(-381.406 -217.411)" fill="#ebc061"/>
        </g>
        <path id="Path_72310" data-name="Path 72310" d="M269.929,180.175a1.6,1.6,0,0,0-.807,2.061,2.7,2.7,0,0,0,1.5,1.745l.514-3.226Z" transform="translate(-255.61 -176.741)" fill="#38383a"/>
        <path id="Path_72311" data-name="Path 72311" d="M272.176,206.512s-.412,1.977-2.09,2.006a2.321,2.321,0,0,1-.275-.012c-1.908-.2,2.961,3.467,2.961,3.467l2.19-.264,1.889-2.287-1.445-.529s-1.7-.759-.645-4.276S272.176,206.512,272.176,206.512Z" transform="translate(-255.901 -194.59)" fill="#a56f6f"/>
        <path id="Path_72312" data-name="Path 72312" d="M273.168,177.325a11.088,11.088,0,0,0-2.283,6.333,3.123,3.123,0,0,0,2.553,3.036l.056.01c1.9.322,3.66-1.65,4.169-3.671S276.949,176.445,273.168,177.325Z" transform="translate(-257.065 -174.469)" fill="#a56f6f"/>
        <path id="Path_72313" data-name="Path 72313" d="M275.772,171.367s-6.034-.071-5.231-4.255,4.849.635,4.849.635.224-2.268,1.64-1.564,1.4,4.512,1.4,4.512,2.851.431,1.773,2.473-3.6,3.928-4.677,3.707a6.529,6.529,0,0,1,.417-1.306s1.309-.772,1.037-1.5-.707,0-.707,0A2.6,2.6,0,0,1,275.772,171.367Z" transform="translate(-256.745 -165.404)" fill="#38383a"/>
        <path id="Path_72314" data-name="Path 72314" d="M227.557,239.133s-2.075,7.365-2.075,8.4-2.964-5.186-2.964-6.816c0,0-.148.3,0-.741s-1.037-2.667-1.482-1.778.593,2.816.593,2.816,0,8.743,3.853,10.373,4.446-10.669,4.446-10.669Z" transform="translate(-218.72 -221.081)" fill="#a56f6f"/>
        <path id="Path_72315" data-name="Path 72315" d="M304.27,238.421a22.762,22.762,0,0,0,17.041,3.853,1.664,1.664,0,0,0,1.63-.445c.741-.741.889-2.964.444-2.667s-2.074,1.334-2.074,1.334-9.928.889-14.077-4Z" transform="translate(-282.69 -219.969)" fill="#a56f6f"/>
        <g id="Group_15961" data-name="Group 15961" transform="translate(31.78 57.478)">
          <path id="Path_72316" data-name="Path 72316" d="M349.2,412.661c.037.138,2.641,2.093,2.641,2.093a5.741,5.741,0,0,1,1.552.54c.213.238-3.1,6.021-3.259,5.7s.679-4.846.592-4.9-2.578-1.592-2.578-1.592Z" transform="translate(-348.147 -412.661)" fill="#a56f6f"/>
          <g id="Group_15960" data-name="Group 15960" clip-path="url(#clip-path-5)">
            <path id="Path_72317" data-name="Path 72317" d="M351.906,416.193a22.41,22.41,0,0,1-1.667,2.3c-.577.6-.154,5.96-.154,5.96l2.09,1.429,3.962-7.736-.75-1.941Z" transform="translate(-349.52 -415.372)" fill="#f4eae9"/>
            <path id="Path_72318" data-name="Path 72318" d="M354.946,419.212s.112,1.227-1.754,2.253-.229,5.685-.229,5.685l4.787-6.333Z" transform="translate(-351.333 -417.689)" fill="#563219"/>
          </g>
        </g>
        <g id="Group_15963" data-name="Group 15963" transform="translate(13.852 61.681)">
          <path id="Path_72320" data-name="Path 72320" d="M272.926,430.74c-.011.142,1.791,2.854,1.791,2.854s1.162.731,1.284,1.026-4.928,4.643-4.972,4.282,2.257-4.341,2.191-4.418-1.9-2.361-1.9-2.361Z" transform="translate(-271.028 -430.74)" fill="#a56f6f"/>
          <g id="Group_15962" data-name="Group 15962" clip-path="url(#clip-path-6)">
            <path id="Path_72321" data-name="Path 72321" d="M268.653,435.982a22.409,22.409,0,0,1-2.34,1.615c-.744.374-2.133,5.567-2.133,5.567l1.494,2.044,6.315-5.971-.06-2.08Z" transform="translate(-265.772 -434.763)" fill="#f4eae9"/>
            <path id="Path_72322" data-name="Path 72322" d="M272.472,440.589s-.3,1.194-2.405,1.538-2.112,5.283-2.112,5.283l6.625-4.373Z" transform="translate(-268.669 -438.299)" fill="#563219"/>
          </g>
        </g>
        <path id="Path_72324" data-name="Path 72324" d="M239.321,300.638a13.3,13.3,0,0,0-2.516,5.465c-.936,3.745,4.682,13.3,5.057,15.169,0,0-1.873,2.435-3.371,1.873s-8.8-12.36-8.8-16.105,4.822-11.793,6.372-15.885c1.186-3.132,5.4-4.682,10.108,3.15,1.079,1.794,1.311,11.8,1.311,13.671s10.487,7.116,11.611,9.738l-1.5,2.247s-12.922-5.244-14.607-10.3S239.508,303.635,239.321,300.638Z" transform="translate(-225.446 -259.958)" fill="#8d4063"/>
        <path id="Path_72325" data-name="Path 72325" d="M324.56,258.439c.015.007.022.007,0,0Z" transform="translate(-298.263 -236.812)" fill="#ebc061"/>
        <path id="Path_72326" data-name="Path 72326" d="M265.126,232.5l1.037-4.149s-3.858-1.522-4.608-2.271a10.472,10.472,0,0,0-3.722-1.243,3.271,3.271,0,0,1-2.339,1.588c-1.516.414-1.836-1.608-1.873-1.892a7.951,7.951,0,0,0-3.758,1,8.034,8.034,0,0,0-2.964,4.742l1.734,1.8.636,9.911s7.315,3.159,9.187,2.223c0,0-.438-8.428,2.371-13.484a14.492,14.492,0,0,0,3.853,1.926c.168.033.243.054.271.063C264.912,232.689,264.814,232.617,265.126,232.5Z" transform="translate(-238.656 -210.785)" fill="#ebc061"/>
      </g>
      <path id="Path_72327" data-name="Path 72327" d="M275.178,195.811a.846.846,0,0,1,.3-.252.566.566,0,0,1,.4-.053.534.534,0,0,1,.31.256,1.211,1.211,0,0,1,.077.18c.013.064.027.127.035.191-.035-.054-.065-.109-.094-.163s-.067-.1-.1-.147a.533.533,0,0,0-.263-.188.566.566,0,0,0-.329.02A1.856,1.856,0,0,0,275.178,195.811Z" transform="translate(-260.361 -188.495)" fill="#383838"/>
      <path id="Path_72328" data-name="Path 72328" d="M284.74,197.723a.849.849,0,0,1,.3-.252.566.566,0,0,1,.4-.053.536.536,0,0,1,.311.256,1.22,1.22,0,0,1,.077.18c.014.064.027.127.035.191-.036-.054-.065-.109-.094-.162s-.067-.1-.1-.147a.533.533,0,0,0-.263-.188.567.567,0,0,0-.328.02A1.852,1.852,0,0,0,284.74,197.723Z" transform="translate(-267.7 -189.963)" fill="#383838"/>
      <path id="Path_72329" data-name="Path 72329" d="M279.542,200.247a1.1,1.1,0,0,1-.564-.2.378.378,0,0,1-.16-.3,1.12,1.12,0,0,1,.076-.3,3.657,3.657,0,0,1,.263-.527,3.724,3.724,0,0,1,.336-.48q-.1.276-.221.54c-.076.177-.156.352-.223.527a1.1,1.1,0,0,0-.075.254.256.256,0,0,0,.089.2A1.714,1.714,0,0,0,279.542,200.247Z" transform="translate(-263.154 -190.756)" fill="#753838"/>
      <path id="Path_72330" data-name="Path 72330" d="M275.534,207.59s1.124,1.037,2.192.459C277.726,208.049,276.846,210.529,275.534,207.59Z" transform="translate(-260.634 -197.783)" fill="#fff"/>
    </g>
    <g id="Group_15971" data-name="Group 15971" transform="translate(32.624 65.748)">
      <g id="Group_15970" data-name="Group 15970" transform="translate(0)">
        <path id="Path_72331" data-name="Path 72331" d="M110.841,336.615s-.007-.862-.56-.893a1.049,1.049,0,0,0-1.094.57c-.214.393.074,1.633-.167,2.131s.141,2.055,1.145,1.642-.978-1.375.585-3.1Z" transform="translate(-91.208 -292.797)" fill="#38383a"/>
        <path id="Path_72332" data-name="Path 72332" d="M140.2,425.713a5.171,5.171,0,0,0,.264,3.695c.481.766-1.156.772-1.771.005s-.072-2.793-.072-2.793-.095-1.138.956-1.089Z" transform="translate(-113.809 -361.73)" fill="#38383a"/>
        <g id="Group_15967" data-name="Group 15967" transform="translate(0 14.679)">
          <g id="Group_15966" data-name="Group 15966" transform="translate(2.797 2.396)">
            <rect id="Rectangle_8658" data-name="Rectangle 8658" width="0.135" height="6.637" transform="matrix(0.684, -0.73, 0.73, 0.684, 0, 0.099)" fill="#38383a"/>
          </g>
          <path id="Path_72333" data-name="Path 72333" d="M34.505,216.541c-.3-.127-1.881-.674-1.881-.674l2.235.326-1.417-1.972,1.683,1.711-.222-1.464.891,1.437,2-1.332-1.68,1.653,2.373.821-2.816-.386,1.489,1.691L35.3,216.815l.533,2.842-.886-2.494-1.924,1.051Z" transform="translate(-32.624 -214.222)" fill="#ebc061"/>
        </g>
        <path id="Path_72334" data-name="Path 72334" d="M104.342,192.549s-.648-.786.616-1.892,2.528-3.16.474-3.16-5.213-2.527-6.635-1.264-4.265.158-3.633,1.738-2.054,3.791-.632,4.9,2.212,1.738,2.212,3.159,2.369,3,3.159.474a3.936,3.936,0,0,1,3.159-3A3.171,3.171,0,0,0,104.342,192.549Z" transform="translate(-79.817 -177.789)" fill="#5d344f"/>
        <path id="Path_72335" data-name="Path 72335" d="M124.855,323.494c.1.308-.357,3.91-.357,3.91a10.31,10.31,0,0,1-8.75-1.366,20.363,20.363,0,0,1-6.413-7.257S123.843,320.41,124.855,323.494Z" transform="translate(-91.503 -279.796)" fill="#c64d43"/>
        <path id="Path_72336" data-name="Path 72336" d="M142.44,320.272c.22.406-.977,7.879-.63,9s-1.181,4.21-.8,8.885-.174,6.551-.174,6.551.583.786,1.057.109,3.055-11.21,3.392-13.493,4-5.006,3.411-9.2S142.44,320.272,142.44,320.272Z" transform="translate(-115.682 -280.443)" fill="#feceac"/>
        <path id="Path_72337" data-name="Path 72337" d="M118.091,296.51s.36,9.569.6,11.75a11.637,11.637,0,0,0-5-3.117s-.617.7-.4,1.107,5.218,6.042,6.013,6.346,4.574,1.562,3.96-9.444S118.091,296.51,118.091,296.51Z" transform="translate(-94.505 -262.047)" fill="#feceac"/>
        <g id="Group_15968" data-name="Group 15968" transform="translate(26.053 43.312)">
          <path id="Path_72338" data-name="Path 72338" d="M144.764,344.749a5.752,5.752,0,0,0,2.8-3.046,11.658,11.658,0,0,0,1.127-4.268c0-.055-.083-.054-.086,0a11.554,11.554,0,0,1-1.116,4.226,5.689,5.689,0,0,1-2.775,3.014c-.05.023,0,.1.045.073Z" transform="translate(-144.697 -337.394)" fill="#feceac"/>
        </g>
        <path id="Path_72339" data-name="Path 72339" d="M87.4,167.169s4.5-3.447,5.041-4.58,4.914-4.357,5.336-5.321a8.154,8.154,0,0,0,.148-3.551,11.4,11.4,0,0,1-.354-2.637,15.887,15.887,0,0,1,1,2.388c.268.694,0,1.585.223,1.99s.464-1.564.633-1.446a3.3,3.3,0,0,1,.263,2.325c-.355.507-1.208,1.547-1.208,1.547s-2.6,5.8-6.15,9.168A4.327,4.327,0,0,0,91,170.43a10.471,10.471,0,0,0,1,3.606c.829,1.335-6.921,5.1-6.921,5.1s-.323-3.5-2.251-4.344c0,0-6.482,4.407-8.308,4.138s-6.672-5.044-6.672-5.044l.473-.676s5.7,3.734,6.511,3.294c0,0,6.013-5.649,6.813-6.017l.8-.369s2.079-.812.193-2.257l.455-2.452S85.357,169.013,87.4,167.169Z" transform="translate(-59.657 -151.077)" fill="#feceac"/>
        <g id="Group_15969" data-name="Group 15969" transform="translate(16.275 15.923)">
          <path id="Path_72340" data-name="Path 72340" d="M114.225,219.574s2.42,4.462,3.891,5.239,5.568,12.2,3.864,19.322-2.592,7.127-2.592,7.127a3.4,3.4,0,0,0-3.78-3.777c-4.125.137-12.85-1.431-12.97-6.3,0,0,15.365-6.127,5.436-17.856,0,0,.617-.7,1.073-.635s2.089,2.594,3.459,2.8,3.482-2.1.572-5.14C113.177,220.352,113.794,219.65,114.225,219.574Z" transform="translate(-102.637 -219.574)" fill="#fc5673"/>
        </g>
        <ellipse id="Ellipse_507" data-name="Ellipse 507" cx="2.869" cy="3.902" rx="2.869" ry="3.902" transform="translate(16.115 13.796) rotate(-53.172)" fill="#feceac"/>
        <path id="Path_72341" data-name="Path 72341" d="M61.149,241.867s.17-1.409-.836-1.671-2.043.2-1.968.968,1.384-.085,1.848.952l.75.287Z" transform="translate(-52.364 -219.423)" fill="#feceac"/>
        <path id="Path_72342" data-name="Path 72342" d="M106.351,194.1s0,3-1.738,3.317c0,0,2.654,2.258,1.485,2.393s-3.065-1.919-3.065-1.919l-.316-3.16,1.9-1.9,2.37.316a13.367,13.367,0,0,1,2.369,1.422C109.511,194.892,106.351,194.1,106.351,194.1Z" transform="translate(-86.424 -183.13)" fill="#5d344f"/>
        <path id="Path_72343" data-name="Path 72343" d="M131.987,198.906c.17.354.117.733-.119.846s-.565-.082-.735-.435-.117-.732.119-.846S131.817,198.552,131.987,198.906Z" transform="translate(-108.157 -187.428)" fill="#feceac"/>
        <path id="Path_72344" data-name="Path 72344" d="M114.744,219.659c.387.068.663.332.618.59s-.4.411-.782.343-.663-.332-.618-.59S114.357,219.591,114.744,219.659Z" transform="translate(-95.05 -203.704)" fill="#feceac"/>
      </g>
      <path id="Path_72345" data-name="Path 72345" d="M125.243,203.121a.853.853,0,0,0-.394.017.57.57,0,0,0-.335.234.537.537,0,0,0-.056.4,1.221,1.221,0,0,0,.065.186c.033.057.066.113.1.165-.01-.064-.026-.125-.041-.184s-.02-.121-.023-.179a.536.536,0,0,1,.067-.318.569.569,0,0,1,.257-.208A1.856,1.856,0,0,1,125.243,203.121Z" transform="translate(-103.098 -191.011)" fill="#383838"/>
      <path id="Path_72346" data-name="Path 72346" d="M119.46,212.39a.854.854,0,0,0-.395.018.568.568,0,0,0-.335.234.539.539,0,0,0-.056.4,1.274,1.274,0,0,0,.065.186c.033.057.066.113.1.165-.01-.064-.026-.124-.04-.184s-.02-.121-.024-.179a.537.537,0,0,1,.067-.318.569.569,0,0,1,.257-.208A1.852,1.852,0,0,1,119.46,212.39Z" transform="translate(-98.659 -198.126)" fill="#383838"/>
      <path id="Path_72347" data-name="Path 72347" d="M125.465,211.714a.721.721,0,0,0,.186-.345.248.248,0,0,0-.057-.218.73.73,0,0,0-.172-.113,2.408,2.408,0,0,0-.361-.139,2.449,2.449,0,0,0-.375-.083c.115.058.23.113.346.163s.232.1.342.156a.724.724,0,0,1,.149.089.168.168,0,0,1,.045.136A1.127,1.127,0,0,1,125.465,211.714Z" transform="translate(-103.284 -196.929)" fill="#e2a77f"/>
      <path id="Path_72348" data-name="Path 72348" d="M129.21,211.35s-.128,1.531-1.312,1.828C127.9,213.178,130.234,214.417,129.21,211.35Z" transform="translate(-105.75 -197.339)" fill="#fff"/>
    </g>
    <g id="Group_15982" data-name="Group 15982" transform="translate(140.078 65.173)">
      <path id="Path_72349" data-name="Path 72349" d="M623.025,180.416a1.585,1.585,0,0,1,0-1.641s-.547-.729.547-1.459a1.711,1.711,0,0,1,2.553-.729s1.094-1.459,1.824,0c0,0,2.371,0,1.641,1.094,0,0,1.824.729,1.094,1.641,0,0,1.459.912.365,1.824,0,0,.547,2.189-.912,2.371,0,0,.365,1.459-.912,1.094,0,0-1.641,1.641-2.006.729,0,0-1.094.912-1.277-.182,0,0-1.821,1.4-1.64-.03S622.113,181.51,623.025,180.416Z" transform="translate(-593.047 -169.583)" fill="#38383a"/>
      <g id="Group_15973" data-name="Group 15973" transform="translate(22.018 31.278)">
        <path id="Path_72350" data-name="Path 72350" d="M595.563,283.152s6.163,4.01,3.49,9.431a58.672,58.672,0,0,1-6.906,10.4s3.861,1.262,4.455,13.737c0,0,.631.854.445,1.263s-1.075.321-1.188,1.337-1.856.854-1.633.594a5.377,5.377,0,0,0,1.819-3.082l-6.46-13.849s.817-9.133,2.9-13.032A52.722,52.722,0,0,0,595.563,283.152Z" transform="translate(-589.585 -283.152)" fill="#a56f6f"/>
        <g id="Group_15972" data-name="Group 15972" clip-path="url(#clip-path-7)">
          <path id="Path_72351" data-name="Path 72351" d="M579.3,320.445c.3-.148,5.631.148,4.89-4.594a26.606,26.606,0,0,1,0-8.446l6.076-7.854-.3-6.224-10.773-.742-4.49,4.447-2.074,9.335,1.037,8.447,2.964,4.594Z" transform="translate(-576.576 -290.393)" fill="#2d6c8c"/>
        </g>
      </g>
      <g id="Group_15975" data-name="Group 15975" transform="translate(0 31.059)">
        <path id="Path_72353" data-name="Path 72353" d="M521.171,282.208s1.718,7.149-3.95,9.247a58.651,58.651,0,0,1-12.162,2.8s1.936,3.572-6.21,13.038c0,0-.129,1.054-.544,1.223s-1-.506-1.782.154-1.935-.656-1.595-.692a5.375,5.375,0,0,0,3.44-.987l4.831-14.5s6.873-6.07,11.063-7.472A52.713,52.713,0,0,0,521.171,282.208Z" transform="translate(-494.867 -282.208)" fill="#a56f6f"/>
        <g id="Group_15974" data-name="Group 15974" clip-path="url(#clip-path-8)">
          <path id="Path_72354" data-name="Path 72354" d="M513.353,294.213s.058.1.167.265c.646.976,3.075,4.178,5.612,1.513,2.964-3.112,7.409-7.854,7.409-7.854l14.374-4.594-3.853-9.78-11.558-.3-10.965,7.113" transform="translate(-509.056 -275.499)" fill="#2d6c8c"/>
        </g>
      </g>
      <path id="Path_72356" data-name="Path 72356" d="M632.675,200.926s5.34-.2,8.126-2.23a20.17,20.17,0,0,0,2.393-9.371h-.445s-2.964,4.594-2.97,7.492c0,0-6.808-.263-8.949,1.148S632.675,200.926,632.675,200.926Z" transform="translate(-598.74 -179.857)" fill="#a56f6f"/>
      <path id="Path_72357" data-name="Path 72357" d="M547.724,204.281s-5.34-.2-8.126-2.23c0,0-7.947-3.082-9-4.824l-.1-.629s7.934,1.694,10.122,3.573c0,0,6.808-.263,8.949,1.148S547.724,204.281,547.724,204.281Z" transform="translate(-522.214 -185.441)" fill="#a56f6f"/>
      <path id="Path_72358" data-name="Path 72358" d="M517.363,196.6l-3.978,3.425s2.158-.229,2.743-1.468c0,0,.4,1.793.565,1.069a2.233,2.233,0,0,0,.01-1.154s.483-.173.765-1.243" transform="translate(-509.08 -185.441)" fill="#a56f6f"/>
      <g id="Group_15977" data-name="Group 15977" transform="translate(23.642 15.629)">
        <path id="Path_72359" data-name="Path 72359" d="M602.929,230.813s-.594-4.641,4.567-9.913l-.056-2.45-8.187-2.618s-1.2,3.491-2.116,4.455c-1,1.058-.724,3.731,1.225,3.119l1.671,6.627Z" transform="translate(-596.57 -215.832)" fill="#995042"/>
        <g id="Group_15976" data-name="Group 15976" clip-path="url(#clip-path-9)">
          <path id="Path_72360" data-name="Path 72360" d="M623.632,262.369a.475.475,0,1,0,.473-.436A.456.456,0,0,0,623.632,262.369Z" transform="translate(-617.341 -251.216)" fill="#995042"/>
          <path id="Path_72361" data-name="Path 72361" d="M621,260.093a.475.475,0,1,0,.474-.436A.456.456,0,0,0,621,260.093Z" transform="translate(-615.318 -249.469)" fill="#995042"/>
          <path id="Path_72362" data-name="Path 72362" d="M617.642,258.9a.475.475,0,1,0,.474-.436A.456.456,0,0,0,617.642,258.9Z" transform="translate(-612.744 -248.55)" fill="#995042"/>
          <path id="Path_72363" data-name="Path 72363" d="M614.281,257.814a.475.475,0,1,0,.474-.436A.456.456,0,0,0,614.281,257.814Z" transform="translate(-610.164 -247.72)" fill="#995042"/>
          <path id="Path_72364" data-name="Path 72364" d="M610.688,257.215a.475.475,0,1,0,.473-.436A.456.456,0,0,0,610.688,257.215Z" transform="translate(-607.406 -247.26)" fill="#995042"/>
          <path id="Path_72365" data-name="Path 72365" d="M606.795,257.694a.475.475,0,1,0,.473-.436A.456.456,0,0,0,606.795,257.694Z" transform="translate(-604.418 -247.628)" fill="#995042"/>
        </g>
      </g>
      <path id="Path_72367" data-name="Path 72367" d="M614.053,210.754s.668-.965.557-.928a3.828,3.828,0,0,1-1.151-4.01l-1.559-.445s-1.077,3.973-3.787,2.432l2.265,3.62Z" transform="translate(-581.787 -192.174)" fill="#a56f6f"/>
      <ellipse id="Ellipse_508" data-name="Ellipse 508" cx="3.657" cy="2.32" rx="3.657" ry="2.32" transform="matrix(0.866, -0.5, 0.5, 0.866, 27.92, 12.069)" fill="#a56f6f"/>
      <g id="Group_15978" data-name="Group 15978" transform="translate(29.443 11.541)">
        <path id="Path_72368" data-name="Path 72368" d="M623.664,200.359A1.9,1.9,0,0,1,622.4,198.5S620.286,201.25,623.664,200.359Z" transform="translate(-621.695 -198.444)" fill="#fff"/>
        <path id="Path_72369" data-name="Path 72369" d="M623.486,200.164a1.8,1.8,0,0,1-.541-.264,1.936,1.936,0,0,1-.442-.426,1.418,1.418,0,0,1-.255-.56,2.073,2.073,0,0,1-.036-.609l.033.013a3.583,3.583,0,0,0-.473.835,2,2,0,0,0-.13.453.618.618,0,0,0,.065.429.571.571,0,0,0,.365.218,1.793,1.793,0,0,0,.466.033c.079,0,.159-.007.238-.018s.159-.015.239-.029C623.179,200.212,623.314,200.2,623.486,200.164Zm.011,0c-.073.02-.149.048-.232.075s-.16.042-.24.063a3.1,3.1,0,0,1-.482.08,1.647,1.647,0,0,1-.5-.016.652.652,0,0,1-.439-.269.725.725,0,0,1-.068-.508,1.847,1.847,0,0,1,.16-.468,5.962,5.962,0,0,1,.516-.825l.035-.048,0,.06a1.625,1.625,0,0,0,.071.587,1.718,1.718,0,0,0,.263.521,2.117,2.117,0,0,0,.407.424A3.109,3.109,0,0,0,623.5,200.165Z" transform="translate(-621.523 -198.249)" fill="#a01313"/>
      </g>
      <path id="Path_72370" data-name="Path 72370" d="M634.141,199.755a2.1,2.1,0,0,0-.2-.469.663.663,0,0,0-.155-.168,1.748,1.748,0,0,0-.225-.139.452.452,0,0,1,.293.011.479.479,0,0,1,.241.194.6.6,0,0,1,.094.286A.548.548,0,0,1,634.141,199.755Z" transform="translate(-601.321 -187.254)" fill="#38383a"/>
      <path id="Path_72371" data-name="Path 72371" d="M630.883,194.071a2.11,2.11,0,0,0-.035-.508.67.67,0,0,0-.092-.209,1.721,1.721,0,0,0-.167-.2.453.453,0,0,1,.274.106.478.478,0,0,1,.165.262.6.6,0,0,1,0,.3A.547.547,0,0,1,630.883,194.071Z" transform="translate(-599.038 -182.793)" fill="#38383a"/>
      <g id="Group_15979" data-name="Group 15979" transform="translate(30.68 11.541)">
        <path id="Path_72372" data-name="Path 72372" d="M627.085,199.395a.925.925,0,0,1-.233-.451.321.321,0,0,1,.078-.28.953.953,0,0,1,.225-.143,3.39,3.39,0,0,1,.957-.273c-.149.075-.3.14-.451.2s-.3.126-.445.2a.933.933,0,0,0-.194.113.217.217,0,0,0-.06.174A1.478,1.478,0,0,0,627.085,199.395Z" transform="translate(-626.846 -198.248)" fill="#894e4e"/>
      </g>
      <g id="Group_15981" data-name="Group 15981" transform="translate(41.101)">
        <g id="Group_15980" data-name="Group 15980" transform="translate(2.592 2.965)">
          <rect id="Rectangle_8659" data-name="Rectangle 8659" width="0.127" height="6.225" transform="translate(0 0.005) rotate(-2.337)" fill="#38383a"/>
        </g>
        <path id="Path_72373" data-name="Path 72373" d="M673.77,150.852c-.116-.281-.815-1.688-.815-1.688l1.28,1.688.349-2.251v2.251l.815-1.125-.349,1.547,2.211.422H675.05l1.047,2.11-1.629-2.11-.116,2.11-.233-2.25-1.513,2.25,1.047-2.25-1.978-.563Z" transform="translate(-671.676 -148.601)" fill="#ebc061"/>
      </g>
      <path id="Path_72374" data-name="Path 72374" d="M681.5,182.639s-1.365-3.042-.18-2.894,1.926-.148,1.778.593a12.123,12.123,0,0,1-1.122,2.377Z" transform="translate(-637.603 -172.501)" fill="#a56f6f"/>
      <path id="Path_72375" data-name="Path 72375" d="M567.068,206.937s.108-.591,1.886,0,6.372-.148,7.409.889a4.787,4.787,0,0,0,1.905,1.268s.318,2.881,4.763,1.4c0,0,5.335-1.186,6.816-1.037a1.67,1.67,0,0,0,1.807-1.284s1.343,1.161,2.065.63a4.395,4.395,0,0,1-2.687,5.4c-3.853,1.482-7.113.593-6.965,2.816s-1.186,6.372-2.223,7.409-.219,3.669-.219,3.669-1.115,2.851-3.634,1.073-3.562-3.867-5.93-2.971.892-4.142,1.188-5.327-2.074-3.408-1.334-5.631-4.958-4.415-4.85-5.69C567.068,209.547,568.145,208.713,567.068,206.937Z" transform="translate(-550.283 -193.175)" fill="#edd9d9"/>
      <path id="Path_72376" data-name="Path 72376" d="M635.635,186.581s-.3,1.037.889,1.037c0,0,.148,1.334,1.037,1.334,0,0-.445.3,0,.889s-1.926,1.63-.741,2.074a2.4,2.4,0,0,0,2.223-.444l1.334-2.816-1.186-1.63-1.778-.889H636.08Z" transform="translate(-602.887 -177.411)" fill="#38383a"/>
      <path id="Path_72377" data-name="Path 72377" d="M637.577,207.361s.6.084.418.5-1.142.07-.919-.195A.9.9,0,0,1,637.577,207.361Z" transform="translate(-603.992 -193.702)" fill="#a56f6f"/>
    </g>
  </g>
</svg>
