<svg xmlns="http://www.w3.org/2000/svg" xmlns:xlink="http://www.w3.org/1999/xlink" width="146" height="101" viewBox="0 0 146 101"><defs><linearGradient id="a" x1="135.09" y1="78.04" x2="139.6" y2="78.04" gradientUnits="userSpaceOnUse"><stop offset="0.15" stop-color="#6069ff"/><stop offset="1" stop-color="#7f6bf6"/></linearGradient><linearGradient id="b" x1="124.17" y1="79.38" x2="129.56" y2="79.38" xlink:href="#a"/><linearGradient id="c" x1="113.66" y1="76.59" x2="123.12" y2="76.59" xlink:href="#a"/><linearGradient id="d" x1="103.94" y1="80.59" x2="110.7" y2="80.59" xlink:href="#a"/><linearGradient id="e" x1="73.52" y1="79.91" x2="97.46" y2="79.91" xlink:href="#a"/><linearGradient id="f" x1="103.82" y1="43.64" x2="104.77" y2="43.64" xlink:href="#a"/><linearGradient id="g" x1="107.28" y1="44.37" x2="108.23" y2="44.37" xlink:href="#a"/><linearGradient id="h" x1="110.74" y1="45.1" x2="111.69" y2="45.1" xlink:href="#a"/><linearGradient id="i" x1="100.37" y1="42.91" x2="101.32" y2="42.91" xlink:href="#a"/><linearGradient id="j" x1="114.19" y1="45.83" x2="115.14" y2="45.83" xlink:href="#a"/><linearGradient id="k" x1="93.45" y1="41.45" x2="94.4" y2="41.45" xlink:href="#a"/><linearGradient id="l" x1="96.91" y1="42.18" x2="97.86" y2="42.18" xlink:href="#a"/><linearGradient id="m" x1="89.99" y1="40.72" x2="90.94" y2="40.72" xlink:href="#a"/><linearGradient id="n" x1="134.93" y1="50.21" x2="135.88" y2="50.21" xlink:href="#a"/><linearGradient id="o" x1="131.48" y1="49.48" x2="132.43" y2="49.48" xlink:href="#a"/><linearGradient id="p" x1="138.39" y1="50.94" x2="139.34" y2="50.94" xlink:href="#a"/><linearGradient id="q" x1="128.02" y1="48.75" x2="128.97" y2="48.75" xlink:href="#a"/><linearGradient id="r" x1="121.11" y1="47.29" x2="122.06" y2="47.29" xlink:href="#a"/><linearGradient id="s" x1="117.65" y1="46.56" x2="118.6" y2="46.56" xlink:href="#a"/><linearGradient id="t" x1="124.56" y1="48.02" x2="125.51" y2="48.02" xlink:href="#a"/><linearGradient id="u" x1="69.08" y1="85.08" x2="76.95" y2="85.08" xlink:href="#a"/><linearGradient id="v" x1="10.07" y1="49.65" x2="74.88" y2="49.65" xlink:href="#a"/><linearGradient id="w" x1="14.4" y1="67.91" x2="45.77" y2="67.91" xlink:href="#a"/><linearGradient id="x" x1="60.29" y1="76.66" x2="77.67" y2="76.66" xlink:href="#a"/><linearGradient id="y" x1="52.56" y1="86.17" x2="66.38" y2="86.17" xlink:href="#a"/><linearGradient id="z" x1="44.29" y1="70.72" x2="51.73" y2="70.72" xlink:href="#a"/><linearGradient id="aa" x1="8.55" y1="70.72" x2="15.99" y2="70.72" xlink:href="#a"/></defs><title>Artboard 1</title><path d="M12.39,98a.33.33,0,0,0,.06.66l60.45-.35a69.05,69.05,0,0,0,15.49-1.84l58.35-12.23a.28.28,0,0,0-.05-.56l-46-1Z" fill="#d2d2f9"/><path d="M141.28,72l.05.83-1.77-.07,0-2.68L68.33,68.79s3.87,9.55,4.37,9.58,66.81-1.55,66.81-1.55V75.69h2l.09,1.39h1.67l.31-5.29Z" fill="#2c2870"/><polygon points="142.77 72.46 142.77 76.33 143.75 76.33 143.92 72.46 142.77 72.46" fill="#2c2870"/><path d="M132.93,71c-2.06,0-3.73,3.15-3.73,7s1.67,7,3.73,7H137V71Z" fill="#231430"/><ellipse cx="137.01" cy="78.04" rx="3.73" ry="7.04" fill="#29235c"/><ellipse cx="137.35" cy="78.04" rx="2.25" ry="4.25" fill="url(#a)"/><ellipse cx="137.35" cy="78.04" rx="1.06" ry="2" fill="#161651"/><path d="M121.59,71c-2.47,0-4.46,3.77-4.46,8.43s2,8.42,4.46,8.42h4.87V71Z" fill="#231430"/><ellipse cx="126.46" cy="79.38" rx="4.46" ry="8.42" fill="#29235c"/><ellipse cx="126.87" cy="79.38" rx="2.7" ry="5.08" fill="url(#b)"/><ellipse cx="126.87" cy="79.38" rx="1.27" ry="2.39" fill="#161651"/><polygon points="113.66 72.85 113.66 80.36 123.12 78.93 123.12 72.81 113.66 72.85" fill="url(#c)"/><polygon points="113.66 72.85 107.32 72.85 108.13 80.36 113.66 80.36 113.66 72.85" fill="#161651"/><path d="M100.71,70c-3.09,0-5.6,4.73-5.6,10.56s2.51,10.55,5.6,10.55h6.1V70Z" fill="#231430"/><ellipse cx="106.81" cy="80.59" rx="5.59" ry="10.55" fill="#29235c"/><ellipse cx="107.32" cy="80.59" rx="3.38" ry="6.37" fill="url(#d)"/><ellipse cx="107.32" cy="80.59" rx="1.59" ry="3" fill="#161651"/><path d="M96.68,70.6H73.52l9,18.63L94.35,88a3.5,3.5,0,0,0,3.11-3.67Z" fill="url(#e)"/><path d="M78.92,70.6H66.21a31.94,31.94,0,0,1,3.16,18.25l13.19.38a24.44,24.44,0,0,0,.72-6C83.28,77.61,81.49,72.76,78.92,70.6Z" fill="#161651"/><polygon points="82.6 72.87 83 74.42 95.86 74.22 95.86 72.79 82.6 72.87" fill="#161651"/><path d="M92.18,82.61c0,1.12-.56,2-1.24,2s-1.24-.91-1.24-2,.55-2,1.24-2S92.18,81.49,92.18,82.61Z" fill="#161651"/><polygon points="82.88 5.5 83.08 71.7 34.73 72.07 31.99 7.92 82.88 5.5" fill="#29235c"/><polygon points="35.25 11.71 37.6 69.98 79.66 68.95 79.66 9.68 35.25 11.71" fill="#2c2870"/><path d="M74.39,9.17l5.25-.29a.42.42,0,0,1,.42.47L80,10.94a.41.41,0,0,1-.4.42h-5a.43.43,0,0,1-.4-.39L74,9.67A.43.43,0,0,1,74.39,9.17Zm-40,1.72.12,1a.83.83,0,0,0,.86.76l4.55-.13a.86.86,0,0,0,.82-.8l.06-.85A.86.86,0,0,0,40,9.92H35.24A.86.86,0,0,0,34.4,10.89Z" fill="#29235c"/><polygon points="82.88 5.5 144 32.17 144 70.72 83.08 71.7 82.88 5.5" fill="#161651"/><polygon points="87.45 12.62 87.23 67.73 142.11 67.91 142.13 35.13 87.45 12.62" fill="#29235c"/><polygon points="104.77 67.79 103.82 67.78 103.82 19.49 104.77 19.89 104.77 67.79" fill="url(#f)"/><polygon points="108.23 21.34 107.28 20.94 107.28 67.79 108.23 67.8 108.23 21.34" fill="url(#g)"/><polygon points="111.69 22.79 110.74 22.39 110.74 67.81 111.69 67.81 111.69 22.79" fill="url(#h)"/><polygon points="101.31 18.44 100.36 18.04 100.36 67.77 101.31 67.77 101.31 18.44" fill="url(#i)"/><polygon points="115.14 24.23 114.19 23.84 114.19 67.82 115.14 67.82 115.14 24.23" fill="url(#j)"/><polygon points="94.4 15.54 93.45 15.14 93.45 67.75 94.4 67.75 94.4 15.54" fill="url(#k)"/><polygon points="97.86 16.99 96.91 16.59 96.91 67.76 97.86 67.76 97.86 16.99" fill="url(#l)"/><polygon points="90 67.74 90.94 67.74 90.94 14.09 90 13.69 90 67.74" fill="url(#m)"/><polygon points="135.88 32.93 134.93 32.53 134.93 67.89 135.88 67.89 135.88 32.93" fill="url(#n)"/><polygon points="132.43 31.48 131.48 31.08 131.48 67.87 132.43 67.88 132.43 31.48" fill="url(#o)"/><polygon points="139.34 34.38 138.39 33.98 138.39 67.9 139.34 67.9 139.34 34.38" fill="url(#p)"/><polygon points="128.97 30.03 128.02 29.63 128.02 67.86 128.97 67.87 128.97 30.03" fill="url(#q)"/><polygon points="122.06 27.13 121.11 26.73 121.11 67.84 122.06 67.84 122.06 27.13" fill="url(#r)"/><polygon points="118.6 25.68 117.65 25.29 117.65 67.83 118.6 67.83 118.6 25.68" fill="url(#s)"/><polygon points="125.51 28.58 124.56 28.18 124.56 67.85 125.51 67.86 125.51 28.58" fill="url(#t)"/><path d="M9.51,44.63a47.65,47.65,0,0,1,0,10.27A1.58,1.58,0,0,1,8,56.32a20.8,20.8,0,0,1-3.72-.14A1.54,1.54,0,0,1,3,54.83a69.43,69.43,0,0,1-.68-10.31A1.57,1.57,0,0,1,3.86,43a32.21,32.21,0,0,1,4.32.28A1.56,1.56,0,0,1,9.51,44.63Z" fill="#161651"/><path d="M9,39.54a1.19,1.19,0,0,1,.33-.9,1.22,1.22,0,0,1,.87-.4l1,0a.63.63,0,0,1,.58-.37h1.7a.63.63,0,0,1,.63.63v.45a.64.64,0,0,1-.63.64h-1.7a.64.64,0,0,1-.53-.29l-1,0a.2.2,0,0,0-.13.06.18.18,0,0,0,0,.13L8,55l2.72,1.19h0a1,1,0,0,1,1-1h1.51a1,1,0,0,1,1,1v1.5a1,1,0,0,1-1,1H11.65a1,1,0,0,1-1-1V57.3L6.94,55.65Z" fill="#161651"/><path d="M29.21,72.79H22.1c-3.6,0-6.52,5.5-6.52,12.29s2.92,12.3,6.52,12.3h7.11c3.6,0,6.52-5.51,6.52-12.3S32.81,72.79,29.21,72.79Z" fill="#231430"/><rect x="10.07" y="89.54" width="53.13" height="4.66" fill="#351f47"/><path d="M65.31,72.79c-3.6,0-6.52,5.5-6.52,12.29s2.92,12.3,6.52,12.3h7.12V72.79Z" fill="#231430"/><ellipse cx="72.43" cy="85.08" rx="6.52" ry="12.3" fill="#29235c"/><ellipse cx="73.02" cy="85.08" rx="3.94" ry="7.42" fill="url(#u)"/><ellipse cx="73.02" cy="85.08" rx="1.85" ry="3.5" fill="#161651"/><path d="M36.31,15.14c-8.37.26-16.1,8-20.2,16.63C8.41,48,9.85,72.94,11,82c.21,1.68,1.3,2.92,2.57,2.92H53.31L74.88,14.4Z" fill="url(#v)"/><path d="M59,14.71h-.27a34.73,34.73,0,0,1-3.87,6.05C51.82,24.57,46.66,29,39.22,29c-.3,0-.6,0-.9,0-3.51-.17-5.62-1.13-6.27-2.86-1.15-3.11,2.55-8,5.13-11h-.34c-2.61,3-6.2,7.86-5,11.06.68,1.83,2.86,2.85,6.47,3l.92,0c7.53,0,12.76-4.48,15.86-8.33A34.57,34.57,0,0,0,59,14.71Z" fill="#29235c"/><path d="M15.65,32.77H69.26l.15-.48H15.87C15.79,32.45,15.72,32.61,15.65,32.77Z" fill="#29235c"/><path d="M69.08,68.14a75.7,75.7,0,0,1,8.59.11,397.32,397.32,0,0,0-.32-44.77c-.13-2-1.25-9.2-2.74-9.07-6.2.53-14.53,9.86-17.33,17.36-7.27,19.52-4,53.13-4,53.13l10.46-.16C62.82,69.22,69.08,68.14,69.08,68.14Z" fill="#8885ff"/><path d="M56.93,32.77H77.85c0-.16,0-.32,0-.48H57.1C57,32.45,57,32.61,56.93,32.77Z" fill="#101023"/><polygon points="16.35 73.51 18.7 81.32 41.46 81.32 44.43 73.51 16.35 73.51" fill="#231430"/><path d="M10.88,61.79l-1.06.69a4.75,4.75,0,0,0-2.14,4v5a4.75,4.75,0,0,0,1.89,3.81l1.14.86a3.16,3.16,0,0,0,1.89.63H51.31l.75-.6A6.68,6.68,0,0,0,54.52,71V62.52l-3.47-1.77Z" fill="#424289"/><path d="M22.8,61.38l.67,1.5a.83.83,0,0,0,.76.49H34.49a.83.83,0,0,0,.75-.47l.62-1.31a.83.83,0,0,0-.73-1.19l-11.56-.19A.83.83,0,0,0,22.8,61.38Z" fill="#231430"/><path d="M38.06,63.15l-.92,1.19a1.42,1.42,0,0,1-1.09.56l-12,.23a1.4,1.4,0,0,1-1-.43l-1.4-1.45a1.42,1.42,0,0,0-1-.43l-4.82.06a1.41,1.41,0,0,0-1.38,1.61,14.92,14.92,0,0,0,2,6,6.1,6.1,0,0,0,5.17,2.83H37.88a6.09,6.09,0,0,0,4.69-2.17,14.77,14.77,0,0,0,3.18-6.91,1.41,1.41,0,0,0-1.41-1.66l-5.18.06A1.44,1.44,0,0,0,38.06,63.15Z" fill="url(#w)"/><path d="M46.16,63a2,2,0,0,0-1.82-1.08L39.17,62a2.08,2.08,0,0,0-1.61.8L36.65,64a.77.77,0,0,1-.61.3l-12,.24a.79.79,0,0,1-.59-.24L22.1,62.82a2.08,2.08,0,0,0-1.49-.62l-4.77.06a1.93,1.93,0,0,0-.86.18,2,2,0,0,0-1.18,2.13,15.49,15.49,0,0,0,2.12,6.21,6.76,6.76,0,0,0,5.7,3.12H37.88A6.69,6.69,0,0,0,43,71.51a15.4,15.4,0,0,0,3.31-7.16A2,2,0,0,0,46.16,63Zm-4.07,7.71a5.45,5.45,0,0,1-4.21,2H21.62A5.47,5.47,0,0,1,17,70.12l0,0a.85.85,0,0,1,.74-1.29H41.85a.86.86,0,0,1,.68,1.37C42.39,70.35,42.24,70.53,42.09,70.71Zm3-6.59a15.13,15.13,0,0,1-.64,2.38,2.15,2.15,0,0,1-2,1.41h-25a2.07,2.07,0,0,1-2-1.55A15.75,15.75,0,0,1,15,64.45a.84.84,0,0,1,.11-.58.77.77,0,0,1,.65-.37l4.83-.06h0a.79.79,0,0,1,.58.25l1.39,1.44a2,2,0,0,0,1.5.62l12-.23a2,2,0,0,0,1.57-.8l.91-1.19h0a.83.83,0,0,1,.62-.31l5.18-.06a.82.82,0,0,1,.72.43A.87.87,0,0,1,45.13,64.12Z" fill="#231430"/><path d="M60.64,85.68s-2.8-16.39,7.45-18.06c3.89-.63,9.58.63,9.58.63l-2.35,4.12s-5.65-2.58-8.6,2.55c-1.67,2.9-1.45,11-1.45,11Z" fill="url(#x)"/><path d="M65.68,64.73,66.07,67a.94.94,0,0,0,1,.78l.78-.07a1,1,0,0,0,.85-.78l.35-2.12a.94.94,0,0,0-.9-1.09l-1.52,0A.93.93,0,0,0,65.68,64.73Z" fill="#351f47"/><path d="M71,54.29l.22,6.76c0,.73.42,1.3.9,1.3h2.51c.48,0,.87-.57.9-1.29l.25-6.68c0-.78-.37-1.43-.88-1.45l-3-.08C71.39,52.83,71,53.49,71,54.29Z" fill="#3e2669"/><path d="M57.84,71.56v.84a.48.48,0,0,0,.48.47h3.4a.48.48,0,0,0,.48-.47v-.83a.48.48,0,0,0-.48-.48H58.32A.48.48,0,0,0,57.84,71.56Z" fill="#b87fb5"/><path d="M58.43,71.76v.39a.22.22,0,0,0,.23.22h1.59a.21.21,0,0,0,.22-.21v-.39a.22.22,0,0,0-.22-.23h-1.6A.22.22,0,0,0,58.43,71.76Z" fill="#dbeffc"/><path d="M64.29,79.57l-11.72.05s0,.81,0,.84V92.77H63.39a2.21,2.21,0,0,0,2-2.38l1-8.44A2.18,2.18,0,0,0,64.29,79.57Z" fill="url(#y)"/><path d="M58.24,38.4c-1.72,4.78-2.75,16.25-2.41,22.87,0,.73.47,1.29,1,1.29h2.34a.91.91,0,0,0,.74-.44l8.48-14.78a1.66,1.66,0,0,0,.26-.93V38.8c0-.77-.46-1.39-1-1.38l-8.5.21A1,1,0,0,0,58.24,38.4Z" fill="#c1e3f8"/><path d="M59.17,63.09H56.83A1.71,1.71,0,0,1,55.3,61.3C55,54.69,56,43.17,57.75,38.22a1.53,1.53,0,0,1,1.37-1.12l8.49-.21a1.38,1.38,0,0,1,1,.41,2.09,2.09,0,0,1,.58,1.5v7.61a2.22,2.22,0,0,1-.34,1.21L60.37,62.38l0,0A1.44,1.44,0,0,1,59.17,63.09ZM67.64,38h0l-8.5.21c-.15,0-.31.17-.4.42h0C57,43.34,56,54.87,56.36,61.25c0,.46.27.78.47.78h2.34a.38.38,0,0,0,.29-.2l8.47-14.75,0,0a1.2,1.2,0,0,0,.17-.64V38.8a1.05,1.05,0,0,0-.26-.74A.33.33,0,0,0,67.64,38Zm-9.4.45h0Z" fill="#161651"/><path d="M55.78,57c0,1.54,0,3,0,4.24,0,.73.47,1.29,1,1.29h2.34a.91.91,0,0,0,.74-.44L62.83,57Z" fill="#161651"/><path d="M60.35,44.63a47,47,0,0,0,0,10.27,1.57,1.57,0,0,0,1.46,1.42,20.73,20.73,0,0,0,3.72-.14,1.55,1.55,0,0,0,1.34-1.35,70.8,70.8,0,0,0,.68-10.31A1.57,1.57,0,0,0,66,43a32,32,0,0,0-4.32.28A1.58,1.58,0,0,0,60.35,44.63Z" fill="#161651"/><path d="M63.42,39.54a1.27,1.27,0,0,0-.33-.9,1.23,1.23,0,0,0-.88-.4l-1,0a.63.63,0,0,0-.58-.37H58.93a.64.64,0,0,0-.64.63v.45a.64.64,0,0,0,.64.64h1.69a.64.64,0,0,0,.53-.29l1,0a.19.19,0,0,1,.18.19L61.69,55,59,56.14h0a1,1,0,0,0-1-1h-1.5a1,1,0,0,0-1,1v1.5a1,1,0,0,0,1,1H58a1,1,0,0,0,1-1V57.3l3.74-1.65Z" fill="#161651"/><path d="M42,80.7l-.48-.22,5.71-12.57L49.3,51l.53.07-2.1,17Zm-24.76-.22-5.7-12.54,1.54-16.73-.53,0L11,68,16.74,80.7Z" fill="#161651"/><path d="M47.18,67.56,44.4,73a1,1,0,0,0,.87,1.43h0a4.91,4.91,0,0,0,4.17-2.31l2.12-3.37a1.13,1.13,0,0,0-1-1.72H48A1,1,0,0,0,47.18,67.56Z" fill="url(#z)"/><path d="M13.11,67.56,15.88,73A1,1,0,0,1,15,74.42h0a4.92,4.92,0,0,1-4.17-2.31L8.73,68.74A1.12,1.12,0,0,1,9.68,67h2.59A1,1,0,0,1,13.11,67.56Z" fill="url(#aa)"/><rect x="7.43" y="79.88" width="47.08" height="12.89" rx="3.93" ry="3.93" fill="#29235c"/><path d="M18.45,93.63H40.5L39.36,91.8a2.09,2.09,0,0,0-2.27-1.11l-15.2-.2a3.26,3.26,0,0,0-2.92,2Z" fill="#231430"/><path d="M64.15,79.35H10.68l0,.53h3.89l3.06,6.57a3.26,3.26,0,0,0,2.94,1.87l18,.07h0a3.25,3.25,0,0,0,2.79-1.58l4.14-6.93H64.15ZM41,86.54a2.74,2.74,0,0,1-2.34,1.32h0l-18-.07a2.74,2.74,0,0,1-2.46-1.57L15.2,79.88H45Z" fill="#161651"/><path d="M18.45,82.36H40.5l-1.14,1.83a3.24,3.24,0,0,1-2.8,1.55l-14.67-.25a3.27,3.27,0,0,1-2.92-2Z" fill="#231430"/><path d="M22.11,79.93l.25,2.5a1.09,1.09,0,0,0,1.07,1l10.11.24a1.1,1.1,0,0,0,1.12-1L35,80a1.09,1.09,0,0,0-1.09-1.23H23.21A1.11,1.11,0,0,0,22.11,79.93Z" fill="#dbeffc"/><path d="M33.57,83.94h0L23.42,83.7a1.37,1.37,0,0,1-1.34-1.25L21.84,80a1.39,1.39,0,0,1,.35-1.06,1.36,1.36,0,0,1,1-.45H33.88A1.38,1.38,0,0,1,35.25,80l-.31,2.73A1.38,1.38,0,0,1,33.57,83.94Zm-11.18-4,.24,2.5a.83.83,0,0,0,.81.75l10.11.23a.81.81,0,0,0,.84-.73l.31-2.74a.85.85,0,0,0-.21-.64.8.8,0,0,0-.61-.28H23.21a.84.84,0,0,0-.82.91Z" fill="#231430"/><path d="M10.8,54.56l1.82,1.34a1.77,1.77,0,0,0,1.06.35H47.31a1.83,1.83,0,0,0,1.06-.34l2.42-1.78a1.82,1.82,0,0,0,.72-1.37,89.47,89.47,0,0,1,1.77-12.93,1.79,1.79,0,0,0-1.75-2.15h-37a1.79,1.79,0,0,0-1.67,1.13A48.17,48.17,0,0,0,10.07,53,1.82,1.82,0,0,0,10.8,54.56Z" fill="#c1e3f8"/><path d="M10.33,50c-.11,1-.19,2-.26,3a1.82,1.82,0,0,0,.73,1.56l1.82,1.34a1.77,1.77,0,0,0,1.06.35H47.31a1.83,1.83,0,0,0,1.06-.34l2.42-1.78a1.82,1.82,0,0,0,.72-1.37c0-.9.11-1.83.2-2.77Z" fill="#8fc4eb"/><polygon points="33.5 37.68 28.64 37.68 21.23 56.26 26.09 56.26 33.5 37.68" fill="#dbeffc"/><polygon points="42.03 37.68 34.84 37.68 27.43 56.26 34.62 56.26 42.03 37.68" fill="#dbeffc"/><polygon points="17.82 56.26 20.24 56.26 27.65 37.68 25.23 37.68 17.82 56.26" fill="#dbeffc"/><path d="M53.33,38a2.33,2.33,0,0,0-1.8-.85h-37a2.33,2.33,0,0,0-2.16,1.46A48.05,48.05,0,0,0,9.55,53a2.33,2.33,0,0,0,.93,2l1.82,1.34a2.37,2.37,0,0,0,1.38.45H47.31a2.27,2.27,0,0,0,1.37-.45l2.42-1.78A2.27,2.27,0,0,0,52,52.79,89.08,89.08,0,0,1,53.8,39.93,2.32,2.32,0,0,0,53.33,38Zm-.57,1.72a88,88,0,0,0-1.77,13,1.28,1.28,0,0,1-.52,1l-.12.09L11.2,54.2l-.09-.06h0A1.28,1.28,0,0,1,10.6,53a46.78,46.78,0,0,1,2.8-14,1.25,1.25,0,0,1,1.17-.79h37a1.27,1.27,0,0,1,1,.46A1.25,1.25,0,0,1,52.76,39.72Z" fill="#161651"/><path d="M12.89,36.9a.73.73,0,0,0-.71.58c-.22,1.06-.48,3.23.84,3.65,1.76.57,37,0,37,0a4.36,4.36,0,0,0,4.45-3.51.74.74,0,0,0-.72-.91Z" fill="#161651"/><path d="M50.82,39H48.3a.6.6,0,0,1-.6-.6h0a.6.6,0,0,1,.6-.6h2.52a.6.6,0,0,1,.6.6h0A.6.6,0,0,1,50.82,39Z" fill="#161651"/><path d="M15.38,39H12.86a.6.6,0,0,1-.6-.6h0a.6.6,0,0,1,.6-.6h2.52a.6.6,0,0,1,.6.6h0A.6.6,0,0,1,15.38,39Z" fill="#161651"/><path d="M28.7,54.7l-2.13-2.8a.41.41,0,0,0-.44-.37l-8.8.45a.44.44,0,0,0-.36.22h0l-4.67.15a.39.39,0,0,0-.26.1c-.12.13,0,.29.28.29h4.76a.41.41,0,0,0,.27.1H25.8l1.58,2.28a.38.38,0,0,0,.29.15h.75A.35.35,0,0,0,28.7,54.7Z" fill="#161651"/><path d="M47.24,54.22l-2.13-2.8a.43.43,0,0,0-.44-.38l-8.81.46a.4.4,0,0,0-.35.22h0l-4.67.15a.35.35,0,0,0-.26.1c-.12.13,0,.29.28.29h4.75a.45.45,0,0,0,.28.1h8.44l1.59,2.27a.35.35,0,0,0,.29.16H47A.36.36,0,0,0,47.24,54.22Z" fill="#161651"/><rect x="8.55" y="81.41" width="5.85" height="4.53" rx="1.38" ry="1.38" transform="translate(22.96 167.35) rotate(180)" fill="#8fc4eb"/><path d="M13.47,81.41h-4a3.26,3.26,0,0,0-.06,1.28,3,3,0,0,0,.47,1.15,3.76,3.76,0,0,0,3,1.48A3.36,3.36,0,0,0,14.4,85V82.34A.93.93,0,0,0,13.47,81.41Z" fill="#dbeffc"/><path d="M14.24,87.69v2.16c0,.44-.28.78-.59.74-1.87-.22-3.41-.21-4.77-1.55-.43-.42-.32-2.1.22-2.1h4.6C14,86.94,14.24,87.28,14.24,87.69Z" fill="#8fc4eb"/><path d="M13.7,86.94H10a3.21,3.21,0,0,0,.07.53,4.56,4.56,0,0,0,1,2,4.48,4.48,0,0,0,1.18,1l1.47.16c.31,0,.59-.3.59-.74V87.69C14.24,87.28,14,86.94,13.7,86.94Z" fill="#dbeffc"/><rect x="46.14" y="81.41" width="5.85" height="4.53" rx="1.38" ry="1.38" fill="#8fc4eb"/><path d="M47.07,81.41h4a3.27,3.27,0,0,1,.07,1.28,2.83,2.83,0,0,1-.48,1.15,3.72,3.72,0,0,1-3,1.48A3.4,3.4,0,0,1,46.14,85V82.34A.93.93,0,0,1,47.07,81.41Z" fill="#dbeffc"/><path d="M46.31,87.69v2.16c0,.44.27.78.59.74,1.87-.22,3.41-.21,4.77-1.55.43-.42.31-2.1-.22-2.1h-4.6C46.55,86.94,46.31,87.28,46.31,87.69Z" fill="#8fc4eb"/><path d="M46.85,86.94h3.74a3.23,3.23,0,0,1-.08.53,4.49,4.49,0,0,1-2.14,3l-1.47.16c-.32,0-.59-.3-.59-.74V87.69C46.31,87.28,46.55,86.94,46.85,86.94Z" fill="#dbeffc"/></svg>