<svg xmlns="http://www.w3.org/2000/svg" xmlns:xlink="http://www.w3.org/1999/xlink" width="263.194" height="263.195" viewBox="0 0 263.194 263.195">
  <defs>
    <radialGradient id="radial-gradient" cx="0.5" cy="0.5" r="0.828" gradientTransform="translate(0.232 100.571) scale(0.537 0.577)" gradientUnits="objectBoundingBox">
      <stop offset="0.597" stop-color="#f1c8d8"/>
      <stop offset="1" stop-color="#fff"/>
    </radialGradient>
    <radialGradient id="radial-gradient-2" cx="0.5" cy="0.5" r="0.828" gradientTransform="translate(0.231 100.559) scale(0.537 0.577)" xlink:href="#radial-gradient"/>
  </defs>
  <g id="Group_16082" data-name="Group 16082" transform="translate(-82 -125.743)">
    <g id="Group_16080" data-name="Group 16080" transform="translate(81.997 125.743)">
      <g id="Group_16053" data-name="Group 16053" transform="translate(0.003 0)">
        <rect id="Rectangle_8755" data-name="Rectangle 8755" width="263.194" height="263.195" transform="translate(0)" fill="#fff"/>
        <g id="Group_16052" data-name="Group 16052" transform="translate(22.784 38.409)">
          <path id="Path_72209" data-name="Path 72209" d="M573.636,540.308H547.326V522.354H523.619V504.783l-33.035,12.346v-21.41H456.706v26.635H435.076V504.783H408.6v29.465H387.065v38.109h-.736v49.9H572.9V584.151h.736Z" transform="translate(-361.181 -472.624)" fill="#c4bfdf"/>
          <path id="Path_72210" data-name="Path 72210" d="M490.464,986.363H651.453V975.548h-.635V942.665h-18.58V917.24H609.39V932.4H590.725V909.419H561.492v18.474L532.987,917.24V932.4H512.531v15.492h-22.7v37.832h.635Z" transform="translate(-451.84 -834.995)" fill="#938ac1"/>
          <g id="Group_16040" data-name="Group 16040" transform="translate(129.888 117.464)">
            <path id="Path_72211" data-name="Path 72211" d="M1306.725,1287.347a13.123,13.123,0,0,0,1.917-6.8c0-8.17-7.686-14.794-17.168-14.794a20.063,20.063,0,0,0-2.188.119c-3.345-5.67-10.179-9.555-18.066-9.555-8.3,0-15.426,4.3-18.557,10.451a19.723,19.723,0,0,0-4.968-.63c-9.482,0-17.168,6.623-17.168,14.794a13.076,13.076,0,0,0,1.693,6.413Z" transform="translate(-1230.527 -1256.319)" fill="#7778b7"/>
            <path id="Path_72212" data-name="Path 72212" d="M1254.987,1424.6" transform="translate(-1251.952 -1403.72)" fill="none" stroke="#596aaf" stroke-miterlimit="10" stroke-width="2.501"/>
            <path id="Path_72213" data-name="Path 72213" d="M1288.746,1462.11" transform="translate(-1281.523 -1436.577)" fill="none" stroke="#596aaf" stroke-miterlimit="10" stroke-width="2.501"/>
            <path id="Path_72214" data-name="Path 72214" d="M1346.887,1456.482" transform="translate(-1332.45 -1431.648)" fill="none" stroke="#596aaf" stroke-miterlimit="10" stroke-width="2.501"/>
            <path id="Path_72215" data-name="Path 72215" d="M1292.73,1482.74l-.233.233" transform="translate(-1284.808 -1454.648)" fill="none" stroke="#596aaf" stroke-miterlimit="10" stroke-width="2.501"/>
            <path id="Path_72216" data-name="Path 72216" d="M1296.249,1415.22" transform="translate(-1288.095 -1395.505)" fill="none" stroke="#596aaf" stroke-miterlimit="10" stroke-width="2.501"/>
            <path id="Path_72217" data-name="Path 72217" d="M1341.493,1477.113l-.233.233" transform="translate(-1327.521 -1449.719)" fill="none" stroke="#596aaf" stroke-miterlimit="10" stroke-width="2.501"/>
            <path id="Path_72218" data-name="Path 72218" d="M1390.024,1497.744" transform="translate(-1370.235 -1467.79)" fill="none" stroke="#596aaf" stroke-miterlimit="10" stroke-width="2.501"/>
            <path id="Path_72219" data-name="Path 72219" d="M1313.128,1441.479v.233" transform="translate(-1302.88 -1418.506)" fill="none" stroke="#596aaf" stroke-miterlimit="10" stroke-width="2.501"/>
            <path id="Path_72220" data-name="Path 72220" d="M1328.365,1375.835h-.233" transform="translate(-1316.022 -1361.006)" fill="none" stroke="#596aaf" stroke-miterlimit="10" stroke-width="2.501"/>
            <path id="Path_72221" data-name="Path 72221" d="M1287.1,1372.083h-.233" transform="translate(-1279.879 -1357.72)" fill="none" stroke="#596aaf" stroke-miterlimit="10" stroke-width="2.501"/>
            <path id="Path_72222" data-name="Path 72222" d="M1269.991,1400.217v.233" transform="translate(-1265.095 -1382.363)" fill="none" stroke="#596aaf" stroke-miterlimit="10" stroke-width="2.501"/>
            <path id="Path_72223" data-name="Path 72223" d="M1260.614,1493.993" transform="translate(-1256.881 -1464.505)" fill="none" stroke="#596aaf" stroke-miterlimit="10" stroke-width="2.501"/>
            <path id="Path_72224" data-name="Path 72224" d="M1273.742,1443.355h0" transform="translate(-1268.38 -1420.149)" fill="none" stroke="#596aaf" stroke-miterlimit="10" stroke-width="1.25"/>
            <path id="Path_72225" data-name="Path 72225" d="M1320.864,1420.848h-.233" transform="translate(-1309.452 -1400.435)" fill="none" stroke="#596aaf" stroke-miterlimit="10" stroke-width="1.25"/>
            <path id="Path_72226" data-name="Path 72226" d="M1294.606,1388.965l-.233.233" transform="translate(-1286.452 -1372.507)" fill="none" stroke="#596aaf" stroke-miterlimit="10" stroke-width="1.25"/>
            <path id="Path_72227" data-name="Path 72227" d="M1268.348,1482.74h-.233" transform="translate(-1263.451 -1454.648)" fill="none" stroke="#596aaf" stroke-miterlimit="10" stroke-width="1.25"/>
            <path id="Path_72228" data-name="Path 72228" d="M1323.065,1492.3l-.465.233" transform="translate(-1311.176 -1463.019)" fill="none" stroke="#596aaf" stroke-miterlimit="10" stroke-width="1.25"/>
            <path id="Path_72229" data-name="Path 72229" d="M1307.5,1473.362" transform="translate(-1297.951 -1446.433)" fill="none" stroke="#596aaf" stroke-miterlimit="10" stroke-width="1.25"/>
            <path id="Path_72230" data-name="Path 72230" d="M1331.883,1437.727v.233" transform="translate(-1319.308 -1415.219)" fill="none" stroke="#596aaf" stroke-miterlimit="10" stroke-width="1.25"/>
            <path id="Path_72231" data-name="Path 72231" d="M1271.867,1422.723" transform="translate(-1266.738 -1402.077)" fill="none" stroke="#596aaf" stroke-miterlimit="10" stroke-width="1.25"/>
            <path id="Path_72232" data-name="Path 72232" d="M1301.874,1362.706" transform="translate(-1293.022 -1349.506)" fill="none" stroke="#596aaf" stroke-miterlimit="10" stroke-width="1.25"/>
            <path id="Path_72233" data-name="Path 72233" d="M1313.128,1392.714v.233" transform="translate(-1302.88 -1375.791)" fill="none" stroke="#596aaf" stroke-miterlimit="10" stroke-width="1.25"/>
            <path id="Path_72234" data-name="Path 72234" d="M1260.614,1460.234" transform="translate(-1256.881 -1434.934)" fill="none" stroke="#596aaf" stroke-miterlimit="10" stroke-width="1.25"/>
            <path id="Path_72235" data-name="Path 72235" d="M1281.245,1501.5" transform="translate(-1274.952 -1471.077)" fill="none" stroke="#596aaf" stroke-miterlimit="10" stroke-width="1.25"/>
            <path id="Path_72236" data-name="Path 72236" d="M1345.011,1490.241" transform="translate(-1330.807 -1461.218)" fill="none" stroke="#596aaf" stroke-miterlimit="10" stroke-width="1.25"/>
            <path id="Path_72237" data-name="Path 72237" d="M1365.875,1482.74h-.233" transform="translate(-1348.878 -1454.648)" fill="none" stroke="#596aaf" stroke-miterlimit="10" stroke-width="1.25"/>
            <path id="Path_72238" data-name="Path 72238" d="M1320.864,1463.985h-.233" transform="translate(-1309.452 -1438.22)" fill="none" stroke="#596aaf" stroke-miterlimit="10" stroke-width="1.25"/>
          </g>
          <g id="Group_16041" data-name="Group 16041" transform="translate(51.498 124.32)">
            <path id="Path_72239" data-name="Path 72239" d="M660.894,1336.9a10.709,10.709,0,0,0,1.564-5.548c0-6.668-6.273-12.073-14.011-12.073a16.433,16.433,0,0,0-1.786.1c-2.73-4.627-8.307-7.8-14.744-7.8-6.77,0-12.589,3.508-15.144,8.529a16.116,16.116,0,0,0-4.054-.514c-7.738,0-14.011,5.406-14.011,12.073a10.671,10.671,0,0,0,1.381,5.234Z" transform="translate(-598.708 -1311.576)" fill="#7778b7"/>
            <path id="Path_72240" data-name="Path 72240" d="M618.669,1448.909" transform="translate(-616.192 -1431.87)" fill="none" stroke="#596aaf" stroke-miterlimit="10" stroke-width="2.041"/>
            <path id="Path_72241" data-name="Path 72241" d="M646.221,1479.52" transform="translate(-640.326 -1458.683)" fill="none" stroke="#596aaf" stroke-miterlimit="10" stroke-width="2.041"/>
            <path id="Path_72242" data-name="Path 72242" d="M693.67,1474.928" transform="translate(-681.888 -1454.661)" fill="none" stroke="#596aaf" stroke-miterlimit="10" stroke-width="2.041"/>
            <path id="Path_72243" data-name="Path 72243" d="M649.47,1496.358l-.19.19" transform="translate(-643.005 -1473.432)" fill="none" stroke="#596aaf" stroke-miterlimit="10" stroke-width="2.041"/>
            <path id="Path_72244" data-name="Path 72244" d="M652.342,1441.255" transform="translate(-645.688 -1425.166)" fill="none" stroke="#596aaf" stroke-miterlimit="10" stroke-width="2.041"/>
            <path id="Path_72245" data-name="Path 72245" d="M689.268,1491.766l-.19.19" transform="translate(-677.866 -1469.41)" fill="none" stroke="#596aaf" stroke-miterlimit="10" stroke-width="2.041"/>
            <path id="Path_72246" data-name="Path 72246" d="M728.874,1508.6" transform="translate(-712.724 -1484.157)" fill="none" stroke="#596aaf" stroke-miterlimit="10" stroke-width="2.041"/>
            <path id="Path_72247" data-name="Path 72247" d="M666.118,1462.685v.19" transform="translate(-657.754 -1443.937)" fill="none" stroke="#596aaf" stroke-miterlimit="10" stroke-width="2.041"/>
            <path id="Path_72248" data-name="Path 72248" d="M678.552,1409.113h-.19" transform="translate(-668.479 -1397.011)" fill="none" stroke="#596aaf" stroke-miterlimit="10" stroke-width="2.041"/>
            <path id="Path_72249" data-name="Path 72249" d="M644.881,1406.051h-.19" transform="translate(-638.986 -1394.329)" fill="none" stroke="#596aaf" stroke-miterlimit="10" stroke-width="2.041"/>
            <path id="Path_72250" data-name="Path 72250" d="M630.913,1429.011v.19" transform="translate(-626.917 -1414.441)" fill="none" stroke="#596aaf" stroke-miterlimit="10" stroke-width="2.041"/>
            <path id="Path_72251" data-name="Path 72251" d="M623.261,1505.542" transform="translate(-620.215 -1481.476)" fill="none" stroke="#596aaf" stroke-miterlimit="10" stroke-width="2.041"/>
            <path id="Path_72252" data-name="Path 72252" d="M633.975,1464.214h0" transform="translate(-629.599 -1445.276)" fill="none" stroke="#596aaf" stroke-miterlimit="10" stroke-width="1.02"/>
            <path id="Path_72253" data-name="Path 72253" d="M672.43,1445.847h-.19" transform="translate(-663.117 -1429.188)" fill="none" stroke="#596aaf" stroke-miterlimit="10" stroke-width="1.02"/>
            <path id="Path_72254" data-name="Path 72254" d="M651,1419.827l-.19.19" transform="translate(-644.348 -1406.396)" fill="none" stroke="#596aaf" stroke-miterlimit="10" stroke-width="1.02"/>
            <path id="Path_72255" data-name="Path 72255" d="M629.573,1496.358h-.19" transform="translate(-625.577 -1473.432)" fill="none" stroke="#596aaf" stroke-miterlimit="10" stroke-width="1.02"/>
            <path id="Path_72256" data-name="Path 72256" d="M674.227,1504.156l-.379.191" transform="translate(-664.525 -1480.262)" fill="none" stroke="#596aaf" stroke-miterlimit="10" stroke-width="1.02"/>
            <path id="Path_72257" data-name="Path 72257" d="M661.526,1488.7" transform="translate(-653.732 -1466.728)" fill="none" stroke="#596aaf" stroke-miterlimit="10" stroke-width="1.02"/>
            <path id="Path_72258" data-name="Path 72258" d="M681.424,1459.622v.19" transform="translate(-671.161 -1441.254)" fill="none" stroke="#596aaf" stroke-miterlimit="10" stroke-width="1.02"/>
            <path id="Path_72259" data-name="Path 72259" d="M632.445,1447.379" transform="translate(-628.259 -1430.53)" fill="none" stroke="#596aaf" stroke-miterlimit="10" stroke-width="1.02"/>
            <path id="Path_72260" data-name="Path 72260" d="M656.934,1398.4" transform="translate(-649.71 -1387.625)" fill="none" stroke="#596aaf" stroke-miterlimit="10" stroke-width="1.02"/>
            <path id="Path_72261" data-name="Path 72261" d="M666.118,1422.889v.19" transform="translate(-657.754 -1409.078)" fill="none" stroke="#596aaf" stroke-miterlimit="10" stroke-width="1.02"/>
            <path id="Path_72262" data-name="Path 72262" d="M623.261,1477.99" transform="translate(-620.215 -1457.343)" fill="none" stroke="#596aaf" stroke-miterlimit="10" stroke-width="1.02"/>
            <path id="Path_72263" data-name="Path 72263" d="M640.1,1511.664" transform="translate(-634.961 -1486.839)" fill="none" stroke="#596aaf" stroke-miterlimit="10" stroke-width="1.02"/>
            <path id="Path_72264" data-name="Path 72264" d="M692.138,1502.48" transform="translate(-680.546 -1478.794)" fill="none" stroke="#596aaf" stroke-miterlimit="10" stroke-width="1.02"/>
            <path id="Path_72265" data-name="Path 72265" d="M709.166,1496.358h-.19" transform="translate(-695.295 -1473.432)" fill="none" stroke="#596aaf" stroke-miterlimit="10" stroke-width="1.02"/>
            <path id="Path_72266" data-name="Path 72266" d="M672.43,1481.052h-.19" transform="translate(-663.117 -1460.025)" fill="none" stroke="#596aaf" stroke-miterlimit="10" stroke-width="1.02"/>
          </g>
          <ellipse id="Ellipse_556" data-name="Ellipse 556" cx="36.832" cy="8.254" rx="36.832" ry="8.254" transform="translate(71.341 180.41)" fill="#c4bfdf"/>
          <g id="Group_16046" data-name="Group 16046" transform="translate(130.322 18.302)">
            <g id="Group_16045" data-name="Group 16045">
              <path id="Path_72267" data-name="Path 72267" d="M1251.852,491.962a20.531,20.531,0,0,0-4.755,3.2,13.809,13.809,0,0,0-2.32,16.554c1.177,1.987,2.871,3.679,3.716,5.828,2.077,5.286-1.706,11.119-6.178,14.619-3.957,3.1-9.241,6.722-8.141,11.625.454,2.026,1.981,3.623,3.524,5.014,11.529,10.389,27.116,13.722,42.26,12.311,10.9-1.016,24.474-11.707,16.858-23.911-1.03-1.651-2.456-3.243-2.479-5.189-.035-2.947,3-4.8,5.286-6.657,7.2-5.86,8.764-17.516,3.355-25.065-2.239-3.124-5.393-5.473-7.859-8.421s-4.255-6.967-3.011-10.6c.7-2.051,2.273-3.691,3.167-5.666,1.682-3.72.7-8.238-1.615-11.6-5.111-7.422-16.75-9.218-23.86-3.681a7.577,7.577,0,0,0-2.3,2.639,10.011,10.011,0,0,0-.638,4.178c-.083,7.015-.816,14.793-5.972,19.55C1258.319,489.056,1254.966,490.346,1251.852,491.962Z" transform="translate(-1234.026 -457.086)" fill="#70aadd"/>
              <path id="Path_72268" data-name="Path 72268" d="M1265.578,579.711a17.363,17.363,0,0,0,7.55-7.582,12.378,12.378,0,0,0-.168-11.774c-1.983-3.339-5.127-5.986-6.081-9.884a8.264,8.264,0,0,1,.272-5.422,4.592,4.592,0,0,1,3.057-2.26,43.032,43.032,0,0,1,4.825-.76,12.648,12.648,0,0,0,5.392-2.064,20.022,20.022,0,0,0,5.445-26.919,42.779,42.779,0,0,0-2.747-4.016,11.847,11.847,0,0,0-.411,3.607c-.083,7.015-.816,14.793-5.972,19.55-2.568,2.369-5.922,3.659-9.036,5.275a20.529,20.529,0,0,0-4.755,3.2,13.808,13.808,0,0,0-2.32,16.554c1.177,1.987,2.871,3.679,3.716,5.828,2.077,5.286-1.705,11.119-6.178,14.619a43.184,43.184,0,0,0-6.043,5.223A27.591,27.591,0,0,0,1265.578,579.711Z" transform="translate(-1249.88 -502.585)" fill="#52a3db"/>
              <g id="Group_16042" data-name="Group 16042" transform="translate(35.351 37.942)">
                <path id="Path_72269" data-name="Path 72269" d="M1518.948,858.441l1.719-95.546h.73l1.719,95.546Z" transform="translate(-1518.948 -762.895)" fill="#120f42"/>
              </g>
              <g id="Group_16043" data-name="Group 16043" transform="translate(24.81 72.216)">
                <path id="Path_72270" data-name="Path 72270" d="M1446.339,1054.192a1.6,1.6,0,0,1-.8-.392,8.622,8.622,0,0,1-.619-.7l-.781-.928-1.952-2.329-2.215-2.687c-1.487-1.848-3-3.675-4.086-5.084-1.1-1.4-1.821-2.342-1.821-2.342a.366.366,0,0,1,.557-.473s.818.861,2.014,2.178c1.214,1.3,2.77,3.091,4.351,4.859l2.29,2.623,1.98,2.3.789.922a8.688,8.688,0,0,1,.592.725,1.6,1.6,0,0,1,.256.851.5.5,0,0,1-.528.475Z" transform="translate(-1433.993 -1039.142)" fill="#120f42"/>
              </g>
              <g id="Group_16044" data-name="Group 16044" transform="translate(36.701 45.91)">
                <path id="Path_72271" data-name="Path 72271" d="M1530.031,840.026l12.1-12.8a.365.365,0,0,1,.541.491L1531.1,841a.724.724,0,0,1-1.092-.951Z" transform="translate(-1529.833 -827.113)" fill="#120f42"/>
              </g>
            </g>
            <path id="Path_72272" data-name="Path 72272" d="M1571.532,1282.817" transform="translate(-1529.657 -1180.368)" fill="none" stroke="#0082c9" stroke-miterlimit="10" stroke-width="2.355"/>
            <path id="Path_72273" data-name="Path 72273" d="M1616.27,1231.012" transform="translate(-1568.845 -1134.99)" fill="none" stroke="#0082c9" stroke-miterlimit="10" stroke-width="2.355"/>
            <path id="Path_72274" data-name="Path 72274" d="M1668.078,1256.914v.292" transform="translate(-1614.225 -1157.678)" fill="none" stroke="#0082c9" stroke-miterlimit="10" stroke-width="2.355"/>
            <path id="Path_72275" data-name="Path 72275" d="M1703.4,1179.206" transform="translate(-1645.164 -1089.612)" fill="none" stroke="#0082c9" stroke-miterlimit="10" stroke-width="2.355"/>
            <path id="Path_72276" data-name="Path 72276" d="M1703.692,1127.4l-.292.292" transform="translate(-1645.164 -1044.234)" fill="none" stroke="#0082c9" stroke-miterlimit="10" stroke-width="2.355"/>
            <path id="Path_72277" data-name="Path 72277" d="M1734.3,1165.077h-.292" transform="translate(-1671.978 -1077.236)" fill="none" stroke="#0082c9" stroke-miterlimit="10" stroke-width="2.355"/>
            <path id="Path_72278" data-name="Path 72278" d="M1679.851,1228.658" transform="translate(-1624.537 -1132.928)" fill="none" stroke="#0082c9" stroke-miterlimit="10" stroke-width="2.355"/>
            <path id="Path_72279" data-name="Path 72279" d="M1569.176,1205.109" transform="translate(-1527.594 -1112.301)" fill="none" stroke="#0082c9" stroke-miterlimit="10" stroke-width="2.355"/>
            <path id="Path_72280" data-name="Path 72280" d="M1616.27,1278.4v-.292" transform="translate(-1568.845 -1176.242)" fill="none" stroke="#0082c9" stroke-miterlimit="10" stroke-width="2.355"/>
            <line id="Line_176" data-name="Line 176" transform="translate(42.167 98.359)" fill="none" stroke="#0082c9" stroke-miterlimit="10" stroke-width="2.355"/>
            <path id="Path_72281" data-name="Path 72281" d="M1491.467,1278.107" transform="translate(-1459.526 -1176.242)" fill="none" stroke="#0082c9" stroke-miterlimit="10" stroke-width="2.355"/>
            <path id="Path_72282" data-name="Path 72282" d="M1507.951,1188.627v.292" transform="translate(-1473.965 -1097.864)" fill="none" stroke="#0082c9" stroke-miterlimit="10" stroke-width="2.355"/>
            <path id="Path_72283" data-name="Path 72283" d="M1461.147,1129.757h-.292" transform="translate(-1432.712 -1046.298)" fill="none" stroke="#0082c9" stroke-miterlimit="10" stroke-width="2.355"/>
            <path id="Path_72284" data-name="Path 72284" d="M1472.921,1216.882l-.292.292" transform="translate(-1443.025 -1122.613)" fill="none" stroke="#0082c9" stroke-miterlimit="10" stroke-width="2.355"/>
            <path id="Path_72285" data-name="Path 72285" d="M1416.406,1249.849h-.292" transform="translate(-1393.522 -1151.49)" fill="none" stroke="#0082c9" stroke-miterlimit="10" stroke-width="2.355"/>
            <path id="Path_72286" data-name="Path 72286" d="M1355.474,1233.367h-.584" transform="translate(-1339.894 -1137.053)" fill="none" stroke="#0082c9" stroke-miterlimit="10" stroke-width="2.355"/>
            <path id="Path_72287" data-name="Path 72287" d="M1505.6,1247.5v.292" transform="translate(-1471.902 -1149.429)" fill="none" stroke="#0082c9" stroke-miterlimit="10" stroke-width="2.355"/>
            <path id="Path_72288" data-name="Path 72288" d="M1418.47,1193.335" transform="translate(-1395.586 -1101.988)" fill="none" stroke="#0082c9" stroke-miterlimit="10" stroke-width="2.355"/>
            <path id="Path_72289" data-name="Path 72289" d="M1646.884,1176.851" transform="translate(-1595.66 -1087.549)" fill="none" stroke="#0082c9" stroke-miterlimit="10" stroke-width="2.355"/>
            <path id="Path_72290" data-name="Path 72290" d="M1715.174,1221.594" transform="translate(-1655.477 -1126.741)" fill="none" stroke="#0082c9" stroke-miterlimit="10" stroke-width="2.355"/>
            <path id="Path_72291" data-name="Path 72291" d="M1642.175,1216.882" transform="translate(-1591.536 -1122.613)" fill="none" stroke="#0082c9" stroke-miterlimit="10" stroke-width="1.177"/>
            <path id="Path_72292" data-name="Path 72292" d="M1628.046,1268.69" transform="translate(-1579.16 -1167.993)" fill="none" stroke="#0082c9" stroke-miterlimit="10" stroke-width="1.177"/>
            <path id="Path_72293" data-name="Path 72293" d="M1585.659,1247.5" transform="translate(-1542.032 -1149.429)" fill="none" stroke="#0082c9" stroke-miterlimit="10" stroke-width="1.177"/>
            <path id="Path_72294" data-name="Path 72294" d="M1602.143,1202.756v.292" transform="translate(-1556.47 -1110.24)" fill="none" stroke="#0082c9" stroke-miterlimit="10" stroke-width="1.177"/>
            <path id="Path_72295" data-name="Path 72295" d="M1668.078,1190.98" transform="translate(-1614.225 -1099.925)" fill="none" stroke="#0082c9" stroke-miterlimit="10" stroke-width="1.177"/>
            <path id="Path_72296" data-name="Path 72296" d="M1724.592,1200.4" transform="translate(-1663.727 -1108.176)" fill="none" stroke="#0082c9" stroke-miterlimit="10" stroke-width="1.177"/>
            <path id="Path_72297" data-name="Path 72297" d="M1686.915,1158.013" transform="translate(-1630.725 -1071.048)" fill="none" stroke="#0082c9" stroke-miterlimit="10" stroke-width="1.177"/>
            <path id="Path_72298" data-name="Path 72298" d="M1734.012,1146.239" transform="translate(-1671.978 -1060.735)" fill="none" stroke="#0082c9" stroke-miterlimit="10" stroke-width="1.177"/>
            <path id="Path_72299" data-name="Path 72299" d="M1708.109,1094.434" transform="translate(-1649.289 -1015.357)" fill="none" stroke="#0082c9" stroke-miterlimit="10" stroke-width="1.177"/>
            <path id="Path_72300" data-name="Path 72300" d="M1639.819,1254.561h.292" transform="translate(-1589.472 -1155.617)" fill="none" stroke="#0082c9" stroke-miterlimit="10" stroke-width="1.177"/>
            <path id="Path_72301" data-name="Path 72301" d="M1557.4,1228.658" transform="translate(-1517.281 -1132.928)" fill="none" stroke="#0082c9" stroke-miterlimit="10" stroke-width="1.177"/>
            <path id="Path_72302" data-name="Path 72302" d="M1590.37,1287.528" transform="translate(-1546.158 -1184.494)" fill="none" stroke="#0082c9" stroke-miterlimit="10" stroke-width="1.177"/>
            <path id="Path_72303" data-name="Path 72303" d="M1649.24,1238.368v-.292" transform="translate(-1597.724 -1141.178)" fill="none" stroke="#0082c9" stroke-miterlimit="10" stroke-width="1.177"/>
            <path id="Path_72304" data-name="Path 72304" d="M1689.271,1250.141l.292-.292" transform="translate(-1632.788 -1151.49)" fill="none" stroke="#0082c9" stroke-miterlimit="10" stroke-width="1.177"/>
            <path id="Path_72305" data-name="Path 72305" d="M1694.272,1212.173h-.292" transform="translate(-1636.913 -1118.488)" fill="none" stroke="#0082c9" stroke-miterlimit="10" stroke-width="1.177"/>
            <path id="Path_72306" data-name="Path 72306" d="M1735.369,1186.512c-.152-.092-.148.308,0,.213" transform="translate(-1673.068 -1095.999)" fill="none" stroke="#0082c9" stroke-miterlimit="10" stroke-width="1.177"/>
            <path id="Path_72307" data-name="Path 72307" d="M1642.175,1198.045v.292" transform="translate(-1591.536 -1106.113)" fill="none" stroke="#0082c9" stroke-miterlimit="10" stroke-width="1.177"/>
            <path id="Path_72308" data-name="Path 72308" d="M1590.662,1188.627h-.292" transform="translate(-1546.158 -1097.864)" fill="none" stroke="#0082c9" stroke-miterlimit="10" stroke-width="1.177"/>
            <path id="Path_72309" data-name="Path 72309" d="M1583.306,1223.947" transform="translate(-1539.971 -1128.802)" fill="none" stroke="#0082c9" stroke-miterlimit="10" stroke-width="1.177"/>
            <path id="Path_72310" data-name="Path 72310" d="M1507.951,1231.012" transform="translate(-1473.965 -1134.99)" fill="none" stroke="#0082c9" stroke-miterlimit="10" stroke-width="1.177"/>
            <path id="Path_72311" data-name="Path 72311" d="M1501.179,1167.433h-.292" transform="translate(-1467.777 -1079.299)" fill="none" stroke="#0082c9" stroke-miterlimit="10" stroke-width="1.177"/>
            <path id="Path_72312" data-name="Path 72312" d="M1474.984,1139.175" transform="translate(-1445.088 -1054.547)" fill="none" stroke="#0082c9" stroke-miterlimit="10" stroke-width="1.177"/>
            <path id="Path_72313" data-name="Path 72313" d="M1468.212,1176.851h-.292" transform="translate(-1438.901 -1087.549)" fill="none" stroke="#0082c9" stroke-miterlimit="10" stroke-width="1.177"/>
            <path id="Path_72314" data-name="Path 72314" d="M1449.081,1179.206" transform="translate(-1422.399 -1089.612)" fill="none" stroke="#0082c9" stroke-miterlimit="10" stroke-width="1.177"/>
            <path id="Path_72315" data-name="Path 72315" d="M1510.307,1205.109" transform="translate(-1476.029 -1112.301)" fill="none" stroke="#0082c9" stroke-miterlimit="10" stroke-width="1.177"/>
            <path id="Path_72316" data-name="Path 72316" d="M1453.791,1226.3" transform="translate(-1426.525 -1130.864)" fill="none" stroke="#0082c9" stroke-miterlimit="10" stroke-width="1.177"/>
            <path id="Path_72317" data-name="Path 72317" d="M1454.083,1249.849l-.292.292" transform="translate(-1426.525 -1151.49)" fill="none" stroke="#0082c9" stroke-miterlimit="10" stroke-width="1.177"/>
            <path id="Path_72318" data-name="Path 72318" d="M1444.373,1273.4" transform="translate(-1418.275 -1172.118)" fill="none" stroke="#0082c9" stroke-miterlimit="10" stroke-width="1.177"/>
            <path id="Path_72319" data-name="Path 72319" d="M1406.7,1226.3" transform="translate(-1385.274 -1130.864)" fill="none" stroke="#0082c9" stroke-miterlimit="10" stroke-width="1.177"/>
            <path id="Path_72320" data-name="Path 72320" d="M1470.273,1259.269" transform="translate(-1440.962 -1159.741)" fill="none" stroke="#0082c9" stroke-miterlimit="10" stroke-width="1.177"/>
            <path id="Path_72321" data-name="Path 72321" d="M1378.439,1261.625" transform="translate(-1360.521 -1161.805)" fill="none" stroke="#0082c9" stroke-miterlimit="10" stroke-width="1.177"/>
            <path id="Path_72322" data-name="Path 72322" d="M1376.083,1216.882" transform="translate(-1358.458 -1122.613)" fill="none" stroke="#0082c9" stroke-miterlimit="10" stroke-width="1.177"/>
            <path id="Path_72323" data-name="Path 72323" d="M1378.439,1240.432" transform="translate(-1360.521 -1143.241)" fill="none" stroke="#0082c9" stroke-miterlimit="10" stroke-width="1.177"/>
            <path id="Path_72324" data-name="Path 72324" d="M1439.664,1160.368" transform="translate(-1414.15 -1073.111)" fill="none" stroke="#0082c9" stroke-miterlimit="10" stroke-width="1.177"/>
            <path id="Path_72325" data-name="Path 72325" d="M1420.826,1216.882" transform="translate(-1397.65 -1122.613)" fill="none" stroke="#0082c9" stroke-miterlimit="10" stroke-width="1.177"/>
            <path id="Path_72326" data-name="Path 72326" d="M1456.438,1200.4h-.292" transform="translate(-1428.587 -1108.176)" fill="none" stroke="#0082c9" stroke-miterlimit="10" stroke-width="1.177"/>
            <path id="Path_72327" data-name="Path 72327" d="M1474.984,1158.013" transform="translate(-1445.088 -1071.048)" fill="none" stroke="#0082c9" stroke-miterlimit="10" stroke-width="1.177"/>
            <path id="Path_72328" data-name="Path 72328" d="M1482.633,1188.627h-.584" transform="translate(-1451.276 -1097.864)" fill="none" stroke="#0082c9" stroke-miterlimit="10" stroke-width="1.177"/>
            <path id="Path_72329" data-name="Path 72329" d="M1489.113,1231.012" transform="translate(-1457.464 -1134.99)" fill="none" stroke="#0082c9" stroke-miterlimit="10" stroke-width="1.177"/>
            <path id="Path_72330" data-name="Path 72330" d="M1510.307,1273.4" transform="translate(-1476.029 -1172.118)" fill="none" stroke="#0082c9" stroke-miterlimit="10" stroke-width="1.177"/>
            <path id="Path_72331" data-name="Path 72331" d="M1503.242,1150.948" transform="translate(-1469.84 -1064.86)" fill="none" stroke="#0082c9" stroke-miterlimit="10" stroke-width="1.177"/>
            <path id="Path_72332" data-name="Path 72332" d="M1477.337,1125.046" transform="translate(-1447.149 -1042.171)" fill="none" stroke="#0082c9" stroke-miterlimit="10" stroke-width="1.177"/>
            <path id="Path_72333" data-name="Path 72333" d="M1562.4,1183.915h-.292" transform="translate(-1521.406 -1093.736)" fill="none" stroke="#0082c9" stroke-miterlimit="10" stroke-width="1.177"/>
            <path id="Path_72334" data-name="Path 72334" d="M1663.369,1211.289V1211" transform="translate(-1610.1 -1117.458)" fill="none" stroke="#0082c9" stroke-miterlimit="10" stroke-width="1.177"/>
            <path id="Path_72335" data-name="Path 72335" d="M1682.207,1195.691" transform="translate(-1626.601 -1104.052)" fill="none" stroke="#0082c9" stroke-miterlimit="10" stroke-width="1.177"/>
          </g>
          <g id="Group_16051" data-name="Group 16051">
            <g id="Group_16050" data-name="Group 16050">
              <path id="Path_72336" data-name="Path 72336" d="M205.259,328.879c-1.2,1.664-2.347,3.659-1.893,5.662.645,2.85,3.974,4.01,6.167,5.94,4.616,4.062,3.832,11.786.339,16.847s-8.937,8.349-13.648,12.3c-7.048,5.912-12.875,14.306-12.572,23.5.309,9.4,7.081,17.63,15.29,22.211s17.719,6.135,27.034,7.4c9.846,1.333,19.915,2.415,29.662.483,20.94-4.151,33.813-29.758,21.4-48.2-1.5-2.228-3.317-4.284-4.335-6.77-3.008-7.341,1.734-15.317,3.324-23.09,4.871-23.809-19.733-38.921-41.038-34.957A47.76,47.76,0,0,0,205.259,328.879Z" transform="translate(-183.641 -309.574)" fill="#9e7eb7"/>
              <path id="Path_72337" data-name="Path 72337" d="M208.626,473.579a30.8,30.8,0,0,1-6.978-15.015,28.272,28.272,0,0,1,.073-8.565,19.413,19.413,0,0,1,3.062-8.534c3.274-4.428,8.921-5.66,13.668-7.848,6.209-2.862,11-8.276,14.278-14.18,3.114-5.6,5.211-13.24,1.791-19.2-2.872-5.008-8.783-7.3-13-10.942-2.44-2.106-4.761-4.834-5.317-8.11a8.529,8.529,0,0,1,.183-3.642,46.537,46.537,0,0,0-11.127,10.873c-1.2,1.664-2.347,3.659-1.893,5.662.645,2.85,3.974,4.01,6.167,5.94,4.616,4.062,3.832,11.786.339,16.847s-8.937,8.349-13.648,12.3c-7.048,5.912-12.875,14.306-12.572,23.5.309,9.395,7.081,17.63,15.29,22.211a57.564,57.564,0,0,0,17.226,5.843A44.072,44.072,0,0,1,208.626,473.579Z" transform="translate(-183.641 -369.105)" fill="#9e71af"/>
              <g id="Group_16047" data-name="Group 16047" transform="translate(49.8 38.047)">
                <path id="Path_72338" data-name="Path 72338" d="M585.022,727.622l2-111.394h.851l2,111.394Z" transform="translate(-585.022 -616.228)" fill="#120f42"/>
              </g>
              <g id="Group_16048" data-name="Group 16048" transform="translate(37.511 78.006)">
                <path id="Path_72339" data-name="Path 72339" d="M500.372,955.843a1.836,1.836,0,0,1-.931-.457,10.043,10.043,0,0,1-.721-.818l-.911-1.082-2.275-2.714-2.583-3.133c-1.734-2.154-3.5-4.285-4.763-5.928-1.288-1.627-2.123-2.73-2.123-2.73a.427.427,0,0,1,.649-.551s.953,1,2.348,2.539c1.415,1.518,3.23,3.6,5.073,5.665l2.67,3.059,2.308,2.687.919,1.075a10.047,10.047,0,0,1,.69.845,1.837,1.837,0,0,1,.3.993.588.588,0,0,1-.621.553Z" transform="translate(-485.978 -938.297)" fill="#120f42"/>
              </g>
              <g id="Group_16049" data-name="Group 16049" transform="translate(51.374 47.336)">
                <path id="Path_72340" data-name="Path 72340" d="M597.944,706.154l14.106-14.921a.426.426,0,0,1,.63.572l-13.487,15.483a.844.844,0,1,1-1.273-1.108Z" transform="translate(-597.714 -691.099)" fill="#120f42"/>
              </g>
            </g>
            <path id="Path_72341" data-name="Path 72341" d="M935.119,1463.17v.255" transform="translate(-841.882 -1320.042)" fill="none"/>
            <path id="Path_72342" data-name="Path 72342" d="M673.891,1183.155l-.255.256" transform="translate(-612.842 -1074.769)" fill="none" stroke="#596aaf" stroke-miterlimit="10" stroke-width="2.745"/>
            <path id="Path_72343" data-name="Path 72343" d="M719.188,1209.922h-.256" transform="translate(-652.518 -1098.215)" fill="none" stroke="#596aaf" stroke-miterlimit="10" stroke-width="2.745"/>
            <path id="Path_72344" data-name="Path 72344" d="M735.66,1168.743H735.4" transform="translate(-666.946 -1062.145)" fill="none" stroke="#596aaf" stroke-miterlimit="10" stroke-width="2.745"/>
            <path id="Path_72345" data-name="Path 72345" d="M799.229,1191.392v.255" transform="translate(-722.852 -1081.984)" fill="none" stroke="#596aaf" stroke-miterlimit="10" stroke-width="2.745"/>
            <path id="Path_72346" data-name="Path 72346" d="M820.075,1127.565h-.256" transform="translate(-740.888 -1026.076)" fill="none" stroke="#596aaf" stroke-miterlimit="10" stroke-width="2.745"/>
            <path id="Path_72347" data-name="Path 72347" d="M867.175,1135.8" transform="translate(-782.368 -1033.29)" fill="none" stroke="#596aaf" stroke-miterlimit="10" stroke-width="2.745"/>
            <path id="Path_72348" data-name="Path 72348" d="M914.529,1043.151v.255" transform="translate(-823.847 -952.135)" fill="none" stroke="#596aaf" stroke-miterlimit="10" stroke-width="2.745"/>
            <path id="Path_72349" data-name="Path 72349" d="M943.356,931.967" transform="translate(-849.097 -854.746)" fill="none" stroke="#596aaf" stroke-miterlimit="10" stroke-width="2.745"/>
            <path id="Path_72350" data-name="Path 72350" d="M908.609,1096.68l-.255.256" transform="translate(-818.438 -999.023)" fill="none" stroke="#596aaf" stroke-miterlimit="10" stroke-width="2.745"/>
            <path id="Path_72351" data-name="Path 72351" d="M869.488,1086.388h-.255" transform="translate(-784.171 -990.008)" fill="none" stroke="#596aaf" stroke-miterlimit="10" stroke-width="2.745"/>
            <path id="Path_72352" data-name="Path 72352" d="M797.17,1154.332v.255" transform="translate(-721.049 -1049.522)" fill="none" stroke="#596aaf" stroke-miterlimit="10" stroke-width="2.745"/>
            <path id="Path_72353" data-name="Path 72353" d="M648.929,1214.039" transform="translate(-591.2 -1101.821)" fill="none" stroke="#596aaf" stroke-miterlimit="10" stroke-width="2.745"/>
            <path id="Path_72354" data-name="Path 72354" d="M941.752,1003.674h-.114" transform="translate(-847.592 -917.556)" fill="none" stroke="#596aaf" stroke-miterlimit="10" stroke-width="2.745"/>
            <path id="Path_72355" data-name="Path 72355" d="M751.292,1200.427" transform="translate(-680.863 -1089.898)" fill="none" stroke="#596aaf" stroke-miterlimit="10" stroke-width="1.373"/>
            <path id="Path_72356" data-name="Path 72356" d="M710.226,1186.7h-.113" transform="translate(-644.793 -1077.873)" fill="none" stroke="#596aaf" stroke-miterlimit="10" stroke-width="1.373"/>
            <path id="Path_72357" data-name="Path 72357" d="M687.234,1219.645" transform="translate(-624.753 -1106.731)" fill="none" stroke="#596aaf" stroke-miterlimit="10" stroke-width="1.373"/>
            <path id="Path_72358" data-name="Path 72358" d="M840.973,1173.889" transform="translate(-759.417 -1066.652)" fill="none" stroke="#596aaf" stroke-miterlimit="10" stroke-width="1.373"/>
            <path id="Path_72359" data-name="Path 72359" d="M831.937,1151.925h-.114" transform="translate(-751.402 -1047.413)" fill="none" stroke="#596aaf" stroke-miterlimit="10" stroke-width="1.373"/>
            <path id="Path_72360" data-name="Path 72360" d="M855.731,1104.339h-.113" transform="translate(-772.245 -1005.732)" fill="none" stroke="#596aaf" stroke-miterlimit="10" stroke-width="1.373"/>
            <path id="Path_72361" data-name="Path 72361" d="M894.052,1126.3v.227" transform="translate(-805.911 -1024.971)" fill="none" stroke="#596aaf" stroke-miterlimit="10" stroke-width="1.373"/>
            <path id="Path_72362" data-name="Path 72362" d="M899.543,1065.9" transform="translate(-810.72 -972.064)" fill="none" stroke="#596aaf" stroke-miterlimit="10" stroke-width="1.373"/>
            <path id="Path_72363" data-name="Path 72363" d="M937.063,1061.328v.113" transform="translate(-843.585 -968.057)" fill="none" stroke="#596aaf" stroke-miterlimit="10" stroke-width="1.373"/>
            <path id="Path_72364" data-name="Path 72364" d="M960.856,961.579" transform="translate(-864.426 -880.684)" fill="none" stroke="#596aaf" stroke-miterlimit="10" stroke-width="1.373"/>
            <path id="Path_72365" data-name="Path 72365" d="M935.233,961.579" transform="translate(-841.982 -880.684)" fill="none" stroke="#596aaf" stroke-miterlimit="10" stroke-width="1.373"/>
            <path id="Path_72366" data-name="Path 72366" d="M952.62,881.965" transform="translate(-857.212 -810.948)" fill="none" stroke="#596aaf" stroke-miterlimit="10" stroke-width="1.373"/>
            <path id="Path_72367" data-name="Path 72367" d="M948.958,909.419" transform="translate(-854.004 -834.996)" fill="none" stroke="#596aaf" stroke-miterlimit="10" stroke-width="1.373"/>
            <path id="Path_72368" data-name="Path 72368" d="M767.879,1175.718h-.114" transform="translate(-695.292 -1068.255)" fill="none" stroke="#596aaf" stroke-miterlimit="10" stroke-width="1.373"/>
            <path id="Path_72369" data-name="Path 72369" d="M946.213,1030.213" transform="translate(-851.6 -940.802)" fill="none" stroke="#596aaf" stroke-miterlimit="10" stroke-width="1.373"/>
            <path id="Path_72370" data-name="Path 72370" d="M959.94,982.627" transform="translate(-863.624 -899.121)" fill="none" stroke="#596aaf" stroke-miterlimit="10" stroke-width="1.373"/>
            <path id="Path_72371" data-name="Path 72371" d="M631.582,1179.835h-.17" transform="translate(-575.857 -1071.861)" fill="none" stroke="#596aaf" stroke-miterlimit="10" stroke-width="1.373"/>
            <path id="Path_72372" data-name="Path 72372" d="M578.047,1094.729h-.17" transform="translate(-528.964 -997.314)" fill="none" stroke="#596aaf" stroke-miterlimit="10" stroke-width="1.373"/>
            <path id="Path_72373" data-name="Path 72373" d="M565.524,1063.158" transform="translate(-518.143 -969.66)" fill="none" stroke="#596aaf" stroke-miterlimit="10" stroke-width="1.373"/>
            <path id="Path_72374" data-name="Path 72374" d="M534.12,1032.958h-.17" transform="translate(-490.487 -943.207)" fill="none" stroke="#596aaf" stroke-miterlimit="10" stroke-width="1.373"/>
            <path id="Path_72375" data-name="Path 72375" d="M503.921,991.779h-.17" transform="translate(-464.035 -907.137)" fill="none" stroke="#596aaf" stroke-miterlimit="10" stroke-width="1.373"/>
            <path id="Path_72376" data-name="Path 72376" d="M521.767,1043.94l-.171.171" transform="translate(-479.666 -952.826)" fill="none" stroke="#596aaf" stroke-miterlimit="10" stroke-width="1.373"/>
            <path id="Path_72377" data-name="Path 72377" d="M550.423,1082.376" transform="translate(-504.916 -986.494)" fill="none" stroke="#596aaf" stroke-miterlimit="10" stroke-width="1.373"/>
            <path id="Path_72378" data-name="Path 72378" d="M517.478,1015.114" transform="translate(-476.059 -927.577)" fill="none" stroke="#596aaf" stroke-miterlimit="10" stroke-width="1.373"/>
            <path id="Path_72379" data-name="Path 72379" d="M575.132,1120.812" transform="translate(-526.559 -1020.161)" fill="none" stroke="#596aaf" stroke-miterlimit="10" stroke-width="1.373"/>
            <path id="Path_72380" data-name="Path 72380" d="M556.084,1141.4l-.17.17" transform="translate(-509.726 -1038.195)" fill="none" stroke="#596aaf" stroke-miterlimit="10" stroke-width="1.373"/>
            <path id="Path_72381" data-name="Path 72381" d="M574.1,1170.227l-.341.341" transform="translate(-525.356 -1063.445)" fill="none" stroke="#596aaf" stroke-miterlimit="10" stroke-width="1.373"/>
            <path id="Path_72382" data-name="Path 72382" d="M538.24,1194.936h-.171" transform="translate(-494.096 -1085.088)" fill="none" stroke="#596aaf" stroke-miterlimit="10" stroke-width="1.373"/>
            <path id="Path_72383" data-name="Path 72383" d="M583.368,1218.271" transform="translate(-533.773 -1105.528)" fill="none" stroke="#596aaf" stroke-miterlimit="10" stroke-width="1.373"/>
            <path id="Path_72384" data-name="Path 72384" d="M547.678,1167.482" transform="translate(-502.512 -1061.04)" fill="none" stroke="#596aaf" stroke-miterlimit="10" stroke-width="1.373"/>
            <path id="Path_72385" data-name="Path 72385" d="M562.776,1207.289" transform="translate(-515.736 -1095.908)" fill="none" stroke="#596aaf" stroke-miterlimit="10" stroke-width="1.373"/>
            <path id="Path_72386" data-name="Path 72386" d="M495.517,1193.562v.171" transform="translate(-456.822 -1083.885)" fill="none" stroke="#596aaf" stroke-miterlimit="10" stroke-width="1.373"/>
            <path id="Path_72387" data-name="Path 72387" d="M625.921,829.8" transform="translate(-571.047 -765.256)" fill="none" stroke="#596aaf" stroke-miterlimit="10" stroke-width="1.373"/>
            <path id="Path_72388" data-name="Path 72388" d="M626.831,861.61c-.083-.015-.077.16.005.139" transform="translate(-571.792 -793.117)" fill="none" stroke="#596aaf" stroke-miterlimit="10" stroke-width="1.373"/>
            <path id="Path_72389" data-name="Path 72389" d="M649.6,812.145l-.341,0" transform="translate(-591.488 -749.79)" fill="none" stroke="#596aaf" stroke-miterlimit="10" stroke-width="1.373"/>
            <path id="Path_72390" data-name="Path 72390" d="M683.745,776.266h-.17" transform="translate(-621.548 -718.363)" fill="none" stroke="#596aaf" stroke-miterlimit="10" stroke-width="1.373"/>
            <path id="Path_72391" data-name="Path 72391" d="M704.334,740.578h-.17" transform="translate(-639.582 -687.103)" fill="none" stroke="#596aaf" stroke-miterlimit="10" stroke-width="1.373"/>
            <path id="Path_72392" data-name="Path 72392" d="M654.917,784.5h-.171" transform="translate(-596.296 -725.578)" fill="none" stroke="#596aaf" stroke-miterlimit="10" stroke-width="1.373"/>
            <path id="Path_72393" data-name="Path 72393" d="M682.2,810.583v.171" transform="translate(-620.344 -748.422)" fill="none" stroke="#596aaf" stroke-miterlimit="10" stroke-width="1.373"/>
            <path id="Path_72394" data-name="Path 72394" d="M646.681,844.9h-.17" transform="translate(-589.082 -778.484)" fill="none" stroke="#596aaf" stroke-miterlimit="10" stroke-width="1.373"/>
            <path id="Path_72395" data-name="Path 72395" d="M625.921,905.3" transform="translate(-571.047 -831.387)" fill="none" stroke="#596aaf" stroke-miterlimit="10" stroke-width="1.373"/>
            <path id="Path_72396" data-name="Path 72396" d="M624.55,964.325v.17" transform="translate(-569.846 -883.089)" fill="none" stroke="#596aaf" stroke-miterlimit="10" stroke-width="1.373"/>
            <path id="Path_72397" data-name="Path 72397" d="M518.852,1140.03" transform="translate(-477.262 -1036.994)" fill="none" stroke="#596aaf" stroke-miterlimit="10" stroke-width="1.373"/>
            <path id="Path_72398" data-name="Path 72398" d="M532.749,1109.83h-.17" transform="translate(-489.286 -1010.541)" fill="none" stroke="#596aaf" stroke-miterlimit="10" stroke-width="1.373"/>
            <path id="Path_72399" data-name="Path 72399" d="M487.28,1049.431" transform="translate(-449.607 -957.636)" fill="none" stroke="#596aaf" stroke-miterlimit="10" stroke-width="1.373"/>
            <path id="Path_72400" data-name="Path 72400" d="M476.6,1130.5l-.173.339" transform="translate(-440.102 -1028.645)" fill="none" stroke="#596aaf" stroke-miterlimit="10" stroke-width="1.373"/>
            <path id="Path_72401" data-name="Path 72401" d="M455.878,1170.227h-.17" transform="translate(-421.952 -1063.445)" fill="none" stroke="#596aaf" stroke-miterlimit="10" stroke-width="1.373"/>
            <path id="Path_72402" data-name="Path 72402" d="M384.839,1140.03h-.511" transform="translate(-359.429 -1036.994)" fill="none" stroke="#596aaf" stroke-miterlimit="10" stroke-width="1.373"/>
            <path id="Path_72403" data-name="Path 72403" d="M440.779,1070.022h-.17" transform="translate(-408.727 -975.672)" fill="none" stroke="#596aaf" stroke-miterlimit="10" stroke-width="1.373"/>
            <path id="Path_72404" data-name="Path 72404" d="M477.671,1100.22v.17" transform="translate(-441.19 -1002.124)" fill="none" stroke="#596aaf" stroke-miterlimit="10" stroke-width="2.745"/>
            <path id="Path_72405" data-name="Path 72405" d="M508.04,1075.513h-.17" transform="translate(-467.643 -980.482)" fill="none" stroke="#596aaf" stroke-miterlimit="10" stroke-width="2.745"/>
            <path id="Path_72406" data-name="Path 72406" d="M420.019,1123.557" transform="translate(-390.691 -1022.565)" fill="none" stroke="#596aaf" stroke-miterlimit="10" stroke-width="2.745"/>
            <path id="Path_72407" data-name="Path 72407" d="M509.242,1174.347" transform="translate(-468.844 -1067.054)" fill="none" stroke="#596aaf" stroke-miterlimit="10" stroke-width="2.745"/>
            <path id="Path_72408" data-name="Path 72408" d="M443.354,1190.819" transform="translate(-411.131 -1081.482)" fill="none" stroke="#596aaf" stroke-miterlimit="10" stroke-width="2.745"/>
            <path id="Path_72409" data-name="Path 72409" d="M386.174,1164.62l-.511.17" transform="translate(-360.598 -1058.533)" fill="none" stroke="#596aaf" stroke-miterlimit="10" stroke-width="2.745"/>
            <path id="Path_72410" data-name="Path 72410" d="M329.422,1148.434l.17-.17" transform="translate(-311.335 -1044.207)" fill="none" stroke="#596aaf" stroke-miterlimit="10" stroke-width="2.745"/>
            <path id="Path_72411" data-name="Path 72411" d="M556.084,1129.046l-.17.17" transform="translate(-509.726 -1027.373)" fill="none" stroke="#596aaf" stroke-miterlimit="10" stroke-width="2.745"/>
            <path id="Path_72412" data-name="Path 72412" d="M553.34,1188.073l-.171.17" transform="translate(-507.321 -1079.076)" fill="none" stroke="#596aaf" stroke-miterlimit="10" stroke-width="2.745"/>
            <path id="Path_72413" data-name="Path 72413" d="M523.141,1208.663l-.17.17" transform="translate(-480.87 -1097.112)" fill="none" stroke="#596aaf" stroke-miterlimit="10" stroke-width="2.745"/>
            <path id="Path_72414" data-name="Path 72414" d="M487.28,1030.213" transform="translate(-449.607 -940.802)" fill="none" stroke="#596aaf" stroke-miterlimit="10" stroke-width="2.745"/>
            <path id="Path_72415" data-name="Path 72415" d="M632.953,1086.493h-.171" transform="translate(-577.057 -990.1)" fill="none" stroke="#596aaf" stroke-miterlimit="10" stroke-width="2.745"/>
            <path id="Path_72416" data-name="Path 72416" d="M662.983,1137.282v.171" transform="translate(-603.51 -1034.587)" fill="none" stroke="#596aaf" stroke-miterlimit="10" stroke-width="2.745"/>
            <path id="Path_72417" data-name="Path 72417" d="M717.889,1155.128" transform="translate(-651.604 -1050.219)" fill="none" stroke="#596aaf" stroke-miterlimit="10" stroke-width="2.745"/>
            <path id="Path_72418" data-name="Path 72418" d="M627.465,1149.807l-.17-.17" transform="translate(-572.25 -1045.409)" fill="none" stroke="#596aaf" stroke-miterlimit="10" stroke-width="2.745"/>
            <path id="Path_72419" data-name="Path 72419" d="M686.321,1152.383" transform="translate(-623.953 -1047.815)" fill="none" stroke="#596aaf" stroke-miterlimit="10" stroke-width="1.373"/>
            <path id="Path_72420" data-name="Path 72420" d="M634.157,1118.066l.17.17" transform="translate(-578.261 -1017.755)" fill="none" stroke="#596aaf" stroke-miterlimit="10" stroke-width="1.373"/>
            <path id="Path_72421" data-name="Path 72421" d="M650.63,1159.245" transform="translate(-592.69 -1053.825)" fill="none" stroke="#596aaf" stroke-miterlimit="10" stroke-width="1.373"/>
            <path id="Path_72422" data-name="Path 72422" d="M462.572,1148.264" transform="translate(-427.965 -1044.207)" fill="none" stroke="#596aaf" stroke-miterlimit="10" stroke-width="1.373"/>
            <path id="Path_72423" data-name="Path 72423" d="M418.815,1157.874l-.17.17" transform="translate(-389.488 -1052.624)" fill="none" stroke="#596aaf" stroke-miterlimit="10" stroke-width="1.373"/>
            <path id="Path_72424" data-name="Path 72424" d="M347.266,1146.892" transform="translate(-326.965 -1043.005)" fill="none" stroke="#596aaf" stroke-miterlimit="10" stroke-width="1.373"/>
            <path id="Path_72425" data-name="Path 72425" d="M407.664,1194.936" transform="translate(-379.869 -1085.088)" fill="none" stroke="#596aaf" stroke-miterlimit="10" stroke-width="1.373"/>
            <path id="Path_72426" data-name="Path 72426" d="M445,1101.443l-.339.173" transform="translate(-412.277 -1003.195)" fill="none" stroke="#596aaf" stroke-miterlimit="10" stroke-width="1.373"/>
            <path id="Path_72427" data-name="Path 72427" d="M466.689,1068.648" transform="translate(-431.571 -974.469)" fill="none" stroke="#596aaf" stroke-miterlimit="10" stroke-width="1.373"/>
          </g>
        </g>
      </g>
      <g id="Group_16079" data-name="Group 16079" transform="translate(105.495 64.935)">
        <path id="Path_72428" data-name="Path 72428" d="M969.338,1079.654a7.755,7.755,0,0,1,1.6.229,11.846,11.846,0,0,1,2.654,2.221,2.986,2.986,0,0,1,.337.34.526.526,0,0,1-.594.864,1.432,1.432,0,0,1-.449-.213,5.774,5.774,0,0,1-.667-.677,3.6,3.6,0,0,0-.805-.488,8.118,8.118,0,0,1-1.679-1.7A2.8,2.8,0,0,1,969.338,1079.654Z" transform="translate(-954.564 -1010.62)" fill="#f08d73"/>
        <g id="Group_16057" data-name="Group 16057" transform="translate(0.148 29.086)">
          <g id="Group_16054" data-name="Group 16054" transform="translate(0 0.249)">
            <path id="Path_72429" data-name="Path 72429" d="M851.453,784.418c.8-1.45,1.073-1.591,2.083-3.137,4.092-6.256,4.165-6.689,7.538-10.871,4.595-5.7,9.952-11.991,14.055-10.335,1.678.678-5.932,13.554-12.18,19.319-1.329,1.225-1.778,2-6.974,8.816C855.974,788.21,852.549,786.146,851.453,784.418Z" transform="translate(-851.453 -759.806)" fill="#f08d73"/>
          </g>
          <g id="Group_16056" data-name="Group 16056" transform="translate(6.349)">
            <g id="Group_16055" data-name="Group 16055">
              <path id="Path_72430" data-name="Path 72430" d="M909.662,776.662c-.042-.05-.081-.1-.119-.151a24.012,24.012,0,0,0-6.9-6.262c-.385-.22,4.119-4.866,4.467-5.223,2.453-2.516,5.059-5.334,8.411-6.625,1.939-.747,4.858-1.276,5.583,1.409.682,2.762-2.086,5.77-3.453,7.894-1.973,3.068-4.433,5.7-6.6,8.683-.231.318-.553.673-.938.595A.838.838,0,0,1,909.662,776.662Z" transform="translate(-902.624 -757.796)" fill="#e6e7e8"/>
            </g>
          </g>
        </g>
        <path id="Path_72431" data-name="Path 72431" d="M1002.216,551.7a3.535,3.535,0,0,0-.874.209,4.876,4.876,0,0,1-4,.233,21.628,21.628,0,0,0-3.586-.523c-1.975-.205-4.457,1.424-6.4,1.447-1.343.017-1.544-.8-2.841-.947-2.468-.276-1.993-3.412-2.126-5.312a76.062,76.062,0,0,1-.161-9.713c.225-3.888.967-8.1,4.4-10.456,2.962-2.029,7.044-3.368,10.479-1.72,1.67.8,2.371,2.346,3.588,3.657a15.371,15.371,0,0,1,3.449,5.212,31.715,31.715,0,0,1,1.358,4.979,14.5,14.5,0,0,0,2.7,6.037,5.517,5.517,0,0,1,1.03,4.568c-.2,1.054-.14,2.23-1.128,2.636C1006.256,552.766,1004.2,551.478,1002.216,551.7Z" transform="translate(-965.779 -524.076)" fill="#a64629"/>
        <path id="Path_72432" data-name="Path 72432" d="M876.159,1485.784s5.116,7.627,11.4,34.977c.84,3.658-2.626,2.229-2.626,2.229s-17.14-30.883-18.157-34.66S876.159,1485.784,876.159,1485.784Z" transform="translate(-864.668 -1366.208)" fill="#f08d73"/>
        <path id="Path_72433" data-name="Path 72433" d="M998.055,787.246c-.051-.79-.074-1.334-.086-2.134a114.19,114.19,0,0,1,.662-12.516c.374-4.08,1.863-8.651.618-12.662-.482-1.561.078-6.756-.33-6.866a48.933,48.933,0,0,0-6.47-1c-1.254.028-2.052.491-3.3.434v.156a19.118,19.118,0,0,0-6.011.438s-1.323,6.3-2.588,8.586c-1.9,3.442-2.866,7.372-1.415,11.11a23.213,23.213,0,0,1,.936,4.959,54.826,54.826,0,0,1,.2,9.771c-.365,3.037-1.3,6.077-1.956,9.072-.23,1.052-1.073,3.038-.7,4.123,0,0,10.27-.436,13.147-.639l5.847.414c1.479.1,5.78,2.337,5.649.225a11.982,11.982,0,0,0-1.725-5.5A20,20,0,0,1,998.055,787.246Z" transform="translate(-961.728 -723.692)" fill="#f08d73"/>
        <path id="Path_72434" data-name="Path 72434" d="M904.7,1095.1c-6.863,21.36-12.814,37.375-15.632,43.166-4.494,9.233-11.369-4.618-11.369-4.618s10.668-38.132,14.249-44.181C894.141,1085.763,906.118,1090.692,904.7,1095.1Z" transform="translate(-874.297 -1018.089)" fill="#f08d73"/>
        <path id="Path_72435" data-name="Path 72435" d="M1070.682,1110.806c1.811,5.484,2.362,8.62,2.37,12.134.041,18.3-3.505,34.437-4.416,39.773-1,5.836-8.459,1.745-8.459,1.745s-5.636-47.892-4.163-51.967S1069.23,1106.41,1070.682,1110.806Z" transform="translate(-1030.27 -1035.75)" fill="#f08d73"/>
        <path id="Path_72436" data-name="Path 72436" d="M1098.207,1520.891s3.464,11.028.81,38.965c-.355,3.736-3.077,1.125-3.077,1.125s-5.186-33.308-4.961-37.213S1098.207,1520.891,1098.207,1520.891Z" transform="translate(-1061.107 -1397.02)" fill="#f08d73"/>
        <path id="Path_72437" data-name="Path 72437" d="M886.293,1516.641c-4.127-25.174-8.569-29.083-8.569-29.083s-11.9-1.564-10.886,2.213c.739,2.743,9.982,19.785,14.986,28.907Z" transform="translate(-864.728 -1367.65)" fill="#763147"/>
        <path id="Path_72438" data-name="Path 72438" d="M999.154,1075.338H979.373c-.355,1.48-.742,2.955-1.062,4.419-.23,1.052-1.073,3.038-.7,4.123,0,0,10.27-.436,13.147-.639l5.847.414c1.479.1,7.2,3.1,6.719,1.039C1002.392,1080.7,1000.542,1076.581,999.154,1075.338Z" transform="translate(-961.728 -1006.854)" fill="#763147"/>
        <path id="Path_72439" data-name="Path 72439" d="M894.768,1096.443c-5.152,21.228-9.681,31.886-16.964,44.143-3.638,6.123-9.143,4.753-11.724.8-1.14-1.747-.089-6.572-.089-6.572s11.734-38.665,15.315-44.715C883.5,1086.4,895.859,1091.944,894.768,1096.443Z" transform="translate(-863.652 -1018.722)" fill="#763147"/>
        <path id="Path_72440" data-name="Path 72440" d="M1032.807,1206.58c.355,5.447.71,11.606,1.243,17.053,1.126-3.366,4.28-8.8,5.388-12.908C1037.494,1209.715,1034.872,1207.3,1032.807,1206.58Z" transform="translate(-1010.159 -1121.813)" fill="#6c2c41"/>
        <path id="Path_72441" data-name="Path 72441" d="M1069.922,1111.867a33.689,33.689,0,0,1,2.014,12.016c.041,18.3-3.29,35.6-4.2,40.931-1,5.837-8.984,1.5-8.984,1.5s-5.479-48.648-4.006-52.723S1068.47,1107.471,1069.922,1111.867Z" transform="translate(-1029.155 -1036.692)" fill="#763147"/>
        <path id="Path_72442" data-name="Path 72442" d="M1094.56,1542.156c1.518-22.868.285-33.274.285-33.274s-9.368-1.862-9.592,2.043c-.154,2.677,2.164,20.514,4.117,31.012Z" transform="translate(-1056.091 -1386.22)" fill="#763147"/>
        <path id="Path_72443" data-name="Path 72443" d="M1140.176,993.947" transform="translate(-1104.206 -935.562)" fill="#f08d73"/>
        <g id="Group_16058" data-name="Group 16058" transform="translate(31.847 12.982)">
          <path id="Path_72444" data-name="Path 72444" d="M1109.675,631.221c-.6,1.205-2.663,2.527-2.727,1.366a7.972,7.972,0,0,1,.788-3.407c.6-1.2.467-1.407,1.375-.956A2.2,2.2,0,0,1,1109.675,631.221Z" transform="translate(-1106.944 -628.003)" fill="#f08d73"/>
        </g>
        <path id="Path_72445" data-name="Path 72445" d="M1045.514,672.533c.752-2.31-7.079.569-7.079.569l.334,9.536s2.865,4.384,6.745-.578C1045.855,681.624,1045.234,673.4,1045.514,672.533Z" transform="translate(-1015.088 -653.24)" fill="#f08d73"/>
        <path id="Path_72446" data-name="Path 72446" d="M1045.007,673.51c.38.415.554,3.449.5,6-2.582-.121-5.273.63-6.782,2.87h0l-.286-8.168S1043.457,671.818,1045.007,673.51Z" transform="translate(-1015.088 -654.352)" fill="#bb634c"/>
        <path id="Path_72447" data-name="Path 72447" d="M1000.6,568.245c1.639.652,4.662-.76,7.683-2.99,1.865-1.377,1.87-4.323,2.531-6.439a19.2,19.2,0,0,0-.4-9.058,6.657,6.657,0,0,0-1.056-1.768,2.773,2.773,0,0,0-.994-.945,5.886,5.886,0,0,0-1.226-.29c-.747-.159-1.488-.32-2.244-.433a9.787,9.787,0,0,0-4.773.613,4.009,4.009,0,0,0-2.811,2.345,18.328,18.328,0,0,0-.619,4.474c-.323,2.674-.845,5.208-.311,7.9C996.574,562.629,998.324,567.34,1000.6,568.245Z" transform="translate(-978.052 -543.401)" fill="#f08d73"/>
        <path id="Path_72448" data-name="Path 72448" d="M1019.85,680.881s.576,1.874,1.953,1.918a3.01,3.01,0,0,0,3.242-2.62,13.048,13.048,0,0,1-2.62.577A17.129,17.129,0,0,1,1019.85,680.881Z" transform="translate(-998.809 -660.723)" fill="#fff"/>
        <path id="Path_72449" data-name="Path 72449" d="M1055.152,636.489c-.012.283-.19.5-.4.5s-.363-.246-.351-.528.19-.5.4-.5S1055.164,636.206,1055.152,636.489Z" transform="translate(-1029.077 -621.99)" fill="#0f152a"/>
        <path id="Path_72450" data-name="Path 72450" d="M1015.423,636.131c-.013.283-.19.5-.4.5s-.363-.246-.351-.529.19-.5.4-.5S1015.435,635.848,1015.423,636.131Z" transform="translate(-994.276 -621.677)" fill="#0f152a"/>
        <path id="Path_72451" data-name="Path 72451" d="M1044.156,619.281c-.008,0,.085-.014.216-.025s.321-.025.546-.026a6.882,6.882,0,0,1,1.622.176,5.427,5.427,0,0,1,.832.258,3.315,3.315,0,0,1,.368.161,2.769,2.769,0,0,1,.318.167,3.7,3.7,0,0,1,.45.292l.164.119a.228.228,0,0,1-.246.384l-.021-.012-.159-.091a3.294,3.294,0,0,0-.428-.219,2.371,2.371,0,0,0-.3-.12,2.872,2.872,0,0,0-.341-.109,4.776,4.776,0,0,0-.762-.154,6.139,6.139,0,0,0-1.452-.009c-.2.021-.357.049-.467.07s-.156.036-.164.037a.458.458,0,0,1-.178-.9Z" transform="translate(-1019.776 -607.335)" fill="#a64629"/>
        <path id="Path_72452" data-name="Path 72452" d="M1002.928,619.5l-.123-.031c-.081-.02-.2-.045-.344-.071a6.733,6.733,0,0,0-1.072-.1,4.153,4.153,0,0,0-1.054.123,2.414,2.414,0,0,0-.326.111l-.121.05-.025.01a.222.222,0,0,1-.2-.4l.133-.08a2.908,2.908,0,0,1,.364-.185,4.745,4.745,0,0,1,1.178-.315,7.449,7.449,0,0,1,1.205-.061c.165.006.3.015.4.024l.158.017a.463.463,0,1,1-.1.92.437.437,0,0,1-.063-.011Z" transform="translate(-981.034 -606.74)" fill="#a64629"/>
        <g id="Group_16059" data-name="Group 16059" transform="translate(15.614 152.132)">
          <path id="Path_72453" data-name="Path 72453" d="M985.821,1769.115l.784.8a.671.671,0,0,1,.166.626,12.64,12.64,0,0,1-2.8,5.118c-2.558,2.981-4.2,3.9-5.721,4.559a.861.861,0,0,1-.788-.071l-.861-.778A51.455,51.455,0,0,0,985.821,1769.115Z" transform="translate(-976.537 -1766.686)" fill="#fff"/>
          <path id="Path_72454" data-name="Path 72454" d="M982.536,1750.129c.029.255.172.483.222.738a2.752,2.752,0,0,1,.009.783c-.045.458-.2.778-.676.819-.916.075-1.591-.868-2.51-.929-.6-.042-.458.815-.371,1.2a11.734,11.734,0,0,1,.123,1.687,2.888,2.888,0,0,1-.041.911c-.033.181-.075.36-.117.538-.012.052-.021.1-.035.156a17.616,17.616,0,0,1-.658,2.012c-.012.028-.028.066-.049.108-.008.016-.018.034-.026.052s-.03.06-.048.094l-.043.081-.053.1-.057.1c-.543,1-1.8,2.791-1.993,3.139a.591.591,0,0,0-.1.374c.081.392,1.023-.1,1.414-.306a19.032,19.032,0,0,0,5.567-4.819c.495-.507,2.876-4.42,2.3-5-.523-.535-.937-1.179-1.45-1.708C983.594,1749.9,982.407,1748.9,982.536,1750.129Z" transform="translate(-976.109 -1749.535)" fill="#394a76"/>
          <path id="Path_72455" data-name="Path 72455" d="M1023.1,1750.129c.029.255.172.484.222.738a2.755,2.755,0,0,1,.009.783c-.045.458-.2.778-.676.819a1.234,1.234,0,0,1-.237,0c.941.768,1.866,1.642,3.047,1.531.446-.939.72-1.8.492-2.031-.522-.535-.937-1.179-1.449-1.708C1024.155,1749.9,1022.968,1748.9,1023.1,1750.129Z" transform="translate(-1016.669 -1749.535)" fill="#4278aa"/>
        </g>
        <g id="Group_16060" data-name="Group 16060" transform="translate(32.395 159.513)">
          <path id="Path_72456" data-name="Path 72456" d="M1119.222,1815.025l-1.914-4.875c-.046-.117-.571-.208-.644-.353a1.582,1.582,0,0,0-1.7-.767,1.51,1.51,0,0,0-.75.2c-.277.176-.364.482-.571.715a.824.824,0,0,1-.686.183l-1.6,4.9h.162l-.162.216.487.63,3.414.317,3.48-.319.482-.629-.162-.216Z" transform="translate(-1111.36 -1809.028)" fill="#394c77"/>
          <path id="Path_72457" data-name="Path 72457" d="M1111.376,1857.157l-.016.026c0,.437.228,1.286.627,1.463a8.125,8.125,0,0,0,4.105.609,8.721,8.721,0,0,0,2.041-.459,1.809,1.809,0,0,0,.76-.4c.116-.124.443-1.026.329-1.21l-.016-.026c.025.041-1.947.719-2.146.759a8.817,8.817,0,0,1-2.409.171,6.657,6.657,0,0,1-2.134-.418Z" transform="translate(-1111.36 -1851.186)" fill="#fff"/>
        </g>
        <path id="Path_72458" data-name="Path 72458" d="M996.265,775.984a78.571,78.571,0,0,0-1.053-8.054,77,77,0,0,1-1.928-8.774c-.17-1.525.012-3.061-.158-4.589a2.339,2.339,0,0,0-1.241-2.092,13.543,13.543,0,0,0-4.441-1.288c-.448-.066-3.218-.493-3.42,0-.392,1.356-.651,1.822-2.393,2.09-1.83.281-3.952.233-4.7-1.775,0-.006,0-.012-.005-.019a15.7,15.7,0,0,0-3.436.754c-1.2.555-1.729,2.575-2.127,3.714-.558,1.6-.96,3.231-1.405,4.861a46.918,46.918,0,0,0-1.674,12.44c0,3.367-.478,6.829-.192,10.182.052.6-.193,1.749.153,2.272.228.345.879.557,1.249.753a10.461,10.461,0,0,0,3.5.807,56.919,56.919,0,0,0,17.377.084,18.776,18.776,0,0,0,4.144-1.039c1.983-.816,1.11-2.161,1.472-3.932a18.342,18.342,0,0,0,.656-2.432A20.455,20.455,0,0,0,996.265,775.984Z" transform="translate(-953.397 -722.717)" fill="#fff"/>
        <g id="Group_16062" data-name="Group 16062" transform="translate(21.186 13.801)">
          <g id="Group_16061" data-name="Group 16061">
            <path id="Path_72459" data-name="Path 72459" d="M1022.77,634.6a4.407,4.407,0,0,1-.134,1.534,4.365,4.365,0,0,1-.152.494,9.77,9.77,0,0,1-.908,1.822l.036-.2c-.005,0-.015.01.032.048a.7.7,0,0,0,.194.1,3.471,3.471,0,0,0,.536.149,7.371,7.371,0,0,1,1.167.315c-.406.038-.8.093-1.21.1a3.215,3.215,0,0,1-.639-.056,1.234,1.234,0,0,1-.353-.135.636.636,0,0,1-.311-.419.277.277,0,0,1,.029-.184l.007-.013.471-.869c.154-.289.31-.576.455-.866s.283-.583.414-.884S1022.643,634.924,1022.77,634.6Z" transform="translate(-1021.022 -634.603)" fill="#d77156"/>
          </g>
        </g>
        <path id="Path_72460" data-name="Path 72460" d="M1091.762,563.613c-.954-.078-1.936,1.014-2.533,1.771-.077.1-.146.193-.217.289.009-.024.021-.047.03-.071a3.392,3.392,0,0,0-1.591,2.224,6.247,6.247,0,0,0,.174,3.508,2.382,2.382,0,0,0,1.741,1.79,1.585,1.585,0,0,0,.229.017,1.694,1.694,0,0,0,.738-.176,1.714,1.714,0,0,0,.217.231,3.288,3.288,0,0,1,1.44-1.453.758.758,0,0,1,.619.072m-3.191.958c-.621-.091-1.152-.657-1.457-1.553a5.87,5.87,0,0,1-.3-2.5,3.912,3.912,0,0,1,.44-1.42,5.049,5.049,0,0,0-.271,2.113,3.238,3.238,0,0,0,1.125,2.319c.257.19.556.306.8.517a2.341,2.341,0,0,1,.363.427A1.292,1.292,0,0,1,1089.417,572.773Z" transform="translate(-1057.871 -558.617)" fill="#a64629"/>
        <g id="Group_16063" data-name="Group 16063" transform="translate(30.135 16.954)">
          <path id="Path_72461" data-name="Path 72461" d="M1095.489,666.757a2.586,2.586,0,0,1-2.243-2.143,4.712,4.712,0,0,1,.633-3.456,2.594,2.594,0,0,1,1.763-1.142.133.133,0,0,1,.04.264,2.3,2.3,0,0,0-1.584,1.03,4.431,4.431,0,0,0-.591,3.249,2.257,2.257,0,0,0,2.119,1.927,2.419,2.419,0,0,0,1.995-2.234,5.26,5.26,0,0,0-.158-1.865,5.325,5.325,0,0,0-.661-1.565,2.175,2.175,0,0,0-.229-.284.133.133,0,0,1,.191-.186,2.385,2.385,0,0,1,.257.319,5.956,5.956,0,0,1,.864,3.611,2.684,2.684,0,0,1-2.234,2.469C1095.6,666.754,1095.543,666.757,1095.489,666.757Z" transform="translate(-1093.152 -660.014)" fill="#ffac48"/>
        </g>
        <g id="Group_16068" data-name="Group 16068" transform="translate(35.03 29.612)">
          <path id="Path_72462" data-name="Path 72462" d="M1206.539,1165.066a7.76,7.76,0,0,0-1.063,1.214,11.836,11.836,0,0,0-.567,3.414,2.985,2.985,0,0,0-.035.477.526.526,0,0,0,1.014.269,1.439,1.439,0,0,0,.2-.454,5.781,5.781,0,0,0,.066-.948,3.585,3.585,0,0,1,.293-.9,8.113,8.113,0,0,0,.17-2.38A2.81,2.81,0,0,0,1206.539,1165.066Z" transform="translate(-1195.906 -1115.057)" fill="#f08d73"/>
          <g id="Group_16064" data-name="Group 16064" transform="translate(7.002 28.768)">
            <path id="Path_72463" data-name="Path 72463" d="M1194.926,994.659c-.967-.534-3.829-1.294-5.021-.18-1,.934-.858,1.6-.858,1.6.307,7.5,2.163,13.682,3.288,19.144,1.106,5.371,2.595,1.387,2.595,1.387C1195.5,1010.51,1196.307,1004.451,1194.926,994.659Z" transform="translate(-1189.041 -993.906)" fill="#f08d73"/>
          </g>
          <g id="Group_16065" data-name="Group 16065" transform="translate(1.94 0.128)">
            <path id="Path_72464" data-name="Path 72464" d="M1159.631,798.211a30.054,30.054,0,0,0-.406-6.671c-.971-7.412-.167-9.528-1.391-14.76-1.667-7.127-4.443-13.427-8.859-13.716-1.806-.118-.091,13.767,3.036,21.672.665,1.681.284,3.6,2.009,11.988C1154.021,796.725,1157.894,799.293,1159.631,798.211Z" transform="translate(-1148.24 -763.064)" fill="#f08d73"/>
          </g>
          <path id="Path_72465" data-name="Path 72465" d="M1215.941,1163.749c.388,1.01.505,2.087.838,3.107a10.9,10.9,0,0,1,.12,4.1,1.133,1.133,0,0,1-1.39,1.248q-.584.018-1.167.008a.782.782,0,0,1-.562-.162.83.83,0,0,1-.129-.654c.142-1.91-.531-3.671-.628-5.558a3.99,3.99,0,0,1,.818-2.406A17.736,17.736,0,0,1,1215.941,1163.749Z" transform="translate(-1203.042 -1113.62)" fill="#f08d73"/>
          <g id="Group_16067" data-name="Group 16067">
            <g id="Group_16066" data-name="Group 16066">
              <path id="Path_72466" data-name="Path 72466" d="M1136.586,783.159c.059-.026.117-.056.173-.085a24.016,24.016,0,0,1,8.93-2.649c.442-.031-1.6-6.171-1.758-6.645-1.118-3.331-2.242-7-4.7-9.619-1.422-1.514-3.823-3.258-5.641-1.154-1.814,2.193-.625,6.1-.315,8.611.447,3.62,1.519,7.06,2.18,10.688.07.386.206.847.587.943A.836.836,0,0,0,1136.586,783.159Z" transform="translate(-1132.604 -762.035)" fill="#fff"/>
            </g>
          </g>
        </g>
        <g id="Group_16069" data-name="Group 16069" transform="translate(31.107 7.732)">
          <path id="Path_72467" data-name="Path 72467" d="M1101.172,585.687s.023.092.054.253.046.4.119.655c.034.129.071.266.1.41s.1.294.137.451c.085.315.228.636.353.962.059.143.145.333.22.476s.149.316.224.472a3.45,3.45,0,0,1,.294.939,1.281,1.281,0,0,1,.016.4.846.846,0,0,1-.056.3c-.06.161-.1.242-.1.242l-.024-.254a1.02,1.02,0,0,0-.058-.27,1.593,1.593,0,0,0-.122-.329,7.188,7.188,0,0,0-.434-.78c-.087-.145-.185-.287-.275-.457s-.169-.313-.256-.5l-.187-.537a3.05,3.05,0,0,1-.124-.538,2.575,2.575,0,0,1-.065-.514c-.005-.168,0-.326,0-.469a3.012,3.012,0,0,1,.112-.666C1101.143,585.778,1101.172,585.687,1101.172,585.687Z" transform="translate(-1100.986 -585.687)" fill="#802411"/>
        </g>
        <g id="Group_16070" data-name="Group 16070" transform="translate(32.596 6.133)">
          <path id="Path_72468" data-name="Path 72468" d="M1112.983,572.8l.175.191c.112.125.281.309.507.524s.5.475.825.776a8.324,8.324,0,0,1,1.025,1.084,4.5,4.5,0,0,1,.836,1.612c.032.152.07.3.1.461s.028.342.042.517c.017.335.007.669.02.994l.006.228.032.254a2.693,2.693,0,0,0,.085.493,5.794,5.794,0,0,0,.318.919,6.865,6.865,0,0,0,1.17,1.675,18.967,18.967,0,0,1,1.481,1.594,3.6,3.6,0,0,1,.722,2.092c-.012.182-.009.365-.036.54l-.113.513a4.091,4.091,0,0,0-.156.881,4.8,4.8,0,0,0,.188,1.651,4.4,4.4,0,0,0,1.309,2.132,2.474,2.474,0,0,0,.33.25,1.574,1.574,0,0,0,.263.16l.23.118-.244-.087a1.626,1.626,0,0,1-.286-.127,1.969,1.969,0,0,1-.366-.218,4.348,4.348,0,0,1-1.566-2.119,5.188,5.188,0,0,1-.308-1.776,3.838,3.838,0,0,1,.031-.5c.018-.177.054-.307.086-.492l.078-.451c.019-.151.008-.305.016-.459a3.141,3.141,0,0,0-.66-1.753,5.823,5.823,0,0,0-.682-.757c-.237-.238-.533-.494-.772-.77a7.447,7.447,0,0,1-1.255-1.843l-.2-.522c-.062-.175-.095-.37-.141-.552a3.044,3.044,0,0,1-.074-.526l-.024-.254c-.007-.124,0-.184,0-.279q.01-.5.019-.99c0-.15,0-.3-.006-.444s-.047-.31-.069-.462a4.154,4.154,0,0,0-.675-1.493,11.747,11.747,0,0,0-.91-1.129c-.288-.329-.55-.608-.75-.856a5.885,5.885,0,0,1-.444-.583Z" transform="translate(-1112.983 -572.8)" fill="#802411"/>
        </g>
        <path id="Path_72469" data-name="Path 72469" d="M1053.4,648.985c0,.826-1.246,1.5-2.784,1.5s-2.784-.669-2.784-1.5,1.247-1.495,2.784-1.495S1053.4,648.159,1053.4,648.985Z" transform="translate(-1023.318 -632.09)" opacity="0.6" fill="url(#radial-gradient)" style="mix-blend-mode: multiply;isolation: isolate"/>
        <path id="Path_72470" data-name="Path 72470" d="M989.449,648.03c0,.826-1.246,1.495-2.784,1.495s-2.784-.669-2.784-1.495,1.246-1.5,2.784-1.5S989.449,647.2,989.449,648.03Z" transform="translate(-967.303 -631.253)" opacity="0.6" fill="url(#radial-gradient-2)" style="mix-blend-mode: multiply;isolation: isolate"/>
        <g id="Group_16073" data-name="Group 16073" transform="translate(10.812)">
          <g id="Group_16072" data-name="Group 16072">
            <g id="Group_16071" data-name="Group 16071">
              <path id="Path_72471" data-name="Path 72471" d="M946.932,547.76a10.564,10.564,0,0,1-1.428-2.268c-1.258-2.919-.934-6.452-.155-9.451a6.508,6.508,0,0,1,4.237-4.542c1.266-.329,2.247.145,3.43.413a10.177,10.177,0,0,0,2.965.18c1.729-.12,2.786-1.583,3.966-2.747.876-1.359.346-2.683-.59-4.1-1.887-2.866-7.952-1.862-10.747-.8-2.92,1.106-4.79,3.57-5.966,6.37-.531,1.264-1.177,2.585-1.609,3.88-.517,1.549-.293,3.153-1.119,4.64-.958,1.724-.875,2.919-.977,4.858a21.414,21.414,0,0,1-1.533,5.986c.151.442.173,1.147.763,1.535a4.726,4.726,0,0,0,2.059.341c1.089.049,2.086-.586,3.17-.589,1.189,0,2.218.766,3.358.991.859.17,2.4-.064,2.557-1.04C949.481,550.365,947.509,548.5,946.932,547.76Z" transform="translate(-937.407 -523.367)" fill="#a64629"/>
            </g>
          </g>
        </g>
        <g id="Group_16074" data-name="Group 16074" transform="translate(35.616 16.969)">
          <path id="Path_72472" data-name="Path 72472" d="M1137.385,660.135s.036.163.084.449l.084.516c.047.194.1.411.145.646s.158.475.233.735l.348.792.439.838c.147.3.295.572.439.886a3.311,3.311,0,0,1,.283,1.041,2.406,2.406,0,0,1-.165,1.049,5.39,5.39,0,0,1-.422.829c-.141.245-.274.468-.374.68a1.98,1.98,0,0,0-.187.6,1.159,1.159,0,0,0,.037.482,1.588,1.588,0,0,0,.127.3l.055.106a1.666,1.666,0,0,1-.293-.361,1.338,1.338,0,0,1-.156-.531,1.794,1.794,0,0,1,.084-.717c.139-.5.445-1.026.612-1.558a2.1,2.1,0,0,0,.087-.825,2.762,2.762,0,0,0-.252-.841c-.123-.287-.279-.6-.414-.885s-.266-.578-.4-.873c-.107-.3-.208-.59-.289-.871a7.784,7.784,0,0,1-.142-.815,7.993,7.993,0,0,1,0-1.214C1137.367,660.3,1137.385,660.135,1137.385,660.135Z" transform="translate(-1137.326 -660.135)" fill="#802411"/>
        </g>
        <g id="Group_16075" data-name="Group 16075" transform="translate(15.502 6.265)">
          <path id="Path_72473" data-name="Path 72473" d="M990.172,574.321l-.337.151c-.22.1-.54.248-.965.4a7.111,7.111,0,0,1-1.582.414,4.816,4.816,0,0,1-2.131-.188c-.748-.215-1.527-.523-2.365-.679a3.374,3.374,0,0,0-1.26-.027,1.631,1.631,0,0,0-.3.081l-.125.042-.156.083c-.2.114-.429.216-.621.343a6.377,6.377,0,0,0-1.846,2.087,5.351,5.351,0,0,0-.772,2.759,7.947,7.947,0,0,1-.056,1.592,3.045,3.045,0,0,1-.275.8c-.146.261-.273.441-.417.663a10.6,10.6,0,0,0-.829,1.223,2.941,2.941,0,0,0-.375,1.287,6.708,6.708,0,0,0,.031,1.357,4.43,4.43,0,0,0,.3,1.254c.159.371.388.75.564,1.14a2.99,2.99,0,0,1,.213.612l.033.159.008.039a.375.375,0,0,1,0,.053l0,.074.012.291a4.925,4.925,0,0,1-.465,2.1,8.351,8.351,0,0,0-.646,1.466,2.163,2.163,0,0,0-.068.578,2.206,2.206,0,0,0,.1.421l.174.323-.2-.31a2.244,2.244,0,0,1-.139-.427,1.987,1.987,0,0,1,.024-.611,8.426,8.426,0,0,1,.552-1.534,4.044,4.044,0,0,0-.579-4.2,6.038,6.038,0,0,1-.45-2.826,5.044,5.044,0,0,1,1.25-2.774c.128-.2.287-.443.384-.627a2.446,2.446,0,0,0,.209-.642,7.632,7.632,0,0,0,.026-1.47,5.936,5.936,0,0,1,.89-3.055,6.816,6.816,0,0,1,2.091-2.273c.211-.133.425-.225.634-.338l.157-.081a1.764,1.764,0,0,1,.207-.072,2.148,2.148,0,0,1,.376-.085,3.846,3.846,0,0,1,1.434.085,24.649,24.649,0,0,1,2.379.788,4.947,4.947,0,0,0,2.005.291,6.917,6.917,0,0,0,1.567-.3C989.689,574.5,990.172,574.321,990.172,574.321Z" transform="translate(-975.21 -573.861)" fill="#802411"/>
        </g>
        <g id="Group_16076" data-name="Group 16076" transform="translate(12.573 4.357)">
          <path id="Path_72474" data-name="Path 72474" d="M970.675,558.484l-.314.256c-.207.165-.5.421-.9.711a3.472,3.472,0,0,1-1.675.659,8.67,8.67,0,0,1-1.108.047,8.565,8.565,0,0,1-1.231-.154l-2.661-.6a7.282,7.282,0,0,0-2.916-.06,4.543,4.543,0,0,0-2.562,1.577,4.66,4.66,0,0,0-.472.66c-.141.216-.277.455-.412.7l-.416.739c-.12.212-.254.491-.379.733-.108.249-.174.481-.256.727a7.748,7.748,0,0,0-.119.786,7.248,7.248,0,0,0-.022.8c.008.283.039.55.07.815a5.445,5.445,0,0,1,.041.865,2.588,2.588,0,0,1-.042.465c-.035.134-.061.263-.1.4a5.809,5.809,0,0,1-.873,1.469,8.376,8.376,0,0,0-.84,1.248c-.023.042-.066.127-.073.133l-.057.18-.111.356a4.412,4.412,0,0,0-.052.662,22.558,22.558,0,0,0,.371,2.671c.015.22.046.421.045.644a3.345,3.345,0,0,1-.06.613,4.5,4.5,0,0,1-.372,1.064,3.315,3.315,0,0,1-.566.81c-.212.223-.426.384-.6.558a1.142,1.142,0,0,0-.335.524,1.214,1.214,0,0,0,.033.468c.081.248.137.379.137.379s-.066-.124-.17-.369a1.261,1.261,0,0,1-.074-.49,1.169,1.169,0,0,1,.321-.594,4.288,4.288,0,0,0,1.043-1.384,3.674,3.674,0,0,0,.25-2.173,22.362,22.362,0,0,1-.478-2.713,4.409,4.409,0,0,1,.043-.8l.1-.363.051-.182c.041-.11.061-.136.093-.208a7.62,7.62,0,0,1,.865-1.348,5.727,5.727,0,0,0,.766-1.286c.037-.123.064-.263.1-.394a2.391,2.391,0,0,0,.022-.352,4.884,4.884,0,0,0-.048-.786c-.037-.286-.072-.572-.083-.847a7.722,7.722,0,0,1,.013-.877,8.2,8.2,0,0,1,.124-.881,7.881,7.881,0,0,1,.3-.866c.137-.256.248-.485.407-.762l.42-.725a8.982,8.982,0,0,1,.956-1.43,5.1,5.1,0,0,1,2.9-1.738,7.181,7.181,0,0,1,3.122.145l2.64.7a9.5,9.5,0,0,0,1.165.2,8.412,8.412,0,0,0,1.077.021,3.29,3.29,0,0,0,1.632-.531c.412-.263.73-.488.948-.637Z" transform="translate(-951.599 -558.484)" fill="#802411"/>
        </g>
        <g id="Group_16077" data-name="Group 16077" transform="translate(19.984 2.352)">
          <path id="Path_72475" data-name="Path 72475" d="M1022.877,542.79s-.164.1-.456.266c-.147.08-.321.184-.536.28a6.439,6.439,0,0,1-.729.318,6.007,6.007,0,0,1-.911.262l-.513.092-.133.024-.033.006h-.122l-.266,0a4.137,4.137,0,0,1-1.162-.2c-.373-.119-.732-.262-1.085-.4a10.743,10.743,0,0,0-1.033-.38c-.167-.034-.346-.089-.5-.116-.181-.023-.365-.055-.536-.07l-.489-.021-.48.021a5.855,5.855,0,0,0-.87.156,6.888,6.888,0,0,0-.72.236c-.2.1-.387.182-.529.265-.278.176-.447.273-.447.273s.131-.137.378-.372c.128-.11.3-.225.49-.37a4.294,4.294,0,0,1,.714-.369,4.627,4.627,0,0,1,.92-.277l.523-.073c.183-.01.371-.008.563-.012s.361.027.546.04a5.791,5.791,0,0,1,.593.113,10.884,10.884,0,0,1,1.107.383c.352.147.7.293,1.038.408a4.08,4.08,0,0,0,.987.229l.266.014.065,0h.009l.031,0,.124-.011.485-.041a8.55,8.55,0,0,0,.885-.147c.275-.052.519-.138.744-.191s.416-.125.574-.177C1022.692,542.842,1022.877,542.79,1022.877,542.79Z" transform="translate(-1011.331 -542.325)" fill="#802411"/>
        </g>
        <g id="Group_16078" data-name="Group 16078" transform="translate(0 51.549)">
          <path id="Path_72476" data-name="Path 72476" d="M850.322,942.251c-.444-1.007,1.724-3.473,3.354-3.4,1.366.059,1.691.653,1.69.651,4.65,5.888,7.27,11.791,9.973,16.669,2.659,4.8-1.066,2.743-1.066,2.743A81.782,81.782,0,0,1,850.322,942.251Z" transform="translate(-850.264 -938.846)" fill="#f08d73"/>
        </g>
        <path id="Path_72477" data-name="Path 72477" d="M956.1,1080.954c.363,1.019.976,1.913,1.388,2.9a10.891,10.891,0,0,0,2.576,3.185,1.133,1.133,0,0,0,1.868.042q.454-.366.89-.754a.78.78,0,0,0,.321-.489.829.829,0,0,0-.328-.58c-1.352-1.357-1.988-3.131-3.143-4.627a3.99,3.99,0,0,0-2.187-1.293A17.744,17.744,0,0,0,956.1,1080.954Z" transform="translate(-942.973 -1010.354)" fill="#f08d73"/>
      </g>
    </g>
    <g id="Group_16081" data-name="Group 16081" transform="translate(-300.21 -130.568)">
      <path id="Path_72478" data-name="Path 72478" d="M492.79,288.91v26.4c0,25.557-28.79,32-28.79,32s-28.79-6.447-28.79-32v-26.4s10.747-9.517,28.79-12.97C482.043,279.394,492.79,288.91,492.79,288.91Z" fill="#3269a0"/>
      <path id="Path_72479" data-name="Path 72479" d="M516.62,398.468a46.536,46.536,0,0,1-13.192-6.022,31.6,31.6,0,0,1-9.141-9.1,25.53,25.53,0,0,1-2.953-6.441,27.921,27.921,0,0,1-1.124-7.986V343.649a53.657,53.657,0,0,1,6.556-4.323,66.393,66.393,0,0,1,8.7-4.109,67.3,67.3,0,0,1,11.154-3.241,67.305,67.305,0,0,1,11.154,3.241,66.389,66.389,0,0,1,8.7,4.109,53.647,53.647,0,0,1,6.556,4.323v25.272a27.908,27.908,0,0,1-1.136,8.028,25.543,25.543,0,0,1-2.984,6.466,31.71,31.71,0,0,1-9.216,9.111A46.259,46.259,0,0,1,516.62,398.468Z" transform="translate(-52.618 -53.609)" fill="#205682"/>
      <path id="Path_72480" data-name="Path 72480" d="M569.24,449.68a44.381,44.381,0,0,1-11.864-5.525,29.239,29.239,0,0,1-8.463-8.4,23.152,23.152,0,0,1-2.678-5.84,25.544,25.544,0,0,1-1.025-7.305V398.518a54.2,54.2,0,0,1,5.346-3.434,64.009,64.009,0,0,1,8.386-3.961,64.969,64.969,0,0,1,10.294-3.032,64.968,64.968,0,0,1,10.294,3.032,64.013,64.013,0,0,1,8.386,3.961,54.19,54.19,0,0,1,5.346,3.434v24.088a25.528,25.528,0,0,1-1.036,7.343,23.159,23.159,0,0,1-2.706,5.863,29.35,29.35,0,0,1-8.535,8.418A44.186,44.186,0,0,1,569.24,449.68Z" transform="translate(-105.236 -107.294)" fill="#3269a0"/>
      <path id="Path_72481" data-name="Path 72481" d="M795.981,882.66,785.619,872.3l4.186-4.186,6.25,6.25,12.683-12.233,4.11,4.261Z" transform="translate(-335.234 -560.804)" fill="#fff"/>
    </g>
  </g>
</svg>
