<svg id="Layer_1" data-name="Layer 1" xmlns="http://www.w3.org/2000/svg" viewBox="0 0 375.85 218.84"><defs><style>.cls-1{fill:#fefefe;}.cls-2{fill:#0b2bc8;}.cls-3{font-size:12px;fill:#fff;font-family:MyriadPro-Regular, Myriad Pro;}.cls-4{fill:#fafcfd;}.cls-5{fill:#e80618;}.cls-6{fill:#f89e17;}.cls-7{fill:#fe6506;}</style></defs><path fill="#fefefe" d="M830.71,526.42V450.94q108.42,0,216.84,0c1.59,0,2,.36,2,2q-.06,107.46,0,214.92c0,1.6-.36,2-2,2q-107.46-.07-214.92,0c-1.6,0-2-.36-2-2q.08-70,0-140.08a67,67,0,0,1,18.91,7.89c.66.39,1.44.65,1.8,1.42q7.49,27.94,15,55.89a1.85,1.85,0,0,0,2.19,1.65c3.91-.07,7.81,0,11.72,0,5.06,0,5.07,0,7-4.74L912,528.64c.91-2.23.9-2.24-1.52-2.24-4.68,0-9.38.09-14.06,0-1.66-.05-2.31.55-2.85,2-4,10.93-8,21.82-12.08,32.73-1.33,3.59-2.67,7.18-4.24,11.37l-2.19-9.74c-1.48-9.07-3.52-18-5.41-27-1.27-6-5.57-9.3-11.72-9.32C848.85,526.39,839.78,526.41,830.71,526.42Zm155.47,68.17c6,0,11.71,0,17.39,0,1.09,0,1.25-.71,1.52-1.43,1.31-3.53,2.67-7,3.91-10.58a2.05,2.05,0,0,1,2.29-1.63c5.75.08,11.51.09,17.26,0,1.43,0,1.8.58,2,1.77.58,3.28,1.31,6.54,1.83,9.83.23,1.5.68,2.17,2.38,2.11,4.12-.15,8.24-.1,12.36,0,1.45,0,2-.13,1.57-1.82-1.41-6.23-2.63-12.49-3.92-18.75q-4.74-22.92-9.48-45.84c-.24-1.18-.65-1.79-2.06-1.75-3.9.11-7.81.06-11.72,0-4.79,0-7.95,2-9.81,6.61-5.46,13.47-11.15,26.86-16.74,40.28C992.09,580.35,989.22,587.28,986.18,594.59Zm-28.27.09c7-.08,14.47-1.46,21.11-6.08,9.07-6.33,13.53-22.33-.24-31.12-2.28-1.45-4.69-2.65-7.08-3.89s-5.15-2.45-7.23-4.45-2.08-4.5.18-6.45a10.13,10.13,0,0,1,6.09-2.23,30.19,30.19,0,0,1,15.38,2.45c1.06.48,1.6.5,1.81-.83.56-3.72,1.16-7.43,1.84-11.13.27-1.46-.32-2-1.61-2.38a45.84,45.84,0,0,0-16.61-2.05c-7.28.5-14.11,2.35-19.88,7.16-7.49,6.24-11.38,19.8,1.05,28.31a54.84,54.84,0,0,0,6.24,3.67c2.71,1.38,5.55,2.57,7.89,4.58,3.41,2.92,3,6.86-1,9a15.71,15.71,0,0,1-7.4,1.67,37.32,37.32,0,0,1-16.87-3.83c-1.29-.63-1.82-.46-2,1-.55,3.72-1.1,7.45-1.85,11.13-.34,1.65.26,2.28,1.68,2.72A62,62,0,0,0,957.91,594.68Zm-40.06-.08c2.34,0,4.68-.06,7,0,1.22,0,1.69-.28,1.89-1.58,1.36-8.91,2.81-17.79,4.25-26.68q3.09-19.11,6.22-38.2c.24-1.43-.14-1.84-1.59-1.81-4.18.09-8.37,0-12.56,0-3.22,0-3.16,0-3.67,3.21q-3.3,20.7-6.64,41.37c-1.17,7.28-2.33,14.56-3.55,21.84-.23,1.38.11,1.9,1.6,1.83C913.16,594.51,915.5,594.6,917.85,594.6Z" transform="translate(-830.67 -450.9)"/><path fill="#0b2bc8" d="M830.71,526.42c9.07,0,18.14,0,27.21,0,6.15,0,10.45,3.32,11.72,9.32,1.89,9,3.93,17.94,5.41,27a59.84,59.84,0,0,0-15.53-20c-2.52-2.15-5-4.45-8.1-5.73-.36-.77-1.14-1-1.8-1.42a67,67,0,0,0-18.91-7.89Z" transform="translate(-830.67 -450.9)"/><text class="cls-3" transform="translate(83.38 112.02)">#0b2bc8</text><path fill="#0b2bc8" d="M986.18,594.59c3-7.31,5.91-14.24,8.79-21.17,5.59-13.42,11.28-26.81,16.74-40.28,1.86-4.59,5-6.64,9.81-6.61,3.91,0,7.82.08,11.72,0,1.41,0,1.82.57,2.06,1.75q4.73,22.92,9.48,45.84c1.29,6.26,2.51,12.52,3.92,18.75.39,1.69-.12,1.85-1.57,1.82-4.12-.08-8.24-.13-12.36,0-1.7.06-2.15-.61-2.38-2.11-.52-3.29-1.25-6.55-1.83-9.83-.21-1.19-.58-1.79-2-1.77-5.75.1-11.51.09-17.26,0a2.05,2.05,0,0,0-2.29,1.63c-1.24,3.55-2.6,7-3.91,10.58-.27.72-.43,1.43-1.52,1.43C997.89,594.57,992.21,594.59,986.18,594.59ZM1022,546.18l-.46,0c-2.19,7-4.39,14-6.64,21.17,3.76,0,7.36,0,10.95,0,1.06,0,1.18-.47,1-1.31Z" transform="translate(-830.67 -450.9)"/><path fill="#0b2bc8"  d="M957.91,594.68A62,62,0,0,1,939.4,592c-1.42-.44-2-1.07-1.68-2.72.75-3.68,1.3-7.41,1.85-11.13.22-1.47.75-1.64,2-1a37.32,37.32,0,0,0,16.87,3.83,15.71,15.71,0,0,0,7.4-1.67c4-2.16,4.38-6.1,1-9-2.34-2-5.18-3.2-7.89-4.58a54.84,54.84,0,0,1-6.24-3.67c-12.43-8.51-8.54-22.07-1.05-28.31,5.77-4.81,12.6-6.66,19.88-7.16a45.84,45.84,0,0,1,16.61,2.05c1.29.39,1.88.92,1.61,2.38-.68,3.7-1.28,7.41-1.84,11.13-.21,1.33-.75,1.31-1.81.83a30.19,30.19,0,0,0-15.38-2.45,10.13,10.13,0,0,0-6.09,2.23c-2.26,1.95-2.33,4.37-.18,6.45s4.71,3.14,7.23,4.45,4.8,2.44,7.08,3.89c13.77,8.79,9.31,24.79.24,31.12C972.38,593.22,964.88,594.6,957.91,594.68Z" transform="translate(-830.67 -450.9)"/><path fill="#0b2bc8" d="M851.42,537c3.14,1.28,5.58,3.58,8.1,5.73a59.84,59.84,0,0,1,15.53,20c.68,3,1.36,6.06,2.19,9.74,1.57-4.19,2.91-7.78,4.24-11.37,4-10.91,8.1-21.8,12.08-32.73.54-1.48,1.19-2.08,2.85-2,4.68.14,9.38,0,14.06,0,2.42,0,2.43,0,1.52,2.24l-24.72,61.14c-1.92,4.75-1.93,4.74-7,4.74-3.91,0-7.81,0-11.72,0a1.85,1.85,0,0,1-2.19-1.65Q858.95,564.94,851.42,537Z" transform="translate(-830.67 -450.9)"/><path fill="#0b2bc8"  d="M917.85,594.6c-2.35,0-4.69-.09-7,0-1.49.07-1.83-.45-1.6-1.83,1.22-7.28,2.38-14.56,3.55-21.84q3.33-20.69,6.64-41.37c.51-3.2.45-3.21,3.67-3.21,4.19,0,8.38.06,12.56,0,1.45,0,1.83.38,1.59,1.81q-3.15,19.1-6.22,38.2c-1.44,8.89-2.89,17.77-4.25,26.68-.2,1.3-.67,1.63-1.89,1.58C922.53,594.54,920.19,594.6,917.85,594.6Z" transform="translate(-830.67 -450.9)"/><path fill="#fafcfd" d="M1022,546.18l4.83,19.9c.2.84.08,1.32-1,1.31-3.59,0-7.19,0-10.95,0,2.25-7.19,4.45-14.18,6.64-21.17Z" transform="translate(-830.67 -450.9)"/><path fill="#e80618" d="M1140.39,589.83a39.79,39.79,0,1,1,.78-59.17,39.78,39.78,0,0,0-.78,59.17Z" transform="translate(-830.67 -450.9)"/><path fill="#f89e17" d="M1206.52,559.89a39.8,39.8,0,0,1-66.81,29.24,39.78,39.78,0,0,0,.78-59.17,39.8,39.8,0,0,1,66,29.93Z" transform="translate(-830.67 -450.9)"/><path fill="#fe6506" d="M1153.61,559.55A39.66,39.66,0,0,1,1140,589.48a39.78,39.78,0,0,1,.78-59.17A39.69,39.69,0,0,1,1153.61,559.55Z" transform="translate(-830.67 -450.9)"/></svg>
