<svg id="Group_15788" data-name="Group 15788" xmlns="http://www.w3.org/2000/svg" width="22.315" height="22.317" viewBox="0 0 22.315 22.317">
  <path id="Path_71999" data-name="Path 71999" d="M229.5,218.543v-1.652c.167.267.343.359.561.293s.309-.234.309-.558c0-.942,0-1.884,0-2.826a1.427,1.427,0,0,1,1.485-1.5c2.29-.006,4.58,0,6.87-.005a.262.262,0,0,1,.255.153c.177.3.36.594.545.887a1.121,1.121,0,0,0,1.964-.006c.181-.287.362-.575.532-.87a.291.291,0,0,1,.293-.165c.754.008,1.507,0,2.261,0,1.6,0,3.2,0,4.8,0a1.432,1.432,0,0,1,1.513,1.513q0,4.9,0,9.8a1.654,1.654,0,0,1-.074.513,1.507,1.507,0,0,1-1.531,1.048c-2.029,0-4.058.012-6.087,0a2.309,2.309,0,0,0-2.182,1.231c-.12.209-.252.411-.39.634-.151-.247-.287-.46-.415-.678a2.274,2.274,0,0,0-2.12-1.185c-2.029.011-4.058,0-6.087,0a1.513,1.513,0,0,1-1.639-1.635c0-.964,0-1.928,0-2.891a.447.447,0,0,0-.451-.5.539.539,0,0,0-.418.3V218.8c.027.041.053.084.082.124a.427.427,0,0,0,.516.151.433.433,0,0,0,.268-.448.441.441,0,0,0-.384-.382C229.746,218.221,229.615,218.37,229.5,218.543Zm11.61,2.837a1.824,1.824,0,1,0-1.83,1.815A1.829,1.829,0,0,0,241.11,221.38Zm.786-.013c0,.428,0,.855,0,1.283a.461.461,0,0,0,.518.5c.217,0,.435,0,.652,0a1.425,1.425,0,0,0,1.337-.842,2.151,2.151,0,0,0,.1-1.669,1.433,1.433,0,0,0-1.431-1.051c-.217,0-.435,0-.652,0a.458.458,0,0,0-.524.517C241.894,220.526,241.9,220.946,241.9,221.367Zm-4-3.911c.057-.092.094-.153.133-.212.4-.618.808-1.233,1.206-1.853a.435.435,0,0,0-.377-.712c-.557-.007-1.115,0-1.672,0a.436.436,0,1,0,.012.868c.286,0,.572,0,.889,0-.053.089-.087.15-.125.208q-.6.927-1.207,1.852a.45.45,0,0,0-.044.489.443.443,0,0,0,.434.231c.579,0,1.158,0,1.737,0a.437.437,0,1,0,.006-.869C238.569,217.454,238.251,217.456,237.9,217.456Zm-4.1,3.927a2.8,2.8,0,0,0,.033.315,2.157,2.157,0,0,0,.11.374,1.756,1.756,0,0,0,2.8.669c.229-.231.253-.475.067-.67a.434.434,0,0,0-.666.041.715.715,0,0,1-.636.206.913.913,0,0,1-.8-.7.894.894,0,0,1,.307-.977.911.911,0,0,1,1.035-.12c.033.015.062.037.094.054a.438.438,0,1,0,.427-.76,1.748,1.748,0,0,0-1.819-.041A1.779,1.779,0,0,0,233.793,221.383Zm9.245-6.706h-.282c-.449,0-.592.146-.592.6q0,1.227,0,2.454a1.2,1.2,0,0,0,.015.237.43.43,0,0,0,.453.353.423.423,0,0,0,.4-.412c.008-.123,0-.246,0-.369,0-.415,0-.415.406-.431a1.215,1.215,0,0,0,.225-2.4A3.017,3.017,0,0,0,243.038,214.676Zm2.405,6.68c0,.456,0,.912,0,1.368a.416.416,0,0,0,.421.456c.39.013.782.013,1.172,0a.432.432,0,1,0-.013-.863c-.2-.007-.391-.006-.586,0-.094,0-.133-.031-.126-.125a.951.951,0,0,0,0-.2c-.021-.147.026-.208.185-.193a3.274,3.274,0,0,0,.456,0,.433.433,0,0,0,.01-.865,2.361,2.361,0,0,0-.434,0c-.188.023-.23-.049-.219-.225.019-.331-.039-.282.292-.287.087,0,.174,0,.26,0a.9.9,0,0,0,.343-.033.431.431,0,0,0,.257-.457.416.416,0,0,0-.414-.372c-.368-.015-.738-.013-1.107-.007-.345.006-.494.165-.5.516C245.441,220.5,245.443,220.93,245.443,221.357Zm-4.283-4.842c0-.449,0-.9,0-1.347a.44.44,0,0,0-.434-.49.445.445,0,0,0-.433.475q-.006,1.347,0,2.694a.444.444,0,0,0,.429.477.434.434,0,0,0,.438-.484C241.163,217.4,241.16,216.956,241.16,216.515Z" transform="translate(-229.496 -206.102)" fill="#fdfdfd"/>
  <path id="Path_72000" data-name="Path 72000" d="M229.433,112.666q0-3.521,0-7.042c0-.145.023-.18.176-.18q10.977.008,21.953,0c.164,0,.186.043.186.192q-.006,10.966,0,21.932c0,.147-.018.193-.185.193q-10.977-.009-21.953,0c-.151,0-.177-.033-.177-.179.007-1.391,0-2.782,0-4.173.086.1.076.225.113.338a2.387,2.387,0,0,0,2.376,1.648c2.043,0,4.087.006,6.13,0a1.43,1.43,0,0,1,1.344.751c.244.418.5.828.758,1.24a.443.443,0,0,0,.823,0c.241-.387.491-.769.712-1.167a1.508,1.508,0,0,1,1.457-.824c2.022.016,4.043.008,6.065,0a2.375,2.375,0,0,0,2.486-2.486q0-4.859,0-9.717a2.576,2.576,0,0,0-.12-.833,2.305,2.305,0,0,0-2.3-1.584q-3.2,0-6.391,0a.5.5,0,0,1-.249-.02c0-.019-.005-.036,0-.046.074-.124.147-.249.226-.37a3.141,3.141,0,0,0,.53-2.163,2.988,2.988,0,1,0-5.47,2.03c.111.182.223.363.351.57H238q-3.076,0-6.152,0a2.3,2.3,0,0,0-2.354,1.769C229.483,112.584,229.5,112.649,229.433,112.666Z" transform="translate(-229.429 -105.443)" fill="#fefefe"/>
  <path id="Path_72001" data-name="Path 72001" d="M229.5,115.018c.068-.017.05-.082.063-.125a2.3,2.3,0,0,1,2.354-1.769q3.076,0,6.152,0h.276c-.128-.207-.24-.388-.351-.57a2.988,2.988,0,1,1,5.47-2.03,3.141,3.141,0,0,1-.53,2.163c-.079.121-.152.246-.226.37-.006.01,0,.026,0,.046a.5.5,0,0,0,.249.02q3.2,0,6.391,0a2.305,2.305,0,0,1,2.3,1.584,2.578,2.578,0,0,1,.12.833q0,4.859,0,9.717a2.375,2.375,0,0,1-2.486,2.486c-2.022,0-4.043.011-6.065,0a1.508,1.508,0,0,0-1.457.824c-.221.4-.471.78-.712,1.167a.443.443,0,0,1-.823,0c-.256-.411-.514-.821-.758-1.24a1.43,1.43,0,0,0-1.344-.751c-2.043.008-4.087,0-6.13,0a2.387,2.387,0,0,1-2.376-1.648c-.037-.113-.027-.242-.113-.338v-3.609a.539.539,0,0,1,.418-.3.447.447,0,0,1,.451.5c0,.964,0,1.928,0,2.891a1.513,1.513,0,0,0,1.639,1.635c2.029,0,4.058.008,6.087,0a2.274,2.274,0,0,1,2.12,1.185c.128.218.264.431.415.678.138-.223.271-.424.39-.634a2.309,2.309,0,0,1,2.182-1.231c2.029.016,4.058.006,6.087,0a1.507,1.507,0,0,0,1.531-1.048,1.653,1.653,0,0,0,.074-.513q0-4.9,0-9.8a1.432,1.432,0,0,0-1.513-1.513c-1.6,0-3.2,0-4.8,0-.754,0-1.507,0-2.261,0a.291.291,0,0,0-.293.165c-.17.294-.351.582-.532.87a1.121,1.121,0,0,1-1.964.006c-.186-.293-.369-.588-.545-.887a.262.262,0,0,0-.255-.153c-2.29,0-4.58,0-6.87.005a1.427,1.427,0,0,0-1.485,1.5c0,.942,0,1.884,0,2.826,0,.324-.094.493-.309.558s-.393-.026-.561-.293Zm13.127-4.143a3.238,3.238,0,0,0-.065-.424,2.039,2.039,0,0,0-1.653-1.591,2.112,2.112,0,0,0-2.214,3.161c.5.862,1.041,1.7,1.568,2.548.146.235.339.233.487,0q.789-1.271,1.571-2.547A2.23,2.23,0,0,0,242.627,110.875Z" transform="translate(-229.496 -107.795)" fill="rgba(11,5,5,0.44)"/>
  <path id="Path_72002" data-name="Path 72002" d="M229.5,315.182c.115-.173.246-.322.481-.295a.441.441,0,0,1,.384.382.433.433,0,0,1-.268.448.427.427,0,0,1-.516-.151c-.029-.04-.055-.082-.082-.124Z" transform="translate(-229.496 -302.74)" fill="#0b0505"/>
  <path id="Path_72003" data-name="Path 72003" d="M370.5,339.18a1.824,1.824,0,1,1-1.814-1.832A1.826,1.826,0,0,1,370.5,339.18Zm-.87.024a.954.954,0,1,0-.983.921A.959.959,0,0,0,369.625,339.2Z" transform="translate(-358.881 -323.902)" fill="#939191"/>
  <path id="Path_72004" data-name="Path 72004" d="M443.287,339.807c0-.42,0-.841,0-1.261a.458.458,0,0,1,.524-.517c.217,0,.435,0,.652,0a1.433,1.433,0,0,1,1.431,1.051,2.151,2.151,0,0,1-.1,1.669,1.425,1.425,0,0,1-1.337.842c-.217,0-.435,0-.652,0a.461.461,0,0,1-.518-.5C443.282,340.663,443.287,340.235,443.287,339.807Zm1.1-.909c-.064.048-.236-.1-.234.125,0,.528,0,1.056,0,1.584,0,.077.016.11.105.119a.7.7,0,0,0,.837-.57,1.465,1.465,0,0,0-.007-.73A.629.629,0,0,0,444.389,338.9Z" transform="translate(-430.886 -324.543)" fill="#939191"/>
  <path id="Path_72005" data-name="Path 72005" d="M354.2,256.069c.354,0,.672,0,.99,0a.437.437,0,1,1-.006.868c-.579,0-1.158,0-1.737,0a.443.443,0,0,1-.434-.231.45.45,0,0,1,.044-.489q.607-.924,1.207-1.852c.038-.058.072-.119.125-.208-.317,0-.6,0-.889,0a.436.436,0,1,1-.012-.868c.557,0,1.115-.006,1.672,0a.435.435,0,0,1,.377.712c-.4.621-.8,1.236-1.206,1.853C354.291,255.916,354.254,255.977,354.2,256.069Z" transform="translate(-345.795 -244.715)" fill="#939191"/>
  <path id="Path_72006" data-name="Path 72006" d="M303.553,339.071a1.779,1.779,0,0,1,.953-1.607,1.748,1.748,0,0,1,1.819.041.438.438,0,1,1-.427.76c-.032-.017-.061-.038-.094-.054a.911.911,0,0,0-1.035.12.894.894,0,0,0-.307.977.913.913,0,0,0,.8.7.715.715,0,0,0,.636-.206.434.434,0,0,1,.666-.041c.187.2.162.439-.067.67a1.756,1.756,0,0,1-2.8-.669,2.16,2.16,0,0,1-.11-.374A2.811,2.811,0,0,1,303.553,339.071Z" transform="translate(-299.255 -323.79)" fill="#939191"/>
  <path id="Path_72007" data-name="Path 72007" d="M448.789,253.325a3.034,3.034,0,0,1,.627.037,1.215,1.215,0,0,1-.225,2.4c-.406.017-.406.017-.406.431,0,.123,0,.246,0,.369a.423.423,0,0,1-.4.412.43.43,0,0,1-.453-.353,1.2,1.2,0,0,1-.015-.237q0-1.227,0-2.454c0-.456.144-.6.592-.6Zm0,1.206c0,.364,0,.364.23.363.3,0,.474-.13.47-.355s-.179-.333-.5-.348C448.636,254.174,448.847,254.43,448.785,254.531Z" transform="translate(-435.246 -244.751)" fill="#939191"/>
  <path id="Path_72008" data-name="Path 72008" d="M504.461,339.272c0-.427,0-.854,0-1.281,0-.351.152-.511.5-.516.369-.006.738-.008,1.107.007a.416.416,0,0,1,.414.372.431.431,0,0,1-.257.457.9.9,0,0,1-.343.033c-.087,0-.174,0-.261,0-.331,0-.272-.044-.292.287-.01.176.031.248.219.225a2.357,2.357,0,0,1,.434,0,.433.433,0,0,1-.01.865,3.274,3.274,0,0,1-.456,0c-.158-.015-.205.046-.185.193a.943.943,0,0,1,0,.2c-.006.094.032.127.126.125.2,0,.391-.006.586,0a.432.432,0,1,1,.013.863c-.39.012-.782.013-1.172,0a.416.416,0,0,1-.421-.456C504.457,340.184,504.461,339.728,504.461,339.272Z" transform="translate(-488.514 -324.017)" fill="#939191"/>
  <path id="Path_72009" data-name="Path 72009" d="M416.449,255.192c0,.442,0,.884,0,1.325a.434.434,0,0,1-.438.484.444.444,0,0,1-.429-.477q-.006-1.347,0-2.694a.445.445,0,0,1,.433-.475.44.44,0,0,1,.434.49C416.451,254.294,416.449,254.743,416.449,255.192Z" transform="translate(-404.785 -244.78)" fill="#939191"/>
  <path id="Path_72010" data-name="Path 72010" d="M386.792,125.061a2.23,2.23,0,0,1-.306,1.143q-.781,1.276-1.571,2.547c-.147.237-.34.24-.487,0-.527-.847-1.066-1.686-1.568-2.548a2.112,2.112,0,0,1,2.214-3.161,2.039,2.039,0,0,1,1.653,1.591A3.254,3.254,0,0,1,386.792,125.061Zm-.823.051a1.3,1.3,0,1,0-1.286,1.308A1.309,1.309,0,0,0,385.969,125.112Z" transform="translate(-373.66 -121.981)" fill="#fbfbfb"/>
  <path id="Path_72011" data-name="Path 72011" d="M383.758,353.335a.954.954,0,0,1-1.907-.043.954.954,0,1,1,1.907.043Z" transform="translate(-373.013 -338.033)" fill="#fbfbfb"/>
  <path id="Path_72012" data-name="Path 72012" d="M458.533,352.971a.629.629,0,0,1,.7.527,1.465,1.465,0,0,1,.007.73.7.7,0,0,1-.837.57c-.09-.008-.105-.042-.105-.119,0-.528,0-1.056,0-1.584C458.3,352.87,458.47,353.018,458.533,352.971Z" transform="translate(-445.03 -338.615)" fill="#f8f8f8"/>
  <path id="Path_72013" data-name="Path 72013" d="M462.81,268.584c.062-.1-.149-.357.195-.34.325.016.5.12.5.348s-.165.353-.47.355C462.811,268.947,462.811,268.947,462.81,268.584Z" transform="translate(-449.271 -258.804)" fill="#f4f4f4"/>
  <path id="Path_72014" data-name="Path 72014" d="M399.454,138.43a1.3,1.3,0,1,1-1.3-1.294A1.3,1.3,0,0,1,399.454,138.43Zm-.87,0a.431.431,0,1,0-.417.437A.435.435,0,0,0,398.584,138.431Z" transform="translate(-387.145 -135.298)" fill="#939191"/>
  <path id="Path_72015" data-name="Path 72015" d="M412.726,152.577a.431.431,0,1,1-.861,0,.431.431,0,0,1,.861,0Z" transform="translate(-401.287 -149.445)" fill="#f7f7f7"/>
</svg>
